<svg xmlns="http://www.w3.org/2000/svg" width="24" height="24" fill="none" viewBox="0 0 24 24">
  <path fill="#161C24" fill-rule="evenodd" d="M2.125 2.749a1 1 0 0 1 1-1h2.5a1 1 0 0 1 .987.84L7.001 5h1.177a4.778 4.778 0 0 0 .043 2.13c.494 1.982 2.15 3.636 4.715 4.55a2.05 2.05 0 0 0 1.377 0c2.565-.914 4.222-2.568 4.716-4.55.175-.701.19-1.436.043-2.13h2.053a.75.75 0 0 1 .737.888l-1.5 8a.75.75 0 0 1-.608.6l-10.917 1.9.004.021a1 1 0 0 0 .987.841h8.297c.037 0 .073.002.109.006a2.5 2.5 0 1 1-2.308 1.994h-4.101a2.5 2.5 0 1 1-4.343-1.13 2.991 2.991 0 0 1-.615-1.392L4.773 3.749H3.125a1 1 0 0 1-1-1Zm7.25 16.002a1 1 0 1 0 0 2 1 1 0 0 0 0-2Zm8 1a1 1 0 1 1 2 0 1 1 0 0 1-2 0Zm-3.75-16.35a2.957 2.957 0 0 0-.393-.196c-.589-.241-1.421-.35-2.348.124-1.212.619-1.755 2.068-1.402 3.486.362 1.449 1.616 2.83 3.891 3.64a.75.75 0 0 0 .504 0c2.275-.81 3.53-2.191 3.89-3.64.354-1.418-.19-2.867-1.4-3.486-.928-.473-1.76-.365-2.35-.125a2.96 2.96 0 0 0-.392.196Z" clip-rule="evenodd"/>
</svg>
