<svg xmlns="http://www.w3.org/2000/svg" width="24" height="24" fill="none" viewBox="0 0 24 24">
  <path fill="#161C24" fill-rule="evenodd" d="M12 3a3 3 0 0 0-3 3v2H7V6a5 5 0 0 1 10 0v2h-2V6a3 3 0 0 0-3-3Z" clip-rule="evenodd"/>
  <path fill="#161C24" fill-rule="evenodd" d="M5.003 7.25a.75.75 0 0 0-.743.644L2.75 18.47a3.75 3.75 0 0 0 3.712 4.28h11.082a3.75 3.75 0 0 0 3.712-4.28l-1.51-10.576a.75.75 0 0 0-.743-.644h-14ZM10.5 11a1 1 0 1 0-2 0 3.5 3.5 0 1 0 7 0 1 1 0 1 0-2 0 1.5 1.5 0 0 1-3 0Z" clip-rule="evenodd"/>
</svg>
