<svg xmlns="http://www.w3.org/2000/svg" width="24" height="24" fill="none" viewBox="0 0 24 24">
  <path fill="#161C24" fill-rule="evenodd" d="M11.5 3C9.538 3 8 4.535 8 6.364V7.5H6V6.364C6 3.373 8.492 1 11.5 1S17 3.373 17 6.364V7.5h-2V6.364C15 4.534 13.462 3 11.5 3Z" clip-rule="evenodd"/>
  <path fill="#161C24" fill-rule="evenodd" d="M3.158 9.472A3.75 3.75 0 0 1 6.765 6.75h9.47a3.75 3.75 0 0 1 3.607 2.722l.73 2.56.011.041h-.99A2.5 2.5 0 0 0 15.5 14v1.5H14a2.5 2.5 0 0 0 0 5h1.5V22c0 .17.017.335.049.495a29.77 29.77 0 0 1-4.096.255c-1.628-.005-3.262-.129-4.667-.37-1.374-.236-2.633-.602-3.428-1.153a5.096 5.096 0 0 1-1.854-2.344c-.325-.842-.307-1.751-.119-2.814.186-1.046.558-2.343 1.032-3.996l.741-2.6ZM10 10a1 1 0 1 0 0 2h3a1 1 0 1 0 0-2h-3Z" clip-rule="evenodd"/>
  <path fill="#161C24" fill-rule="evenodd" d="M18 13a1 1 0 0 1 1 1v3h3a1 1 0 1 1 0 2h-3v3a1 1 0 1 1-2 0v-3h-3a1 1 0 1 1 0-2h3v-3a1 1 0 0 1 1-1Z" clip-rule="evenodd"/>
</svg>
