<svg xmlns="http://www.w3.org/2000/svg" width="24" height="24" fill="none" viewBox="0 0 24 24">
  <path fill="#161C24" fill-rule="evenodd" d="M12 3c-1.962 0-3.5 1.535-3.5 3.364V7.5h-2V6.364C6.5 3.373 8.992 1 12 1s5.5 2.373 5.5 5.364V7.5h-2V6.364C15.5 4.534 13.962 3 12 3Z" clip-rule="evenodd"/>
  <path fill="#161C24" fill-rule="evenodd" d="M3.658 9.472A3.75 3.75 0 0 1 7.265 6.75h9.47a3.75 3.75 0 0 1 3.607 2.722l.73 2.56.011.041c.132.46.256.893.37 1.3a5.304 5.304 0 0 0-.15-.082c-1.452-.757-2.828-.612-3.803-.23-.978-.383-2.335-.522-3.784.233-2.067 1.079-2.823 3.482-2.304 5.605.353 1.448 1.25 2.758 2.63 3.792-.686.042-1.39.061-2.09.059-1.627-.005-3.26-.129-4.666-.37-1.374-.236-2.633-.602-3.428-1.153a5.096 5.096 0 0 1-1.854-2.344c-.325-.842-.307-1.751-.119-2.814.186-1.046.558-2.343 1.032-3.996l.741-2.6ZM10.5 10a1 1 0 1 0 0 2h3a1 1 0 1 0 0-2h-3Z" clip-rule="evenodd"/>
  <path fill="#161C24" d="M17.015 14.482c.185.078.347.166.484.252a3.27 3.27 0 0 1 .484-.252c.653-.272 1.595-.398 2.625.139 1.333.694 1.913 2.324 1.522 3.922-.399 1.634-1.794 3.222-4.375 4.162a.75.75 0 0 1-.513 0c-2.58-.94-3.975-2.527-4.374-4.162-.39-1.598.209-3.224 1.541-3.919 1.03-.537 1.953-.414 2.606-.142Z"/>
</svg>
