<svg xmlns="http://www.w3.org/2000/svg" width="24" height="24" fill="none" viewBox="0 0 24 24">
  <path fill="#161C24" fill-rule="evenodd" d="M20.5 9.5a1 1 0 0 1 1 1v2a1 1 0 1 1-2 0v-2a1 1 0 0 1 1-1Zm-18 10v-9h2v9a1 1 0 0 0 1 1H13a1 1 0 1 1 0 2H5.5a3 3 0 0 1-3-3Z" clip-rule="evenodd"/>
  <path fill="#161C24" fill-rule="evenodd" d="M14.82 11.267c1.238 1.026 2.675 1.173 4.009.796 1.472-.415 2.815-1.456 3.749-2.585a.75.75 0 0 0 .139-.699l-1.783-5.794a1.75 1.75 0 0 0-1.673-1.235H4.74a1.75 1.75 0 0 0-1.673 1.235L1.283 8.78a.75.75 0 0 0 .1.648c.663.956 1.948 2.378 3.749 2.702.939.169 2.6.215 3.974-.854.94.718 2.578 1.408 4.52.643a5.229 5.229 0 0 0 1.195-.651ZM5.5 18a1 1 0 0 1 1-1h4a1 1 0 1 1 0 2h-4a1 1 0 0 1-1-1Zm13-3.5a1 1 0 0 1 1 1v2h2a1 1 0 1 1 0 2h-2v2a1 1 0 1 1-2 0v-2h-2a1 1 0 1 1 0-2h2v-2a1 1 0 0 1 1-1Z" clip-rule="evenodd"/>
</svg>
