<svg xmlns="http://www.w3.org/2000/svg" width="24" height="24" fill="none" viewBox="0 0 24 24">
  <path fill="#161C24" d="M7.379 10c0-.744.364-1.425.845-1.905.48-.48 1.16-.845 1.905-.845h4l.112.009a.75.75 0 0 1 .491 1.186l-.073.085-2 2a.673.673 0 0 0 0 .94l.104.083c.256.167.613.14.836-.083l2-2a.75.75 0 0 1 1.28.531V14c0 .744-.365 1.425-.845 1.905s-1.161.845-1.905.845h-2.69l-5.191 5.166-.001-.001a2.852 2.852 0 0 1-4.034-4.034l5.166-5.19V10Zm1.5 3a.75.75 0 0 1-.125.415l-.094.114-5.384 5.41v.001a1.353 1.353 0 1 0 1.912 1.913h.002l5.41-5.384.114-.094a.75.75 0 0 1 .415-.125h3c.256 0 .575-.136.845-.405.27-.27.405-.589.405-.845v-2.19l-.72.72a2.174 2.174 0 0 1-2.896.148l-.164-.148c-.84-.84-.84-2.22 0-3.06l.72-.72h-2.19c-.256 0-.575.136-.845.405-.27.27-.405.589-.405.845v3Z"/>
  <path fill="#161C24" d="M13.408 1.25a1.75 1.75 0 0 1 1.66 1.196l.688 2.063 1.063.673 2.242-.555.141-.028a1.75 1.75 0 0 1 1.783.833l1.39 2.339.071.13a1.75 1.75 0 0 1-.24 1.894l-.1.11-1.586 1.577v1.036l1.585 1.578.102.11a1.75 1.75 0 0 1 .238 1.893l-.07.13-1.39 2.34a1.75 1.75 0 0 1-1.784.832l-.14-.028-2.265-.56-.95.532-.62 2.141a1.751 1.751 0 0 1-1.681 1.264h-2.863a1.75 1.75 0 0 1-1.61-1.066l-.05-.131-.104-.316-.02-.074a.75.75 0 0 1 1.414-.472l.029.072.105.316.036.07a.25.25 0 0 0 .2.101h2.863a.25.25 0 0 0 .24-.18l.706-2.436.054-.136a.75.75 0 0 1 .3-.31l1.476-.829.13-.057a.75.75 0 0 1 .417-.017l2.553.632.08.007a.25.25 0 0 0 .194-.122l1.39-2.338v-.001l.03-.077a.25.25 0 0 0-.02-.16l-.048-.068-1.806-1.798a.751.751 0 0 1-.22-.532v-1.657c0-.2.079-.39.22-.531l1.807-1.798.049-.069a.25.25 0 0 0 .019-.159l-.03-.078-1.39-2.338a.25.25 0 0 0-.194-.122l-.081.007-2.552.632a.75.75 0 0 1-.515-.057l-.066-.038-1.56-.986a.75.75 0 0 1-.31-.397l-.773-2.316a.25.25 0 0 0-.237-.171h-2.559a.25.25 0 0 0-.2.102l-.037.069-.771 2.316a.75.75 0 0 1-.31.397l-1.56.986a.751.751 0 0 1-.582.095l-2.552-.632a.25.25 0 0 0-.224.054l-.05.061-1.365 2.295a.25.25 0 0 0 .049.316l1.79 1.576a.75.75 0 0 1 .255.562v2.106a.75.75 0 0 1-.254.562L2.626 15.74a.75.75 0 0 1-.992-1.125l2.158-1.901v-1.427L2.257 9.935a1.75 1.75 0 0 1-.349-2.208l1.364-2.295.078-.12a1.75 1.75 0 0 1 1.847-.685l2.24.555 1.065-.673.687-2.063.05-.13a1.75 1.75 0 0 1 1.61-1.066h2.559Z"/>
</svg>
