<svg xmlns="http://www.w3.org/2000/svg" width="24" height="24" fill="none" viewBox="0 0 24 24">
  <path fill="#161C24" fill-rule="evenodd" d="M2.72 1.274c-.233.04-.52.156-.72.293a1.82 1.82 0 0 0-.685.967l-.045.156v6.62l.045.156a1.772 1.772 0 0 0 1.219 1.219l.156.045h6.62l.156-.045a1.772 1.772 0 0 0 1.219-1.219l.045-.156V2.69l-.045-.156A2.106 2.106 0 0 0 10.433 2a1.847 1.847 0 0 0-.957-.684L9.33 1.27l-3.28-.002c-1.804-.002-3.302.001-3.33.006Zm12 0c-.233.04-.52.156-.72.293a1.82 1.82 0 0 0-.685.967l-.045.156v6.62l.045.156a1.772 1.772 0 0 0 1.219 1.219l.156.045h6.62l.156-.045a1.772 1.772 0 0 0 1.219-1.219l.045-.156V2.69l-.045-.156A2.106 2.106 0 0 0 22.433 2a1.847 1.847 0 0 0-.957-.684l-.146-.046-3.28-.002c-1.804-.002-3.302.001-3.33.006ZM9.126 2.785c.029.02.069.06.089.089.033.051.035.225.035 3.126s-.002 3.075-.035 3.126a.417.417 0 0 1-.089.089c-.051.033-.225.035-3.126.035s-3.075-.002-3.126-.035a.417.417 0 0 1-.089-.089c-.033-.051-.035-.228-.041-3.055-.003-1.651 0-3.039.006-3.086.015-.103.09-.198.177-.223.037-.011 1.293-.017 3.104-.015 2.868.003 3.044.005 3.095.038Zm12 0c.029.02.069.06.089.089.033.051.035.225.035 3.126s-.002 3.075-.035 3.126a.417.417 0 0 1-.089.089c-.051.033-.225.035-3.126.035s-3.075-.002-3.126-.035a.417.417 0 0 1-.089-.089c-.033-.051-.035-.228-.041-3.055-.003-1.651 0-3.039.006-3.086.015-.103.09-.198.177-.223.037-.011 1.293-.017 3.104-.015 2.868.003 3.044.005 3.095.038ZM2.72 13.274c-.233.04-.52.156-.72.293a1.82 1.82 0 0 0-.685.967l-.045.156v6.62l.045.156a1.772 1.772 0 0 0 1.219 1.219l.156.045h6.62l.156-.045a1.772 1.772 0 0 0 1.219-1.219l.045-.156v-6.62l-.045-.156a2.106 2.106 0 0 0-.252-.534 1.847 1.847 0 0 0-.957-.684l-.146-.046-3.28-.002c-1.804-.002-3.302.001-3.33.006Zm12 0c-.233.04-.52.156-.72.293a1.82 1.82 0 0 0-.685.967l-.045.156v6.62l.045.156a1.772 1.772 0 0 0 1.219 1.219l.156.045h6.62l.156-.045a1.772 1.772 0 0 0 1.219-1.219l.045-.156v-6.62l-.045-.156a2.106 2.106 0 0 0-.252-.534 1.847 1.847 0 0 0-.957-.684l-.146-.046-3.28-.002c-1.804-.002-3.302.001-3.33.006Zm-5.594 1.511c.029.02.069.06.089.089.033.051.035.225.035 3.126s-.002 3.075-.035 3.126a.417.417 0 0 1-.089.089c-.051.033-.225.035-3.126.035s-3.075-.002-3.126-.035a.417.417 0 0 1-.089-.089c-.033-.051-.035-.228-.041-3.055-.003-1.651 0-3.039.006-3.086.015-.103.09-.198.177-.223.037-.011 1.293-.017 3.104-.015 2.868.003 3.044.005 3.095.038Zm12 0c.029.02.069.06.089.089.033.051.035.225.035 3.126s-.002 3.075-.035 3.126a.417.417 0 0 1-.089.089c-.051.033-.225.035-3.126.035s-3.075-.002-3.126-.035a.417.417 0 0 1-.089-.089c-.033-.051-.035-.228-.041-3.055-.003-1.651 0-3.039.006-3.086.015-.103.09-.198.177-.223.037-.011 1.293-.017 3.104-.015 2.868.003 3.044.005 3.095.038Z" clip-rule="evenodd"/>
</svg>
