<svg xmlns="http://www.w3.org/2000/svg" width="24" height="24" fill="none" viewBox="0 0 24 24">
  <path fill="#161C24" fill-rule="evenodd" d="M6.72 3.274a1.76 1.76 0 0 0-1.287.96c-.154.307-.159.343-.172 1.226l-.011.79-.98.01-.98.01-.1.049a.899.899 0 0 0-.362.356c-.053.105-.058.133-.058.325s.005.22.058.325c.07.137.223.288.362.356l.1.049.98.01.98.01.011.79c.011.739.014.799.056.936a1.78 1.78 0 0 0 1.217 1.209l.156.045h4.62l.156-.045a1.772 1.772 0 0 0 1.219-1.219l.045-.156V4.69l-.045-.156A2.106 2.106 0 0 0 12.433 4a1.842 1.842 0 0 0-.957-.684l-.146-.045-2.28-.003c-1.254-.002-2.302.001-2.33.006Zm4.406 1.511c.029.02.069.06.089.089.033.051.035.18.035 2.126s-.002 2.075-.035 2.126a.417.417 0 0 1-.089.089c-.051.033-.18.035-2.126.035s-2.075-.002-2.126-.035a.417.417 0 0 1-.089-.089c-.033-.051-.035-.183-.041-2.055-.003-1.101 0-2.039.007-2.086.014-.103.089-.198.176-.223.037-.011.899-.017 2.104-.015 1.913.003 2.044.005 2.095.038Zm4.132 1.504a.85.85 0 0 0-.439.401c-.043.087-.049.127-.049.31 0 .192.005.22.058.325.07.137.223.288.362.356l.1.049h5.42l.1-.049a.899.899 0 0 0 .362-.356c.053-.105.058-.133.058-.325s-.005-.22-.058-.325a.899.899 0 0 0-.362-.356l-.1-.049-2.69-.004c-2.202-.003-2.703.001-2.762.023Zm-2.538 6.985c-.235.04-.52.156-.72.293a1.82 1.82 0 0 0-.685.967l-.045.156v4.62l.045.156a1.772 1.772 0 0 0 1.219 1.219l.156.045h4.62l.156-.045a1.78 1.78 0 0 0 1.217-1.209c.042-.137.045-.197.056-.936l.011-.79.98-.01.98-.01.115-.058a.899.899 0 0 0 .356-.362c.043-.087.049-.128.049-.31s-.006-.223-.049-.31a.899.899 0 0 0-.356-.362l-.115-.058-.98-.01-.98-.01-.011-.79c-.011-.739-.014-.799-.056-.936a2.195 2.195 0 0 0-.25-.524 1.842 1.842 0 0 0-.957-.684l-.146-.045-2.28-.003c-1.254-.002-2.302.001-2.33.006Zm4.406 1.511c.029.02.069.06.089.089.033.051.035.18.035 2.126s-.002 2.075-.035 2.126a.417.417 0 0 1-.089.089c-.051.033-.18.035-2.126.035s-2.075-.002-2.126-.035a.417.417 0 0 1-.089-.089c-.033-.051-.035-.183-.041-2.055-.003-1.101 0-2.039.006-2.086.015-.103.09-.198.177-.223.037-.011.899-.017 2.104-.015 1.913.003 2.044.005 2.095.038ZM3.258 16.289a.85.85 0 0 0-.439.401c-.043.087-.049.127-.049.31 0 .192.005.22.058.325.07.137.223.288.362.356l.1.049h5.42l.1-.049a.899.899 0 0 0 .362-.356c.053-.105.058-.133.058-.325s-.005-.22-.058-.325a.899.899 0 0 0-.362-.356l-.1-.049-2.69-.004c-2.202-.003-2.703.001-2.762.023Z" clip-rule="evenodd"/>
</svg>
