<svg xmlns="http://www.w3.org/2000/svg" width="24" height="24" fill="none" viewBox="0 0 24 24">
  <path fill="#161C24" fill-rule="evenodd" d="M4.04 1.792a3.001 3.001 0 0 0-1.064.422 2.767 2.767 0 0 0-1.185 1.84C1.764 4.21 1.76 5.11 1.76 12c0 8.486-.008 7.878.11 8.295.057.194.224.55.347.735a2.777 2.777 0 0 0 1.838 1.179c.155.027 1.053.03 7.935.03 8.448 0 7.89.008 8.3-.11.198-.056.553-.222.74-.346a2.777 2.777 0 0 0 1.179-1.838c.027-.155.03-1.054.03-7.945 0-8.486.009-7.878-.11-8.295a3.402 3.402 0 0 0-.343-.73 2.767 2.767 0 0 0-1.841-1.184c-.155-.027-1.05-.031-7.965-.03-6.486.003-7.815.008-7.94.03Zm15.78 1.493c.357.11.652.354.797.659.043.09.09.215.106.276.04.164.04 15.396 0 15.56a1.3 1.3 0 0 1-.943.943c-.164.04-15.396.04-15.56 0a1.3 1.3 0 0 1-.943-.943c-.04-.164-.04-15.396 0-15.56a1.275 1.275 0 0 1 1.063-.96c.072-.008 3.559-.014 7.75-.012 7.123.002 7.627.005 7.73.037Zm-8.082 3.752c-.627.163-.932.916-.597 1.472a1.007 1.007 0 0 0 1.566.199A.92.92 0 0 0 13 8a.92.92 0 0 0-.293-.708 1.005 1.005 0 0 0-.97-.255Zm.042 3.985c-.24.046-.53.26-.66.487-.163.286-.161.71.006.988.288.48.913.645 1.383.362a.997.997 0 0 0 .226-1.53 1.013 1.013 0 0 0-.955-.307Zm-.035 4.008a1 1 0 0 0-.706.65.863.863 0 0 0-.045.32c0 .144.01.22.045.319a.994.994 0 0 0 1.104.665c.805-.117 1.132-1.123.552-1.692a1.003 1.003 0 0 0-.95-.262Z" clip-rule="evenodd"/>
</svg>
