<svg xmlns="http://www.w3.org/2000/svg" width="24" height="24" fill="none" viewBox="0 0 24 24">
  <path fill="#161C24" d="m11.53 10.47-1.06 1.06-5-5 1.06-1.06 5 5Z"/>
  <path fill="#161C24" d="M4.06 2.893a.75.75 0 0 1 .775-.064l3 1.5.078.045A.75.75 0 0 1 8.03 5.53l-2.5 2.5a.75.75 0 0 1-1.156-.117l-.045-.078-1.5-3a.75.75 0 0 1 .14-.865l1-1 .091-.077Zm.352 1.755.793 1.585 1.028-1.028-1.586-.793-.235.236Zm10.32-1.373a4.252 4.252 0 0 1 4.303-.739l.086.04a.75.75 0 0 1 .174 1.19l-1.202 1.202v.94h.94l1.201-1.203.07-.062a.751.751 0 0 1 1.16.322 4.252 4.252 0 0 1-.74 4.304l-.219.236a4.245 4.245 0 0 1-4.059 1.11l-5.83 5.831a4.246 4.246 0 0 1-.891 3.822l-.22.237a4.25 4.25 0 0 1-4.54.959.75.75 0 0 1-.26-1.23l1.202-1.202v-.94h-.94l-1.201 1.203a.75.75 0 0 1-1.19-.174l-.04-.086a4.25 4.25 0 0 1 .96-4.54l.236-.22a4.247 4.247 0 0 1 3.824-.89l5.829-5.83a4.245 4.245 0 0 1 1.11-4.06l.237-.22Zm2.437.494a2.738 2.738 0 0 0-1.46.644l-.153.143a2.75 2.75 0 0 0-.62 2.94.75.75 0 0 1-.17.8l-6.47 6.47a.75.75 0 0 1-.8.17 2.752 2.752 0 0 0-2.788.477l-.152.143a2.74 2.74 0 0 0-.786 1.613l.357-.357.114-.093a.75.75 0 0 1 .416-.126h2a.75.75 0 0 1 .75.75v2a.75.75 0 0 1-.22.53l-.357.357a2.738 2.738 0 0 0 1.614-.786l.142-.152c.675-.785.837-1.86.48-2.785a.75.75 0 0 1 .169-.8l6.472-6.473.083-.07a.75.75 0 0 1 .717-.099 2.75 2.75 0 0 0 2.938-.62l.142-.153c.366-.425.58-.936.643-1.462l-.357.357a.75.75 0 0 1-.53.22h-2a.75.75 0 0 1-.75-.75v-2c0-.199.08-.39.22-.53l.356-.357Z"/>
  <path fill="#161C24" d="m20.634 16.87.144.16a2.102 2.102 0 0 1-.143 2.813l-.792.792c-.77.77-1.987.817-2.813.143l-.16-.143-5.603-5.605 1.06-1.06 5.605 5.604.093.076a.6.6 0 0 0 .757-.076l.791-.792a.602.602 0 0 0 .077-.757l-.077-.093-5.603-5.605 1.06-1.06 5.604 5.603Z"/>
</svg>
