<svg xmlns="http://www.w3.org/2000/svg" width="24" height="24" fill="none" viewBox="0 0 24 24">
  <path fill="#161C24" fill-rule="evenodd" d="M3.54 2.292a3.001 3.001 0 0 0-1.064.422 2.767 2.767 0 0 0-1.185 1.84C1.264 4.71 1.26 5.56 1.26 12c0 7.938-.008 7.378.11 7.795.057.194.224.55.347.735a2.777 2.777 0 0 0 1.838 1.179c.155.027 1.104.03 8.435.03 8.994 0 8.39.008 8.8-.11.198-.056.553-.222.74-.346a2.777 2.777 0 0 0 1.179-1.838c.027-.155.03-1.004.03-7.445 0-7.938.009-7.378-.11-7.795a3.402 3.402 0 0 0-.343-.73 2.768 2.768 0 0 0-1.841-1.184c-.155-.027-1.101-.031-8.465-.03-6.908.003-8.315.008-8.44.03Zm16.78 1.493c.357.11.652.354.797.659.14.293.133.179.133 2.346v1.96H2.75V6.79c0-1.58.005-1.981.027-2.07a1.275 1.275 0 0 1 1.063-.96c.07-.008 3.784-.014 8.25-.012 7.596.002 8.127.005 8.23.037ZM5.258 5.289a.85.85 0 0 0-.44.4c-.042.088-.048.128-.048.31 0 .193.005.22.058.326.07.137.223.288.362.356l.1.049h1.42l.1-.05a.899.899 0 0 0 .362-.355c.053-.105.058-.133.058-.325s-.005-.22-.058-.325a.899.899 0 0 0-.362-.356c-.1-.05-.102-.05-.79-.053-.54-.003-.706.002-.762.023Zm4 0a.85.85 0 0 0-.44.4c-.042.088-.048.128-.048.31 0 .193.005.22.058.326.07.137.223.288.362.356l.1.049h1.42l.1-.05a.899.899 0 0 0 .362-.355c.053-.105.058-.133.058-.325s-.005-.22-.058-.325a.899.899 0 0 0-.362-.356c-.1-.05-.102-.05-.79-.053-.54-.003-.706.002-.762.023Zm11.992 9.42c0 3.68-.005 4.48-.027 4.57a1.3 1.3 0 0 1-.943.944c-.164.04-16.396.04-16.56 0a1.317 1.317 0 0 1-.935-.903c-.031-.102-.034-.441-.04-4.57-.003-2.452-.001-4.47.004-4.484.008-.021 1.765-.025 9.255-.021l9.246.005v4.46Z" clip-rule="evenodd"/>
</svg>
