<svg xmlns="http://www.w3.org/2000/svg" width="24" height="24" fill="none" viewBox="0 0 24 24">
  <path fill="#161C24" fill-rule="evenodd" d="M3.54 2.292a3.001 3.001 0 0 0-1.064.422 2.767 2.767 0 0 0-1.185 1.84C1.264 4.71 1.26 5.56 1.26 12c0 7.938-.008 7.378.11 7.795.057.194.224.55.347.735a2.777 2.777 0 0 0 1.838 1.179c.155.027 1.104.03 8.435.03 8.994 0 8.39.008 8.8-.11.198-.056.553-.222.74-.346a2.777 2.777 0 0 0 1.179-1.838c.027-.155.03-1.004.03-7.445 0-7.938.009-7.378-.11-7.795a3.402 3.402 0 0 0-.343-.73 2.768 2.768 0 0 0-1.841-1.184c-.155-.027-1.101-.031-8.465-.03-6.908.003-8.315.008-8.44.03ZM8.75 12v8.25H6.29c-2 0-2.481-.005-2.57-.027a1.3 1.3 0 0 1-.943-.943c-.04-.164-.04-14.396 0-14.56a1.274 1.274 0 0 1 1.063-.96c.07-.008 1.206-.014 2.52-.012l2.39.002V12Zm11.57-8.215c.357.11.652.354.797.659a2 2 0 0 1 .106.276c.04.164.04 14.396 0 14.56a1.3 1.3 0 0 1-.667.837c-.302.144.129.133-5.346.133h-4.96l-.005-8.23c-.003-4.527-.001-8.241.004-8.255.008-.021.979-.025 4.986-.02 4.616.006 4.983.008 5.085.04ZM4.758 6.289a.85.85 0 0 0-.44.4c-.042.088-.048.128-.048.31 0 .193.005.22.058.326.07.137.223.288.362.356l.1.049h1.42l.1-.05a.899.899 0 0 0 .362-.355c.053-.105.058-.133.058-.325s-.005-.22-.058-.325a.899.899 0 0 0-.362-.356c-.1-.05-.102-.05-.79-.053-.54-.003-.706.002-.762.023Zm0 3a.85.85 0 0 0-.44.4c-.042.088-.048.128-.048.31 0 .193.005.22.058.326.07.137.223.288.362.356l.1.049h1.42l.1-.05a.899.899 0 0 0 .362-.355c.053-.105.058-.133.058-.325s-.005-.22-.058-.325a.899.899 0 0 0-.362-.356c-.1-.05-.102-.05-.79-.053-.54-.003-.706.002-.762.023Z" clip-rule="evenodd"/>
</svg>
