<svg xmlns="http://www.w3.org/2000/svg" width="24" height="24" fill="none" viewBox="0 0 24 24">
  <path fill="#161C24" d="M21.25 10A3.25 3.25 0 0 0 18 6.75H6A3.25 3.25 0 0 0 2.75 10v4A3.25 3.25 0 0 0 6 17.25h12A3.25 3.25 0 0 0 21.25 14v-4Zm1.5 4A4.75 4.75 0 0 1 18 18.75H6A4.75 4.75 0 0 1 1.25 14v-4A4.75 4.75 0 0 1 6 5.25h12A4.75 4.75 0 0 1 22.75 10v4Z"/>
  <path fill="#161C24" d="M10.25 11c0-.69-.56-1.25-1.25-1.25H7c-.69 0-1.25.56-1.25 1.25v2c0 .69.56 1.25 1.25 1.25h2c.69 0 1.25-.56 1.25-1.25v-2Zm1.5 2A2.75 2.75 0 0 1 9 15.75H7A2.75 2.75 0 0 1 4.25 13v-2A2.75 2.75 0 0 1 7 8.25h2A2.75 2.75 0 0 1 11.75 11v2Z"/>
</svg>
