<svg xmlns="http://www.w3.org/2000/svg" width="24" height="24" fill="none" viewBox="0 0 24 24">
  <path fill="#161C24" fill-rule="evenodd" d="M6.54 1.292a3.001 3.001 0 0 0-1.064.422c-.592.396-.991.985-1.169 1.726-.034.143-.037.567-.047 8.98l-.01 8.83-.73.01-.73.01-.115.058a.899.899 0 0 0-.356.362c-.043.087-.049.128-.049.31s.006.223.049.31a.812.812 0 0 0 .474.408c.118.032 18.296.032 18.414 0a.812.812 0 0 0 .474-.408c.043-.087.049-.128.049-.31 0-.192-.005-.22-.058-.325a.899.899 0 0 0-.362-.356c-.099-.049-.106-.049-.83-.059l-.73-.01-.01-8.83c-.01-8.413-.013-8.837-.047-8.98a2.841 2.841 0 0 0-.63-1.252 2.762 2.762 0 0 0-1.618-.897c-.154-.027-.796-.031-5.465-.029-4.374.002-5.316.007-5.44.03Zm10.78 1.493c.357.11.652.354.797.659.043.091.091.215.106.276.022.092.027 1.568.027 8.82v8.71h-3l-.01-1.79c-.011-1.785-.011-1.79-.056-1.936a1.783 1.783 0 0 0-1.218-1.209l-.156-.045h-3.62l-.156.045a1.783 1.783 0 0 0-1.218 1.209c-.045.146-.045.151-.056 1.936l-.01 1.79h-3v-8.71c0-7.252.005-8.728.027-8.82a1.274 1.274 0 0 1 1.063-.959 436.98 436.98 0 0 1 5.25-.013c4.758.003 5.128.005 5.23.037ZM9.758 5.289a.85.85 0 0 0-.439.401c-.043.087-.049.127-.049.31 0 .192.005.22.058.325.07.137.223.288.362.356l.1.049h4.42l.1-.049a.899.899 0 0 0 .362-.356c.053-.105.058-.133.058-.325s-.005-.22-.058-.325a.899.899 0 0 0-.362-.356l-.1-.049-2.19-.004c-1.787-.003-2.203.001-2.262.023Zm0 3.5a.85.85 0 0 0-.439.401c-.043.087-.049.127-.049.31 0 .192.005.22.058.325.07.137.223.288.362.356l.1.049h4.42l.1-.049a.899.899 0 0 0 .362-.356c.053-.105.058-.133.058-.325s-.005-.22-.058-.325a.899.899 0 0 0-.362-.356l-.1-.049-2.19-.004c-1.787-.003-2.203.001-2.262.023Zm0 3.5a.85.85 0 0 0-.439.401c-.043.087-.049.127-.049.31 0 .192.005.22.058.325.07.137.223.288.362.356l.1.049h4.42l.1-.049a.899.899 0 0 0 .362-.356c.053-.105.058-.133.058-.325s-.005-.22-.058-.325a.899.899 0 0 0-.362-.356l-.1-.049-2.19-.004c-1.787-.003-2.203.001-2.262.023Zm3.868 5.496c.029.02.069.06.089.089.033.051.035.162.035 1.715v1.661h-3.5l-.006-1.59c-.003-.875 0-1.628.006-1.675.015-.102.09-.198.177-.223.037-.011.703-.017 1.604-.015 1.435.003 1.544.005 1.595.038Z" clip-rule="evenodd"/>
</svg>
