<svg xmlns="http://www.w3.org/2000/svg" width="24" height="24" fill="none" viewBox="0 0 24 24">
  <path fill="#161C24" fill-rule="evenodd" d="M7.72 1.774a1.97 1.97 0 0 0-.72.293 1.847 1.847 0 0 0-.684.957l-.046.146-.01 3.79-.01 3.79-1.29.011c-1.263.01-1.293.011-1.436.055-.163.05-.386.157-.524.251a1.843 1.843 0 0 0-.684.957l-.046.146-.01 4.29-.01 4.29-.23.01c-.203.009-.243.017-.345.068a.899.899 0 0 0-.356.362c-.043.087-.049.128-.049.31s.006.223.049.31a.899.899 0 0 0 .356.362l.115.058h20.42l.115-.058a.899.899 0 0 0 .356-.362c.043-.087.049-.128.049-.31 0-.192-.005-.22-.058-.325a.89.89 0 0 0-.362-.355c-.082-.04-.142-.051-.33-.059l-.23-.011-.01-4.29-.01-4.29-.046-.146a1.79 1.79 0 0 0-1.208-1.208c-.143-.044-.173-.045-1.436-.055l-1.29-.011-.01-3.79-.01-3.79-.046-.146a2.22 2.22 0 0 0-.251-.524 1.843 1.843 0 0 0-.957-.684l-.146-.046-4.28-.002c-2.354-.002-4.302.001-4.33.006Zm8.406 1.511c.029.02.069.06.089.089.033.052.035.474.035 8.715v8.661h-3.5l-.01-1.23-.01-1.23-.049-.1a.899.899 0 0 0-.356-.362c-.105-.053-.133-.058-.325-.058s-.22.005-.325.058a.899.899 0 0 0-.356.362l-.049.1-.01 1.23-.01 1.23h-3.5l-.006-8.59c-.003-4.725 0-8.628.006-8.675.015-.103.09-.198.177-.223.038-.011 1.687-.017 4.104-.015 3.824.003 4.044.005 4.095.038Zm-5.368 2.504a.853.853 0 0 0-.439.401c-.043.087-.049.127-.049.31 0 .192.005.22.058.325.07.137.223.288.362.356l.1.049h2.42l.115-.058a.899.899 0 0 0 .356-.362c.043-.087.049-.128.049-.31s-.006-.223-.049-.31a.899.899 0 0 0-.356-.362l-.115-.058-1.19-.004c-.955-.003-1.204.002-1.262.023Zm0 3.5a.853.853 0 0 0-.439.401c-.043.087-.049.127-.049.31 0 .192.005.22.058.325.07.137.223.288.362.356l.1.049h2.42l.115-.058a.899.899 0 0 0 .356-.362c.043-.087.049-.128.049-.31s-.006-.223-.049-.31a.899.899 0 0 0-.356-.362l-.115-.058-1.19-.004c-.955-.003-1.204.002-1.262.023ZM6.25 16.5v4.25h-2.5l-.006-4.09c-.003-2.25 0-4.128.006-4.175.015-.103.09-.198.177-.223.036-.011.552-.017 1.193-.015l1.13.003v4.25Zm13.876-4.215c.029.02.069.06.089.089.033.051.035.274.035 4.215v4.161h-2.5l-.005-4.23c-.003-2.326-.001-4.242.004-4.256.008-.02.241-.024 1.167-.02 1.065.006 1.16.009 1.21.041Zm-9.368.504a.853.853 0 0 0-.439.401c-.043.087-.049.127-.049.31 0 .192.005.22.058.325.07.137.223.288.362.356l.1.049h2.42l.115-.058a.899.899 0 0 0 .356-.362c.043-.087.049-.128.049-.31s-.006-.223-.049-.31a.899.899 0 0 0-.356-.362l-.115-.058-1.19-.004c-.955-.003-1.204.002-1.262.023Z" clip-rule="evenodd"/>
</svg>
