<svg xmlns="http://www.w3.org/2000/svg" width="24" height="24" fill="none" viewBox="0 0 24 24">
  <path fill="#161C24" fill-rule="evenodd" d="M5.745 2.299a.653.653 0 0 0-.288.194c-.04.042-.54.779-1.111 1.637-.762 1.145-1.045 1.586-1.062 1.654-.031.12-.031.312 0 .432.032.128 2.087 3.215 2.223 3.34a.927.927 0 0 0 .189.13l.094.044 2.725.005 2.725.006v10.518l-1.225.006-1.225.005-.115.058a.899.899 0 0 0-.356.362c-.043.087-.049.128-.049.31s.006.223.049.31a.899.899 0 0 0 .356.362l.115.058h6.42l.115-.058a.899.899 0 0 0 .356-.362c.043-.087.049-.128.049-.31s-.006-.223-.049-.31a.899.899 0 0 0-.356-.362l-.115-.058-1.23-.01-1.23-.01v-4.5l2.73-.01 2.73-.01.095-.044a.9.9 0 0 0 .192-.135c.125-.117 2.166-3.177 2.211-3.317a.906.906 0 0 0 0-.468c-.045-.14-2.086-3.2-2.211-3.317a.9.9 0 0 0-.192-.135l-.095-.044-2.725-.005-2.725-.006V5.655c-.001-1.629-.008-2.657-.021-2.745a.964.964 0 0 0-.073-.245.886.886 0 0 0-.356-.346l-.1-.049-3.18-.004c-3.074-.005-3.183-.004-3.285.033ZM11.24 6v2.26H6.407l-.754-1.13L4.9 6l.753-1.13.754-1.13h4.833V6Zm7.107 4.87L19.1 12l-.753 1.13-.754 1.13H12.76V9.74h4.833l.754 1.13Z" clip-rule="evenodd"/>
</svg>
