<svg xmlns="http://www.w3.org/2000/svg" width="24" height="24" fill="none" viewBox="0 0 24 24">
  <path fill="#161C24" fill-rule="evenodd" d="M11.758 1.288a.856.856 0 0 0-.439.402l-.049.1-.006.745c-.003.41-.008.745-.011.745-.053 0-.7.09-.861.12A8.852 8.852 0 0 0 6.75 5.001 9.285 9.285 0 0 0 5.001 6.75 8.852 8.852 0 0 0 3.4 10.392c-.03.161-.12.808-.12.861 0 .003-.335.008-.745.011-.744.006-.745.006-.845.055a.899.899 0 0 0-.362.356c-.053.105-.058.133-.058.325s.005.22.058.325c.07.137.223.288.362.356.1.049.101.049.845.055.41.003.745.008.745.011l.04.324a8.335 8.335 0 0 0 .83 2.779 8.151 8.151 0 0 0 1.669 2.331A8.151 8.151 0 0 0 8.15 19.85a8.335 8.335 0 0 0 2.779.83l.324.04c.003 0 .008.335.011.745l.006.745.058.115c.07.137.223.288.362.356.087.043.128.049.31.049s.223-.006.31-.049a.899.899 0 0 0 .362-.356l.058-.115.006-.745c.003-.41.008-.745.011-.745l.324-.04a8.726 8.726 0 0 0 5.812-3.28 8.795 8.795 0 0 0 1.717-3.792c.03-.16.12-.808.12-.861 0-.003.335-.008.745-.011l.745-.006.115-.058a.899.899 0 0 0 .356-.362c.043-.087.049-.128.049-.31 0-.192-.005-.22-.058-.325a.899.899 0 0 0-.362-.356c-.1-.049-.101-.049-.845-.055-.41-.003-.745-.008-.745-.011l-.04-.324a8.335 8.335 0 0 0-.83-2.779 8.151 8.151 0 0 0-1.669-2.331A8.151 8.151 0 0 0 15.85 4.15a8.335 8.335 0 0 0-2.779-.83l-.324-.04c-.003 0-.008-.335-.011-.745-.006-.744-.006-.745-.055-.845a.894.894 0 0 0-.355-.361c-.099-.05-.14-.059-.305-.063a.785.785 0 0 0-.263.022Zm.572 3.472c.575.03.97.089 1.48.221a7.082 7.082 0 0 1 3.311 1.898 7.094 7.094 0 0 1 1.909 3.351c.12.467.181.885.208 1.415a7.22 7.22 0 0 1-.703 3.496c-.523 1.108-1.438 2.166-2.485 2.871a7.265 7.265 0 0 1-3.18 1.188 8.575 8.575 0 0 1-1.74 0 7.256 7.256 0 0 1-3.67-1.549 8.834 8.834 0 0 1-1.111-1.111A7.26 7.26 0 0 1 4.8 12.87a8.575 8.575 0 0 1 0-1.74 7.26 7.26 0 0 1 1.188-3.18A7.532 7.532 0 0 1 7.95 5.988a7.196 7.196 0 0 1 3.665-1.227c.162-.008.304-.016.315-.018.011-.001.191.006.4.017Zm-.82 3.522a3.783 3.783 0 0 0-2.715 1.778 4.1 4.1 0 0 0-.443 1.07 4.29 4.29 0 0 0-.061 1.407c.23 1.564 1.401 2.802 2.968 3.138.234.05.285.054.741.054s.507-.004.741-.054a3.77 3.77 0 0 0 2.934-2.934c.05-.234.054-.285.054-.741s-.004-.507-.054-.741c-.336-1.567-1.574-2.738-3.138-2.968a5.52 5.52 0 0 0-1.027-.009Zm.86 1.502a2.249 2.249 0 0 1 1.644 3.211 2.247 2.247 0 1 1-1.644-3.211Z" clip-rule="evenodd"/>
</svg>
