<svg xmlns="http://www.w3.org/2000/svg" width="24" height="24" fill="none" viewBox="0 0 24 24">
  <path fill="#161C24" fill-rule="evenodd" d="M1.758 1.288a.856.856 0 0 0-.439.402c-.043.087-.049.127-.049.31 0 .352-.092.239 1.497 1.834l1.379 1.383-.115.167A9.764 9.764 0 0 0 2.316 9.87c-.037.291-.044.447-.045 1.08-.001.777.009.922.1 1.49.47 2.909 2.456 5.714 5.739 8.107a23.96 23.96 0 0 0 3.202 1.955c.42.206.51.237.69.238.175 0 .27-.035.759-.28 1.753-.878 3.723-2.233 4.949-3.404l.14-.134 1.85 1.845c2.118 2.112 1.943 1.963 2.3 1.963.192 0 .22-.005.325-.058a.899.899 0 0 0 .356-.362c.043-.087.049-.128.049-.31 0-.192-.005-.221-.059-.33-.052-.107-1.115-1.176-10.14-10.201S2.437 1.381 2.33 1.329c-.104-.051-.146-.06-.31-.063a.843.843 0 0 0-.262.022Zm9.472-.006a9.845 9.845 0 0 0-4.08 1.262c-.574.331-.735.459-.828.656-.046.097-.052.135-.052.32 0 .192.005.219.057.318a.795.795 0 0 0 .358.354c.111.052.147.058.325.058.192 0 .205-.003.33-.072.072-.039.215-.125.32-.192a8.265 8.265 0 0 1 2.24-.964 8.31 8.31 0 0 1 4.94.232 8.247 8.247 0 0 1 4.826 4.706c.344.869.526 1.711.573 2.651.079 1.591-.346 3.143-1.27 4.639-.262.424-.295.508-.285.718.013.289.157.51.418.644a.787.787 0 0 0 .711-.037c.127-.081.21-.181.395-.477 1.037-1.661 1.532-3.311 1.532-5.11a9.49 9.49 0 0 0-.674-3.568 9.779 9.779 0 0 0-3.672-4.539 9.719 9.719 0 0 0-4.564-1.592 14.475 14.475 0 0 0-1.6-.007ZM8.058 9.421a4.073 4.073 0 0 0-.298 1.573A4.158 4.158 0 0 0 9 14a4.162 4.162 0 0 0 2.99 1.24 4.07 4.07 0 0 0 1.589-.298l.209-.084 1.501 1.502 1.501 1.502-.12.114c-.833.788-2.057 1.693-3.304 2.441-.418.252-1.264.716-1.338.735-.05.013-.258-.088-.77-.373a20.923 20.923 0 0 1-3.49-2.413c-2.312-1.987-3.665-4.181-3.957-6.42a8.202 8.202 0 0 1 .181-2.936c.227-.916.683-1.938 1.165-2.617l.069-.097 1.458 1.458 1.458 1.458-.084.209Zm3.682-2.658c-.401.022-.853.114-1.008.205a.84.84 0 0 0-.305.329c-.05.101-.056.134-.057.313 0 .187.005.21.065.333a.73.73 0 0 0 .605.413c.09.006.209-.009.39-.047a2.797 2.797 0 0 1 1.748.204c.526.24 1.069.782 1.308 1.308.184.402.26.749.26 1.179 0 .263-.008.349-.055.57-.066.311-.063.467.013.633a.727.727 0 0 0 .687.437c.355 0 .627-.223.725-.593a4.24 4.24 0 0 0-3.976-5.292 5.934 5.934 0 0 0-.4.008Zm-.775 5.272c.899.899 1.635 1.64 1.635 1.647 0 .015-.234.051-.443.068a3.09 3.09 0 0 1-.851-.09 2.755 2.755 0 0 1-1.966-1.968c-.065-.256-.109-.662-.091-.841.025-.247.056-.451.068-.451.007 0 .749.736 1.648 1.635Z" clip-rule="evenodd"/>
</svg>
