<svg xmlns="http://www.w3.org/2000/svg" width="24" height="24" fill="none" viewBox="0 0 24 24">
  <path fill="#161C24" fill-rule="evenodd" d="M11.15 1.29a9.751 9.751 0 0 0-8.205 6.1c-.493 1.232-.706 2.426-.68 3.799a8.245 8.245 0 0 0 .459 2.671c.996 3.037 3.804 5.996 7.812 8.232.479.267 1.095.575 1.236.618.14.042.339.038.48-.011.445-.153 1.857-.947 2.828-1.591 3.533-2.342 5.784-5.187 6.448-8.148a8.574 8.574 0 0 0 .212-1.98 9.482 9.482 0 0 0-.97-4.23 9.744 9.744 0 0 0-4.52-4.521 9.43 9.43 0 0 0-4.29-.967c-.292.002-.656.014-.81.028Zm1.21 1.47a8.2 8.2 0 0 1 3.07.736 8.358 8.358 0 0 1 3.273 2.694c1.073 1.49 1.629 3.359 1.536 5.166-.143 2.793-1.842 5.433-5.05 7.847-.827.623-2.158 1.454-2.995 1.87l-.194.096-.194-.096c-.66-.328-1.672-.938-2.436-1.469-3.266-2.269-5.21-4.946-5.56-7.657a8.381 8.381 0 0 1 .01-2.02A8.289 8.289 0 0 1 5.07 6.52a8.504 8.504 0 0 1 2.45-2.449 8.268 8.268 0 0 1 4.056-1.309c.184-.009.343-.017.354-.019.01-.001.205.007.43.017ZM9.91 7.289c-.726.114-1.447.519-1.89 1.06a3.427 3.427 0 0 0-.73 1.677 4.815 4.815 0 0 0-.001 1.08c.223 1.574 1.26 2.937 2.99 3.929.368.21.736.383 1.28.601.223.089.238.092.44.092.204 0 .219-.003.44-.092.128-.051.345-.142.485-.203 1.795-.786 3.098-2.054 3.586-3.491.162-.474.232-.896.23-1.377a3.47 3.47 0 0 0-.11-.924c-.31-1.158-1.093-1.967-2.21-2.28a3.155 3.155 0 0 0-1.536-.012c-.257.067-.673.245-.83.355-.053.038-.055.038-.11 0-.155-.11-.571-.288-.828-.355a3.401 3.401 0 0 0-1.206-.06Zm.783 1.503c.24.05.54.211.767.413a.766.766 0 0 0 .424.213c.242.034.429-.025.638-.201.378-.32.713-.459 1.108-.459.259 0 .458.051.73.185.18.089.233.127.38.276.335.34.507.802.506 1.361a2.684 2.684 0 0 1-.287 1.195c-.437.926-1.422 1.765-2.724 2.324L12 14.2l-.235-.101c-1.474-.633-2.517-1.608-2.873-2.687-.177-.536-.188-1.07-.03-1.535.14-.415.41-.749.748-.921.383-.196.698-.244 1.083-.164Z" clip-rule="evenodd"/>
</svg>
