<svg xmlns="http://www.w3.org/2000/svg" width="24" height="24" fill="none" viewBox="0 0 24 24">
  <path fill="#161C24" fill-rule="evenodd" d="M11.15 1.29a9.751 9.751 0 0 0-8.205 6.1c-.493 1.232-.706 2.426-.68 3.799a8.245 8.245 0 0 0 .459 2.671c.996 3.037 3.804 5.996 7.812 8.232.479.267 1.095.575 1.236.618.14.042.339.038.48-.011.445-.153 1.857-.947 2.828-1.591 3.533-2.342 5.784-5.187 6.448-8.148a8.574 8.574 0 0 0 .212-1.98 9.482 9.482 0 0 0-.97-4.23 9.744 9.744 0 0 0-4.52-4.521 9.43 9.43 0 0 0-4.29-.967c-.292.002-.656.014-.81.028Zm1.21 1.47a8.2 8.2 0 0 1 3.07.736 8.358 8.358 0 0 1 3.273 2.694c1.073 1.49 1.629 3.359 1.536 5.166-.143 2.793-1.842 5.433-5.05 7.847-.827.623-2.158 1.454-2.995 1.87l-.194.096-.194-.096c-.66-.328-1.672-.938-2.436-1.469-3.266-2.269-5.21-4.946-5.56-7.657a8.381 8.381 0 0 1 .01-2.02A8.289 8.289 0 0 1 5.07 6.52a8.504 8.504 0 0 1 2.45-2.449 8.268 8.268 0 0 1 4.056-1.309c.184-.009.343-.017.354-.019.01-.001.205.007.43.017Zm2.885 4.538a.696.696 0 0 0-.307.215c-.051.054-1.081 1.283-2.288 2.733l-2.195 2.636-.753-.746c-.888-.882-.866-.866-1.202-.866-.192 0-.22.005-.325.058a.899.899 0 0 0-.356.362c-.043.087-.05.128-.05.31 0 .348-.056.276 1.2 1.531 1.255 1.256 1.183 1.199 1.53 1.199.192 0 .22-.005.322-.056a.927.927 0 0 0 .179-.12c.079-.073 5.02-6.001 5.114-6.134a.67.67 0 0 0 .122-.466.659.659 0 0 0-.226-.492c-.153-.145-.258-.188-.48-.196a.657.657 0 0 0-.285.032Z" clip-rule="evenodd"/>
</svg>
