<svg xmlns="http://www.w3.org/2000/svg" width="24" height="24" fill="none" viewBox="0 0 24 24">
  <path fill="#161C24" fill-rule="evenodd" d="M11.15 1.29a9.751 9.751 0 0 0-8.205 6.1c-.493 1.232-.706 2.426-.68 3.799a8.245 8.245 0 0 0 .459 2.671c.996 3.037 3.804 5.996 7.812 8.232.479.267 1.095.575 1.236.618.14.042.339.038.48-.011.445-.153 1.857-.947 2.828-1.591 3.533-2.342 5.784-5.187 6.448-8.148a8.574 8.574 0 0 0 .212-1.98 9.482 9.482 0 0 0-.97-4.23 9.744 9.744 0 0 0-4.52-4.521 9.43 9.43 0 0 0-4.29-.967c-.292.002-.656.014-.81.028Zm1.21 1.47a8.2 8.2 0 0 1 3.07.736 8.358 8.358 0 0 1 3.273 2.694c1.073 1.49 1.629 3.359 1.536 5.166-.143 2.793-1.842 5.433-5.05 7.847-.827.623-2.158 1.454-2.995 1.87l-.194.096-.194-.096c-.66-.328-1.672-.938-2.436-1.469-3.266-2.269-5.21-4.946-5.56-7.657a8.381 8.381 0 0 1 .01-2.02A8.289 8.289 0 0 1 5.07 6.52a8.504 8.504 0 0 1 2.45-2.449 8.268 8.268 0 0 1 4.056-1.309c.184-.009.343-.017.354-.019.01-.001.205.007.43.017Zm-.94 4.032c-1.215.162-2.304.859-3 1.918a5.45 5.45 0 0 0-.42.856 4.428 4.428 0 0 0-.12 2.468 4.278 4.278 0 0 0 1.83 2.546c.192.125.613.332.856.42a4.47 4.47 0 0 0 1.988.209 4.234 4.234 0 0 0 3.257-2.339A4.08 4.08 0 0 0 16.24 11a4.08 4.08 0 0 0-.43-1.87A3.961 3.961 0 0 0 15 7.999a3.941 3.941 0 0 0-1.13-.809 4.051 4.051 0 0 0-1.307-.398 5.598 5.598 0 0 0-1.143 0Zm1.04 1.501c.818.125 1.589.688 1.978 1.444a2.748 2.748 0 0 1-1.174 3.7 2.751 2.751 0 0 1-3.478-.81 2.924 2.924 0 0 1-.496-1.167 3.297 3.297 0 0 1 0-.92 2.773 2.773 0 0 1 1.442-1.975 2.686 2.686 0 0 1 1.728-.272Z" clip-rule="evenodd"/>
</svg>
