<svg xmlns="http://www.w3.org/2000/svg" width="24" height="24" fill="none" viewBox="0 0 24 24">
  <path fill="#161C24" fill-rule="evenodd" d="M7.678 2.389a1.97 1.97 0 0 0-.27.082c-.21.084-5.22 2.594-5.366 2.689a1.834 1.834 0 0 0-.737 1.02c-.033.123-.035.464-.035 6.43 0 6.095.001 6.305.037 6.44.054.199.198.487.328.653.212.27.582.511.923.599.221.058.512.07.732.031.118-.021.95-.289 2.428-.782l2.248-.75 3.412 1.465 3.412 1.464h6.52l.156-.045a1.772 1.772 0 0 0 1.219-1.219l.045-.156V6.69l-.045-.156a1.784 1.784 0 0 0-1.209-1.218l-.146-.046-3.077-.005-3.078-.006-3.262-1.397A228.508 228.508 0 0 0 8.51 2.421c-.181-.057-.633-.074-.832-.032Zm3.825 2.928 2.747 1.177.005 6.683c.003 3.676.001 6.683-.003 6.683-.005 0-1.245-.53-2.755-1.177L8.75 17.506l-.005-6.683c-.003-3.676-.001-6.683.003-6.683.005 0 1.245.53 2.755 1.177ZM7.26 10.838v6.619l-2.105.701c-1.158.386-2.13.702-2.161.702a.266.266 0 0 1-.206-.114c-.037-.055-.038-.197-.038-6.13 0-6.067 0-6.073.041-6.13.03-.043.562-.318 2.24-1.16a288.814 288.814 0 0 1 2.214-1.105c.008-.001.015 2.977.015 6.617Zm13.866-4.053c.029.02.069.06.089.089.033.052.035.381.035 6.626s-.002 6.574-.035 6.626a.417.417 0 0 1-.089.089c-.051.033-.207.035-2.715.035H15.75l-.005-6.73c-.003-3.702-.001-6.741.004-6.755.008-.021.54-.025 2.666-.02 2.499.005 2.66.007 2.711.04Z" clip-rule="evenodd"/>
</svg>
