<svg xmlns="http://www.w3.org/2000/svg" width="24" height="24" fill="none" viewBox="0 0 24 24">
  <path fill="#161C24" fill-rule="evenodd" d="m11.48 1.272-.26.03a5.56 5.56 0 0 0-4.33 3.057 6.047 6.047 0 0 0-.601 2.054l-.012.103-.236.083a6.212 6.212 0 0 0-1.342.701 5.786 5.786 0 0 0-2.317 3.54 6.065 6.065 0 0 0 0 2.31 5.922 5.922 0 0 0 1.225 2.541 5.808 5.808 0 0 0 3.243 1.937c.453.093.59.102 1.5.102h.86l.115-.058a.899.899 0 0 0 .356-.362c.043-.087.049-.128.049-.31s-.006-.223-.049-.31a.899.899 0 0 0-.356-.362l-.115-.058-.78-.013c-.845-.014-1.031-.031-1.451-.137a4.269 4.269 0 0 1-3.039-2.915 4.24 4.24 0 0 1 .266-3.084c.228-.464.489-.818.883-1.196.548-.527 1.18-.871 1.96-1.067.276-.07.365-.115.495-.253.167-.179.187-.249.215-.735.011-.198.039-.463.061-.59.299-1.685 1.43-2.956 3.005-3.38a4.793 4.793 0 0 1 2.35 0c1.362.366 2.385 1.351 2.844 2.74.137.414.19.73.238 1.42.02.296.054.39.196.541.136.146.22.187.543.268a4.183 4.183 0 0 1 1.94 1.061 4.257 4.257 0 0 1 1.234 3.904 4.263 4.263 0 0 1-3.16 3.294c-.392.098-.589.116-1.43.129l-.79.013-.115.058a.899.899 0 0 0-.356.362c-.043.087-.049.128-.049.31s.006.223.049.31a.899.899 0 0 0 .356.362l.115.058h.87c.903 0 1.056-.01 1.47-.093a5.772 5.772 0 0 0 2.457-1.142 7.23 7.23 0 0 0 .977-.995 5.874 5.874 0 0 0 .945-1.847 5.913 5.913 0 0 0 .118-2.842A5.784 5.784 0 0 0 19.33 7.31a6.055 6.055 0 0 0-1.365-.713l-.243-.087-.013-.11a5.992 5.992 0 0 0-.623-2.086 5.528 5.528 0 0 0-1.87-2.115c-.714-.474-1.456-.754-2.365-.892-.191-.029-1.199-.055-1.371-.035Zm.278 7.016a.856.856 0 0 0-.439.402l-.049.1-.005 1.198-.006 1.199-.654-.649c-.779-.772-.773-.768-1.105-.768-.192 0-.22.005-.325.058a.899.899 0 0 0-.356.362c-.043.087-.049.128-.049.31 0 .349-.069.262 1.304 1.641l1.186 1.19-.005 3.96-.005 3.959-.73.01-.73.01-.115.058a.899.899 0 0 0-.356.362c-.043.087-.049.128-.049.31s.006.223.049.31a.899.899 0 0 0 .356.362l.115.058h4.42l.115-.058a.899.899 0 0 0 .356-.362c.043-.087.049-.128.049-.31s-.006-.223-.049-.31a.899.899 0 0 0-.356-.362l-.115-.058-.73-.01-.73-.01-.005-2.959-.005-2.959 1.186-1.191c1.373-1.379 1.304-1.292 1.304-1.641 0-.182-.006-.223-.049-.31a.899.899 0 0 0-.356-.362c-.105-.053-.133-.058-.325-.058-.332 0-.326-.004-1.105.768l-.654.649-.006-2.199-.005-2.198-.049-.1a.894.894 0 0 0-.355-.361c-.099-.05-.14-.059-.305-.063a.785.785 0 0 0-.263.022Z" clip-rule="evenodd"/>
</svg>
