<svg xmlns="http://www.w3.org/2000/svg" width="24" height="24" fill="none" viewBox="0 0 24 24">
  <path fill="#161C24" fill-rule="evenodd" d="M19.088 3.281a1.885 1.885 0 0 0-.75.343c-.06.046-.405.377-.768.735-.71.702-.842.809-1.224.999a3.782 3.782 0 0 1-.346.151c-.082.03-2.173.661-4.645 1.402L6.86 8.26H5.795c-1.147 0-1.219.005-1.59.111-.194.056-.55.223-.735.346a2.777 2.777 0 0 0-1.179 1.838c-.045.258-.045 2.632 0 2.89.066.38.224.781.423 1.079a2.767 2.767 0 0 0 1.841 1.185c.142.025.373.031 1.243.031h1.068l.196.061.196.06.007 1.315c.007 1.267.01 1.32.05 1.476.138.521.348.902.7 1.269.513.536 1.2.824 1.955.822.307-.001.544-.039.823-.133.5-.167.933-.458 1.228-.825.07-.085.412-.585.762-1.11.351-.525.646-.955.658-.955.024 0 2.151.636 2.42.724.4.131.704.29 1.02.534.092.072.385.351.65.619.785.798.95.929 1.345 1.066l.194.067h.62c.584 0 .63-.003.776-.045a1.772 1.772 0 0 0 1.22-1.219l.044-.156V4.69l-.045-.156a1.753 1.753 0 0 0-.919-1.101c-.293-.147-.368-.159-1.006-.165a7.697 7.697 0 0 0-.672.013Zm1.038 1.504a.4.4 0 0 1 .09.089c.032.052.034.403.034 7.126 0 6.723-.002 7.074-.035 7.126-.072.109-.119.123-.43.131-.485.012-.378.074-1.095-.634-.646-.638-.864-.829-1.2-1.052a5.797 5.797 0 0 0-.98-.492c-.099-.034-2.025-.615-4.28-1.292l-4.295-1.289-.195-.06V9.562l.195-.06 4.295-1.29a607.194 607.194 0 0 0 4.28-1.292c.253-.088.743-.334.98-.491.337-.224.554-.415 1.193-1.045.363-.358.637-.614.671-.624.031-.01.205-.016.387-.014.278.003.34.01.385.039ZM6.25 12v2.25h-.71c-.793 0-.825-.004-1.096-.133a1.239 1.239 0 0 1-.56-.561c-.136-.284-.134-.258-.134-1.556 0-1.299-.002-1.271.134-1.558.136-.285.412-.526.726-.632.163-.055.326-.065 1-.063l.64.003V12Zm4.09 4.783a86.61 86.61 0 0 1 1.565.476c.023.019-.989 1.521-1.098 1.629a1.211 1.211 0 0 1-.992.351c-.51-.071-.879-.394-1.029-.899-.027-.093-.034-.258-.04-1.065-.008-.784-.004-.955.017-.955.015 0 .725.208 1.577.463Z" clip-rule="evenodd"/>
</svg>
