<svg xmlns="http://www.w3.org/2000/svg" width="24" height="24" fill="none" viewBox="0 0 24 24">
  <path fill="#161C24" fill-rule="evenodd" d="M6.54 1.292a3.001 3.001 0 0 0-1.064.422A2.767 2.767 0 0 0 4.29 3.555C4.264 3.71 4.26 4.66 4.26 12c0 9.034-.008 8.377.11 8.795.057.193.225.552.344.729a2.767 2.767 0 0 0 1.84 1.185c.155.027.8.031 5.436.031 5.719 0 5.395.006 5.8-.11a3.42 3.42 0 0 0 .74-.347 2.777 2.777 0 0 0 1.179-1.838c.027-.155.03-1.105.03-8.445 0-9.034.009-8.377-.11-8.795a3.402 3.402 0 0 0-.343-.729 2.767 2.767 0 0 0-1.841-1.185c-.154-.027-.796-.031-5.465-.029-4.374.002-5.316.007-5.44.03Zm2.23 2.393c.174.52.346 1.007.383 1.083.236.481.686.832 1.206.942.213.045 3.069.045 3.282 0a1.758 1.758 0 0 0 1.206-.942c.037-.076.209-.564.382-1.085l.316-.947.832.009c.92.01.925.011 1.2.147.215.106.434.33.54.552a2 2 0 0 1 .106.276c.04.164.04 16.396 0 16.56a1.3 1.3 0 0 1-.667.837c-.302.144.15.133-5.556.133-4.277 0-5.19-.005-5.28-.027a1.3 1.3 0 0 1-.943-.943c-.04-.164-.04-16.396 0-16.56a1.274 1.274 0 0 1 1.063-.959c.072-.009.465-.017.873-.018l.744-.003.314.945Zm5.185-.92-.233.697c-.24.722-.252.746-.395.779-.1.023-2.554.023-2.654 0-.143-.033-.155-.057-.395-.779l-.233-.697c-.007-.02.392-.025 1.955-.025 1.563 0 1.962.005 1.955.025Zm-3.197 15.524a.853.853 0 0 0-.44.401c-.042.087-.048.127-.048.31 0 .192.005.22.058.325.07.137.223.288.362.356l.1.049h2.42l.115-.058a.899.899 0 0 0 .356-.362c.043-.087.049-.128.049-.31s-.006-.223-.05-.31a.899.899 0 0 0-.355-.362l-.115-.058-1.19-.004c-.955-.003-1.204.002-1.262.023Z" clip-rule="evenodd"/>
</svg>
