<svg xmlns="http://www.w3.org/2000/svg" width="24" height="24" fill="none" viewBox="0 0 24 24">
  <path fill="#161C24" fill-rule="evenodd" d="M9.5 4.64c0-.686.22-1.602.918-2.342.541-.573 1.428-1.101 2.88-1.298 5.204.751 9.202 5.229 9.202 10.64 0 5.937-4.813 10.75-10.75 10.75S1 17.577 1 11.64C1 6.489 4.622 2.184 9.459 1.134a4.863 4.863 0 0 0-.132.135C8.307 2.349 8 3.669 8 4.639a3.75 3.75 0 0 0 6.25 2.796.75.75 0 0 0-1-1.118A2.25 2.25 0 0 1 9.5 4.64Zm-.812 10.503a.75.75 0 0 1 1.058-.066c.6.53 1.288.813 2.004.813s1.404-.283 2.004-.813a.75.75 0 1 1 .992 1.125c-.832.734-1.863 1.188-2.996 1.188s-2.164-.454-2.996-1.188a.75.75 0 0 1-.066-1.059Zm-2.494-3.4a.75.75 0 1 1-.888-1.207A3.27 3.27 0 0 1 7.25 9.89a3.27 3.27 0 0 1 1.944.646.75.75 0 1 1-.888 1.208 1.77 1.77 0 0 0-1.056-.354 1.77 1.77 0 0 0-1.056.354Zm7.952-.159a.75.75 0 0 0 1.048.16 1.77 1.77 0 0 1 1.056-.354c.384 0 .746.126 1.056.354a.75.75 0 0 0 .888-1.208 3.27 3.27 0 0 0-1.944-.646 3.27 3.27 0 0 0-1.944.646.75.75 0 0 0-.16 1.048Z" clip-rule="evenodd"/>
</svg>
