<svg xmlns="http://www.w3.org/2000/svg" width="24" height="24" fill="none" viewBox="0 0 24 24">
  <path fill="#fff" fill-rule="evenodd" d="M18.75 12a1 1 0 1 1 2 0 1 1 0 0 1-2 0ZM3.11 12a1 1 0 0 1 1-1h5a1 1 0 1 1 0 2h-5a1 1 0 0 1-1-1Z" clip-rule="evenodd"/>
  <path fill="#161C24" fill-rule="evenodd" d="M1 7.5a.75.75 0 0 1 .75-.75h3.684a.75.75 0 0 1 .75.75v9a.75.75 0 0 1-.75.75H1.75A.75.75 0 0 1 1 16.5v-9Z" clip-rule="evenodd"/>
  <path fill="#161C24" fill-rule="evenodd" d="M4.957 12a1 1 0 0 1 1-1H9.11a1 1 0 1 1 0 2H5.957a1 1 0 0 1-1-1Z" clip-rule="evenodd"/>
  <path fill="#161C24" fill-rule="evenodd" d="M7.75 7a1 1 0 0 0-1 1v8a1 1 0 0 0 1 1h2a5 5 0 0 0 0-10h-2Zm-3 1a3 3 0 0 1 3-3h2a7 7 0 0 1 0 14h-2a3 3 0 0 1-3-3V8Z" clip-rule="evenodd"/>
  <path fill="#161C24" d="M13.165 7.206a.75.75 0 0 1 .69-.456h7.895a.75.75 0 0 1 .75.75v9a.75.75 0 0 1-.75.75h-7.895a.75.75 0 0 1-.539-1.271c.638-.66 1.416-1.872 1.64-3.302.218-1.387-.076-3.026-1.642-4.658a.75.75 0 0 1-.149-.813Z"/>
</svg>
