<svg xmlns="http://www.w3.org/2000/svg" width="24" height="24" fill="none" viewBox="0 0 24 24">
  <path fill="#161C24" fill-rule="evenodd" d="M12 1a1 1 0 0 1 1 1v1.038c3.145.243 5.661 1.633 7.384 3.693 1.89 2.258 2.785 5.267 2.59 8.332-.029.447-.175 1.038-.287 1.45-.049.176-.096.339-.135.47a.772.772 0 0 1-.032.23l-1.544 5.233a.772.772 0 0 1-1.09.47h-.001l-.007-.004-.03-.015a17.207 17.207 0 0 0-.628-.289 23.193 23.193 0 0 0-1.806-.698c-1.505-.51-3.473-1.007-5.413-1.007-1.94 0-3.909.496-5.414 1.007a23.21 23.21 0 0 0-2.305.925l-.128.062-.03.015-.007.003h-.001a.772.772 0 0 1-1.09-.469L1.48 17.214a.772.772 0 0 1-.032-.227c-.04-.131-.087-.295-.136-.475-.112-.41-.258-1.002-.287-1.449-.195-3.065.7-6.074 2.59-8.332 1.724-2.06 4.24-3.45 7.385-3.693V2a1 1 0 0 1 1-1ZM8.191 5.745a8.16 8.16 0 0 0-3.041 2.27c-1.527 1.824-2.294 4.314-2.128 6.921.013.196.087.544.185.918 3.262-1.056 5.771-1.604 8.408-1.604 2.669 0 5.42.562 9.167 1.646.103-.39.183-.757.196-.96.166-2.607-.601-5.097-2.128-6.921a8.16 8.16 0 0 0-3.041-2.27l.044.083c.806 1.51 1.242 3.445 1.13 5.235a1 1 0 1 1-1.997-.126c.09-1.415-.264-2.98-.897-4.168-.66-1.236-1.441-1.767-2.078-1.769h-.022c-.637.002-1.418.533-2.078 1.769-.633 1.187-.987 2.753-.897 4.168a1 1 0 1 1-1.996.126c-.113-1.79.323-3.724 1.129-5.235l.044-.083Z" clip-rule="evenodd"/>
</svg>
