<svg xmlns="http://www.w3.org/2000/svg" width="24" height="24" fill="none" viewBox="0 0 24 24">
  <path fill="#161C24" d="M8.75 1a.75.75 0 0 1 .75.75v1.651c.12.046.237.106.348.18l1.902 1.268 1.902-1.268A1.75 1.75 0 0 1 14 3.4V1.75a.75.75 0 0 1 1.5 0v1.773c.13.074.25.167.36.276l.91.91a1.75 1.75 0 0 1 .328 2.021l-1.052 2.104a.3.3 0 0 1-.268.166H7.722a.3.3 0 0 1-.269-.166L6.402 6.73a1.75 1.75 0 0 1 .327-2.02l.91-.91c.11-.11.232-.203.361-.278V1.75A.75.75 0 0 1 8.75 1Zm-1.003 9.5a.304.304 0 0 0-.266.158c-.868 1.58-2.46 3.721-5.14 5.463a.75.75 0 0 0-.262.964l.021.04a4.62 4.62 0 0 0 .214.353c.145.219.363.51.656.802.406.407.983.84 1.726 1.065.401-.418.838-.9 1.374-1.557a52.236 52.236 0 0 0 1.403-1.786c.189-.253.345-.472.462-.648.098-.147.15-.241.176-.29l.017-.03c.227-.37.603-.558.984-.395a.75.75 0 0 1 .396.984c-.072.169-.196.37-.324.562-.137.206-.31.447-.507.712a53.71 53.71 0 0 1-1.445 1.84 26.668 26.668 0 0 1-1.797 1.997 2.65 2.65 0 0 0 1.823 1.296c3.997.733 6.359.466 8.956 0a2.731 2.731 0 0 0 1.844-1.26 41.08 41.08 0 0 1-1.774-2.033 53.636 53.636 0 0 1-1.446-1.84c-.197-.264-.37-.506-.506-.712a3.806 3.806 0 0 1-.325-.562c-.162-.381-.07-.787.325-.959.373-.163.789-.09 1.055.37l.004.008.008.014c.024.044.077.141.181.298.117.176.273.395.462.648a52.13 52.13 0 0 0 1.403 1.786c.481.59.927 1.103 1.344 1.562.75-.223 1.332-.66 1.741-1.07a5.306 5.306 0 0 0 .87-1.155l.02-.04a.75.75 0 0 0-.261-.964c-2.68-1.742-4.272-3.882-5.14-5.463a.304.304 0 0 0-.266-.158H7.747Z"/>
</svg>
