<svg xmlns="http://www.w3.org/2000/svg" width="24" height="24" fill="none" viewBox="0 0 24 24">
  <path fill="#161C24" fill-rule="evenodd" d="M5.5 4.75a1.25 1.25 0 1 1 2.5 0v1c0 .199.079.39.22.53l1 1a.75.75 0 1 0 1.06-1.06l-.78-.78v-.69a2.75 2.75 0 0 0-5.5 0c0 .573.157 1.254.604 1.808A2.48 2.48 0 0 0 6 7.418v1.699c-.871.278-1.56 1.022-2.03 1.885a7.237 7.237 0 0 0-.565 1.371l6.899 4.915c.128-.643.196-1.33.196-2.038 0-1.62-.357-3.123-.97-4.248-.47-.863-1.159-1.607-2.03-1.885V6.75A.75.75 0 0 0 6.75 6c-.545 0-.822-.189-.979-.384-.178-.221-.271-.54-.271-.866Zm10 0a1.25 1.25 0 1 1 2.5 0v1c0 .199.079.39.22.53l1 1a.75.75 0 1 0 1.06-1.06l-.78-.78v-.69a2.75 2.75 0 1 0-5.5 0c0 .573.157 1.254.604 1.808a2.48 2.48 0 0 0 1.396.86v1.699c-.871.278-1.56 1.022-2.03 1.885a7.41 7.41 0 0 0-.617 1.552l6.957 4.7c.124-.632.19-1.307.19-2.004 0-1.62-.357-3.123-.97-4.248-.47-.863-1.159-1.607-2.03-1.885V6.75a.75.75 0 0 0-.75-.75c-.545 0-.822-.189-.979-.384-.178-.221-.271-.54-.271-.866ZM9.855 18.809l-6.78-4.83c-.05.412-.075.837-.075 1.271 0 1.62.356 3.123.97 4.248.599 1.097 1.548 2.002 2.78 2.002 1.232 0 2.181-.905 2.78-2.002.118-.216.226-.447.325-.69Zm3.2-4.647 6.816 4.606a6.685 6.685 0 0 1-.341.73c-.599 1.097-1.549 2.002-2.78 2.002-1.232 0-2.181-.905-2.78-2.002-.614-1.125-.97-2.629-.97-4.248 0-.37.019-.733.055-1.088Z" clip-rule="evenodd"/>
</svg>
