<svg xmlns="http://www.w3.org/2000/svg" width="24" height="24" fill="none" viewBox="0 0 24 24">
  <path fill="#161C24" fill-rule="evenodd" d="M9.968 7.073 6.637 5.407C7.334 4.187 8.954 2.5 11.645 2.5c2.69 0 4.31 1.688 5.008 2.907l-3.331 1.666.994-1.988a.75.75 0 1 0-1.342-.67l-1.33 2.658-1.329-2.658a.75.75 0 1 0-1.341.67l.994 1.988ZM4.95 6.034a.748.748 0 0 1-.009-.547C5.51 3.976 7.625 1 11.645 1s6.135 2.976 6.702 4.487a.748.748 0 0 1-.008.547l1.158.614a.75.75 0 0 1 .31.309l2.159 4.033a2.75 2.75 0 0 1 .268 1.854l-1.024 4.962A2.75 2.75 0 0 1 18.517 20h-.132a2.75 2.75 0 0 1-2.739 2.5h-8a2.75 2.75 0 0 1-2.74-2.5h-.132a2.75 2.75 0 0 1-2.693-2.194l-1.024-4.963a2.75 2.75 0 0 1 .268-1.853l2.159-4.033a.75.75 0 0 1 .31-.309l1.157-.614Zm5.444 9.716a.75.75 0 0 0-1.5 0c0 .518-.007.883-.14 1.236-.122.324-.38.707-1.026 1.138a.75.75 0 1 0 .831 1.248c.854-.568 1.346-1.184 1.6-1.86.235-.628.235-1.245.235-1.722v-.04Zm4 0a.75.75 0 0 0-1.5 0v.04c0 .477 0 1.094.235 1.723.254.675.746 1.29 1.6 1.86a.75.75 0 1 0 .831-1.249c-.647-.43-.905-.814-1.026-1.138-.133-.354-.14-.718-.14-1.236Z" clip-rule="evenodd"/>
</svg>
