<svg xmlns="http://www.w3.org/2000/svg" width="24" height="24" fill="none" viewBox="0 0 24 24">
  <path fill="#161C24" fill-rule="evenodd" d="M10.354 5.56a.75.75 0 0 1 1.047-.167l2.984 2.162L12.97 8.97a.75.75 0 0 0 1.06 1.06l1.585-1.584 1.089.79-1.734 1.734a.75.75 0 0 0 1.06 1.06l1.904-1.903 3.68 2.667c1.159.84 1.146 2.145 1.137 3.006v.2a2.754 2.754 0 0 1-2.758 2.75H3.935c-1.512 0-2.779-1.23-2.68-2.794.02-.313.047-.655.08-1.02l.001-.011c.224-2.42.776-5.833 1.994-8.261a.75.75 0 0 1 1.294-.08c.458.688.875 1.083 1.313 1.318.437.234.966.348 1.72.348h1.636c.155-1.32.688-2.172.982-2.553a.75.75 0 0 1 .079-.137ZM21.25 15.75H2.773a32.61 32.61 0 0 0-.02.301c-.041.642.477 1.2 1.182 1.2h16.058c.697 0 1.257-.563 1.257-1.25v-.25Zm-5.22-7.72-.416.416-1.23-.891.586-.585a.75.75 0 1 1 1.06 1.06Zm2 2-.096.097-1.23-.891.266-.266a.75.75 0 1 1 1.06 1.06Z" clip-rule="evenodd"/>
</svg>
