<svg xmlns="http://www.w3.org/2000/svg" width="24" height="24" fill="none" viewBox="0 0 24 24">
  <path fill="#161C24" fill-rule="evenodd" d="M11 5.564c0-.833-.113-1.749-.602-2.457-.534-.775-1.407-1.152-2.563-1.103-1.837.08-3.498 1.011-4.76 2.063-1.198.998-1.822 2.124-2.012 3.371-.184 1.215.055 2.474.438 3.733l.367 1.207c.61-2.86 2.268-4.251 3.632-4.71V6.75a.75.75 0 1 1 1.5 0v.877c1.723.419 3.064 1.319 4 2.178v-4.24ZM3.885 19.01l-.757-2.488v-1.706c0-4.443 2.26-5.65 3.17-5.806 2.471.47 4.093 2.176 4.702 3.03v6.011C11 20 9.33 21.5 7.37 21.5c-1.588 0-3.03-.99-3.486-2.491ZM12.5 5.564c0-.833.113-1.749.602-2.457.534-.775 1.407-1.152 2.563-1.103 1.837.08 3.498 1.011 4.76 2.063 1.198.998 1.822 2.124 2.012 3.371.184 1.215-.055 2.474-.438 3.733l-.384 1.263C21.017 9.56 19.366 8.155 18 7.684V6.75a.75.75 0 0 0-1.5 0v.877c-1.72.412-3.06 1.304-4 2.16V5.564Zm7.844 9.258v1.789l-.73 2.398c-.456 1.501-1.897 2.49-3.485 2.49C14.17 21.5 12.5 20 12.5 18.05v-6.042c.63-.865 2.24-2.53 4.675-2.992.91.155 3.17 1.363 3.17 5.806Z" clip-rule="evenodd"/>
</svg>
