<svg xmlns="http://www.w3.org/2000/svg" width="24" height="24" fill="none" viewBox="0 0 24 24">
  <path fill="#161C24" fill-rule="evenodd" d="M6.761 3.522a1 1 0 0 1-.74 1.202l-3.036.717 2.471 12.505c.093.467.5.804.974.804h.357c.548 0 .993.448.993 1s-.445 1-.993 1H6.43a2.983 2.983 0 0 1-2.92-2.414L1.038 5.831a2 2 0 0 1 1.494-2.338l3.035-.716a.992.992 0 0 1 1.193.745Zm9.978 0a.992.992 0 0 1 1.193-.745l3.036.716a2 2 0 0 1 1.494 2.338L19.99 18.336a2.983 2.983 0 0 1-2.92 2.414h-.358a.996.996 0 0 1-.993-1c0-.552.444-1 .993-1h.357a.994.994 0 0 0 .974-.805l2.47-12.504-3.035-.717a1 1 0 0 1-.74-1.202Z" clip-rule="evenodd"/>
  <path fill="#161C24" d="M9.372 6.115a.741.741 0 0 1 1.026.236l1.355 2.171 1.355-2.171a.741.741 0 0 1 1.026-.236c.348.22.453.684.234 1.034l-1.38 2.211 1.462 9.173a.754.754 0 0 1-.117.667l-1.985 3a.742.742 0 0 1-1.191 0l-1.985-3a.754.754 0 0 1-.117-.667l1.462-9.173-1.38-2.21a.753.753 0 0 1 .235-1.035Z"/>
  <path fill="#161C24" fill-rule="evenodd" d="M7.254 1.22a.74.74 0 0 1 .973-.07l3.523 2.663 3.524-2.663a.74.74 0 0 1 .973.07l1.985 2a.754.754 0 0 1 .07.98l-2.978 4a.743.743 0 0 1-1.122.08L11.75 5.81 9.3 8.28a.741.741 0 0 1-1.123-.08L5.2 4.2a.754.754 0 0 1 .069-.98l1.985-2Z" clip-rule="evenodd"/>
</svg>
