<svg xmlns="http://www.w3.org/2000/svg" width="24" height="24" fill="none" viewBox="0 0 24 24">
  <path fill="#161C24" fill-rule="evenodd" d="M9.539 1.215A10.83 10.83 0 0 1 11.549 1c.465 0 1.214.055 2.01.215.787.158 1.689.432 2.406.911a.75.75 0 0 1 .227.238l1.5 2.5-1.286.772L15 3.29c-.47-.277-1.093-.476-1.735-.605A9.348 9.348 0 0 0 11.55 2.5a9.35 9.35 0 0 0-1.714.185c-.642.13-1.264.328-1.735.605L6.692 5.636l-1.286-.772 1.5-2.5a.75.75 0 0 1 .227-.238c.718-.478 1.62-.753 2.406-.911Z" clip-rule="evenodd"/>
  <path fill="#161C24" fill-rule="evenodd" d="M16.608 4.644a.75.75 0 0 1 .778-.065l3 1.5a.75.75 0 0 1 .383.455l1.258 4.195a1.75 1.75 0 0 1-.893 2.068L18.3 14.213v5.537a2.75 2.75 0 0 1-2.75 2.75h-8a2.75 2.75 0 0 1-2.75-2.75v-5.537l-2.833-1.416a1.75 1.75 0 0 1-.894-2.068l1.258-4.195a.75.75 0 0 1 .383-.455l3-1.5a.75.75 0 0 1 .777.065l4.332 3.15a1.25 1.25 0 0 0 1.472 0l4.312-3.15Z" clip-rule="evenodd"/>
  <path fill="#161C24" fill-rule="evenodd" d="M8.917 1.512a.75.75 0 0 1 .872.604l1 5.5a.75.75 0 1 1-1.476.268l-1-5.5a.75.75 0 0 1 .604-.872Zm5.268 0a.75.75 0 0 1 .604.872l-1 5.5a.75.75 0 1 1-1.476-.268l1-5.5a.75.75 0 0 1 .872-.604Z" clip-rule="evenodd"/>
</svg>
