<svg xmlns="http://www.w3.org/2000/svg" width="24" height="24" fill="none" viewBox="0 0 24 24">
  <path fill="#161C24" d="M21.25 12a9.25 9.25 0 1 0-18.5 0 9.25 9.25 0 0 0 18.5 0Zm1.5 0c0 5.937-4.813 10.75-10.75 10.75S1.25 17.937 1.25 12 6.063 1.25 12 1.25 22.75 6.063 22.75 12Z"/>
  <path fill="#161C24" d="M14.004 15.438a.75.75 0 0 1 .992 1.125c-.832.734-1.863 1.187-2.996 1.187-1.063 0-2.035-.399-2.838-1.054l-.158-.133-.055-.054a.75.75 0 0 1 .987-1.12l.06.049.23.186c.543.409 1.148.626 1.774.626.716 0 1.404-.283 2.004-.812ZM7.5 10.25c.634 0 1.226.185 1.733.502l.212.143.06.05a.75.75 0 0 1-.885 1.201l-.064-.042-.118-.08a1.755 1.755 0 0 0-.938-.274 1.77 1.77 0 0 0-1.055.354.75.75 0 0 1-.89-1.208A3.27 3.27 0 0 1 7.5 10.25Zm9 0c.634 0 1.226.185 1.733.502l.212.143.06.05a.75.75 0 0 1-.885 1.201l-.064-.042-.118-.08a1.754 1.754 0 0 0-.938-.274 1.77 1.77 0 0 0-1.056.354.75.75 0 0 1-.888-1.208 3.27 3.27 0 0 1 1.944-.646ZM8.25 5A3.75 3.75 0 0 1 12 1.25a.75.75 0 0 1 0 1.5 2.25 2.25 0 1 0 1.5 3.927.75.75 0 0 1 1 1.118A3.75 3.75 0 0 1 8.25 5Z"/>
</svg>
