<svg xmlns="http://www.w3.org/2000/svg" width="24" height="24" fill="none" viewBox="0 0 24 24">
  <path fill="#161C24" d="M12 3.25c3.542 0 6.339 1.426 8.192 3.642 1.729 2.065 2.61 4.782 2.556 7.592l-.024.564c-.026.418-.166.986-.279 1.398a20.412 20.412 0 0 1-.21.721l-.016.047-.004.013-.001.003v.001L21.5 17l.713.231a.75.75 0 1 1-1.426-.462v-.003l.004-.01.013-.04.046-.154c.04-.13.093-.31.148-.51.115-.422.214-.853.23-1.1l.02-.498c.048-2.483-.733-4.838-2.206-6.6C17.48 5.988 15.109 4.75 12 4.75S6.52 5.988 4.958 7.854c-1.572 1.879-2.355 4.434-2.186 7.098l.027.217c.04.245.117.567.203.883.054.2.107.38.147.51l.047.154.013.04.004.01v.003l.02.074a.75.75 0 0 1-1.446.388l.969-.314L2.5 17l-.714.231v-.002l-.001-.002-.004-.013-.016-.047a18.665 18.665 0 0 1-.21-.72 9.16 9.16 0 0 1-.264-1.236l-.016-.163c-.191-3.008.689-5.953 2.532-8.156C5.661 4.676 8.457 3.25 12 3.25Z"/>
  <path fill="#161C24" d="M12.307 3.265c1.474.143 2.61 1.337 3.326 2.68.784 1.471 1.21 3.36 1.1 5.102a.75.75 0 0 1-1.498-.094c.093-1.462-.27-3.074-.925-4.302-.633-1.187-1.42-1.819-2.156-1.893l-.146-.008L12 4.749l-.008.001c-.777 0-1.626.635-2.302 1.901-.654 1.228-1.018 2.84-.925 4.302a.75.75 0 0 1-1.497.094c-.11-1.743.315-3.631 1.1-5.102.764-1.432 2.005-2.695 3.624-2.695l.008.001.008-.001.299.015Z"/>
  <path fill="#161C24" d="M11.25 3.5V2a.75.75 0 0 1 1.5 0v1.5a.75.75 0 0 1-1.5 0Zm.375 10.75c2.866 0 5.83.667 10.09 1.948l.073.027a.75.75 0 0 1 .432.904l-1.5 5.083a.751.751 0 0 1-1.06.456l-.008-.003-.03-.016a16.643 16.643 0 0 0-.61-.28 22.557 22.557 0 0 0-1.753-.678c-1.462-.496-3.375-.978-5.26-.978-1.883 0-3.796.482-5.258.978a22.567 22.567 0 0 0-2.24.899l-.123.06-.03.015-.007.003H4.34a.75.75 0 0 1-1.06-.456l-1.5-5.083a.75.75 0 0 1 .478-.922c3.773-1.286 6.492-1.957 9.367-1.957Zm0 1.5c-2.462 0-4.84.536-8.2 1.65l1.049 3.557c.447-.193 1.06-.44 1.785-.686 1.538-.522 3.625-1.058 5.74-1.058 2.117 0 4.204.536 5.742 1.058a24.13 24.13 0 0 1 1.784.686l1.042-3.532c-3.842-1.13-6.46-1.675-8.942-1.675Z"/>
</svg>
