<svg xmlns="http://www.w3.org/2000/svg" width="24" height="24" fill="none" viewBox="0 0 24 24">
  <path fill="#161C24" d="M16 11.25a.75.75 0 0 1 0 1.5H8a.75.75 0 0 1 0-1.5h8Z"/>
  <path fill="#161C24" d="M13.995 1.426a.75.75 0 0 1 .612-.164l3.027.531.122.033a.75.75 0 0 1 .311.211l3.497 3.99a.75.75 0 0 1-.04 1.032l-2.525 2.457a.75.75 0 0 1-.858.133l-.117-.072-.924-.695-.306 2.777c.256.204.527.473.794.784.454.53.951 1.243 1.414 2.13.926 1.777 1.723 4.27 1.764 7.417a.751.751 0 0 1-.75.76H3.959a.75.75 0 0 1-.75-.77c.12-4.35 1.64-8.248 4.009-10.327l-.313-2.75-.92.715a.75.75 0 0 1-.991-.061l-2.523-2.52a.75.75 0 0 1-.037-1.023l3.497-4.008.096-.092a.75.75 0 0 1 .36-.157l.005-.001.02-.003.072-.01.266-.04.857-.13c.662-.1 1.405-.216 1.77-.28l.082-.012a.75.75 0 0 1 .8.75c0 .909.692 1.729 1.742 1.729.963 0 1.726-.687 1.726-1.76l.005-.082a.75.75 0 0 1 .263-.492Zm1.125 1.448C14.753 4.32 13.483 5.26 12 5.26c-1.607 0-2.763-1.064-3.122-2.366-.332.052-.702.11-1.044.162l-.861.13c-.033.006-.064.009-.093.013L4.025 6.471l1.56 1.556L7.04 6.9l.084-.056a.75.75 0 0 1 1.121.563l.51 4.479a.75.75 0 0 1-.284.676c-1.952 1.524-3.453 4.746-3.725 8.688h14.492c-.142-2.538-.816-4.544-1.566-5.983a9.858 9.858 0 0 0-1.222-1.847c-.394-.459-.68-.668-.78-.717a.75.75 0 0 1-.417-.757l.502-4.537.017-.098a.75.75 0 0 1 1.179-.42l1.462 1.1 1.553-1.511-2.854-3.255-1.992-.35Z"/>
</svg>
