<svg xmlns="http://www.w3.org/2000/svg" width="24" height="24" fill="none" viewBox="0 0 24 24">
  <path fill="#161C24" d="M20.25 17.792c0-.527-.284-1.013-.743-1.271v-.001L12 12.358 4.492 16.52h.001a1.459 1.459 0 0 0 .715 2.73h13.584c.805 0 1.458-.653 1.458-1.458Zm1.5 0a2.958 2.958 0 0 1-2.958 2.958H5.208a2.958 2.958 0 0 1-1.45-5.537l.004-.002 7.875-4.367.087-.041a.75.75 0 0 1 .64.04l7.874 4.368.004.002.17.104a2.959 2.959 0 0 1 1.338 2.475Z"/>
  <path fill="#161C24" d="M11.25 11.5V9c0-.317.2-.6.498-.706l.002-.001.012-.005c.011-.004.03-.01.053-.02a7.706 7.706 0 0 0 .8-.358l.14-.085c.31-.217.495-.556.495-.92 0-.604-.525-1.155-1.25-1.155s-1.25.55-1.25 1.154a.75.75 0 0 1-1.5 0c0-1.5 1.266-2.654 2.75-2.654s2.75 1.154 2.75 2.654c0 .96-.524 1.784-1.284 2.247l-.155.088c-.2.105-.395.193-.561.265V11.5a.75.75 0 0 1-1.5 0Z"/>
</svg>
