<svg xmlns="http://www.w3.org/2000/svg" width="24" height="24" fill="none" viewBox="0 0 24 24">
  <path fill="#161C24" d="m17 15 .335-.67a.75.75 0 0 0-.785.07l.45.6Zm-4.45 2.4a.75.75 0 1 0 .9 1.2l-.9-1.2Zm8.2 2.6v-2.882h-1.5V20h1.5Zm-.967-4.447-2.448-1.224-.67 1.342 2.447 1.223.67-1.341ZM16.55 14.4l-4 3 .9 1.2 4-3-.9-1.2Zm4.2 2.718a1.75 1.75 0 0 0-.967-1.565l-.671 1.341a.25.25 0 0 1 .138.224h1.5ZM1.861 11.262a.75.75 0 0 1 .858.525l.018.074 1.386 7.389h.3l1.852-6.944a.75.75 0 0 1 1.45.387l-2 7.5A.75.75 0 0 1 5 20.75H3.5a.75.75 0 0 1-.738-.611l-1.5-8-.01-.077a.75.75 0 0 1 .61-.8Z"/>
  <path fill="#161C24" d="M8.25 5A.25.25 0 0 0 8 4.75H2.75v1.5H8A.25.25 0 0 0 8.25 6V5Zm1.5 1A1.75 1.75 0 0 1 8 7.75H2.75v3.506c.377.001.74.001 1.092-.001a31.13 31.13 0 0 1 1.59.018c1 .045 1.953.189 2.811.672l.18.107c.886.55 1.564 1.361 2.174 2.16.674.883 1.265 1.752 2.032 2.54 2.462 2.297 4.963 2.429 8.032 2.477l1.355.021.076.006a.75.75 0 0 1-.03 1.491l-.078.003-1.329-.019c-3.098-.04-6.164-.179-9.067-2.898l-.024-.023c-.855-.878-1.545-1.882-2.16-2.688-.56-.735-1.068-1.32-1.645-1.713l-.252-.156c-.553-.311-1.225-.44-2.143-.482-.457-.021-.954-.02-1.512-.016-.554.003-1.162.01-1.818-.004v-.001a.8.8 0 0 1-.784-.799V4l.004-.077A.75.75 0 0 1 2 3.25h6c.966 0 1.75.784 1.75 1.75v1Z"/>
</svg>
