<svg xmlns="http://www.w3.org/2000/svg" width="24" height="24" fill="none" viewBox="0 0 24 24">
  <path fill="#161C24" d="M12.219 7.25a1.75 1.75 0 0 1 1.698 1.325l.81 3.243-1.454.364-.811-3.243a.25.25 0 0 0-.243-.189h-.438a.251.251 0 0 0-.21.113l-.033.076-.81 3.243-1.456-.364.811-3.243.042-.142a1.75 1.75 0 0 1 1.656-1.183h.438ZM2.053 2.252a.75.75 0 0 1 .702.795c-.071 1.131.699 4.06 5.086 5.593l.435.144.073.027a.75.75 0 0 1-.444 1.424l-.074-.02-.493-.161c-4.969-1.74-6.197-5.25-6.08-7.1a.75.75 0 0 1 .795-.702Zm20.69.701c.116 1.852-1.112 5.361-6.08 7.1l-.494.163a.75.75 0 1 1-.445-1.432l.435-.144c4.387-1.532 5.158-4.462 5.086-5.593l1.497-.094Zm-.796-.701a.75.75 0 0 1 .795.701l-1.497.094a.75.75 0 0 1 .702-.795Z"/>
  <path fill="#161C24" d="M12.67 11.535c.778-.333 1.879-.485 3.113.177l.146.082c1.472.885 2.131 2.802 1.68 4.706-.463 1.946-2.054 3.883-5.052 5.088l-.294.114a.75.75 0 0 1-.396.036l-.13-.036C8.548 20.508 6.87 18.508 6.391 16.5c-.466-1.966.252-3.945 1.826-4.789l.23-.114c1.14-.528 2.154-.375 2.883-.062.264.114.489.248.67.373a3.81 3.81 0 0 1 .67-.373Zm2.404 1.498c-.761-.408-1.375-.306-1.812-.119a2.419 2.419 0 0 0-.68.444l-.027.028-.004.003v-.001l-.052.052a.75.75 0 0 1-1.05-.051l-.004-.003-.028-.028a2.419 2.419 0 0 0-.679-.443c-.41-.177-.975-.277-1.672.048l-.14.07c-.844.453-1.421 1.661-1.075 3.121.327 1.373 1.505 2.975 4.149 4.038 2.644-1.063 3.822-2.665 4.148-4.038.326-1.368-.162-2.516-.919-3.027l-.155-.094Z"/>
</svg>
