<svg xmlns="http://www.w3.org/2000/svg" width="24" height="24" fill="none" viewBox="0 0 24 24">
  <path fill="#161C24" d="M11.25 7a.25.25 0 0 0-.25-.25H8a.25.25 0 0 0-.25.25v1.996h-1.5V7c0-.966.784-1.75 1.75-1.75h3c.966 0 1.75.784 1.75 1.75v1.996h-1.5V7Z"/>
  <path fill="#161C24" d="M10.25 3.999a.25.25 0 0 0-.25-.25H9a.25.25 0 0 0-.25.25v1.996h-1.5V4c0-.966.784-1.75 1.75-1.75h1c.966 0 1.75.784 1.75 1.75v1.996h-1.5V4ZM21.25 5a2.25 2.25 0 1 0-4.5 0 2.25 2.25 0 0 0 4.5 0Zm1.5 0a3.75 3.75 0 1 1-7.5 0 3.75 3.75 0 0 1 7.5 0Z"/>
  <path fill="#161C24" d="M7.988 3.246a.75.75 0 0 1 .002 1.5l-2.489.004a.75.75 0 0 1-.002-1.5l2.49-.004Zm8.012 0a.75.75 0 0 1 0 1.5h-5.007a.75.75 0 0 1 0-1.5H16ZM11.854 8.25c.164 0 .344.022.526.084l.22.081c1.107.431 2.213 1.285 3.106 2.37.958 1.162 1.716 2.642 1.966 4.263l.038.287c.325 2.96-1.373 5.658-2.461 6.873v.001a1.66 1.66 0 0 1-1.241.541H4.992a1.66 1.66 0 0 1-1.242-.541v-.001c-1.123-1.254-2.895-4.088-2.422-7.16l.053-.303c.292-1.503 1.015-2.87 1.913-3.96.953-1.157 2.147-2.052 3.326-2.451l.136-.04c.135-.031.267-.044.39-.044h4.708ZM7.102 9.755c-.854.289-1.83.987-2.65 1.983-.766.929-1.36 2.072-1.599 3.292l-.043.245c-.35 2.27.885 4.517 1.866 5.71l.192.223.04.026c.02.009.047.016.084.016h9.016c.074 0 .11-.028.124-.042l.192-.224c.948-1.152 2.132-3.29 1.895-5.481l-.03-.228c-.202-1.312-.824-2.546-1.64-3.537-.77-.934-1.676-1.606-2.49-1.925l-.16-.058a.15.15 0 0 0-.045-.005H7.146l-.045.005Z"/>
</svg>
