<svg xmlns="http://www.w3.org/2000/svg" width="24" height="24" fill="none" viewBox="0 0 24 24">
  <path fill="#161C24" d="M5.25 20V9a.75.75 0 0 1 1.5 0v11c0 .138.112.25.25.25h10a.25.25 0 0 0 .25-.25V9a.75.75 0 0 1 1.5 0v11A1.75 1.75 0 0 1 17 21.75H7A1.75 1.75 0 0 1 5.25 20Z"/>
  <path fill="#161C24" d="m9 2.25.076.004A.75.75 0 0 1 9.75 3a2.25 2.25 0 1 0 4.5 0l.004-.077A.75.75 0 0 1 15 2.25h3l.085.005a.75.75 0 0 1 .501.276l3.44 4.302.098.134a1.75 1.75 0 0 1-.115 2.074l-.111.122-3.367 3.367-1.061-1.06 3.367-3.367.03-.037a.25.25 0 0 0 .014-.257l-.025-.04-3.217-4.019h-1.964a3.751 3.751 0 0 1-7.35 0H6.362L3.145 7.77a.25.25 0 0 0 .018.333L6.53 11.47l-1.06 1.06-3.367-3.367a1.75 1.75 0 0 1-.13-2.33l3.441-4.302.057-.062A.75.75 0 0 1 6 2.25h3Z"/>
</svg>
