<svg xmlns="http://www.w3.org/2000/svg" width="24" height="24" fill="none" viewBox="0 0 24 24">
  <path fill="#161C24" d="M15.454 2.597a5.699 5.699 0 0 1-3.444 1.156 5.757 5.757 0 0 1-3.464-1.156l.908-1.194a4.26 4.26 0 0 0 2.556.85 4.2 4.2 0 0 0 2.536-.85l.908 1.194Z"/>
  <path fill="#161C24" d="M19.25 9.425c-1.159-.778-2.38-2.487-2.491-5.914l-1.055-.422c-.095 1.156-.348 2.224-.786 3.08-.583 1.14-1.55 1.988-2.918 1.988-1.369 0-2.335-.848-2.918-1.987-.438-.857-.692-1.925-.787-3.081L7.24 3.51c-.11 3.428-1.33 5.137-2.49 5.915V21c0 .138.112.25.25.25h14a.25.25 0 0 0 .25-.25V9.425ZM20.75 21A1.75 1.75 0 0 1 19 22.75H5A1.75 1.75 0 0 1 3.25 21V9l.008-.106a.75.75 0 0 1 .407-.565l.136-.074C4.517 7.829 5.75 6.557 5.75 3l.009-.113a.75.75 0 0 1 .463-.583l2.5-1A.75.75 0 0 1 9.75 2c0 1.433.242 2.653.668 3.486.417.815.95 1.171 1.582 1.171.631 0 1.165-.356 1.582-1.17.426-.834.668-2.054.668-3.487l.006-.093a.75.75 0 0 1 1.022-.603l2.5 1 .103.05A.75.75 0 0 1 18.25 3c0 3.794 1.402 4.988 2.085 5.329l.09.054A.75.75 0 0 1 20.75 9v12Z"/>
</svg>
