<svg xmlns="http://www.w3.org/2000/svg" width="24" height="24" fill="none" viewBox="0 0 24 24">
  <path fill="#161C24" d="M12 1.25c.464 0 1.214.055 2.01.215.688.138 1.465.366 2.129.741l.277.17.067.05a.75.75 0 0 1 .16.188l1.387 2.312 2.805 1.403.068.038a.75.75 0 0 1 .315.417l1.259 4.195.038.153a1.75 1.75 0 0 1-.794 1.838l-.138.077-3.248 1.624L18 14l-.336-.67 3.248-1.625.039-.023a.25.25 0 0 0 .098-.228l-.009-.044-1.166-3.885-2.71-1.354a.75.75 0 0 1-.307-.285L15.45 3.542c-.47-.278-1.093-.477-1.736-.606A9.359 9.359 0 0 0 12 2.75a9.33 9.33 0 0 0-1.714.186c-.644.129-1.267.328-1.738.606L7.143 5.886a.75.75 0 0 1-.216.23l-.092.055-2.71 1.354L2.96 11.41a.25.25 0 0 0 .128.295l3.247 1.624L6 14l-.336.67-3.247-1.623a1.75 1.75 0 0 1-.893-2.069l1.258-4.194.026-.072a.75.75 0 0 1 .356-.383L5.97 4.926l1.388-2.312.047-.07a.75.75 0 0 1 .18-.168l.278-.17c.664-.375 1.44-.603 2.128-.741.796-.16 1.546-.215 2.01-.215Z"/>
  <path fill="#161C24" d="M5.25 20v-9a.75.75 0 0 1 1.5 0v9c0 .69.56 1.25 1.25 1.25h8c.69 0 1.25-.56 1.25-1.25v-9a.75.75 0 0 1 1.5 0v9A2.75 2.75 0 0 1 16 22.75H8A2.75 2.75 0 0 1 5.25 20ZM17.059 4.891a.75.75 0 0 1 .882 1.213l-4.324 3.144a2.751 2.751 0 0 1-3.05.123l-.184-.123-4.324-3.144-.06-.048a.75.75 0 0 1 .878-1.207l.064.042 4.324 3.143.084.055a1.25 1.25 0 0 0 1.386-.055L17.06 4.89Z"/>
  <path fill="#161C24" d="M9.366 1.762a.75.75 0 0 1 .854.529l.018.075 1 5.5.01.076a.751.751 0 0 1-1.469.267l-.017-.075-1-5.5-.01-.076a.751.751 0 0 1 .614-.796Zm4.413.529a.75.75 0 0 1 1.469.267l-.01.076-1 5.5a.75.75 0 0 1-1.476-.268l1-5.5.017-.075Z"/>
</svg>
