<svg xmlns="http://www.w3.org/2000/svg" width="24" height="24" fill="none" viewBox="0 0 24 24">
  <path fill="#161C24" d="M14.805 14.723a.75.75 0 0 1 1.391.56l-.696-.279c.696.279.697.279.696.28v.001l-.003.004c0 .003-.002.006-.004.01l-.012.031c-.011.025-.026.06-.046.1a5.688 5.688 0 0 1-.886 1.325c-.653.727-1.716 1.499-3.245 1.499-1.529 0-2.592-.772-3.245-1.498a5.68 5.68 0 0 1-.932-1.426c-.005-.012-.01-.023-.012-.031l-.004-.01-.002-.004h-.001v-.002l.696-.279-.696.278a.75.75 0 0 1 1.391-.56l.005.011.027.06a4.186 4.186 0 0 0 .644.96c.47.523 1.158 1.001 2.13 1.001.97 0 1.657-.478 2.129-1.002a4.186 4.186 0 0 0 .643-.96l.027-.059.005-.01ZM20 7.254a.75.75 0 0 1 0 1.5H4a.75.75 0 0 1 0-1.5h16Z"/>
  <path fill="#161C24" d="M18.235 3.25a2.75 2.75 0 0 1 2.728 2.41l1.5 12 .015.152a2.75 2.75 0 0 1-2.743 2.938h-4.026a1.75 1.75 0 0 1-1.608-1.06l-.05-.13-.763-2.261-.02-.074a.75.75 0 0 1 1.413-.477l.028.071.764 2.261.036.07c.046.062.12.1.2.1h4.026c.705 0 1.26-.58 1.25-1.267l-.01-.138-1.5-12a1.25 1.25 0 0 0-1.24-1.095H5.75a1.25 1.25 0 0 0-1.22.98l-.02.117-1.487 12a1.25 1.25 0 0 0 1.24 1.403h4a.25.25 0 0 0 .237-.17l.8-2.38.028-.072a.75.75 0 0 1 1.394.55l-.8 2.38a1.75 1.75 0 0 1-1.66 1.192h-4a2.75 2.75 0 0 1-2.728-3.088l1.488-12 .043-.255A2.75 2.75 0 0 1 5.75 3.25h12.485Z"/>
</svg>
