<svg xmlns="http://www.w3.org/2000/svg" width="24" height="24" fill="none" viewBox="0 0 24 24">
  <path fill="#161C24" fill-rule="evenodd" d="M11.758 3.288a.856.856 0 0 0-.439.402l-.049.1-.01 3.73-.01 3.73-3.73.01-3.73.01-.115.058a.899.899 0 0 0-.356.362c-.043.087-.049.128-.049.31 0 .192.005.22.058.325.07.137.223.288.362.356l.1.049 3.73.01 3.73.01.01 3.73.01 3.73.049.1a.899.899 0 0 0 .356.362c.105.053.133.058.325.058s.22-.005.325-.058a.899.899 0 0 0 .356-.362l.049-.1.01-3.73.01-3.73 3.73-.01 3.73-.01.115-.058a.899.899 0 0 0 .356-.362c.043-.087.049-.128.049-.31 0-.192-.005-.22-.058-.325a.899.899 0 0 0-.362-.356l-.1-.05-3.73-.01-3.73-.01-.01-3.73-.01-3.73-.049-.1a.894.894 0 0 0-.355-.36c-.099-.05-.14-.06-.305-.063a.785.785 0 0 0-.263.022Z" clip-rule="evenodd"/>
</svg>
