<svg xmlns="http://www.w3.org/2000/svg" width="24" height="24" fill="none" viewBox="0 0 24 24">
  <path fill="#161C24" fill-rule="evenodd" d="M11.63 2.273c-.394.059-.698.15-.993.298-.5.251-.901.602-1.188 1.039-.15.228-7.756 13.38-7.87 13.61a3.15 3.15 0 0 0-.263.746c-.039.176-.045.264-.045.644s.006.467.044.637a3.213 3.213 0 0 0 1.507 2.094c.308.18.743.329 1.104.378.219.029 15.929.029 16.148 0a3.224 3.224 0 0 0 1.104-.378c.373-.219.741-.553.976-.887.242-.344.436-.785.531-1.207.038-.17.044-.257.044-.637s-.006-.468-.045-.644a3.167 3.167 0 0 0-.263-.746c-.114-.228-7.72-13.38-7.87-13.61a3.082 3.082 0 0 0-1.907-1.291 2.753 2.753 0 0 0-.574-.049 5.76 5.76 0 0 0-.44.003Zm.67 1.51c.424.077.805.343 1.054.737.235.372 7.721 13.347 7.771 13.468.083.204.118.392.117.632a1.644 1.644 0 0 1-.661 1.318 1.54 1.54 0 0 1-.565.268l-.166.044H4.15l-.166-.044a1.556 1.556 0 0 1-.568-.27 1.641 1.641 0 0 1-.576-.811 1.617 1.617 0 0 1 .035-1.137c.049-.119 7.54-13.102 7.771-13.468.163-.257.36-.445.594-.568a1.531 1.531 0 0 1 1.06-.169Zm-.542 4.505a.856.856 0 0 0-.439.402l-.049.1v4.42l.049.1a.899.899 0 0 0 .356.362c.105.053.133.058.325.058s.22-.005.325-.058a.899.899 0 0 0 .356-.362l.049-.1V8.79l-.049-.1a.894.894 0 0 0-.355-.361c-.099-.05-.14-.06-.305-.063a.785.785 0 0 0-.263.022Zm-.02 6.749c-.627.163-.932.916-.597 1.472a1.007 1.007 0 0 0 1.566.199A.92.92 0 0 0 13 16a.92.92 0 0 0-.293-.708 1.005 1.005 0 0 0-.969-.255Z" clip-rule="evenodd"/>
</svg>
