<svg xmlns="http://www.w3.org/2000/svg" width="24" height="24" fill="none" viewBox="0 0 24 24">
  <path fill="#161C24" fill-rule="evenodd" d="M11.64 1.59a1.812 1.812 0 0 0-.68.306c-.038.03-.556.458-1.15.954l-1.08.9-1.78.011c-1.774.01-1.78.01-1.926.055a1.79 1.79 0 0 0-1.208 1.208c-.045.145-.045.152-.055 1.926l-.01 1.78-.9 1.08c-.497.594-.926 1.112-.955 1.15a1.766 1.766 0 0 0-.122 1.887c.094.168.063.13 1.076 1.343l.9 1.08.011 1.78c.01 1.774.01 1.781.055 1.926.05.163.157.386.251.524.21.307.57.565.957.684.145.045.152.045 1.926.055l1.78.011 1.08.9c.594.496 1.112.925 1.15.954.53.401 1.304.451 1.887.122.168-.094.13-.063 1.343-1.076l1.08-.9 1.78-.01c1.774-.01 1.781-.01 1.926-.056a1.79 1.79 0 0 0 1.208-1.208c.045-.145.045-.152.055-1.926l.011-1.78.9-1.08c.496-.594.925-1.11.954-1.15.401-.53.451-1.304.122-1.887-.094-.168-.063-.129-1.076-1.343l-.9-1.08-.01-1.78c-.01-1.774-.01-1.78-.056-1.926a2.238 2.238 0 0 0-.25-.524 1.846 1.846 0 0 0-.958-.684c-.145-.045-.152-.045-1.926-.055l-1.78-.01-1.08-.9c-.594-.497-1.11-.926-1.15-.955a1.776 1.776 0 0 0-.697-.308 2.4 2.4 0 0 0-.703.002Zm.548 1.548c.056.043.615.506 1.242 1.03.695.58 1.183.973 1.25 1.007l.11.055 1.891.01c1.763.01 1.894.012 1.945.045.03.02.07.06.09.09.032.05.035.181.044 1.944l.01 1.891.055.11c.034.067.427.555 1.007 1.25 1.172 1.404 1.108 1.321 1.108 1.43 0 .11.064.026-1.108 1.43-.58.695-.973 1.183-1.007 1.25l-.055.11-.01 1.891c-.009 1.763-.012 1.894-.045 1.945a.417.417 0 0 1-.089.09c-.05.032-.182.035-1.945.044l-1.89.01-.11.055c-.068.034-.556.427-1.25 1.007-1.405 1.172-1.322 1.108-1.43 1.108-.11 0-.027.064-1.43-1.108-.696-.58-1.184-.973-1.25-1.007l-.11-.055-1.892-.01c-1.763-.009-1.894-.012-1.945-.045a.417.417 0 0 1-.089-.089c-.033-.05-.036-.182-.045-1.945l-.01-1.89-.055-.11c-.034-.068-.427-.556-1.007-1.25C2.996 12.025 3.06 12.108 3.06 12c0-.11-.064-.027 1.108-1.43.58-.696.973-1.184 1.007-1.25l.055-.11.01-1.892c.01-1.763.012-1.894.045-1.945a.417.417 0 0 1 .09-.089c.05-.033.181-.036 1.944-.045l1.891-.01.11-.055c.067-.034.553-.425 1.24-.998 1.446-1.207 1.33-1.117 1.438-1.117.072 0 .107.015.19.078Zm-.43 4.65a.856.856 0 0 0-.439.402l-.049.1v4.42l.05.1a.899.899 0 0 0 .355.362c.105.053.133.058.325.058s.22-.005.325-.058a.899.899 0 0 0 .356-.362l.05-.1V8.29l-.05-.1a.894.894 0 0 0-.355-.36c-.099-.05-.14-.06-.305-.064a.785.785 0 0 0-.263.022Zm-.02 6.75c-.627.162-.932.915-.597 1.471a1.007 1.007 0 0 0 1.566.2A.92.92 0 0 0 13 15.5a.92.92 0 0 0-.293-.708 1.005 1.005 0 0 0-.969-.255Z" clip-rule="evenodd"/>
</svg>
