<svg xmlns="http://www.w3.org/2000/svg" width="24" height="24" fill="none" viewBox="0 0 24 24">
  <path fill="#161C24" fill-rule="evenodd" d="M10.879 1.957a1.75 1.75 0 0 1 2.24 0l2.152 1.793h3.228c.967 0 1.75.784 1.75 1.75v3.23l1.793 2.15a1.75 1.75 0 0 1 0 2.241l-1.793 2.152V18.5a1.75 1.75 0 0 1-1.75 1.75h-3.228l-2.152 1.793a1.75 1.75 0 0 1-2.24 0L8.728 20.25H5.499a1.75 1.75 0 0 1-1.75-1.75v-3.228L1.956 13.12a1.75 1.75 0 0 1 0-2.24L3.75 8.729V5.5c0-.966.784-1.75 1.75-1.75h3.229l2.15-1.793ZM12 7.5a1 1 0 0 1 1 1v4a1 1 0 1 1-2 0v-4a1 1 0 0 1 1-1Zm0 7a1 1 0 1 0 0 2h.009a1 1 0 1 0 0-2H12Z" clip-rule="evenodd"/>
</svg>
