<svg xmlns="http://www.w3.org/2000/svg" width="24" height="24" fill="none" viewBox="0 0 24 24">
  <path fill="#161C24" fill-rule="evenodd" d="M2 4.75A2.75 2.75 0 0 1 4.75 2h15a2.75 2.75 0 0 1 2.75 2.75v15a2.75 2.75 0 0 1-2.75 2.75h-15A2.75 2.75 0 0 1 2 19.75v-15Zm5.25 7.75a.75.75 0 0 1 .75.75v5a.75.75 0 0 1-1.5 0v-5a.75.75 0 0 1 .75-.75Zm5 2a.75.75 0 0 1 .75.75v3a.75.75 0 0 1-1.5 0v-3a.75.75 0 0 1 .75-.75Zm5 1a.75.75 0 0 1 .75.75v2a.75.75 0 0 1-1.5 0v-2a.75.75 0 0 1 .75-.75ZM6.836 5.782a.75.75 0 1 0-1.172.937c2.17 2.712 5.392 3.76 7.975 4.148.663.1 1.292.156 1.861.186v1.197a.75.75 0 0 0 1.28.53l2-2a.75.75 0 0 0 0-1.06l-2-2a.75.75 0 0 0-1.28.53v1.301a17.959 17.959 0 0 1-1.639-.168c-2.416-.362-5.196-1.314-7.025-3.601Z" clip-rule="evenodd"/>
</svg>
