<svg xmlns="http://www.w3.org/2000/svg" width="24" height="24" fill="none" viewBox="0 0 24 24">
  <path fill="#161C24" fill-rule="evenodd" d="M2.196 7.03c.676.27 1.466.477 2.282.64 1.998.4 4.656.63 7.522.63 2.866 0 5.524-.23 7.522-.63.816-.163 1.606-.37 2.282-.64l.01.017A10.932 10.932 0 0 1 23 12.015c0 6.069-4.926 10.986-11 10.986S1 18.084 1 12.015c0-1.785.427-3.474 1.187-4.967l.009-.019Zm5.354 9.134a.75.75 0 0 1 1.05.15 4.242 4.242 0 0 0 3.4 1.7c1.39 0 2.624-.667 3.4-1.7a.75.75 0 0 1 1.2.9 5.742 5.742 0 0 1-4.6 2.3 5.742 5.742 0 0 1-4.6-2.3.75.75 0 0 1 .15-1.05Zm7.2-3.9a.75.75 0 0 1 1.5 0 .75.75 0 0 0 1.5 0 2.25 2.25 0 1 0-4.5 0 .75.75 0 0 0 1.5 0Zm-7 0a.75.75 0 1 1 1.5 0 .75.75 0 0 0 1.5 0 2.25 2.25 0 1 0-4.5 0 .75.75 0 0 0 1.5 0ZM3.512 4c.394.148.933.298 1.613.434C6.853 4.779 9.284 5 12 5s5.147-.22 6.875-.566c.68-.136 1.219-.286 1.613-.434a10.681 10.681 0 0 0-1.613-.434C17.147 3.221 14.716 3 12 3s-5.147.22-6.875.566c-.68.136-1.219.286-1.613.434Zm1.22-2.395C6.625 1.227 9.194 1 12 1c2.807 0 5.375.227 7.267.605.938.188 1.761.422 2.375.712.304.144.61.326.854.565.245.24.504.616.504 1.118 0 .502-.259.878-.504 1.118-.244.239-.55.42-.854.565-.614.29-1.437.524-2.375.712C17.375 6.773 14.807 7 12 7c-2.807 0-5.376-.227-7.267-.605-.938-.188-1.761-.422-2.375-.712a3.137 3.137 0 0 1-.854-.565C1.26 4.878 1 4.502 1 4c0-.502.259-.878.504-1.118.244-.239.55-.42.854-.565.614-.29 1.437-.524 2.375-.712Z" clip-rule="evenodd"/>
</svg>
