<svg xmlns="http://www.w3.org/2000/svg" width="24" height="24" fill="none" viewBox="0 0 24 24">
  <path fill="#161C24" d="M21.25 12a9.25 9.25 0 1 0-18.5 0 9.25 9.25 0 0 0 18.5 0Zm1.5 0c0 5.937-4.813 10.75-10.75 10.75S1.25 17.937 1.25 12 6.063 1.25 12 1.25 22.75 6.063 22.75 12Z"/>
  <path fill="#161C24" d="M7 9.25c.26 0 .76-.002 1.303.102.537.102 1.189.32 1.71.811l.208.21c.074.08.15.17.22.269.126.176.309.483.309.858a1.25 1.25 0 1 1-2.5-.012l.012-.147c.022-.159.075-.3.135-.418a2.799 2.799 0 0 0-.375-.098A5.403 5.403 0 0 0 7 10.75a.75.75 0 0 1 0-1.5Zm10 0a.75.75 0 0 1 0 1.5c-.26 0-.633.001-1.023.075a2.811 2.811 0 0 0-.375.098c.06.119.114.26.136.418l.012.147-.004.122a1.25 1.25 0 0 1-2.496-.11c0-.375.183-.682.309-.858a3.32 3.32 0 0 1 .427-.479l.201-.172c.482-.372 1.04-.55 1.51-.64.543-.103 1.043-.101 1.303-.101Zm-5 5c1.764 0 3.343.795 4.396 2.044l.203.256.043.063a.75.75 0 0 1-1.193.897l-.049-.06-.151-.19a4.239 4.239 0 0 0-3.25-1.51 4.239 4.239 0 0 0-3.248 1.51l-.152.19a.75.75 0 1 1-1.199-.9l.203-.256A5.739 5.739 0 0 1 12 14.25Z"/>
</svg>
