<svg xmlns="http://www.w3.org/2000/svg" width="24" height="24" fill="none" viewBox="0 0 24 24">
  <path fill="#161C24" fill-rule="evenodd" d="M11.758 3.288a1.22 1.22 0 0 0-.16.082c-.048.03-1.241 1.207-2.65 2.617C6.033 8.906 6.27 8.638 6.27 9c0 .192.005.22.058.325.07.137.223.288.362.356.087.043.128.049.31.049.358 0 .175.156 2.355-2.018l1.905-1.901.005 7.2.005 7.199.049.1a.899.899 0 0 0 .356.362c.105.053.133.058.325.058s.22-.005.325-.058a.899.899 0 0 0 .356-.362l.049-.1.005-7.199.005-7.2 1.905 1.901C16.825 9.886 16.642 9.73 17 9.73c.192 0 .22-.005.325-.058a.899.899 0 0 0 .356-.362c.043-.087.049-.128.049-.31 0-.362.24-.092-2.7-3.031-2.917-2.919-2.668-2.695-3.01-2.703a.843.843 0 0 0-.262.022Z" clip-rule="evenodd"/>
</svg>
