<svg xmlns="http://www.w3.org/2000/svg" width="24" height="24" fill="none" viewBox="0 0 24 24">
  <path fill="#161C24" fill-rule="evenodd" d="M7.745 4.298a.661.661 0 0 0-.288.195c-.12.128-3.078 4.085-3.134 4.195-.047.091-.053.124-.053.312 0 .182.006.223.049.31a.899.899 0 0 0 .356.362l.115.058h14.42l.1-.049a.899.899 0 0 0 .362-.356c.053-.105.058-.133.058-.325s-.005-.22-.058-.325a.899.899 0 0 0-.362-.356l-.1-.049-6.345-.005C8.646 8.261 6.52 8.253 6.52 8.24c0-.011.474-.652 1.053-1.424a53.883 53.883 0 0 0 1.105-1.504c.046-.09.052-.123.052-.311 0-.19-.006-.222-.055-.323a.91.91 0 0 0-.37-.363.938.938 0 0 0-.56-.017Zm-2.987 9.991a.845.845 0 0 0-.439.401c-.043.087-.049.127-.049.31 0 .192.005.22.058.325.07.137.223.288.362.356l.1.049 6.345.005c4.219.004 6.345.012 6.345.025 0 .011-.474.652-1.053 1.424a53.883 53.883 0 0 0-1.105 1.504c-.046.09-.052.123-.052.311 0 .189.006.222.055.323a.925.925 0 0 0 .37.364c.079.037.13.044.305.043.241 0 .338-.033.482-.163.103-.093 3.121-4.111 3.195-4.254.047-.091.053-.124.053-.312 0-.192-.005-.22-.058-.325a.899.899 0 0 0-.362-.356l-.1-.049-7.19-.004c-5.945-.003-7.203.001-7.262.023Z" clip-rule="evenodd"/>
</svg>
