<svg xmlns="http://www.w3.org/2000/svg" width="24" height="24" fill="none" viewBox="0 0 24 24">
  <path fill="#161C24" fill-rule="evenodd" d="M7.448 5.291c-1.25.172-2.466.991-3.259 2.199-.935 1.422-1.175 3.064-.676 4.616A5.709 5.709 0 0 0 4.91 14.39c.764.756 1.66 1.209 2.63 1.329.115.014 1.88.021 5.41.021h5.24l-.912.915c-.98.985-.996 1.005-1.032 1.245a.83.83 0 0 0 .065.452.921.921 0 0 0 .36.35.875.875 0 0 0 .43.053c.252-.037.202.007 1.924-1.713 1.407-1.404 1.601-1.605 1.646-1.706a.77.77 0 0 0 0-.672c-.045-.101-.239-.301-1.646-1.706-1.83-1.829-1.686-1.708-2.044-1.708-.192 0-.219.005-.318.057-.31.163-.466.46-.417.793.036.24.052.26 1.032 1.245l.911.915H13.11c-3.155 0-5.163-.008-5.3-.02-.675-.06-1.305-.372-1.85-.919-.819-.819-1.284-2.014-1.198-3.075.111-1.362.973-2.681 2.11-3.225.228-.11.39-.166.653-.226.183-.042.226-.043 2.936-.054l2.75-.011.112-.055a.925.925 0 0 0 .364-.37c.036-.079.044-.131.044-.305s-.008-.226-.044-.305a.925.925 0 0 0-.364-.37l-.112-.055-2.78-.003c-2.265-.003-2.817.002-2.982.024Z" clip-rule="evenodd"/>
</svg>
