<svg xmlns="http://www.w3.org/2000/svg" width="24" height="24" fill="none" viewBox="0 0 24 24">
  <path fill="#161C24" fill-rule="evenodd" d="M5.758 8.288a.856.856 0 0 0-.44.402c-.042.087-.048.127-.048.31 0 .364-.303.03 3.199 3.531 3.5 3.502 3.167 3.199 3.53 3.199.365 0 .03.303 3.532-3.199C19.033 9.03 18.73 9.364 18.73 9c0-.192-.005-.22-.058-.325a.899.899 0 0 0-.362-.356c-.087-.043-.128-.049-.31-.049-.363 0-.068-.263-3.225 2.888L12 13.929l-2.775-2.771C6.092 8.03 6.364 8.275 6.02 8.266a.785.785 0 0 0-.263.022Z" clip-rule="evenodd"/>
</svg>
