<svg xmlns="http://www.w3.org/2000/svg" width="24" height="24" fill="none" viewBox="0 0 24 24">
  <path fill="#161C24" fill-rule="evenodd" d="M11.758 8.288a1.22 1.22 0 0 0-.16.082c-.048.03-1.466 1.432-3.149 3.117C4.97 14.967 5.27 14.636 5.27 15c0 .192.005.22.058.325.07.137.223.288.362.356.087.043.128.049.31.049.363 0 .068.263 3.225-2.888L12 10.07l2.775 2.77c3.157 3.152 2.862 2.889 3.225 2.889.182 0 .223-.006.31-.05a.899.899 0 0 0 .362-.355c.053-.105.058-.133.058-.325 0-.364.303-.03-3.199-3.531-3.476-3.477-3.166-3.194-3.51-3.203a.785.785 0 0 0-.263.022Z" clip-rule="evenodd"/>
</svg>
