<svg xmlns="http://www.w3.org/2000/svg" width="24" height="24" fill="none" viewBox="0 0 24 24">
  <path fill="#161C24" fill-rule="evenodd" d="M10.747 5.297a.772.772 0 0 0-.46.479.946.946 0 0 0 .028.529.916.916 0 0 0 .363.37l.112.055 2.75.01c2.71.012 2.753.013 2.936.055.608.139 1.094.413 1.565.884.812.811 1.28 2.002 1.2 3.056a4.16 4.16 0 0 1-1.2 2.586c-.545.547-1.175.859-1.849.919-.138.012-2.146.02-5.3.02h-5.08l.911-.915c.98-.985.996-1.005 1.032-1.245.05-.333-.107-.63-.417-.793-.099-.052-.126-.057-.319-.057-.197 0-.22.004-.326.06-.093.049-.412.358-1.716 1.66-1.724 1.722-1.676 1.668-1.717 1.919a.75.75 0 0 0 0 .222c.041.25-.006.199 1.697 1.899 1.688 1.686 1.667 1.667 1.908 1.71.482.089.944-.374.856-.855-.047-.252-.059-.267-1.018-1.23l-.892-.895h5.24c3.531 0 5.295-.007 5.41-.021 1.524-.188 2.904-1.233 3.686-2.792a5.13 5.13 0 0 0 .35-.853 5.189 5.189 0 0 0 0-3.148C19.932 7.157 18.58 5.79 16.99 5.38c-.47-.122-.428-.12-3.415-.119-2.562 0-2.73.002-2.827.036Z" clip-rule="evenodd"/>
</svg>
