<svg xmlns="http://www.w3.org/2000/svg" width="24" height="24" fill="none" viewBox="0 0 24 24">
  <path fill="#161C24" fill-rule="evenodd" d="M2 7.5a3 3 0 0 1 3-3h16a1 1 0 1 1 0 2H5a1 1 0 0 0-1 1V12a1 1 0 1 1-2 0V7.5Z" clip-rule="evenodd"/>
  <path fill="#161C24" fill-rule="evenodd" d="M17.793 2.293a1 1 0 0 1 1.414 0l2.5 2.5a1 1 0 0 1 0 1.414l-2.5 2.5a1 1 0 1 1-1.414-1.414L19.586 5.5l-1.793-1.793a1 1 0 0 1 0-1.414Zm-11.586 13a1 1 0 0 1 0 1.414L4.414 18.5l1.793 1.793a1 1 0 1 1-1.414 1.414l-2.5-2.5a1 1 0 0 1 0-1.414l2.5-2.5a1 1 0 0 1 1.414 0Z" clip-rule="evenodd"/>
  <path fill="#161C24" fill-rule="evenodd" d="M21 12a1 1 0 0 1 1 1v3.5a3 3 0 0 1-3 3H3a1 1 0 1 1 0-2h16a1 1 0 0 0 1-1V13a1 1 0 0 1 1-1Z" clip-rule="evenodd"/>
</svg>
