<svg xmlns="http://www.w3.org/2000/svg" width="24" height="24" fill="none" viewBox="0 0 24 24">
  <path fill="#161C24" fill-rule="evenodd" d="M6.758 3.288a1.22 1.22 0 0 0-.16.082c-.048.03-.791.757-1.649 1.617C3.155 6.783 3.27 6.645 3.27 7c0 .182.006.223.049.31a.899.899 0 0 0 .356.362c.105.053.133.058.325.058.342 0 .297.034 1.355-1.018l.905-.9.005 7.199.005 7.199.049.1a.899.899 0 0 0 .356.362c.105.053.133.058.325.058s.22-.005.325-.058a.899.899 0 0 0 .356-.362l.049-.1.005-7.199.005-7.199.905.9C9.703 7.764 9.658 7.73 10 7.73c.182 0 .223-.006.31-.049a.899.899 0 0 0 .362-.356c.053-.105.058-.133.058-.325 0-.356.118-.215-1.699-2.031-1.8-1.8-1.676-1.696-2.011-1.703a.843.843 0 0 0-.262.022Zm10 0a.856.856 0 0 0-.439.402l-.049.1-.005 7.199-.005 7.199-.905-.9C14.297 16.236 14.342 16.27 14 16.27c-.192 0-.22.005-.325.058a.899.899 0 0 0-.356.362c-.043.087-.049.128-.049.31 0 .356-.118.215 1.699 2.031 1.816 1.817 1.675 1.699 2.031 1.699.356 0 .215.118 2.031-1.699 1.817-1.816 1.699-1.675 1.699-2.031 0-.182-.006-.223-.049-.31a.899.899 0 0 0-.356-.362c-.105-.053-.133-.058-.325-.058-.342 0-.297-.034-1.355 1.018l-.905.9-.005-7.199-.005-7.199-.049-.1a.894.894 0 0 0-.355-.361c-.099-.05-.14-.059-.305-.063a.785.785 0 0 0-.263.022Z" clip-rule="evenodd"/>
</svg>
