<svg xmlns="http://www.w3.org/2000/svg" width="24" height="24" fill="none" viewBox="0 0 24 24">
  <path fill="#161C24" fill-rule="evenodd" d="M17.737 5.297a.991.991 0 0 0-.16.083c-.037.025-2.49 2.468-5.452 5.428l-5.384 5.381-.006-2.699-.005-2.7-.058-.115a.899.899 0 0 0-.362-.356c-.087-.043-.128-.049-.31-.049s-.223.006-.31.049a.899.899 0 0 0-.362.356l-.058.115v7.42l.058.115c.07.137.223.288.362.356l.1.049h7.42l.115-.058a.899.899 0 0 0 .356-.362c.043-.087.049-.128.049-.31s-.006-.223-.049-.31a.899.899 0 0 0-.356-.362l-.115-.058-2.7-.005-2.699-.006 5.402-5.404C19.326 5.739 18.73 6.371 18.73 6c0-.184-.006-.224-.052-.32a.825.825 0 0 0-.358-.358c-.148-.069-.441-.082-.583-.025Z" clip-rule="evenodd"/>
</svg>
