<svg xmlns="http://www.w3.org/2000/svg" width="24" height="24" fill="none" viewBox="0 0 24 24">
  <path fill="#161C24" fill-rule="evenodd" d="M15.758 2.289a.845.845 0 0 0-.439.401c-.043.087-.049.127-.049.31 0 .192.005.22.058.325.07.137.223.288.362.356l.1.049 1.7.005 1.699.006-7.719 7.719-7.72 7.72-.01-1.695-.01-1.695-.058-.115a.899.899 0 0 0-.362-.356c-.087-.043-.128-.049-.31-.049-.192 0-.22.005-.325.058a.899.899 0 0 0-.356.362l-.049.1v5.42l.049.1a.899.899 0 0 0 .356.362l.115.058h5.42l.115-.058a.899.899 0 0 0 .356-.362c.043-.087.049-.128.049-.31s-.006-.223-.049-.31a.899.899 0 0 0-.356-.362l-.115-.058-1.7-.005-1.699-.006 7.719-7.719 7.72-7.72.01 1.695.01 1.695.049.1a.899.899 0 0 0 .356.362c.105.053.133.058.325.058s.22-.005.325-.058a.899.899 0 0 0 .356-.362l.049-.1V2.79l-.058-.115a.899.899 0 0 0-.362-.356l-.1-.049-2.69-.004c-2.2-.003-2.703.001-2.762.023Z" clip-rule="evenodd"/>
</svg>
