<svg xmlns="http://www.w3.org/2000/svg" width="24" height="24" fill="none" viewBox="0 0 24 24">
  <path fill="#161C24" fill-rule="evenodd" d="M5.758 3.289a.845.845 0 0 0-.439.401c-.043.087-.049.127-.049.31 0 .192.005.22.058.325.07.137.223.288.362.356l.1.049h12.42l.1-.049a.899.899 0 0 0 .362-.356c.053-.105.058-.133.058-.325s-.005-.22-.058-.325a.899.899 0 0 0-.362-.356l-.1-.049-6.19-.004c-5.113-.003-6.203.001-6.262.023Zm6 3.999a1.22 1.22 0 0 0-.16.082c-.048.03-1.016.982-2.149 2.117C7.094 11.844 7.27 11.641 7.27 12c0 .182.006.223.049.31a.899.899 0 0 0 .356.362c.105.053.133.058.325.058.352 0 .236.095 1.855-1.518l1.405-1.401.005 5.2.005 5.199.049.1a.899.899 0 0 0 .356.362c.105.053.133.058.325.058s.22-.005.325-.058a.899.899 0 0 0 .356-.362l.049-.1.005-5.199.005-5.2 1.405 1.401c1.619 1.613 1.503 1.518 1.855 1.518.192 0 .22-.005.325-.058a.899.899 0 0 0 .356-.362c.043-.087.049-.128.049-.31 0-.36.179-.153-2.199-2.531-2.359-2.36-2.172-2.195-2.511-2.203a.843.843 0 0 0-.262.022Z" clip-rule="evenodd"/>
</svg>
