<svg xmlns="http://www.w3.org/2000/svg" width="24" height="24" fill="none" viewBox="0 0 24 24">
  <path fill="#161C24" fill-rule="evenodd" d="M17 3a1 1 0 0 1 1 1v16a1 1 0 1 1-2 0V4a1 1 0 0 1 1-1Z" clip-rule="evenodd"/>
  <path fill="#161C24" fill-rule="evenodd" d="M13.293 16.293a1 1 0 0 1 1.414 0L17 18.586l2.293-2.293a1 1 0 0 1 1.414 1.414l-3 3a1 1 0 0 1-1.414 0l-3-3a1 1 0 0 1 0-1.414ZM7 3a1 1 0 0 1 .707.293l3 3a1 1 0 0 1-1.414 1.414L7 5.414 4.707 7.707a1 1 0 1 1-1.414-1.414l3-3A1 1 0 0 1 7 3Z" clip-rule="evenodd"/>
  <path fill="#161C24" fill-rule="evenodd" d="M7 3a1 1 0 0 0-1 1v16a1 1 0 1 0 2 0V4a1 1 0 0 0-1-1Z" clip-rule="evenodd"/>
</svg>
