<svg xmlns="http://www.w3.org/2000/svg" width="24" height="24" fill="none" viewBox="0 0 24 24">
  <path fill="#161C24" fill-rule="evenodd" d="M14.758 5.288a1.22 1.22 0 0 0-.16.082c-.048.03-1.466 1.432-3.15 3.117C7.97 11.967 8.27 11.636 8.27 12c0 .364-.303.03 3.199 3.531 3.5 3.502 3.167 3.199 3.53 3.199.193 0 .22-.005.326-.058a.899.899 0 0 0 .356-.362c.043-.087.049-.128.049-.31 0-.363.263-.068-2.888-3.225L10.07 12l2.77-2.775C15.994 6.068 15.73 6.363 15.73 6c0-.182-.006-.223-.05-.31a.894.894 0 0 0-.354-.361c-.1-.05-.14-.059-.305-.063a.785.785 0 0 0-.263.022Z" clip-rule="evenodd"/>
</svg>
