<svg xmlns="http://www.w3.org/2000/svg" width="24" height="24" fill="none" viewBox="0 0 24 24">
  <path fill="#161C24" fill-rule="evenodd" d="M8.91 2.282A5.754 5.754 0 0 0 3.832 7.04c-.072.42-.075.613-.067 3.94.007 3.224.008 3.274.05 3.57a8.258 8.258 0 0 0 3.625 5.82c1.11.731 2.24 1.148 3.59 1.323.402.052 1.538.052 1.94 0a8.126 8.126 0 0 0 2.608-.764c.4-.194.604-.31.985-.562a8.252 8.252 0 0 0 3.544-5.348c.117-.633.123-.73.123-2.029v-1.2l-.058-.115a.899.899 0 0 0-.362-.356c-.087-.043-.128-.049-.31-.049-.192 0-.22.005-.325.058a.899.899 0 0 0-.356.362l-.05.1-.012 1.07c-.014 1.201-.033 1.453-.15 2.016a6.768 6.768 0 0 1-5.235 5.233 6.89 6.89 0 0 1-2.744 0 6.766 6.766 0 0 1-5.238-5.24c-.146-.709-.154-.96-.144-4.389.008-3.048.006-2.97.096-3.37a4.284 4.284 0 0 1 1.225-2.183A4.259 4.259 0 0 1 8.98 3.78a6.02 6.02 0 0 1 1.04 0c.983.136 1.795.536 2.48 1.221.665.665 1.064 1.46 1.214 2.42.033.214.036.442.036 3.27v3.04l-.044.174a1.737 1.737 0 0 1-.49.848 1.655 1.655 0 0 1-1.216.492c-.502 0-.917-.177-1.261-.537a1.698 1.698 0 0 1-.443-.79c-.043-.166-.044-.184-.055-2.397l-.011-2.23-.05-.1a.899.899 0 0 0-.355-.362c-.105-.053-.133-.058-.325-.058s-.22.005-.325.058a.899.899 0 0 0-.356.362l-.05.1-.005 2.22c-.005 1.583 0 2.272.016 2.4a3.247 3.247 0 0 0 2.406 2.732 3.396 3.396 0 0 0 1.628 0 3.244 3.244 0 0 0 2.328-2.328c.099-.386.097-.32.098-3.597 0-3.072-.004-3.257-.071-3.667a5.731 5.731 0 0 0-2.5-3.843 5.636 5.636 0 0 0-2.606-.926 9.053 9.053 0 0 0-1.153.001Z" clip-rule="evenodd"/>
</svg>
