<svg xmlns="http://www.w3.org/2000/svg" width="24" height="24" fill="none" viewBox="0 0 24 24">
  <path fill="#161C24" d="M5.25 8A2.75 2.75 0 0 1 8 5.25h2a6.75 6.75 0 0 1 0 13.5H8A2.75 2.75 0 0 1 5.25 16V8Zm1.5 8c0 .69.56 1.25 1.25 1.25h2a5.25 5.25 0 1 0 0-10.5H8c-.69 0-1.25.56-1.25 1.25v8Z"/>
  <path fill="#161C24" d="m5.685 15.75.076.004a.75.75 0 0 1 0 1.492l-.076.004H2a.75.75 0 0 1 0-1.5h3.685Zm16.315 0 .077.004a.75.75 0 0 1 0 1.492L22 17.25h-7.895a.75.75 0 0 1 0-1.5H22Zm-16.315-9 .076.004a.75.75 0 0 1 0 1.492l-.076.004H2a.75.75 0 0 1 0-1.5h3.685ZM22 6.75a.75.75 0 0 1 0 1.5h-7.895a.75.75 0 0 1 0-1.5H22Zm-12 4.5a.75.75 0 0 1 0 1.5H5a.75.75 0 0 1 0-1.5h5Z"/>
</svg>
