<svg xmlns="http://www.w3.org/2000/svg" width="24" height="24" fill="none" viewBox="0 0 24 24">
  <path fill="#161C24" fill-rule="evenodd" d="M14.684 3.331a.73.73 0 0 0-.418.616c-.008.133.023.271.462 2.037l.47 1.894-1.376 2.201-1.378 2.201-1.91-2.255L8.627 7.77l.772-.01c.854-.012.854-.012 1.038-.147a.71.71 0 0 0 .304-.597.73.73 0 0 0-.568-.73c-.095-.02-.678-.025-2.672-.025-2.793 0-2.71-.004-2.9.119a.751.751 0 0 0 0 1.26c.173.111.254.119 1.2.12h.853l2.468 2.915c1.357 1.603 2.468 2.928 2.468 2.945 0 .017-.207.361-.46.765l-.46.735-.053-.222a4.756 4.756 0 0 0-2.12-2.933 6.278 6.278 0 0 0-.838-.412 5.772 5.772 0 0 0-.958-.247 6.552 6.552 0 0 0-1.4 0c-1.782.279-3.23 1.493-3.798 3.184a4.473 4.473 0 0 0-.242 1.525c0 .798.17 1.494.54 2.198.237.453.51.816.903 1.198a4.707 4.707 0 0 0 2.553 1.283c.17.029.324.036.754.035.588 0 .722-.015 1.178-.13a4.947 4.947 0 0 0 1.76-.874c.214-.168.667-.631.827-.845.426-.57.736-1.247.868-1.895l.046-.225h.15c.327 0 .53-.068.688-.227.05-.051.9-1.393 2.122-3.349A392.567 392.567 0 0 1 15.7 9.92c.006 0 .105.376.219.835.115.459.21.844.215.855.004.011-.08.062-.188.113a4.771 4.771 0 0 0-2.664 3.761 5.487 5.487 0 0 0 .068 1.479c.153.736.488 1.441.962 2.027.192.238.59.625.829.803.62.465 1.335.769 2.116.901.302.051 1.203.051 1.494 0a4.735 4.735 0 0 0 1.34-.433c.497-.242.85-.497 1.272-.919.535-.537.9-1.125 1.135-1.832.172-.517.243-.959.243-1.506 0-.819-.193-1.582-.574-2.274a4.689 4.689 0 0 0-2.06-1.977 4.275 4.275 0 0 0-.908-.341c-.416-.109-.632-.136-1.148-.144l-.46-.008-.806-3.232a314.862 314.862 0 0 1-.8-3.239c.015-.015.653.033.965.072.548.068.923.167 1.285.339.247.117.348.185.53.357.22.207.337.398.486.793.13.348.212.446.47.566a.5.5 0 0 0 .27.051.725.725 0 0 0 .612-.302c.21-.303.182-.623-.115-1.245a3.16 3.16 0 0 0-1.137-1.311c-.681-.455-1.56-.704-2.78-.789a30.858 30.858 0 0 0-1.492-.06c-.25 0-.254.001-.394.071Zm-8.21 9.46a3.243 3.243 0 0 1 2.24 1.436c.186.281.37.694.434.978l.013.054-1.676.006-1.676.005-.133.066a.806.806 0 0 0-.356.356c-.044.086-.05.124-.05.308s.006.224.052.32a.85.85 0 0 0 .338.35.897.897 0 0 0 .223.069c.079.013.715.021 1.7.021h1.574l-.037.135c-.335 1.203-1.361 2.108-2.63 2.318a4.23 4.23 0 0 1-.94.008 3.267 3.267 0 0 1-2.77-2.78 4.063 4.063 0 0 1 .009-.929 3.246 3.246 0 0 1 1.345-2.164 3.173 3.173 0 0 1 1.336-.549 3.84 3.84 0 0 1 1.005-.008Zm12 0a3.244 3.244 0 0 1 2.235 1.429c.363.549.53 1.115.53 1.79 0 .311-.025.522-.098.804-.32 1.25-1.351 2.184-2.65 2.399a4.23 4.23 0 0 1-.941.008 3.267 3.267 0 0 1-2.77-2.78 4.165 4.165 0 0 1-.023-.45 3.242 3.242 0 0 1 1.606-2.794.719.719 0 0 1 .145-.075c.004.005.17.674.372 1.488.2.814.382 1.535.403 1.603a.748.748 0 0 0 1.245.315.665.665 0 0 0 .207-.476c.007-.155-.008-.227-.374-1.702-.21-.847-.386-1.551-.391-1.565-.013-.036.262-.033.505.006Z" clip-rule="evenodd"/>
</svg>
