<svg xmlns="http://www.w3.org/2000/svg" width="24" height="24" fill="none" viewBox="0 0 24 24">
  <path fill="#161C24" fill-rule="evenodd" d="M11.552 1.292c-.263.048-.486.135-.993.389C8.541 2.69 6.571 3.38 4.65 3.75c-.637.123-.834.177-1.079.297a2.205 2.205 0 0 0-.599.414 2.478 2.478 0 0 0-.648 1.072l-.054.197-.006 2.9c-.006 3.111-.005 3.18.098 3.88.44 3.023 2.315 5.8 5.458 8.087a20.14 20.14 0 0 0 2.81 1.703c.747.377.944.44 1.37.44.426 0 .623-.063 1.37-.44 1.965-.991 3.632-2.186 5-3.583 1.83-1.868 2.914-3.917 3.26-6.157.11-.712.112-.802.106-3.94l-.006-2.89-.054-.197a2.402 2.402 0 0 0-1.19-1.459c-.24-.124-.422-.182-.798-.255a21.75 21.75 0 0 1-3.243-.861c-.978-.338-1.748-.663-2.865-1.209-.725-.354-.86-.408-1.157-.46a3.431 3.431 0 0 0-.87.003Zm.758 1.512c.066.021.264.114.44.205a25.47 25.47 0 0 0 2.18.985c1.521.598 2.81.974 4.414 1.285.377.073.503.127.662.284a.776.776 0 0 1 .235.472c.016.104.02.906.013 2.85-.008 2.253-.015 2.75-.04 2.975a8.582 8.582 0 0 1-.275 1.45c-.537 1.928-1.773 3.714-3.699 5.343a18.915 18.915 0 0 1-3.858 2.466c-.363.17-.4.17-.764 0-1.075-.5-2.399-1.316-3.385-2.085-1.11-.865-2.033-1.809-2.759-2.818-.852-1.187-1.424-2.551-1.625-3.876-.093-.61-.093-.615-.103-3.455-.006-1.944-.003-2.746.013-2.85a.776.776 0 0 1 .235-.472c.16-.157.285-.211.662-.284A23.508 23.508 0 0 0 9.07 3.994a25.143 25.143 0 0 0 2.155-.973c.168-.087.355-.178.415-.201.206-.081.453-.087.67-.016Zm-.76 3.489a2.52 2.52 0 0 0-1.859 1.51c-.157.39-.19.636-.19 1.399v.552l-.166.012c-.38.028-.75.196-1.042.473a1.837 1.837 0 0 0-.478.795l-.045.156v4.12l.045.156a1.772 1.772 0 0 0 1.22 1.219l.155.045h5.62l.156-.045c.168-.049.39-.153.534-.252a1.82 1.82 0 0 0 .685-.967l.045-.156v-4.12l-.045-.156c-.204-.704-.817-1.216-1.52-1.268l-.165-.012v-.538c0-.762-.036-1.028-.19-1.413a2.509 2.509 0 0 0-1.88-1.512 3.367 3.367 0 0 0-.88.002Zm.75 1.508a.987.987 0 0 1 .67.708c.023.094.03.242.03.685v.566h-2v-.566c0-.609.012-.709.11-.899.145-.285.43-.487.75-.534.14-.02.275-.008.44.04Zm2.326 3.484a.4.4 0 0 1 .09.089c.032.051.034.169.034 1.876 0 1.707-.002 1.825-.035 1.876a.417.417 0 0 1-.089.089c-.05.033-.203.035-2.626.035s-2.575-.002-2.626-.035a.417.417 0 0 1-.089-.089c-.033-.051-.035-.172-.04-1.805-.004-.963 0-1.789.005-1.836.015-.103.09-.198.177-.223.037-.011 1.096-.017 2.604-.015 2.39.003 2.544.005 2.595.038Z" clip-rule="evenodd"/>
</svg>
