<svg xmlns="http://www.w3.org/2000/svg" width="24" height="24" fill="none" viewBox="0 0 24 24">
  <path fill="#161C24" fill-rule="evenodd" d="M13.166 1.539a2.5 2.5 0 0 0-2.332 0C9.632 2.175 7.17 3.32 4.216 3.834c-1.089.19-1.966 1.12-1.966 2.29v4.927c0 3.49 1.78 6.158 3.742 8.032 1.96 1.873 4.16 3.015 5.161 3.479a2 2 0 0 0 1.694 0c1.001-.465 3.2-1.606 5.16-3.479 1.963-1.874 3.743-4.541 3.743-8.032V6.123c0-1.168-.877-2.1-1.966-2.289-2.954-.513-5.416-1.659-6.618-2.295ZM14.5 8.75v1c.966 0 1.75.784 1.75 1.75V15a1.75 1.75 0 0 1-1.75 1.75h-5A1.75 1.75 0 0 1 7.75 15v-3.5c0-.966.784-1.75 1.75-1.75v-1a2.5 2.5 0 0 1 5 0Zm-2.5-1a1 1 0 0 0-1 1v1h2v-1a1 1 0 0 0-1-1Z" clip-rule="evenodd"/>
</svg>
