<svg xmlns="http://www.w3.org/2000/svg" width="24" height="24" fill="none" viewBox="0 0 24 24">
  <path fill="#161C24" fill-rule="evenodd" d="M5.04 1.791a3.014 3.014 0 0 0-1.064.423A2.762 2.762 0 0 0 2.79 4.067c-.028.163-.03 1.139-.026 8.913l.006 8.73.05.1a.9.9 0 0 0 .352.36.821.821 0 0 0 .546.042c.055-.018 1.711-.892 3.681-1.942A418.92 418.92 0 0 1 11 18.36c.011 0 1.63.858 3.595 1.907a368.486 368.486 0 0 0 3.67 1.942c.127.048.403.035.541-.026a.893.893 0 0 0 .366-.358l.058-.115v-9.92l-.058-.115a.899.899 0 0 0-.362-.356c-.087-.043-.128-.049-.31-.049s-.223.006-.31.049a.899.899 0 0 0-.362.356l-.058.115-.005 4.225a308.591 308.591 0 0 1-.02 4.225c-.008 0-1.45-.766-3.205-1.702-1.755-.937-3.237-1.72-3.295-1.74a.82.82 0 0 0-.49 0c-.058.02-1.54.803-3.295 1.74a500.519 500.519 0 0 1-3.205 1.702c-.008 0-.013-2.698-.01-5.995L4.25 8.25l3.48-.01 3.48-.01.115-.058a.899.899 0 0 0 .356-.362c.043-.087.05-.128.05-.31 0-.192-.006-.22-.059-.325a.899.899 0 0 0-.362-.356l-.1-.049-3.48-.01-3.48-.01V5.54c0-1.343-.003-1.311.134-1.598a1.29 1.29 0 0 1 .796-.657c.1-.03.374-.034 3.07-.044l2.96-.011.1-.049a.899.899 0 0 0 .362-.356c.053-.105.058-.133.058-.325s-.005-.22-.058-.325a.899.899 0 0 0-.362-.356l-.1-.049-3.01-.003c-2.473-.002-3.037.002-3.16.024Zm9.218-.003a.856.856 0 0 0-.439.402c-.043.087-.049.127-.049.31 0 .35-.079.252 1.388 1.725L16.43 5.5l-1.27 1.275C13.69 8.248 13.77 8.15 13.77 8.5c0 .192.005.22.058.325.07.137.223.288.362.356.087.043.128.049.31.049.35 0 .252.079 1.725-1.388L17.5 6.571l1.275 1.271C20.248 9.309 20.15 9.23 20.5 9.23c.182 0 .223-.006.31-.049a.899.899 0 0 0 .362-.356c.053-.105.058-.133.058-.325 0-.35.08-.252-1.388-1.725L18.572 5.5l1.27-1.275C21.31 2.752 21.23 2.85 21.23 2.5c0-.192-.005-.22-.058-.325a.899.899 0 0 0-.362-.356c-.087-.043-.128-.049-.31-.049-.35 0-.252-.079-1.725 1.388L17.5 4.429l-1.275-1.271c-1.458-1.452-1.375-1.385-1.705-1.392a.843.843 0 0 0-.262.022Z" clip-rule="evenodd"/>
</svg>
