<svg xmlns="http://www.w3.org/2000/svg" width="24" height="24" fill="none" viewBox="0 0 24 24">
  <path fill="#161C24" fill-rule="evenodd" d="M14.267 3.165c1.821-.781 4.487-1.332 7.91-.5a.75.75 0 0 1 .573.729v14.5a.75.75 0 0 1-.927.728c-3.077-.747-5.411-.245-6.965.422a8.673 8.673 0 0 0-1.76 1.006 6.475 6.475 0 0 0-.348.277V3.967c.41-.262.916-.544 1.517-.802Zm-3.017.802v16.36a6.475 6.475 0 0 0-.347-.277 8.629 8.629 0 0 0-1.761-1.006c-1.554-.667-3.888-1.17-6.965-.422a.75.75 0 0 1-.927-.728v-14.5a.75.75 0 0 1 .573-.73c3.423-.831 6.089-.28 7.91.501.6.258 1.107.54 1.517.802ZM5 6.251a.75.75 0 1 0 0 1.5c1.825 0 2.702.439 3.656.916l.009.004a.75.75 0 0 0 .67-1.342C8.293 6.808 7.17 6.251 5 6.251Zm0 3.999a.75.75 0 0 0 0 1.5c1.825 0 2.702.439 3.656.916l.009.004a.75.75 0 1 0 .67-1.342C8.293 10.807 7.17 10.25 5 10.25Z" clip-rule="evenodd"/>
</svg>
