<svg xmlns="http://www.w3.org/2000/svg" width="24" height="24" fill="none" viewBox="0 0 24 24">
  <path fill="#161C24" fill-rule="evenodd" d="M7.335 14.253c0 .914.491 1.714 1.224 2.15-.36.307-.754.622-1.158.91-.48.342-.996.66-1.502.88-.488.212-1.061.375-1.616.279-1.277-.22-2.088-1.32-2.564-2.501C1.23 14.755 1 13.235 1 11.75c0-1.485.23-3.005.72-4.22.475-1.183 1.286-2.281 2.563-2.502.555-.095 1.128.066 1.616.278.505.219 1.021.538 1.501.879.408.29.805.607 1.167.915a2.499 2.499 0 0 0-1.232 2.155v1.752a.757.757 0 0 0-.06-.002h-.717a.75.75 0 0 0-.002 1.5h.716a.76.76 0 0 0 .063-.003v1.75Zm8.83 0c0 .914-.491 1.714-1.224 2.15.36.307.754.622 1.158.91.48.342.996.66 1.502.88.488.212 1.061.375 1.616.279 1.277-.22 2.088-1.32 2.564-2.501.489-1.216.719-2.736.719-4.221 0-1.485-.23-3.005-.72-4.22-.475-1.183-1.286-2.281-2.563-2.502-.555-.095-1.128.066-1.616.278-.505.219-1.021.538-1.501.879-.408.29-.805.607-1.167.916a2.499 2.499 0 0 1 1.231 2.154v1.752a.788.788 0 0 1 .064-.002h.717a.75.75 0 0 1-.002 1.5h-.717a.74.74 0 0 1-.062-.003v1.75Zm-5.915-6.25a1.75 1.75 0 0 0-1.75 1.75v4.002c0 .966.784 1.75 1.75 1.75h3a1.75 1.75 0 0 0 1.75-1.75V9.753a1.75 1.75 0 0 0-1.75-1.75h-3Z" clip-rule="evenodd"/>
</svg>
