<svg xmlns="http://www.w3.org/2000/svg" width="24" height="24" fill="none" viewBox="0 0 24 24">
  <path fill="#161C24" d="M4.741 5.254c.488-.03.98.117 1.407.302.506.219 1.022.538 1.502.879.962.683 1.864 1.519 2.38 2.035a.75.75 0 0 1-1.06 1.06c-.484-.483-1.32-1.257-2.189-1.874-.435-.309-.856-.563-1.23-.725-.293-.127-.505-.174-.646-.18l-.117.005c-.496.086-1.015.559-1.427 1.582-.398.99-.611 2.308-.611 3.661 0 1.353.213 2.671.611 3.661.412 1.023.93 1.498 1.427 1.583l.117.005c.141-.006.354-.054.647-.181.373-.163.794-.418 1.228-.727.868-.618 1.706-1.392 2.19-1.876a.75.75 0 0 1 1.06 1.06c-.516.516-1.418 1.353-2.38 2.038-.48.341-.995.66-1.5.88-.427.186-.92.333-1.408.303l-.209-.024c-1.277-.22-2.088-1.32-2.563-2.501-.49-1.216-.72-2.736-.72-4.22 0-1.486.23-3.006.72-4.222.475-1.182 1.286-2.28 2.563-2.5l.208-.025Zm13.111.302c.487-.212 1.06-.373 1.615-.278l.234.052c1.143.307 1.884 1.341 2.33 2.45.488 1.215.719 2.734.719 4.22 0 1.485-.23 3.005-.72 4.22-.445 1.109-1.186 2.143-2.329 2.45l-.234.052c-.555.095-1.129-.067-1.616-.279-.506-.22-1.022-.539-1.501-.88a19.163 19.163 0 0 1-1.926-1.597l-.454-.44-.052-.057a.75.75 0 0 1 1.056-1.056l.056.052.424.41c.48.45 1.114 1.002 1.766 1.466.434.31.855.564 1.228.726.391.17.638.199.764.177l.093-.021c.467-.127.948-.603 1.334-1.562.398-.99.611-2.308.611-3.661 0-1.353-.213-2.671-.611-3.661-.386-.96-.867-1.436-1.334-1.562l-.093-.02c-.126-.022-.373.005-.764.175-.373.161-.794.416-1.23.725-.867.617-1.704 1.39-2.188 1.874a.75.75 0 0 1-1.06-1.061c.516-.516 1.418-1.352 2.38-2.036.48-.34.996-.66 1.502-.878Z"/>
  <path fill="#161C24" d="M13.75 10.003a.25.25 0 0 0-.25-.25h-3a.25.25 0 0 0-.25.25v4.002c0 .138.112.25.25.25h3a.25.25 0 0 0 .25-.25v-4.002Zm1.5 4.002a1.75 1.75 0 0 1-1.75 1.75h-3a1.75 1.75 0 0 1-1.75-1.75v-4.002c0-.967.784-1.75 1.75-1.75h3c.966 0 1.75.783 1.75 1.75v4.002Z"/>
  <path fill="#161C24" d="m9.001 11.255.076.004a.75.75 0 0 1 0 1.492l-.078.004-1.5-.002-.076-.004a.75.75 0 0 1 .078-1.496l1.5.002Zm7.575.002a.75.75 0 0 1 .001 1.492l-.076.004-1.5.002a.75.75 0 0 1-.002-1.5l1.5-.002.077.004Z"/>
</svg>
