<svg xmlns="http://www.w3.org/2000/svg" width="24" height="24" fill="none" viewBox="0 0 24 24">
  <path fill="#161C24" d="M20.25 4a.25.25 0 0 0-.25-.25H4a.25.25 0 0 0-.25.25v1c0 .138.112.25.25.25h16a.25.25 0 0 0 .25-.25V4Zm1.5 1A1.75 1.75 0 0 1 20 6.75H4A1.75 1.75 0 0 1 2.25 5V4c0-.966.784-1.75 1.75-1.75h16c.966 0 1.75.784 1.75 1.75v1Z"/>
  <path fill="#161C24" d="M21.25 11.77c0-.31-.044-.618-.13-.914l-.102-.292-1.714-4.286-.026-.072a.75.75 0 0 1 1.386-.555l.032.07 1.714 4.285.08.213c.172.498.26 1.023.26 1.552V21a.75.75 0 0 1-.75.75h-8a.75.75 0 0 1-.75-.75v-4.587a.25.25 0 0 0-.073-.177L12 15.061l-1.177 1.176a.25.25 0 0 0-.073.177V21a.75.75 0 0 1-.75.75H2a.75.75 0 0 1-.75-.75v-9.23c0-.604.115-1.203.34-1.764l1.714-4.284.032-.07a.75.75 0 0 1 1.386.554l-.026.072-1.714 4.286a3.25 3.25 0 0 0-.232 1.207v8.48h6.5v-3.837c0-.464.185-.91.513-1.237L10.94 14l-1.47-1.47-.052-.056a.75.75 0 0 1 1.056-1.056l.056.052 3.707 3.707c.328.328.513.773.513 1.237v3.836h6.5v-8.48Z"/>
  <path fill="#161C24" d="M12.012 5.25a.75.75 0 0 1 .643.386l2.5 4.5.034.07a.75.75 0 0 1-1.305.724l-.04-.066-1.87-3.365-.83 1.387a.75.75 0 0 1-1.288-.772l1.5-2.5.058-.082a.75.75 0 0 1 .598-.282Z"/>
</svg>
