<svg xmlns="http://www.w3.org/2000/svg" width="24" height="24" fill="none" viewBox="0 0 24 24">
  <path fill="#161C24" fill-rule="evenodd" d="M3.75 2A1.75 1.75 0 0 0 2 3.75v1c0 .622.324 1.168.813 1.478a2.751 2.751 0 0 0-.262.5L1.34 9.757A4.75 4.75 0 0 0 1 11.52v9.23c0 .414.336.75.75.75h8a.75.75 0 0 0 .75-.75v-4.586a.25.25 0 0 1 .073-.177l1.177-1.176 1.177 1.176a.25.25 0 0 1 .073.177v4.586c0 .414.336.75.75.75h8a.75.75 0 0 0 .75-.75v-9.23a4.75 4.75 0 0 0-.34-1.764L20.95 6.73a2.745 2.745 0 0 0-.263-.5 1.75 1.75 0 0 0 .813-1.479v-1A1.75 1.75 0 0 0 19.75 2h-16Zm8.001 3h7.999a.25.25 0 0 0 .25-.25v-1a.25.25 0 0 0-.25-.25h-16a.25.25 0 0 0-.25.25v1c0 .138.112.25.25.25h8.001Zm1.286 1.5 2.16 3.815a.75.75 0 1 1-1.311.728l-2.16-3.794-1.153 1.643a.75.75 0 1 1-1.286-.771l1.07-1.621h2.68Z" clip-rule="evenodd"/>
</svg>
