<svg xmlns="http://www.w3.org/2000/svg" width="24" height="24" fill="none" viewBox="0 0 24 24">
  <path fill="#161C24" fill-rule="evenodd" d="M18.03 1.263a7.762 7.762 0 0 0-3.52 1.013 10.74 10.74 0 0 0-1.117.763l-.276.223-.254-.04a6.218 6.218 0 0 0-1.243-.09c-.588 0-.822.022-1.286.12a4.927 4.927 0 0 0-1.264.438 4.982 4.982 0 0 0-1.24.845c-.803.726-1.443 1.854-1.64 2.885a8.99 8.99 0 0 1-.041.213c-.007.035-.039.051-.174.086-1.213.32-2.211 1.053-2.851 2.096-.408.666-.656 1.39-.776 2.267a7.395 7.395 0 0 0 0 1.473l.038.305-.11.145c-.563.748-.894 1.782-.998 3.123-.03.386-.012 1.552.031 1.972.044.433.107.906.142 1.06.177.781.64 1.476 1.299 1.951.214.154.667.384.925.468.386.126.567.151 1.075.15.39 0 .492-.008.67-.045.517-.107.909-.287 1.63-.753a51.487 51.487 0 0 0 5.19-3.832c2.266-1.896 4.596-4.173 6.292-6.149a32.88 32.88 0 0 0 3.465-4.874c.438-.75.562-1.05.684-1.666.062-.31.077-.929.031-1.245-.14-.952-.605-1.726-1.329-2.213-.455-.306-.952-.473-1.783-.602a7.631 7.631 0 0 0-1.57-.087Zm.98 1.52c.265.025.712.103.96.166.754.192 1.192.725 1.27 1.545.044.475-.07.975-.34 1.481-.331.618-1.156 1.92-1.727 2.725-1.516 2.135-3.575 4.382-6.233 6.801a52.925 52.925 0 0 1-5.178 4.148c-.637.447-1.72 1.16-2.025 1.334-.362.205-.77.295-1.164.256-.758-.076-1.391-.563-1.609-1.239-.121-.373-.209-1.263-.21-2.11 0-.867.088-1.515.289-2.118.139-.418.397-.894.491-.908a1.79 1.79 0 0 1 .279.047 6.37 6.37 0 0 1 2.167.93c.332.221.471.262.722.21a.672.672 0 0 0 .396-.22.742.742 0 0 0 .03-.984c-.165-.204-1-.696-1.648-.973-.442-.188-1.218-.423-1.537-.466-.098-.012-.103-.016-.117-.086a5.134 5.134 0 0 1-.014-.512c.001-.36.009-.488.046-.706.237-1.397.978-2.377 2.127-2.816 1.191-.454 2.785-.26 4.635.561.116.051.413.198.66.326l.569.294c.109.056.137.061.31.061.169 0 .206-.007.317-.058a.832.832 0 0 0 .386-.406.757.757 0 0 0-.262-.877c-.123-.088-.785-.436-1.15-.606-.897-.417-1.81-.729-2.581-.88a9.745 9.745 0 0 0-.974-.134c-.113-.008-.195-.023-.195-.035 0-.01.032-.116.072-.232.348-1.02 1.067-1.844 2-2.292.772-.37 1.74-.48 2.798-.318 1.049.16 2.141.563 3.555 1.312l.275.146h.196c.18 0 .205-.005.328-.066a.804.804 0 0 0 .359-.36.924.924 0 0 0 .03-.526.7.7 0 0 0-.303-.402c-.266-.178-1.286-.68-1.838-.906l-.258-.105.078-.049a6.444 6.444 0 0 1 3.098-.984c.174-.01.688.006.92.03Z" clip-rule="evenodd"/>
</svg>
