<svg xmlns="http://www.w3.org/2000/svg" width="24" height="24" fill="none" viewBox="0 0 24 24">
  <path fill="#161C24" fill-rule="evenodd" d="M11.19 1.282a10.795 10.795 0 0 0-3.625.926 10.813 10.813 0 0 0-5.357 5.357 10.53 10.53 0 0 0-.948 4.419c0 1.542.327 2.911 1.056 4.416.088.182.179.393.203.47.054.173.073.441.043.599-.012.066-.184.66-.381 1.32-.197.661-.374 1.26-.393 1.331-.05.192-.045.599.01.809a1.746 1.746 0 0 0 1.915 1.312c.099-.013.656-.17 1.4-.393 1.408-.422 1.429-.427 1.61-.428.264 0 .436.052.877.265 1.503.726 2.879 1.055 4.41 1.055a10.565 10.565 0 0 0 4.425-.948 10.829 10.829 0 0 0 5.357-5.357c.642-1.431.947-2.861.947-4.435 0-1.574-.305-3.004-.947-4.435a10.821 10.821 0 0 0-5.357-5.357 10.47 10.47 0 0 0-4.475-.945c-.313.001-.66.01-.77.019Zm1.18 1.478a9.027 9.027 0 0 1 3.646.911 8.851 8.851 0 0 1 2.577 1.851 8.758 8.758 0 0 1 1.736 2.462 9.007 9.007 0 0 1 .909 3.613 9.22 9.22 0 0 1-1.424 5.353 9.513 9.513 0 0 1-2.474 2.604 9.437 9.437 0 0 1-3.277 1.465c-1.092.252-2.33.296-3.366.12-.842-.143-1.534-.37-2.457-.809a7.2 7.2 0 0 0-.57-.246c-.472-.16-.99-.2-1.46-.111-.086.017-.727.2-1.422.409-.695.208-1.285.378-1.311.378-.107 0-.237-.132-.237-.24 0-.023.166-.597.369-1.276.203-.679.383-1.293.4-1.366.052-.223.075-.597.053-.836-.043-.456-.12-.708-.392-1.282-.595-1.252-.853-2.224-.908-3.42-.1-2.13.605-4.312 1.946-6.03A10.03 10.03 0 0 1 6.31 4.708a9.297 9.297 0 0 1 3.67-1.736 9.051 9.051 0 0 1 1.589-.211c.188-.008.346-.016.35-.018.006-.001.209.006.45.017Zm-4.632 8.277c-.627.163-.932.916-.597 1.472a1.007 1.007 0 0 0 1.566.199A.92.92 0 0 0 9 12a.92.92 0 0 0-.293-.708 1.005 1.005 0 0 0-.97-.255Zm4.044-.015c-.346.068-.687.406-.76.754a.994.994 0 0 0 .26.916.99.99 0 0 0 1.435 0 .979.979 0 0 0 0-1.384 1.01 1.01 0 0 0-.935-.286Zm3.998 0a1.095 1.095 0 0 0-.487.27A.92.92 0 0 0 15 12a.92.92 0 0 0 .293.708.987.987 0 0 0 .854.276.919.919 0 0 0 .555-.282.936.936 0 0 0 .28-.547c.108-.696-.501-1.269-1.202-1.133Z" clip-rule="evenodd"/>
</svg>
