<svg xmlns="http://www.w3.org/2000/svg" width="24" height="24" fill="none" viewBox="0 0 24 24">
  <path fill="#161C24" fill-rule="evenodd" d="M11.75 1C5.813 1 1 5.813 1 11.75c0 1.714.44 3.196 1.148 4.569.184.356.227.738.128 1.068l-.71 2.369c-.401 1.335.843 2.58 2.178 2.179l2.37-.711c.33-.099.71-.056 1.068.128 1.372.708 2.854 1.148 4.568 1.148 5.937 0 10.75-4.813 10.75-10.75S17.687 1 11.75 1Zm-4 9.75a1 1 0 1 0 0 2h.009a1 1 0 1 0 0-2H7.75Zm3.995 0a1 1 0 1 0 0 2h.01a1 1 0 1 0 0-2h-.01Zm3.996 0a1 1 0 1 0 0 2h.009a1 1 0 1 0 0-2h-.009Z" clip-rule="evenodd"/>
</svg>
