<svg xmlns="http://www.w3.org/2000/svg" width="24" height="24" fill="none" viewBox="0 0 24 24">
  <path fill="#161C24" fill-rule="evenodd" d="M2 22a1 1 0 0 1 1-1h18a1 1 0 1 1 0 2H3a1 1 0 0 1-1-1Z" clip-rule="evenodd"/>
  <path fill="#161C24" fill-rule="evenodd" d="M4.25 4A2.75 2.75 0 0 1 7 1.25h10A2.75 2.75 0 0 1 19.75 4v18a.75.75 0 0 1-.75.75H5a.75.75 0 0 1-.75-.75V4Zm4.5 14c0-.967.784-1.75 1.75-1.75h3c.966 0 1.75.784 1.75 1.75v3.866a.75.75 0 1 1-1.5 0V18a.25.25 0 0 0-.25-.25h-3a.25.25 0 0 0-.25.25v3.866a.75.75 0 1 1-1.5 0V18ZM10 5.25a.75.75 0 0 0 0 1.5h4a.75.75 0 0 0 0-1.5h-4Zm0 3.5a.75.75 0 0 0 0 1.5h4a.75.75 0 0 0 0-1.5h-4Zm0 3.5a.75.75 0 0 0 0 1.5h4a.75.75 0 0 0 0-1.5h-4Z" clip-rule="evenodd"/>
</svg>
