<svg xmlns="http://www.w3.org/2000/svg" width="24" height="24" fill="none" viewBox="0 0 24 24">
  <path fill="#161C24" fill-rule="evenodd" d="M5.04 1.792a3.001 3.001 0 0 0-1.064.422A2.77 2.77 0 0 0 2.79 4.058c-.027.158-.03 1.041-.03 7.943 0 8.48-.008 7.877.11 8.294.057.194.224.55.347.735a2.777 2.777 0 0 0 1.838 1.179c.155.027.952.031 6.935.031 7.356 0 6.892.007 7.3-.11a3.42 3.42 0 0 0 .74-.347 2.777 2.777 0 0 0 1.179-1.84c.028-.156.03-1.065.03-7.942 0-8.485.01-7.877-.11-8.296a3.425 3.425 0 0 0-.343-.729 2.767 2.767 0 0 0-1.841-1.185c-.155-.027-.948-.031-6.965-.029-5.641.002-6.815.007-6.94.03Zm13.78 1.493c.357.111.652.354.797.659.14.295.133.153.133 2.596v2.21H4.25V6.54c0-1.79.005-2.231.027-2.32a1.275 1.275 0 0 1 1.063-.959c.072-.009 3.109-.015 6.75-.013 6.177.003 6.627.005 6.73.037Zm-3.562 2.004a.853.853 0 0 0-.44.401c-.042.087-.048.127-.048.31 0 .192.005.22.058.325.07.137.223.288.362.356l.1.049h2.42l.115-.058a.899.899 0 0 0 .356-.362c.043-.087.049-.128.049-.31s-.006-.223-.05-.31a.899.899 0 0 0-.355-.362l-.115-.058-1.19-.004c-.955-.003-1.204.002-1.262.023Zm4.492 9.671c0 3.891-.005 4.729-.027 4.82a1.3 1.3 0 0 1-.943.943c-.164.04-13.396.04-13.56 0a1.317 1.317 0 0 1-.935-.903c-.032-.102-.034-.455-.04-4.82-.003-2.59-.001-4.721.004-4.735.008-.02 1.49-.024 7.755-.02l7.746.005v4.71ZM6.758 12.789a.85.85 0 0 0-.44.401c-.042.087-.048.127-.048.31 0 .192.005.22.058.325.07.137.223.288.362.356l.1.049h1.42l.1-.049a.899.899 0 0 0 .362-.356c.053-.105.058-.133.058-.325s-.005-.22-.058-.325a.899.899 0 0 0-.362-.356c-.1-.049-.102-.049-.79-.053-.54-.003-.706.002-.762.023Zm4.5 0a.85.85 0 0 0-.44.401c-.042.087-.048.127-.048.31 0 .192.005.22.058.325.07.137.223.288.362.356l.1.049h1.42l.1-.049a.899.899 0 0 0 .362-.356c.053-.105.058-.133.058-.325s-.005-.22-.058-.325a.899.899 0 0 0-.362-.356c-.1-.049-.102-.049-.79-.053-.54-.003-.706.002-.762.023Zm4.5 0a.85.85 0 0 0-.44.401c-.042.087-.048.127-.048.31 0 .192.005.22.058.325.07.137.223.288.362.356l.1.049h1.42l.1-.049a.899.899 0 0 0 .362-.356c.053-.105.058-.133.058-.325s-.005-.22-.058-.325a.899.899 0 0 0-.362-.356c-.1-.049-.102-.049-.79-.053-.54-.003-.706.002-.762.023Zm-9 4a.85.85 0 0 0-.44.401c-.042.087-.048.127-.048.31 0 .192.005.22.058.325.07.137.223.288.362.356l.1.049h1.42l.1-.049a.899.899 0 0 0 .362-.356c.053-.105.058-.133.058-.325s-.005-.22-.058-.325a.899.899 0 0 0-.362-.356c-.1-.049-.102-.049-.79-.053-.54-.003-.706.002-.762.023Zm4.5 0a.85.85 0 0 0-.44.401c-.042.087-.048.127-.048.31 0 .192.005.22.058.325.07.137.223.288.362.356l.1.049h1.42l.1-.049a.899.899 0 0 0 .362-.356c.053-.105.058-.133.058-.325s-.005-.22-.058-.325a.899.899 0 0 0-.362-.356c-.1-.049-.102-.049-.79-.053-.54-.003-.706.002-.762.023Zm4.5 0a.85.85 0 0 0-.44.401c-.042.087-.048.127-.048.31 0 .192.005.22.058.325.07.137.223.288.362.356l.1.049h1.42l.1-.049a.899.899 0 0 0 .362-.356c.053-.105.058-.133.058-.325s-.005-.22-.058-.325a.899.899 0 0 0-.362-.356c-.1-.049-.102-.049-.79-.053-.54-.003-.706.002-.762.023Z" clip-rule="evenodd"/>
</svg>
