<svg xmlns="http://www.w3.org/2000/svg" width="24" height="24" fill="none" viewBox="0 0 24 24">
  <path fill="#161C24" fill-rule="evenodd" d="M6 1a1 1 0 0 1 1 1v3a1 1 0 0 1-2 0V2a1 1 0 0 1 1-1Zm12 0a1 1 0 0 1 1 1v3a1 1 0 1 1-2 0V2a1 1 0 0 1 1-1Z" clip-rule="evenodd"/>
  <path fill="#161C24" fill-rule="evenodd" d="M1.5 6a3 3 0 0 1 3-3h15a3 3 0 0 1 3 3v14a3 3 0 0 1-3 3h-15a3 3 0 0 1-3-3V6Zm2 3v11a1 1 0 0 0 1 1h15a1 1 0 0 0 1-1V9h-17Z" clip-rule="evenodd"/>
  <path fill="#161C24" fill-rule="evenodd" d="M6.75 13c0-.69.56-1.25 1.25-1.25h.009a1.25 1.25 0 1 1 0 2.5H8c-.69 0-1.25-.56-1.25-1.25Zm3.995 0c0-.69.56-1.25 1.25-1.25h.01a1.25 1.25 0 0 1 0 2.5h-.01c-.69 0-1.25-.56-1.25-1.25Zm3.996 0c0-.69.56-1.25 1.25-1.25H16a1.25 1.25 0 1 1 0 2.5h-.009c-.69 0-1.25-.56-1.25-1.25ZM6.75 17c0-.69.56-1.25 1.25-1.25h.009a1.25 1.25 0 1 1 0 2.5H8c-.69 0-1.25-.56-1.25-1.25Zm3.995 0c0-.69.56-1.25 1.25-1.25h.01a1.25 1.25 0 0 1 0 2.5h-.01c-.69 0-1.25-.56-1.25-1.25Z" clip-rule="evenodd"/>
</svg>
