<svg xmlns="http://www.w3.org/2000/svg" width="24" height="24" fill="none" viewBox="0 0 24 24">
  <path fill="#161C24" fill-rule="evenodd" d="M8.845 2.291a1.77 1.77 0 0 0-1.192.941c-.037.076-.21.563-.382 1.083l-.314.945H5.343c-1.744 0-1.75 0-2.138.111a3.402 3.402 0 0 0-.73.343 2.767 2.767 0 0 0-1.184 1.841c-.027.154-.031.851-.031 5.945 0 6.295-.007 5.881.11 6.295.057.194.224.55.347.735a2.777 2.777 0 0 0 1.838 1.179c.155.027 1.104.031 8.435.031 8.994 0 8.39.007 8.8-.11.197-.056.555-.224.734-.344a2.767 2.767 0 0 0 1.185-1.841c.027-.154.03-.851.03-5.945 0-6.295.008-5.881-.11-6.295a3.402 3.402 0 0 0-.343-.729 2.767 2.767 0 0 0-1.841-1.185c-.147-.026-.43-.031-1.788-.031h-1.614l-.314-.945a20.546 20.546 0 0 0-.382-1.083 1.764 1.764 0 0 0-.93-.859c-.297-.118-.146-.113-3.433-.111-2.475.002-3.036.007-3.14.029Zm5.982 1.468c.042.01.098.038.124.062.036.034.197.494.69 1.977.355 1.062.665 1.978.692 2.034.06.13.199.267.344.341.103.052.13.057.323.056.188 0 .22-.006.32-.055a.852.852 0 0 0 .353-.354.604.604 0 0 0 .063-.28c.008-.16.003-.187-.087-.46l-.104-.316c-.008-.022.228-.025 1.327-.019 1.484.009 1.414.003 1.705.147.215.106.434.33.54.552.144.303.133-.202.133 6.056 0 4.697-.005 5.689-.027 5.78a1.3 1.3 0 0 1-.943.943c-.164.04-16.396.04-16.56 0a1.3 1.3 0 0 1-.837-.667c-.144-.303-.133.202-.133-6.056 0-6.262-.011-5.753.134-6.058.107-.225.319-.442.536-.549.294-.145.223-.139 1.708-.148 1.099-.006 1.335-.003 1.327.019l-.104.316c-.09.273-.095.3-.087.46a.6.6 0 0 0 .065.283.804.804 0 0 0 .347.35c.103.05.135.056.324.056.19.001.22-.004.32-.055a.823.823 0 0 0 .346-.343c.027-.055.338-.971.692-2.033.498-1.496.654-1.943.69-1.977a.29.29 0 0 1 .116-.061c.093-.022 5.568-.023 5.663-.001Zm-3.355 6.023c-.981.134-1.915.609-2.562 1.302a4.27 4.27 0 0 0-1.068 3.776c.286 1.437 1.357 2.66 2.759 3.15.509.177.934.24 1.528.224a3.862 3.862 0 0 0 1.417-.276 4.257 4.257 0 0 0 2.673-3.438c.012-.093.027-.414.035-.712.012-.529.01-.542-.027-.552-.032-.008-.047-.045-.076-.178a4.677 4.677 0 0 0-.525-1.298c-.643-1.042-1.68-1.744-2.916-1.971-.212-.039-1.02-.057-1.238-.027Zm.938 1.501a2.749 2.749 0 0 1 2.267 3.347 2.742 2.742 0 0 1-2.657 2.113 2.667 2.667 0 0 1-1.191-.261c-.774-.369-1.297-1.02-1.511-1.882-.042-.169-.047-.236-.047-.6 0-.447.024-.599.15-.943a2.736 2.736 0 0 1 1.313-1.493 2.704 2.704 0 0 1 1.676-.281Z" clip-rule="evenodd"/>
</svg>
