<svg xmlns="http://www.w3.org/2000/svg" width="24" height="24" fill="none" viewBox="0 0 24 24">
  <path fill="#161C24" fill-rule="evenodd" d="M7.59 2.274a2.782 2.782 0 0 0-1.868 1.1c-.231.308-.29.458-.971 2.506-.35 1.05-.643 1.917-.651 1.926-.008.009-.19-.1-.405-.241-.23-.153-.427-.269-.482-.284a.895.895 0 0 0-.54.048.8.8 0 0 0-.343.345c-.055.107-.06.132-.06.326 0 .192.005.22.058.324.085.168.17.243.632.548.23.153.419.283.42.289 0 .006-.262.325-.583.71-.32.384-.631.759-.69.832a3.772 3.772 0 0 0-.73 1.434c-.123.483-.118.303-.118 4.303 0 2.451.007 3.686.02 3.76.093.485.403.913.818 1.127.312.162.958.322 1.548.385a6.973 6.973 0 0 0 1.465-.031 7.37 7.37 0 0 0 .949-.214c.56-.17.937-.537 1.123-1.097.044-.133.047-.175.057-.88l.01-.74h9.5l.012.74c.01.705.013.747.057.88.144.434.418.77.779.957.312.162.958.322 1.548.385a6.973 6.973 0 0 0 1.465-.031c.522-.08 1.024-.216 1.293-.354.414-.213.725-.642.817-1.127.014-.074.02-1.309.02-3.76 0-4 .006-3.82-.118-4.303a3.852 3.852 0 0 0-.55-1.195 31.052 31.052 0 0 0-.776-.959 40.22 40.22 0 0 1-.676-.822c0-.006.19-.136.42-.289.46-.305.547-.38.632-.548.053-.104.058-.132.058-.324 0-.194-.005-.22-.06-.326a.8.8 0 0 0-.343-.345.895.895 0 0 0-.54-.048c-.055.015-.252.131-.482.284-.215.14-.397.25-.405.24-.008-.008-.301-.875-.651-1.925-.681-2.048-.74-2.198-.971-2.506a2.817 2.817 0 0 0-1.618-1.06l-.17-.043-4.42-.003a609.23 609.23 0 0 0-4.48.006Zm8.78 1.513c.36.108.644.339.8.65.04.08 1.29 3.78 1.29 3.818 0 .003-2.907.005-6.46.005s-6.46-.002-6.46-.005c0-.038 1.25-3.738 1.289-3.817.186-.372.553-.628.97-.678a322.1 322.1 0 0 1 4.29-.012c3.944.003 4.167.005 4.28.039Zm3.516 6.848c.41.492.752.906.76.919.01.017-.228.147-.78.424-.874.439-.932.478-1.041.7-.05.101-.055.133-.055.322 0 .191.005.22.057.323a.824.824 0 0 0 .349.35c.103.051.134.056.327.056h.212l.755-.375c.415-.206.76-.37.768-.363.016.017.028 2.765.012 2.922l-.013.124-.247.111c-.931.419-2.021.822-2.63.972-.43.105-.57.12-1.212.134l-.603.012-.315-.948a21.354 21.354 0 0 0-.383-1.086 1.758 1.758 0 0 0-1.206-.942c-.216-.045-5.066-.045-5.282 0-.52.11-.97.461-1.206.942-.037.076-.21.565-.383 1.086l-.315.948-.603-.012c-.643-.014-.783-.029-1.212-.134-.61-.15-1.7-.553-2.63-.972l-.247-.111-.013-.124c-.016-.157-.004-2.905.012-2.922.007-.007.353.157.768.363l.755.376.212-.001c.192 0 .224-.006.324-.055a.854.854 0 0 0 .353-.354c.05-.1.056-.129.056-.32-.001-.19-.006-.221-.057-.324-.11-.22-.186-.271-1.05-.704-.548-.275-.78-.401-.77-.418.009-.013.35-.427.76-.919l.748-.895h14.278l.747.895Zm-5.56 5.124c.144.033.156.057.396.779l.233.697c.007.02-.592.025-2.955.025s-2.962-.005-2.955-.025l.233-.697c.237-.714.254-.747.386-.778.093-.022 4.568-.023 4.663-.001ZM3.35 17.916c.85.345 1.6.589 2.182.711l.218.046v.643c0 .546-.005.647-.03.67-.032.03-.317.114-.56.164a4.489 4.489 0 0 1-1.86-.009c-.354-.078-.508-.13-.535-.183-.018-.036-.024-.318-.025-1.165 0-1.055.002-1.117.035-1.106.019.006.278.109.575.229Zm17.906.903c-.005.982-.01 1.143-.036 1.167-.032.03-.317.114-.56.164a4.489 4.489 0 0 1-1.86-.009c-.354-.078-.508-.13-.535-.183-.018-.036-.023-.205-.02-.667l.005-.618.218-.046c.57-.119 1.317-.361 2.157-.7.284-.112.532-.215.55-.226.089-.051.087-.082.08 1.118Z" clip-rule="evenodd"/>
</svg>
