<svg xmlns="http://www.w3.org/2000/svg" width="24" height="24" fill="none" viewBox="0 0 24 24">
  <path fill="#161C24" fill-rule="evenodd" d="m5.35 4.26-3.56.01-.115.058a.899.899 0 0 0-.356.362c-.043.087-.049.128-.049.31s.006.223.049.31a.899.899 0 0 0 .356.362l.115.058.525.006c.289.004.525.011.525.018 0 .006-.353.804-.784 1.773L1.271 9.29l-.01.34c-.006.187-.006 1.632-.001 3.21.012 3.216-.002 2.936.161 3.279.146.306.354.548.621.721.147.096 1.363.709 1.559.786.183.073.298.096.538.111l.209.013.071.19a2.743 2.743 0 0 0 2.136 1.769c.361.063.847.032 1.236-.079.196-.056.554-.224.733-.344a2.776 2.776 0 0 0 1.057-1.346l.072-.19h4.694l.072.19a2.743 2.743 0 0 0 2.136 1.769c.361.063.847.032 1.236-.079.196-.056.554-.224.733-.344a2.78 2.78 0 0 0 1.057-1.346l.072-.19.838-.011c.791-.011.847-.014.985-.056a1.787 1.787 0 0 0 1.208-1.207c.045-.146.045-.15.052-1.806.007-1.756.004-1.819-.088-2.17a3.414 3.414 0 0 0-.456-.922 3.067 3.067 0 0 0-.622-.598c-.095-.066-.739-.401-1.614-.84l-1.455-.731-1.442-2.059c-.793-1.133-1.494-2.119-1.557-2.19a2.78 2.78 0 0 0-1.189-.77c-.401-.133-.345-.13-3.003-.135-1.32-.003-4.002 0-5.96.005Zm2.9 3.24v1.75l-2.655.005c-1.46.003-2.655-.002-2.655-.01 0-.022 1.523-3.45 1.546-3.48.015-.02.408-.024 1.892-.02l1.872.005V7.5Zm5.347-1.739c.306.038.611.195.79.405.049.057.558.775 1.131 1.594l1.043 1.49-3.385.005a318.38 318.38 0 0 1-3.411-.004c-.02-.008-.025-.376-.025-1.747 0-.956.006-1.743.013-1.751.023-.022 3.66-.015 3.844.008Zm5.658 5.708c1.555.779 1.574.79 1.748 1.026.097.13.163.269.211.445.033.12.036.25.036 1.631 0 1.4-.002 1.504-.035 1.555-.083.125-.074.124-.853.124h-.709l-.072-.19a2.743 2.743 0 0 0-2.136-1.769 2.978 2.978 0 0 0-1.24.08 3.402 3.402 0 0 0-.729.343 2.776 2.776 0 0 0-1.057 1.346l-.072.19H9.653l-.072-.19a2.743 2.743 0 0 0-2.136-1.769 3.315 3.315 0 0 0-.89 0 2.94 2.94 0 0 0-1.079.423 2.779 2.779 0 0 0-1.057 1.346l-.072.19-.09-.003c-.073-.002-.213-.065-.758-.34-.481-.243-.679-.353-.708-.393-.041-.056-.041-.08-.046-2.39-.003-1.283-.001-2.345.004-2.359.008-.02 1.488-.025 7.53-.025H17.8l1.455.729ZM7.29 15.783c.415.086.806.467.92.897a1.81 1.81 0 0 1 0 .64 1.277 1.277 0 0 1-.654.797 1.108 1.108 0 0 1-.556.128c-.223 0-.347-.029-.556-.128a1.277 1.277 0 0 1-.654-.797 1.81 1.81 0 0 1 0-.64c.105-.398.424-.736.82-.87.193-.065.446-.075.68-.027Zm10 0c.415.086.806.467.92.897.017.063.03.199.03.32 0 .37-.105.625-.361.881-.25.25-.526.364-.879.364-.223 0-.347-.029-.556-.128a1.277 1.277 0 0 1-.654-.797 1.52 1.52 0 0 1-.03-.32c0-.368.107-.63.358-.88.32-.317.717-.431 1.172-.337Z" clip-rule="evenodd"/>
</svg>
