<svg xmlns="http://www.w3.org/2000/svg" width="24" height="24" fill="none" viewBox="0 0 24 24">
  <path fill="#161C24" fill-rule="evenodd" d="M2.168 7.445a1 1 0 0 1 1.387-.277l1.5 1a1 1 0 1 1-1.11 1.664l-1.5-1a1 1 0 0 1-.277-1.387Zm19.664 0a1 1 0 0 1-.277 1.387l-1.5 1a1 1 0 0 1-1.11-1.664l1.5-1a1 1 0 0 1 1.387.277Z" clip-rule="evenodd"/>
  <path fill="#161C24" fill-rule="evenodd" d="M5.096 4.051 3.61 8.504l-1.684 2.02A4 4 0 0 0 1 13.087V16.5a1 1 0 0 0 .554.895l.143.07a26.525 26.525 0 0 0 1.62.713 16.68 16.68 0 0 0 1.573.55c.521.148 1.096.272 1.61.272h11c.514 0 1.089-.124 1.61-.273a16.675 16.675 0 0 0 1.573-.549 26.51 26.51 0 0 0 1.76-.782c.34-.169.557-.517.557-.896v-3.414a4 4 0 0 0-.927-2.561l-1.683-2.02-1.485-4.454A3 3 0 0 0 16.059 2H7.942a3 3 0 0 0-2.846 2.051ZM7.942 4a1 1 0 0 0-.949.684L5.888 8h12.225l-1.106-3.316A1 1 0 0 0 16.06 4H7.942Zm.386 13h7.334l-.44-1.316a1 1 0 0 0-.948-.684H9.716a1 1 0 0 0-.95.684L8.329 17Z" clip-rule="evenodd"/>
  <path fill="#161C24" fill-rule="evenodd" d="M2.29 11.989a.75.75 0 0 1 1.007-.335l1.535.675a.75.75 0 0 1-.67 1.342l-1.536-.676a.75.75 0 0 1-.336-1.006Zm19.377-.004a.75.75 0 0 1-.335 1.006l-1.496.68a.75.75 0 1 1-.671-1.341l1.496-.68a.75.75 0 0 1 1.006.335Z" clip-rule="evenodd"/>
  <path fill="#161C24" d="M17.5 20.2c.682 0 1.383-.16 1.94-.32.589-.168 1.18-.384 1.689-.587.317-.127.613-.253.871-.367v1.956c0 .379-.215.726-.575.842A5.53 5.53 0 0 1 19.75 22a5.53 5.53 0 0 1-1.675-.276c-.36-.116-.575-.463-.575-.842V20.2Zm-11 0c-.682 0-1.383-.16-1.94-.32a17.964 17.964 0 0 1-1.689-.587A26.753 26.753 0 0 1 2 18.926v1.956c0 .379.215.726.575.842A5.53 5.53 0 0 0 4.25 22a5.53 5.53 0 0 0 1.675-.276c.36-.116.575-.463.575-.842V20.2Z"/>
</svg>
