<svg xmlns="http://www.w3.org/2000/svg" width="24" height="24" fill="none" viewBox="0 0 24 24">
  <path fill="#161C24" fill-rule="evenodd" d="M3.54 2.292a3.001 3.001 0 0 0-1.064.422A2.762 2.762 0 0 0 1.29 4.567c-.028.163-.03 1.088-.026 8.413l.006 8.23.05.1a.899.899 0 0 0 .355.362c.105.053.133.058.325.058s.22-.005.325-.058a.899.899 0 0 0 .356-.362l.05-.1.01-6.73.01-6.73h18.5l.01 6.73.01 6.73.057.115c.07.137.223.288.362.356.087.043.128.049.31.049.192 0 .22-.005.325-.058a.899.899 0 0 0 .356-.362l.05-.1.005-8.23c.006-9 .014-8.353-.107-8.773a3.394 3.394 0 0 0-.343-.731 2.767 2.767 0 0 0-1.84-1.185c-.156-.027-1.102-.031-8.466-.029-6.908.002-8.315.007-8.44.03Zm16.78 1.493c.357.111.652.354.797.659.13.271.133.303.133 1.096v.71H2.75v-.71c0-.794.004-.825.134-1.098.173-.364.55-.632.956-.681.071-.009 3.784-.015 8.25-.013 7.596.002 8.127.005 8.23.037ZM9.64 9.281a2.98 2.98 0 0 0-1.2.5 2.757 2.757 0 0 0-.989 1.367c-.036.111-.186.686-.333 1.278l-.268 1.076-.147.079a2.73 2.73 0 0 0-1.412 1.974c-.044.252-.044 1.638 0 1.89.066.38.224.781.423 1.079a2.78 2.78 0 0 0 1.346 1.057l.19.072.01.778c.01.776.01.779.06.879a.899.899 0 0 0 .355.362c.105.053.133.058.325.058s.22-.005.325-.058a.899.899 0 0 0 .356-.362c.05-.099.05-.106.06-.83l.01-.73h6.5l.01.73c.01.724.01.731.058.83a.899.899 0 0 0 .356.362c.105.053.133.058.325.058s.22-.005.325-.058a.899.899 0 0 0 .356-.362c.05-.1.05-.103.06-.879l.01-.778.19-.072a2.743 2.743 0 0 0 1.768-2.136c.044-.252.044-1.638 0-1.89a2.653 2.653 0 0 0-.238-.745 2.654 2.654 0 0 0-1.177-1.23l-.149-.081-.276-1.104a41.672 41.672 0 0 0-.334-1.285 2.748 2.748 0 0 0-1.379-1.572 2.614 2.614 0 0 0-.569-.213l-.197-.053-2.32-.004a96.614 96.614 0 0 0-2.43.013Zm4.61 1.507c.262.079.51.24.668.438.141.176.196.335.411 1.192.113.451.201.825.195.831-.014.014-7.064.015-7.064.001 0-.037.371-1.49.414-1.619.166-.506.567-.824 1.106-.878.04-.004.988-.006 2.11-.004 1.89.003 2.05.006 2.16.039Zm2.07 3.997c.356.11.652.354.797.659.128.27.133.307.133 1.056 0 .749-.005.786-.133 1.056-.11.234-.327.45-.56.561-.302.143.047.133-4.557.133-3.437 0-4.189-.005-4.28-.027a1.3 1.3 0 0 1-.837-.667c-.128-.27-.133-.307-.133-1.056 0-.75.005-.786.134-1.058.173-.364.55-.632.956-.681a289 289 0 0 1 4.25-.013c3.812.003 4.128.006 4.23.037Zm-7.562 1.003a.856.856 0 0 0-.439.402.864.864 0 0 0-.02.573.74.74 0 0 0 .561.477.74.74 0 0 0 .841-.477.872.872 0 0 0-.02-.573.88.88 0 0 0-.355-.361c-.099-.05-.14-.059-.305-.063a.785.785 0 0 0-.263.022Zm6 0a.856.856 0 0 0-.439.402.864.864 0 0 0-.02.573.74.74 0 0 0 .561.477.74.74 0 0 0 .841-.477.872.872 0 0 0-.02-.573.88.88 0 0 0-.355-.361c-.099-.05-.14-.059-.305-.063a.785.785 0 0 0-.263.022Z" clip-rule="evenodd"/>
</svg>
