<svg xmlns="http://www.w3.org/2000/svg" width="24" height="24" fill="none" viewBox="0 0 24 24">
  <path fill="#161C24" d="M7 19.375a2.5 2.5 0 1 0 0-5 2.5 2.5 0 0 0 0 5Zm10 0a2.5 2.5 0 1 0 0-5 2.5 2.5 0 0 0 0 5Z"/>
  <path fill="#161C24" fill-rule="evenodd" d="M1.25 11a.75.75 0 0 1 .75-.75h16a.75.75 0 0 1 0 1.5H2a.75.75 0 0 1-.75-.75Z" clip-rule="evenodd"/>
  <path fill="#161C24" fill-rule="evenodd" d="M9 5.25a.75.75 0 0 1 .75.75v5a.75.75 0 0 1-1.5 0V6A.75.75 0 0 1 9 5.25Z" clip-rule="evenodd"/>
  <path fill="#161C24" fill-rule="evenodd" d="M1.25 4.875a.75.75 0 0 1 .75-.75h11.459a2.75 2.75 0 0 1 2.253 1.173l2.793 3.991 2.725 1.362a2.75 2.75 0 0 1 1.52 2.46v2.764a1.75 1.75 0 0 1-1.75 1.75h-.274a3.8 3.8 0 1 0-7.452 0h-2.548a3.8 3.8 0 1 0-7.5-.298l-1.009-.505a1.75 1.75 0 0 1-.967-1.565V9.375a.75.75 0 0 1 .065-.305l1.53-3.445H2a.75.75 0 0 1-.75-.75Zm3.237.75-1.555 3.5H8.25v-3.5H4.487Zm5.263 0v3.5h6.81l-2.077-2.967a1.25 1.25 0 0 0-1.024-.533H9.75Z" clip-rule="evenodd"/>
</svg>
