<svg xmlns="http://www.w3.org/2000/svg" width="24" height="24" fill="none" viewBox="0 0 24 24">
  <path fill="#161C24" fill-rule="evenodd" d="M4 14a1 1 0 0 1 1 1v4a1 1 0 1 1-2 0v-4a1 1 0 0 1 1-1Zm8-6a1 1 0 0 1 1 1v10a1 1 0 1 1-2 0V9a1 1 0 0 1 1-1Zm10 14a1 1 0 0 1-1 1H3a1 1 0 1 1 0-2h18a1 1 0 0 1 1 1Zm-2-10a1 1 0 0 1 1 1v6a1 1 0 1 1-2 0v-6a1 1 0 0 1 1-1Z" clip-rule="evenodd"/>
  <path fill="#161C24" fill-rule="evenodd" d="M9 4a3 3 0 1 1 5.977.37l2.94 1.47a3 3 0 1 1-.895 1.789l-2.94-1.47A2.99 2.99 0 0 1 12 7a2.988 2.988 0 0 1-1.663-.503L6.863 9.103a3 3 0 1 1-1.2-1.6l3.474-2.606A2.998 2.998 0 0 1 9 4Z" clip-rule="evenodd"/>
</svg>
