<svg xmlns="http://www.w3.org/2000/svg" width="24" height="24" fill="none" viewBox="0 0 24 24">
  <path fill="#161C24" fill-rule="evenodd" d="M11.55 1.291a2.747 2.747 0 0 0-2.179 3.5c.027.093.05.178.05.189 0 .016-3.592 2.724-3.717 2.802-.036.022-.059.013-.197-.077a2.756 2.756 0 0 0-1.067-.414 3.371 3.371 0 0 0-.892 0A2.748 2.748 0 0 0 1.29 9.57c-.04.261-.03.773.021.998.253 1.122 1.137 1.964 2.25 2.141.245.04.665.04.892 0a2.753 2.753 0 0 0 2.16-1.861 2.872 2.872 0 0 0 .01-1.668 1.178 1.178 0 0 1-.042-.155c0-.02 3.564-2.712 3.715-2.807.035-.021.058-.013.177.066a2.96 2.96 0 0 0 1.093.429c.25.039.787.028 1.01-.022a2.843 2.843 0 0 0 1.301-.682l.162-.15 1.631.815c1.264.632 1.63.823 1.62.846a3.868 3.868 0 0 0-.024.371c-.008.271-.003.385.024.55a2.774 2.774 0 0 0 1.121 1.801c.287.201.685.375 1.03.45.215.047.853.053 1.07.01a2.768 2.768 0 0 0 2.1-1.86c.097-.311.12-.47.118-.842a2.4 2.4 0 0 0-.187-1.005 2.761 2.761 0 0 0-2.08-1.688 3.29 3.29 0 0 0-.94.001 2.814 2.814 0 0 0-1.414.71l-.136.127-1.635-.817-1.634-.817.014-.09a5.248 5.248 0 0 0-.014-.931 3.081 3.081 0 0 0-.429-1.034c-.403-.607-1.095-1.045-1.842-1.167a3.606 3.606 0 0 0-.88.002Zm.72 1.493c.357.076.686.329.841.646.25.51.158 1.067-.24 1.46a1.235 1.235 0 0 1-1.56.148 1.215 1.215 0 0 1-.555-1.018 1.228 1.228 0 0 1 .551-1.055c.292-.196.613-.256.963-.181Zm7.99 4.008c.374.091.68.328.837.649.118.24.15.383.138.628-.029.675-.563 1.176-1.255 1.177-.329 0-.625-.127-.87-.374a1.233 1.233 0 0 1-.168-1.532c.283-.439.83-.666 1.317-.548Zm-8.502 1.496a.856.856 0 0 0-.439.402l-.049.1v10.42l.05.1a.899.899 0 0 0 .355.362c.105.053.133.058.325.058s.22-.005.325-.058a.899.899 0 0 0 .356-.362l.05-.1V8.79l-.05-.1a.894.894 0 0 0-.355-.361c-.099-.05-.14-.059-.305-.063a.785.785 0 0 0-.263.022Zm-7.44.504c.385.098.73.414.862.793.066.187.085.369.06.556-.052.377-.218.661-.507.868a1.189 1.189 0 0 1-.733.238 1.2 1.2 0 0 1-.869-.356c-.295-.298-.423-.654-.37-1.032.051-.377.217-.661.506-.868a1.231 1.231 0 0 1 1.051-.199Zm15.44 3.496a.856.856 0 0 0-.439.402l-.049.1v6.42l.058.115c.07.137.223.288.362.356.087.043.128.049.31.049s.223-.006.31-.049a.899.899 0 0 0 .362-.356l.058-.115v-6.42l-.049-.1a.894.894 0 0 0-.355-.361c-.099-.05-.14-.059-.305-.063a.785.785 0 0 0-.263.022Zm-16 2a.856.856 0 0 0-.439.402l-.049.1v4.42l.05.1a.899.899 0 0 0 .355.362c.105.053.133.058.325.058s.22-.005.325-.058a.899.899 0 0 0 .356-.362l.05-.1v-4.42l-.05-.1a.894.894 0 0 0-.355-.361c-.099-.05-.14-.059-.305-.063a.785.785 0 0 0-.263.022Zm-1 7.001a.845.845 0 0 0-.439.401c-.043.087-.049.127-.049.31 0 .192.005.22.058.325.07.137.223.288.362.356l.1.049h18.42l.1-.049a.899.899 0 0 0 .362-.356c.053-.105.058-.133.058-.325s-.005-.22-.058-.325a.899.899 0 0 0-.362-.356l-.1-.049-9.19-.004c-7.608-.003-9.202.001-9.262.023Z" clip-rule="evenodd"/>
</svg>
