<svg xmlns="http://www.w3.org/2000/svg" width="24" height="24" fill="none" viewBox="0 0 24 24">
  <path fill="#161C24" fill-rule="evenodd" d="M16.258 2.289a.853.853 0 0 0-.439.401c-.043.087-.049.127-.049.31 0 .192.005.22.058.325.07.137.223.288.362.356.1.049.103.049.815.055.393.003.715.013.715.022 0 .008-.142.146-.315.306-3.029 2.797-7.527 5.302-12.695 7.07-.242.083-.486.172-.542.198a.811.811 0 0 0-.341.345c-.052.103-.057.132-.057.323 0 .189.006.221.055.322a.82.82 0 0 0 .352.35.584.584 0 0 0 .287.064c.172.008.182.006.57-.126 2.727-.927 5.314-2.065 7.626-3.357 2.232-1.246 4.251-2.681 5.81-4.129l.28-.26.01.673c.01.664.011.674.059.773a.899.899 0 0 0 .356.362c.105.053.133.058.325.058.182 0 .223-.006.31-.049a.899.899 0 0 0 .362-.356l.058-.115V2.79l-.058-.115a.899.899 0 0 0-.362-.356l-.1-.049-1.69-.004c-1.371-.003-1.704.001-1.762.023Zm1.962 5.984c-.241.044-.52.158-.72.294a1.82 1.82 0 0 0-.685.967l-.045.156v10.62l.045.156c.049.168.153.39.252.534.212.312.58.573.967.685.151.043.184.045.966.045s.815-.002.966-.045a1.772 1.772 0 0 0 1.219-1.219l.045-.156V9.69l-.045-.156a1.78 1.78 0 0 0-1.209-1.217c-.139-.043-.184-.045-.926-.049-.429-.002-.803 0-.83.005Zm1.406 1.512c.029.02.069.06.089.089.033.051.035.314.035 5.126s-.002 5.075-.035 5.126c-.081.123-.089.124-.715.124s-.634-.001-.715-.124c-.033-.051-.035-.317-.041-5.055-.003-2.751 0-5.039.006-5.086.015-.102.09-.198.177-.224.034-.01.306-.017.604-.015.479.004.547.008.595.039Zm-8.406 1.988c-.241.044-.52.158-.72.294a1.82 1.82 0 0 0-.685.967l-.045.156v7.12l.045.156a1.772 1.772 0 0 0 1.219 1.219c.151.043.184.045.966.045s.815-.002.966-.045c.168-.049.39-.153.534-.252a1.82 1.82 0 0 0 .685-.967l.045-.156v-7.12l-.045-.156a1.78 1.78 0 0 0-1.209-1.217c-.139-.043-.184-.045-.926-.049-.429-.002-.802 0-.83.005Zm1.406 1.512c.029.02.069.06.089.089.033.051.035.236.035 3.376 0 3.14-.002 3.325-.035 3.376-.081.123-.089.124-.715.124s-.634-.001-.715-.124c-.033-.051-.035-.239-.041-3.305-.003-1.788 0-3.289.006-3.336.015-.102.09-.198.177-.224.034-.01.306-.017.604-.015.479.004.547.008.595.039Zm-8.406.988c-.241.044-.52.158-.72.294a1.82 1.82 0 0 0-.685.967l-.045.156v4.62l.045.156a1.772 1.772 0 0 0 1.219 1.219c.151.043.184.045.966.045s.815-.002.966-.045c.168-.049.39-.153.534-.252a1.82 1.82 0 0 0 .685-.967l.045-.156v-4.62l-.045-.156a1.78 1.78 0 0 0-1.209-1.217c-.139-.043-.184-.045-.926-.049-.429-.002-.802 0-.83.005Zm1.406 1.512c.029.02.069.06.089.089.033.051.035.18.035 2.126s-.002 2.075-.035 2.126c-.081.123-.089.124-.715.124s-.634-.001-.715-.124c-.033-.051-.035-.183-.041-2.055-.003-1.101 0-2.039.006-2.086.015-.102.09-.198.177-.224.034-.01.306-.017.604-.015.479.004.547.008.595.039Z" clip-rule="evenodd"/>
</svg>
