<svg xmlns="http://www.w3.org/2000/svg" width="24" height="24" fill="none" viewBox="0 0 24 24">
  <path fill="#161C24" fill-rule="evenodd" d="M11.19 1.281c-1.347.12-2.461.405-3.625.927a10.813 10.813 0 0 0-5.357 5.357 10.55 10.55 0 0 0-.948 4.425c0 1.532.33 2.916 1.056 4.41.222.459.254.569.252.87l-.001.24-.355 1.18c-.484 1.609-.46 1.508-.458 1.82.002.291.037.46.148.714.166.38.482.697.869.872.289.13.647.186.94.145.096-.013.666-.173 1.4-.393 1.429-.427 1.43-.427 1.63-.428.232 0 .425.06.845.261.77.371 1.358.591 2.059.772.239.061.303.07.419.061a.726.726 0 0 0 .6-.41.589.589 0 0 0 .073-.303.686.686 0 0 0-.164-.507c-.114-.139-.236-.205-.532-.286a9.757 9.757 0 0 1-1.781-.667 7.274 7.274 0 0 0-.59-.257 2.92 2.92 0 0 0-1.458-.111c-.087.016-.728.2-1.425.408-.698.209-1.288.379-1.313.379-.105 0-.234-.133-.234-.242 0-.025.166-.599.369-1.276.203-.678.383-1.291.4-1.364.052-.223.075-.597.053-.836-.043-.456-.12-.708-.392-1.282-.594-1.25-.853-2.227-.908-3.42-.1-2.13.605-4.312 1.946-6.03A10.03 10.03 0 0 1 6.31 4.708a9.302 9.302 0 0 1 4.027-1.809c.362-.067.84-.119 1.265-.137 2.906-.126 5.595 1.097 7.409 3.369.22.276.629.879.81 1.199.359.627.68 1.394.88 2.101.046.164.107.345.134.402a.803.803 0 0 0 .343.342c.1.049.133.055.322.055.19 0 .22-.005.32-.056a.71.71 0 0 0 .415-.624c.01-.191-.042-.412-.245-1.02a10.83 10.83 0 0 0-2.61-4.231 10.34 10.34 0 0 0-5.55-2.889c-.63-.108-.93-.133-1.71-.14a15.61 15.61 0 0 0-.93.011Zm4.79 8.991-.26.03c-1.095.125-2.21.594-3.117 1.312a8.88 8.88 0 0 0-.99.989 6.272 6.272 0 0 0-1.24 2.677c-.091.465-.103.603-.103 1.22s.012.755.103 1.22c.149.763.448 1.504.879 2.172a6.603 6.603 0 0 0 1.86 1.859 6.246 6.246 0 0 0 2.829.971 8.275 8.275 0 0 0 1.349-.031 5.912 5.912 0 0 0 1.715-.534c.162-.075.3-.127.355-.132.072-.006.234.035.8.204.75.225.93.263 1.14.241a1.307 1.307 0 0 0 1.17-1.183c.02-.21-.011-.358-.241-1.13-.181-.601-.211-.721-.202-.802a1.75 1.75 0 0 1 .14-.37c.388-.83.545-1.476.567-2.337a5.952 5.952 0 0 0-.506-2.645 5.97 5.97 0 0 0-1.317-1.914c-.994-.994-2.136-1.566-3.558-1.781-.193-.03-1.2-.056-1.373-.036Zm1.14 1.521a4.757 4.757 0 0 1 3.798 2.963c.219.549.327 1.118.326 1.724-.002.685-.133 1.243-.448 1.9-.16.333-.212.484-.25.727-.057.379-.022.6.222 1.403.06.197.108.361.105.363-.002.003-.224-.061-.493-.142-.27-.08-.535-.155-.59-.167a2.063 2.063 0 0 0-.95.04c-.072.021-.261.1-.42.176-.715.337-1.252.465-1.95.464a4.692 4.692 0 0 1-2.991-1.081 4.71 4.71 0 0 1-1.723-3.663c0-1.248.454-2.382 1.31-3.274a4.556 4.556 0 0 1 1.239-.936 4.7 4.7 0 0 1 2.815-.497Z" clip-rule="evenodd"/>
</svg>
