<svg xmlns="http://www.w3.org/2000/svg" width="24" height="24" fill="none" viewBox="0 0 24 24">
  <path fill="#161C24" fill-rule="evenodd" d="M11.19 1.282a10.795 10.795 0 0 0-3.625.926 10.813 10.813 0 0 0-5.357 5.357A10.52 10.52 0 0 0 1.26 12c0 1.576.304 3.001.948 4.435a10.821 10.821 0 0 0 5.357 5.357c1.43.642 2.86.947 4.435.947 1.574 0 3.004-.305 4.435-.947a10.829 10.829 0 0 0 5.357-5.357c.642-1.43.947-2.86.947-4.435 0-1.574-.305-3.004-.947-4.435a10.821 10.821 0 0 0-5.357-5.357 10.47 10.47 0 0 0-4.475-.945c-.313.001-.66.01-.77.02Zm1.18 1.478a9.027 9.027 0 0 1 3.646.911 8.851 8.851 0 0 1 2.577 1.851 8.758 8.758 0 0 1 1.736 2.462 9.007 9.007 0 0 1 .909 3.613 9.22 9.22 0 0 1-1.424 5.353 9.513 9.513 0 0 1-2.474 2.604 9.437 9.437 0 0 1-3.277 1.465 9.508 9.508 0 0 1-4.126 0 9.322 9.322 0 0 1-3.627-1.727 10.03 10.03 0 0 1-1.602-1.602 9.322 9.322 0 0 1-1.727-3.627 9.509 9.509 0 0 1 0-4.126A9.327 9.327 0 0 1 4.708 6.31 10.03 10.03 0 0 1 6.31 4.708a9.297 9.297 0 0 1 3.67-1.736 9.051 9.051 0 0 1 1.589-.21c.188-.009.346-.017.35-.019.006 0 .209.006.45.017Zm3.375 5.538a.696.696 0 0 0-.307.215 371.24 371.24 0 0 0-2.288 2.733l-2.196 2.637-1.252-1.247C8.255 11.194 8.35 11.27 8 11.27c-.192 0-.22.005-.325.058a.899.899 0 0 0-.356.362c-.043.087-.05.128-.05.31 0 .356-.117.215 1.7 2.031 1.816 1.817 1.675 1.7 2.03 1.7.192 0 .22-.006.322-.057a.927.927 0 0 0 .179-.12 768.37 768.37 0 0 0 5.114-6.134.67.67 0 0 0 .122-.466.659.659 0 0 0-.226-.492c-.153-.145-.258-.188-.48-.196a.657.657 0 0 0-.285.032Z" clip-rule="evenodd"/>
</svg>
