<svg xmlns="http://www.w3.org/2000/svg" width="24" height="24" fill="none" viewBox="0 0 24 24">
  <path fill="#161C24" fill-rule="evenodd" d="M11.19 1.282a10.795 10.795 0 0 0-3.625.926 10.813 10.813 0 0 0-5.357 5.357A10.52 10.52 0 0 0 1.26 12c0 1.576.304 3.001.948 4.435a10.821 10.821 0 0 0 5.357 5.357c1.43.642 2.86.947 4.435.947 1.574 0 3.004-.305 4.435-.947a10.829 10.829 0 0 0 5.357-5.357c.642-1.43.947-2.86.947-4.435 0-1.574-.305-3.004-.947-4.435a10.821 10.821 0 0 0-5.357-5.357 10.47 10.47 0 0 0-4.475-.945c-.313.001-.66.01-.77.02Zm1.18 1.478a9.027 9.027 0 0 1 3.646.911 8.851 8.851 0 0 1 2.577 1.851 8.758 8.758 0 0 1 1.736 2.462 9.007 9.007 0 0 1 .909 3.613 9.22 9.22 0 0 1-1.424 5.353 9.513 9.513 0 0 1-2.474 2.604 9.437 9.437 0 0 1-3.277 1.465 9.508 9.508 0 0 1-4.126 0 9.322 9.322 0 0 1-3.627-1.727 10.03 10.03 0 0 1-1.602-1.602 9.322 9.322 0 0 1-1.727-3.627 9.509 9.509 0 0 1 0-4.126A9.327 9.327 0 0 1 4.708 6.31 10.03 10.03 0 0 1 6.31 4.708a9.297 9.297 0 0 1 3.67-1.736 9.051 9.051 0 0 1 1.589-.21c.188-.009.346-.017.35-.019.006 0 .209.006.45.017Zm.888 6.028a.856.856 0 0 0-.44.402c-.042.087-.048.127-.048.31 0 .332-.004.326.768 1.105l.649.655-3.198.005-3.2.005-.1.05a.899.899 0 0 0-.361.355c-.053.105-.058.133-.058.325s.005.22.058.325c.07.137.223.288.362.356l.1.05 3.199.004 3.198.005-.65.655c-.771.78-.767.773-.767 1.105 0 .182.006.223.049.31a.899.899 0 0 0 .356.362c.105.053.133.058.325.058.352 0 .245.087 1.78-1.449 1.537-1.536 1.45-1.429 1.45-1.78 0-.353.087-.246-1.45-1.782-1.52-1.52-1.427-1.444-1.76-1.453a.785.785 0 0 0-.262.022Z" clip-rule="evenodd"/>
</svg>
