<svg xmlns="http://www.w3.org/2000/svg" width="24" height="24" fill="none" viewBox="0 0 24 24">
  <path fill="#161C24" fill-rule="evenodd" d="M1 21.5a1 1 0 0 1 1-1h20a1 1 0 1 1 0 2H2a1 1 0 0 1-1-1Z" clip-rule="evenodd"/>
  <path fill="#161C24" fill-rule="evenodd" d="M2 12.5a2 2 0 0 1 2-2h3a1 1 0 1 1 0 2H4v9a1 1 0 1 1-2 0v-9Zm14-1a1 1 0 0 1 1-1h3a2 2 0 0 1 2 2v9a1 1 0 1 1-2 0v-9h-3a1 1 0 0 1-1-1Zm-4 6a1 1 0 0 1 1 1v3a1 1 0 1 1-2 0v-3a1 1 0 0 1 1-1Z" clip-rule="evenodd"/>
  <path fill="#161C24" fill-rule="evenodd" d="M6.25 3.5c0-.966.784-1.75 1.75-1.75h8c.966 0 1.75.784 1.75 1.75v17A1.75 1.75 0 0 1 16 22.25h-1.825c.081-.235.125-.487.125-.75v-3a2.3 2.3 0 1 0-4.6 0v3c0 .263.044.515.125.75H8a1.75 1.75 0 0 1-1.75-1.75v-17ZM11 5.75a.75.75 0 0 0 0 1.5h2a.75.75 0 0 0 0-1.5h-2Zm0 3.5a.75.75 0 0 0 0 1.5h2a.75.75 0 0 0 0-1.5h-2Zm0 3.5a.75.75 0 0 0 0 1.5h2a.75.75 0 0 0 0-1.5h-2Z" clip-rule="evenodd"/>
</svg>
