<svg xmlns="http://www.w3.org/2000/svg" width="24" height="24" fill="none" viewBox="0 0 24 24">
  <path fill="#161C24" fill-rule="evenodd" d="M11.32 2.289a6.205 6.205 0 0 0-3.686 1.75c-.895.87-1.527 2.029-1.754 3.212l-.024.122-.233.056A5.852 5.852 0 0 0 3.46 8.48c-.241.187-.656.59-.873.849a6.14 6.14 0 0 0-.973 1.673 5.536 5.536 0 0 0-.354 2.017c0 .916.198 1.774.592 2.563a5.783 5.783 0 0 0 3.704 3.008c.353.09.462.102.62.06a.746.746 0 0 0 .396-1.198c-.117-.144-.244-.214-.514-.282-.861-.218-1.548-.607-2.112-1.198a4.279 4.279 0 0 1-1.16-2.393 5.326 5.326 0 0 1 .003-1.15 4.27 4.27 0 0 1 3.14-3.531c.339-.088.569-.121.95-.133.717-.023 1.4.13 2.04.456.218.11.289.154.63.385a.752.752 0 0 0 .44.153.74.74 0 0 0 .675-.416c.06-.124.066-.148.066-.334 0-.176-.007-.214-.054-.315-.07-.15-.2-.274-.48-.46a5.752 5.752 0 0 0-2.631-.946c-.097-.01-.145-.021-.145-.04 0-.035.144-.454.209-.61a4.872 4.872 0 0 1 1.884-2.183 4.751 4.751 0 0 1 5.066.058 4.798 4.798 0 0 1 1.907 2.436c.184.54.259.986.26 1.54a4.72 4.72 0 0 1-.478 2.116 4.45 4.45 0 0 1-.52.825c-.213.285-.238.347-.238.589 0 .164.007.206.053.304.07.15.19.276.342.358.12.065.133.068.335.067.327-.002.439-.071.727-.446a6.357 6.357 0 0 0 1.096-2.288c.055-.231.03-.222.365-.135a3.772 3.772 0 0 1 2.7 2.697c.148.578.157 1.194.029 1.763a3.77 3.77 0 0 1-2.006 2.55 3.738 3.738 0 0 1-1.13.35c-.302.05-.422.105-.56.249-.155.166-.19.258-.19.51-.001.19.004.222.054.323a.925.925 0 0 0 .37.364c.254.118 1.02 0 1.676-.255 1.846-.722 3.11-2.351 3.339-4.304a6.79 6.79 0 0 0 .008-1.16 5.26 5.26 0 0 0-4.32-4.627l-.152-.025-.013-.226c-.072-1.262-.573-2.531-1.401-3.55a8.13 8.13 0 0 0-.81-.82 6.303 6.303 0 0 0-3.182-1.411c-.293-.043-1.215-.055-1.52-.02Zm.438 10.499a1.22 1.22 0 0 0-.16.082c-.048.03-.678.645-1.4 1.367C8.687 15.752 8.77 15.647 8.77 16c0 .182.006.223.049.31a.899.899 0 0 0 .356.362c.105.053.133.058.325.058.332 0 .326.004 1.105-.768l.654-.65.006 2.949.005 2.949.058.115c.07.137.223.288.362.356.087.043.128.049.31.049s.223-.006.31-.05a.899.899 0 0 0 .362-.355l.058-.115.005-2.95.006-2.947.654.649c.779.772.773.768 1.105.768.192 0 .22-.005.325-.058a.899.899 0 0 0 .356-.362c.043-.087.049-.128.049-.31 0-.352.087-.245-1.45-1.781-1.52-1.521-1.428-1.446-1.76-1.453a.843.843 0 0 0-.262.022Z" clip-rule="evenodd"/>
</svg>
