<svg xmlns="http://www.w3.org/2000/svg" width="24" height="24" fill="none" viewBox="0 0 24 24">
  <path fill="#161C24" fill-rule="evenodd" d="M11.59 3.272c-1.561.123-2.93.747-4.011 1.827a6.005 6.005 0 0 0-1.15 1.59 5.347 5.347 0 0 0-.497 1.338l-.084.336-.3.077a5.746 5.746 0 0 0-3.895 3.45 5.715 5.715 0 0 0-.343 1.27 8.183 8.183 0 0 0-.031 1.373 5.62 5.62 0 0 0 .662 2.197 5.746 5.746 0 0 0 4.496 2.989c.293.029 11.326.029 11.607 0a5.253 5.253 0 0 0 4.112-2.8 5.5 5.5 0 0 0 .537-1.65c.052-.341.052-1.197 0-1.54a5.395 5.395 0 0 0-1.124-2.546 6.513 6.513 0 0 0-.752-.752 5.74 5.74 0 0 0-1.507-.86 7.343 7.343 0 0 0-.952-.252l-.112-.021-.014-.224c-.132-2.12-1.413-4.086-3.312-5.083a6.084 6.084 0 0 0-2.167-.682c-.235-.03-.96-.053-1.163-.037Zm1.089 1.537a4.765 4.765 0 0 1 3.849 3.27c.15.474.217.913.218 1.42 0 1.078-.322 2.022-.995 2.912-.225.297-.241.337-.24.589.002.26.038.352.207.522.171.17.262.207.522.207.174 0 .226-.006.304-.042.121-.056.249-.176.405-.378a6.24 6.24 0 0 0 .922-1.68c.09-.243.229-.726.229-.792 0-.048.015-.047.287.02a3.756 3.756 0 0 1 2.672 2.47 3.723 3.723 0 0 1-.912 3.82 3.71 3.71 0 0 1-2.419 1.094c-.203.014-2.028.019-5.708.014-5.064-.006-5.423-.01-5.62-.042a4.269 4.269 0 0 1-1.27-.403 4.133 4.133 0 0 1-1.931-1.92 4.13 4.13 0 0 1-.41-1.3 5.118 5.118 0 0 1-.001-1.18c.236-1.537 1.216-2.785 2.642-3.36a4.302 4.302 0 0 1 1.842-.29 4.177 4.177 0 0 1 2.144.747c.196.132.312.196.384.213a.988.988 0 0 0 .506-.037.887.887 0 0 0 .366-.358c.053-.106.058-.132.057-.325 0-.25-.035-.344-.181-.5-.11-.117-.464-.361-.778-.537-.637-.355-1.477-.62-2.153-.676a.777.777 0 0 1-.18-.028c-.036-.023.137-.51.305-.85a4.767 4.767 0 0 1 3.714-2.62 6.42 6.42 0 0 1 1.223.02Z" clip-rule="evenodd"/>
</svg>
