<svg xmlns="http://www.w3.org/2000/svg" width="24" height="24" fill="none" viewBox="0 0 24 24">
  <path fill="#161C24" d="M1.25 12.634c0-2.715 1.996-4.945 4.606-5.456C6.402 4.354 8.964 2.25 12 2.25c3.351 0 6.126 2.568 6.244 5.832 2.528.349 4.506 2.448 4.506 5.033 0 2.013-1.204 3.737-2.926 4.562a.751.751 0 0 1-.648-1.354c1.242-.594 2.074-1.816 2.074-3.208 0-1.76-1.342-3.259-3.142-3.538a5.951 5.951 0 0 1-1.296 2.581l-1.138-.975a4.426 4.426 0 0 0 1.076-2.884c0-2.486-2.1-4.549-4.75-4.549-2.201 0-4.026 1.425-4.578 3.332a5.844 5.844 0 0 1 2.836.964l.182.127.06.048a.75.75 0 0 1-.875 1.209l-.064-.042-.275-.183a4.366 4.366 0 0 0-2.493-.634l-.204.015c-2.177.2-3.839 1.957-3.839 4.048 0 1.614.987 3.027 2.443 3.682a.75.75 0 0 1-.544 1.396l-.07-.028-.36-.177c-1.76-.944-2.969-2.764-2.969-4.873Zm15.563-.476a.75.75 0 0 1-1.14-.975l1.14.975Z"/>
  <path fill="#161C24" d="M11.507 20.121a1 1 0 0 1 1.308.293l.054.087.05.1a1 1 0 0 1-1.733.977l-.055-.087-.05-.1a1 1 0 0 1 .426-1.27ZM7.5 18.128a1 1 0 0 1 1.31.282l.055.086.005.008.047.09a1 1 0 0 1-1.725.994l-.055-.086-.004-.008-.047-.092a1 1 0 0 1 .414-1.274Zm9.365.375.047.09a1 1 0 0 1-1.723.995l-.056-.086-.005-.008 1.732-.999.005.008Zm-1.37-.374a1 1 0 0 1 1.365.366l-1.732 1a1 1 0 0 1 .367-1.366Zm-3.99-2.003a1 1 0 0 1 1.309.294l.054.086.05.1a1 1 0 0 1-1.788.891l-.05-.1a1.001 1.001 0 0 1 .426-1.271ZM7.5 14.134a1 1 0 0 1 1.31.281l.055.086.005.008.047.092a1 1 0 0 1-1.725.992l-.055-.086-.004-.008-.047-.092a1 1 0 0 1 .414-1.273Zm7.995 0a1 1 0 0 1 1.31.28l.055.086.005.008.047.092a1 1 0 0 1-1.723.994l-.056-.086-.005-.008-.046-.092a1 1 0 0 1 .413-1.274Z"/>
</svg>
