<svg xmlns="http://www.w3.org/2000/svg" width="24" height="24" fill="none" viewBox="0 0 24 24">
  <path fill="#161C24" d="M8.33 18.665a.75.75 0 0 1 1.34.67l-1 2a.75.75 0 0 1-1.34-.67l1-2Zm4.5 0a.75.75 0 0 1 1.34.67l-1 2a.75.75 0 0 1-1.34-.67l1-2Zm-5.463-4.067a.75.75 0 0 1 1.334.667l-.03.07-1 2a.75.75 0 0 1-1.342-.67l1-2 .038-.067Zm4.5 0a.75.75 0 0 1 1.334.667l-.03.07-1 2a.75.75 0 0 1-1.342-.67l1-2 .038-.067Zm4.5 0a.75.75 0 0 1 1.334.667l-.03.07-1 2a.75.75 0 0 1-1.342-.67l1-2 .038-.067Z"/>
  <path fill="#161C24" d="M1.25 12.83c0-2.75 1.985-5.029 4.604-5.552C6.393 4.408 8.949 2.25 12 2.25c3.37 0 6.134 2.634 6.244 5.95 2.538.356 4.506 2.503 4.506 5.121 0 1.8-.933 3.382-2.338 4.306a.75.75 0 0 1-.824-1.254 3.65 3.65 0 0 0 1.662-3.052c0-1.815-1.35-3.338-3.139-3.625a6.098 6.098 0 0 1-1.294 2.633.75.75 0 0 1-1.148-.965 4.585 4.585 0 0 0 1.081-2.958c0-2.56-2.114-4.656-4.75-4.656-2.199 0-4.037 1.46-4.584 3.43a5.777 5.777 0 0 1 2.847.985l.183.13.06.049a.75.75 0 0 1-.887 1.2l-.064-.043-.275-.187a4.29 4.29 0 0 0-2.486-.644l-.204.014c-2.165.202-3.84 1.992-3.84 4.146 0 1.272.581 2.414 1.506 3.18l.19.148.059.049a.75.75 0 0 1-.887 1.2l-.063-.042-.256-.2A5.62 5.62 0 0 1 1.25 12.83Z"/>
</svg>
