<svg xmlns="http://www.w3.org/2000/svg" width="24" height="24" fill="none" viewBox="0 0 24 24">
  <path fill="#161C24" d="M1.25 12.685c0-2.725 1.994-4.968 4.606-5.482C6.401 4.368 8.96 2.25 12 2.25c3.356 0 6.128 2.585 6.244 5.862 2.53.35 4.506 2.463 4.506 5.057 0 2.65-2.063 4.798-4.67 5.077a.75.75 0 0 1-.16-1.492c1.892-.203 3.33-1.749 3.33-3.585 0-1.775-1.344-3.28-3.14-3.562a5.992 5.992 0 0 1-1.296 2.596l-.57-.487-.572-.486a4.468 4.468 0 0 0 1.058-2.489l.015-.206a4.82 4.82 0 0 0 .005-.209c0-2.505-2.104-4.576-4.75-4.576-2.2 0-4.028 1.434-4.58 3.357a5.827 5.827 0 0 1 2.839.97l.182.127.061.048a.751.751 0 0 1-.879 1.207l-.063-.042-.275-.184a4.346 4.346 0 0 0-2.492-.636l-.204.014c-2.174.2-3.839 1.967-3.839 4.074 0 1.912 1.364 3.59 3.214 4.04l.18.039.075.018a.75.75 0 0 1-.287 1.465l-.077-.01-.244-.054c-2.501-.608-4.36-2.872-4.361-5.498Zm15.564-.482a.75.75 0 0 1-1.142-.973l1.142.973Z"/>
  <path fill="#161C24" d="M11.25 21v-1.676l-1.364.82a.75.75 0 0 1-.772-1.288L10.541 18l-1.427-.856-.063-.043a.75.75 0 0 1 .767-1.28l.068.035 1.364.819V15a.75.75 0 0 1 1.5 0v1.675l1.364-.819a.75.75 0 0 1 .771 1.288L13.459 18l1.428.856.063.043a.75.75 0 0 1-.768 1.28l-.067-.035-1.364-.82V21a.75.75 0 0 1-1.5 0Z"/>
</svg>
