<svg xmlns="http://www.w3.org/2000/svg" width="24" height="24" fill="none" viewBox="0 0 24 24">
  <path fill="#161C24" d="M1.25 13.016a5.757 5.757 0 0 1 4.603-5.643A6.254 6.254 0 0 1 12 2.25a6.252 6.252 0 0 1 6.245 6.062 5.256 5.256 0 0 1 4.505 5.204 5.255 5.255 0 0 1-4.72 5.23.75.75 0 0 1-.15-1.492 3.755 3.755 0 0 0 3.37-3.738 3.755 3.755 0 0 0-3.137-3.706 6.243 6.243 0 0 1-1.292 2.681.75.75 0 0 1-1.157-.955A4.738 4.738 0 0 0 16.75 8.51 4.755 4.755 0 0 0 12 3.75a4.754 4.754 0 0 0-4.588 3.522 5.718 5.718 0 0 1 2.857 1.005l.182.133.06.049a.75.75 0 0 1-.898 1.192l-.063-.043-.275-.19a4.222 4.222 0 0 0-2.481-.655l-.202.014a4.255 4.255 0 0 0-3.842 4.239c0 2.008 1.384 3.746 3.22 4.209l.18.04.074.02a.75.75 0 0 1-.297 1.461l-.076-.01-.246-.056c-2.514-.632-4.355-2.98-4.355-5.664Z"/>
  <path fill="#161C24" d="M13.75 18.503c0-.145-.053-.351-.198-.623a5.015 5.015 0 0 0-.597-.846 13.48 13.48 0 0 0-.955-.996 13.48 13.48 0 0 0-.955.996 5.015 5.015 0 0 0-.597.846c-.145.272-.198.478-.198.623 0 .88.671 1.747 1.75 1.747s1.75-.867 1.75-1.747Zm1.5 0c0 1.581-1.222 3.247-3.25 3.247s-3.25-1.666-3.25-3.247c0-.483.167-.938.375-1.328.21-.396.49-.772.775-1.11.565-.667 1.236-1.272 1.579-1.604l.116-.092a.75.75 0 0 1 .926.092c.343.332 1.014.937 1.579 1.604.285.338.564.714.775 1.11.208.39.375.845.375 1.328Z"/>
</svg>
