<svg xmlns="http://www.w3.org/2000/svg" width="24" height="24" fill="none" viewBox="0 0 24 24">
  <path fill="#161C24" fill-rule="evenodd" d="M12 21.875a1 1 0 0 0 1-1v-4h1.5a1 1 0 0 0 .707-1.707l-2.5-2.5a1 1 0 0 0-1.414 0l-2.5 2.5a1 1 0 0 0 .707 1.707H11v4a1 1 0 0 0 1 1Z" clip-rule="evenodd"/>
  <path fill="#161C24" d="M1.25 12.893A5.759 5.759 0 0 1 5.853 7.25 6.254 6.254 0 0 1 12 2.125a6.255 6.255 0 0 1 6.247 6.064 5.257 5.257 0 0 1 4.503 5.205 5.256 5.256 0 0 1-4.667 5.226.736.736 0 0 1-.083.005h-3v-.3a2.5 2.5 0 0 0 1.268-4.218l-2.5-2.5a2.5 2.5 0 0 0-3.536 0l-2.5 2.5A2.5 2.5 0 0 0 9 18.325v.3H6a.75.75 0 0 1-.15-.015c-2.638-.537-4.6-2.944-4.6-5.717Z"/>
</svg>
