<svg xmlns="http://www.w3.org/2000/svg" width="24" height="24" fill="none" viewBox="0 0 24 24">
  <path fill="#161C24" fill-rule="evenodd" d="M11.075 1.788c-.263.097-.613.407-.906.803a4.943 4.943 0 0 0-.748 1.594 4.031 4.031 0 0 0-.15 1.135c-.001.375 0 .394.048.49a.899.899 0 0 0 .356.362c.105.053.133.058.325.058.182 0 .223-.006.31-.05.195-.095.365-.295.408-.482.012-.048.03-.23.04-.404.025-.365.075-.637.174-.934.179-.536.458-.977.775-1.224.248-.193.34-.367.342-.646a.498.498 0 0 0-.062-.29.699.699 0 0 0-.342-.364.57.57 0 0 0-.314-.071.787.787 0 0 0-.256.023ZM7.264 3.302a.843.843 0 0 0-.235.162c-.482.45-.792 1.273-.766 2.03.006.19.014.23.066.33a.89.89 0 0 0 .36.357c.088.043.129.049.31.049.249 0 .346-.037.513-.194.163-.154.207-.263.239-.6.04-.415.12-.654.289-.866.135-.17.197-.276.222-.377a1.002 1.002 0 0 0-.037-.498.902.902 0 0 0-.36-.366c-.097-.05-.14-.06-.304-.064-.156-.004-.21.003-.297.037Zm6.486-.011c-.33.124-.612.504-.8 1.074a2.996 2.996 0 0 0-.18 1.035c0 .304 0 .312.058.425.07.137.223.288.362.356.087.043.128.049.31.049.248 0 .345-.037.512-.194.16-.15.206-.264.238-.58.046-.462.148-.793.289-.94a.906.906 0 0 0 .137-.196c.048-.098.054-.132.054-.32 0-.198-.004-.217-.065-.334a.776.776 0 0 0-.344-.341c-.092-.045-.141-.055-.3-.06a.746.746 0 0 0-.271.026ZM2.64 7.79a1.776 1.776 0 0 0-1.242 1.057c-.122.317-.138.539-.098 1.392.118 2.502.394 4.397.89 6.1.57 1.96 1.495 3.702 2.675 5.044.397.452.939.74 1.569.834.099.015 1.218.022 3.57.022 2.924 0 3.452-.004 3.606-.03a2.532 2.532 0 0 0 1.525-.826c.436-.495.88-1.112 1.266-1.754.093-.154.3-.541.46-.86l.29-.58.23-.042c1.583-.302 2.942-1.137 3.867-2.377.639-.856 1.055-1.837 1.3-3.071.24-1.204.215-1.704-.11-2.183-.305-.45-.747-.677-1.424-.735a26.295 26.295 0 0 0-1.275-.022h-1.02v-.228c0-.54-.172-.952-.545-1.304a1.693 1.693 0 0 0-.654-.392l-.19-.066-7.28-.003c-6.192-.003-7.3 0-7.41.024Zm14.404 1.47a.3.3 0 0 1 .125.08c.048.059.05.074.05.296 0 .558-.094 1.95-.19 2.823-.381 3.443-1.318 5.936-2.95 7.852-.241.283-.434.39-.767.429-.215.025-6.455.024-6.645-.001a1.135 1.135 0 0 1-.481-.17c-.18-.12-.606-.647-.995-1.23-1.2-1.797-1.9-3.968-2.22-6.88a35.123 35.123 0 0 1-.193-2.817c-.003-.256.016-.303.143-.368.065-.033.444-.035 7.059-.035 4.706 0 7.014.007 7.064.02Zm3.586 1.999c.536.025.59.046.59.219 0 .248-.166 1.128-.3 1.593-.425 1.482-1.26 2.535-2.501 3.159-.181.09-.61.269-.647.269-.004 0 .024-.106.06-.235.37-1.273.635-2.836.779-4.595.018-.22.037-.406.042-.415.013-.021 1.51-.017 1.977.005Z" clip-rule="evenodd"/>
</svg>
