<svg xmlns="http://www.w3.org/2000/svg" width="24" height="24" fill="none" viewBox="0 0 24 24">
  <path fill="#161C24" fill-rule="evenodd" d="M7.6 1.772c-2.47.136-4.323.666-5.258 1.504-.262.234-.49.606-.553.894-.044.21-.044 12.447.001 12.66.066.315.336.734.646 1.001.752.648 2.028 1.131 3.6 1.361.414.06.622.058.77-.007a.922.922 0 0 0 .37-.363c.048-.101.054-.133.054-.322 0-.192-.005-.22-.058-.325a.878.878 0 0 0-.366-.357 2.106 2.106 0 0 0-.366-.08c-1.077-.156-1.839-.366-2.466-.681-.305-.153-.588-.359-.683-.496l-.05-.073v-1.046c0-.988.001-1.046.034-1.036.02.006.152.062.295.125.651.286 1.528.52 2.48.66.57.084.738.057.96-.153a.894.894 0 0 0 .165-.216c.05-.101.055-.133.055-.322 0-.192-.005-.22-.058-.325a.878.878 0 0 0-.366-.357 3.254 3.254 0 0 0-.486-.099c-1.082-.163-1.942-.416-2.525-.742-.19-.107-.417-.28-.488-.373l-.057-.074-.006-1.068c-.006-1.021-.005-1.067.03-1.056.02.006.153.062.296.125.651.286 1.528.52 2.48.66.57.084.738.057.96-.153a.894.894 0 0 0 .165-.216c.05-.101.055-.133.055-.322 0-.192-.005-.22-.058-.325a.878.878 0 0 0-.366-.357 3.254 3.254 0 0 0-.486-.099c-1.082-.163-1.942-.416-2.525-.742-.19-.107-.417-.28-.488-.373L3.25 8.53l-.006-1.108c-.005-.904 0-1.105.02-1.096l.216.094c.692.304 1.77.567 2.86.698.801.097 1.082.111 2.16.111s1.36-.014 2.16-.111c1.54-.185 2.845-.582 3.62-1.1.391-.262.644-.532.811-.868.108-.215.148-.394.148-.65s-.04-.435-.148-.65a1.87 1.87 0 0 0-.468-.603c-.867-.758-2.433-1.24-4.673-1.439a37.426 37.426 0 0 0-2.35-.036ZM9.005 3.26c.596.02 1.057.054 1.505.111 1.485.19 2.682.577 3.138 1.014.05.048.092.1.092.116 0 .015-.046.07-.102.123-.459.431-1.66.817-3.128 1.005a17 17 0 0 1-4.45-.061c-1.17-.182-2.185-.524-2.639-.892-.2-.162-.2-.19 0-.352.701-.568 2.517-.998 4.48-1.062.258-.009.478-.017.49-.019.01-.001.287.006.614.017ZM14.6 8.772c-2.47.136-4.323.666-5.258 1.504-.177.158-.32.348-.433.574-.16.322-.149-.039-.149 4.65.001 4.685-.01 4.33.15 4.65.12.24.26.422.467.603.766.67 2.152 1.147 3.963 1.365.801.097 1.082.111 2.16.111s1.36-.014 2.16-.111c1.54-.185 2.845-.582 3.62-1.1.391-.262.644-.532.811-.868.16-.32.148.035.15-4.65 0-4.689.011-4.328-.15-4.65a1.87 1.87 0 0 0-.468-.603c-.867-.758-2.433-1.24-4.673-1.439a37.426 37.426 0 0 0-2.35-.036Zm1.405 1.488c.596.02 1.057.054 1.505.111 1.485.19 2.682.577 3.138 1.014.05.048.092.1.092.116 0 .015-.046.07-.102.123-.459.431-1.66.817-3.128 1.005-1.22.156-2.8.156-4.02 0-1.409-.181-2.553-.536-3.069-.953-.2-.162-.2-.19 0-.352.701-.568 2.517-.998 4.48-1.062.258-.009.478-.017.49-.019.01-.001.287.006.614.017Zm-5.525 3.16c.692.304 1.77.567 2.86.698.801.097 1.082.111 2.16.111s1.36-.014 2.16-.111c1.091-.131 2.168-.394 2.86-.698l.215-.094c.02-.008.025.205.025 1.027a20.3 20.3 0 0 1-.019 1.117c-.033.144-.313.35-.727.535-1.574.704-4.518.942-6.954.563-.947-.147-1.87-.423-2.369-.709-.17-.098-.379-.26-.416-.325-.037-.065-.048-2.224-.01-2.208l.215.094Zm0 4c.692.304 1.77.567 2.86.698.801.097 1.082.111 2.16.111s1.36-.014 2.16-.111c1.091-.131 2.168-.394 2.86-.698l.215-.094c.04-.017.036 2.115-.004 2.192-.07.135-.41.359-.789.519-1.617.683-4.484.904-6.882.531-.947-.147-1.87-.423-2.369-.709-.188-.108-.382-.263-.42-.339-.027-.049-.03-.215-.03-1.131 0-.851.004-1.071.024-1.063l.215.094Z" clip-rule="evenodd"/>
</svg>
