<svg xmlns="http://www.w3.org/2000/svg" width="24" height="24" fill="none" viewBox="0 0 24 24">
  <path fill="#161C24" fill-rule="evenodd" d="M22 14.208V11c0-.714-.435-1.235-.852-1.564-.43-.338-.988-.599-1.59-.799C18.347 8.233 16.735 8 15 8s-3.346.233-4.559.637c-.601.2-1.16.461-1.588.8C8.435 9.764 8 10.286 8 11v3.17c.048.159.173.346.441.56.372.296.939.574 1.661.81 1.438.47 3.3.711 4.898.711 1.597 0 3.463-.24 4.904-.708.725-.235 1.293-.513 1.666-.81.248-.198.374-.373.43-.525Zm-10.926-2.742c-.477-.16-.795-.327-.975-.466.18-.14.498-.307.975-.466C12.033 10.214 13.42 10 15 10s2.968.215 3.926.534c.477.16.795.327.975.466-.18.14-.498.307-.975.466-.958.32-2.347.534-3.926.534-1.58 0-2.967-.215-3.926-.534Z" clip-rule="evenodd"/>
  <path fill="#161C24" d="M22 16.254a8.01 8.01 0 0 1-1.632.716c-1.624.527-3.652.781-5.368.781-1.717 0-3.742-.256-5.363-.785A7.986 7.986 0 0 1 8 16.244V19c0 .714.435 1.235.853 1.564.428.338.987.599 1.588.799 1.213.404 2.825.637 4.559.637s3.346-.233 4.559-.637c.601-.2 1.16-.461 1.588-.8.418-.328.853-.85.853-1.563v-2.746Z"/>
  <path fill="#161C24" fill-rule="evenodd" d="M15 6.5V4c0-.714-.435-1.235-.852-1.564-.43-.338-.988-.599-1.59-.799C11.347 1.233 9.735 1 8 1s-3.346.233-4.559.637c-.601.2-1.16.461-1.588.8C1.435 2.764 1 3.286 1 4v3.503c.04.062.134.18.359.346.353.26.884.528 1.533.77 1.277.477 2.845.793 4.021.803a3.992 3.992 0 0 1 1.011-1.164c.617-.486 1.354-.814 2.043-1.044C11.37 6.746 13.149 6.5 15 6.5ZM4.074 4.466c-.477-.16-.795-.327-.975-.466.18-.14.498-.307.975-.466C5.032 3.214 6.42 3 8 3s2.967.215 3.926.534c.477.16.795.327.975.466-.18.14-.498.307-.975.466C10.967 4.786 9.58 5 8 5s-2.968-.215-3.926-.534Z" clip-rule="evenodd"/>
  <path fill="#161C24" d="M1 12.295V9.4c.41.234.879.443 1.367.626 1.277.476 2.826.816 4.134.884L6.5 11v2.92a15.05 15.05 0 0 1-3.658-.693c-.662-.218-1.203-.462-1.562-.705a1.757 1.757 0 0 1-.28-.227Zm0 1.797V16c0 .714.435 1.235.853 1.564.428.338.987.599 1.588.799.854.285 1.906.484 3.059.578v-3.52a16.498 16.498 0 0 1-4.127-.769A9.65 9.65 0 0 1 1 14.092Z"/>
</svg>
