<svg xmlns="http://www.w3.org/2000/svg" width="24" height="24" fill="none" viewBox="0 0 24 24">
  <path fill="#161C24" fill-rule="evenodd" d="M1 5a4 4 0 0 1 4-4h14a4 4 0 0 1 4 4v10a4 4 0 0 1-4 4H5a4 4 0 0 1-4-4V5Zm4-2a2 2 0 0 0-2 2v10a2 2 0 0 0 2 2h14a2 2 0 0 0 2-2V5a2 2 0 0 0-2-2H5Z" clip-rule="evenodd"/>
  <path fill="#161C24" fill-rule="evenodd" d="M10 15a1 1 0 0 1 1-1h2a1 1 0 1 1 0 2h-2a1 1 0 0 1-1-1Zm-4 7a1 1 0 0 1 1-1h10a1 1 0 1 1 0 2H7a1 1 0 0 1-1-1Z" clip-rule="evenodd"/>
  <path fill="#161C24" d="M9.049 22.599a.75.75 0 0 1-.148-1.05l.315-.42c.543-.72.703-1.888.335-2.865a.75.75 0 0 1 .438-.966h4.022a.75.75 0 0 1 .438.966c-.368.977-.208 2.145.335 2.866l.315.419a.75.75 0 0 1-.148 1.05H9.05Z"/>
</svg>
