<svg xmlns="http://www.w3.org/2000/svg" width="24" height="24" fill="none" viewBox="0 0 24 24">
  <path fill="#161C24" fill-rule="evenodd" d="M4.51 1.282A3.783 3.783 0 0 0 1.795 3.06a4.1 4.1 0 0 0-.443 1.07c-.095.384-.092.185-.092 5.87 0 4.721.004 5.349.03 5.537a3.77 3.77 0 0 0 1.77 2.668c.328.203.814.394 1.18.464.093.018.188.039.21.046.022.008 1.21.018 2.64.024l2.6.011.026.14c.042.228.035.779-.013 1.052a2.831 2.831 0 0 1-.462 1.152l-.112.156-1.17.01-1.17.01-.114.058a.899.899 0 0 0-.356.362c-.043.087-.05.128-.05.31s.007.223.05.31a.811.811 0 0 0 .475.408c.12.033 10.292.033 10.412 0a.811.811 0 0 0 .475-.408c.043-.087.049-.128.049-.31s-.006-.223-.05-.31a.899.899 0 0 0-.355-.362l-.115-.058-1.17-.01-1.17-.01-.114-.16a2.785 2.785 0 0 1-.46-1.148c-.047-.273-.054-.824-.012-1.052l.026-.14 2.6-.011 2.6-.01.24-.054a4.047 4.047 0 0 0 1.19-.47 3.766 3.766 0 0 0 1.769-2.675c.029-.197.032-.777.026-5.63l-.006-5.41-.054-.241a4.042 4.042 0 0 0-.47-1.189 3.773 3.773 0 0 0-2.668-1.769c-.19-.028-.997-.031-7.56-.029-4.041.002-7.401.011-7.467.02Zm14.909 1.504c.963.218 1.63.906 1.804 1.854.04.223.04 10.497 0 10.72a2.276 2.276 0 0 1-1.863 1.863c-.224.04-14.496.04-14.72 0-.957-.174-1.664-.872-1.863-1.838-.033-.158-.05-10.15-.018-10.539a2.205 2.205 0 0 1 .653-1.434c.37-.37.864-.605 1.368-.65a855.7 855.7 0 0 1 7.34-.013c6.642.003 7.16.005 7.299.037Zm-8.661 11.503a.853.853 0 0 0-.44.401c-.042.087-.048.127-.048.31 0 .192.005.22.058.325.07.137.223.288.362.356l.1.049h2.42l.115-.058a.899.899 0 0 0 .356-.362c.043-.087.049-.128.049-.31s-.006-.223-.05-.31a.899.899 0 0 0-.355-.362l-.115-.058-1.19-.004c-.955-.003-1.204.002-1.262.023Zm2.012 5.036c0 .47.007.626.036.795.052.309.144.661.234.902.044.117.08.219.08.225 0 .007-.504.013-1.12.013-.616 0-1.12-.006-1.12-.013 0-.006.036-.108.08-.225.09-.241.182-.593.234-.902.029-.169.036-.325.036-.795v-.585h1.54v.585Z" clip-rule="evenodd"/>
</svg>
