<svg xmlns="http://www.w3.org/2000/svg" width="24" height="24" fill="none" viewBox="0 0 24 24">
  <path fill="#161C24" fill-rule="evenodd" d="M11 9.751c-.69 0-1.25.56-1.25 1.25v9c0 .69.56 1.25 1.25 1.25h9c.69 0 1.25-.56 1.25-1.25v-8.993c0-.69-.56-1.25-1.25-1.25l-9-.007Zm-2.75 1.25a2.75 2.75 0 0 1 2.752-2.75l9 .007a2.75 2.75 0 0 1 2.748 2.75V20A2.75 2.75 0 0 1 20 22.75h-9A2.75 2.75 0 0 1 8.25 20v-8.998Z" clip-rule="evenodd"/>
  <path fill="#161C24" fill-rule="evenodd" d="M1.25 4.001a2.75 2.75 0 0 1 2.752-2.75l11 .008a2.75 2.75 0 0 1 2.748 2.75v4.42h-1.5v-4.42c0-.69-.56-1.25-1.25-1.25L4 2.751c-.69 0-1.25.56-1.25 1.25v11c0 .69.56 1.25 1.25 1.25h4.429v1.5H4A2.75 2.75 0 0 1 1.25 15V4Z" clip-rule="evenodd"/>
</svg>
