<svg xmlns="http://www.w3.org/2000/svg" width="24" height="24" fill="none" viewBox="0 0 24 24">
  <path fill="#161C24" fill-rule="evenodd" d="M5.54 1.292a3.001 3.001 0 0 0-1.064.422A2.762 2.762 0 0 0 3.29 3.567c-.028.163-.03 1.165-.026 9.163l.006 8.98.058.115c.07.137.223.288.362.356.087.043.127.049.314.049h.214l1.872-.935 1.873-.936 1.861 1.163c1.053.659 1.901 1.175 1.952 1.191a.969.969 0 0 0 .448 0c.051-.016.9-.532 1.952-1.191l1.861-1.163 1.873.936 1.872.935.214-.001c.193 0 .225-.005.325-.055a.854.854 0 0 0 .353-.354l.056-.11.006-8.98c.006-9.822.014-9.102-.107-9.523a3.394 3.394 0 0 0-.343-.731 2.767 2.767 0 0 0-1.84-1.185c-.156-.027-.899-.031-6.466-.029-5.219.002-6.315.007-6.44.03Zm12.78 1.493c.44.136.758.454.895.895.032.103.035.646.04 8.355.003 4.535.001 8.245-.004 8.245-.006 0-.689-.339-1.519-.753l-1.508-.754-.169-.009a.846.846 0 0 0-.269.02c-.065.019-.745.433-1.943 1.182L12 21.117l-1.843-1.151c-1.198-.749-1.878-1.163-1.943-1.182a.846.846 0 0 0-.269-.02l-.169.009-1.508.754c-.83.414-1.513.753-1.519.753-.005 0-.007-3.71-.004-8.245.005-7.709.008-8.252.04-8.355.07-.227.174-.402.333-.56.213-.211.443-.326.722-.359.072-.009 2.884-.015 6.25-.013 5.704.003 6.127.005 6.23.037ZM8.738 7.037c-.627.163-.932.916-.597 1.472a1.007 1.007 0 0 0 1.566.199A.92.92 0 0 0 10 8a.92.92 0 0 0-.293-.708 1.005 1.005 0 0 0-.969-.255Zm6.02.251a1.22 1.22 0 0 0-.16.082c-.048.03-1.466 1.432-3.149 3.117C7.97 13.967 8.27 13.636 8.27 14c0 .192.005.22.058.325.07.137.223.288.362.356.087.043.128.049.31.049.364 0 .03.303 3.531-3.199 3.502-3.501 3.2-3.167 3.2-3.531 0-.182-.007-.223-.05-.31a.899.899 0 0 0-.356-.362c-.1-.05-.14-.059-.305-.062a.843.843 0 0 0-.262.022Zm.022 5.734a1.095 1.095 0 0 0-.487.27A.92.92 0 0 0 14 14a.92.92 0 0 0 .293.708.987.987 0 0 0 .854.276.919.919 0 0 0 .555-.282.936.936 0 0 0 .281-.547c.107-.696-.502-1.269-1.203-1.133Z" clip-rule="evenodd"/>
</svg>
