<svg xmlns="http://www.w3.org/2000/svg" width="24" height="24" fill="none" viewBox="0 0 24 24">
  <path fill="#161C24" fill-rule="evenodd" d="M1.25 6A2.75 2.75 0 0 1 4 3.25h16A2.75 2.75 0 0 1 22.75 6v3.5a.75.75 0 0 1-.75.75 1.75 1.75 0 1 0 0 3.5.75.75 0 0 1 .75.75V18A2.75 2.75 0 0 1 20 20.75H4A2.75 2.75 0 0 1 1.25 18v-3.5a.75.75 0 0 1 .75-.75 1.75 1.75 0 1 0 0-3.5.75.75 0 0 1-.75-.75V6Zm13.957 4.207-5 5a1 1 0 0 1-1.414-1.414l5-5a1 1 0 1 1 1.414 1.414ZM9.507 8.5H9.5a1 1 0 0 0 0 2h.007a1 1 0 0 0 0-2Zm4.993 5h-.008a1 1 0 1 0 0 2h.008a1 1 0 0 0 0-2Z" clip-rule="evenodd"/>
</svg>
