<svg xmlns="http://www.w3.org/2000/svg" width="24" height="24" fill="none" viewBox="0 0 24 24">
  <path fill="#161C24" fill-rule="evenodd" d="M3.54 2.292a3.001 3.001 0 0 0-1.064.422A2.767 2.767 0 0 0 1.29 4.555c-.027.155-.031.902-.031 6.445 0 6.842-.007 6.38.11 6.795.057.194.224.55.347.735a2.776 2.776 0 0 0 1.85 1.181c.16.027.63.03 3.913.025l3.73-.006.115-.058a.899.899 0 0 0 .356-.362c.043-.087.049-.128.049-.31s-.006-.223-.05-.31a.899.899 0 0 0-.355-.362l-.115-.058-3.71-.011c-3.406-.01-3.72-.013-3.82-.044a1.301 1.301 0 0 1-.797-.659c-.143-.301-.133.052-.133-4.596V8.75h18.5l.01.48.01.48.058.115c.07.137.223.288.362.356.087.043.128.049.31.049s.223-.006.31-.049a.899.899 0 0 0 .362-.356l.058-.115.006-2.48c.006-2.7.009-2.619-.107-3.023a3.394 3.394 0 0 0-.343-.731 2.767 2.767 0 0 0-1.841-1.185c-.155-.027-1.101-.031-8.465-.029-6.908.002-8.315.007-8.44.03Zm16.78 1.493c.357.111.652.354.797.659.136.285.133.254.133 1.596v1.21H2.75V6.04c0-.949.006-1.234.027-1.32a1.275 1.275 0 0 1 1.063-.959c.07-.009 3.784-.015 8.25-.013 7.596.002 8.127.005 8.23.037Zm-.054 8.503a.7.7 0 0 0-.314.212c-.147.157-.181.251-.181.501-.001.268.007.285.407.816.166.221.302.411.302.422 0 .014-.937.022-2.845.026l-2.845.005-.1.049a.899.899 0 0 0-.362.356l-.058.115v1.42l.058.115c.07.137.223.288.362.356.087.043.128.049.31.049.192 0 .22-.005.325-.058a.89.89 0 0 0 .355-.362c.04-.082.05-.142.059-.33l.01-.23 3.23-.01 3.23-.01.1-.049a.899.899 0 0 0 .363-.356c.053-.105.058-.133.058-.325 0-.188-.006-.221-.053-.312-.073-.143-1.591-2.161-1.695-2.254-.131-.118-.243-.159-.452-.167a.854.854 0 0 0-.264.021Zm1.492 5a.856.856 0 0 0-.44.402c-.04.083-.05.139-.058.33l-.01.23-3.23.01-3.23.01-.115.058a.899.899 0 0 0-.356.362c-.043.087-.05.128-.05.31 0 .188.007.221.054.312.073.143 1.59 2.161 1.695 2.254.144.13.24.163.482.163.175.001.226-.006.305-.043a.925.925 0 0 0 .37-.364c.049-.101.055-.133.055-.323 0-.268-.01-.285-.408-.816a5.978 5.978 0 0 1-.302-.422c0-.014.943-.022 2.845-.026l2.845-.005.115-.058a.899.899 0 0 0 .356-.362l.049-.1v-1.42l-.05-.1a.894.894 0 0 0-.354-.361c-.1-.05-.14-.059-.305-.063a.785.785 0 0 0-.263.022Z" clip-rule="evenodd"/>
</svg>
