<svg xmlns="http://www.w3.org/2000/svg" width="24" height="24" fill="none" viewBox="0 0 24 24">
  <path fill="#161C24" fill-rule="evenodd" d="M1.758 1.288a.856.856 0 0 0-.44.402c-.042.087-.048.127-.048.31 0 .329.002.332.713 1.05l.594.6-.113.073c-.26.167-.561.47-.75.753a3.402 3.402 0 0 0-.343.729C1.253 5.62 1.26 5.158 1.26 12s-.007 6.38.11 6.795c.057.194.224.55.347.735a2.777 2.777 0 0 0 1.838 1.179c.155.027 1.075.031 8.144.031h7.969l.94.936c1.1 1.092 1.049 1.054 1.392 1.054.192 0 .22-.005.325-.058a.899.899 0 0 0 .356-.362c.043-.087.049-.128.049-.31 0-.192-.005-.221-.06-.33-.051-.107-1.114-1.176-10.14-10.201C3.507 2.444 2.438 1.381 2.33 1.329c-.104-.051-.146-.06-.31-.063a.843.843 0 0 0-.262.022Zm6 2.001a.845.845 0 0 0-.44.401c-.042.087-.048.127-.048.31 0 .192.005.22.058.325.07.137.223.288.362.356l.1.049 6.21.01c5.77.01 6.218.013 6.32.045.357.11.652.354.797.659.136.285.133.254.133 1.596v1.21l-4.23.01-4.23.01-.111.054a.856.856 0 0 0-.355.355c-.048.099-.054.133-.054.321 0 .189.006.221.055.322a.925.925 0 0 0 .37.364l.095.044 4.23.01 4.23.01.01 4.23.01 4.23.049.1a.899.899 0 0 0 .356.362c.105.053.133.058.325.058s.22-.005.325-.058a.899.899 0 0 0 .356-.362l.049-.1.006-6.23c.006-6.808.013-6.355-.107-6.773a3.394 3.394 0 0 0-.343-.731 2.767 2.767 0 0 0-1.841-1.185c-.155-.027-.893-.031-6.395-.03-5.121.002-6.233.007-6.292.028ZM5.45 6.52l1.74 1.74-2.22-.005-2.22-.005V7.04c0-1.343-.003-1.311.134-1.598.133-.28.396-.513.702-.623.057-.021.109-.038.114-.038.006-.001.793.782 1.75 1.739Zm7.98 7.98 4.76 4.76-7.2-.005c-6.721-.005-7.207-.008-7.31-.04a1.323 1.323 0 0 1-.895-.895c-.031-.102-.034-.428-.04-4.319-.003-2.316-.001-4.221.004-4.235.008-.021.582-.026 2.965-.026H8.67l4.76 4.76Z" clip-rule="evenodd"/>
</svg>
