<svg xmlns="http://www.w3.org/2000/svg" width="24" height="24" fill="none" viewBox="0 0 24 24">
  <path fill="#161C24" fill-rule="evenodd" d="M3.54 3.292a3.001 3.001 0 0 0-1.064.422A2.767 2.767 0 0 0 1.29 5.555c-.027.155-.031.902-.031 6.445 0 6.842-.007 6.38.11 6.795.057.194.224.55.347.735a2.778 2.778 0 0 0 1.85 1.181c.162.027.707.03 4.663.025l4.48-.006.115-.058a.899.899 0 0 0 .356-.362c.043-.087.049-.128.049-.31s-.006-.223-.05-.31a.899.899 0 0 0-.355-.362l-.115-.058-4.46-.011c-4.116-.009-4.468-.013-4.57-.044-.356-.11-.652-.354-.797-.659-.143-.301-.133.052-.133-4.596V9.75h18.5l.01.73.01.73.058.115c.07.137.223.288.362.356.087.043.128.049.31.049s.223-.006.31-.049a.899.899 0 0 0 .362-.356l.058-.115.006-2.73c.006-2.973.009-2.867-.107-3.273a3.394 3.394 0 0 0-.343-.731 2.767 2.767 0 0 0-1.841-1.185c-.155-.027-1.101-.031-8.465-.029-6.908.002-8.315.007-8.44.03Zm16.78 1.493c.357.111.652.354.797.659.136.285.133.254.133 1.596v1.21H2.75V7.04c0-.949.006-1.234.027-1.32a1.275 1.275 0 0 1 1.063-.959c.07-.009 3.784-.015 8.25-.013 7.596.002 8.127.005 8.23.037Zm-4.562 8.503a.856.856 0 0 0-.44.402c-.042.087-.048.127-.048.31 0 .35-.08.252 1.388 1.725L17.928 17l-1.27 1.275C15.19 19.748 15.27 19.65 15.27 20c0 .192.005.22.058.325.07.137.223.288.362.356.087.043.128.049.31.049.35 0 .252.079 1.725-1.388L19 18.071l1.275 1.271C21.748 20.809 21.65 20.73 22 20.73c.182 0 .223-.006.31-.049a.899.899 0 0 0 .362-.356c.053-.105.058-.133.058-.325 0-.35.079-.252-1.388-1.725L20.07 17l1.27-1.275c1.47-1.473 1.39-1.375 1.39-1.725 0-.192-.005-.22-.058-.325a.899.899 0 0 0-.362-.356c-.087-.043-.128-.049-.31-.049-.35 0-.252-.079-1.725 1.388L19 15.929l-1.275-1.271c-1.457-1.451-1.374-1.383-1.704-1.392a.785.785 0 0 0-.263.022Z" clip-rule="evenodd"/>
</svg>
