<svg xmlns="http://www.w3.org/2000/svg" width="24" height="24" fill="none" viewBox="0 0 24 24">
  <path fill="#161C24" fill-rule="evenodd" d="M3.54 3.292a3.001 3.001 0 0 0-1.064.422 2.768 2.768 0 0 0-1.188 1.851c-.03.169-.032.724-.03 6.445.003 6.82-.004 6.373.113 6.785.056.194.223.55.346.735a2.777 2.777 0 0 0 1.838 1.179c.155.027 1.104.031 8.435.031 8.994 0 8.39.007 8.8-.11a3.42 3.42 0 0 0 .74-.347 2.776 2.776 0 0 0 1.179-1.838c.026-.153.03-.953.033-6.435.003-6.875.01-6.37-.113-6.805a3.425 3.425 0 0 0-.343-.729 2.767 2.767 0 0 0-1.841-1.185c-.155-.027-1.101-.031-8.465-.029-6.908.002-8.315.007-8.44.03Zm16.78 1.493c.357.111.652.354.797.659.136.285.133.254.133 1.596v1.21H2.75V7.04c0-.949.006-1.234.027-1.32a1.275 1.275 0 0 1 1.063-.959c.07-.009 3.784-.015 8.25-.013 7.596.002 8.127.005 8.23.037Zm.93 9.175c0 3.47-.005 4.229-.027 4.32a1.3 1.3 0 0 1-.943.943c-.164.04-16.396.04-16.56 0a1.317 1.317 0 0 1-.935-.903c-.031-.102-.034-.428-.04-4.319-.003-2.316-.001-4.221.004-4.235.008-.021 1.753-.025 9.255-.021l9.246.005v4.21ZM9.758 15.289a.85.85 0 0 0-.44.401c-.042.087-.048.127-.048.31 0 .192.005.22.058.325.07.137.223.288.362.356l.1.049h1.92l.1-.049a.899.899 0 0 0 .362-.356c.053-.105.058-.133.058-.325s-.005-.22-.058-.325a.899.899 0 0 0-.362-.356l-.1-.049-.94-.004c-.747-.003-.955.002-1.012.023Zm4.5 0a.853.853 0 0 0-.44.401c-.042.087-.048.127-.048.31 0 .192.005.22.058.325.07.137.223.288.362.356l.1.049h3.92l.1-.049a.899.899 0 0 0 .362-.356c.053-.105.058-.133.058-.325s-.005-.22-.058-.325a.899.899 0 0 0-.362-.356l-.1-.049-1.94-.004c-1.58-.003-1.953.001-2.012.023Z" clip-rule="evenodd"/>
</svg>
