<svg xmlns="http://www.w3.org/2000/svg" width="24" height="24" fill="none" viewBox="0 0 24 24">
  <path fill="#161C24" fill-rule="evenodd" d="M11.37 1.273a8.813 8.813 0 0 0-4.62 1.728A9.285 9.285 0 0 0 5.001 4.75 8.846 8.846 0 0 0 3.51 7.89c-.169.686-.23 1.175-.244 1.95l-.01.59-.284.29c-.684.699-1.108 1.278-1.392 1.9-.216.475-.299.817-.314 1.293-.012.352.012.558.104.897.275 1.014 1.125 2.141 2.43 3.22.454.375.698.497 1.101.549.206.026.487.002.684-.059.156-.048 1.187-.558 1.373-.68.363-.236.638-.63.741-1.062.04-.164.041-.232.041-2.78v-2.613l-.048-.189a1.76 1.76 0 0 0-.734-1.036c-.192-.126-1.219-.633-1.373-.679a1.694 1.694 0 0 0-.75-.048c-.053.01-.055.007-.055-.07 0-.203.098-.776.201-1.173a7.082 7.082 0 0 1 1.898-3.311A7.173 7.173 0 0 1 11.13 2.8a8.575 8.575 0 0 1 1.74 0 7.26 7.26 0 0 1 3.67 1.549c.321.255.856.79 1.111 1.111a7.192 7.192 0 0 1 1.38 2.77c.092.363.189.941.189 1.132v.08l-.07-.011-.14-.022c-.101-.016-.452.027-.601.073-.152.047-1.184.559-1.367.678a1.73 1.73 0 0 0-.621.721c-.163.342-.15.099-.15 3.119s-.013 2.777.15 3.119c.146.306.353.547.621.721.07.046.385.212.698.368.685.341.802.377 1.205.377.14 0 .255.006.255.014 0 .033-.122.443-.169.567a3.278 3.278 0 0 1-1.572 1.735 3.57 3.57 0 0 1-.967.314c-.155.027-.518.033-2.442.043l-2.26.012-.115.058a.899.899 0 0 0-.356.362c-.043.087-.049.128-.049.31 0 .192.005.22.058.325.07.137.223.288.362.356l.1.049h2.36c2.185 0 2.376-.003 2.58-.036a4.826 4.826 0 0 0 2.15-.919c.244-.182.713-.651.895-.895.382-.512.66-1.078.815-1.66.102-.381.134-.637.145-1.16l.01-.49.312-.321c.172-.176.377-.397.455-.49 1.082-1.285 1.432-2.404 1.118-3.569-.133-.489-.413-1.03-.807-1.557a7.79 7.79 0 0 0-.766-.883l-.312-.32-.011-.59a7.91 7.91 0 0 0-.052-.91 8.4 8.4 0 0 0-.832-2.78 8.15 8.15 0 0 0-1.669-2.331A8.151 8.151 0 0 0 15.85 2.15a8.414 8.414 0 0 0-2.78-.832c-.255-.034-.451-.043-.96-.048a18.038 18.038 0 0 0-.74.003Zm-5.72 9.893c.363.185.531.281.559.32.041.057.041.074.041 2.514 0 2.439 0 2.457-.04 2.514-.06.081-1.082.597-1.151.58-.051-.013-.328-.233-.619-.492-.663-.59-1.167-1.193-1.439-1.722-.326-.636-.326-1.124 0-1.76.303-.59.904-1.282 1.669-1.921.295-.247.368-.299.418-.298.023.001.276.12.561.265Zm13.33-.246c.02.011.157.119.303.241.82.681 1.42 1.37 1.728 1.985.306.61.31 1.08.012 1.684-.267.544-.779 1.163-1.463 1.772-.291.259-.568.479-.619.492-.069.017-1.091-.499-1.15-.58-.041-.057-.041-.075-.041-2.514 0-2.44 0-2.457.041-2.514.028-.039.196-.135.56-.32.285-.145.535-.264.555-.265a.173.173 0 0 1 .074.019Z" clip-rule="evenodd"/>
</svg>
