<svg xmlns="http://www.w3.org/2000/svg" width="24" height="24" fill="none" viewBox="0 0 24 24">
  <path fill="#161C24" fill-rule="evenodd" d="M11.75 1.254a10.714 10.714 0 0 0-7.348 3.148 10.693 10.693 0 0 0-2.76 4.718c-.364 1.277-.473 2.747-.31 4.18.117 1.032.422 2.124.876 3.135a10.818 10.818 0 0 0 3.936 4.579 10.745 10.745 0 0 0 7.219 1.645 10.664 10.664 0 0 0 6.235-3.061 10.716 10.716 0 0 0 2.76-4.718c.509-1.791.509-3.97 0-5.76a10.729 10.729 0 0 0-1.916-3.77A10.745 10.745 0 0 0 13.9 1.42a12.14 12.14 0 0 0-2.15-.166Zm-.49 3.536c0 1.105-.004 2.01-.008 2.01-.049 0-.568.115-.725.16a5.533 5.533 0 0 0-1.844.97 6.512 6.512 0 0 0-.752.753c-.328.407-.659.98-.84 1.454a5.084 5.084 0 0 0-.331 1.867c0 .513.044.864.171 1.35a5.404 5.404 0 0 0 1 1.963c.173.214.538.579.752.752a5.74 5.74 0 0 0 1.507.859c.219.08.667.2.955.253l.115.022v2.008c0 1.924-.002 2.009-.036 2.009a9.296 9.296 0 0 1-4.914-1.928 10.03 10.03 0 0 1-1.602-1.602 9.322 9.322 0 0 1-1.727-3.627 9.509 9.509 0 0 1 0-4.126A9.327 9.327 0 0 1 4.708 6.31 10.03 10.03 0 0 1 6.31 4.708a9.325 9.325 0 0 1 4.885-1.926l.065-.002v2.01Zm1.871-1.97a9.235 9.235 0 0 1 4.559 1.888 10.03 10.03 0 0 1 1.602 1.602 9.322 9.322 0 0 1 1.727 3.627 9.509 9.509 0 0 1 0 4.126 9.322 9.322 0 0 1-1.727 3.627 10.03 10.03 0 0 1-1.602 1.602 9.296 9.296 0 0 1-4.027 1.809c-.203.038-.81.119-.887.119-.034 0-.036-.085-.036-2.01v-2.007l.115-.021c.322-.06.795-.191 1.052-.293a5.258 5.258 0 0 0 3.286-4.12c.052-.341.052-1.197 0-1.54a5.395 5.395 0 0 0-1.124-2.546 6.513 6.513 0 0 0-.752-.752 5.74 5.74 0 0 0-1.507-.86 7.266 7.266 0 0 0-.955-.252l-.115-.022V4.789c0-1.924.002-2.01.036-2.01.02 0 .18.019.355.04Zm-1.871 9.178c0 2.01-.005 3.66-.011 3.667a.728.728 0 0 1-.185-.035 3.692 3.692 0 0 1-1.711-.983 3.707 3.707 0 0 1-.982-1.707 3.81 3.81 0 0 1 0-1.88c.177-.664.5-1.225.982-1.707a3.674 3.674 0 0 1 1.677-.973c.11-.03.207-.051.215-.046.008.004.015 1.653.015 3.664Zm2.04-3.515a3.782 3.782 0 0 1 2.259 2.345 3.73 3.73 0 0 1-.379 3.153 3.81 3.81 0 0 1-1.89 1.538c-.228.08-.523.16-.539.146a597 597 0 0 1 0-7.33c.016-.015.34.072.549.148Z" clip-rule="evenodd"/>
</svg>
