<svg xmlns="http://www.w3.org/2000/svg" width="24" height="24" fill="none" viewBox="0 0 24 24">
  <path fill="#161C24" fill-rule="evenodd" d="M11.19 2.282C8.563 2.5 6.234 3.57 4.402 5.402c-1.322 1.322-2.238 2.89-2.76 4.718-.242.85-.395 1.963-.38 2.76.007.302.012.338.057.43a.899.899 0 0 0 .356.362c.105.053.133.058.325.058.182 0 .223-.006.31-.049a.814.814 0 0 0 .407-.47 5.77 5.77 0 0 0 .042-.552c.06-1.354.345-2.504.912-3.675a8.838 8.838 0 0 1 1.85-2.577 8.758 8.758 0 0 1 2.463-1.736 9.007 9.007 0 0 1 3.613-.909 9.22 9.22 0 0 1 5.353 1.424 9.513 9.513 0 0 1 2.604 2.474 9.423 9.423 0 0 1 1.355 2.85c.2.72.296 1.34.332 2.15.01.258.03.506.042.55a.814.814 0 0 0 .407.471c.087.043.128.05.31.05.192 0 .22-.006.325-.059a.899.899 0 0 0 .356-.362c.044-.09.05-.13.056-.41.018-.792-.137-1.93-.38-2.78a10.715 10.715 0 0 0-2.76-4.718 10.654 10.654 0 0 0-4.227-2.608 10.195 10.195 0 0 0-2.5-.504 15.461 15.461 0 0 0-1.68-.008Zm.568 7.006a.856.856 0 0 0-.44.402l-.048.1-.005 2.264-.006 2.265-.084.021a4.866 4.866 0 0 0-.753.263 3.79 3.79 0 0 0-2.07 2.527 4.29 4.29 0 0 0-.061 1.407c.246 1.673 1.564 2.961 3.258 3.184.294.04.907.014 1.202-.049a3.771 3.771 0 0 0 2.924-2.93c.05-.235.054-.286.054-.742s-.004-.507-.054-.74a3.782 3.782 0 0 0-1.768-2.484 4.2 4.2 0 0 0-1.082-.436l-.084-.02-.006-2.266-.005-2.264-.05-.1a.894.894 0 0 0-.354-.36c-.1-.05-.14-.06-.305-.064a.785.785 0 0 0-.263.022Zm.657 6.502a2.247 2.247 0 1 1-1.41 4.224 2.273 2.273 0 0 1-1.226-1.649 3.183 3.183 0 0 1 0-.73 2.278 2.278 0 0 1 1.829-1.853c.174-.029.634-.025.807.008Z" clip-rule="evenodd"/>
</svg>
