<svg xmlns="http://www.w3.org/2000/svg" width="24" height="24" fill="none" viewBox="0 0 24 24">
  <path fill="#161C24" fill-rule="evenodd" d="M1.25 3c0-.966.784-1.75 1.75-1.75h6c.966 0 1.75.784 1.75 1.75v6A1.75 1.75 0 0 1 9 10.75H3A1.75 1.75 0 0 1 1.25 9V3Zm12 0c0-.966.784-1.75 1.75-1.75h6c.966 0 1.75.784 1.75 1.75v6A1.75 1.75 0 0 1 21 10.75h-6A1.75 1.75 0 0 1 13.25 9V3Zm-12 12c0-.966.784-1.75 1.75-1.75h6c.966 0 1.75.784 1.75 1.75v6A1.75 1.75 0 0 1 9 22.75H3A1.75 1.75 0 0 1 1.25 21v-6Zm12 0c0-.966.784-1.75 1.75-1.75h6c.966 0 1.75.784 1.75 1.75v6A1.75 1.75 0 0 1 21 22.75h-6A1.75 1.75 0 0 1 13.25 21v-6Z" clip-rule="evenodd"/>
</svg>
