<svg xmlns="http://www.w3.org/2000/svg" width="24" height="24" fill="none" viewBox="0 0 24 24">
  <path fill="#161C24" fill-rule="evenodd" d="M21 5v5.767l-.01.01c-1.838 1.968-4.494 3.17-8.995 3.223-2.373-.001-4.132-.337-5.556-.878C5.117 12.62 4.04 11.925 3 11.085V5c0-.803.437-1.448.965-1.916.53-.469 1.238-.846 2.027-1.142C7.578 1.347 9.702 1 12 1c2.297 0 4.422.347 6.008.942.79.296 1.498.673 2.027 1.142C20.562 3.552 21 4.197 21 5ZM5.292 4.58C5.01 4.83 5 4.975 5 5c0 .026.01.17.292.42.28.248.744.518 1.402.765C8.004 6.675 9.88 7 12 7s3.997-.324 5.306-.815c.658-.247 1.121-.517 1.402-.766C18.99 5.17 19 5.026 19 5c0-.026-.01-.17-.292-.42-.28-.248-.744-.518-1.402-.765C15.996 3.325 14.12 3 12 3s-3.997.324-5.306.815c-.658.247-1.121.517-1.402.766Zm1.924 5.702a.75.75 0 0 0-.432 1.436l.11.033c.568.172 1.253.378 1.994.49a.75.75 0 1 0 .225-1.482c-.631-.096-1.223-.274-1.808-.45l-.089-.027Z" clip-rule="evenodd"/>
  <path fill="#161C24" fill-rule="evenodd" d="M12.012 16c3.941-.046 6.813-.918 8.988-2.55V19c0 .803-.438 1.448-.965 1.916-.53.47-1.238.846-2.027 1.142-1.586.595-3.71.942-6.008.942-2.297 0-4.422-.347-6.008-.942-.79-.296-1.498-.673-2.027-1.142C3.437 20.448 3 19.803 3 19v-5.428a13.331 13.331 0 0 0 2.728 1.42C7.423 15.636 9.432 16 12.001 16h.01Zm-4.796 1.282a.75.75 0 1 0-.432 1.437l.11.032c.568.172 1.253.378 1.994.49a.75.75 0 1 0 .225-1.482c-.631-.096-1.223-.274-1.808-.45l-.089-.027Z" clip-rule="evenodd"/>
</svg>
