<svg xmlns="http://www.w3.org/2000/svg" width="24" height="24" fill="none" viewBox="0 0 24 24">
  <path fill="#161C24" fill-rule="evenodd" d="M4.638 20.167 3.824 6.75l-.09-1.685a.3.3 0 0 1 .3-.316h15.96a.3.3 0 0 1 .3.321l-.118 1.68-.813 13.416a2.75 2.75 0 0 1-2.745 2.583H7.382a2.75 2.75 0 0 1-2.744-2.583ZM9 10.75a.75.75 0 0 0 0 1.5h6a.75.75 0 0 0 0-1.5H9Zm.75 4.75a.75.75 0 0 1 .75-.75h3a.75.75 0 0 1 0 1.5h-3a.75.75 0 0 1-.75-.75Z" clip-rule="evenodd"/>
  <path fill="#161C24" fill-rule="evenodd" d="M8.319 2.463a2 2 0 0 1 1.838-1.212h3.681a2 2 0 0 1 1.839 1.212l.98 2.287h2.807a.759.759 0 0 1 .066 0h1.468a1 1 0 1 1 0 2h-18a1 1 0 1 1 0-2h1.467a.759.759 0 0 1 .067 0h2.806l.98-2.287Zm5.571.909.59 1.378H9.515l.591-1.378a.2.2 0 0 1 .184-.121h3.417a.2.2 0 0 1 .184.121Z" clip-rule="evenodd"/>
</svg>
