<svg xmlns="http://www.w3.org/2000/svg" width="24" height="24" fill="none" viewBox="0 0 24 24">
  <path fill="#161C24" fill-rule="evenodd" d="M11.64 1.59a1.657 1.657 0 0 0-.52.203c-.088.052-.574.442-1.17.94-.56.468-1.069.888-1.128.934l-.109.083-1.77.011c-1.764.01-1.774.011-1.919.055a1.79 1.79 0 0 0-1.208 1.208c-.044.145-.045.155-.055 1.918l-.01 1.771-.06.079c-.033.043-.438.533-.9 1.088a133.23 133.23 0 0 0-.895 1.08 1.766 1.766 0 0 0-.122 1.887c.094.167.067.133 1.016 1.273.463.555.868 1.045.901 1.088l.06.079.01 1.771c.01 1.763.011 1.773.055 1.918.05.163.157.386.251.524.21.307.571.566.957.684.145.044.155.045 1.918.055l1.771.011.11.083c.058.046.566.466 1.127.934 1.015.847 1.197.983 1.44 1.072.364.135.856.135 1.22 0 .243-.089.425-.225 1.44-1.072.561-.468 1.07-.888 1.128-.934l.11-.083 1.77-.011c1.763-.01 1.773-.011 1.918-.055a1.79 1.79 0 0 0 1.208-1.208c.044-.145.045-.155.055-1.918l.011-1.771.083-.109c.046-.059.466-.567.934-1.128.498-.596.888-1.082.94-1.17.163-.277.233-.541.233-.88 0-.339-.07-.603-.233-.88-.052-.088-.442-.574-.94-1.17-.468-.561-.888-1.069-.934-1.128l-.083-.109-.01-1.771c-.01-1.763-.012-1.773-.056-1.918a2.238 2.238 0 0 0-.25-.524 1.844 1.844 0 0 0-.958-.684c-.145-.044-.155-.045-1.918-.055l-1.77-.011-.11-.083c-.059-.046-.567-.466-1.128-.934-1.015-.847-1.197-.983-1.44-1.072a2.024 2.024 0 0 0-.97-.071Zm.582 1.575c.072.058.574.474 1.115.925.963.802 1.156.948 1.367 1.032.284.111.185.106 2.097.117 1.648.01 1.775.013 1.825.046a.4.4 0 0 1 .09.089c.032.05.035.177.044 1.825.012 1.912.006 1.812.118 2.097.084.211.23.404 1.032 1.367 1.114 1.336 1.03 1.228 1.03 1.337 0 .109.084.001-1.03 1.337-.802.963-.948 1.156-1.032 1.367-.112.285-.106.185-.118 2.097-.009 1.648-.012 1.775-.045 1.825a.417.417 0 0 1-.089.089c-.05.033-.177.036-1.825.045-1.912.012-1.812.006-2.097.118-.21.084-.404.23-1.367 1.032-1.336 1.114-1.228 1.03-1.337 1.03-.109 0 0 .084-1.337-1.03-.963-.802-1.156-.948-1.367-1.032-.285-.112-.185-.106-2.097-.118-1.648-.009-1.775-.012-1.825-.045a.417.417 0 0 1-.089-.089c-.033-.05-.036-.177-.046-1.825-.01-1.912-.006-1.813-.117-2.097-.084-.211-.23-.404-1.032-1.367C2.976 12.001 3.06 12.109 3.06 12c0-.109-.084-.001 1.03-1.337.802-.963.948-1.156 1.032-1.367.111-.284.106-.185.117-2.097.01-1.648.013-1.775.046-1.825a.417.417 0 0 1 .09-.089c.05-.033.176-.036 1.824-.046 1.912-.011 1.813-.006 2.097-.117.211-.084.404-.23 1.367-1.032C12 2.976 11.891 3.06 12 3.06c.08 0 .107.013.222.105ZM9.238 8.537c-.337.088-.63.388-.707.724a.985.985 0 0 0 .294.97 1.012 1.012 0 0 0 1.535-.204 1.05 1.05 0 0 0 0-1.054 1.027 1.027 0 0 0-1.122-.436Zm5.02.251a1.22 1.22 0 0 0-.16.082c-.048.03-1.24 1.207-2.649 2.617C8.532 14.406 8.77 14.138 8.77 14.5c0 .192.005.22.058.325.07.137.223.288.362.356.087.043.128.049.31.049.362 0 .092.241 3.031-2.699 2.94-2.939 2.7-2.669 2.7-3.031 0-.182-.007-.223-.05-.31a.894.894 0 0 0-.355-.361c-.099-.05-.14-.059-.305-.063a.785.785 0 0 0-.263.022Zm.022 4.734c-.228.044-.506.24-.64.451a1.05 1.05 0 0 0 0 1.054c.213.336.607.515 1.007.457a.919.919 0 0 0 .555-.282.936.936 0 0 0 .281-.547c.107-.696-.502-1.269-1.203-1.133Z" clip-rule="evenodd"/>
</svg>
