<svg xmlns="http://www.w3.org/2000/svg" width="24" height="24" fill="none" viewBox="0 0 24 24">
  <path fill="#161C24" d="M21.25 12a9.25 9.25 0 1 0-18.5 0 9.25 9.25 0 0 0 18.5 0Zm1.5 0c0 5.937-4.813 10.75-10.75 10.75S1.25 17.937 1.25 12 6.063 1.25 12 1.25 22.75 6.063 22.75 12Z"/>
  <path fill="#161C24" d="M8.825 14.91c2.378-1.394 4.983-.436 6.6 1.43l.159.19.045.062a.75.75 0 0 1-1.162.936l-.051-.057-.259-.3c-1.284-1.382-3.056-1.858-4.588-.958l-.157.097a.75.75 0 0 1-.824-1.254l.237-.146ZM7.237 8.251a6.29 6.29 0 0 1 1.066.1c.537.103 1.189.32 1.71.812l.208.21c.074.08.15.17.22.269.126.176.309.483.309.858a1.25 1.25 0 1 1-2.5-.012l.012-.147c.022-.159.075-.3.135-.418a2.818 2.818 0 0 0-.375-.098 4.256 4.256 0 0 0-.56-.065L7 9.75l-.077-.004A.75.75 0 0 1 7 8.25l.237.001Zm7 0a6.29 6.29 0 0 1 1.066.1c.537.103 1.189.32 1.71.812l.208.21c.074.08.15.17.22.269.126.176.309.483.309.858a1.25 1.25 0 1 1-2.5-.012l.012-.147a1.3 1.3 0 0 1 .136-.418 2.822 2.822 0 0 0-.375-.098 4.26 4.26 0 0 0-.561-.065L14 9.75l-.077-.004A.75.75 0 0 1 14 8.25l.237.001Z"/>
</svg>
