<svg xmlns="http://www.w3.org/2000/svg" width="24" height="24" fill="none" viewBox="0 0 24 24">
  <path fill="#161C24" fill-rule="evenodd" d="M1.25 12C1.25 6.063 6.063 1.25 12 1.25S22.75 6.063 22.75 12 17.937 22.75 12 22.75 1.25 17.937 1.25 12Zm13.166 5.47c-1.338-1.66-3.333-2.258-5.004-1.16a.75.75 0 0 1-.824-1.253c2.52-1.656 5.343-.58 6.996 1.472a.75.75 0 1 1-1.168.941ZM7 9.75c.26 0 .633.001 1.022.075.132.026.258.058.376.097a1.29 1.29 0 0 0-.148.566 1.25 1.25 0 1 0 2.5.012c0-.376-.183-.682-.309-.858a3.327 3.327 0 0 0-.427-.48c-.522-.49-1.175-.708-1.712-.81A6.823 6.823 0 0 0 7.01 8.25H7a.75.75 0 0 0 0 1.5Zm7 0c.26 0 .633.001 1.022.075.132.026.258.058.376.097a1.289 1.289 0 0 0-.148.566 1.25 1.25 0 1 0 2.5.012c0-.376-.183-.682-.309-.858a3.327 3.327 0 0 0-.427-.48c-.522-.49-1.175-.708-1.712-.81a6.823 6.823 0 0 0-1.292-.102H14a.75.75 0 0 0 0 1.5Z" clip-rule="evenodd"/>
</svg>
