<svg xmlns="http://www.w3.org/2000/svg" width="24" height="24" fill="none" viewBox="0 0 24 24">
  <path fill="#161C24" d="M8.459 1.25a.75.75 0 0 1 .53.18l3.01 2.582 3.013-2.581.065-.051a.751.751 0 0 1 .546-.12l3 .5.113.028a.75.75 0 0 1 .294.182l3.5 3.5a.75.75 0 0 1 .08.965l-2.5 3.5a.752.752 0 0 1-1.06.165l-2-1.5-.059-.05a.75.75 0 0 1 .896-1.193l.063.043 1.385 1.04 1.685-2.36-2.88-2.88-2.418-.404-3.234 2.772a.75.75 0 0 1-.976 0L8.277 2.797 5.86 3.2 2.98 6.081l1.685 2.358L6.05 7.4a.75.75 0 0 1 .9 1.2l-2 1.5a.75.75 0 0 1-1.06-.165l-2.5-3.5a.75.75 0 0 1 .08-.965l3.5-3.5.088-.077a.752.752 0 0 1 .319-.133l3-.5.082-.01Z"/>
  <path fill="#161C24" d="M17.376 6.084a.75.75 0 0 1 1.248.832 5.24 5.24 0 0 0-.43.818l-.133.327c-.708 1.832-.544 3.907-.03 5.972l1.48 5.482.033.15c.124.704-.194 1.446-.871 1.788l-.15.068A18.427 18.427 0 0 1 12 22.75c-2.28 0-4.536-.602-5.91-1.053l-.532-.182c-.861-.306-1.281-1.214-1.056-2.05l1.463-5.42c.485-1.94.66-3.89.097-5.639l-.123-.346a6.986 6.986 0 0 0-.416-.903l-.147-.242-.039-.066a.75.75 0 0 1 1.241-.827l.046.061.204.334c.196.346.364.726.51 1.103l.151.425c.69 2.138.444 4.412-.069 6.464l-.003.014-1.467 5.434c-.034.126.032.217.11.245l.506.172c1.299.426 3.379.975 5.434.975 2.68 0 4.898-.706 5.979-1.127l.044-.028a.14.14 0 0 0 .03-.042.193.193 0 0 0 .017-.065l-.008-.082-1.479-5.482-.004-.014c-.547-2.189-.79-4.63.082-6.89l.153-.376a6.73 6.73 0 0 1 .562-1.06Z"/>
</svg>
