<svg xmlns="http://www.w3.org/2000/svg" width="24" height="24" fill="none" viewBox="0 0 24 24">
  <path fill="#161C24" d="M14.034 3.75a1.75 1.75 0 0 1 2.075.3l.911.91.096.103a1.75 1.75 0 0 1 .29 1.789l-.057.128-1.402 2.803a1.75 1.75 0 0 1-1.565.966H9.618a1.75 1.75 0 0 1-1.507-.858l-.058-.108L6.65 6.98a1.75 1.75 0 0 1 .328-2.02l.91-.91.115-.105a1.75 1.75 0 0 1 2.094-.115l1.901 1.268L13.9 3.83l.133-.08Zm1.015 1.36a.25.25 0 0 0-.276-.053l-.04.021-2.317 1.545a.75.75 0 0 1-.832 0L9.266 5.078a.25.25 0 0 0-.282.003l-.034.029-.91.91a.25.25 0 0 0-.047.289l1.402 2.803.039.057a.25.25 0 0 0 .184.08h4.764a.25.25 0 0 0 .223-.137l1.402-2.803.023-.075a.25.25 0 0 0-.024-.15l-.046-.063-.911-.911Z"/>
  <path fill="#161C24" d="M8.25 4V2a.75.75 0 0 1 1.5 0v2a.75.75 0 0 1-1.5 0Zm6 0V2a.75.75 0 0 1 1.5 0v2a.75.75 0 0 1-1.5 0Zm.25 5.25a.75.75 0 0 1 0 1.5h-5a.75.75 0 0 1 0-1.5h5Z"/>
  <path fill="#161C24" d="m15 9.25.112.009a.75.75 0 0 1 .582.457l.13.3c.707 1.579 2.357 4.256 5.585 6.355a.75.75 0 0 1 .262.964L21 17c.661.33.67.336.67.336v.002l-.002.003-.005.009-.013.025-.045.083a5.314 5.314 0 0 1-.824 1.072c-.582.582-1.512 1.22-2.781 1.22a.75.75 0 0 1 0-1.5c.731 0 1.302-.362 1.72-.78.09-.091.17-.184.241-.27-3.035-2.163-4.676-4.77-5.45-6.45H9.489c-.774 1.68-2.416 4.287-5.45 6.45.07.086.15.179.241.27.419.418.99.78 1.72.78a.75.75 0 0 1 0 1.5c-1.269 0-2.198-.638-2.78-1.22a5.308 5.308 0 0 1-.87-1.155l-.013-.025-.005-.01-.002-.002v-.002L3 17l-.67.335a.75.75 0 0 1 .26-.964c3.444-2.238 5.092-5.135 5.716-6.655l.05-.102A.75.75 0 0 1 9 9.25h6Z"/>
  <path fill="#161C24" d="M9.604 13.706a.75.75 0 1 1 1.38.588c-.099.23-.307.546-.532.863-.24.34-.55.75-.898 1.195a74.697 74.697 0 0 1-1.76 2.154l-.613.716c-.27.312-.343.666-.291.928.047.237.197.437.514.522l.495.123a18.72 18.72 0 0 0 4.1.455c1.682 0 3.319-.237 4.596-.578l.11-.038a.632.632 0 0 0 .405-.484c.046-.23-.005-.53-.199-.81l-.093-.118a76.943 76.943 0 0 1-2.373-2.87 32.36 32.36 0 0 1-.898-1.195c-.225-.317-.434-.633-.533-.863l1.38-.588c.026.06.139.248.376.584.222.313.516.703.857 1.138.68.868 1.53 1.897 2.324 2.811l.099.12c.476.612.671 1.375.53 2.082a2.137 2.137 0 0 1-1.435 1.63l-.163.05c-1.404.375-3.17.629-4.983.629-1.585 0-3.135-.194-4.439-.494l-.543-.135c-.888-.238-1.445-.9-1.6-1.68-.148-.754.084-1.571.632-2.202l.602-.703a73.114 73.114 0 0 0 1.721-2.109c.34-.434.635-.824.856-1.137.238-.335.351-.525.376-.584Zm3.807-.396a.75.75 0 0 1 .983.396l-1.38.588a.75.75 0 0 1 .397-.984Z"/>
</svg>
