<svg xmlns="http://www.w3.org/2000/svg" width="24" height="24" fill="none" viewBox="0 0 24 24">
  <path fill="#161C24" fill-rule="evenodd" d="M8.127 1.01a.75.75 0 0 1 .611.17l3.012 2.582 3.012-2.581a.75.75 0 0 1 .611-.17l3 .5a.75.75 0 0 1 .407.209l3.5 3.5a.75.75 0 0 1 .08.966l-2.5 3.5a.75.75 0 0 1-1.078.15L17.51 8.82c-.338 1.57-.151 3.273.272 4.97l1.478 5.475c.215.796-.157 1.682-.988 2.005a18.429 18.429 0 0 1-6.523 1.23c-2.606 0-5.18-.785-6.442-1.234-.861-.306-1.281-1.214-1.056-2.05l1.465-5.426c.423-1.697.61-3.4.272-4.97L4.72 9.836a.75.75 0 0 1-1.08-.15l-2.5-3.5a.75.75 0 0 1 .08-.966l3.5-3.5a.75.75 0 0 1 .408-.21l3-.5Z" clip-rule="evenodd"/>
</svg>
