<svg xmlns="http://www.w3.org/2000/svg" width="24" height="24" fill="none" viewBox="0 0 24 24">
  <path fill="#161C24" d="M14.357 1.011a.75.75 0 0 0-.88.739c0 1.073-.763 1.76-1.726 1.76-1.05 0-1.742-.82-1.742-1.73a.75.75 0 0 0-.882-.738c-.365.065-1.108.18-1.77.281l-.857.13-.364.054a.75.75 0 0 0-.455.249L2.185 5.764a.75.75 0 0 0 .035 1.024l2.525 2.518a.75.75 0 0 0 .99.062l.92-.715.237 2.08A.3.3 0 0 0 7.19 11h9.13a.3.3 0 0 0 .299-.267l.232-2.101.924.695a.75.75 0 0 0 .974-.062l2.524-2.456a.75.75 0 0 0 .041-1.032l-3.497-3.99a.75.75 0 0 0-.434-.244l-3.026-.532Zm3.322 11.604a.295.295 0 0 0-.235-.115H6.07a.294.294 0 0 0-.233.113c-1.714 2.206-2.778 5.505-2.877 9.117a.75.75 0 0 0 .75.77h16.056a.75.75 0 0 0 .75-.76c-.04-3.148-.838-5.64-1.764-7.416a11.98 11.98 0 0 0-1.073-1.709Z"/>
</svg>
