<svg xmlns="http://www.w3.org/2000/svg" width="24" height="24" fill="none" viewBox="0 0 24 24">
  <path fill="#161C24" d="M14.742 17.054c.371.696.335 1.301.294 1.995l-.006.103c-.026.449-.053 1.01.133 1.58.196.6.598 1.13 1.276 1.614.68.485 1.6.607 2.4.376a2.546 2.546 0 0 0 1.816-1.936l.001-.006c.197-.925.075-1.74-.29-2.437-.359-.681-.921-1.195-1.524-1.585-.755-.49-1.64-.827-2.433-1.068a5.777 5.777 0 0 1-1.667 1.364Z"/>
  <path fill="#161C24" fill-rule="evenodd" d="M1.25 12C1.25 6.063 6.063 1.25 12 1.25S22.75 6.063 22.75 12a10.7 10.7 0 0 1-1.442 5.382c-.484-.755-1.134-1.309-1.76-1.715-.901-.584-1.917-.963-2.76-1.22-.048-.015-.086-.03-.125-.044-.056-.021-.116-.044-.214-.071-.246-.105-.803-.11-1.049.218a4.242 4.242 0 0 1-3.4 1.7 4.242 4.242 0 0 1-3.4-1.7.75.75 0 1 0-1.2.9 5.755 5.755 0 0 0 6.136 2.092c.017.042.037.084.059.125.18.337.185.598.143 1.305l-.008.121c-.026.445-.071 1.225.197 2.044.155.473.391.901.702 1.29-.841.21-1.722.323-2.629.323-5.937 0-10.75-4.813-10.75-10.75Zm19.236 6.6a10.782 10.782 0 0 1-4.495 3.385c-.414-.385-.68-.799-.829-1.253-.186-.569-.159-1.13-.133-1.58l.006-.103c.042-.693.078-1.298-.293-1.994a5.775 5.775 0 0 0 1.667-1.365c.793.242 1.678.58 2.432 1.068.603.39 1.166.905 1.524 1.586.044.083.084.169.12.256ZM6.97 8.47a2.454 2.454 0 0 1 1.737-.72H10a.75.75 0 0 1 0 1.5H8.707c-.254 0-.497.1-.677.28a.75.75 0 0 1-1.06-1.06Zm6.28.03a.75.75 0 0 1 .75-.75h1.293c.652 0 1.277.259 1.737.72a.75.75 0 0 1-1.06 1.06.957.957 0 0 0-.677-.28H14a.75.75 0 0 1-.75-.75Z" clip-rule="evenodd"/>
</svg>
