<svg xmlns="http://www.w3.org/2000/svg" width="24" height="24" fill="none" viewBox="0 0 24 24">
  <path fill="#161C24" fill-rule="evenodd" d="M16.586 2a2 2 0 0 1 2.829 0l.585.586.793-.793a1 1 0 1 1 1.414 1.414L21.414 4l.586.586a2 2 0 0 1 0 2.828l-.1.1a2.758 2.758 0 0 0-.37-.459L16.945 2.47a2.764 2.764 0 0 0-.459-.37l.1-.1Zm-.91 7.737-5.939 5.94 1.586 1.585a1.75 1.75 0 0 1 0 2.475l-1.086 1.086a1.75 1.75 0 0 1-2.475 0l-4.585-4.586a1.75 1.75 0 0 1 0-2.475l1.085-1.085a1.75 1.75 0 0 1 2.475 0l1.586 1.586 5.94-5.94-1.586-1.586a1.75 1.75 0 0 1 0-2.475l1.085-1.085a1.75 1.75 0 0 1 2.475 0l4.586 4.585a1.75 1.75 0 0 1 0 2.475l-1.086 1.086a1.75 1.75 0 0 1-2.475 0l-1.585-1.586ZM4 21.414l.586.586a2 2 0 0 0 2.828 0l.1-.1a2.757 2.757 0 0 1-.459-.37L2.47 16.945a2.755 2.755 0 0 1-.37-.459l-.1.1a2 2 0 0 0 0 2.828l.586.586-.793.793a1 1 0 1 0 1.414 1.414L4 21.414Z" clip-rule="evenodd"/>
</svg>
