<svg xmlns="http://www.w3.org/2000/svg" width="24" height="24" fill="none" viewBox="0 0 24 24">
  <path fill="#161C24" fill-rule="evenodd" d="M17.798 1.681c-.5.058-.738.202-1.378.83l-.45.442-.19-.097c-.566-.288-1.214-.245-1.767.118-.1.064-.344.294-.794.745-.668.667-.77.788-.898 1.064-.2.428-.2 1.006 0 1.434.133.286.22.387 1.177 1.349l.93.935-2.963 2.964L8.5 14.429l-.935-.931c-.962-.956-1.063-1.044-1.35-1.177-.427-.2-1.005-.2-1.433 0-.276.128-.397.23-1.064.898-.668.667-.77.788-.898 1.064-.16.342-.193.781-.092 1.187.017.066.074.205.127.31l.097.19-.442.45c-.446.455-.576.616-.69.863-.2.428-.2 1.006 0 1.434.114.245.244.408.677.848l.428.436-.518.524c-.627.635-.638.651-.638.975 0 .192.005.22.058.325.07.137.223.288.362.356.087.043.128.049.31.049.324 0 .34-.011.975-.638L4 21.073l.415.41c.45.443.555.53.788.656.464.249 1.13.249 1.594 0 .235-.126.338-.213.803-.671l.43-.424.163.089c.355.193.84.247 1.249.141.423-.11.555-.208 1.339-.993.785-.784.883-.916.993-1.339.097-.375.054-.868-.104-1.184-.14-.278-.232-.382-1.168-1.324l-.931-.935 2.964-2.964 2.964-2.964.935.931c.942.936 1.046 1.028 1.324 1.168.316.158.809.201 1.184.104.423-.11.555-.208 1.339-.993.785-.784.883-.916.993-1.339a1.794 1.794 0 0 0-.141-1.249l-.09-.163.425-.43c.458-.465.545-.568.67-.803a1.794 1.794 0 0 0 0-1.594c-.125-.233-.212-.338-.655-.788L21.073 4l.519-.525c.627-.635.638-.651.638-.975 0-.192-.005-.22-.058-.325a.899.899 0 0 0-.362-.356c-.087-.043-.128-.049-.31-.049-.324 0-.34.011-.975.638L20 2.926l-.436-.428c-.634-.624-.861-.758-1.385-.818a1.09 1.09 0 0 0-.382.001Zm1.67 2.858L20.83 5.9v.2l-.415.415L20 6.93l-1.465-1.465L17.07 4l.4-.402a6.61 6.61 0 0 1 .44-.419c.022-.01.075-.015.119-.01.074.008.158.088 1.44 1.37Zm-2 2L19.83 8.9v.2l-.615.615-.615.615h-.2l-2.365-2.365L13.67 5.6v-.2l.6-.602c.33-.33.618-.609.64-.619a.282.282 0 0 1 .119-.01c.074.008.204.134 2.44 2.37Zm-9.5 9.5L10.33 18.4v.2l-.615.615-.615.615h-.2l-2.365-2.365L4.17 15.1v-.2l.6-.602c.33-.33.618-.609.64-.619.022-.01.075-.015.119-.01.074.008.204.134 2.44 2.37ZM5.47 18.54 6.93 20l-.415.415-.415.415h-.2l-1.365-1.365L3.17 18.1v-.2l.41-.41c.225-.225.414-.41.42-.41.005 0 .667.657 1.47 1.46Z" clip-rule="evenodd"/>
</svg>
