<svg xmlns="http://www.w3.org/2000/svg" width="24" height="24" fill="none" viewBox="0 0 24 24">
  <path fill="#161C24" d="M9.25 15.5c0-1.418-.315-2.665-.787-3.53-.488-.894-1.038-1.22-1.463-1.22-.425 0-.975.326-1.463 1.22-.472.865-.787 2.112-.787 3.53 0 1.418.315 2.665.787 3.53.488.894 1.038 1.22 1.463 1.22.425 0 .975-.326 1.463-1.22.472-.865.787-2.112.787-3.53Zm1.5 0c0 1.62-.357 3.123-.97 4.248-.6 1.097-1.549 2.002-2.78 2.002-1.232 0-2.181-.905-2.78-2.002-.613-1.125-.97-2.629-.97-4.248 0-1.62.357-3.123.97-4.248C4.82 10.155 5.769 9.25 7 9.25c1.232 0 2.181.905 2.78 2.002.613 1.125.97 2.628.97 4.248Zm8.5 0c0-1.418-.315-2.665-.787-3.53-.488-.894-1.038-1.22-1.463-1.22-.425 0-.976.326-1.463 1.22-.472.865-.787 2.112-.787 3.53 0 1.418.315 2.665.787 3.53.487.894 1.038 1.22 1.463 1.22.425 0 .976-.326 1.463-1.22.472-.865.787-2.112.787-3.53Zm1.5 0c0 1.62-.357 3.123-.97 4.248-.599 1.097-1.549 2.002-2.78 2.002-1.232 0-2.181-.905-2.78-2.002-.613-1.125-.97-2.629-.97-4.248 0-1.62.357-3.123.97-4.248.599-1.097 1.548-2.002 2.78-2.002 1.232 0 2.181.905 2.78 2.002.613 1.125.97 2.628.97 4.248Z"/>
  <path fill="#161C24" d="M18.25 5a1.25 1.25 0 1 0-2.5 0c0 .325.093.645.271.866.157.195.434.384.979.384l.077.004A.75.75 0 0 1 17.75 7v3a.75.75 0 0 1-1.5 0V7.666a2.48 2.48 0 0 1-1.396-.858c-.447-.554-.604-1.235-.604-1.808a2.75 2.75 0 1 1 5.5 0v.69l.78.78.052.056a.75.75 0 0 1-1.056 1.056l-.056-.052-1-1a.75.75 0 0 1-.22-.53V5Zm-10 0a1.25 1.25 0 1 0-2.5 0c0 .325.093.645.271.866.157.195.434.384.979.384l.077.004A.75.75 0 0 1 7.75 7v3a.75.75 0 0 1-1.5 0V7.666a2.479 2.479 0 0 1-1.396-.858C4.407 6.254 4.25 5.573 4.25 5a2.75 2.75 0 0 1 5.5 0v.69l.78.78.052.056a.75.75 0 0 1-1.056 1.056L9.47 7.53l-1-1A.75.75 0 0 1 8.25 6V5Zm2.166 12.376-.832 1.248-6-4 .832-1.248 6 4Zm10 0-.832 1.248-6-4 .832-1.248 6 4Z"/>
</svg>
