<svg xmlns="http://www.w3.org/2000/svg" width="24" height="24" fill="none" viewBox="0 0 24 24">
  <path fill="#161C24" fill-rule="evenodd" d="M22.53 2.47c.2.199.27.492.184.76l-1.686 5.225c-.061.19-.096.301-.118.386a.662.662 0 0 0-.016.077c.002.01.009.04.028.1.034.102.086.237.17.455A9.728 9.728 0 0 1 21.75 13 9.75 9.75 0 0 1 12 22.75 9.75 9.75 0 0 1 2.908 9.473c.084-.218.136-.353.17-.456a.921.921 0 0 0 .028-.1.647.647 0 0 0-.016-.076 7.367 7.367 0 0 0-.118-.386L1.286 3.23a.75.75 0 0 1 .944-.944L7.946 4.13A9.717 9.717 0 0 1 12 3.25c1.445 0 2.818.315 4.054.88l5.716-1.844a.75.75 0 0 1 .76.184ZM8.4 16.55a.75.75 0 0 1 1.05-.15c.71.534 1.592.85 2.55.85.958 0 1.84-.316 2.55-.85a.75.75 0 0 1 .9 1.2A5.727 5.727 0 0 1 12 18.75a5.727 5.727 0 0 1-3.45-1.15.75.75 0 0 1-.15-1.05ZM7 10.75c.26 0 .633.001 1.022.075.132.026.258.058.376.098a1.29 1.29 0 0 0-.148.565 1.25 1.25 0 1 0 2.5.012c0-.376-.183-.682-.309-.858a3.326 3.326 0 0 0-.427-.48c-.522-.49-1.175-.708-1.712-.81A6.915 6.915 0 0 0 7 9.25a.75.75 0 0 0 0 1.5ZM17.75 10a.75.75 0 0 0-.75-.75c-.263 0-.767 0-1.302.102-.537.102-1.19.32-1.712.81a3.326 3.326 0 0 0-.427.48c-.126.176-.309.482-.309.858a1.25 1.25 0 1 0 2.5-.012 1.289 1.289 0 0 0-.148-.566 2.95 2.95 0 0 1 .376-.097A5.4 5.4 0 0 1 17 10.75a.75.75 0 0 0 .75-.75Z" clip-rule="evenodd"/>
</svg>
