<svg xmlns="http://www.w3.org/2000/svg" width="24" height="24" fill="none" viewBox="0 0 24 24">
  <path fill="#161C24" fill-rule="evenodd" d="M7.12 2.272c-1.807.158-3.352 1.01-4.427 2.441A7.112 7.112 0 0 0 1.52 7.168a7.588 7.588 0 0 0-.26 2.112 9.576 9.576 0 0 0 1.088 4.47c1.379 2.694 3.935 5.003 8.002 7.23.479.262 1.324.695 1.426.73a.82.82 0 0 0 .224.03.82.82 0 0 0 .224-.03c.112-.038.98-.485 1.518-.78 3.128-1.72 5.377-3.523 6.86-5.5 1.114-1.482 1.813-3.122 2.048-4.8.114-.815.12-1.78.019-2.52-.176-1.267-.65-2.448-1.362-3.397-1.012-1.347-2.395-2.158-4.107-2.406-.387-.057-1.388-.052-1.762.008-1.312.21-2.35.774-3.294 1.79L12 4.26l-.144-.155c-.947-1.016-1.988-1.583-3.284-1.788-.208-.033-.375-.042-.812-.047-.302-.003-.59-.002-.64.002Zm.828 1.488c.318.021.439.038.717.101 1.025.234 1.883.868 2.642 1.953.234.335.422.441.748.422.267-.015.427-.122.64-.426 1.049-1.492 2.303-2.147 3.925-2.049a4.555 4.555 0 0 1 1.83.47 4.16 4.16 0 0 1 1.21.868c1.336 1.341 1.864 3.405 1.449 5.661-.241 1.31-.832 2.61-1.73 3.8-.968 1.286-2.302 2.49-4.065 3.668a30.91 30.91 0 0 1-2.91 1.72l-.404.214-.405-.214C6.6 17.31 3.867 14.562 3.019 11.33c-.326-1.242-.354-2.583-.078-3.675.257-1.018.726-1.88 1.379-2.536a4.206 4.206 0 0 1 1.23-.889 4.61 4.61 0 0 1 1.8-.469l.27-.018c.016 0 .164.007.328.017Z" clip-rule="evenodd"/>
</svg>
