<svg xmlns="http://www.w3.org/2000/svg" width="24" height="24" fill="none" viewBox="0 0 24 24">
  <path fill="#161C24" fill-rule="evenodd" d="M6.191 22.75a2.924 2.924 0 0 1-2.917-2.927L3.25 4.186A2.924 2.924 0 0 1 6.167 1.25h6.803a.97.97 0 0 1 .686.286l6.809 6.827a.98.98 0 0 1 .285.692v10.763a2.924 2.924 0 0 1-2.917 2.932H6.19ZM18.804 9.46l-6.237-6.254V7.96a1.5 1.5 0 0 0 1.5 1.5h4.737ZM7.254 18c0 .414.336.75.75.75h8a.75.75 0 0 0 0-1.5h-8a.75.75 0 0 0-.75.75Zm.75-3.25a.75.75 0 0 1 0-1.5h4a.75.75 0 0 1 0 1.5h-4Z" clip-rule="evenodd"/>
</svg>
