<svg xmlns="http://www.w3.org/2000/svg" width="24" height="24" fill="none" viewBox="0 0 24 24">
  <path fill="#161C24" fill-rule="evenodd" d="M6.188 1.25A2.924 2.924 0 0 0 3.27 4.177l-.024 15.637a2.924 2.924 0 0 0 2.917 2.936h6.803a.97.97 0 0 0 .687-.285l6.808-6.828a.98.98 0 0 0 .285-.692V4.182A2.924 2.924 0 0 0 17.83 1.25H6.188ZM18.8 14.54l-6.237 6.254V16.04a1.5 1.5 0 0 1 1.5-1.5H18.8ZM7.25 6A.75.75 0 0 1 8 5.25h8a.75.75 0 0 1 0 1.5H8A.75.75 0 0 1 7.25 6ZM8 9.25a.75.75 0 0 0 0 1.5h4a.75.75 0 0 0 0-1.5H8Z" clip-rule="evenodd"/>
</svg>
