<svg xmlns="http://www.w3.org/2000/svg" width="24" height="24" fill="none" viewBox="0 0 24 24">
  <path fill="#161C24" fill-rule="evenodd" d="M6.758 2.788a.856.856 0 0 0-.439.402l-.049.1v5.42l.049.1a.899.899 0 0 0 .356.362c.105.053.133.058.325.058s.22-.005.325-.058a.899.899 0 0 0 .356-.362l.049-.1V3.29l-.049-.1a.894.894 0 0 0-.355-.361c-.099-.05-.14-.06-.305-.063a.785.785 0 0 0-.263.022Zm10 0a.856.856 0 0 0-.439.402l-.049.1-.01.98-.01.98-.79.01c-.739.012-.799.015-.936.057a1.78 1.78 0 0 0-1.209 1.217l-.045.156v4.62l.045.156a1.772 1.772 0 0 0 1.219 1.219l.156.045h4.62l.156-.045c.168-.05.39-.153.534-.252a1.82 1.82 0 0 0 .685-.967l.045-.156V6.69l-.045-.156a1.78 1.78 0 0 0-1.209-1.217c-.137-.042-.197-.045-.936-.056l-.79-.011-.01-.98-.01-.98-.049-.1a.894.894 0 0 0-.355-.361c-.099-.05-.14-.06-.305-.063a.785.785 0 0 0-.263.022Zm2.368 3.997c.029.02.069.06.089.089.033.05.035.18.035 2.126s-.002 2.075-.035 2.126a.417.417 0 0 1-.089.089c-.051.033-.18.035-2.126.035s-2.075-.002-2.126-.035a.417.417 0 0 1-.089-.09c-.033-.05-.035-.182-.041-2.054-.003-1.101 0-2.04.006-2.086.015-.103.09-.198.177-.223.036-.011.919-.017 2.104-.015 1.913.003 2.044.005 2.095.038ZM4.72 11.274c-.235.04-.52.156-.72.293a1.82 1.82 0 0 0-.685.967l-.045.156v4.62l.045.156a1.78 1.78 0 0 0 1.209 1.217c.137.042.197.045.936.056l.79.01.01.98.01.98.058.116c.07.137.223.288.362.356.087.043.128.049.31.049s.223-.006.31-.05a.899.899 0 0 0 .362-.355l.058-.115.01-.98.01-.98.79-.011c.739-.011.799-.014.936-.056a1.78 1.78 0 0 0 1.209-1.217l.045-.156v-4.62l-.045-.156a2.106 2.106 0 0 0-.252-.534 1.842 1.842 0 0 0-.957-.684l-.146-.045-2.28-.003c-1.254-.002-2.302 0-2.33.006Zm4.406 1.51a.4.4 0 0 1 .089.09c.033.05.035.18.035 2.126s-.002 2.075-.035 2.126a.417.417 0 0 1-.089.089c-.051.033-.18.035-2.126.035s-2.075-.002-2.126-.035a.417.417 0 0 1-.089-.09c-.033-.05-.035-.182-.041-2.054-.003-1.101 0-2.04.006-2.086.015-.103.09-.198.177-.223.037-.011.899-.017 2.104-.015 1.913.003 2.044.005 2.095.038Zm7.632 2.004a.856.856 0 0 0-.439.402l-.049.1v5.42l.049.1a.899.899 0 0 0 .356.362c.105.053.133.058.325.058s.22-.005.325-.058a.899.899 0 0 0 .356-.362l.049-.1v-5.42l-.049-.1a.894.894 0 0 0-.355-.361c-.099-.05-.14-.06-.305-.063a.785.785 0 0 0-.263.022Z" clip-rule="evenodd"/>
</svg>
