<svg xmlns="http://www.w3.org/2000/svg" width="24" height="24" fill="none" viewBox="0 0 24 24">
  <path fill="#161C24" fill-rule="evenodd" d="M7 21.5a1 1 0 0 1-1-1V18a1 1 0 1 1 2 0v2.5a1 1 0 0 1-1 1Zm10 0a1 1 0 0 1-1-1v-5a1 1 0 1 1 2 0v5a1 1 0 0 1-1 1Zm1-18V6a1 1 0 1 1-2 0V3.5a1 1 0 1 1 2 0Zm-10 0v5a1 1 0 1 1-2 0v-5a1 1 0 0 1 2 0Z" clip-rule="evenodd"/>
  <path fill="#161C24" fill-rule="evenodd" d="M13.25 7c0-.966.784-1.75 1.75-1.75h4c.966 0 1.75.784 1.75 1.75v4A1.75 1.75 0 0 1 19 12.75h-4A1.75 1.75 0 0 1 13.25 11V7Zm-10 6c0-.966.784-1.75 1.75-1.75h4c.966 0 1.75.784 1.75 1.75v4A1.75 1.75 0 0 1 9 18.75H5A1.75 1.75 0 0 1 3.25 17v-4Z" clip-rule="evenodd"/>
</svg>
