<svg xmlns="http://www.w3.org/2000/svg" width="24" height="24" fill="none" viewBox="0 0 24 24">
  <path fill="#161C24" fill-rule="evenodd" d="M12 4a8 8 0 0 0-7.802 9.779 1 1 0 1 1-1.95.442A10.028 10.028 0 0 1 2 12C2 6.477 6.477 2 12 2s10 4.477 10 10a4 4 0 1 1-8 0 2 2 0 0 0-4 0c0 .718.107 1.928.83 3.357.722 1.427 2.09 3.134 4.707 4.8a1 1 0 1 1-1.074 1.687c-2.883-1.835-4.515-3.8-5.418-5.584C8.143 14.478 8 12.938 8 12a4 4 0 0 1 8 0 2 2 0 1 0 4 0 8 8 0 0 0-8-8Zm0 3a5 5 0 0 0-5 5c0 3.037.889 5.01 2.78 7.375a1 1 0 1 1-1.561 1.25C6.111 17.99 5 15.59 5 12a7 7 0 0 1 14 0 1 1 0 1 1-2 0 5 5 0 0 0-5-5Zm-.1 4.005a1 1 0 0 1 1.095.895c.277 2.765 2.148 4.508 3.557 5.442.388.257 1.08.608 1.32.729a1 1 0 0 1-.744 1.857l-.015-.007c-.1-.045-.353-.158-.494-.229a12.184 12.184 0 0 1-1.171-.682c-1.623-1.075-4.08-3.274-4.443-6.91a1 1 0 0 1 .896-1.095Z" clip-rule="evenodd"/>
</svg>
