<svg xmlns="http://www.w3.org/2000/svg" width="24" height="24" fill="none" viewBox="0 0 24 24">
  <path fill="#161C24" fill-rule="evenodd" d="M10.583 1.309a.75.75 0 0 1 .655.036c2.348 1.306 4.93 3.594 6.875 6.157 1.926 2.538 3.345 5.5 3.112 8.146-.184 2.082-1.05 3.663-2.35 4.82-1.284 1.143-2.952 1.843-4.713 2.262a.75.75 0 0 1-.78-1.17l.001-.002.004-.005.016-.022a14.389 14.389 0 0 0 .305-.445c.202-.303.475-.73.76-1.225.576-1 1.153-2.197 1.336-3.183.154-1.626-.354-2.97-1.059-3.996a6.956 6.956 0 0 0-.893-1.055c.003.128.003.261 0 .398-.024 1.193-.288 2.786-1.381 3.989a.75.75 0 0 1-1.272-.285c-.473-1.54-1.22-2.26-1.793-2.606.008.219-.005.431-.036.638-.092.61-.335 1.124-.59 1.56-.127.218-.263.425-.387.615l-.023.034c-.119.18-.226.344-.324.507-.208.347-.335.635-.375.92-.218 1.532.23 2.507.69 3.099.236.304.484.518.671.653a2.597 2.597 0 0 0 .27.173l.006.003h-.002v-.001l.002.001a.75.75 0 0 1-.576 1.382c-3.56-1.256-5.311-3.717-5.82-6.227-.495-2.438.185-4.943 1.496-6.329.521-.62 1.01-1.186 1.466-1.715 2.17-2.515 3.605-4.18 4.276-6.634a.75.75 0 0 1 .433-.493Z" clip-rule="evenodd"/>
</svg>
