<svg xmlns="http://www.w3.org/2000/svg" width="24" height="24" fill="none" viewBox="0 0 24 24">
  <path fill="#161C24" fill-rule="evenodd" d="M8.55 1.252a.75.75 0 0 0-.732 1.06l.004.01.026.068c.024.066.058.17.091.31.067.278.132.691.109 1.204-.045 1.01-.432 2.467-1.926 4.088-.625.678-1.103 1.382-1.419 2.21-.315.825-.453 1.732-.453 2.798 0 2.919 2.901 6.75 7.75 6.75 2.937 0 4.93-.914 6.168-2.361 1.22-1.426 1.607-3.254 1.582-4.9-.025-1.698-.431-3.38-1.13-4.41a.75.75 0 0 0-1.342.217c-.206.73-.763 1.222-1.353 1.547a4.264 4.264 0 0 1-.131.07l-.005-.27c-.025-.849-.14-2-.511-3.18-.371-1.181-1.008-2.421-2.096-3.403-1.097-.99-2.605-1.673-4.632-1.808ZM11.776 9.2a.75.75 0 0 0-1.22-.762v.001l-.002.001-.003.003-.011.01a3.208 3.208 0 0 0-.156.148c-.1.099-.237.24-.394.42a8.231 8.231 0 0 0-1.051 1.498c-.674 1.25-1.148 3.066.03 4.888a.73.73 0 0 0 .027.039c.451.61 1.039 1.066 1.773 1.295.727.226 1.537.21 2.41-.015 1.366-.352 1.857-1.44 2.006-2.283a4.69 4.69 0 0 0 .006-1.538l-.005-.031-.002-.01v-.006h-.001a.75.75 0 0 0-1.16-.477l-.007.005a3.893 3.893 0 0 1-.689.352c-.448.174-.78.188-.96.095-.44-.226-.707-.738-.786-1.52-.077-.764.051-1.593.195-2.113ZM5.5 19.75a.75.75 0 1 0 0 1.5.75.75 0 0 0 0-1.5Zm-2.25.75a2.25 2.25 0 1 1 4.5 0 2.25 2.25 0 0 1-4.5 0Z" clip-rule="evenodd"/>
  <path fill="#161C24" d="M8.117 22.75h10.385a2.25 2.25 0 0 0 0-4.5H8.117c.52.604.835 1.39.835 2.25 0 .86-.315 1.646-.835 2.25Z"/>
</svg>
