<svg xmlns="http://www.w3.org/2000/svg" width="24" height="24" fill="none" viewBox="0 0 24 24">
  <path fill="#161C24" d="m7.818 2.314.002.002a.75.75 0 0 1 .73-1.064l.374.031c1.84.19 3.229.85 4.258 1.778 1.087.981 1.724 2.221 2.095 3.402.371 1.18.486 2.331.511 3.18.003.093 0 .184.001.27.045-.023.091-.044.137-.07.59-.325 1.146-.817 1.352-1.547l.037-.102a.75.75 0 0 1 1.305-.115c.698 1.03 1.105 2.712 1.13 4.41v.31c-.027 1.563-.438 3.253-1.582 4.59C16.93 18.836 14.936 19.75 12 19.75c-4.849 0-7.75-3.831-7.75-6.75 0-1.066.138-1.973.453-2.798.316-.827.794-1.533 1.42-2.21l.267-.303c1.273-1.498 1.615-2.837 1.658-3.785A4.344 4.344 0 0 0 7.939 2.7a2.961 2.961 0 0 0-.117-.377l-.004-.008ZM5.75 13c0 2.081 2.22 5.25 6.25 5.25 2.613 0 4.142-.8 5.028-1.836.848-.99 1.199-2.303 1.222-3.636v-.267a9.1 9.1 0 0 0-.333-2.352c-.395.446-.855.77-1.267.997a6.094 6.094 0 0 1-1.454.569l-.03.006-.01.002-.003.001h-.002L15 11l.15.734a.75.75 0 0 1-.895-.822v-.014l.007-.06a11.023 11.023 0 0 0 .027-1.153c-.022-.76-.126-1.766-.442-2.773-.317-1.007-.836-1.986-1.67-2.738-.646-.583-1.51-1.056-2.683-1.29a6 6 0 0 1 .053 1.087c-.057 1.279-.524 2.935-2.01 4.686l-.312.352c-.529.573-.888 1.118-1.12 1.727-.234.612-.355 1.33-.355 2.264Z"/>
  <path fill="#161C24" d="M13.179 16.727a.75.75 0 0 1-.374-1.454l.374 1.454Zm-2.622-8.289a.75.75 0 0 1 1.242.642l-.023.12c-.144.52-.272 1.349-.195 2.112.08.783.346 1.294.785 1.52l.075.031c.19.057.494.027.886-.125a3.899 3.899 0 0 0 .654-.33l.035-.022.007-.005h-.001a.75.75 0 0 1 1.16.476v.003l.002.003.002.01.005.031c.004.025.01.06.015.103a4.69 4.69 0 0 1-.022 1.436c-.148.843-.64 1.931-2.005 2.284L12.992 16l-.187-.727c.568-.146.804-.553.9-1.078-.493.17-1.207.317-1.878.04l-.148-.068c-1.079-.556-1.466-1.66-1.578-2.617-.393.863-.534 1.84-.003 2.822l.13.22.039.067a.75.75 0 0 1-1.253.81l-.045-.062-.105-.17c-1.043-1.765-.577-3.507.075-4.718a8.23 8.23 0 0 1 1.445-1.918l.12-.116.035-.032.011-.01.004-.003.002-.002.497.562-.496-.562ZM6.25 20.5a.75.75 0 1 0-1.5 0 .75.75 0 0 0 1.5 0Zm1.5 0a2.25 2.25 0 1 1-4.5 0 2.25 2.25 0 0 1 4.5 0Z"/>
  <path fill="#161C24" d="M19.25 20.5a.75.75 0 0 0-.75-.75h-13a.75.75 0 0 1 0-1.5h13a2.25 2.25 0 0 1 0 4.5h-13a.75.75 0 0 1 0-1.5h13a.75.75 0 0 0 .75-.75Z"/>
</svg>
