<svg xmlns="http://www.w3.org/2000/svg" width="24" height="24" fill="none" viewBox="0 0 24 24">
  <path fill="#161C24" fill-rule="evenodd" d="M17 2.25a.75.75 0 0 1 .75.75v.01a.75.75 0 0 1-1.5 0V3a.75.75 0 0 1 .75-.75ZM6.279 3.304a.75.75 0 0 0-.558 1.393c2.59 1.035 4.126 3.05 4.916 4.681-4.246-2.078-7.68-1.018-9.09.05a.75.75 0 0 0 .906 1.195c.922-.699 3.683-1.709 7.36.023-.625.223-1.219.519-1.752.833a13.405 13.405 0 0 0-2.595 1.995.75.75 0 1 0 1.068 1.053 11.92 11.92 0 0 1 2.289-1.756 9.23 9.23 0 0 1 1.183-.593c-.211.297-.431.631-.651 1.002C8.3 14.96 7.25 17.59 7.25 21a.75.75 0 0 0 1.5 0c0-3.09.95-5.46 1.895-7.055.444-.749.887-1.326 1.228-1.726.618 1.043 1.088 2.689.78 5.705a.75.75 0 1 0 1.493.152c.255-2.508.017-4.249-.463-5.532.266.148.546.319.833.514 1.463.995 3.071 2.611 3.76 5.14a.75.75 0 1 0 1.448-.395c-.81-2.972-2.703-4.856-4.365-5.986-.78-.53-1.515-.899-2.077-1.142 1.468-1.477 4.461-3.21 8.495-1.956a.75.75 0 1 0 .446-1.432c-4.01-1.248-7.17.035-9.116 1.55.573-1.682 1.693-2.802 2.31-3.213a.75.75 0 0 0-.833-1.248c-.813.542-2.145 1.874-2.854 3.852-.98-1.798-2.702-3.824-5.451-4.924Zm7.471 17.188a.75.75 0 0 0-1.5 0v.01a.75.75 0 0 0 1.5 0v-.01Zm7-8.492a.75.75 0 0 0-1.5 0v.01a.75.75 0 0 0 1.5 0V12ZM11 3.25a.75.75 0 0 1 .75.75v.01a.75.75 0 0 1-1.5 0V4a.75.75 0 0 1 .75-.75ZM18.75 11a.75.75 0 0 0-1.5 0v.01a.75.75 0 0 0 1.5 0V11ZM3 2.25a.75.75 0 0 1 .75.75v.01a.75.75 0 0 1-1.5 0V3A.75.75 0 0 1 3 2.25ZM4.75 16a.75.75 0 0 0-1.5 0v.01a.75.75 0 0 0 1.5 0V16Z" clip-rule="evenodd"/>
</svg>
