<svg xmlns="http://www.w3.org/2000/svg" width="24" height="24" fill="none" viewBox="0 0 24 24">
  <path fill="#161C24" d="M7.25 21c0-3.41 1.05-6.041 2.104-7.82a13.772 13.772 0 0 1 1.456-2.025 9.947 9.947 0 0 1 .634-.664l.042-.038.013-.011.004-.004.002-.001.17.192-.17-.193a.75.75 0 0 1 .692-.16L12 11l.198-.724h.001l.002.001.005.002c.004.002.01.002.017.004l.057.018c.048.014.115.035.2.063.168.057.406.144.694.265a12.62 12.62 0 0 1 2.185 1.188c1.61 1.095 3.436 2.897 4.286 5.71l.079.276.016.075a.75.75 0 0 1-1.44.393l-.024-.074-.14-.463c-.75-2.264-2.248-3.743-3.62-4.676a11.119 11.119 0 0 0-1.924-1.046 9.252 9.252 0 0 0-.394-.155 9.534 9.534 0 0 0-.258.285c-.35.4-.821 1.005-1.294 1.803C9.7 15.541 8.75 17.91 8.75 21a.75.75 0 1 1-1.5 0Z"/>
  <path fill="#161C24" d="M11.83 10.036c1.565-1.8 5.074-4.155 9.872-2.898l.52.149.073.026a.75.75 0 0 1-.444 1.425l-.074-.02-.445-.126c-4.261-1.118-7.293 1.092-8.493 2.575l-.223.295a.75.75 0 0 1-1.035.195c-4.548-3.063-8.063-1.84-9.128-1.034l-.063.043a.75.75 0 0 1-.843-1.24l.158-.113c1.64-1.123 5.491-2.112 10.125.723Z"/>
  <path fill="#161C24" d="M5.304 3.722a.75.75 0 0 1 .902-.444l.072.026.397.168c2.52 1.13 4.122 3.048 5.055 4.758.709-1.98 2.04-3.312 2.854-3.854a.75.75 0 1 1 .832 1.248c-.85.567-2.666 2.49-2.666 5.376l-.014.142a.75.75 0 0 1-1.43.141l-.041-.135c-.292-1.459-1.756-4.76-5.203-6.307l-.34-.145-.07-.032a.75.75 0 0 1-.348-.942Z"/>
  <path fill="#161C24" d="M12.002 10.255a.75.75 0 0 1 .49.26c1.143 1.352 2.077 3.4 1.653 7.561a.75.75 0 1 1-1.492-.152c.356-3.494-.33-5.148-1.083-6.157-.894.084-1.854.478-2.748 1.005-1 .589-1.837 1.297-2.288 1.754a.75.75 0 0 1-1.068-1.052 13.415 13.415 0 0 1 2.595-1.995c1.11-.654 2.481-1.229 3.859-1.229l.082.005Zm.248 10.247v-.01a.75.75 0 0 1 1.5 0v.01l-.004.077a.75.75 0 0 1-1.492 0l-.004-.077Zm4-17.492V3a.75.75 0 0 1 1.5 0v.01a.75.75 0 0 1-1.5 0Zm3 9V12a.75.75 0 0 1 1.5 0v.01a.75.75 0 0 1-1.5 0Zm-9-8V4a.75.75 0 0 1 1.5 0v.01a.75.75 0 0 1-1.5 0Zm7 7V11a.75.75 0 0 1 1.5 0v.01a.75.75 0 0 1-1.5 0Zm-15-8V3a.75.75 0 0 1 1.5 0v.01a.75.75 0 0 1-1.5 0Zm1 13V16a.75.75 0 0 1 1.5 0v.01a.75.75 0 0 1-1.5 0Z"/>
</svg>
