<svg xmlns="http://www.w3.org/2000/svg" width="24" height="24" fill="none" viewBox="0 0 24 24">
  <path fill="#161C24" fill-rule="evenodd" d="M7.66 2.282a8.91 8.91 0 0 0-1.96.415c-.72.243-1.501.642-2.025 1.033-.231.173-.319.276-.376.438-.039.11-.039.208-.034 8.577l.005 8.465.049.1a.899.899 0 0 0 .356.362c.105.053.133.058.325.058s.22-.005.325-.058a.899.899 0 0 0 .356-.362l.049-.1.01-3.042.01-3.043.1-.088a4.818 4.818 0 0 1 1.663-.934 4.926 4.926 0 0 1 1.589-.277c.752-.02 1.366.076 2.146.336.37.124.673.253 1.259.537 1.25.607 2.25.892 3.543 1.012.484.045 1.484.031 1.97-.028 1.205-.146 2.224-.44 3.145-.906.31-.157.419-.25.509-.432l.056-.115V3.809l-.066-.133a.759.759 0 0 0-.364-.354c-.095-.044-.136-.051-.3-.051l-.19.001-.338.145a9.809 9.809 0 0 1-1.872.581 8.465 8.465 0 0 1-2.91.041 8.833 8.833 0 0 1-2.489-.818c-1.118-.561-1.947-.811-3.079-.931a11.479 11.479 0 0 0-1.462-.008Zm1.1 1.479a6.444 6.444 0 0 1 1.65.322c.342.115.6.225 1.08.458 1.262.611 2.254.91 3.49 1.05.388.044 1.343.061 1.733.03a10.277 10.277 0 0 0 2.249-.422c.139-.044.263-.079.275-.079.017 0 .023 1.081.023 4.218v4.218l-.175.073c-1.339.563-2.987.754-4.485.52a8.379 8.379 0 0 1-2.318-.738 16.672 16.672 0 0 0-1.139-.519c-1.842-.728-3.769-.757-5.473-.082a7.498 7.498 0 0 0-.753.36c-.085.05-.16.09-.166.09-.006 0-.011-1.901-.011-4.225V4.81l.075-.049c.602-.393 1.481-.733 2.295-.888a5.956 5.956 0 0 1 1.65-.112Z" clip-rule="evenodd"/>
</svg>
