<svg xmlns="http://www.w3.org/2000/svg" width="24" height="24" fill="none" viewBox="0 0 24 24">
  <path fill="#161C24" fill-rule="evenodd" d="M1.25 12C1.25 6.063 6.063 1.25 12 1.25S22.75 6.063 22.75 12 17.937 22.75 12 22.75 1.25 17.937 1.25 12ZM8.5 8.75a.75.75 0 1 0 0 1.5.75.75 0 0 0 0-1.5Zm-2.25.75a2.25 2.25 0 1 1 4.5 0 2.25 2.25 0 0 1-4.5 0Zm9.25-.75a.75.75 0 1 0 0 1.5.75.75 0 0 0 0-1.5Zm-2.25.75a2.25 2.25 0 1 1 4.5 0 2.25 2.25 0 0 1-4.5 0ZM9 15.25a.75.75 0 0 0 0 1.5h6a.75.75 0 0 0 0-1.5H9Z" clip-rule="evenodd"/>
</svg>
