<svg xmlns="http://www.w3.org/2000/svg" width="24" height="24" fill="none" viewBox="0 0 24 24">
  <path fill="#161C24" fill-rule="evenodd" d="M2.72 2.274c-.23.04-.52.156-.72.293a1.85 1.85 0 0 0-.685.957l-.045.146-.006 7.79c-.006 8.518-.014 7.913.107 8.333.056.195.223.551.346.737a2.777 2.777 0 0 0 1.838 1.179c.155.027 1.104.031 8.435.031 8.994 0 8.39.007 8.801-.11.197-.057.552-.223.74-.347a2.777 2.777 0 0 0 1.178-1.838c.027-.154.031-.8.031-5.44 0-4.66-.004-5.288-.03-5.458a2.796 2.796 0 0 0-.705-1.428c-.409-.435-.885-.695-1.525-.833-.135-.029-.555-.034-4.122-.04l-3.972-.007-1.247-1.655c-.902-1.195-1.295-1.7-1.419-1.824-.25-.248-.529-.4-.864-.468-.137-.028-.488-.032-3.12-.029-1.63.001-2.988.006-3.016.011Zm5.914 1.518c.031.023.464.581.962 1.24l.906 1.198-1.336.01-1.336.01-.13.062a.827.827 0 0 0-.378.368c-.046.096-.052.136-.052.32 0 .201.003.215.068.335a.789.789 0 0 0 .358.342l.114.053 6.21.01 6.21.01.16.055c.394.134.708.468.823.875.035.125.037.346.037 5.31 0 4.285-.005 5.199-.027 5.29a1.3 1.3 0 0 1-.943.943c-.164.04-16.396.04-16.56 0a1.317 1.317 0 0 1-.935-.903c-.032-.103-.035-.61-.04-7.68-.004-4.164 0-7.608.005-7.655.015-.103.09-.198.177-.223.037-.01 1.196-.017 2.857-.015l2.793.003.057.042Z" clip-rule="evenodd"/>
</svg>
