<svg xmlns="http://www.w3.org/2000/svg" width="24" height="24" fill="none" viewBox="0 0 24 24">
  <path fill="#161C24" fill-rule="evenodd" d="M7.78 1.289c-1.331.239-2.3 1.226-2.498 2.545a6.74 6.74 0 0 0 .006 1.136c.067.431.226.879.424 1.194.027.041.048.08.048.086 0 .005-.547.01-1.215.01-1.108.001-1.231.004-1.396.038a1.765 1.765 0 0 0-1.22.972c-.163.343-.156.267-.164 1.669-.008 1.357-.005 1.401.105 1.68.158.403.508.773.904.956.064.029.197.077.296.105l.18.053.01 4.338c.01 4.081.013 4.348.047 4.489.118.495.318.892.63 1.252.406.468.98.786 1.62.898.157.027.898.03 6.435.03 6.81 0 6.39.007 6.799-.11.196-.056.554-.224.733-.344.592-.396.992-.987 1.169-1.726.034-.141.036-.408.046-4.488l.01-4.338.175-.046a1.795 1.795 0 0 0 1.286-1.341c.044-.215.044-2.479 0-2.694a1.685 1.685 0 0 0-.437-.828 1.865 1.865 0 0 0-.817-.509c-.143-.044-.168-.045-1.431-.051a46.603 46.603 0 0 1-1.285-.016c0-.006.02-.044.048-.085.198-.315.357-.763.424-1.194a6.74 6.74 0 0 0 .006-1.136 3.002 3.002 0 0 0-2.576-2.555c-.215-.031-.863-.014-1.122.03a4.544 4.544 0 0 0-2.884 1.761.89.89 0 0 1-.136.16.707.707 0 0 1-.124-.143A4.641 4.641 0 0 0 10.61 1.92a4.68 4.68 0 0 0-1.63-.611c-.26-.045-.997-.057-1.2-.02Zm.89 1.493c.335.042.753.184 1.059.36.584.334 1.07.891 1.3 1.488.158.405.207.673.225 1.225l.012.385H9.758c-1.437 0-1.516-.002-1.674-.04a1.646 1.646 0 0 1-.791-.439c-.347-.331-.512-.706-.544-1.231-.035-.585.108-1.008.456-1.348.383-.374.79-.485 1.465-.4Zm7.424.01c.273.06.483.177.704.393.345.337.488.762.453 1.345-.031.504-.178.856-.5 1.187a1.696 1.696 0 0 1-.836.483c-.157.038-.241.04-1.673.04h-1.508l.013-.395c.018-.555.064-.805.223-1.216.23-.597.716-1.152 1.3-1.487.56-.321 1.308-.465 1.824-.35Zm4.504 4.998a.447.447 0 0 1 .11.096c.04.056.042.071.042 1.114 0 1.043-.001 1.058-.042 1.114a.447.447 0 0 1-.11.096c-.068.04-.104.04-8.598.04-8.494 0-8.53 0-8.598-.04a.45.45 0 0 1-.11-.097c-.042-.056-.042-.065-.036-1.12.007-1.147.004-1.113.115-1.185a.384.384 0 0 1 .114-.046c.035-.008 3.885-.013 8.555-.013 8.453.001 8.49.001 8.558.041ZM11.25 16.5v4.75H8.54c-2.21 0-2.73-.005-2.82-.027a1.317 1.317 0 0 1-.935-.903c-.031-.102-.034-.428-.04-4.319-.003-2.316-.001-4.221.004-4.235.008-.021.629-.025 3.255-.021l3.246.005v4.75Zm8-.54c0 3.47-.005 4.229-.027 4.32a1.3 1.3 0 0 1-.667.837c-.297.141-.102.133-3.096.133h-2.71l-.005-4.73a617.16 617.16 0 0 1 .004-4.755c.008-.02.669-.024 3.255-.02l3.246.005v4.21Z" clip-rule="evenodd"/>
</svg>
