<svg xmlns="http://www.w3.org/2000/svg" width="24" height="24" fill="none" viewBox="0 0 24 24">
  <path fill="#161C24" fill-rule="evenodd" d="M11.74 1.253c-1.477.047-2.85.361-4.175.955a10.813 10.813 0 0 0-5.357 5.357A10.617 10.617 0 0 0 1.257 12c0 1.559.31 3.008.95 4.435a10.818 10.818 0 0 0 3.937 4.579 10.745 10.745 0 0 0 7.219 1.645 10.64 10.64 0 0 0 5.287-2.217 10.726 10.726 0 0 0 4.009-9.805 10.64 10.64 0 0 0-2.217-5.287A10.745 10.745 0 0 0 13.9 1.42a12.266 12.266 0 0 0-2.16-.167Zm-1.643 1.724a61.04 61.04 0 0 1-.29.385C8.628 4.931 7.743 6.695 7.252 8.45c-.245.876-.373 1.6-.467 2.64l-.014.16-1.995.005c-1.915.005-1.995.004-1.995-.031 0-.077.08-.684.119-.887A9.298 9.298 0 0 1 4.708 6.31 10.03 10.03 0 0 1 6.31 4.708 9.294 9.294 0 0 1 9.9 2.989c.237-.057.23-.057.197-.012Zm4.003.014a9.32 9.32 0 0 1 3.59 1.717 10.03 10.03 0 0 1 1.602 1.602 9.296 9.296 0 0 1 1.809 4.027c.038.203.119.81.119.887 0 .035-.08.036-1.995.031l-1.995-.005-.014-.15a14.15 14.15 0 0 0-.197-1.501c-.4-2.144-1.387-4.322-2.828-6.237-.36-.478-.327-.429-.28-.417.02.006.107.027.189.046Zm-1.842.36c1.746 1.985 2.94 4.412 3.333 6.769.054.323.129.943.129 1.065v.075H8.28v-.083a7.5 7.5 0 0 1 .04-.435c.26-2.213 1.119-4.328 2.567-6.322.429-.59 1.069-1.351 1.122-1.334.012.004.123.123.249.265ZM6.804 13.12c.192 2.112.865 4.117 2.042 6.09.306.513.88 1.349 1.188 1.728.048.059.084.11.08.114a1.708 1.708 0 0 1-.205-.04 9.297 9.297 0 0 1-3.6-1.72 10.03 10.03 0 0 1-1.601-1.602 9.303 9.303 0 0 1-1.81-4.027 13.15 13.15 0 0 1-.118-.887c0-.035.08-.036 1.995-.031l1.995.005.034.37Zm8.916-.305c0 .122-.075.742-.13 1.065-.356 2.145-1.363 4.321-2.882 6.23-.308.387-.674.8-.708.8-.058 0-.73-.802-1.113-1.33-1.447-1.993-2.306-4.109-2.566-6.322a7.5 7.5 0 0 1-.041-.435v-.083h7.44v.075Zm5.5-.039c0 .077-.081.684-.12.887a9.303 9.303 0 0 1-1.808 4.027 10.03 10.03 0 0 1-1.602 1.602 9.297 9.297 0 0 1-3.6 1.72 1.71 1.71 0 0 1-.205.04.567.567 0 0 1 .08-.114c.293-.36.875-1.203 1.16-1.678 1.228-2.049 1.918-4.136 2.086-6.31.008-.099.018-.187.023-.195.004-.008.903-.015 1.997-.015 1.905 0 1.989.002 1.989.036Z" clip-rule="evenodd"/>
</svg>
