<svg xmlns="http://www.w3.org/2000/svg" width="24" height="24" fill="none" viewBox="0 0 24 24">
  <path fill="#161C24" fill-rule="evenodd" d="M11.19 1.282a10.795 10.795 0 0 0-3.625.926 10.813 10.813 0 0 0-5.357 5.357A10.52 10.52 0 0 0 1.26 12c0 1.576.304 3.001.948 4.435a10.821 10.821 0 0 0 5.357 5.357c1.43.642 2.86.947 4.435.947 1.574 0 3.004-.305 4.435-.947a10.829 10.829 0 0 0 5.357-5.357c.642-1.431.947-2.861.947-4.435 0-1.574-.305-3.004-.947-4.435a10.821 10.821 0 0 0-5.357-5.357 10.47 10.47 0 0 0-4.475-.945c-.313.001-.66.01-.77.019Zm1.18 1.478a9.027 9.027 0 0 1 3.646.911 8.802 8.802 0 0 1 2.074 1.37c.222.194.282.254.268.267a3.385 3.385 0 0 1-.198.091c-.674.301-1.197.712-1.722 1.355-.332.407-.523.611-.763.817-.461.395-.894.615-1.316.668-.604.076-1.204-.275-1.357-.793a7.679 7.679 0 0 1-.122-.616c-.103-.619-.165-.832-.333-1.152a2.13 2.13 0 0 0-.441-.579 2.676 2.676 0 0 0-.64-.458 2.76 2.76 0 0 1-.317-.199c-.254-.211-.39-.55-.393-.982-.002-.212.043-.554.08-.615.02-.031.323-.066.734-.084.187-.008.345-.016.35-.018.005-.001.208.006.45.017ZM9.327 4.12c.18.834.643 1.429 1.429 1.842.193.101.354.237.44.372.087.138.134.315.223.846.043.259.102.55.13.649.219.747.676 1.279 1.404 1.633.42.204.718.268 1.247.268.336 0 .419-.006.6-.047.96-.215 1.844-.817 2.662-1.818.289-.352.373-.444.557-.611a3.227 3.227 0 0 1 1.307-.685c.16-.042.113-.081.38.321a9.26 9.26 0 0 1 1.395 3.447c.098.531.17 1.461.144 1.849-.01.149-.013.156-.054.146a3.837 3.837 0 0 0-.736-.072c-.476 0-.865.079-1.286.26-.263.113-.42.201-.78.44-.428.284-.717.426-1.11.541-.34.1-.533.127-1.24.169-.268.016-.557.039-.64.051-.721.105-1.212.449-1.526 1.073-.275.545-.307 1.164-.091 1.78.034.097.172.406.308.686.274.569.328.699.389.929.127.487.095.931-.112 1.556a7.55 7.55 0 0 1-.553 1.165l-.108.18-.118.024a9.965 9.965 0 0 1-1.186.124 9.224 9.224 0 0 1-2.785-.3l-.153-.042.058-.141c.153-.37.218-.72.218-1.162-.001-.564-.077-.924-.391-1.863-.232-.694-.311-.976-.35-1.26-.011-.088-.03-.655-.04-1.26-.017-1.113-.031-1.329-.111-1.719-.14-.682-.538-1.238-1.101-1.535-.563-.297-1.117-.396-2.44-.436-.535-.016-.65-.025-.858-.069a4.009 4.009 0 0 1-1.155-.443c-.232-.14-.454-.294-.454-.317A9.322 9.322 0 0 1 4.708 6.31 10.03 10.03 0 0 1 6.31 4.708a8.77 8.77 0 0 1 1.674-1.037c.396-.192.547-.255.966-.402l.3-.105.014.363c.01.273.025.42.063.593ZM3.28 12.66c.383.153.804.262 1.23.32.088.012.448.03.8.04.633.019 1.004.05 1.285.109.764.161.865.393.865 1.991 0 .751.025 1.312.072 1.64.05.354.139.681.377 1.39.268.797.335 1.081.336 1.43 0 .261-.032.428-.125.633a2.26 2.26 0 0 1-.068.142c-.011.011-.43-.202-.67-.339a9.005 9.005 0 0 1-1.975-1.538 8.758 8.758 0 0 1-1.736-2.462 9.166 9.166 0 0 1-.902-3.402l-.014-.197.162.081c.089.045.252.118.363.162Zm17.577 1.139c.103.021.192.043.198.049.013.013-.06.331-.146.642a9.358 9.358 0 0 1-1.095 2.46 9.378 9.378 0 0 1-3.207 3.072c-.211.122-.89.462-.901.451a1.76 1.76 0 0 1 .066-.204 4.343 4.343 0 0 0 .269-1.499c0-.35-.018-.525-.08-.81-.09-.412-.181-.648-.527-1.37-.244-.509-.294-.645-.294-.804 0-.147.068-.344.153-.444.1-.118.244-.146.917-.182 1.282-.068 2.04-.306 2.985-.934.429-.286.605-.371.905-.435.193-.041.535-.038.757.008Z" clip-rule="evenodd"/>
</svg>
