<svg xmlns="http://www.w3.org/2000/svg" width="24" height="24" fill="none" viewBox="0 0 24 24">
  <path fill="#161C24" d="M8.47 9.5a4.265 4.265 0 0 1 6.03 0l.152.158a4.265 4.265 0 0 1-.151 5.872.75.75 0 1 1-1.06-1.06 2.765 2.765 0 0 0 .189-3.7l-.19-.21a2.765 2.765 0 0 0-3.91 0 .75.75 0 1 1-1.06-1.061Z"/>
  <path fill="#161C24" d="M3.26 6.245c.66-.736 1.779-.674 2.43-.023L17.777 18.31l.123.136c.534.663.542 1.679-.145 2.294l-.158.126a10.337 10.337 0 0 1-5.967 1.885c-5.733 0-10.38-4.647-10.38-10.38 0-2.22.697-4.279 1.885-5.967l.126-.158Zm-.51 6.125a8.88 8.88 0 0 0 13.983 7.268l.04-.043a.135.135 0 0 0 .014-.057.216.216 0 0 0-.036-.126l-.034-.042L4.63 7.283a.227.227 0 0 0-.168-.07.134.134 0 0 0-.058.014l-.042.04A8.837 8.837 0 0 0 2.75 12.37Zm12.345-7.62.076.014.363.097a5.373 5.373 0 0 1 2.256 1.34l.265.283a5.392 5.392 0 0 1 1.08 1.98l.097.366.014.076a.75.75 0 0 1-1.454.337l-.02-.073-.073-.27a3.892 3.892 0 0 0-.781-1.436l-.189-.202a3.872 3.872 0 0 0-1.63-.965l-.27-.072-.074-.022a.75.75 0 0 1 .34-1.453Zm.539-3.496c1.83.188 3.541.92 4.865 2.241l.242.253c1.097 1.202 1.742 2.689 1.964 4.28l.04.343.005.077a.75.75 0 0 1-1.485.15l-.011-.076-.034-.286c-.185-1.322-.714-2.52-1.588-3.478l-.193-.201c-1.052-1.051-2.43-1.654-3.959-1.81L15.557 2l.077-.746Zm0 0-.154 1.492a.75.75 0 0 1 .154-1.492Z"/>
</svg>
