<svg xmlns="http://www.w3.org/2000/svg" width="24" height="24" fill="none" viewBox="0 0 24 24">
  <path fill="#161C24" d="M1.25 12C1.25 6.063 6.063 1.25 12 1.25c1.157 0 2.272.183 3.318.522l.445.155.07.031a.75.75 0 0 1-.523 1.397l-.073-.023-.38-.133A9.242 9.242 0 0 0 12 2.75a9.25 9.25 0 1 0 9.145 7.852l-.08-.453-.011-.076a.75.75 0 0 1 1.462-.297l.02.075.092.525c.08.53.122 1.072.122 1.624 0 5.937-4.813 10.75-10.75 10.75S1.25 17.937 1.25 12Z"/>
  <path fill="#161C24" d="M15.4 14.55a.75.75 0 1 1 1.2.9 5.742 5.742 0 0 1-4.6 2.3 5.739 5.739 0 0 1-4.397-2.044L7.4 15.45l-.043-.063a.75.75 0 0 1 1.194-.897l.049.06.15.19A4.239 4.239 0 0 0 12 16.25a4.24 4.24 0 0 0 3.4-1.7Zm4.121-13.3a.75.75 0 0 1 .53.223l1.746 1.763.114.12a3.214 3.214 0 0 1 .002 4.328l-.116.122a3.284 3.284 0 0 1-4.465.133l-.122-.113-.004-.004a3.23 3.23 0 0 1-.022-4.565l.004-.004 1.802-1.785.114-.094a.75.75 0 0 1 .417-.124ZM18.25 4.313a1.729 1.729 0 0 0 .008 2.439l.133.118c.693.55 1.714.5 2.35-.13l.12-.132c.56-.681.512-1.68-.12-2.307l-.005-.005-1.224-1.235-1.262 1.252ZM7.47 8.47a.75.75 0 0 1 1.004-.052l.056.052.793.793.12.133a1.75 1.75 0 0 1 0 2.209l-.12.132-.793.793a.75.75 0 1 1-1.06-1.06l.793-.793.032-.04a.251.251 0 0 0 0-.275l-.032-.039-.793-.793-.052-.056A.75.75 0 0 1 7.47 8.47Zm8 0a.75.75 0 0 1 1.112 1.004l-.052.056-.793.793a.25.25 0 0 0 0 .354l.793.793.052.056a.75.75 0 0 1-1.056 1.056l-.056-.052-.793-.793a1.75 1.75 0 0 1 0-2.474l.793-.793Z"/>
</svg>
