<svg xmlns="http://www.w3.org/2000/svg" width="24" height="24" fill="none" viewBox="0 0 24 24">
  <path fill="#161C24" d="M3.272 7.818a.75.75 0 0 1 1.47.288l-1.51 10.575a2.25 2.25 0 0 0 2.227 2.569H18.54a2.25 2.25 0 0 0 2.25-2.317l-.022-.252-1.51-10.575 1.485-.213 1.51 10.577.024.21a3.75 3.75 0 0 1-3.737 4.07H5.46a3.75 3.75 0 0 1-3.714-4.28L3.257 7.893l.015-.075Zm16.622-.56a.75.75 0 0 1 .849.635l-1.486.213a.75.75 0 0 1 .637-.848Z"/>
  <path fill="#161C24" d="M13.25 16a.25.25 0 0 0-.25-.25h-2a.25.25 0 0 0-.25.25v1c0 .138.112.25.25.25h2a.25.25 0 0 0 .25-.25v-1Zm1.5 1A1.75 1.75 0 0 1 13 18.75h-2A1.75 1.75 0 0 1 9.25 17v-1c0-.966.784-1.75 1.75-1.75h2c.966 0 1.75.784 1.75 1.75v1Z"/>
  <path fill="#161C24" d="m20 7.25.077.004A.75.75 0 0 1 20.75 8c0 3.157-.925 5.09-1.936 6.244a5.476 5.476 0 0 1-1.395 1.157 4.118 4.118 0 0 1-.637.295l-.048.017-.016.005a.197.197 0 0 1-.007.002h-.004A62.174 62.174 0 0 1 16.5 15l-.105-.364.311 1.085a.75.75 0 1 1-.41-1.443 2.652 2.652 0 0 0 .379-.18 3.983 3.983 0 0 0 1.01-.842c.673-.768 1.412-2.132 1.543-4.506H4.771c.13 2.374.87 3.738 1.542 4.506.376.43.746.69 1.011.843a2.662 2.662 0 0 0 .38.18h.002a.75.75 0 1 1-.413 1.442l.31-1.085L7.5 15l-.207.72h-.004a.224.224 0 0 1-.007-.002l-.016-.005-.048-.017a4.116 4.116 0 0 1-.637-.295 5.483 5.483 0 0 1-1.395-1.157C4.176 13.09 3.25 11.157 3.25 8l.004-.077A.75.75 0 0 1 4 7.25h16Z"/>
  <path fill="#161C24" d="M11.25 15V8a.75.75 0 0 1 1.5 0v7a.75.75 0 0 1-1.5 0Z"/>
  <path fill="#161C24" d="M12 1.25c3.233 0 5.649 2.972 6.242 7.145l-1.484.21C16.21 4.762 14.135 2.75 12 2.75S7.789 4.762 7.242 8.605l-1.484-.21C6.35 4.222 8.768 1.25 12 1.25Z"/>
</svg>
