<svg xmlns="http://www.w3.org/2000/svg" width="24" height="24" fill="none" viewBox="0 0 24 24">
  <path fill="#161C24" fill-rule="evenodd" d="M12 1.25C6.063 1.25 1.25 6.063 1.25 12S6.063 22.75 12 22.75 22.75 17.937 22.75 12 17.937 1.25 12 1.25Zm-3.4 13.3a.75.75 0 0 0-1.2.9 5.742 5.742 0 0 0 4.6 2.3 5.742 5.742 0 0 0 4.6-2.3.75.75 0 1 0-1.2-.9 4.242 4.242 0 0 1-3.4 1.7 4.242 4.242 0 0 1-3.4-1.7Zm6.976-6.57-.006.008a5.614 5.614 0 0 0-.126.162h.056c.726 0 1.503.256 2.047.837a.75.75 0 0 1-1.094 1.026c-.206-.22-.554-.363-.953-.363-.4 0-.747.144-.953.363A.75.75 0 0 1 13.25 9.5c0-.342.103-.672.214-.938.115-.276.262-.539.4-.76a8.049 8.049 0 0 1 .558-.78l.002-.002a.75.75 0 0 1 1.152.96Zm-7.146.008-.006-.008a.75.75 0 0 1 1.152-.96l.002.003.052.063c.031.04.075.095.126.164.103.137.24.33.38.553.138.22.285.483.4.759.111.266.214.596.214.938a.75.75 0 0 1-1.297.513c-.206-.22-.554-.363-.953-.363-.4 0-.747.144-.953.363a.75.75 0 1 1-1.094-1.026c.544-.58 1.321-.837 2.047-.837a2.927 2.927 0 0 0 .056 0 5.803 5.803 0 0 0-.126-.162Z" clip-rule="evenodd"/>
</svg>
