<svg xmlns="http://www.w3.org/2000/svg" width="24" height="24" fill="none" viewBox="0 0 24 24">
  <path fill="#161C24" fill-rule="evenodd" d="M8.185 4.25a3.75 3.75 0 0 0-3.727 3.335l-.462 4.16 1.053.37c1.415.502 4.007.884 6.95.884 2.945 0 5.537-.383 6.952-.885L20 11.742l-.458-4.157a3.75 3.75 0 0 0-3.727-3.335h-7.63ZM10.25 10a.75.75 0 0 1 .75-.75h2a.75.75 0 0 1 0 1.5h-2a.75.75 0 0 1-.75-.75Zm-5.857 3.14L4 13l-2.121 2.137a1.673 1.673 0 0 0-.629 1.308c0 .61.336 1.205.929 1.482C4.599 19.06 8.122 19.75 12 19.75s7.401-.69 9.821-1.823c.593-.277.929-.872.929-1.482 0-.509-.231-.99-.629-1.308L20 12.999l-.393.14c-1.6.568-4.586 1.111-7.607 1.111-3.02 0-6.007-.543-7.607-1.11Z" clip-rule="evenodd"/>
</svg>
