<svg xmlns="http://www.w3.org/2000/svg" width="24" height="24" fill="none" viewBox="0 0 24 24">
  <path fill="#161C24" d="M1.25 16.444c0-.509.232-.99.629-1.307l2.152-1.723a.75.75 0 0 1 .938 1.172l-2.154 1.721a.176.176 0 0 0-.065.137c0 .073.038.112.064.124l.42.186c2.158.908 5.27 1.496 8.766 1.496 3.73 0 7.02-.669 9.186-1.682l.021-.015a.142.142 0 0 0 .043-.109.175.175 0 0 0-.038-.108l-.027-.029-2.154-1.721-.057-.051a.751.751 0 0 1 .932-1.166l.063.045 2.152 1.723.142.125c.31.313.487.737.487 1.182 0 .572-.295 1.13-.82 1.427l-.109.056c-2.42 1.132-5.943 1.823-9.821 1.823-3.636 0-6.96-.608-9.354-1.616l-.467-.207a1.629 1.629 0 0 1-.929-1.483Z"/>
  <path fill="#161C24" d="M15.815 4.25a3.75 3.75 0 0 1 3.727 3.336l.703 6.331a.75.75 0 0 1-.377.736l-.117.054c-1.82.646-4.638 1.043-7.75 1.043-3.114 0-5.93-.396-7.752-1.043a.75.75 0 0 1-.494-.79l.703-6.331.024-.177A3.75 3.75 0 0 1 8.186 4.25h7.629Zm-7.63 1.5a2.25 2.25 0 0 0-2.202 1.791l-.034.21-.636 5.72c1.618.47 3.997.779 6.687.779 2.69 0 5.069-.31 6.687-.778l-.636-5.72a2.25 2.25 0 0 0-2.236-2.002h-7.63Z"/>
  <path fill="#161C24" d="M13 9.25a.75.75 0 0 1 0 1.5h-2a.75.75 0 0 1 0-1.5h2Z"/>
</svg>
