<svg xmlns="http://www.w3.org/2000/svg" width="24" height="24" fill="none" viewBox="0 0 24 24">
  <path fill="#161C24" fill-rule="evenodd" d="M11.37 2.773a8.813 8.813 0 0 0-4.62 1.728A9.285 9.285 0 0 0 5.001 6.25 8.852 8.852 0 0 0 3.4 9.892c-.114.614-.126.789-.135 1.948l-.008 1.09-.284.29c-.683.695-1.109 1.277-1.393 1.9-.216.475-.299.817-.314 1.293-.012.352.012.558.104.897.275 1.014 1.125 2.141 2.43 3.22.454.375.698.497 1.101.549.206.026.487.002.684-.059.156-.048 1.187-.558 1.373-.68.363-.236.638-.63.741-1.062.04-.164.041-.232.041-2.78v-2.613l-.048-.189a1.76 1.76 0 0 0-.734-1.036c-.192-.125-1.219-.633-1.373-.679a1.822 1.822 0 0 0-.82-.041c-.03 0-.033-.235-.005-.77.03-.575.09-.97.221-1.48a7.082 7.082 0 0 1 1.898-3.311A7.173 7.173 0 0 1 11.13 4.3a8.575 8.575 0 0 1 1.74 0 7.26 7.26 0 0 1 3.67 1.549c.321.255.856.79 1.111 1.111a7.252 7.252 0 0 1 1.55 3.67c.023.193.059.845.059 1.115 0 .143-.007.195-.025.195a1.86 1.86 0 0 0-.826.042c-.152.047-1.184.559-1.367.678a1.73 1.73 0 0 0-.621.721c-.163.342-.15.099-.15 3.119s-.013 2.777.15 3.119c.146.306.353.547.621.721.07.046.385.212.698.368.68.338.804.378 1.19.376.529-.002.785-.132 1.54-.781.258-.222.86-.824 1.042-1.043 1.087-1.301 1.432-2.405 1.118-3.57-.133-.489-.413-1.03-.807-1.557a7.718 7.718 0 0 0-.766-.883l-.313-.321-.009-1.089c-.008-.97-.013-1.125-.051-1.41-.141-1.052-.385-1.866-.834-2.78a8.15 8.15 0 0 0-1.669-2.331A8.151 8.151 0 0 0 15.85 3.65a8.414 8.414 0 0 0-2.78-.832c-.255-.034-.451-.043-.96-.048a18.038 18.038 0 0 0-.74.003ZM5.65 13.666c.363.185.531.281.559.32.041.057.041.074.041 2.514 0 2.439 0 2.457-.04 2.514-.06.081-1.082.597-1.151.58-.051-.013-.328-.233-.619-.492-.663-.59-1.167-1.193-1.439-1.722-.326-.636-.326-1.124 0-1.76.303-.59.904-1.282 1.669-1.921.295-.247.368-.299.418-.298.023.001.276.12.561.265Zm13.33-.246c.02.011.157.119.303.241.82.681 1.42 1.37 1.728 1.985.306.61.31 1.08.012 1.684-.267.544-.779 1.163-1.463 1.772-.291.259-.568.479-.619.492-.069.017-1.091-.499-1.15-.58-.041-.057-.041-.075-.041-2.514 0-2.44 0-2.457.041-2.514.028-.039.196-.135.56-.32.285-.145.535-.264.555-.265a.173.173 0 0 1 .074.019Z" clip-rule="evenodd"/>
</svg>
