<svg xmlns="http://www.w3.org/2000/svg" width="24" height="24" fill="none" viewBox="0 0 24 24">
  <path fill="#161C24" fill-rule="evenodd" d="M2 3a1 1 0 0 0-1 1v7.951c0 .064.006.127.017.188h-.005l1.5 8a.75.75 0 0 0 .737.611h1.5a.75.75 0 0 0 .725-.556l1.807-6.779c.035.018.07.036.103.055.637.36 1.182.966 1.822 1.804.131.172.267.354.408.544.51.687 1.09 1.467 1.77 2.166l.034.032c3.09 2.895 6.379 2.933 9.596 2.97.323.003.645.007.966.014a1 1 0 1 0 .04-2 164.653 164.653 0 0 0-1.27-.02v-1.862a1.75 1.75 0 0 0-.967-1.565l-2.447-1.224a.75.75 0 0 0-.785.071l-3.358 2.518a9.756 9.756 0 0 1-.392-.346c-.57-.59-1.04-1.22-1.533-1.882-.154-.207-.31-.417-.472-.63-.652-.854-1.407-1.756-2.43-2.332-.91-.512-1.91-.66-2.922-.705a31.49 31.49 0 0 0-1.603-.018h-.156c-.224.002-.452.004-.685.004V8h5a2 2 0 0 0 2-2V5a2 2 0 0 0-2-2H2Z" clip-rule="evenodd"/>
</svg>
