<svg xmlns="http://www.w3.org/2000/svg" width="24" height="24" fill="none" viewBox="0 0 24 24">
  <path fill="#161C24" fill-rule="evenodd" d="M11.65 1.712a2.83 2.83 0 0 0-.91.29c-.125.064-1.548 1.048-4.15 2.87a606.92 606.92 0 0 0-4.117 2.893c-.731.574-1.125 1.581-.984 2.515.028.188 1.892 9.883 1.974 10.27.055.261.138.495.259.73.315.614.94 1.137 1.608 1.345.358.112-.062.105 6.68.105 6.017 0 6.246 0 6.41-.037.994-.219 1.81-.983 2.069-1.94.064-.234 2.004-10.319 2.034-10.572a2.756 2.756 0 0 0-.748-2.185 3.8 3.8 0 0 0-.255-.24c-.09-.07-7.696-5.399-7.98-5.59a2.927 2.927 0 0 0-.97-.417 5.572 5.572 0 0 0-.92-.037Zm.657 1.52c.068.017.176.057.24.09.196.096 8.005 5.572 8.132 5.701.138.14.248.323.307.507.035.113.044.185.042.37-.001.218-.054.503-.975 5.28-.535 2.777-.995 5.122-1.022 5.211a1.388 1.388 0 0 1-.127.28 1.385 1.385 0 0 1-.746.544c-.121.033-.462.035-6.158.035-5.79 0-6.035 0-6.16-.037a1.294 1.294 0 0 1-.85-.759c-.03-.08-.41-1.998-1.032-5.226-.953-4.932-.986-5.106-.987-5.338-.001-.185.008-.265.037-.35.089-.26.237-.475.429-.625.222-.173 7.903-5.537 8.002-5.588.237-.123.602-.164.868-.096ZM8.745 16.298a.643.643 0 0 0-.302.212c-.142.162-.173.25-.172.49 0 .187.006.221.055.323.07.144.226.29.519.484.68.451 1.442.744 2.278.876.388.061 1.334.066 1.697.01.919-.144 1.68-.438 2.389-.922.252-.172.399-.313.465-.448.05-.103.056-.135.056-.324 0-.192-.005-.22-.058-.325a.893.893 0 0 0-.366-.358.76.76 0 0 0-.266-.052c-.223-.012-.335.028-.593.21a3.661 3.661 0 0 1-1.087.551 3.972 3.972 0 0 1-1.36.217 4.091 4.091 0 0 1-2.445-.768 1.812 1.812 0 0 0-.295-.177.886.886 0 0 0-.515.001Z" clip-rule="evenodd"/>
</svg>
