<svg xmlns="http://www.w3.org/2000/svg" width="24" height="24" fill="none" viewBox="0 0 24 24">
  <path fill="#161C24" fill-rule="evenodd" d="M13.577 2.189a2.75 2.75 0 0 0-3.154 0L2.63 7.641a2.75 2.75 0 0 0-1.123 2.773L3.45 20.52a2.75 2.75 0 0 0 2.7 2.23h11.697a2.75 2.75 0 0 0 2.7-2.23l1.944-10.105a2.75 2.75 0 0 0-1.124-2.773l-7.79-5.452ZM9.614 16.21a1 1 0 1 0-1.228 1.578C9.364 18.551 10.63 19 12 19c1.369 0 2.636-.45 3.614-1.21a1 1 0 0 0-1.228-1.579c-.621.483-1.454.79-2.386.79-.932 0-1.765-.307-2.386-.79Z" clip-rule="evenodd"/>
</svg>
