<svg xmlns="http://www.w3.org/2000/svg" width="24" height="24" fill="none" viewBox="0 0 24 24">
  <path fill="#161C24" d="M5.25 20v-8.5a.75.75 0 0 1 1.5 0V20c0 .69.56 1.25 1.25 1.25h8.001a1.25 1.25 0 0 0 1.243-1.122l.007-.128-.001-8.5a.75.75 0 0 1 1.496-.077l.004.077.001 8.5-.015.281a2.75 2.75 0 0 1-2.735 2.469H8A2.75 2.75 0 0 1 5.25 20Z"/>
  <path fill="#161C24" d="M9.25 16a.75.75 0 0 1 1.5 0c0 .482.007 1.116-.235 1.763-.254.675-.746 1.29-1.599 1.86a.75.75 0 0 1-.832-1.249c.647-.43.905-.814 1.026-1.139.133-.353.14-.718.14-1.235Zm4 0a.75.75 0 0 1 1.5 0c0 .517.007.882.14 1.235.106.284.317.613.801.98l.225.159.061.046a.75.75 0 0 1-.827 1.242l-.065-.04-.304-.215c-.67-.508-1.074-1.053-1.296-1.644-.242-.647-.235-1.281-.235-1.763Zm.117-11.402a.75.75 0 0 1 1.334.667l-.03.07-2 4a.75.75 0 0 1-1.342 0l-2-4-.03-.07a.75.75 0 0 1 1.334-.667l.038.067 1.33 2.658 1.328-2.658.038-.067Zm-7.218 1.24a.75.75 0 1 1 .702 1.324l-1.798.954-2.05 3.832a1.25 1.25 0 0 0-.123.842l1.025 4.963.027.106c.157.524.642.89 1.198.89H6l.077.005a.75.75 0 0 1 0 1.492L6 20.25h-.87a2.75 2.75 0 0 1-2.634-1.96l-.06-.235-1.024-4.961a2.75 2.75 0 0 1 .268-1.854l2.158-4.033.06-.094a.75.75 0 0 1 .251-.215l2-1.06Zm10.688.31a.75.75 0 0 1 .945-.343l.07.032 2 1.06.095.06c.09.066.163.151.216.25l2.158 4.033.104.217c.189.44.258.923.203 1.4l-.038.237-1.025 4.961a2.75 2.75 0 0 1-2.693 2.195h-.87a.75.75 0 0 1 0-1.5h.87a1.25 1.25 0 0 0 1.224-.997l1.025-4.963.017-.108a1.25 1.25 0 0 0-.093-.636L21 11.948l-2.05-3.832-1.8-.953-.066-.04a.75.75 0 0 1-.245-.975Z"/>
  <path fill="#161C24" d="M12 1.25c4.02 0 6.135 2.976 6.702 4.486l.037.137a.75.75 0 0 1-.284.723l-.12.075-6 3a.75.75 0 0 1-.67 0l-6-3a.75.75 0 0 1-.367-.935l.124-.298C6.136 3.865 8.23 1.25 12 1.25Zm0 1.5c-2.69 0-4.31 1.689-5.007 2.908L12 8.161l5.006-2.503C16.308 4.438 14.69 2.75 12 2.75Z"/>
</svg>
