<svg xmlns="http://www.w3.org/2000/svg" width="24" height="24" fill="none" viewBox="0 0 24 24">
  <path fill="#161C24" d="M9.25 14A2.75 2.75 0 0 1 12 11.25a.75.75 0 0 1 0 1.5A1.25 1.25 0 1 0 13.25 14a.75.75 0 0 1 1.5 0 2.75 2.75 0 1 1-5.5 0Zm-8 0a10.73 10.73 0 0 1 4.095-8.443.75.75 0 0 1 .93 1.178 9.232 9.232 0 0 0-3.525 7.264c0 1.954.605 3.764 1.638 5.257l.212.294.043.063a.75.75 0 0 1-1.194.897l-.049-.059-.247-.341A10.706 10.706 0 0 1 1.25 14Zm20 0A9.25 9.25 0 0 0 12 4.75c-1.14 0-2.23.206-3.237.582l-.074.023a.75.75 0 0 1-.452-1.428l.445-.155A10.742 10.742 0 0 1 12 3.25c5.937 0 10.75 4.813 10.75 10.75 0 1.322-.239 2.59-.677 3.763l-.031.07a.75.75 0 0 1-1.374-.596l.133-.38c.291-.9.449-1.86.449-2.857Z"/>
  <path fill="#161C24" d="M5.25 14a6.773 6.773 0 0 1 2.965-5.62l.065-.04a.75.75 0 0 1 .776 1.282l-.255.184A5.278 5.278 0 0 0 6.75 14a5.29 5.29 0 0 0 1.165 3.327l.15.178.047.06a.751.751 0 0 1-1.12.985l-.054-.055-.192-.228A6.79 6.79 0 0 1 5.25 14Zm12 0c0-2.9-2.35-5.25-5.25-5.25a.75.75 0 0 1 0-1.5A6.75 6.75 0 0 1 18.75 14a.75.75 0 0 1-1.5 0Z"/>
  <path fill="#161C24" d="M1.47 1.47a.75.75 0 0 1 1.004-.052l.056.052 20 20 .052.056a.75.75 0 0 1-1.056 1.056l-.056-.052-20-20-.052-.056A.75.75 0 0 1 1.47 1.47Z"/>
</svg>
