<svg xmlns="http://www.w3.org/2000/svg" width="24" height="24" fill="none" viewBox="0 0 24 24">
  <path fill="#161C24" fill-rule="evenodd" d="M1.293 1.293a1 1 0 0 1 1.414 0l20 20a1 1 0 0 1-1.414 1.414l-20-20a1 1 0 0 1 0-1.414Z" clip-rule="evenodd"/>
  <path fill="#161C24" d="M6.119 4.703A10.992 10.992 0 0 0 1 14c0 2.476.819 4.763 2.2 6.602A1 1 0 0 0 4.8 19.4 8.956 8.956 0 0 1 3 14a8.997 8.997 0 0 1 4.576-7.84L6.12 4.703Zm14.604 12.483a.517.517 0 0 1-.124-.52c.26-.842.401-1.738.401-2.666A9 9 0 0 0 9.335 5.401a.517.517 0 0 1-.52-.124l-.804-.804a.475.475 0 0 1 .158-.787A10.977 10.977 0 0 1 12 3c6.075 0 11 4.925 11 11 0 1.347-.242 2.638-.686 3.831a.475.475 0 0 1-.787.158l-.804-.803Zm-.883 1.238c-.192.34-.406.666-.64.976a1 1 0 0 0 1.6 1.202c.175-.233.34-.474.497-.72l-1.457-1.458Z"/>
  <path fill="#161C24" d="M9.06 7.645a7.001 7.001 0 0 0-2.277 11.022 1 1 0 1 0 1.49-1.334 5.002 5.002 0 0 1 2.338-8.138l-1.55-1.55Zm8.032 5.909a.529.529 0 0 1-.147-.297 5.003 5.003 0 0 0-4.202-4.202.528.528 0 0 1-.297-.147L11.33 7.793c-.283-.283-.132-.759.268-.782a7 7 0 0 1 7.39 7.39c-.022.4-.498.552-.781.269l-1.115-1.116Zm-.287 1.835a4.989 4.989 0 0 1-1.078 1.944 1 1 0 0 0 1.49 1.334 7.01 7.01 0 0 0 1.138-1.728l-1.55-1.55Z"/>
  <path fill="#161C24" d="M12.765 11.358A2.753 2.753 0 0 0 9.25 14a2.75 2.75 0 1 0 5.392-.765l-1.877-1.877Z"/>
</svg>
