<svg xmlns="http://www.w3.org/2000/svg" width="24" height="24" fill="none" viewBox="0 0 24 24">
  <path fill="#161C24" fill-rule="evenodd" d="M5 1a1 1 0 0 1 1 1v3.333C6 8.418 8.64 11 12 11s6-2.582 6-5.667V2a1 1 0 1 1 2 0v3.333C20 9.613 16.372 13 12 13S4 9.613 4 5.333V2a1 1 0 0 1 1-1Z" clip-rule="evenodd"/>
  <path fill="#161C24" fill-rule="evenodd" d="M4.25 18.667c0-4.13 3.505-7.417 7.75-7.417s7.75 3.287 7.75 7.417V22a.75.75 0 0 1-.75.75H5a.75.75 0 0 1-.75-.75v-3.333Z" clip-rule="evenodd"/>
  <path fill="#161C24" fill-rule="evenodd" d="M3 2a1 1 0 0 1 1-1h16a1 1 0 1 1 0 2H4a1 1 0 0 1-1-1Zm0 20a1 1 0 0 1 1-1h16a1 1 0 1 1 0 2H4a1 1 0 0 1-1-1Z" clip-rule="evenodd"/>
</svg>
