<svg xmlns="http://www.w3.org/2000/svg" width="24" height="24" fill="none" viewBox="0 0 24 24">
  <path fill="#161C24" fill-rule="evenodd" d="M3.758 1.289a.845.845 0 0 0-.439.401c-.043.087-.049.127-.049.31 0 .192.005.22.058.325a.89.89 0 0 0 .362.355c.082.04.142.051.33.059l.23.011.012 1.64c.013 1.72.013 1.726.11 2.247A7.323 7.323 0 0 0 5.854 9.85c.224.28.721.789 1.007 1.032.449.38.979.734 1.493.994.124.062.226.119.226.124 0 .005-.102.062-.226.124a7.916 7.916 0 0 0-1.493.994 9.882 9.882 0 0 0-1.007 1.032 7.31 7.31 0 0 0-1.482 3.213c-.097.521-.097.527-.11 2.247l-.012 1.64-.23.01c-.203.009-.243.017-.345.068a.899.899 0 0 0-.356.362c-.043.087-.049.128-.049.31 0 .192.005.22.058.325.07.137.223.288.362.356l.1.049h16.42l.1-.049a.899.899 0 0 0 .362-.356c.053-.105.058-.133.058-.325s-.005-.22-.058-.325a.89.89 0 0 0-.362-.355c-.082-.04-.142-.051-.33-.059l-.23-.011-.012-1.64c-.012-1.745-.011-1.725-.119-2.3-.207-1.105-.738-2.243-1.473-3.16a9.888 9.888 0 0 0-1.007-1.032 7.916 7.916 0 0 0-1.493-.994A1.933 1.933 0 0 1 15.42 12c0-.005.101-.061.225-.124.47-.238.935-.54 1.375-.893.26-.209.914-.865 1.127-1.133.739-.927 1.265-2.056 1.472-3.16.108-.575.107-.555.119-2.3l.012-1.64.23-.011c.188-.008.248-.019.33-.059a.89.89 0 0 0 .362-.355c.053-.105.058-.133.058-.325s-.005-.22-.058-.325a.899.899 0 0 0-.362-.356l-.1-.049-8.19-.004c-6.776-.003-8.202.001-8.262.023ZM18.256 3.97c.008 1.679-.02 2.11-.175 2.73a5.908 5.908 0 0 1-1.094 2.2 7.27 7.27 0 0 1-1.097 1.063c-1.742 1.317-4.116 1.649-6.202.868a6.122 6.122 0 0 1-2.289-1.504 5.204 5.204 0 0 1-.7-.864 5.644 5.644 0 0 1-.939-2.834c-.022-.378-.028-2.855-.007-2.876.008-.007 2.822-.011 6.255-.008l6.242.005.006 1.22Zm-5.626 8.812a6.443 6.443 0 0 1 3.146 1.172c.426.31.905.763 1.211 1.146a5.916 5.916 0 0 1 1.094 2.2c.155.62.183 1.051.175 2.73l-.006 1.22H5.75l-.006-1.22c-.006-1.313.012-1.856.077-2.25a5.702 5.702 0 0 1 .878-2.243c.234-.352.397-.553.7-.864.782-.803 1.646-1.324 2.737-1.653.793-.238 1.608-.316 2.494-.238Z" clip-rule="evenodd"/>
</svg>
