<svg xmlns="http://www.w3.org/2000/svg" width="24" height="24" fill="none" viewBox="0 0 24 24">
  <path fill="#161C24" fill-rule="evenodd" d="M12.43 1.273c-.044.004-.21.026-.369.048-1.83.258-3.27 1.313-3.671 2.69-.056.191-.11.506-.11.641 0 .078-.006.086-.115.16a3.146 3.146 0 0 0-1.253 1.734c-.096.33-.12.516-.12.924 0 .363.019.533.1.91.01.047-.004.057-.224.16-.816.38-1.416 1.046-1.729 1.92-.137.383-.169.59-.169 1.08 0 .337.008.47.036.61.077.374.236.781.418 1.063l.088.137.785 3.54c.843 3.796.859 3.868.935 4.08.228.633.739 1.19 1.378 1.501.243.118.384.168.633.222.158.035.325.037 2.957.037 2.632 0 2.799-.002 2.957-.037.249-.054.39-.104.633-.222a2.734 2.734 0 0 0 1.376-1.5c.076-.204.079-.215.937-4.08l.785-3.539.107-.177c.234-.389.363-.759.426-1.229a4.305 4.305 0 0 0-.041-1.076 3.316 3.316 0 0 0-1.768-2.302l-.132-.057v-.223c0-1.007-.318-1.78-.948-2.306-.397-.332-.752-.514-1.662-.852-.772-.288-1.064-.443-1.296-.689a1.323 1.323 0 0 1-.197-.273c-.062-.127-.066-.15-.065-.327.002-.324.159-.8.413-1.25.181-.324.197-.358.213-.48a.751.751 0 0 0-.417-.786c-.107-.053-.122-.055-.461-.057a7.455 7.455 0 0 0-.43.005Zm-.702 1.752c-.115.43-.141.935-.067 1.301.093.453.333.87.712 1.235.405.39.812.614 1.75.966.865.325 1.064.425 1.297.654.212.208.327.498.353.89l.013.181-.184.024a3.305 3.305 0 0 0-1.667.72 3.32 3.32 0 0 0-.533.565.743.743 0 0 0-.064.767c.12.244.339.391.606.408.288.017.472-.067.679-.312.268-.315.61-.535.977-.627.236-.059.564-.058.81.001.782.19 1.332.904 1.333 1.732 0 .195-.01.277-.053.44-.029.11-.065.22-.082.245l-.029.045H6.403l-.043-.114a1.511 1.511 0 0 1-.1-.578c0-.332.057-.577.203-.86.198-.388.578-.73.951-.858.255-.087.236-.09.427.082a3.16 3.16 0 0 0 1.446.738.753.753 0 0 0 .881-.41.55.55 0 0 0 .062-.31c0-.16-.007-.194-.062-.31a.772.772 0 0 0-.327-.349 1.878 1.878 0 0 0-.287-.099c-.617-.164-1.045-.597-1.218-1.233-.038-.142-.045-.218-.045-.479 0-.36.036-.527.177-.807.075-.15.225-.37.253-.372.007 0 .062.073.124.165.251.37.72.813 1.177 1.114.209.137.305.167.512.156a.723.723 0 0 0 .642-.432c.047-.099.054-.14.054-.304 0-.166-.007-.205-.056-.31-.072-.155-.116-.199-.394-.406a3.614 3.614 0 0 1-.68-.644c-.487-.657-.41-1.36.213-1.96.319-.309.67-.513 1.187-.692.264-.092.263-.092.228.037ZM17.06 13.76c0 .07-1.468 6.611-1.503 6.7a1.252 1.252 0 0 1-1.005.778c-.216.03-4.889.03-5.106 0a1.249 1.249 0 0 1-1.034-.868c-.03-.096-1.472-6.569-1.472-6.61 0-.013 1.698-.02 5.06-.02 3.375 0 5.06.007 5.06.02Z" clip-rule="evenodd"/>
</svg>
