<svg xmlns="http://www.w3.org/2000/svg" width="24" height="24" fill="none" viewBox="0 0 24 24">
  <path fill="#161C24" fill-rule="evenodd" d="M13.002 1c-1.46 0-2.765.449-3.682 1.212-.723.603-1.233 1.44-1.287 2.383-1.257.837-1.709 2.343-1.417 3.685-1.964.853-2.825 3.47-1.43 5.322a1 1 0 0 0 .799.398h12.03a1 1 0 0 0 .799-.398c1.336-1.774.624-4.33-1.28-5.255.014-.713-.124-1.328-.434-1.85-.425-.715-1.075-1.084-1.618-1.32a11.907 11.907 0 0 0-.703-.273l-.083-.03a7.428 7.428 0 0 1-.639-.258c-.36-.172-.55-.34-.662-.563-.051-.103-.065-.374.105-.826a3.87 3.87 0 0 1 .312-.637l.024-.037A1 1 0 0 0 13.002 1Zm2.38 6.518c.057.098.12.256.145.515a3.507 3.507 0 0 0-2.32 1.365 1 1 0 1 0 1.597 1.203 1.505 1.505 0 0 1 1.484-.576c.911.168 1.411 1.159 1.139 1.975H6.574c-.26-.784.21-1.71 1.02-1.945.436.42 1.005.734 1.702.875a1 1 0 0 0 .397-1.96c-1.061-.215-1.427-1.435-.968-2.249.313.41.724.783 1.218 1.112a1 1 0 1 0 1.107-1.666c-.691-.46-.935-.898-1-1.2-.076-.36.051-.802.55-1.218a2.95 2.95 0 0 1 .815-.468c-.09.502-.091 1.1.192 1.666.388.777 1.018 1.201 1.589 1.474.28.133.566.24.813.33l.085.031c.223.082.411.15.59.228.398.173.59.327.697.508Z" clip-rule="evenodd"/>
  <path fill="#161C24" fill-rule="evenodd" d="M5.22 12.374A1 1 0 0 1 6 12h12a1 1 0 0 1 .976 1.217l-1.652 7.434A3 3 0 0 1 14.396 23H9.604a3 3 0 0 1-2.928-2.35l-1.652-7.433a1 1 0 0 1 .196-.843Z" clip-rule="evenodd"/>
</svg>
