<svg xmlns="http://www.w3.org/2000/svg" width="24" height="24" fill="none" viewBox="0 0 24 24">
  <path fill="#161C24" fill-rule="evenodd" d="M11.4 1.272c-.904.081-1.634.25-2.4.553a8.315 8.315 0 0 0-4.419 4.14 8.33 8.33 0 0 0-.772 2.665 12.456 12.456 0 0 0-.03 1.676c.109 1.302.468 2.413 1.115 3.446.632 1.011 1.411 1.784 2.531 2.515.161.104.307.212.325.24.02.031.088.385.189.986.086.515.177.995.2 1.065.156.463.504.84.975 1.054l.144.066.007.826c.007.784.009.833.052.972a1.78 1.78 0 0 0 1.217 1.21c.155.044.165.044 1.466.044s1.311 0 1.466-.045a1.753 1.753 0 0 0 1.101-.919c.157-.313.16-.335.168-1.28l.007-.847.1-.05c.355-.18.662-.478.824-.799.099-.199.139-.373.294-1.297.101-.599.17-.955.19-.986.018-.028.138-.117.266-.2 1.166-.748 1.948-1.5 2.62-2.523.644-.979 1.013-2.016 1.168-3.284.035-.286.035-1.476 0-1.77-.125-1.046-.363-1.882-.785-2.766a8.3 8.3 0 0 0-5.022-4.352 7.651 7.651 0 0 0-1.367-.294c-.234-.032-.437-.042-.92-.047-.341-.004-.66-.003-.71.001Zm.93 1.49c.574.03 1.08.117 1.59.272 2.096.633 3.77 2.272 4.471 4.376a6.977 6.977 0 0 1 .278 3.24c-.184 1.193-.717 2.272-1.572 3.182-.445.475-.861.812-1.527 1.238-.415.266-.632.498-.801.856-.095.202-.115.292-.28 1.28-.091.544-.158.895-.178.925a.357.357 0 0 1-.085.084c-.051.033-.187.035-2.276.035s-2.225-.002-2.276-.035a.357.357 0 0 1-.085-.084c-.02-.03-.087-.38-.178-.925a31.374 31.374 0 0 0-.179-1.007 2.111 2.111 0 0 0-.308-.62c-.143-.189-.273-.299-.634-.536-.547-.36-.817-.57-1.188-.932a5.91 5.91 0 0 1-1.433-2.143c-.185-.48-.295-.937-.379-1.57-.052-.403-.043-1.222.019-1.693A6.923 6.923 0 0 1 8.28 3.887a6.67 6.67 0 0 1 3.36-1.126l.3-.018c.017 0 .192.007.39.018Zm.92 17.65c0 .724 0 .721-.124.803-.05.032-.136.035-1.126.035-.99 0-1.076-.003-1.126-.035-.123-.08-.123-.083-.13-.782a12.65 12.65 0 0 1 .004-.666c.009-.023.218-.026 1.256-.022l1.246.005v.661Z" clip-rule="evenodd"/>
</svg>
