<svg xmlns="http://www.w3.org/2000/svg" width="24" height="24" fill="none" viewBox="0 0 24 24">
  <path fill="#161C24" d="M1.25 12C1.25 6.063 6.063 1.25 12 1.25a.75.75 0 0 1 0 1.5 9.25 9.25 0 1 0 9.145 7.852l-.08-.453-.011-.076a.75.75 0 0 1 1.462-.297l.02.075.092.525c.08.53.122 1.072.122 1.624 0 5.937-4.813 10.75-10.75 10.75S1.25 17.937 1.25 12Z"/>
  <path fill="#161C24" d="M15.4 14.55a.75.75 0 1 1 1.2.9 5.742 5.742 0 0 1-4.6 2.3 5.739 5.739 0 0 1-4.397-2.044L7.4 15.45l-.043-.063a.75.75 0 0 1 1.194-.897l.049.06.15.19A4.239 4.239 0 0 0 12 16.25a4.24 4.24 0 0 0 3.4-1.7ZM10 8.75a.75.75 0 1 1 0 1.5H8.707a.957.957 0 0 0-.606.217l-.07.063A.75.75 0 1 1 6.97 9.47l.18-.163a2.457 2.457 0 0 1 1.557-.557H10Zm5.293 0c.57 0 1.12.198 1.558.557l.18.163.051.056a.75.75 0 0 1-1.056 1.056l-.056-.052-.07-.063a.957.957 0 0 0-.607-.217H14a.75.75 0 0 1 0-1.5h1.293Zm3.631-7.336c.587-.21 1.406-.284 2.316.18l.22.125c1.056.672 1.514 2.027 1.183 3.355-.34 1.356-1.463 2.651-3.477 3.475l-.415.158a.75.75 0 0 1-.378.032l-.124-.032c-2.274-.81-3.53-2.187-3.892-3.633-.354-1.416.191-2.863 1.402-3.48l.17-.081a2.844 2.844 0 0 1 2.571.093 2.92 2.92 0 0 1 .424-.192Zm-.938 1.645-.01-.007a1.454 1.454 0 0 0-.405-.225 1.324 1.324 0 0 0-.954.024l-.177.08c-.48.245-.843.917-.628 1.779.2.795.932 1.798 2.688 2.487 1.757-.69 2.489-1.692 2.688-2.487.201-.808-.104-1.45-.54-1.729l-.088-.05c-.486-.248-.868-.198-1.131-.104a1.456 1.456 0 0 0-.406.225l-.01.007h.003l.003-.003v-.001a.75.75 0 0 1-1.037 0l.002.003.002.001Z"/>
</svg>
