<svg xmlns="http://www.w3.org/2000/svg" width="24" height="24" fill="none" viewBox="0 0 24 24">
  <path fill="#161C24" d="M12.031 4.251a.75.75 0 0 1 .612.363l3 5 .037.068a.751.751 0 0 1-1.28.767l-.044-.063-2.414-4.024-1.334 1.854L10 7.778l-.608-.438 2-2.778.06-.073a.75.75 0 0 1 .58-.238Zm-1.423 3.965a.75.75 0 1 1-1.216-.876l1.216.876Z"/>
  <path fill="#161C24" d="M17.25 3a.25.25 0 0 0-.25-.25H7a.25.25 0 0 0-.25.25v1.25h10.5V3ZM3.894 21.25h3.598l3.812-9.528.05-.103a.75.75 0 0 1 1.342.103l3.812 9.528h3.599L17.37 5.75H6.63l-2.735 15.5ZM18.75 4.937l2.988 16.933a.75.75 0 0 1-.738.88h-5a.75.75 0 0 1-.696-.472L12 14.018l-3.304 8.26A.75.75 0 0 1 8 22.75H3a.75.75 0 0 1-.738-.88L5.25 4.937V3c0-.966.784-1.75 1.75-1.75h10c.967 0 1.75.784 1.75 1.75v1.937Z"/>
</svg>
