<svg xmlns="http://www.w3.org/2000/svg" width="24" height="24" fill="none" viewBox="0 0 24 24">
  <path fill="#161C24" d="M6.25 18.764V8a.75.75 0 0 1 1.5 0v10.764c0 .039.01.077.026.112l.619 1.235.039.058a.25.25 0 0 0 .184.081h6.764a.25.25 0 0 0 .223-.139l.619-1.235v-.001l.02-.054a.252.252 0 0 0 .006-.057V8a.75.75 0 0 1 1.5 0v10.764c0 .203-.035.405-.105.596l-.08.187-.618 1.235a1.75 1.75 0 0 1-1.565.968H8.618a1.75 1.75 0 0 1-1.506-.858l-.06-.11-.617-1.235a1.752 1.752 0 0 1-.185-.783Z"/>
  <path fill="#161C24" d="M14.33 2.665a.75.75 0 0 1 .935-.366l.07.03 4 2 .068.038a.75.75 0 0 1 .317.423l3.5 12a.75.75 0 0 1 .03.21v2a.75.75 0 0 1-.568.728l-2 .5a.75.75 0 0 1-.806-.312l-1-1.5a.75.75 0 0 1-.092-.192l-2.5-8-.02-.075a.75.75 0 0 1 1.425-.445l.027.072 2.468 7.897.646.97.92-.229v-1.308L18.371 5.524 14.665 3.67l-.067-.038a.75.75 0 0 1-.269-.968Zm-5.595-.366a.75.75 0 0 1 .667 1.334l-.067.038-3.707 1.853L2.25 17.106v1.308l.919.23.646-.971 2.47-7.897a.75.75 0 0 1 1.43.448l-2.5 8a.75.75 0 0 1-.091.192l-1 1.5a.75.75 0 0 1-.806.312l-2-.5A.75.75 0 0 1 .75 19v-2a.75.75 0 0 1 .03-.21l3.5-12 .026-.073a.75.75 0 0 1 .359-.388l4-2 .07-.03Z"/>
  <path fill="#161C24" d="M15 2.25a.75.75 0 0 1 .6 1.2l-3 4a.75.75 0 0 1-1.2 0l-3-4a.75.75 0 0 1 .6-1.2h6Zm-3 3.5 1.5-2h-3l1.5 2Z"/>
</svg>
