<svg xmlns="http://www.w3.org/2000/svg" width="24" height="24" fill="none" viewBox="0 0 24 24">
  <path fill="#161C24" fill-rule="evenodd" d="M11.88 1.25C5.998 1.315 1.25 6.103 1.25 12c0 5.937 4.813 10.75 10.75 10.75S22.75 17.937 22.75 12c0-5.128-3.59-9.417-8.394-10.491l-1.84 1.11c-.712.557-.818 1.124-.747 1.554.083.507.421.89.661 1.008.166.08.439.09.764.023a2.915 2.915 0 0 0 .476-.142l.023-.01h.002a.75.75 0 0 1 .612 1.369h-.002l-.002.002-.005.002-.016.007a2.965 2.965 0 0 1-.22.084c-.14.05-.337.11-.566.158-.429.088-1.106.156-1.723-.145-.715-.348-1.329-1.169-1.484-2.112-.168-1.015.194-2.133 1.347-3.014a.737.737 0 0 1 .068-.047l.176-.106ZM6.75 9c0-.69.56-1.25 1.25-1.25h.009a1.25 1.25 0 0 1 0 2.5H8c-.69 0-1.25-.56-1.25-1.25Zm7.991 0c0-.69.56-1.25 1.25-1.25H16a1.25 1.25 0 1 1 0 2.5h-.009c-.69 0-1.25-.56-1.25-1.25ZM8.6 14.55a.75.75 0 1 0-1.2.9 5.742 5.742 0 0 0 4.6 2.3 5.742 5.742 0 0 0 4.6-2.3.75.75 0 1 0-1.2-.9 4.242 4.242 0 0 1-3.4 1.7 4.242 4.242 0 0 1-3.4-1.7Z" clip-rule="evenodd"/>
</svg>
