<svg xmlns="http://www.w3.org/2000/svg" width="24" height="24" fill="none" viewBox="0 0 24 24">
  <path fill="#161C24" fill-rule="evenodd" d="M8.75 11.5a2.75 2.75 0 0 1 2.75-2.75h8a2.75 2.75 0 0 1 2.75 2.75v8a2.75 2.75 0 0 1-2.75 2.75h-8a2.75 2.75 0 0 1-2.75-2.75v-8Z" clip-rule="evenodd"/>
  <path fill="#161C24" d="M8 5.25A2.75 2.75 0 0 0 5.25 8v8a2.75 2.75 0 0 0 2 2.646V11.5a4.25 4.25 0 0 1 4.25-4.25h7.146a2.751 2.751 0 0 0-2.646-2H8Z"/>
  <path fill="#161C24" d="M4.5 1.75A2.75 2.75 0 0 0 1.75 4.5v8a2.75 2.75 0 0 0 2 2.646V8A4.25 4.25 0 0 1 8 3.75h7.146a2.751 2.751 0 0 0-2.646-2h-8Z"/>
</svg>
