<svg xmlns="http://www.w3.org/2000/svg" width="24" height="24" fill="none" viewBox="0 0 24 24">
  <path fill="#161C24" d="M3.994 15.274c.382.365.347 1.032-.033 1.399l7.782 3.95c.004.003.01.003.014 0l7.782-3.95c-.38-.367-.415-1.034-.033-1.4.381-.365 1.038-.325 1.418.042.936.902.699 2.42-.475 3.016l-7.781 3.95a2.036 2.036 0 0 1-1.836 0l-7.781-3.95c-1.174-.596-1.41-2.114-.475-3.017.38-.366 1.037-.406 1.418-.04ZM12.676 1.22l7.725 3.882a1.961 1.961 0 0 1 0 3.523l-7.725 3.883a2.068 2.068 0 0 1-1.853 0L3.1 8.625a1.961 1.961 0 0 1 0-3.523l7.724-3.883a2.067 2.067 0 0 1 1.853 0Z"/>
  <path fill="#161C24" d="M3.994 10.31c.382.366.347 1.033-.033 1.4l7.782 3.95c.004.002.01.002.014 0l7.782-3.95c-.38-.367-.415-1.034-.033-1.4.381-.365 1.038-.325 1.418.041.936.903.699 2.42-.475 3.016l-7.781 3.951a2.036 2.036 0 0 1-1.836 0l-7.781-3.95c-1.174-.596-1.41-2.115-.475-3.017.38-.367 1.037-.406 1.418-.04Z"/>
</svg>
