<svg xmlns="http://www.w3.org/2000/svg" width="24" height="24" fill="none" viewBox="0 0 24 24">
  <path fill="#161C24" fill-rule="evenodd" d="M15.741 3.291a4.368 4.368 0 0 0-2.046.864c-.295.226-1.213 1.161-1.32 1.345a.784.784 0 0 0-.01.698.825.825 0 0 0 .35.338c.101.047.14.054.315.054.325 0 .338-.009.962-.646.33-.336.582-.577.683-.649a2.815 2.815 0 0 1 3.723.358c.606.654.898 1.488.838 2.391a3.102 3.102 0 0 1-.817 1.906c-.364.401-3.433 3.574-3.536 3.656a2.93 2.93 0 0 1-1.296.606c-.255.05-.732.046-.999-.008a2.867 2.867 0 0 1-1.17-.508 3.948 3.948 0 0 1-.696-.734c-.164-.24-.224-.308-.328-.369a.744.744 0 0 0-1.058.303.592.592 0 0 0-.073.297c-.009.22.027.322.212.596.19.281.266.374.513.628.383.393.742.657 1.202.883.385.19.746.307 1.2.39.277.051.94.062 1.25.021a4.435 4.435 0 0 0 2.228-.974c.196-.162 3.636-3.728 3.846-3.987a4.661 4.661 0 0 0 1.007-2.446 6.026 6.026 0 0 0-.039-1.27 4.605 4.605 0 0 0-1.366-2.586 4.322 4.322 0 0 0-2.226-1.13c-.293-.057-1.036-.07-1.349-.027Zm-5.42 5.001a4.379 4.379 0 0 0-2.12.912c-.155.123-.669.645-1.997 2.026a123.951 123.951 0 0 0-1.918 2.02 4.749 4.749 0 0 0-.885 1.762c-.1.396-.124.587-.135 1.058-.01.485.013.75.106 1.166.358 1.603 1.576 2.915 3.105 3.345a3.72 3.72 0 0 0 1.056.154c.585.015.974-.039 1.481-.206a4.264 4.264 0 0 0 1.743-1.089c.427-.43.8-.832.861-.93.12-.187.126-.484.018-.708a.825.825 0 0 0-.35-.338c-.102-.047-.14-.054-.316-.054-.324 0-.34.01-.949.633-.546.558-.728.712-1.038.873-1.436.751-3.137.186-3.886-1.29a3.24 3.24 0 0 1-.256-2.19c.127-.5.34-.919.652-1.286.273-.32 3.547-3.703 3.68-3.803.29-.216.544-.352.852-.454a2.832 2.832 0 0 1 2.558.417c.222.166.536.496.695.728.164.24.224.308.328.37a.745.745 0 0 0 1.058-.304.808.808 0 0 0 .046-.564c-.037-.11-.242-.432-.408-.64a6.313 6.313 0 0 0-.682-.686 4.398 4.398 0 0 0-2.219-.933 6.212 6.212 0 0 0-1.08.011Z" clip-rule="evenodd"/>
</svg>
