<svg xmlns="http://www.w3.org/2000/svg" width="24" height="24" fill="none" viewBox="0 0 24 24">
  <path fill="#161C24" d="M16.25 6.5c0-.69-.56-1.25-1.25-1.25H4c-.69 0-1.25.56-1.25 1.25v11c0 .69.56 1.25 1.25 1.25h11c.69 0 1.25-.56 1.25-1.25v-11Zm1.5 11A2.75 2.75 0 0 1 15 20.25H4a2.75 2.75 0 0 1-2.75-2.75v-11A2.75 2.75 0 0 1 4 3.75h11a2.75 2.75 0 0 1 2.75 2.75v11Z"/>
  <path fill="#161C24" d="M21.25 8.032a.283.283 0 0 0-.45-.226l-.044.04-3.006 3.435v1.437l3.006 3.435v.001l.045.04a.281.281 0 0 0 .449-.226V8.032Zm1.5 7.936a1.783 1.783 0 0 1-2.99 1.31l-.133-.136-3.191-3.648A.75.75 0 0 1 16.25 13v-2a.75.75 0 0 1 .186-.494l3.191-3.648.134-.136a1.782 1.782 0 0 1 2.989 1.31v7.936ZM9.5 9.75a2.25 2.25 0 1 1 0 4.5 2.25 2.25 0 0 1 0-4.5Z"/>
</svg>
