<svg xmlns="http://www.w3.org/2000/svg" width="24" height="24" fill="none" viewBox="0 0 24 24">
  <path fill="#161C24" fill-rule="evenodd" d="M11.34 1.291a5.252 5.252 0 0 0-4.074 2.943c-.235.494-.363.915-.468 1.536-.016.09-.028.558-.036 1.31L6.75 8.25l-.57.011c-.44.008-.606.019-.73.046a2.817 2.817 0 0 0-1.262.63 2.762 2.762 0 0 0-.897 1.618c-.027.154-.031.749-.031 4.945 0 5.199-.007 4.883.11 5.295.057.193.225.552.344.729a2.767 2.767 0 0 0 1.84 1.185c.156.027.902.031 6.436.031 6.81 0 6.393.007 6.8-.11a3.42 3.42 0 0 0 .74-.347 2.777 2.777 0 0 0 1.179-1.838c.027-.154.03-.749.03-4.945 0-5.199.008-4.883-.11-5.295a3.402 3.402 0 0 0-.343-.729 2.786 2.786 0 0 0-1.736-1.169c-.124-.027-.29-.038-.73-.046l-.57-.011-.012-1.17c-.012-1.187-.015-1.23-.1-1.65-.442-2.186-2.265-3.863-4.497-4.139a7.438 7.438 0 0 0-1.301 0Zm.97 1.469a3.777 3.777 0 0 1 3.203 2.425c.083.215.175.584.21.847.019.143.027.477.027 1.208v1.01h-7.5V7.24c0-.731.008-1.065.027-1.208a3.759 3.759 0 0 1 2.109-2.913 3.654 3.654 0 0 1 1.924-.359Zm6.01 7.025c.357.11.652.354.797.659.144.302.133-.099.133 5.056 0 3.857-.005 4.689-.027 4.78a1.3 1.3 0 0 1-.667.837c-.303.144.253.133-6.556.133-5.117 0-6.19-.005-6.28-.027a1.3 1.3 0 0 1-.837-.667c-.144-.302-.133.099-.133-5.056 0-3.857.005-4.689.027-4.78a1.275 1.275 0 0 1 1.063-.959c.072-.009 2.884-.015 6.25-.013 5.704.003 6.127.005 6.23.037ZM7.696 14.539a1.016 1.016 0 0 0-.695.979 1.004 1.004 0 0 0 1.439.878c.173-.084.372-.283.457-.456.266-.544-.022-1.224-.594-1.401a1.212 1.212 0 0 0-.607 0Zm4 0a1.016 1.016 0 0 0-.695.979 1.004 1.004 0 0 0 1.439.878c.173-.084.372-.283.457-.456.266-.544-.022-1.224-.594-1.401a1.212 1.212 0 0 0-.607 0Zm4 0a1.016 1.016 0 0 0-.695.979 1.004 1.004 0 0 0 1.439.878c.173-.084.372-.283.457-.456.266-.544-.022-1.224-.594-1.401a1.212 1.212 0 0 0-.607 0Z" clip-rule="evenodd"/>
</svg>
