<svg xmlns="http://www.w3.org/2000/svg" width="24" height="24" fill="none" viewBox="0 0 24 24">
  <path fill="#161C24" fill-rule="evenodd" d="M12.6 4C7.789 4 4 7.642 4 12c0 4.358 3.789 8 8.6 8 .43 0 .852-.03 1.264-.086a1 1 0 0 1 .272 1.982c-.502.069-1.015.104-1.536.104C6.808 22 2 17.583 2 12S6.808 2 12.6 2c.521 0 1.034.036 1.536.104a1 1 0 1 1-.272 1.982A9.313 9.313 0 0 0 12.6 4Z" clip-rule="evenodd"/>
  <path fill="#161C24" fill-rule="evenodd" d="M13.883 8.576a1 1 0 0 1 .617.924V11H21a1 1 0 0 1 0 2h-6.5v1.5a1 1 0 0 1-1.707.707l-2.5-2.5a1 1 0 0 1 0-1.414l2.5-2.5a1 1 0 0 1 1.09-.217Z" clip-rule="evenodd"/>
</svg>
