<svg xmlns="http://www.w3.org/2000/svg" width="24" height="24" fill="none" viewBox="0 0 24 24">
  <path fill="#161C24" fill-rule="evenodd" d="M11.69 2.291c-1.42.121-2.643.462-3.92 1.09a9.948 9.948 0 0 0-2.79 2.032 9.297 9.297 0 0 0-1.667 2.288A9.088 9.088 0 0 0 2.26 12c0 1.887.539 3.642 1.606 5.229.525.781 1.25 1.567 2.016 2.186a10.62 10.62 0 0 0 4.978 2.194c.94.15 2.119.173 3.044.061.128-.016.259-.035.29-.042a.801.801 0 0 0 .482-.407c.049-.1.054-.131.052-.321-.001-.171-.01-.227-.045-.303-.107-.229-.366-.416-.602-.433a3.072 3.072 0 0 0-.402.025 9.703 9.703 0 0 1-3.46-.242c-1.566-.418-2.897-1.164-4.006-2.246-1.057-1.032-1.764-2.199-2.163-3.571a7.6 7.6 0 0 1-.288-1.755c-.1-2.044.602-4.015 1.989-5.595.364-.415.912-.92 1.349-1.242a9.212 9.212 0 0 1 3.92-1.657c.837-.14 1.827-.166 2.66-.07.16.019.343.029.407.023a.782.782 0 0 0 .596-.431c.036-.076.044-.132.045-.303.002-.191-.003-.22-.054-.324a.746.746 0 0 0-.534-.412c-.504-.097-1.745-.134-2.45-.073Zm6.568 6.497a.856.856 0 0 0-.44.402c-.042.087-.048.127-.048.31 0 .332-.004.326.768 1.105l.649.655-4.198.005-4.2.005-.114.058a.899.899 0 0 0-.356.362c-.043.087-.05.128-.05.31s.007.223.05.31a.899.899 0 0 0 .356.362l.115.058 4.199.005 4.198.005-.65.655c-.771.779-.767.773-.767 1.105 0 .182.006.223.049.31a.899.899 0 0 0 .356.362c.105.053.133.058.325.058.352 0 .245.087 1.78-1.449 1.537-1.536 1.45-1.429 1.45-1.781 0-.352.087-.245-1.45-1.781-1.52-1.52-1.427-1.444-1.76-1.453a.785.785 0 0 0-.262.022Z" clip-rule="evenodd"/>
</svg>
