<svg xmlns="http://www.w3.org/2000/svg" width="24" height="24" fill="none" viewBox="0 0 24 24">
  <path fill="#161C24" d="M15 1.25c.107 0 .213.023.31.067l5.5 2.5.074.038a.75.75 0 0 1 .34.448l1.5 5.5c.012.047.02.096.024.144l-.004.146-.89 7.124a1.75 1.75 0 0 1-1.737 1.533H18a.75.75 0 0 1 0-1.5h2.117a.25.25 0 0 0 .248-.219l.872-6.977-1.369-5.018-5.03-2.286H9.162L4.131 5.036l-1.37 5.018.874 6.977.01.045a.25.25 0 0 0 .238.174H6a.75.75 0 0 1 0 1.5H3.883a1.75 1.75 0 0 1-1.71-1.371l-.027-.162-.89-7.124a.75.75 0 0 1 .02-.29l1.5-5.5.027-.08a.75.75 0 0 1 .386-.406l5.5-2.5.076-.029A.75.75 0 0 1 9 1.25h6Z"/>
  <path fill="#161C24" d="M14.316 1.691a.75.75 0 0 1 1.416.472l-.02.074-.772 2.317a1.75 1.75 0 0 1-1.66 1.196h-2.56a1.75 1.75 0 0 1-1.61-1.065l-.05-.131-.772-2.317-.02-.074a.75.75 0 0 1 1.416-.472l.028.072.771 2.316.037.07a.25.25 0 0 0 .2.101h2.56a.25.25 0 0 0 .237-.17l.771-2.317.028-.072ZM17.86 7.71a.75.75 0 0 1 1.382.581l-.698 1.66a3.249 3.249 0 0 0-.249 1.421l.428 8.564-.003.212c-.034.462-.255.938-.702 1.228l-.108.065c-1.189.64-3.42 1.31-5.86 1.31-2.438 0-4.744-.67-5.953-1.31h-.001c-.6-.318-.846-.947-.819-1.505l.432-8.637.004-.168c0-.336-.053-.67-.156-.99l-.055-.157-.652-1.717-.024-.073a.75.75 0 0 1 1.395-.53l.031.07.652 1.717.081.232c.15.467.227.954.228 1.445l-.006.246-.431 8.637a.192.192 0 0 0 .015.093l.007.01.196.1c1.04.493 2.984 1.036 5.057 1.036 2.205 0 4.19-.615 5.147-1.13l.002-.002c.001 0 .005-.004.01-.012a.198.198 0 0 0 .015-.095l-.428-8.563a4.75 4.75 0 0 1 .364-2.079l.698-1.66Z"/>
</svg>
