<svg xmlns="http://www.w3.org/2000/svg" width="24" height="24" fill="none" viewBox="0 0 24 24">
  <path fill="#161C24" d="m2.94 4.567 4.895-2.225.975 2.962A1.75 1.75 0 0 0 10.47 6.5h2.56a1.75 1.75 0 0 0 1.66-1.196l.771-2.317.113-.342c.036-.106.07-.206.098-.3l4.888 2.222a.75.75 0 0 1 .414.486l1.5 5.5a.75.75 0 0 1 .02.29l-.89 7.124a1.75 1.75 0 0 1-1.737 1.533H18.4l-.355-7.129a3.25 3.25 0 0 1 .25-1.421l.697-1.66a.75.75 0 1 0-1.383-.582l-.698 1.66a4.75 4.75 0 0 0-.365 2.078l.428 9.017a.196.196 0 0 1-.015.095l-.008.012-.002.002c-.958.515-2.943 1.13-5.148 1.13-2.212 0-4.275-.618-5.253-1.135l-.007-.011a.192.192 0 0 1-.016-.093l.432-9.09a4.75 4.75 0 0 0-.303-1.923l-.652-1.717a.75.75 0 1 0-1.402.532l.651 1.717c.16.42.23.868.208 1.316L5.102 19.5h-1.47a1.75 1.75 0 0 1-1.736-1.533l-.89-7.124a.75.75 0 0 1 .02-.29l1.5-5.5a.75.75 0 0 1 .414-.486Z"/>
  <path fill="#161C24" d="M9.301 2h4.917c-.047.13-.095.268-.143.409l-.036.104-.773 2.316A.25.25 0 0 1 13.03 5h-2.558a.25.25 0 0 1-.237-.17L9.3 2Z"/>
</svg>
