<svg xmlns="http://www.w3.org/2000/svg" width="24" height="24" fill="none" viewBox="0 0 24 24">
  <path fill="#161C24" d="M13.64 16.342a.75.75 0 0 1 .72 1.316 4.91 4.91 0 0 1-2.36.592 4.95 4.95 0 0 1-2.096-.458l-.264-.134-.066-.04a.751.751 0 0 1 .717-1.31l.07.034.179.09c.429.2.926.318 1.46.318.61 0 1.172-.153 1.64-.408ZM9.007 12l.102.005a1 1 0 0 1 0 1.99L9.007 14H9a1 1 0 1 1 0-2h.007ZM15 12a1 1 0 1 1 0 2h-.007a1 1 0 0 1 0-2H15Z"/>
  <path fill="#161C24" d="M21.25 12a9.25 9.25 0 1 0-18.5 0 9.25 9.25 0 0 0 18.5 0Zm1.5 0c0 5.937-4.813 10.75-10.75 10.75S1.25 17.937 1.25 12 6.063 1.25 12 1.25 22.75 6.063 22.75 12Z"/>
</svg>
