<svg xmlns="http://www.w3.org/2000/svg" width="24" height="24" fill="none" viewBox="0 0 24 24">
  <path fill="#161C24" fill-rule="evenodd" d="M16.25 5a.75.75 0 0 1 .75-.75h3a.75.75 0 0 1 .75.75v14a.75.75 0 0 1-.75.75h-3a.75.75 0 0 1-.75-.75V5Zm1.5.75v12.5h1.5V5.75h-1.5ZM9.75 8a.75.75 0 0 1 .75-.75h3a.75.75 0 0 1 .75.75v11a.75.75 0 0 1-.75.75h-3a.75.75 0 0 1-.75-.75V8Zm1.5.75v9.5h1.5v-9.5h-1.5Z" clip-rule="evenodd"/>
  <path fill="#161C24" d="M3.25 12a.75.75 0 0 1 .75-.75h3a.75.75 0 0 1 .75.75v7a.75.75 0 0 1-.75.75H4a.75.75 0 0 1-.75-.75v-7Z"/>
</svg>
