<svg xmlns="http://www.w3.org/2000/svg" width="24" height="24" fill="none" viewBox="0 0 24 24">
  <path fill="#161C24" fill-rule="evenodd" d="M19.54 1.291a3.01 3.01 0 0 0-1.064.423 2.78 2.78 0 0 0-1.168 1.736c-.02.09-.04.299-.046.48l-.012.32-4.78.003c-4.851.004-4.984.006-5.43.079-2.387.391-4.32 2.324-4.708 4.708-.07.423-.072.596-.072 3.917 0 3.604-.005 3.432.11 3.838.057.193.225.552.344.729.396.592.987.992 1.726 1.169.14.033.39.036 3.98.046l3.83.011.01 1.73.01 1.73.058.115c.07.137.223.288.362.356.087.043.128.049.31.049s.223-.006.31-.049a.899.899 0 0 0 .362-.356l.058-.115.01-1.73.01-1.73 3.33-.011c3.105-.01 3.34-.013 3.48-.046a2.847 2.847 0 0 0 1.252-.63c.468-.405.785-.978.897-1.618.027-.152.03-.602.03-3.488 0-2.143-.006-3.386-.02-3.52a5.636 5.636 0 0 0-.926-2.607 5.744 5.744 0 0 0-2.851-2.242l-.208-.077.012-.361c.014-.401.034-.5.147-.73.1-.205.322-.426.527-.527.267-.132.296-.136 1.08-.15.7-.013.71-.014.81-.062a.899.899 0 0 0 .362-.356c.053-.105.058-.133.058-.325s-.005-.22-.058-.325a.899.899 0 0 0-.362-.356l-.1-.049-.76-.003c-.574-.003-.797.003-.91.024ZM8.66 5.798c.945.169 1.689.551 2.34 1.202.665.665 1.064 1.46 1.214 2.42.034.215.036.47.036 4.03v3.8H8.54c-3.05 0-3.73-.005-3.82-.027a1.3 1.3 0 0 1-.837-.667c-.142-.299-.133-.047-.133-3.636 0-3.381-.001-3.348.083-3.76A4.273 4.273 0 0 1 6.47 6.035c.415-.16.902-.265 1.309-.28.21-.008.739.018.88.043Zm8.477-.045.122.013.006 1.472.005 1.472.058.115c.07.137.223.288.362.356.087.043.128.049.31.049s.223-.006.31-.049a.899.899 0 0 0 .362-.356l.058-.115.006-1.285c.003-.834.012-1.285.025-1.285.03 0 .332.155.478.246a4.554 4.554 0 0 1 1.375 1.375c.29.465.507 1.067.6 1.659.034.214.036.45.036 3.49 0 2.672-.005 3.28-.027 3.37a1.3 1.3 0 0 1-.667.837c-.3.142-.051.133-3.596.133h-3.21l-.011-3.94a331.974 331.974 0 0 0-.025-3.99 5.215 5.215 0 0 1-.045-.26c-.182-1.163-.73-2.231-1.597-3.115l-.201-.205h2.57c1.416 0 2.628.006 2.696.013ZM6.757 8.289a.853.853 0 0 0-.438.401c-.043.087-.05.127-.05.31 0 .192.006.22.059.325.07.137.223.288.362.356l.1.049h2.42l.115-.058a.899.899 0 0 0 .356-.362c.043-.087.049-.128.049-.31s-.006-.223-.05-.31a.899.899 0 0 0-.355-.362L9.21 8.27l-1.19-.004c-.955-.003-1.204.002-1.262.023Z" clip-rule="evenodd"/>
</svg>
