<svg xmlns="http://www.w3.org/2000/svg" width="24" height="24" fill="none" viewBox="0 0 24 24">
  <path fill="#161C24" d="M13.249 2.444a2.75 2.75 0 0 0-2.998 0L1.834 7.916l.425.397 4.924 4.477c.23.21.53.325.841.325h7.454c.31 0 .61-.116.84-.325l4.928-4.48.428-.39-8.424-5.476Z"/>
  <path fill="#161C24" d="m22.488 9.207-.233.212-4.929 4.48a2.75 2.75 0 0 1-1.85.716H8.023a2.75 2.75 0 0 1-1.85-.715L1.238 9.413l-.226-.21A1.753 1.753 0 0 0 1 9.406v9.958a2.75 2.75 0 0 0 2.75 2.75h16a2.75 2.75 0 0 0 2.75-2.75V9.407a1.76 1.76 0 0 0-.012-.2Z"/>
</svg>
