<svg xmlns="http://www.w3.org/2000/svg" width="24" height="24" fill="none" viewBox="0 0 24 24">
  <path fill="#161C24" fill-rule="evenodd" d="M11.68 1.652a2.854 2.854 0 0 0-1.084.375 1165.8 1165.8 0 0 0-8.71 5.67 1.739 1.739 0 0 0-.445.569c-.19.381-.17-.247-.177 5.714-.006 5.756-.012 5.397.107 5.813.056.195.223.551.346.737a2.777 2.777 0 0 0 1.838 1.179c.155.027 1.104.031 8.435.031 8.994 0 8.39.007 8.8-.11.197-.056.555-.224.734-.344a2.764 2.764 0 0 0 1.187-1.853c.027-.162.03-.785.025-5.453l-.006-5.27-.046-.15a1.899 1.899 0 0 0-.571-.863c-.117-.094-8.325-5.439-8.71-5.67a2.491 2.491 0 0 0-1.333-.377 5.415 5.415 0 0 0-.39.002Zm.637 1.529c.08.022.189.061.24.088.12.06 8.19 5.306 8.199 5.328.004.014-3.886 3.566-4.215 3.848-.136.117-.33.22-.501.268-.124.035-.308.037-4.04.037s-3.916-.002-4.04-.037a1.42 1.42 0 0 1-.508-.273c-.445-.39-4.212-3.83-4.208-3.843.007-.02 8.067-5.261 8.185-5.323.256-.133.61-.17.888-.093ZM4.56 11.84c1.966 1.787 2.003 1.82 2.177 1.938.18.123.485.269.703.338.415.131.159.124 4.56.124 4.4 0 4.145.007 4.56-.124.218-.069.522-.215.703-.338.174-.118.21-.151 2.177-1.938.963-.874 1.767-1.603 1.786-1.618.033-.026.035.192.029 4.48-.006 4.174-.01 4.516-.04 4.618-.11.356-.354.652-.66.797a1.923 1.923 0 0 1-.275.106c-.164.04-16.396.04-16.56 0a1.317 1.317 0 0 1-.935-.903c-.031-.102-.034-.444-.04-4.618-.006-4.288-.004-4.506.029-4.48.019.015.823.744 1.786 1.618Z" clip-rule="evenodd"/>
</svg>
