<svg xmlns="http://www.w3.org/2000/svg" width="24" height="24" fill="none" viewBox="0 0 24 24">
  <path fill="#161C24" fill-rule="evenodd" d="M11.54 1.292a3.001 3.001 0 0 0-1.064.422 2.768 2.768 0 0 0-1.185 1.841c-.04.226-.04.664 0 .89.066.381.222.777.426 1.085a2.777 2.777 0 0 0 1.838 1.179c.361.063.847.032 1.236-.079.196-.056.554-.224.733-.344a2.767 2.767 0 0 0 1.185-1.841c.04-.226.04-.664 0-.89a2.948 2.948 0 0 0-.426-1.085 2.777 2.777 0 0 0-1.838-1.179 3.56 3.56 0 0 0-.905.001Zm.75 1.491c.33.069.677.346.827.661.1.209.128.333.128.556 0 .223-.029.347-.128.556-.11.234-.327.45-.56.561a1.108 1.108 0 0 1-.557.128c-.223 0-.347-.029-.556-.128a1.239 1.239 0 0 1-.56-.561 1.108 1.108 0 0 1-.13-.556c0-.224.03-.347.13-.558a.999.999 0 0 1 .232-.321c.321-.318.717-.432 1.173-.338ZM9.54 7.792a3.001 3.001 0 0 0-1.064.422 2.764 2.764 0 0 0-1.187 1.853c-.027.16-.03.555-.025 3.163l.006 2.98.058.115c.07.137.223.288.362.356.1.049.106.049.83.059l.73.01.01 2.73.01 2.73.05.1a.899.899 0 0 0 .355.362l.115.058h4.42l.115-.058a.899.899 0 0 0 .356-.362l.05-.1.01-2.73.01-2.73.73-.01c.723-.01.73-.01.83-.059a.899.899 0 0 0 .361-.356l.058-.115.006-2.98c.006-3.247.01-3.116-.107-3.523a3.394 3.394 0 0 0-.343-.731 2.767 2.767 0 0 0-1.84-1.185c-.152-.027-.492-.031-2.466-.029-1.84.002-2.319.008-2.44.03Zm4.78 1.493c.354.108.652.354.797.659.141.296.133.128.133 2.846v2.46l-.73.01-.73.01-.115.058a.899.899 0 0 0-.356.362l-.049.1-.01 2.73-.01 2.73h-2.5l-.01-2.73-.01-2.73-.049-.1a.899.899 0 0 0-.356-.362l-.115-.058-.73-.01-.73-.01v-2.46c0-2 .005-2.481.027-2.57a1.277 1.277 0 0 1 1.063-.96 92.407 92.407 0 0 1 2.25-.012c1.92.004 2.13.007 2.23.037Z" clip-rule="evenodd"/>
</svg>
