<svg xmlns="http://www.w3.org/2000/svg" width="24" height="24" fill="none" viewBox="0 0 24 24">
  <path fill="#161C24" fill-rule="evenodd" d="M13.97 2.073a33.932 33.932 0 0 0-4.44 0c-4.567.303-8.19 3.99-8.488 8.6a20.502 20.502 0 0 0 0 2.616c.11 1.717.86 3.265 1.692 4.521.25.482.12 1.204-.347 2.088l-.022.04c-.156.297-.31.588-.398.835-.094.263-.19.68.05 1.092a1.196 1.196 0 0 0 .823.575c.257.055.575.058.9.058 1.415.033 2.413-.377 3.204-.96.157-.116.265-.195.346-.251.119.043.28.11.518.208a5.62 5.62 0 0 0 1.722.394c1.457.097 2.98.097 4.44 0 4.567-.304 8.19-3.99 8.488-8.6.056-.862.056-1.754 0-2.617-.298-4.61-3.921-8.296-8.488-8.6ZM7.75 11.25a1 1 0 1 0 0 2h.009a1 1 0 1 0 0-2H7.75Zm3.995 0a1 1 0 0 0 0 2h.01a1 1 0 1 0 0-2h-.01Zm3.996 0a1 1 0 0 0 0 2h.009a1 1 0 1 0 0-2h-.009Z" clip-rule="evenodd"/>
</svg>
