<svg xmlns="http://www.w3.org/2000/svg" width="24" height="24" fill="none" viewBox="0 0 24 24">
  <path fill="#161C24" fill-rule="evenodd" d="M9.19 1.282c-.807.042-1.136.076-1.604.168a7.838 7.838 0 0 0-4.958 3.3 7.9 7.9 0 0 0-1.277 3.32c-.072.535-.08.722-.08 1.71 0 1.025.012 1.245.091 1.72.16.962.601 2.038 1.246 3.04.152.235.186.313.212.486.03.197-.007.454-.107.744-.07.2-.107.282-.385.84-.284.573-.328.707-.328 1.011 0 .327.11.578.341.786.286.257.612.333 1.426.333 1.084-.001 1.876-.24 2.696-.814l.262-.183.098.038.202.081c.862.345 1.514.424 3.485.423 1.326-.001 2.178-.052 2.8-.167a7.9 7.9 0 0 0 3.564-1.668c.281-.231.812-.762 1.037-1.036a7.907 7.907 0 0 0 1.707-3.734c.095-.572.11-.834.111-1.89.001-1-.007-1.181-.08-1.72a7.9 7.9 0 0 0-2.966-5.125 7.454 7.454 0 0 0-1.353-.844 7.702 7.702 0 0 0-2.73-.771c-.608-.061-2.615-.09-3.41-.048Zm2.741 1.509c.598.03.875.061 1.258.142a6.371 6.371 0 0 1 3.982 2.717c.623.944.971 1.997 1.05 3.18a20.9 20.9 0 0 1 0 1.89 6.47 6.47 0 0 1-.677 2.532 6.358 6.358 0 0 1-4.724 3.429c-.643.098-2.12.143-3.26.099-1.134-.044-1.363-.077-1.885-.277a66.664 66.664 0 0 0-.42-.161 2.811 2.811 0 0 0-.359-.11c-.403-.083-.617-.013-1.176.385-.494.351-.773.481-1.24.574-.162.032-.757.078-.776.06a2.244 2.244 0 0 1 .142-.326c.297-.614.431-1.048.471-1.529.051-.599-.078-1.099-.42-1.627-.627-.965-.993-1.902-1.097-2.809-.059-.522-.059-1.829.001-2.419a6.385 6.385 0 0 1 4.014-5.309c.646-.255 1.258-.385 2.046-.433.941-.058 2.02-.061 3.07-.008ZM6.758 7.289a.85.85 0 0 0-.439.401c-.043.087-.049.127-.049.31 0 .192.005.22.058.325.07.137.223.288.362.356l.1.049h4.42l.1-.049a.899.899 0 0 0 .362-.356c.053-.105.058-.133.058-.325s-.005-.22-.058-.325a.899.899 0 0 0-.362-.356l-.1-.049-2.19-.004c-1.787-.003-2.203.001-2.262.023Zm14.784 3.503a.776.776 0 0 0-.435.392c-.079.155-.085.339-.02.646.051.245.101.577.123.81.05.539.044 1.89-.01 2.336-.11.906-.474 1.833-1.094 2.789-.267.411-.39.752-.424 1.176-.05.605.087 1.183.463 1.964.09.184.156.34.15.347-.019.018-.609-.028-.775-.061-.469-.094-.74-.22-1.245-.577-.487-.345-.693-.43-.995-.407-.195.015-.372.066-.735.211-.537.214-.829.287-1.285.321-1.362.101-3.366.063-4.22-.08-.889-.149-1.633-.45-2.475-1.001-.302-.198-.389-.228-.625-.214a.72.72 0 0 0-.613.413c-.052.103-.057.132-.057.323 0 .189.006.221.055.322.073.148.18.25.45.431a7.773 7.773 0 0 0 3.3 1.246c.931.124 3.33.145 4.455.039a5.21 5.21 0 0 0 1.445-.356c.058-.023.15-.059.202-.081l.098-.038.262.183a4.322 4.322 0 0 0 2.14.796c.31.032 1.196.012 1.403-.032a1.22 1.22 0 0 0 .764-.499.963.963 0 0 0 .156-.57c0-.308-.042-.437-.339-1.031-.276-.555-.298-.603-.374-.82-.175-.505-.16-.826.054-1.15.485-.736.901-1.61 1.12-2.357.232-.789.293-1.411.272-2.773-.014-.961-.045-1.306-.175-1.939-.066-.32-.12-.446-.249-.576a.649.649 0 0 0-.499-.21.757.757 0 0 0-.268.027Zm-14.784.497a.845.845 0 0 0-.439.401c-.043.087-.049.127-.049.31 0 .192.005.22.058.325.07.137.223.288.362.356l.1.049h7.42l.115-.058a.899.899 0 0 0 .356-.362c.043-.087.05-.128.05-.31s-.007-.223-.05-.31a.899.899 0 0 0-.356-.362l-.115-.058-3.69-.004c-3.034-.003-3.703.001-3.762.023Z" clip-rule="evenodd"/>
</svg>
