<svg xmlns="http://www.w3.org/2000/svg" width="24" height="24" fill="none" viewBox="0 0 24 24">
  <path fill="#161C24" fill-rule="evenodd" d="M10.41 1.291c-1.312.066-1.968.174-2.88.478-1.685.561-3.142 1.588-4.273 3.011A9.355 9.355 0 0 0 1.37 9.19c-.122.865-.148 2.794-.048 3.66.15 1.312.67 2.665 1.55 4.038.15.234.197.35.227.564.037.264-.012.588-.15.988-.04.116-.214.502-.39.86-.345.708-.39.822-.424 1.085-.05.381.055.69.323.956.336.332.715.415 1.802.393.4-.008.59-.02.78-.052.892-.147 1.51-.42 2.354-1.04l.145-.106.405.161c.569.224.928.326 1.376.39.989.141 3.842.153 5.19.022a8.956 8.956 0 0 0 3.24-.957 8.647 8.647 0 0 0 2.178-1.571 8.84 8.84 0 0 0 1.794-2.441c.478-.955.76-1.852.906-2.881.087-.614.102-.917.102-2.029 0-1.112-.015-1.415-.102-2.029A9.22 9.22 0 0 0 18.3 2.614a8.997 8.997 0 0 0-3.91-1.274c-.912-.079-2.891-.103-3.98-.049Zm2.95 1.49c.923.039 1.257.072 1.783.18 2.242.458 4.188 1.955 5.243 4.033.497.979.763 1.991.835 3.176.047.778.02 2.139-.052 2.72a7.786 7.786 0 0 1-1.546 3.79 8.143 8.143 0 0 1-1.621 1.57 7.547 7.547 0 0 1-3.532 1.36c-.816.093-2.89.125-4.07.062-1.021-.055-1.23-.098-2.011-.412-.938-.377-1.142-.356-1.92.201-.502.359-.715.477-1.09.6a4.45 4.45 0 0 1-.447.118c-.256.049-.77.083-1.005.067l-.167-.012.158-.302c.335-.64.512-1.106.624-1.638.06-.29.076-.872.029-1.147a2.583 2.583 0 0 0-.39-.997c-.766-1.142-1.274-2.448-1.38-3.55-.06-.62-.06-2.084 0-2.75a7.72 7.72 0 0 1 2.315-4.894A7.513 7.513 0 0 1 8.89 2.952c.474-.096.843-.132 1.76-.172a32.654 32.654 0 0 1 2.71.001ZM8.258 8.289a.853.853 0 0 0-.44.401c-.042.087-.048.127-.048.31 0 .192.005.22.058.325.07.137.223.288.362.356l.1.049h3.92l.1-.049a.899.899 0 0 0 .362-.356c.053-.105.058-.133.058-.325s-.005-.22-.058-.325a.899.899 0 0 0-.362-.356l-.1-.049-1.94-.004c-1.58-.003-1.953.001-2.012.023Zm0 5a.845.845 0 0 0-.44.401c-.042.087-.048.127-.048.31 0 .192.005.22.058.325.07.137.223.288.362.356l.1.049h7.42l.115-.058a.899.899 0 0 0 .356-.362c.043-.087.049-.128.049-.31s-.006-.223-.05-.31a.899.899 0 0 0-.355-.362l-.115-.058-3.69-.004c-3.034-.003-3.703.001-3.762.023Z" clip-rule="evenodd"/>
</svg>
