<svg xmlns="http://www.w3.org/2000/svg" width="24" height="24" fill="none" viewBox="0 0 24 24">
  <path fill="#161C24" fill-rule="evenodd" d="M11.41 1.282a5.753 5.753 0 0 0-5.129 5.155c-.028.281-.028 4.845 0 5.126a5.745 5.745 0 0 0 4.769 5.106c.59.097 1.29.097 1.9 0a5.763 5.763 0 0 0 3.388-1.899 5.706 5.706 0 0 0 1.382-3.21c.027-.264.026-4.854-.001-5.123a5.636 5.636 0 0 0-.926-2.607 5.72 5.72 0 0 0-4.23-2.549 9.052 9.052 0 0 0-1.153.001Zm1.18 1.51c.435.06.91.207 1.315.41.422.213.744.447 1.095.798.443.443.736.89.963 1.468.076.195.217.685.217.757 0 .032-.078.034-1.195.04l-1.195.005-.115.058a.899.899 0 0 0-.356.362c-.043.087-.049.128-.049.31s.006.223.049.31a.899.899 0 0 0 .356.362l.115.058 1.23.01 1.23.01v2.5l-1.23.01-1.23.01-.1.05a.899.899 0 0 0-.362.355c-.053.105-.058.133-.058.325s.005.22.058.325c.07.137.223.288.362.356l.1.05 1.195.005c1.115.005 1.195.008 1.195.04 0 .071-.141.562-.217.756A4.074 4.074 0 0 1 15 14a4.221 4.221 0 0 1-2.41 1.211 5.29 5.29 0 0 1-1.18 0A4.221 4.221 0 0 1 9 14.001c-.688-.688-1.077-1.48-1.224-2.49-.02-.14-.026-.698-.026-2.51 0-2.413.001-2.436.083-2.84a4.265 4.265 0 0 1 2.259-2.957 4.209 4.209 0 0 1 2.498-.412Zm-8.832 7.496a.856.856 0 0 0-.439.402c-.048.098-.049.11-.047.56.004 1.213.299 2.42.878 3.6a8.151 8.151 0 0 0 1.669 2.331 8.151 8.151 0 0 0 2.331 1.67 8.335 8.335 0 0 0 2.779.83l.325.04c.004 0 .004.343.001.764l-.005.765-.98.01-.98.01-.115.058a.899.899 0 0 0-.356.362c-.043.087-.049.128-.049.31s.006.223.049.31a.899.899 0 0 0 .356.362l.115.058h5.42l.115-.058a.899.899 0 0 0 .356-.362c.043-.087.049-.128.049-.31 0-.192-.005-.22-.058-.325a.899.899 0 0 0-.362-.356l-.1-.049-.98-.01-.98-.01-.005-.765c-.003-.42-.003-.765.001-.765.054 0 .7-.09.862-.12a8.748 8.748 0 0 0 6.891-6.53 7.337 7.337 0 0 0 .229-1.82l.002-.46-.058-.115a.899.899 0 0 0-.362-.356c-.087-.043-.128-.049-.31-.049s-.223.006-.31.05a.835.835 0 0 0-.406.46 4.332 4.332 0 0 0-.043.505c-.03.603-.085.995-.211 1.485a7.094 7.094 0 0 1-1.909 3.351 7.094 7.094 0 0 1-3.351 1.91c-.467.12-.885.18-1.415.207a7.22 7.22 0 0 1-3.496-.703c-1.108-.523-2.166-1.438-2.871-2.485a7.257 7.257 0 0 1-1.187-3.174c-.011-.085-.03-.346-.042-.58a5.043 5.043 0 0 0-.042-.506.806.806 0 0 0-.407-.47c-.123-.06-.433-.078-.552-.032Z" clip-rule="evenodd"/>
</svg>
