<svg xmlns="http://www.w3.org/2000/svg" width="24" height="24" fill="none" viewBox="0 0 24 24">
  <path fill="#161C24" fill-rule="evenodd" d="M11.758 1.288c-.157.06-.275.164-.988.871-.802.795-.83.816-1.13.9-.252.069-.376.059-1.506-.131-1.178-.197-1.252-.202-1.465-.093a.772.772 0 0 0-.342.343c-.052.102-.057.131-.057.322 0 .193.005.219.058.32.03.061.453.775.938 1.589l.88 1.479-.067.051c-.264.198-.545.489-1.097 1.131-1.814 2.109-3.175 4.254-3.986 6.28-.348.869-.635 1.937-.716 2.66a5.392 5.392 0 0 0 .07 1.47c.377 1.787 1.807 3.264 3.8 3.924.492.163.938.257 1.52.32.35.038 8.31.038 8.66 0a7.026 7.026 0 0 0 1.499-.313c2.084-.686 3.516-2.213 3.854-4.11.053-.296.072-.92.038-1.254-.093-.912-.457-2.15-.97-3.295-.894-1.997-2.401-4.228-4.182-6.192-.287-.316-.393-.42-.584-.568a1.008 1.008 0 0 1-.125-.107c0-.005.395-.672.877-1.482.483-.81.904-1.522.935-1.583.053-.101.058-.128.058-.32 0-.189-.006-.221-.055-.322a.832.832 0 0 0-.35-.35c-.201-.101-.292-.095-1.465.101-.663.112-1.084.173-1.18.173-.196 0-.374-.043-.56-.134-.14-.069-.205-.129-.91-.826-.884-.876-.875-.869-1.19-.876a.843.843 0 0 0-.262.022Zm.68 2.217c.237.234.513.486.61.56.3.225.694.4 1.093.488.243.053.862.05 1.164-.007a.96.96 0 0 1 .214-.028 48.19 48.19 0 0 1-1.09 1.789c-.228-.039-.635-.047-2.43-.047-1.794 0-2.2.008-2.43.047a48.19 48.19 0 0 1-1.088-1.789c-.001-.006.096.005.214.025.292.05.75.068.968.039.5-.067.97-.265 1.356-.57a10.8 10.8 0 0 0 .56-.525c.227-.223.414-.406.419-.406.004-.001.202.19.44.424Zm1.779 4.294c.333.068.603.191.868.395.272.209 1.32 1.44 1.975 2.316 1.786 2.394 2.882 4.676 3.162 6.58.03.206.03.653 0 .864-.211 1.476-1.462 2.693-3.235 3.144a5.855 5.855 0 0 1-.895.141c-.352.029-7.832.029-8.184 0-1.42-.113-2.7-.752-3.454-1.724-.513-.66-.762-1.461-.695-2.234.05-.575.265-1.419.56-2.201.765-2.02 2.297-4.384 4.209-6.497.276-.305.399-.416.594-.534a2.43 2.43 0 0 1 .778-.276c.028-.004.967-.009 2.087-.01 1.953-.003 2.045-.001 2.23.036Zm-2.46 2.489a.856.856 0 0 0-.438.402c-.042.087-.05.136-.06.368l-.01.269-.237.075c-.722.227-1.29.691-1.573 1.284-.136.284-.167.435-.167.814 0 .279.007.355.044.49.165.595.623 1.117 1.254 1.429.423.209.767.292 1.33.322.589.032.876.125 1.133.364.15.142.207.249.207.395 0 .146-.056.253-.207.394-.281.263-.723.389-1.207.344a1.585 1.585 0 0 1-.63-.181.99.99 0 0 1-.42-.399.801.801 0 0 0-.34-.332c-.096-.051-.125-.056-.316-.056-.192 0-.22.005-.33.058a.743.743 0 0 0-.41.549c-.032.177-.011.285.1.513.268.547.82.982 1.538 1.211l.232.074.01.267c.009.246.015.277.068.383.07.137.223.288.362.356.087.043.128.049.31.049s.223-.006.31-.049a.899.899 0 0 0 .362-.356c.053-.106.059-.137.068-.383l.01-.268.24-.077c.73-.235 1.288-.69 1.57-1.283.137-.284.168-.435.168-.814 0-.279-.007-.355-.044-.49-.165-.595-.623-1.117-1.254-1.429-.423-.209-.767-.292-1.33-.322-.59-.032-.876-.125-1.133-.364-.151-.142-.207-.249-.207-.395 0-.146.056-.253.207-.395.282-.263.72-.388 1.207-.343.242.022.42.074.629.181a.984.984 0 0 1 .417.396c.09.155.194.256.344.335.096.051.125.056.316.056.192 0 .22-.005.329-.058a.743.743 0 0 0 .41-.549c.033-.177.012-.285-.1-.513-.27-.55-.813-.978-1.54-1.211l-.23-.074-.01-.267c-.008-.23-.016-.282-.058-.368a.9.9 0 0 0-.355-.361c-.1-.05-.14-.059-.305-.063a.785.785 0 0 0-.263.022Z" clip-rule="evenodd"/>
</svg>
