<svg xmlns="http://www.w3.org/2000/svg" width="24" height="24" fill="none" viewBox="0 0 24 24">
  <path fill="#161C24" fill-rule="evenodd" d="M16.39 2.774c-1.582.084-3.431.499-4.754 1.067-2.066.887-4.252 1.122-6.666.718a13.778 13.778 0 0 1-2.61-.719c-.203-.081-.216-.084-.39-.076a.58.58 0 0 0-.304.072.747.747 0 0 0-.338.34l-.058.114v15.42l.058.115a.878.878 0 0 0 .392.369c.458.215 1.529.541 2.35.716a14.06 14.06 0 0 0 2.863.324c1.251.02 2.19-.078 3.297-.344a11.49 11.49 0 0 0 1.93-.644c.438-.183.534-.219.97-.358 2.287-.731 4.779-.835 6.88-.289.555.145.957.281 1.548.526l.288.12.182-.009a.585.585 0 0 0 .306-.072.747.747 0 0 0 .338-.34l.058-.114V4.29l-.049-.1a.899.899 0 0 0-.285-.322 3.773 3.773 0 0 0-.36-.166c-1.25-.52-2.485-.81-3.886-.912a21.925 21.925 0 0 0-1.76-.016Zm1.22 1.486a10.813 10.813 0 0 1 3.485.68l.165.064v6.7c0 5.873-.004 6.699-.029 6.689-.016-.006-.181-.056-.365-.112a12.526 12.526 0 0 0-2.746-.494 18.069 18.069 0 0 0-2.2.022c-1.594.157-3.08.515-4.284 1.032-.556.238-1.067.414-1.626.56-2.121.551-4.634.44-6.934-.307l-.326-.106-.005-6.704c-.005-6.376-.003-6.704.03-6.704.019 0 .094.019.165.042.436.139 1.206.315 1.81.415.832.139 1.326.183 2.183.197 1.251.02 2.19-.078 3.297-.344a11.49 11.49 0 0 0 1.93-.644c.226-.094.473-.193.55-.22a13.782 13.782 0 0 1 3.956-.764l.424-.018c.022-.002.256.006.52.016Zm-6.1 4.53a3.244 3.244 0 0 0-2.722 2.74 3.58 3.58 0 0 0 .07 1.284 3.244 3.244 0 0 0 2.328 2.328 3.396 3.396 0 0 0 1.628 0 3.244 3.244 0 0 0 2.328-2.328 3.58 3.58 0 0 0 .07-1.284 3.24 3.24 0 0 0-2.742-2.742 4.465 4.465 0 0 0-.96.002Zm.906 1.512a1.75 1.75 0 0 1 1.286 1.292c.084.354.044.797-.101 1.117a1.823 1.823 0 0 1-.895.892 1.81 1.81 0 0 1-1.679-.145 2.31 2.31 0 0 1-.46-.451 1.778 1.778 0 0 1 0-2.014 2.31 2.31 0 0 1 .46-.451 1.778 1.778 0 0 1 1.389-.24Zm5.449 0a.754.754 0 0 0-.539.414c-.051.103-.056.134-.056.324 0 .192.005.219.056.317.11.208.293.356.495.401.049.01.242.034.429.052.187.018.434.044.55.057.116.014.258.018.317.01a.775.775 0 0 0 .558-.415c.049-.101.055-.133.055-.322 0-.191-.005-.22-.056-.32a.83.83 0 0 0-.346-.348c-.115-.055-.342-.094-.828-.141-.466-.046-.521-.048-.635-.029Zm-12.98 1.821a.772.772 0 0 0-.56.415c-.049.101-.055.133-.055.322 0 .191.005.22.056.32a.76.76 0 0 0 .584.417c.482.077 1.063.125 1.214.101a.743.743 0 0 0 .55-.414c.051-.103.056-.134.056-.324 0-.201-.003-.215-.068-.335a.777.777 0 0 0-.348-.336c-.114-.052-.123-.053-1.204-.167a1.124 1.124 0 0 0-.225.001Z" clip-rule="evenodd"/>
</svg>
