<svg xmlns="http://www.w3.org/2000/svg" width="24" height="24" fill="none" viewBox="0 0 24 24">
  <path fill="#161C24" fill-rule="evenodd" d="M4.16 9.29a2.76 2.76 0 0 0-2.254 2.17c-.027.13-.036.26-.036.54 0 .281.01.411.036.54a2.775 2.775 0 0 0 2.134 2.15c.231.051.75.062.985.022a2.755 2.755 0 0 0 1.321-.59 2.78 2.78 0 0 0 .967-1.687 3.77 3.77 0 0 0-.023-1.015 2.767 2.767 0 0 0-2.25-2.13 3.7 3.7 0 0 0-.88 0Zm7.38.002a3.001 3.001 0 0 0-1.064.422 2.768 2.768 0 0 0-1.185 1.841c-.04.226-.04.664 0 .89.066.381.222.777.426 1.085a2.777 2.777 0 0 0 1.838 1.18c.361.062.847.031 1.236-.08.196-.056.554-.224.733-.344a2.767 2.767 0 0 0 1.185-1.84c.04-.227.04-.665 0-.89a2.948 2.948 0 0 0-.426-1.086 2.777 2.777 0 0 0-1.838-1.179 3.56 3.56 0 0 0-.905.001Zm7.5 0a3.001 3.001 0 0 0-1.064.422 2.768 2.768 0 0 0-1.185 1.841c-.064.366-.033.843.08 1.24.056.194.223.55.346.735a2.777 2.777 0 0 0 1.838 1.18c.361.062.847.031 1.236-.08.196-.056.554-.224.733-.344a2.767 2.767 0 0 0 1.185-1.84c.04-.227.04-.665 0-.89a2.948 2.948 0 0 0-.426-1.086 2.777 2.777 0 0 0-1.838-1.179 3.56 3.56 0 0 0-.905.001ZM4.89 10.783c.418.088.811.471.923.9.044.166.044.468 0 .635a1.282 1.282 0 0 1-.655.798 1.11 1.11 0 0 1-.576.128 1.233 1.233 0 0 1-1.04-.584c-.136-.21-.172-.347-.172-.66 0-.313.036-.45.172-.66a1.252 1.252 0 0 1 1.348-.557Zm7.4 0c.055.012.175.057.266.1.131.063.2.113.324.237.251.251.365.526.365.88 0 .223-.029.347-.128.556-.11.234-.327.45-.56.561a1.108 1.108 0 0 1-.557.128c-.223 0-.347-.029-.556-.128a1.239 1.239 0 0 1-.56-.56 1.108 1.108 0 0 1-.129-.557c0-.224.03-.347.13-.558a.999.999 0 0 1 .232-.32c.321-.319.717-.433 1.173-.339Zm7.5 0c.055.012.175.057.266.1.131.063.2.113.324.237.251.251.365.526.365.88 0 .223-.029.347-.128.556-.11.234-.327.45-.56.561a1.108 1.108 0 0 1-.557.128c-.223 0-.347-.029-.556-.128a1.239 1.239 0 0 1-.56-.56 1.108 1.108 0 0 1-.129-.557c0-.224.03-.347.13-.558a.999.999 0 0 1 .232-.32c.321-.319.717-.433 1.173-.339Z" clip-rule="evenodd"/>
</svg>
