<svg xmlns="http://www.w3.org/2000/svg" width="24" height="24" fill="none" viewBox="0 0 24 24">
  <path fill="#161C24" fill-rule="evenodd" d="M11.683 1.823a2.762 2.762 0 0 0-2.19 1.607c-.18.412-.223.628-.223 1.12 0 .293.008.42.037.55a2.753 2.753 0 0 0 3.637 2.03 2.787 2.787 0 0 0 1.563-1.46c.18-.412.223-.628.223-1.12 0-.293-.008-.419-.037-.55a2.749 2.749 0 0 0-2.41-2.179 2.46 2.46 0 0 0-.6.002Zm.587 1.507c.238.05.416.152.61.348.26.262.365.515.365.872s-.106.61-.365.872a1.066 1.066 0 0 1-.32.245 1.237 1.237 0 0 1-1.402-.2c-.28-.267-.402-.539-.4-.907 0-.38.094-.61.362-.882a1.09 1.09 0 0 1 .32-.246c.26-.126.546-.16.83-.102Zm-.73 5.962a3.001 3.001 0 0 0-1.064.422 2.768 2.768 0 0 0-1.185 1.841c-.04.226-.04.664 0 .89.066.381.222.777.426 1.085a2.777 2.777 0 0 0 1.838 1.18c.361.062.847.031 1.236-.08.196-.056.554-.224.733-.344a2.767 2.767 0 0 0 1.185-1.84c.04-.227.04-.665 0-.89a2.948 2.948 0 0 0-.426-1.086 2.777 2.777 0 0 0-1.838-1.179 3.56 3.56 0 0 0-.905.001Zm.75 1.491c.055.012.175.057.266.1.131.063.2.113.324.237.251.251.365.526.365.88 0 .223-.029.347-.128.556-.11.234-.327.45-.56.561a1.108 1.108 0 0 1-.557.128c-.223 0-.347-.029-.556-.128a1.239 1.239 0 0 1-.56-.56 1.108 1.108 0 0 1-.129-.557c0-.224.03-.347.13-.558a.999.999 0 0 1 .232-.32c.321-.319.717-.433 1.173-.339Zm-.75 6.01a3.001 3.001 0 0 0-1.064.421 2.768 2.768 0 0 0-1.185 1.841c-.04.226-.04.664 0 .89.066.381.222.777.426 1.085a2.777 2.777 0 0 0 1.838 1.18c.097.016.291.03.435.03.448 0 .823-.084 1.2-.269.367-.18.632-.38.875-.66.621-.718.83-1.677.565-2.602a3.435 3.435 0 0 0-.347-.739 2.777 2.777 0 0 0-1.838-1.179 3.56 3.56 0 0 0-.905.001Zm.75 1.49c.055.012.175.057.266.1.131.063.2.113.324.237.251.251.365.526.365.88 0 .223-.029.347-.128.556-.11.234-.327.45-.56.561a1.108 1.108 0 0 1-.557.128c-.223 0-.347-.029-.556-.128a1.239 1.239 0 0 1-.56-.56 1.108 1.108 0 0 1-.129-.557c0-.224.03-.347.13-.558a.999.999 0 0 1 .232-.32c.321-.319.717-.433 1.173-.339Z" clip-rule="evenodd"/>
</svg>
