<svg xmlns="http://www.w3.org/2000/svg" width="24" height="24" fill="none" viewBox="0 0 24 24">
  <path fill="#161C24" fill-rule="evenodd" d="M11.19 1.282a10.795 10.795 0 0 0-3.625.926 10.813 10.813 0 0 0-5.357 5.357A10.52 10.52 0 0 0 1.26 12c0 1.576.304 3.001.948 4.435a10.821 10.821 0 0 0 5.357 5.357c1.43.642 2.86.947 4.435.947 1.574 0 3.004-.305 4.435-.947a10.829 10.829 0 0 0 5.357-5.357c.642-1.43.947-2.86.947-4.435 0-1.574-.305-3.004-.947-4.435a10.821 10.821 0 0 0-5.357-5.357 10.47 10.47 0 0 0-4.475-.945c-.313.001-.66.01-.77.02Zm1.18 1.478a9.027 9.027 0 0 1 3.646.911 8.851 8.851 0 0 1 2.577 1.851 8.758 8.758 0 0 1 1.736 2.462 9.007 9.007 0 0 1 .909 3.613 9.22 9.22 0 0 1-1.424 5.353 9.513 9.513 0 0 1-2.474 2.604 9.437 9.437 0 0 1-3.277 1.465 9.508 9.508 0 0 1-4.126 0 9.322 9.322 0 0 1-3.627-1.727 10.03 10.03 0 0 1-1.602-1.602 9.322 9.322 0 0 1-1.727-3.627 9.509 9.509 0 0 1 0-4.126A9.327 9.327 0 0 1 4.708 6.31 10.03 10.03 0 0 1 6.31 4.708a9.297 9.297 0 0 1 3.67-1.736 9.051 9.051 0 0 1 1.589-.21c.188-.009.346-.017.35-.019.006 0 .209.006.45.017Zm-4.632 8.277c-.627.163-.932.916-.597 1.472a1.007 1.007 0 0 0 1.566.2A.92.92 0 0 0 9 12a.92.92 0 0 0-.293-.708 1.005 1.005 0 0 0-.97-.255Zm4.042-.015c-.24.046-.53.261-.66.487-.163.286-.161.71.006.988.215.36.609.547 1.02.487a.919.919 0 0 0 .556-.282.936.936 0 0 0 .28-.547c.108-.696-.501-1.269-1.202-1.133Zm4 0c-.228.044-.506.24-.64.451a1.05 1.05 0 0 0 0 1.054c.213.336.607.515 1.007.457a.919.919 0 0 0 .555-.282.936.936 0 0 0 .28-.547c.108-.696-.501-1.269-1.202-1.133Z" clip-rule="evenodd"/>
</svg>
