<svg xmlns="http://www.w3.org/2000/svg" width="24" height="24" fill="none" viewBox="0 0 24 24">
  <path fill="#161C24" fill-rule="evenodd" d="M20.5 8.75a.75.75 0 0 1 .75.75v6.846l1.375 3.202c.438 1.02-.319 2.202-1.453 2.202h-1.343c-1.134 0-1.89-1.182-1.453-2.202l1.374-3.202V9.5a.75.75 0 0 1 .75-.75Z" clip-rule="evenodd"/>
  <path fill="#161C24" fill-rule="evenodd" d="M11.772 2.267a1.57 1.57 0 0 1 .456 0c1.562.226 3.462.989 5.197 1.824a56.303 56.303 0 0 1 4.5 2.455c1.1.664 1.1 2.244 0 2.908a56.31 56.31 0 0 1-4.5 2.455c-1.735.835-3.635 1.598-5.197 1.824a1.572 1.572 0 0 1-.456 0c-1.562-.226-3.462-.989-5.197-1.824a56.31 56.31 0 0 1-4.5-2.455 1.694 1.694 0 0 1 0-2.908 56.303 56.303 0 0 1 4.5-2.455c1.735-.835 3.635-1.598 5.197-1.824Z" clip-rule="evenodd"/>
  <path fill="#161C24" d="m5.586 13.098.67 4.025a.758.758 0 0 0 .273.463l.003.003.008.006.026.02.094.072a12.81 12.81 0 0 0 1.546.975c.98.522 2.36 1.088 3.79 1.088 1.432 0 2.811-.566 3.791-1.088a12.807 12.807 0 0 0 1.546-.975l.094-.072.026-.02.008-.006.003-.002.001-.002a.75.75 0 0 0 .271-.462l.671-4.025-.334.163c-1.76.846-3.832 1.695-5.633 1.957a3.059 3.059 0 0 1-.886 0c-1.801-.262-3.874-1.11-5.633-1.957a47.763 47.763 0 0 1-.335-.163Z"/>
</svg>
