<svg xmlns="http://www.w3.org/2000/svg" width="24" height="24" fill="none" viewBox="0 0 24 24">
  <path fill="#161C24" d="M9.75 7a1.75 1.75 0 0 1 1.5-1.732V1.273c-2.808.179-4.71 1.374-5.887 3.273C4.125 6.54 3.75 9.216 3.75 12c0 2.785.375 5.458 1.613 7.454C6.643 21.517 8.777 22.75 12 22.75c3.223 0 5.357-1.233 6.637-3.296 1.238-1.996 1.613-4.67 1.613-7.454 0-2.785-.375-5.459-1.613-7.454-1.178-1.9-3.08-3.094-5.887-3.273v3.995c.848.121 1.5.85 1.5 1.732v2a1.75 1.75 0 0 1-1.75 1.75h-1A1.75 1.75 0 0 1 9.75 9V7Z"/>
  <path fill="#161C24" d="M11.25 7a.25.25 0 0 1 .25-.25h1a.25.25 0 0 1 .25.25v2a.25.25 0 0 1-.25.25h-1a.25.25 0 0 1-.25-.25V7Z"/>
</svg>
