<svg xmlns="http://www.w3.org/2000/svg" width="24" height="24" fill="none" viewBox="0 0 24 24">
  <path fill="#161C24" d="M12.75 2v4h-1.5V2h1.5Z"/>
  <path fill="#161C24" d="M18.75 12c0-2.705-.375-5.031-1.388-6.663C16.392 3.773 14.777 2.75 12 2.75S7.608 3.773 6.638 5.337C5.626 6.969 5.25 9.295 5.25 12s.376 5.031 1.388 6.663c.97 1.564 2.585 2.587 5.362 2.587s4.392-1.023 5.362-2.587c1.013-1.632 1.388-3.958 1.388-6.663Zm1.5 0c0 2.785-.375 5.459-1.612 7.454-1.28 2.064-3.415 3.296-6.638 3.296s-5.358-1.232-6.638-3.296C4.125 17.46 3.75 14.784 3.75 12c0-2.785.375-5.459 1.612-7.454C6.642 2.482 8.777 1.25 12 1.25s5.358 1.232 6.638 3.296C19.875 6.54 20.25 9.216 20.25 12Z"/>
  <path fill="#161C24" d="M12.75 7a.25.25 0 0 0-.25-.25h-1a.25.25 0 0 0-.25.25v2c0 .138.112.25.25.25h1a.25.25 0 0 0 .25-.25V7Zm1.5 2a1.75 1.75 0 0 1-1.75 1.75h-1A1.75 1.75 0 0 1 9.75 9V7c0-.966.784-1.75 1.75-1.75h1c.966 0 1.75.784 1.75 1.75v2Z"/>
</svg>
