<svg xmlns="http://www.w3.org/2000/svg" width="24" height="24" fill="none" viewBox="0 0 24 24">
  <path fill="#161C24" fill-rule="evenodd" d="M11.19 1.282a10.795 10.795 0 0 0-3.625.926 10.813 10.813 0 0 0-5.357 5.357A10.52 10.52 0 0 0 1.26 12c0 1.576.304 3.001.948 4.435a10.821 10.821 0 0 0 5.357 5.357c1.43.642 2.86.947 4.435.947 1.574 0 3.004-.305 4.435-.947a10.829 10.829 0 0 0 5.357-5.357c.642-1.431.947-2.861.947-4.435 0-1.574-.305-3.004-.947-4.435a10.821 10.821 0 0 0-5.357-5.357 10.47 10.47 0 0 0-4.475-.945c-.313.001-.66.01-.77.019Zm1.18 1.478a9.027 9.027 0 0 1 3.646.911 8.851 8.851 0 0 1 2.577 1.851 8.758 8.758 0 0 1 1.736 2.462 9.007 9.007 0 0 1 .909 3.613 9.22 9.22 0 0 1-1.424 5.353 9.513 9.513 0 0 1-2.474 2.604 9.437 9.437 0 0 1-3.277 1.465 9.508 9.508 0 0 1-4.126 0 9.322 9.322 0 0 1-3.627-1.727 10.03 10.03 0 0 1-1.602-1.602 9.322 9.322 0 0 1-1.727-3.627 9.508 9.508 0 0 1 0-4.126A9.327 9.327 0 0 1 4.708 6.31 10.03 10.03 0 0 1 6.31 4.708a9.297 9.297 0 0 1 3.67-1.736 9.051 9.051 0 0 1 1.589-.211c.188-.008.346-.016.35-.018.006-.001.209.006.45.017Zm3.692 3.031c-.07.015-.196.054-.28.086-.338.129-5.526 2.272-5.702 2.356a3.915 3.915 0 0 0-1.777 1.709c-.088.164-2.272 5.427-2.427 5.846a1.71 1.71 0 0 0-.116.644c0 .498.178.927.529 1.279.352.352.78.529 1.28.529.244 0 .437-.035.65-.118.416-.161 5.539-2.278 5.71-2.36a3.924 3.924 0 0 0 1.81-1.78c.109-.217 2.409-5.805 2.452-5.956.049-.176.06-.62.022-.81a1.839 1.839 0 0 0-1.428-1.428 2.43 2.43 0 0 0-.723.003Zm.49 1.487c.149.068.23.223.187.357a698.07 698.07 0 0 1-2.328 5.649 2.455 2.455 0 0 1-1.111 1.118c-.082.04-1.391.584-2.908 1.208-1.902.783-2.781 1.135-2.831 1.135a.309.309 0 0 1-.301-.303c0-.072.217-.617 1.132-2.841.623-1.513 1.18-2.844 1.24-2.958a2.371 2.371 0 0 1 1.007-1.011c.17-.088 5.585-2.329 5.724-2.369.093-.027.097-.027.189.015Zm-4.814 3.759c-.421.11-.738.522-.738.959 0 .437.29.839.697.965.263.081.609.039.83-.101.235-.149.416-.424.458-.698a1.003 1.003 0 0 0-.985-1.16c-.072 0-.19.016-.262.035Z" clip-rule="evenodd"/>
</svg>
