<svg xmlns="http://www.w3.org/2000/svg" width="24" height="24" fill="none" viewBox="0 0 24 24">
  <path fill="#161C24" fill-rule="evenodd" d="M19.36 2.72a2.183 2.183 0 0 0-.227.038 4040.38 4040.38 0 0 0-14.48 4.143A1.73 1.73 0 0 0 3.561 8.24a1.804 1.804 0 0 0 .39 1.431c.108.131.345.316.517.403.078.04 1.65.605 3.494 1.257 1.843.652 3.379 1.199 3.412 1.216.04.021.074.063.101.127.022.053.559 1.568 1.194 3.366.635 1.798 1.193 3.351 1.241 3.451.247.514.719.861 1.293.951.198.031.548.011.737-.042.327-.092.651-.297.862-.547.265-.314.098.231 2.368-7.716 1.127-3.945 2.059-7.217 2.072-7.27a1.89 1.89 0 0 0-.137-1.197 1.803 1.803 0 0 0-.803-.789 1.896 1.896 0 0 0-.942-.161Zm.299 1.517c.085.045.146.152.134.233-.019.123-4.095 14.354-4.124 14.398-.039.06-.112.092-.208.092-.107 0-.188-.072-.242-.216L14.03 15.39a317.209 317.209 0 0 0-1.198-3.357 1.803 1.803 0 0 0-.855-.862c-.059-.027-1.574-.568-3.367-1.201a750.078 750.078 0 0 1-3.365-1.193.453.453 0 0 1-.155-.101c-.087-.103-.056-.294.056-.354.059-.032 14.346-4.119 14.404-4.121.022 0 .071.015.109.036Z" clip-rule="evenodd"/>
</svg>
