<svg xmlns="http://www.w3.org/2000/svg" width="24" height="24" fill="none" viewBox="0 0 24 24">
  <path fill="#161C24" d="M21.25 12a9.25 9.25 0 1 0-18.5 0 9.25 9.25 0 0 0 18.5 0Zm1.5 0c0 5.937-4.813 10.75-10.75 10.75S1.25 17.937 1.25 12 6.063 1.25 12 1.25 22.75 6.063 22.75 12Z"/>
  <path fill="#161C24" d="M15.4 14.55a.75.75 0 1 1 1.2.9 5.742 5.742 0 0 1-4.6 2.3 5.739 5.739 0 0 1-4.397-2.044L7.4 15.45l-.043-.063a.75.75 0 0 1 1.194-.897l.049.06.15.19A4.239 4.239 0 0 0 12 16.25a4.24 4.24 0 0 0 3.4-1.7ZM17.25 9a1.25 1.25 0 1 0-2.5 0 1.25 1.25 0 0 0 2.5 0ZM6.75 9a1.25 1.25 0 1 0 2.5 0 1.25 1.25 0 0 0-2.5 0Zm12 0a2.75 2.75 0 0 1-5.477.343c-.431-.393-.81-.593-1.273-.593-.463 0-.843.2-1.274.593a2.748 2.748 0 0 1-5.463-.593H3a.75.75 0 0 1 0-1.5h2.879a2.749 2.749 0 0 1 4.543.448 2.997 2.997 0 0 1 3.155 0 2.75 2.75 0 0 1 4.544-.448H21a.75.75 0 0 1 0 1.5h-2.263c.008.082.013.166.013.25Z"/>
</svg>
