<svg xmlns="http://www.w3.org/2000/svg" width="24" height="24" fill="none" viewBox="0 0 24 24">
  <path fill="#161C24" fill-rule="evenodd" d="M2.354 7.25a10.75 10.75 0 0 1 9.646-6 10.75 10.75 0 0 1 9.646 6h-3.524a2.75 2.75 0 0 0-4.544.448 2.997 2.997 0 0 0-3.155 0A2.75 2.75 0 0 0 5.88 7.25H2.354ZM1.75 8.749A10.745 10.745 0 0 0 1.25 12c0 5.937 4.813 10.75 10.75 10.75S22.75 17.937 22.75 12c0-1.134-.176-2.227-.501-3.253a.762.762 0 0 1-.071.003h-3.439a2.75 2.75 0 0 1-5.468.59c-.43-.391-.808-.59-1.27-.59-.462 0-.84.199-1.271.59a2.75 2.75 0 0 1-5.468-.59H1.789l-.039-.001Zm5.8 5.651a.75.75 0 0 1 1.05.15 4.242 4.242 0 0 0 3.4 1.7 4.24 4.24 0 0 0 3.4-1.7.75.75 0 0 1 1.2.9 5.742 5.742 0 0 1-4.6 2.3 5.742 5.742 0 0 1-4.6-2.3.75.75 0 0 1 .15-1.05ZM6.75 9a1.25 1.25 0 1 1 2.5 0 1.25 1.25 0 0 1-2.5 0ZM16 7.75a1.25 1.25 0 1 1 .002 2.5A1.25 1.25 0 0 1 16 7.75Z" clip-rule="evenodd"/>
</svg>
