<svg xmlns="http://www.w3.org/2000/svg" width="24" height="24" fill="none" viewBox="0 0 24 24">
  <path fill="#161C24" fill-rule="evenodd" d="M11.64 1.72a1.93 1.93 0 0 0-.32.1c-.304.132-.387.203-1.24 1.066-.47.476-.837.831-.874.847-.058.024-.159.008-1.15-.177-1.053-.197-1.095-.203-1.376-.204-.34 0-.473.027-.75.157a1.735 1.735 0 0 0-.89.966c-.074.204-.077.224-.228 1.381-.105.803-.133.976-.166 1.02-.03.041-.28.161-1.053.506-.557.25-1.065.487-1.128.53a1.8 1.8 0 0 0-.623.731 1.532 1.532 0 0 0-.156.657c-.013.29.034.54.148.783.044.092.293.534.554.982.261.45.484.843.495.875a.166.166 0 0 1 0 .12 23.85 23.85 0 0 1-.495.875c-.26.448-.51.89-.554.982a1.61 1.61 0 0 0-.148.783c.013.271.05.43.156.657a1.8 1.8 0 0 0 .623.732c.063.042.571.28 1.128.53.77.342 1.023.464 1.053.504.032.044.058.2.146.87.165 1.27.168 1.286.231 1.476.15.452.474.818.907 1.022.273.13.411.158.74.158.27 0 .32-.008 1.375-.205.603-.112 1.117-.199 1.143-.193.025.007.306.275.624.595 1.003 1.014 1.075 1.083 1.218 1.178.591.39 1.348.391 1.938.002.144-.096.254-.202 1.24-1.199.308-.313.577-.569.603-.576.027-.006.537.08 1.144.193 1.056.197 1.105.205 1.375.205.33 0 .467-.029.74-.158.417-.197.743-.555.896-.983.068-.189.074-.226.214-1.308.138-1.066.131-1.023.181-1.086.026-.033.355-.19 1.04-.495a21.315 21.315 0 0 0 1.125-.524 1.8 1.8 0 0 0 .632-.738c.106-.228.143-.386.156-.657a1.61 1.61 0 0 0-.148-.783 25.86 25.86 0 0 0-.553-.98 23.56 23.56 0 0 1-.496-.876.171.171 0 0 1 0-.122c.012-.034.235-.427.496-.875.672-1.154.696-1.212.696-1.694 0-.208-.009-.316-.037-.42a2.155 2.155 0 0 0-.28-.599 2.1 2.1 0 0 0-.499-.468A26.975 26.975 0 0 0 20.4 7.38c-.54-.24-1-.452-1.02-.47a.28.28 0 0 1-.06-.107 27.94 27.94 0 0 1-.14-1.002c-.139-1.08-.145-1.119-.213-1.308a1.747 1.747 0 0 0-.896-.983c-.273-.129-.41-.158-.74-.158-.27 0-.319.008-1.375.205-.603.112-1.117.2-1.143.193-.025-.007-.297-.266-.604-.575-1.002-1.013-1.096-1.105-1.24-1.2a1.766 1.766 0 0 0-1.329-.255Zm.476 1.488c.03.016.135.112.233.215.1.103.458.468.798.812.654.662.767.755 1.051.875.447.19.638.181 2.03-.077a26.279 26.279 0 0 1 1.114-.193c.096 0 .19.076.218.176.011.041.075.497.142 1.014.148 1.154.161 1.22.288 1.47.182.358.436.612.79.79.093.047.561.258 1.04.47.966.426 1 .446 1 .603 0 .074-.06.19-.482.913-.7 1.205-.708 1.222-.708 1.724s.007.52.708 1.724c.421.724.482.84.482.913 0 .157-.035.178-.98.594-.468.206-.945.422-1.06.481a1.646 1.646 0 0 0-.734.686c-.179.313-.188.355-.344 1.572-.067.517-.13.974-.142 1.014a.252.252 0 0 1-.224.176c-.038 0-.537-.087-1.108-.193-1.392-.258-1.583-.266-2.03-.077-.284.12-.397.213-1.05.875-.34.344-.7.71-.799.812-.193.201-.253.243-.349.243-.095 0-.156-.042-.339-.233-.093-.097-.452-.463-.798-.812-.665-.672-.776-.765-1.06-.885a1.48 1.48 0 0 0-.729-.125c-.224.008-.423.04-1.302.202-.57.106-1.072.193-1.113.193a.24.24 0 0 1-.219-.176 29.03 29.03 0 0 1-.142-1.014 31.806 31.806 0 0 0-.15-1.078 1.75 1.75 0 0 0-.448-.83c-.254-.26-.3-.285-1.54-.832-.944-.416-.98-.438-.98-.593 0-.074.062-.19.49-.926.696-1.2.7-1.209.7-1.71 0-.503-.004-.512-.7-1.712-.428-.736-.49-.852-.49-.926 0-.155.036-.177.98-.593 1.22-.538 1.283-.572 1.522-.81.243-.244.411-.56.477-.9.011-.06.075-.528.141-1.04.066-.51.13-.963.14-1.004a.239.239 0 0 1 .222-.176c.043 0 .544.087 1.113.194l1.035.194.33.001c.322 0 .335-.002.52-.066.203-.07.351-.147.51-.264.09-.067 1.007-.98 1.461-1.457.098-.103.206-.204.24-.224a.256.256 0 0 1 .245-.01Zm2.65 6.58c-.13.043-.213.102-.37.27-.08.086-.77.873-1.536 1.748l-1.39 1.59-.76-.753c-.896-.89-.873-.873-1.21-.873-.182 0-.223.006-.31.05a.899.899 0 0 0-.362.355c-.053.105-.058.133-.058.325 0 .348-.057.276 1.2 1.531 1.254 1.256 1.182 1.2 1.53 1.2.191 0 .22-.006.32-.057a.998.998 0 0 0 .161-.1 504.87 504.87 0 0 0 3.615-4.129.674.674 0 0 0 .14-.485.63.63 0 0 0-.198-.47.632.632 0 0 0-.507-.224.891.891 0 0 0-.265.022Z" clip-rule="evenodd"/>
</svg>
