<svg xmlns="http://www.w3.org/2000/svg" width="24" height="24" fill="none" viewBox="0 0 24 24">
  <path fill="#161C24" d="m14.536 11-4.76-4.76c.1-.334.21-.648.328-.94.334-.835.706-1.443 1.069-1.827.36-.381.642-.473.83-.473.19 0 .47.091.83.473.364.384.736.992 1.07 1.827.582 1.454.986 3.443 1.08 5.7h-.447Zm6.628 6.628-4.2-4.2c.008-.142.015-.284.02-.428h5.723a10.684 10.684 0 0 1-1.543 4.628ZM8.203 4.667 6.375 2.84a10.683 10.683 0 0 1 4.34-1.513 3.85 3.85 0 0 0-.995.773c-.595.628-1.084 1.484-1.474 2.458l-.043.11ZM16.984 11h5.723a10.754 10.754 0 0 0-9.417-9.674c.372.195.705.464.997.773.594.628 1.083 1.484 1.473 2.458.69 1.725 1.13 3.976 1.224 6.443ZM5.138 3.727A10.73 10.73 0 0 0 1.297 11H7.02c.065-1.715.298-3.325.665-4.727L5.138 3.727ZM9.36 7.948a21.487 21.487 0 0 0-.339 3.053h3.391L9.359 7.948Zm5.052 5.053.54.54c-.131 2.034-.517 3.823-1.051 5.16-.334.835-.707 1.444-1.07 1.827-.36.382-.641.473-.83.473-.189 0-.47-.091-.83-.473-.363-.383-.736-.992-1.07-1.827-.581-1.454-.986-3.444-1.08-5.7h5.391Zm2.367 2.366 3.497 3.497a10.733 10.733 0 0 1-6.987 3.81 3.85 3.85 0 0 0 .996-.772c.594-.628 1.083-1.484 1.473-2.459.462-1.154.811-2.543 1.02-4.076ZM1.297 13.001H7.02c.094 2.467.534 4.718 1.224 6.443.39.974.88 1.83 1.473 2.458.292.308.625.578.997.773A10.754 10.754 0 0 1 1.297 13Z"/>
  <path fill="#161C24" fill-rule="evenodd" d="M1.293 1.293a1 1 0 0 1 1.414 0l20 20a1 1 0 0 1-1.414 1.415l-20-20a1 1 0 0 1 0-1.415Z" clip-rule="evenodd"/>
</svg>
