<svg xmlns="http://www.w3.org/2000/svg" width="24" height="24" fill="none" viewBox="0 0 24 24">
  <path fill="#161C24" fill-rule="evenodd" d="M11.316 1.29a2.677 2.677 0 0 0-2.033 1.65c-.05.124-2.79 10.129-2.96 10.8-.046.19-.051.247-.052.6-.001.304.007.427.035.56a2.716 2.716 0 0 0 1.824 2.029c.728.242 8.387 2.715 8.48 2.739a2.736 2.736 0 0 0 1.762-.176 2.666 2.666 0 0 0 1.418-1.632c.048-.151 2.822-10.67 2.894-10.97.058-.242.07-.739.027-1.019a2.693 2.693 0 0 0-1.731-2.1c-.164-.059-8.456-2.414-8.675-2.464-.195-.044-.79-.054-.99-.017Zm.714 1.493c.268.07 8.399 2.38 8.482 2.412.48.183.819.769.729 1.262-.02.103-2.713 10.36-2.864 10.903-.06.217-.145.371-.284.516a1.153 1.153 0 0 1-.833.368c-.093 0-.21-.01-.26-.023-.292-.077-8.513-2.754-8.62-2.807-.415-.205-.702-.764-.62-1.211.049-.274 2.903-10.693 2.962-10.818.107-.223.36-.455.606-.55a1.17 1.17 0 0 1 .702-.052ZM3.597 6.281a2.779 2.779 0 0 0-2.205 1.861 2.43 2.43 0 0 0-.126.938c.008.227.025.366.06.52.06.252 2.878 11.01 2.938 11.21.023.077.085.233.138.347.358.765 1.023 1.305 1.867 1.516a3.23 3.23 0 0 0 1.062.039c.403-.068 4.878-1.095 4.994-1.146a.79.79 0 0 0 .348-.348c.052-.099.057-.126.057-.318 0-.19-.005-.221-.056-.325a.815.815 0 0 0-.372-.362c-.238-.111-.14-.128-2.822.485-2.162.495-2.407.547-2.57.547a1.22 1.22 0 0 1-.873-.343 1.127 1.127 0 0 1-.316-.463c-.021-.06-.677-2.548-1.458-5.529L2.8 9.33a1.233 1.233 0 0 1 .654-1.448c.244-.122.289-.126 1.286-.14l.91-.012.11-.052a.79.79 0 0 0 .365-.372A.548.548 0 0 0 6.187 7a.548.548 0 0 0-.062-.306.79.79 0 0 0-.365-.372l-.11-.052-.97-.003a21.698 21.698 0 0 0-1.083.014Zm9.16.008a.805.805 0 0 0-.43.388c-.052.103-.057.132-.057.323 0 .197.004.218.063.33a.777.777 0 0 0 .333.336c.076.037.737.192 2.414.564 2.135.474 2.322.513 2.47.506a.542.542 0 0 0 .274-.064.812.812 0 0 0 .348-.348c.053-.104.058-.132.058-.324 0-.197-.004-.218-.063-.33a.777.777 0 0 0-.333-.336c-.076-.037-.735-.19-2.41-.563-2.437-.54-2.483-.549-2.666-.482Zm-1 4a.805.805 0 0 0-.43.388c-.052.103-.057.132-.057.323 0 .194.005.219.06.326a.794.794 0 0 0 .336.34c.079.039.415.114 1.424.315 1.173.234 1.337.262 1.473.255a.721.721 0 0 0 .609-.412c.053-.104.058-.132.058-.324 0-.194-.005-.219-.06-.326a.794.794 0 0 0-.336-.34c-.08-.039-.413-.113-1.414-.313-1.363-.272-1.501-.291-1.662-.232Z" clip-rule="evenodd"/>
</svg>
