<svg xmlns="http://www.w3.org/2000/svg" width="24" height="24" fill="none" viewBox="0 0 24 24">
  <path fill="#161C24" fill-rule="evenodd" d="M9.5 19c0 .976.948 2 2.472 2 1.546 0 2.528-1.043 2.528-2h2c0 2.357-2.198 4-4.528 4C9.619 23 7.5 21.338 7.5 19h2Z" clip-rule="evenodd"/>
  <path fill="#161C24" d="m22.03 14.47-1.32-1.4a.482.482 0 0 0-.566-.1 6.074 6.074 0 0 1-8.718-5.47c0-2.121 1.055-4.042 2.701-5.131a.252.252 0 0 0 .123-.197.75.75 0 0 0-.6-.757A8.25 8.25 0 0 0 3.75 9.5v2.672c0 .331-.132.649-.366.883L1.97 14.47a.75.75 0 0 0-.22.53v1.382c0 .655.37 1.285 1.006 1.566 1.67.736 4.89 1.802 9.244 1.802 4.353 0 7.574-1.066 9.244-1.802a1.703 1.703 0 0 0 1.006-1.566V15a.75.75 0 0 0-.22-.53Z"/>
  <path fill="#161C24" fill-rule="evenodd" d="M17.5 5a2.5 2.5 0 0 0-2.328 3.414l3.242-3.242A2.494 2.494 0 0 0 17.5 5Zm2.328 1.586-3.242 3.242a2.5 2.5 0 0 0 3.241-3.241ZM13 7.5a4.5 4.5 0 1 1 9 0 4.5 4.5 0 0 1-9 0Z" clip-rule="evenodd"/>
</svg>
