<svg xmlns="http://www.w3.org/2000/svg" width="24" height="24" fill="none" viewBox="0 0 24 24">
  <path fill="#161C24" fill-rule="evenodd" d="M11.41 1.272a8.691 8.691 0 0 0-1.38.218 8.266 8.266 0 0 0-6.214 6.96c-.039.28-.043.418-.055 2.12l-.013 1.82-.046.14c-.09.274-.122.313-.99 1.19-.685.691-.832.85-.882.95l-.06.12v.95c0 1.068-.001 1.06.151 1.379.148.309.37.564.627.719.365.219 1.757.734 2.711 1.002a26.96 26.96 0 0 0 2.272.519l.241.044.043.233c.242 1.308 1.271 2.414 2.673 2.874.504.166.923.23 1.488.23 1.24-.001 2.356-.439 3.181-1.247.549-.539.893-1.162 1.028-1.86l.044-.23.24-.044a24.231 24.231 0 0 0 3.361-.86c.673-.233 1.355-.512 1.598-.655.384-.225.691-.653.78-1.088.042-.203.047-1.836.006-1.966-.06-.191-.123-.264-.933-1.08-.861-.867-.893-.905-.983-1.18l-.046-.14-.013-1.82c-.014-1.992-.015-2.002-.149-2.68a8.255 8.255 0 0 0-3.53-5.26 8.168 8.168 0 0 0-3.51-1.312c-.235-.032-.437-.042-.93-.047a17.9 17.9 0 0 0-.71.001Zm.91 1.488a6.63 6.63 0 0 1 2.055.422 6.782 6.782 0 0 1 3.932 3.912c.189.499.343 1.123.392 1.596.013.121.028.243.034.27.006.028.017.856.026 1.84.013 1.593.019 1.807.05 1.94.044.194.097.351.184.55.177.404.326.59 1.101 1.372l.666.672v.518c0 .302-.009.55-.021.594-.026.093-.068.12-.399.257-1.74.717-3.819 1.22-5.9 1.427a25.665 25.665 0 0 1-4.88 0c-2.075-.205-4.208-.722-5.902-1.429-.34-.142-.371-.162-.397-.256a5.012 5.012 0 0 1-.021-.593v-.518l.666-.672c.862-.87.998-1.054 1.194-1.612.13-.368.125-.29.141-2.25.009-.984.02-1.812.026-1.84.006-.027.021-.149.034-.27.088-.846.422-1.841.876-2.605a6.755 6.755 0 0 1 5.453-3.324c.154-.008.293-.016.31-.018.017-.001.187.007.38.017ZM9.63 19.639c.7.073 1.157.09 2.37.09 1.212 0 1.734-.02 2.36-.09.094-.01.195-.019.225-.019.051 0 .053.003.033.055-.205.549-.777 1.085-1.438 1.346a3.32 3.32 0 0 1-2.42-.006c-.445-.182-.88-.516-1.13-.866a2.736 2.736 0 0 1-.259-.484c-.016-.053-.011-.054.259-.026Z" clip-rule="evenodd"/>
</svg>
