<svg xmlns="http://www.w3.org/2000/svg" width="24" height="24" fill="none" viewBox="0 0 24 24">
  <path fill="#161C24" fill-rule="evenodd" d="M11.81 1.274c-.022.005-2.108.929-4.636 2.052C2.703 5.312 2.575 5.37 2.476 5.468a.745.745 0 0 0-.211.394 648.84 648.84 0 0 0-.005 6.218l.01 6.13.063.12a.811.811 0 0 0 .377.356c.077.038 2.151.963 4.61 2.056l4.47 1.988h.42l4.579-2.037c2.519-1.12 4.618-2.065 4.665-2.098a.834.834 0 0 0 .255-.352c.027-.077.031-.793.031-6.241.001-6.684.009-6.216-.106-6.395a.832.832 0 0 0-.324-.284 1679.57 1679.57 0 0 0-9.068-4.026 1.07 1.07 0 0 0-.432-.023Zm1.534 2.142c.712.316 1.295.578 1.295.584 0 .006-1.606.723-3.569 1.595L7.5 7.18l-1.319-.585c-.726-.322-1.32-.59-1.32-.595 0-.022 7.131-3.177 7.159-3.168.017.006.613.269 1.324.584Zm4.5 2A60.85 60.85 0 0 1 19.139 6c0 .005-1.606.723-3.569 1.595L12 9.18l-1.319-.585c-.726-.322-1.32-.59-1.32-.595 0-.022 7.131-3.177 7.159-3.168.017.006.613.269 1.324.584ZM7.488 8.813c2.047.91 3.733 1.662 3.747 1.673.02.015.025 1.076.025 5.186 0 2.843-.006 5.168-.013 5.168-.019 0-7.454-3.305-7.482-3.326-.02-.015-.025-1.076-.025-5.186 0-2.843.006-5.168.013-5.168.006 0 1.687.744 3.735 1.653Zm12.772 3.515c0 4.11-.005 5.171-.025 5.186-.028.021-7.463 3.326-7.482 3.326-.007 0-.013-2.326-.013-5.169 0-4.113.005-5.172.025-5.185.036-.023 7.462-3.325 7.48-3.325.008-.001.015 2.324.015 5.167ZM5.755 10.289a.744.744 0 0 0-.498.708c0 .175.031.278.131.429a.616.616 0 0 0 .283.241c.055.028.666.278 1.359.556l1.26.506h.2c.183.001.211-.004.33-.061a.687.687 0 0 0 .348-.348c.056-.117.062-.149.062-.32 0-.166-.007-.205-.056-.31a.75.75 0 0 0-.337-.351 56.23 56.23 0 0 0-1.37-.561l-1.257-.505-.19-.006a.769.769 0 0 0-.265.022Z" clip-rule="evenodd"/>
</svg>
