<svg xmlns="http://www.w3.org/2000/svg" width="24" height="24" fill="none" viewBox="0 0 24 24">
  <path fill="#161C24" fill-rule="evenodd" d="M12.29 1.283c-.033.011-2.119.935-4.636 2.052C3.202 5.312 3.075 5.37 2.976 5.468a.733.733 0 0 0-.212.406c-.008.053-.01 1.05-.004 2.216l.01 2.12.058.115c.07.137.223.288.362.356.087.043.128.049.31.049.192 0 .22-.005.325-.058a.899.899 0 0 0 .356-.362l.049-.1.005-1.526c.006-1.435.008-1.526.04-1.515.019.006 1.704.753 3.745 1.66l3.71 1.649.005 5.183c.004 4.145 0 5.181-.02 5.173-.014-.005-1.14-.506-2.502-1.113-1.516-.675-2.518-1.111-2.583-1.123-.067-.012-.892-.017-2.203-.014l-2.097.006-.13.062a.827.827 0 0 0-.378.368c-.046.096-.052.136-.052.32 0 .201.003.215.068.335a.789.789 0 0 0 .358.342l.114.053 2.03.01 2.03.01 2.96 1.32 2.96 1.32.21-.001h.21l4.49-1.996c2.469-1.098 4.539-2.02 4.6-2.049a.877.877 0 0 0 .372-.359l.058-.115.01-6.13c.006-3.371.003-6.17-.005-6.22-.037-.215-.219-.442-.435-.544-.35-.165-8.969-3.989-9.058-4.019a.942.942 0 0 0-.452-.014Zm1.554 2.133c.712.316 1.295.578 1.295.584 0 .006-1.606.723-3.569 1.595L8 7.18l-1.319-.585c-.726-.322-1.32-.59-1.32-.595 0-.022 7.131-3.177 7.159-3.168.017.006.613.269 1.324.584Zm4.5 2A60.85 60.85 0 0 1 19.639 6c0 .005-1.606.723-3.569 1.595L12.5 9.18l-1.319-.585c-.726-.322-1.32-.59-1.32-.595 0-.022 7.131-3.177 7.159-3.168.017.006.613.269 1.324.584Zm2.416 6.912c0 4.11-.005 5.171-.025 5.186-.021.017-7.353 3.276-7.46 3.317-.033.013-.035-.241-.035-5.164V10.49l3.745-1.664c2.06-.916 3.752-1.665 3.76-1.665.008-.001.015 2.324.015 5.167Zm-18.502-.039a.853.853 0 0 0-.439.401c-.043.087-.049.127-.049.31 0 .192.005.22.058.325.07.137.223.288.362.356l.1.049h3.42l.1-.049a.899.899 0 0 0 .362-.356c.053-.105.058-.133.058-.325s-.005-.22-.058-.325a.899.899 0 0 0-.362-.356l-.1-.049-1.69-.004c-1.371-.003-1.704.001-1.762.023Zm0 3a.853.853 0 0 0-.439.401c-.043.087-.049.127-.049.31 0 .192.005.22.058.325.07.137.223.288.362.356l.1.049h3.42l.1-.049a.899.899 0 0 0 .362-.356c.053-.105.058-.133.058-.325s-.005-.22-.058-.325a.899.899 0 0 0-.362-.356l-.1-.049-1.69-.004c-1.371-.003-1.704.001-1.762.023Z" clip-rule="evenodd"/>
</svg>
