<svg xmlns="http://www.w3.org/2000/svg" width="24" height="24" fill="none" viewBox="0 0 24 24">
  <path fill="#161C24" fill-rule="evenodd" d="M10.79 1.283c-.033.011-2.12.935-4.636 2.052-4.452 1.977-4.58 2.035-4.678 2.133a.733.733 0 0 0-.212.406c-.008.053-.01 2.85-.004 6.216l.01 6.12.049.1a.899.899 0 0 0 .28.319c.04.025 2.123.957 4.63 2.073l4.56 2.028H11l.21-.001.908-.405c.499-.223.94-.427.98-.453a.76.76 0 0 0 .32-.509.741.741 0 0 0-.844-.848 2.726 2.726 0 0 0-.47.174c-.19.083-.348.152-.353.152-.006 0-.01-2.329-.01-5.175V10.49l3.725-1.654c2.049-.91 3.74-1.66 3.76-1.667.032-.012.034.09.04 1.764l.005 1.777.058.115c.07.137.223.288.362.356.087.043.128.049.31.049.192 0 .22-.005.325-.058a.899.899 0 0 0 .356-.362l.049-.1.01-2.38c.006-1.309.003-2.42-.005-2.47-.037-.215-.22-.442-.435-.544-.35-.165-8.97-3.989-9.058-4.019a.942.942 0 0 0-.452-.014Zm1.435 2.082c.646.287 1.173.524 1.17.526-.007.007-7.033 3.13-7.097 3.155-.047.018-.19-.04-1.245-.508A46.956 46.956 0 0 1 3.86 6c0-.022 7.13-3.177 7.159-3.168.017.006.559.245 1.205.533Zm4.479 1.99c.789.349 1.435.64 1.435.645 0 .005-1.606.723-3.57 1.595L11 9.18l-1.45-.645c-1.398-.621-1.45-.645-1.395-.671.296-.14 7.063-3.141 7.086-3.143.017-.001.676.284 1.464.634ZM6.52 8.829l3.71 1.649.005 5.181c.003 2.85.003 5.181 0 5.181-.011 0-7.445-3.311-7.47-3.326-.02-.013-.025-1.072-.025-5.187 0-4.914.002-5.169.035-5.158.019.006 1.704.753 3.745 1.66Zm-1.777 2.47a.746.746 0 0 0-.417.381c-.051.1-.056.129-.056.32 0 .189.006.221.055.322.114.233.138.247 1.35.855l1.107.553.214-.001c.193 0 .225-.005.325-.055a.854.854 0 0 0 .353-.354c.05-.1.056-.129.056-.32-.001-.19-.006-.221-.057-.324-.115-.231-.16-.259-1.362-.86l-1.093-.546-.184-.005a.68.68 0 0 0-.291.034Zm17.002 1.999a.696.696 0 0 0-.307.215c-.051.054-1.081 1.283-2.288 2.733l-2.196 2.637-1.002-.997c-1.167-1.162-1.107-1.116-1.452-1.116-.192 0-.22.005-.325.058a.899.899 0 0 0-.356.362c-.043.087-.05.128-.05.31 0 .352-.086.245 1.45 1.781s1.429 1.449 1.78 1.449c.192 0 .22-.005.322-.056a.927.927 0 0 0 .179-.12 768.36 768.36 0 0 0 5.114-6.134.67.67 0 0 0 .122-.466.659.659 0 0 0-.226-.492c-.153-.145-.258-.188-.48-.196a.657.657 0 0 0-.285.032Z" clip-rule="evenodd"/>
</svg>
