<svg xmlns="http://www.w3.org/2000/svg" width="24" height="24" fill="none" viewBox="0 0 24 24">
  <path fill="#161C24" fill-rule="evenodd" d="M10.478 1.334a.975.975 0 0 1 .792 0l8.775 3.9c.084.037.16.085.229.142a.75.75 0 0 1 .354.638v5.82c-.25.143-.478.332-.673.566l-3.247 3.897-.564-.565a2.5 2.5 0 0 0-3.536 3.536l1.927 1.926-3.357 1.491a.75.75 0 0 1-.609 0l-8.996-4A.75.75 0 0 1 1.128 18V6.212a.981.981 0 0 1 0-.174V6a.75.75 0 0 1 .39-.659.975.975 0 0 1 .185-.107l8.775-3.9ZM4.5 6.125l1.815.807 6.374-2.833-1.815-.807L4.5 6.125Zm6.374 2.833-2.097-.932 6.375-2.833 2.096.932-6.374 2.833ZM3.93 11.722a.75.75 0 0 1 .975-.418l2.5 1a.75.75 0 0 1-.558 1.392l-2.5-1a.75.75 0 0 1-.417-.974Zm18.714 2.918a1 1 0 0 0-1.536-1.28l-4.3 5.159-1.725-1.726a1 1 0 0 0-1.414 1.414l2.5 2.5a1 1 0 0 0 1.475-.067l5-6Z" clip-rule="evenodd"/>
</svg>
