<svg xmlns="http://www.w3.org/2000/svg" width="24" height="24" fill="none" viewBox="0 0 24 24">
  <path fill="#161C24" fill-rule="evenodd" d="M12 1.25C6.063 1.25 1.25 6.063 1.25 12S6.063 22.75 12 22.75c.052 0 .11 0 .175.002.36.005.899.013 1.343-.111.288-.08.614-.233.864-.534.258-.309.368-.693.368-1.107 0-.841-.431-1.48-.727-1.916l-.032-.049c-.244-.361-.394-.597-.46-.844-.052-.2-.06-.456.14-.856.24-.48.518-.673.89-.781.45-.13 1.032-.137 1.92-.137h.012c.85 0 1.894 0 3.113-.175 1.205-.172 2.063-.657 2.574-1.5.475-.787.57-1.767.57-2.742 0-5.937-4.813-10.75-10.75-10.75ZM7.265 15.967a1 1 0 0 0-.512-1.934l-.009.003a1 1 0 1 0 .512 1.933l.01-.002ZM7.25 8.5a2.25 2.25 0 1 1 4.5 0 2.25 2.25 0 0 1-4.5 0Zm9.25-1.25a2.25 2.25 0 1 0 0 4.5 2.25 2.25 0 0 0 0-4.5Z" clip-rule="evenodd"/>
</svg>
