<svg xmlns="http://www.w3.org/2000/svg" width="24" height="24" fill="none" viewBox="0 0 24 24">
  <path fill="#161C24" fill-rule="evenodd" d="M5.54 1.292a3.001 3.001 0 0 0-1.064.422 2.767 2.767 0 0 0-1.185 1.841c-.045.258-.045 2.632 0 2.89.066.381.222.777.426 1.085a2.777 2.777 0 0 0 1.838 1.18c.26.045 9.597.046 9.876.001.377-.062.79-.222 1.093-.425a2.78 2.78 0 0 0 1.168-1.736c.02-.09.04-.299.046-.48l.012-.32.22.004c.27.005.374.028.586.13.222.105.446.324.552.54.144.29.138.222.147 1.69.008 1.413 0 1.59-.083 1.827a1.265 1.265 0 0 1-.596.685c-.092.046-.84.286-2.026.652-2.08.641-2.055.633-2.262.732-.747.36-1.292 1.065-1.49 1.93a6.638 6.638 0 0 0-.036.717l-.012.607-.18.046a1.756 1.756 0 0 0-1.255 1.224l-.045.156v4.62l.045.156a1.772 1.772 0 0 0 1.22 1.22c.15.042.183.044.965.044s.815-.002.966-.045c.168-.049.39-.153.534-.252a1.82 1.82 0 0 0 .685-.967l.045-.156v-4.62l-.045-.156a2.106 2.106 0 0 0-.252-.534 1.782 1.782 0 0 0-1.002-.69l-.18-.046-.007-.357c-.006-.426.016-.654.084-.848.1-.285.335-.556.596-.685.092-.046.84-.286 2.026-.652 1.034-.318 1.933-.598 1.997-.62.916-.322 1.634-1.202 1.772-2.172.012-.083.02-.764.021-1.67 0-1.654 0-1.669-.11-2.055a3.402 3.402 0 0 0-.344-.729 2.78 2.78 0 0 0-1.736-1.168 3.689 3.689 0 0 0-.48-.046l-.32-.012-.012-.32a3.689 3.689 0 0 0-.046-.48 2.79 2.79 0 0 0-.629-1.262 2.762 2.762 0 0 0-1.618-.897c-.154-.027-.745-.03-4.965-.029-3.952.002-4.816.007-4.94.03Zm9.78 1.493a1.3 1.3 0 0 1 .797.66c.135.283.133.257.133 1.555s.002 1.272-.133 1.556c-.11.234-.327.45-.56.561-.303.144.098.133-5.057.133-3.857 0-4.689-.005-4.78-.027a1.3 1.3 0 0 1-.837-.667C4.748 6.272 4.75 6.298 4.75 5c0-.916.006-1.194.027-1.28a1.274 1.274 0 0 1 1.063-.959c.072-.009 2.21-.015 4.75-.013 4.285.003 4.628.005 4.73.037Zm-1.194 14c.03.02.07.06.09.09.032.05.034.18.034 2.125 0 1.946-.002 2.075-.035 2.126-.08.123-.089.124-.715.124s-.634 0-.715-.124c-.033-.05-.035-.183-.04-2.055-.004-1.1 0-2.039.005-2.086.015-.103.091-.198.177-.223.034-.01.306-.016.604-.015.48.003.547.007.595.038Z" clip-rule="evenodd"/>
</svg>
