<svg xmlns="http://www.w3.org/2000/svg" width="24" height="24" fill="none" viewBox="0 0 24 24">
  <path fill="#161C24" d="M3 3.75A2.75 2.75 0 0 1 5.75 1h9a2.75 2.75 0 0 1 2.75 2.75v2a2.75 2.75 0 0 1-2.75 2.75h-9A2.75 2.75 0 0 1 3 5.75v-2Zm8 13c0-.966.784-1.75 1.75-1.75h1c.966 0 1.75.784 1.75 1.75v4a1.75 1.75 0 0 1-1.75 1.75h-1A1.75 1.75 0 0 1 11 20.75v-4Z"/>
  <path fill="#161C24" fill-rule="evenodd" d="M17.75 5.5H17A.75.75 0 1 1 17 4h.752a2.75 2.75 0 0 1 2.75 2.75v2.523a2.75 2.75 0 0 1-1.942 2.628l-3.677 1.131A1.25 1.25 0 0 0 14 14.227v1.523a.75.75 0 0 1-1.5 0v-1.523a2.75 2.75 0 0 1 1.941-2.628l3.677-1.132a1.25 1.25 0 0 0 .883-1.194V6.75c0-.69-.56-1.25-1.25-1.25Z" clip-rule="evenodd"/>
</svg>
