<svg xmlns="http://www.w3.org/2000/svg" width="24" height="24" fill="none" viewBox="0 0 24 24">
  <path fill="#161C24" fill-rule="evenodd" d="M11.19 1.282a10.795 10.795 0 0 0-3.625.926 10.813 10.813 0 0 0-5.357 5.357A10.52 10.52 0 0 0 1.26 12c0 1.576.304 3 .948 4.435a10.821 10.821 0 0 0 5.357 5.357c1.183.53 2.37.83 3.675.927.394.03 1.6.03 1.84 0 .79-.094 1.317-.446 1.542-1.028.086-.221.118-.414.118-.702 0-.396-.084-.75-.271-1.145-.107-.228-.164-.324-.495-.832-.282-.433-.417-.694-.455-.882-.092-.458.26-1.175.708-1.437.049-.03.169-.08.266-.112.375-.125.772-.161 1.775-.161 2.07-.001 3.424-.122 4.185-.372a3.357 3.357 0 0 0 1.247-.721c.554-.528.864-1.226.99-2.232.044-.34.062-1.398.032-1.818a10.65 10.65 0 0 0-1.373-4.58 10.765 10.765 0 0 0-5.98-4.903 10.195 10.195 0 0 0-2.5-.504 15.461 15.461 0 0 0-1.68-.008Zm1.18 1.478a9.027 9.027 0 0 1 3.646.91 8.851 8.851 0 0 1 2.577 1.852 8.758 8.758 0 0 1 1.736 2.462 9.163 9.163 0 0 1 .91 4.416c-.075 1.618-.498 2.15-1.874 2.36-.718.109-1.261.14-2.815.16-1.5.02-1.793.04-2.27.16-.885.224-1.53.749-1.948 1.592-.23.46-.316.807-.32 1.268-.003.625.15 1.04.688 1.86.339.516.42.66.489.865.069.205.08.445.022.487-.068.049-.171.068-.507.092-.588.042-1.705-.022-2.32-.133a9.33 9.33 0 0 1-4.074-1.82 10.03 10.03 0 0 1-1.602-1.601 9.322 9.322 0 0 1-1.727-3.627 9.508 9.508 0 0 1 0-4.126A9.327 9.327 0 0 1 4.708 6.31 10.03 10.03 0 0 1 6.31 4.708a9.297 9.297 0 0 1 3.67-1.736 9.051 9.051 0 0 1 1.589-.211c.188-.008.346-.016.35-.018.006-.001.209.006.45.017ZM9.138 6.279c-.318.058-.732.23-.958.4a2.936 2.936 0 0 0-.484.48 2.71 2.71 0 0 0-.37.77c-.052.186-.056.228-.056.57 0 .344.004.386.056.57.067.245.236.596.37.77.118.156.332.368.484.482.164.122.523.292.75.353.183.049.23.054.57.054.338 0 .387-.005.567-.053.228-.062.547-.211.732-.341a2.69 2.69 0 0 0 .543-.55c.137-.197.269-.483.333-.718.048-.18.053-.228.053-.566 0-.34-.005-.387-.054-.57a2.68 2.68 0 0 0-.37-.77 2.936 2.936 0 0 0-.484-.481 2.795 2.795 0 0 0-.74-.35c-.162-.045-.24-.054-.52-.06a3.502 3.502 0 0 0-.422.01Zm7 1c-.318.058-.732.23-.958.4a2.936 2.936 0 0 0-.484.48 2.71 2.71 0 0 0-.37.77c-.052.186-.056.228-.056.57 0 .344.004.386.056.57.067.245.236.596.37.77.118.156.332.368.484.482.164.122.523.292.75.353.183.049.23.054.57.054.338 0 .387-.005.567-.053.228-.062.547-.211.732-.341a2.69 2.69 0 0 0 .543-.55c.137-.197.269-.483.333-.718.048-.18.053-.228.053-.566 0-.34-.005-.387-.054-.57a2.68 2.68 0 0 0-.37-.77 2.936 2.936 0 0 0-.484-.481 2.795 2.795 0 0 0-.74-.35c-.162-.045-.24-.054-.52-.06a3.494 3.494 0 0 0-.422.01Zm-6.418.505a.747.747 0 1 1-.441 1.431.747.747 0 0 1 .44-1.431Zm7 1a.753.753 0 0 1 .518.607.746.746 0 1 1-1.476 0 .752.752 0 0 1 .958-.607ZM6.81 14.02a1.006 1.006 0 0 0-.788 1.184c.093.452.513.797.967.796.448-.001.827-.275.97-.7a1.19 1.19 0 0 0-.018-.666 1.052 1.052 0 0 0-.594-.574c-.13-.05-.403-.07-.537-.04Z" clip-rule="evenodd"/>
</svg>
