<svg xmlns="http://www.w3.org/2000/svg" width="24" height="24" fill="none" viewBox="0 0 24 24">
  <path fill="#161C24" fill-rule="evenodd" d="M4.917 5.944a.972.972 0 0 0-.973.973v11.666c0 .537.436.973.973.973h11.666a.972.972 0 0 0 .973-.973v-5.347a.972.972 0 0 1 1.944 0v5.347a2.917 2.917 0 0 1-2.917 2.917H4.917A2.917 2.917 0 0 1 2 18.583V6.917A2.917 2.917 0 0 1 4.917 4h5.347a.972.972 0 0 1 0 1.944H4.917Z" clip-rule="evenodd"/>
  <path fill="#161C24" d="M19.414 2.51a1.743 1.743 0 0 0-2.466 0l-1.747 1.748L19.24 8.3l1.748-1.747a1.744 1.744 0 0 0 0-2.466l-1.575-1.575Zm-1.233 6.85-4.04-4.041-5.539 5.538c-.35.35-.6.79-.72 1.271l-.86 3.44a.75.75 0 0 0 .91.91l3.44-.86c.481-.12.92-.37 1.271-.72l5.538-5.538Z"/>
</svg>
