<svg xmlns="http://www.w3.org/2000/svg" width="24" height="24" fill="none" viewBox="0 0 24 24">
  <path fill="#161C24" fill-rule="evenodd" d="M17.88 2.489c-.233.045-.455.14-.69.296-.078.052-1.495 1.454-4.047 4.003a746 746 0 0 0-4.117 4.13c-.298.329-.496.655-.612 1.012-.03.088-.253.957-.497 1.93-.401 1.596-.445 1.787-.446 1.94a.519.519 0 0 0 .053.285c.029.063.077.146.107.184.114.149.37.271.572.271.107 0 3.673-.884 3.918-.971.213-.076.51-.235.684-.366.193-.145 8.255-8.187 8.384-8.363.247-.337.342-.636.339-1.07-.002-.242-.01-.304-.055-.456-.13-.429-.187-.499-1.257-1.566-1.054-1.049-1.114-1.097-1.53-1.219a2.022 2.022 0 0 0-.805-.04Zm1.295 2.336.85.85.01.104.01.104-.672.674-.673.673-.965-.965-.965-.965.673-.673.674-.672.104.01.104.01.85.85ZM4.94 4.061c-.2.018-.498.085-.677.152A2.744 2.744 0 0 0 2.48 6.48c-.016.138-.02 1.894-.016 6.44l.007 6.25.042.18c.078.328.213.664.363.898a2.748 2.748 0 0 0 1.949 1.262c.304.043 12.435.044 12.755.001a2.731 2.731 0 0 0 2.08-1.489c.164-.331.244-.616.279-.992.027-.287.029-5.693.002-5.857a.7.7 0 0 0-.21-.404.744.744 0 0 0-1.205.221l-.056.12-.01 2.96c-.011 3.308.002 3.016-.153 3.312a1.328 1.328 0 0 1-.703.602l-.134.046-6.2.006c-6.901.006-6.34.017-6.635-.131-.2-.1-.44-.341-.54-.54-.148-.296-.137.266-.131-6.635l.006-6.2.046-.134c.095-.282.338-.565.602-.703.296-.155.004-.141 3.312-.153l2.96-.01.12-.056a.743.743 0 0 0 .429-.557.72.72 0 0 0-.208-.648.7.7 0 0 0-.404-.21c-.14-.022-5.632-.021-5.887.002Zm9.875 7.055c-1.613 1.614-2.872 2.859-2.935 2.901-.06.041-.146.091-.19.111-.07.033-2.432.637-2.443.625-.012-.012.594-2.376.63-2.459.023-.053.07-.138.104-.19.034-.052 1.337-1.365 2.896-2.918l2.833-2.824.965.964.965.964-2.825 2.826Z" clip-rule="evenodd"/>
</svg>
