<svg xmlns="http://www.w3.org/2000/svg" width="24" height="24" fill="none" viewBox="0 0 24 24">
  <path fill="#161C24" fill-rule="evenodd" d="M15.778 1.288a.785.785 0 0 0-.424.376c-.028.058-.732 2.135-1.566 4.616l-1.516 4.51V11c-.002.19.003.221.053.322a.84.84 0 0 0 .352.351c.104.052.13.057.323.056l.21-.002 4.51-1.515a464.87 464.87 0 0 0 4.614-1.565.787.787 0 0 0 .338-.342c.053-.106.058-.132.057-.325v-.21l-.123-.3c-.588-1.443-1.318-2.561-2.362-3.618-1.073-1.086-2.25-1.865-3.714-2.457-.283-.115-.31-.122-.49-.128a.779.779 0 0 0-.262.021ZM10.62 2.29c-2.828.257-5.372 1.619-7.125 3.815a10.23 10.23 0 0 0-2.133 4.905 11.227 11.227 0 0 0-.07 2.35 10.236 10.236 0 0 0 2.37 5.741c.265.32.917.972 1.237 1.238a10.24 10.24 0 0 0 4.931 2.269c.645.105.87.122 1.67.121.783 0 1.038-.017 1.62-.111a10.258 10.258 0 0 0 7.204-4.908c.745-1.265 1.186-2.59 1.367-4.11.078-.654.051-2.12-.043-2.36a.768.768 0 0 0-.388-.422c-.079-.042-.117-.048-.31-.048-.213 0-.224.002-.346.069a.778.778 0 0 0-.337.359c-.066.136-.07.254-.03.861a8.22 8.22 0 0 1-.069 1.641 8.784 8.784 0 0 1-2.998 5.462c-2.65 2.267-6.45 2.729-9.576 1.165a8.817 8.817 0 0 1-3.388-2.997 8.772 8.772 0 0 1-1.385-5.93 8.803 8.803 0 0 1 1.997-4.55A10.006 10.006 0 0 1 6.31 5.457c1.618-1.192 3.647-1.805 5.598-1.692.648.038.761.035.892-.027a.73.73 0 0 0 .435-.617.704.704 0 0 0-.117-.481.74.74 0 0 0-.354-.287c-.216-.084-1.495-.122-2.144-.063Zm6.258.908c.798.406 1.62 1.018 2.314 1.725.56.569.975 1.106 1.365 1.762.198.333.445.82.427.839-.018.018-6.768 2.279-6.777 2.269-.006-.006 2.192-6.587 2.25-6.737l.022-.055.115.056c.064.03.191.094.284.141Z" clip-rule="evenodd"/>
</svg>
