<svg xmlns="http://www.w3.org/2000/svg" width="24" height="24" fill="none" viewBox="0 0 24 24">
  <path fill="#161C24" fill-rule="evenodd" d="M10.758 2.288a.857.857 0 0 0-.44.402l-.048.1-.006 5.16c-.004 4.016 0 5.18.019 5.249.06.222-.216-.059 4.298 4.363 2.659 2.606 3.128 3.057 3.23 3.108.11.055.135.06.329.06.307 0 .386-.044.718-.4a10.751 10.751 0 0 0 2.662-5.13c.245-1.154.289-2.482.12-3.696-.297-2.15-1.234-4.133-2.731-5.784a10.92 10.92 0 0 0-3.43-2.491 10.868 10.868 0 0 0-3.38-.921c-.394-.044-1.248-.056-1.341-.02Zm1.532 1.554a9.248 9.248 0 0 1 6.953 13.353 9.295 9.295 0 0 1-1.067 1.638l-.07.083-3.183-3.12-3.183-3.12V3.777l.135.013c.074.007.26.031.415.052Zm-4.3.941c-.651.236-1.528.718-2.12 1.163A9.304 9.304 0 0 0 4.066 7.76a8.833 8.833 0 0 0-1.598 3.8 9.416 9.416 0 0 0-.035 2.57 8.95 8.95 0 0 0 1.433 3.75 9.123 9.123 0 0 0 2.074 2.143 8.77 8.77 0 0 0 7.33 1.415c.31-.078.916-.28 1.064-.355a.768.768 0 0 0 .337-.337c.054-.107.059-.132.059-.326 0-.197-.004-.218-.064-.332a.718.718 0 0 0-.657-.411c-.122-.001-.191.016-.49.118-.857.294-1.552.412-2.41.412a6.838 6.838 0 0 1-2.26-.358 7.227 7.227 0 0 1-3.564-2.565c-.716-.957-1.18-2.087-1.368-3.344a9.974 9.974 0 0 1-.038-1.617A7.348 7.348 0 0 1 4.893 9.22 6.703 6.703 0 0 1 5.97 7.849a6.984 6.984 0 0 1 2.344-1.581c.306-.13.432-.218.524-.368a.735.735 0 0 0 .044-.712.695.695 0 0 0-.34-.353.56.56 0 0 0-.311-.069.952.952 0 0 0-.241.017Z" clip-rule="evenodd"/>
</svg>
