<svg xmlns="http://www.w3.org/2000/svg" width="24" height="24" fill="none" viewBox="0 0 24 24">
  <path fill="#161C24" fill-rule="evenodd" d="M5.892 15.549a1 1 0 0 1-.44 1.343C4.266 17.492 4 18.044 4 18.316c0 .154.072.395.403.715.333.323.869.66 1.612.964C7.496 20.602 9.612 21 12 21c2.388 0 4.504-.398 5.985-1.005.743-.304 1.279-.64 1.612-.964.331-.32.403-.561.403-.715 0-.271-.267-.824-1.451-1.424a1 1 0 0 1 .902-1.784c1.317.666 2.549 1.724 2.549 3.208 0 .863-.432 1.591-1.012 2.152-.577.559-1.36 1.016-2.245 1.378C16.967 22.573 14.583 23 12 23c-2.582 0-4.967-.427-6.743-1.154-.885-.362-1.668-.819-2.245-1.378C2.432 19.907 2 19.18 2 18.316c0-1.484 1.232-2.542 2.549-3.208a1 1 0 0 1 1.343.44Z" clip-rule="evenodd"/>
  <path fill="#161C24" fill-rule="evenodd" d="M12 9a1 1 0 0 1 1 1v7a1 1 0 1 1-2 0v-7a1 1 0 0 1 1-1Z" clip-rule="evenodd"/>
  <path fill="#161C24" fill-rule="evenodd" d="M7.25 6a4.75 4.75 0 1 1 9.5 0 4.75 4.75 0 0 1-9.5 0Z" clip-rule="evenodd"/>
</svg>
