<svg xmlns="http://www.w3.org/2000/svg" width="24" height="24" fill="none" viewBox="0 0 24 24">
  <path fill="#161C24" fill-rule="evenodd" d="M11.54 1.272c-.953.114-1.707.414-2.449.974a6.613 6.613 0 0 0-.845.845 4.846 4.846 0 0 0-.94 2.179c-.051.313-.051 1.147 0 1.46.132.802.44 1.517.94 2.179.167.222.645.695.874.866.604.45 1.259.746 1.96.884l.17.033.01 3.259.01 3.259.049.1a.899.899 0 0 0 .356.362c.105.053.133.058.325.058s.22-.005.325-.058a.899.899 0 0 0 .356-.362l.049-.1.01-3.259.01-3.259.17-.033a4.82 4.82 0 0 0 1.96-.884c.244-.182.713-.651.895-.895a4.826 4.826 0 0 0 .919-2.15c.028-.172.036-.332.036-.73 0-.398-.008-.558-.036-.73a4.826 4.826 0 0 0-.919-2.15 6.333 6.333 0 0 0-.866-.874 4.807 4.807 0 0 0-2.119-.929c-.186-.032-.346-.042-.71-.047a11.295 11.295 0 0 0-.54.002Zm.89 1.51c.317.037.714.159 1.029.317a3.27 3.27 0 0 1 1.753 2.411c.039.257.039.723 0 .98a3.267 3.267 0 0 1-1.751 2.409A3.121 3.121 0 0 1 12 9.242c-.533 0-.995-.108-1.46-.342a3.263 3.263 0 0 1-1.752-2.41 4.119 4.119 0 0 1 0-.98 3.257 3.257 0 0 1 3.642-2.728ZM4.72 15.307a7.299 7.299 0 0 0-.78.443c-.874.576-1.418 1.248-1.614 1.99a2.73 2.73 0 0 0-.039.964c.062.363.203.7.435 1.036 1.126 1.638 4.229 2.773 8.148 2.98a32.75 32.75 0 0 0 2.26 0c3.919-.207 7.03-1.345 8.148-2.98.348-.509.479-.947.457-1.525-.022-.56-.203-1.014-.606-1.522-.378-.476-1.013-.962-1.729-1.327l-.19-.096H19c-.189 0-.221.006-.323.056a.82.82 0 0 0-.35.352c-.052.102-.057.131-.057.322 0 .19.005.221.056.324.079.16.199.266.47.414.999.544 1.525 1.16 1.442 1.687-.042.263-.176.49-.451.763-.295.293-.642.529-1.167.789-1.377.685-3.251 1.111-5.47 1.244-.809.049-2.134.026-3.01-.052-1.821-.162-3.478-.57-4.69-1.157-.557-.27-.939-.524-1.241-.826-.535-.535-.595-.999-.197-1.519.249-.326.63-.623 1.189-.926.262-.142.396-.262.475-.421.048-.098.054-.132.054-.32 0-.191-.005-.22-.057-.322a.818.818 0 0 0-.35-.351c-.093-.045-.146-.056-.303-.061-.165-.006-.205 0-.3.041Z" clip-rule="evenodd"/>
</svg>
