<svg xmlns="http://www.w3.org/2000/svg" width="24" height="24" fill="none" viewBox="0 0 24 24">
  <path fill="#161C24" fill-rule="evenodd" d="M16.151 2.312a1.708 1.708 0 0 0-.96.612c-.05.067-.624 1.009-1.275 2.094a97.059 97.059 0 0 1-1.232 2.027c-.102.11-.103.11-.974-.065-.44-.088-.922-.179-1.07-.201a8.221 8.221 0 0 0-1.473-.041c-1.37.129-2.61.618-3.625 1.43-.316.253-1.327 1.144-1.409 1.242a1.896 1.896 0 0 0-.393.843c-.035.198-.016.573.04.767a2.1 2.1 0 0 0 .284.58c.045.06.877.907 1.85 1.88l1.765 1.77-2.646 2.65C2.023 20.916 2.27 20.638 2.27 21c0 .182.006.223.05.31a.899.899 0 0 0 .355.362c.105.053.133.058.325.058.362 0 .084.248 3.1-2.763l2.65-2.646 1.77 1.767c.973.971 1.823 1.805 1.887 1.851.158.115.391.229.573.281.193.056.545.074.755.041.32-.052.676-.225.9-.439.115-.111.825-.914 1.097-1.242a6.726 6.726 0 0 0 1.345-2.65c.13-.52.18-.896.196-1.462.021-.715-.01-.975-.262-2.228-.165-.817-.165-.823-.056-.924.03-.028.953-.589 2.05-1.246 1.282-.769 2.044-1.238 2.133-1.312.237-.2.435-.507.534-.828.06-.19.05-.71-.018-1.09-.18-1.002-.533-1.812-1.11-2.56a6.53 6.53 0 0 0-.824-.823c-.75-.581-1.569-.936-2.558-1.109-.375-.066-.81-.081-1.01-.036Zm.841 1.529c.865.164 1.534.504 2.098 1.069a3.71 3.71 0 0 1 .97 1.67c.12.432.192.947.14 1.01-.014.017-.942.581-2.06 1.253-1.165.698-2.092 1.267-2.167 1.329a1.723 1.723 0 0 0-.423.558c-.122.246-.17.459-.17.758 0 .218.013.304.17 1.08.202 1.005.23 1.218.23 1.723 0 .476-.04.811-.153 1.259a5.26 5.26 0 0 1-.99 2c-.246.305-1 1.158-1.055 1.195a.291.291 0 0 1-.142.035h-.09l-4.065-4.065L5.22 10.65l.001-.09c0-.05.011-.11.025-.133.035-.063 1.061-.957 1.338-1.168.74-.56 1.622-.905 2.605-1.021a6.924 6.924 0 0 1 1.141.011c.132.017.578.098.99.181.93.187.963.192 1.201.192a1.71 1.71 0 0 0 1.337-.637c.055-.069.633-1.014 1.284-2.1a189.16 189.16 0 0 1 1.234-2.043l.05-.068.174.013c.095.007.271.031.392.054Z" clip-rule="evenodd"/>
</svg>
