<svg xmlns="http://www.w3.org/2000/svg" width="24" height="24" fill="none" viewBox="0 0 24 24">
  <path fill="#161C24" d="M20.25 5.25H3.75V10c0 1.435.002 2.436.104 3.191.098.734.278 1.123.555 1.4.277.277.666.457 1.4.556.755.101 1.756.103 3.191.103h6c1.435 0 2.436-.002 3.191-.104.734-.098 1.123-.278 1.4-.555.277-.277.457-.666.555-1.4.102-.755.104-1.756.104-3.191V5.25Zm1.5 4.75c0 1.393.002 2.513-.116 3.392-.121.9-.38 1.657-.983 2.26-.602.601-1.36.86-2.26.982-.878.118-1.998.116-3.391.116H9c-1.393 0-2.513.002-3.392-.116-.9-.121-1.657-.38-2.26-.983-.601-.602-.86-1.36-.982-2.26-.118-.878-.116-1.998-.116-3.391V3.75h19.5V10Zm-9 10.5a.75.75 0 1 0-1.5 0 .75.75 0 0 0 1.5 0Zm1.5 0a2.25 2.25 0 1 1-4.5 0 2.25 2.25 0 0 1 4.5 0Z"/>
  <path fill="#161C24" d="M11.25 19v-3a.75.75 0 0 1 1.5 0v3a.75.75 0 0 1-1.5 0Zm9.998-16.249L21 2.75H3l-.249.001L2.75 3v.5l.001.248L3 3.75h18c.099 0 .179 0 .248-.002l.002-.248V3c0-.1 0-.18-.002-.249Zm1.502.749c0 .215.001.45-.025.648a1.28 1.28 0 0 1-.26.646l-.081.09a1.239 1.239 0 0 1-.736.34c-.197.027-.433.026-.648.026H3c-.214 0-.45.001-.648-.025a1.275 1.275 0 0 1-.646-.26l-.09-.081a1.238 1.238 0 0 1-.34-.736c-.027-.197-.026-.434-.026-.648V3c0-.214-.001-.45.025-.648.03-.22.105-.5.341-.736l.09-.08c.215-.174.454-.235.646-.26.197-.027.434-.026.648-.026h18c.215 0 .45-.001.648.025.192.026.431.087.646.26l.09.081.08.09c.174.215.235.454.26.646.027.197.026.434.026.648v.5Z"/>
</svg>
