<svg xmlns="http://www.w3.org/2000/svg" width="24" height="24" fill="none" viewBox="0 0 24 24">
  <path fill="#161C24" d="M20.25 7.5c0-.693-.378-1.407-.965-2.079a8.805 8.805 0 0 0-1.346-1.223l-.38-.272a.103.103 0 0 0-.059-.02.088.088 0 0 0-.027.004l-.032.016c-.453.309-1.15.836-1.726 1.495-.586.672-.965 1.386-.965 2.08a2.75 2.75 0 0 0 5.5 0Zm1.5 0a4.25 4.25 0 0 1-8.5 0c0-1.225.651-2.282 1.335-3.065.694-.795 1.507-1.406 2.013-1.75l.104-.065a1.597 1.597 0 0 1 1.7.066l.43.306c.474.353 1.062.846 1.583 1.443.684.783 1.335 1.84 1.335 3.065Zm-12.5 0c0-.693-.378-1.407-.965-2.079a8.804 8.804 0 0 0-1.347-1.223l-.38-.272a.103.103 0 0 0-.058-.02.136.136 0 0 0-.027.004l-.032.016c-.453.309-1.15.836-1.726 1.495-.587.672-.965 1.386-.965 2.08a2.75 2.75 0 0 0 5.5 0Zm1.5 0a4.25 4.25 0 0 1-8.5 0c0-1.224.651-2.282 1.335-3.065.694-.795 1.507-1.406 2.013-1.75l.104-.065a1.597 1.597 0 0 1 1.7.066l.43.306c.474.353 1.062.846 1.583 1.443.684.783 1.335 1.84 1.335 3.065Zm4 10c0-.693-.379-1.407-.965-2.079a8.804 8.804 0 0 0-1.347-1.223l-.38-.272a.104.104 0 0 0-.058-.02.091.091 0 0 0-.027.005l-.032.015c-.453.309-1.15.836-1.726 1.495-.587.672-.965 1.386-.965 2.08a2.75 2.75 0 0 0 5.5 0Zm1.5 0a4.25 4.25 0 0 1-8.5 0c0-1.224.651-2.282 1.335-3.065.694-.795 1.507-1.406 2.013-1.75l.104-.065a1.597 1.597 0 0 1 1.7.066l.43.306c.474.353 1.062.846 1.583 1.443.684.783 1.335 1.84 1.335 3.065Z"/>
</svg>
