<svg xmlns="http://www.w3.org/2000/svg" width="24" height="24" fill="none" viewBox="0 0 24 24">
  <path fill="#161C24" fill-rule="evenodd" d="M16.598 2.685a1.597 1.597 0 0 1 1.804 0c.505.344 1.318.954 2.013 1.75.683.782 1.335 1.84 1.335 3.065a4.25 4.25 0 0 1-8.5 0c0-1.225.652-2.283 1.335-3.066.695-.795 1.508-1.405 2.013-1.749Zm-11 0a1.597 1.597 0 0 1 1.804 0c.505.344 1.318.954 2.013 1.75.683.782 1.335 1.84 1.335 3.065a4.25 4.25 0 0 1-8.5 0c0-1.225.652-2.283 1.335-3.066.695-.795 1.508-1.405 2.013-1.749Zm5.5 10a1.597 1.597 0 0 1 1.804 0c.505.344 1.318.954 2.013 1.75.683.782 1.335 1.84 1.335 3.065a4.25 4.25 0 1 1-8.5 0c0-1.225.652-2.283 1.335-3.066.695-.795 1.508-1.405 2.013-1.749Z" clip-rule="evenodd"/>
</svg>
