<svg xmlns="http://www.w3.org/2000/svg" width="24" height="24" fill="none" viewBox="0 0 24 24">
  <path fill="#161C24" d="M21.25 12a9.25 9.25 0 1 0-18.5 0 9.25 9.25 0 0 0 18.5 0Zm1.5 0c0 5.937-4.813 10.75-10.75 10.75S1.25 17.937 1.25 12 6.063 1.25 12 1.25 22.75 6.063 22.75 12Z"/>
  <path fill="#161C24" d="M9.202 8.676a.75.75 0 0 1 1.382.578l-.065.161a2.277 2.277 0 0 1-2.08 1.335 2.278 2.278 0 0 1-2.08-1.335l-.065-.161-.022-.073a.75.75 0 0 1 1.404-.505l.03.07.047.105a.78.78 0 0 0 .687.399c.344 0 .63-.216.733-.504l.03-.07Zm7.092.07a.75.75 0 0 1 1.412.508 2.276 2.276 0 0 1-2.145 1.496c-.984 0-1.83-.62-2.145-1.496l1.411-.508a.776.776 0 0 0 .734.504c.345 0 .63-.216.733-.504Zm-2.426-.452a.75.75 0 0 1 .96.452l-1.412.508a.75.75 0 0 1 .452-.96Zm-6.55 4.979a.75.75 0 0 1 .887.472l.022.073.043.155c.478 1.581 2.117 2.777 3.73 2.777a.75.75 0 1 1 0 1.5c-2.262 0-4.498-1.62-5.168-3.85l-.06-.218-.014-.075a.75.75 0 0 1 .56-.834Z"/>
</svg>
