<svg xmlns="http://www.w3.org/2000/svg" width="24" height="24" fill="none" viewBox="0 0 24 24">
  <path fill="#161C24" fill-rule="evenodd" d="M12.707 19.293a1 1 0 0 1 0 1.414l-1 1a1 1 0 0 1-1.414-1.414l1-1a1 1 0 0 1 1.414 0Zm-8-8a1 1 0 0 1 0 1.414l-1 1a1 1 0 0 1-1.414-1.414l1-1a1 1 0 0 1 1.414 0Z" clip-rule="evenodd"/>
  <path fill="#161C24" d="m19.25 11.81-2.5 2.5v3.862c0 .729-.29 1.428-.805 1.944L13.53 22.53a.75.75 0 0 1-1.241-.293l-1.106-3.317a.25.25 0 0 0-.366-.136l-.762.457a1.75 1.75 0 0 1-2.137-.263l-2.896-2.896a1.75 1.75 0 0 1-.263-2.137l.457-.762a.25.25 0 0 0-.136-.366l-3.317-1.106a.75.75 0 0 1-.293-1.241l2.414-2.415a2.75 2.75 0 0 1 1.944-.805H9.69l2.5-2.5h1.812c.906 0 1.767.175 2.478.431.343.124.638.262.88.4L15.972 6.97a.75.75 0 0 0 1.06 1.06l1.42-1.42c.463.742.798 1.928.798 3.39v1.81Z"/>
  <path fill="#161C24" d="M20.75 10.102V10c0-2.083-.602-4.027-1.732-5.044-.465-.467-1.195-.885-2.03-1.186A8.908 8.908 0 0 0 14 3.25h-.103a10.75 10.75 0 0 1 6.245-2H22a.75.75 0 0 1 .75.75v1.858a10.75 10.75 0 0 1-2 6.244Z"/>
</svg>
