<svg xmlns="http://www.w3.org/2000/svg" width="24" height="24" fill="none" viewBox="0 0 24 24">
  <path fill="#161C24" fill-rule="evenodd" d="M19.25 1.29a10.69 10.69 0 0 0-2.94.669c-.721.276-1.542.702-2.17 1.125-.772.52-1.096.81-2.901 2.61L9.668 7.259l-2.13.006c-1.96.006-2.14.01-2.278.043a2.914 2.914 0 0 0-1.1.509c-.093.068-.648.608-1.461 1.42-1.514 1.515-1.43 1.41-1.43 1.763 0 .19.006.22.058.323.07.139.21.278.343.343.055.027.339.128.63.224.29.097.534.179.538.182.004.004-.095.113-.22.244-.153.158-.248.275-.288.355-.055.11-.06.135-.06.329 0 .192.005.22.058.325.07.137.223.288.362.356.087.043.128.049.31.049.322 0 .342-.013.956-.62l.505-.498.265.086c.41.135.446.153.494.252.029.059.037.104.028.143a4.895 4.895 0 0 1-.258.467c-.413.69-.45.785-.465 1.202-.016.428.063.724.28 1.056.147.22 3.156 3.23 3.377 3.376.303.199.6.286.976.286.422 0 .608-.067 1.238-.445.239-.143.464-.268.5-.28.053-.014.084-.01.153.025.1.048.118.082.253.494l.086.265-.5.505c-.605.614-.618.634-.618.956 0 .182.006.223.049.31a.899.899 0 0 0 .356.362c.105.053.133.058.325.058.194 0 .219-.005.329-.06.08-.04.197-.135.355-.288.13-.125.24-.224.244-.22.003.004.085.247.182.538.096.292.197.576.223.632.06.13.199.267.344.34.103.053.132.058.323.058.353 0 .248.085 1.762-1.43.81-.808 1.353-1.367 1.42-1.46.206-.282.307-.473.418-.79.135-.383.127-.241.135-2.594l.006-2.133 1.615-1.627c1.792-1.804 1.965-1.991 2.408-2.616a10.835 10.835 0 0 0 1.904-4.92c.063-.518.075-.884.068-2.13l-.006-1.24-.05-.1a.899.899 0 0 0-.355-.362l-.115-.058-1.33-.003c-.943-.002-1.417.005-1.63.023Zm2.006 1.91c.008.54-.025 1.382-.067 1.722a9.469 9.469 0 0 1-.567 2.278c-.121.308-.154.377-.167.359a3.868 3.868 0 0 1-.072-.23c-.227-.764-.553-1.423-.958-1.937a5.8 5.8 0 0 0-.786-.76c-.485-.367-1.085-.667-1.84-.922a6.321 6.321 0 0 0-.376-.12c-.038-.008-.06-.022-.05-.031.029-.03.652-.272.917-.358a9.965 9.965 0 0 1 1.79-.391c.383-.045.873-.065 1.57-.062l.6.002.006.45ZM14.76 4.789c.717.077 1.47.272 2.1.544.17.074.442.21.478.239.004.004-.32.339-.721.745-.86.873-.847.854-.847 1.183 0 .188.006.222.054.32.07.142.214.286.355.356.099.048.133.054.32.054.344 0 .318.018 1.197-.863.41-.411.754-.743.764-.737.03.019.173.293.265.51.277.655.456 1.452.507 2.26.013.21.013.21-.044.28-.21.258-.602.657-3.058 3.12-3.12 3.128-2.86 2.838-2.86 3.2 0 .182.006.223.049.31a.899.899 0 0 0 .356.362c.105.053.133.058.325.058.313 0 .353-.024.856-.52l.407-.4-.007 1.29-.007 1.29-.054.16c-.03.088-.09.214-.134.28-.047.072-.411.45-.907.947l-.83.828-.364-1.098a31.79 31.79 0 0 0-.43-1.24 1.601 1.601 0 0 0-.394-.538 1.682 1.682 0 0 0-.656-.391 1.259 1.259 0 0 0-.452-.074c-.478-.017-.664.045-1.324.44a5.934 5.934 0 0 1-.494.278.213.213 0 0 1-.12-.002c-.074-.025-3.04-2.984-3.068-3.063-.032-.088.004-.17.276-.625.142-.236.285-.495.318-.576.162-.391.168-.88.014-1.288a1.87 1.87 0 0 0-.638-.813c-.195-.133-.357-.195-1.5-.575l-1.097-.365.828-.83c.496-.495.875-.86.947-.906.066-.044.192-.104.28-.134l.16-.054 1.29-.007 1.289-.007-.4.407c-.495.503-.52.543-.52.856 0 .182.007.223.05.31a.899.899 0 0 0 .356.362c.105.053.133.058.325.058.362 0 .068.263 3.23-2.89 1.529-1.525 2.864-2.842 2.966-2.927.21-.173.174-.165.564-.124Z" clip-rule="evenodd"/>
</svg>
