<svg xmlns="http://www.w3.org/2000/svg" width="24" height="24" fill="none" viewBox="0 0 24 24">
  <path fill="#161C24" fill-rule="evenodd" d="M14.293 1.293a1 1 0 0 1 1.414 0L18 3.586l2.293-2.293a1 1 0 1 1 1.414 1.414L19.414 5l2.293 2.293a1 1 0 0 1-1.414 1.414L18 6.414l-2.293 2.293a1 1 0 1 1-1.414-1.414L16.586 5l-2.293-2.293a1 1 0 0 1 0-1.414ZM2.25 19a3.75 3.75 0 1 1 7.5 0 3.75 3.75 0 0 1-7.5 0Z" clip-rule="evenodd"/>
  <path fill="#161C24" fill-rule="evenodd" d="M4 8.5A4.5 4.5 0 0 1 8.5 4H12a1 1 0 1 1 0 2H8.5a2.5 2.5 0 0 0 0 5h7a4.5 4.5 0 1 1 0 9H12a1 1 0 1 1 0-2h3.5a2.5 2.5 0 0 0 0-5h-7A4.5 4.5 0 0 1 4 8.5Z" clip-rule="evenodd"/>
</svg>
