<svg xmlns="http://www.w3.org/2000/svg" width="24" height="24" fill="none" viewBox="0 0 24 24">
  <path fill="#161C24" fill-rule="evenodd" d="M17.45 1.283a4.79 4.79 0 0 0-2.47 1.065 4.835 4.835 0 0 0-1.673 2.962c-.052.312-.052 1.171 0 1.46.09.502.21.866.432 1.32.564 1.149 1.656 2.259 3.056 3.106.584.353.83.444 1.204.444.39 0 .627-.09 1.274-.487 1.862-1.141 3.097-2.688 3.395-4.255a5.42 5.42 0 0 0 .014-1.648c-.362-2.12-2.063-3.741-4.166-3.969a7.585 7.585 0 0 0-1.066.002Zm.98 1.499c1.195.153 2.225 1.004 2.636 2.178a3.24 3.24 0 0 1 .065 1.91c-.335 1.153-1.403 2.308-2.946 3.188l-.185.105-.185-.105c-1.531-.872-2.62-2.047-2.943-3.176a3.234 3.234 0 0 1-.03-1.612 3.283 3.283 0 0 1 2.373-2.418 3.119 3.119 0 0 1 1.215-.07Zm-.692 2.255c-.627.163-.932.916-.597 1.472a1.007 1.007 0 0 0 1.566.199A.92.92 0 0 0 19 6a.92.92 0 0 0-.293-.708 1.005 1.005 0 0 0-.97-.255ZM8.94 6.282c-1.657.191-3.056 1.254-3.52 2.676-.122.374-.15.57-.15 1.042 0 .315.009.456.037.61.107.573.389 1.158.785 1.629.565.673 1.41 1.175 2.338 1.39.426.098.387.097 2.45.112a93.93 93.93 0 0 1 2.02.028l.23.044c.399.076.905.291 1.2.511.525.39.849.927.907 1.502.057.562-.16 1.131-.6 1.577a2.351 2.351 0 0 1-.702.506c-.332.167-.568.239-1.045.322-.044.007-.535.019-1.09.026l-1.01.013-.115.058a.899.899 0 0 0-.356.362c-.043.087-.05.128-.05.31s.007.223.05.31a.899.899 0 0 0 .356.362l.115.058h1.11c1.175 0 1.222-.003 1.66-.101.28-.063.445-.115.71-.223 1.273-.519 2.148-1.514 2.413-2.746.062-.287.067-.963.01-1.27a3.716 3.716 0 0 0-.53-1.289c-.658-.993-1.84-1.68-3.127-1.82-.12-.013-.831-.021-1.85-.021-2.015-.001-2.174-.011-2.671-.163a3.626 3.626 0 0 1-.845-.421 3.038 3.038 0 0 1-.538-.537A1.896 1.896 0 0 1 6.95 9.17c.289-.592.867-1.053 1.599-1.278.142-.043.3-.078.56-.123.044-.007.535-.019 1.09-.026l1.01-.013.115-.058a.899.899 0 0 0 .356-.362c.043-.087.049-.128.049-.31s-.006-.223-.05-.31a.899.899 0 0 0-.355-.362l-.115-.058-1.06-.003a25.68 25.68 0 0 0-1.21.015Zm-4.43 9a3.775 3.775 0 0 0-2.906 2.138A3.519 3.519 0 0 0 1.26 19c0 .469.058.825.202 1.234a3.762 3.762 0 0 0 3.087 2.487c.294.039.907.014 1.202-.049a3.771 3.771 0 0 0 2.924-2.931c.05-.234.054-.285.054-.741s-.004-.507-.054-.741c-.336-1.567-1.574-2.738-3.138-2.968a5.52 5.52 0 0 0-1.027-.009Zm.86 1.502a2.249 2.249 0 0 1 1.644 3.211 2.247 2.247 0 1 1-1.644-3.211Z" clip-rule="evenodd"/>
</svg>
