<svg xmlns="http://www.w3.org/2000/svg" width="24" height="24" fill="none" viewBox="0 0 24 24">
  <path fill="#161C24" fill-rule="evenodd" d="M14.758 1.288a.856.856 0 0 0-.44.402c-.042.087-.048.127-.048.31 0 .35-.08.252 1.388 1.725L16.928 5l-1.27 1.275C14.19 7.748 14.27 7.65 14.27 8c0 .192.005.22.058.325.07.137.223.288.362.356.087.043.128.049.31.049.35 0 .252.079 1.725-1.388L18 6.071l1.275 1.271C20.748 8.809 20.65 8.73 21 8.73c.182 0 .223-.006.31-.049a.899.899 0 0 0 .362-.356c.053-.105.058-.133.058-.325 0-.35.079-.252-1.388-1.725L19.07 5l1.27-1.275C21.81 2.252 21.73 2.35 21.73 2c0-.192-.005-.22-.058-.325a.899.899 0 0 0-.362-.356c-.087-.043-.128-.049-.31-.049-.35 0-.252-.079-1.725 1.388L18 3.929l-1.275-1.271c-1.458-1.452-1.375-1.385-1.705-1.392a.843.843 0 0 0-.262.022ZM7.92 4.292c-1.217.163-2.304.859-3 1.918a5.45 5.45 0 0 0-.42.856 4.428 4.428 0 0 0-.12 2.468 4.21 4.21 0 0 0 1.119 1.967 4.229 4.229 0 0 0 2.25 1.183c.22.043.236.043 4.12.056 4.344.013 4.046.003 4.488.151a2.749 2.749 0 0 1 1.754 3.457 2.749 2.749 0 0 1-1.754 1.761c-.418.14-.368.137-2.577.15l-1.99.011-.115.058a.899.899 0 0 0-.356.362c-.043.087-.05.128-.05.31s.007.223.05.31a.899.899 0 0 0 .356.362l.115.058 2 .006c1.735.005 2.034.001 2.254-.026a4.241 4.241 0 0 0 3.665-3.656 5.13 5.13 0 0 0 0-1.108c-.161-1.24-.848-2.323-1.92-3.026a4.505 4.505 0 0 0-1.54-.604c-.218-.043-.234-.043-4.12-.056-4.342-.013-4.044-.003-4.486-.151A2.754 2.754 0 0 1 5.89 9.357a2.544 2.544 0 0 1-.134-.857c0-.322.039-.57.134-.857a2.752 2.752 0 0 1 1.752-1.752c.425-.141.348-.137 2.567-.15l2-.011.1-.049a.899.899 0 0 0 .362-.356c.053-.105.058-.133.058-.325s-.005-.22-.058-.325a.899.899 0 0 0-.362-.356l-.1-.049-2.04-.003c-1.656-.003-2.08.002-2.25.025Zm-2.41 10.99a3.775 3.775 0 0 0-2.906 2.138A3.519 3.519 0 0 0 2.26 19c0 .469.058.825.202 1.234a3.762 3.762 0 0 0 3.087 2.487c.294.039.907.014 1.202-.049a3.771 3.771 0 0 0 2.924-2.931c.05-.234.054-.285.054-.741s-.004-.507-.054-.741c-.336-1.567-1.574-2.738-3.138-2.968a5.52 5.52 0 0 0-1.027-.009Zm.86 1.502a2.249 2.249 0 0 1 1.644 3.211 2.247 2.247 0 1 1-1.644-3.211Z" clip-rule="evenodd"/>
</svg>
