<svg xmlns="http://www.w3.org/2000/svg" width="24" height="24" fill="none" viewBox="0 0 24 24">
  <path fill="#161C24" d="M22.002 14.25v1.5h-20v-1.5h20Zm-6.976-7.332a.75.75 0 0 1 1.056 1.056l-.052.056-2 2a.75.75 0 1 1-1.06-1.06l2-2 .056-.052Zm2 2a.75.75 0 0 1 1.056 1.056l-.052.056-2 2a.75.75 0 1 1-1.06-1.06l2-2 .056-.052Z"/>
  <path fill="#161C24" d="M10.001 9v.75a.75.75 0 0 0 .75-.75h-.75Zm-6-2 .624-.416a.75.75 0 0 0-1.294.08L4 7Zm7.401-1.607a.75.75 0 1 0-.88 1.214l.88-1.214Zm-.4.607-.532-.53-.002.002-.002.003-.006.006a1.46 1.46 0 0 0-.066.072 3.17 3.17 0 0 0-.15.185 4.446 4.446 0 0 0-.414.677C9.534 7.006 9.251 7.87 9.251 9h1.5c0-.87.217-1.506.42-1.915a2.954 2.954 0 0 1 .352-.544.061.061 0 0 1 .014-.016c0-.001 0-.001 0 0l-.002.002a.025.025 0 0 1-.003.002L11.002 6ZM7.657 9.75H10v-1.5H7.658v1.5Zm-4.28-2.334c.542.813 1.125 1.417 1.851 1.807.728.39 1.527.527 2.43.527v-1.5c-.754 0-1.283-.114-1.72-.348-.438-.235-.855-.63-1.313-1.318l-1.248.832Zm7.145-.809 10.212 7.401.88-1.214-10.212-7.401-.88 1.214Zm9.472 10.643H3.936v1.5h16.058v-1.5Zm-17.24-1.199c.15-2.361.66-6.205 1.918-8.715L3.33 6.664c-1.404 2.799-1.923 6.905-2.075 9.292l1.497.095Zm1.182 1.2c-.705 0-1.223-.558-1.183-1.2l-1.497-.095c-.099 1.564 1.168 2.794 2.68 2.794v-1.5ZM21.251 16c0 .687-.56 1.25-1.257 1.25v1.5A2.754 2.754 0 0 0 22.75 16h-1.5Zm-.517-1.993c.516.374.517.9.517 1.992h1.5c0-.846.117-2.298-1.136-3.206l-.88 1.214Z"/>
</svg>
