<svg xmlns="http://www.w3.org/2000/svg" width="24" height="24" fill="none" viewBox="0 0 24 24">
  <path fill="#161C24" d="M21.25 12a9.25 9.25 0 1 0-18.5 0 9.25 9.25 0 0 0 18.5 0Zm1.5 0c0 5.937-4.813 10.75-10.75 10.75S1.25 17.937 1.25 12 6.063 1.25 12 1.25 22.75 6.063 22.75 12Z"/>
  <path fill="#161C24" d="M12 14.25c1.764 0 3.343.795 4.396 2.044l.203.256.043.063a.75.75 0 0 1-1.193.897l-.049-.06-.151-.19a4.239 4.239 0 0 0-3.25-1.51 4.239 4.239 0 0 0-3.248 1.51l-.152.19a.75.75 0 1 1-1.199-.9l.203-.256A5.739 5.739 0 0 1 12 14.25ZM8.009 8l.102.005a1 1 0 0 1 0 1.99L8.01 10H8a1 1 0 0 1 0-2h.009ZM16 8a1 1 0 1 1 0 2h-.009a1 1 0 1 1 0-2H16Z"/>
</svg>
