<svg xmlns="http://www.w3.org/2000/svg" width="24" height="24" fill="none" viewBox="0 0 24 24">
  <path fill="#161C24" fill-rule="evenodd" d="M12 1.25C6.063 1.25 1.25 6.063 1.25 12c0 1.393.265 2.725.748 3.946.118-.165.253-.324.404-.472l.01-.01 1.633-1.574a1.4 1.4 0 0 1 1.952.01l1.576 1.547a3.469 3.469 0 0 1 0 5.024 3.65 3.65 0 0 1-1.122.738A10.7 10.7 0 0 0 12 22.75c5.937 0 10.75-4.813 10.75-10.75S17.937 1.25 12 1.25ZM6.75 8.441c0-.69.56-1.25 1.25-1.25h.009a1.25 1.25 0 1 1 0 2.5H8c-.69 0-1.25-.56-1.25-1.25Zm7.991 0c0-.69.56-1.25 1.25-1.25H16a1.25 1.25 0 1 1 0 2.5h-.009c-.69 0-1.25-.56-1.25-1.25Zm-2.74 5.809c-1.047 0-2.03.28-2.877.77a.75.75 0 0 0 .752 1.298A4.225 4.225 0 0 1 12 15.75c.958 0 1.84.316 2.55.85a.75.75 0 0 0 .9-1.2A5.727 5.727 0 0 0 12 14.25Z" clip-rule="evenodd"/>
  <path fill="#161C24" fill-rule="evenodd" d="M3.383 16.472a2.085 2.085 0 0 0 .016 3.009c.887.838 2.33.824 3.203-.018a2.07 2.07 0 0 0 0-3.008l-.005-.004-1.58-1.553-1.634 1.574Z" clip-rule="evenodd"/>
</svg>
