<svg xmlns="http://www.w3.org/2000/svg" width="24" height="24" fill="none" viewBox="0 0 24 24">
  <path fill="#161C24" d="M9.75 5.814c0-.753-.115-1.284-.336-1.605-.153-.222-.417-.43-.996-.456h-.269c-1.294.056-2.564.688-3.65 1.543l-.215.174c-.943.786-1.358 1.593-1.487 2.443-.134.884.03 1.887.39 3.071l2.383 7.838.054.152c.299.74 1.075 1.276 1.997 1.276 1.222 0 2.129-.918 2.129-1.95V5.814Zm1.5 12.486c0 1.95-1.671 3.45-3.629 3.45-1.489 0-2.848-.87-3.389-2.216l-.096-.275L1.75 11.42c-.383-1.259-.622-2.518-.438-3.733.19-1.247.813-2.373 2.011-3.37l.242-.196c1.23-.97 2.797-1.793 4.519-1.867l.213-.005c1.05.003 1.849.38 2.35 1.107.489.708.602 1.624.602 2.457V18.3Zm4.665-16.045.343.024c1.7.172 3.234 1.052 4.418 2.038l.218.189c1.056.95 1.615 2.013 1.793 3.182.16 1.063-.003 2.16-.302 3.26l-.136.473-2.385 7.838c-.456 1.5-1.897 2.49-3.485 2.491-1.958 0-3.629-1.5-3.629-3.45V5.814c0-.833.113-1.749.602-2.457.534-.775 1.407-1.152 2.563-1.102ZM14.25 18.3c0 1.032.907 1.95 2.129 1.95.983 0 1.802-.61 2.05-1.428l2.385-7.838.125-.435c.271-.998.381-1.863.264-2.636-.12-.797-.493-1.557-1.316-2.296l-.171-.147c-1.06-.883-2.317-1.567-3.607-1.699l-.258-.018c-.77-.033-1.09.202-1.265.456-.221.321-.336.852-.336 1.605V18.3Z"/>
  <path fill="#161C24" d="M2.25 13c0-.632.21-1.688.802-2.703A5.385 5.385 0 0 1 5.75 7.964V7a.75.75 0 0 1 1.5 0v.902c1.954.494 2.965 1.289 3.54 1.832l.24.236.052.056a.75.75 0 0 1-1.056 1.056l-.056-.052-.186-.182c-.475-.456-1.356-1.163-3.25-1.574a3.887 3.887 0 0 0-2.186 1.779c-.458.784-.598 1.579-.598 1.947a.75.75 0 0 1-1.5 0Zm11.78-1.97a.75.75 0 1 1-1.06-1.06l1.06 1.06ZM16.75 7a.75.75 0 0 1 1.5 0h-1.5Zm3.5 6c0-.368-.14-1.163-.598-1.947a3.895 3.895 0 0 0-2.358-1.832l.412-1.442a5.394 5.394 0 0 1 3.242 2.518c.592 1.016.802 2.071.802 2.703h-1.5Zm-7.28-3.03c.565-.566 1.692-1.667 4.383-2.205l.294 1.47c-2.309.462-3.182 1.36-3.617 1.795l-1.06-1.06Zm3.78-1.47V7h1.5v1.5h-1.5Z"/>
</svg>
