<svg xmlns="http://www.w3.org/2000/svg" width="24" height="24" fill="none" viewBox="0 0 24 24">
  <path fill="#161C24" fill-rule="evenodd" d="M1.758 1.288a.856.856 0 0 0-.439.402c-.043.087-.049.127-.049.31 0 .342-.035.296 1.023 1.36l.904.91-.09.07c-.346.27-.66.749-.783 1.195l-.054.195-.006 2.9c-.006 3.111-.005 3.18.098 3.88.44 3.023 2.315 5.8 5.458 8.087a20.138 20.138 0 0 0 2.81 1.703c.747.377.944.44 1.37.44.425 0 .622-.063 1.37-.44 1.627-.821 3.09-1.811 4.32-2.926l.32-.289 1.77 1.763c2.028 2.021 1.864 1.882 2.22 1.882.192 0 .22-.005.325-.058a.899.899 0 0 0 .356-.362c.043-.087.05-.128.05-.31 0-.192-.006-.221-.06-.33-.052-.107-1.115-1.176-10.14-10.201S2.437 1.381 2.331 1.329c-.105-.051-.147-.06-.31-.063a.843.843 0 0 0-.263.022Zm9.794.004c-.265.048-.486.135-1.014.399-1.02.51-1.828.857-2.795 1.201-.374.133-.478.187-.586.303a.757.757 0 0 0 .052 1.068c.153.138.393.21.593.178.212-.034 1.235-.418 2.018-.757.451-.195 1.14-.52 1.49-.705.346-.181.472-.222.69-.222.224 0 .34.039.76.256a25.441 25.441 0 0 0 4.37 1.738c.728.211 1.366.363 2.214.528.377.073.503.127.662.284a.77.77 0 0 1 .233.457c.027.17.028 4.883.001 5.424a8.385 8.385 0 0 1-.915 3.446l-.254.498c-.078.152-.08.167-.08.342 0 .165.007.196.064.312.083.169.193.28.36.361.122.061.15.067.315.067.161 0 .194-.007.31-.064a.966.966 0 0 0 .2-.128c.085-.08.22-.304.41-.678a9.884 9.884 0 0 0 .96-2.894c.124-.75.12-.606.12-3.936V5.73l-.054-.197a2.472 2.472 0 0 0-.648-1.072 2.205 2.205 0 0 0-.599-.414c-.245-.12-.442-.174-1.079-.297a22.083 22.083 0 0 1-3.91-1.166 24.327 24.327 0 0 1-1.84-.825c-.745-.364-.88-.418-1.177-.47a3.431 3.431 0 0 0-.87.003Zm5.388 16.73c0 .013-.39.367-.63.57a18.8 18.8 0 0 1-3.887 2.507c-.408.193-.434.193-.805.02-1.075-.5-2.399-1.316-3.385-2.085-1.11-.865-2.033-1.809-2.759-2.818-.852-1.187-1.424-2.551-1.625-3.876-.093-.61-.093-.615-.103-3.455-.01-2.869-.009-2.897.084-3.101a1.01 1.01 0 0 1 .37-.378l.09-.043 6.325 6.323c3.48 3.478 6.325 6.33 6.325 6.336Z" clip-rule="evenodd"/>
</svg>
