<svg xmlns="http://www.w3.org/2000/svg" width="24" height="24" fill="none" viewBox="0 0 24 24">
  <path fill="#161C24" fill-rule="evenodd" d="M2.707 1.293a1 1 0 0 0-1.414 1.414L3.01 4.424c-.463.42-.76 1.02-.76 1.7v4.927c0 3.49 1.78 6.158 3.742 8.032 1.96 1.873 4.16 3.015 5.161 3.479a2 2 0 0 0 1.694 0c.971-.45 3.072-1.54 4.986-3.314l3.46 3.46a1 1 0 0 0 1.414-1.415l-20-20ZM21.75 11.05c0 2.148-.674 3.983-1.649 5.514L6.757 3.222a23.836 23.836 0 0 0 4.077-1.682 2.5 2.5 0 0 1 2.332 0c1.202.636 3.664 1.782 6.617 2.295 1.09.19 1.967 1.12 1.967 2.29v4.927Z" clip-rule="evenodd"/>
</svg>
