<svg xmlns="http://www.w3.org/2000/svg" width="24" height="24" fill="none" viewBox="0 0 24 24">
  <path fill="#161C24" fill-rule="evenodd" d="M20.49 1.293c-.134.029-17.933 6.376-18.157 6.475-.394.174-.72.503-.913.92-.111.238-.143.383-.154.702-.017.446.068.765.293 1.105.233.353.559.607.95.74.067.023 1.976.457 4.242.966l4.122.926.925 4.121c.509 2.267.944 4.176.967 4.242.133.392.387.718.74.951.345.228.655.31 1.113.293.328-.012.448-.038.697-.154.42-.196.74-.516.919-.916.108-.243 6.445-18.025 6.474-18.169.04-.192.04-.549.003-.729a1.886 1.886 0 0 0-1.477-1.477 2.437 2.437 0 0 0-.743.004Zm.476 1.468c.087.025.203.12.246.202.016.032.03.098.03.148.003.071-.651 1.92-3.183 9.012-1.752 4.907-3.205 8.949-3.228 8.983-.135.2-.498.185-.615-.026-.024-.043-.401-1.683-.966-4.2l-.927-4.13 1.644-1.65C15.855 9.207 15.73 9.355 15.73 9c0-.182-.006-.223-.05-.31a.899.899 0 0 0-.355-.362c-.105-.053-.133-.058-.325-.058-.355 0-.207-.125-2.1 1.762l-1.65 1.645-4.127-.927c-2.27-.511-4.16-.945-4.2-.966-.213-.11-.231-.479-.03-.615.056-.037 17.674-6.343 17.887-6.401.114-.032.097-.031.186-.007Z" clip-rule="evenodd"/>
</svg>
