<svg xmlns="http://www.w3.org/2000/svg" width="24" height="24" fill="none" viewBox="0 0 24 24">
  <path fill="#161C24" fill-rule="evenodd" d="M3.72 2.274c-.232.04-.52.156-.72.293a1.82 1.82 0 0 0-.685.967l-.045.156v3.62l.045.156a1.772 1.772 0 0 0 1.219 1.22l.156.044h16.62l.156-.045c.168-.049.39-.153.534-.252a1.82 1.82 0 0 0 .685-.967l.045-.156V3.69l-.045-.156a1.788 1.788 0 0 0-1.209-1.219l-.146-.045-8.28-.002c-4.554-.002-8.302.001-8.33.006Zm16.406 1.511a.4.4 0 0 1 .089.09c.033.05.035.157.035 1.625s-.002 1.575-.035 1.626a.417.417 0 0 1-.089.09c-.052.032-.448.034-8.126.034-7.678 0-8.074-.002-8.126-.035-.131-.086-.123.012-.13-1.644a55.978 55.978 0 0 1 .006-1.586c.015-.103.09-.198.177-.223.038-.01 3.262-.017 8.104-.015 7.645.003 8.043.005 8.095.038ZM5.758 4.79a.845.845 0 0 0-.439.401c-.043.087-.049.127-.049.31 0 .192.005.22.058.325.07.138.224.29.362.355.146.07.416.08.573.021a.745.745 0 0 0 .477-.56.737.737 0 0 0-.456-.833A.622.622 0 0 0 6 4.762a.978.978 0 0 0-.242.027Zm3 0a.845.845 0 0 0-.439.401c-.043.087-.049.127-.049.31 0 .192.005.22.058.325.07.137.223.288.362.356.087.043.128.05.31.05.186 0 .223-.007.325-.055a.856.856 0 0 0 .353-.342.765.765 0 0 0-.037-.729A.71.71 0 0 0 9 4.762a.971.971 0 0 0-.242.027ZM3.72 10.274c-.232.04-.52.156-.72.293a1.82 1.82 0 0 0-.685.967l-.045.156v3.62l.045.156a1.772 1.772 0 0 0 1.219 1.22l.156.044h16.62l.156-.045c.168-.049.39-.153.534-.252a1.82 1.82 0 0 0 .685-.967l.045-.156v-3.62l-.045-.156a1.788 1.788 0 0 0-1.209-1.219l-.146-.045-8.28-.002c-4.554-.002-8.302.001-8.33.006Zm16.406 1.511a.4.4 0 0 1 .089.09c.033.05.035.157.035 1.625s-.002 1.575-.035 1.626a.417.417 0 0 1-.089.09c-.052.032-.448.034-8.126.034-7.678 0-8.074-.002-8.126-.035-.131-.086-.123.012-.13-1.644a55.978 55.978 0 0 1 .006-1.586c.015-.103.09-.198.177-.223.038-.01 3.262-.017 8.104-.015 7.645.003 8.043.005 8.095.038ZM5.758 12.79a.845.845 0 0 0-.439.401c-.043.087-.049.127-.049.31 0 .192.005.22.058.325.07.138.224.29.362.355.146.07.416.08.573.021a.745.745 0 0 0 .477-.56.737.737 0 0 0-.456-.833.622.622 0 0 0-.284-.046.978.978 0 0 0-.242.027Zm3 0a.845.845 0 0 0-.439.401c-.043.087-.049.127-.049.31 0 .192.005.22.058.325.07.137.223.288.362.356.087.043.128.05.31.05.186 0 .223-.007.325-.055a.856.856 0 0 0 .353-.342.765.765 0 0 0-.037-.729.71.71 0 0 0-.641-.343.971.971 0 0 0-.242.027Zm3 5.5a.856.856 0 0 0-.439.401c-.049.1-.049.105-.059.83l-.01.73-3.23.01-3.23.01-.115.058a.899.899 0 0 0-.356.362c-.043.087-.049.128-.049.31s.006.223.049.31a.899.899 0 0 0 .356.362l.115.058h14.42l.115-.058a.899.899 0 0 0 .356-.362c.043-.087.049-.128.049-.31s-.006-.223-.049-.31a.899.899 0 0 0-.356-.362l-.115-.058-3.23-.01-3.23-.01-.01-.73c-.01-.724-.01-.73-.059-.83a.894.894 0 0 0-.355-.36c-.099-.05-.14-.06-.305-.064a.785.785 0 0 0-.263.022Z" clip-rule="evenodd"/>
</svg>
