<svg xmlns="http://www.w3.org/2000/svg" width="24" height="24" fill="none" viewBox="0 0 24 24">
  <path fill="#161C24" fill-rule="evenodd" d="M12 18.25a1 1 0 0 1 1 1v.5h6a1 1 0 1 1 0 2H5a1 1 0 1 1 0-2h6v-.5a1 1 0 0 1 1-1ZM2.25 12c0-.966.784-1.75 1.75-1.75h16c.966 0 1.75.784 1.75 1.75v3A1.75 1.75 0 0 1 20 16.75H4A1.75 1.75 0 0 1 2.25 15v-3Zm3 1.5a.75.75 0 0 1 .75-.75h.01a.75.75 0 0 1 0 1.5H6a.75.75 0 0 1-.75-.75ZM9 12.75a.75.75 0 0 0 0 1.5h.01a.75.75 0 0 0 0-1.5H9ZM2.25 4c0-.966.784-1.75 1.75-1.75h16c.966 0 1.75.784 1.75 1.75v3A1.75 1.75 0 0 1 20 8.75H4A1.75 1.75 0 0 1 2.25 7V4Zm3 1.5A.75.75 0 0 1 6 4.75h.01a.75.75 0 0 1 0 1.5H6a.75.75 0 0 1-.75-.75ZM9 4.75a.75.75 0 0 0 0 1.5h.01a.75.75 0 0 0 0-1.5H9Z" clip-rule="evenodd"/>
</svg>
