<svg xmlns="http://www.w3.org/2000/svg" width="24" height="24" fill="none" viewBox="0 0 24 24">
  <path fill="#161C24" fill-rule="evenodd" d="M10.345 1.291a1.82 1.82 0 0 0-1.036.68c-.148.207-.228.411-.59 1.499l-.345 1.04-.41.26a71.71 71.71 0 0 1-.534.335l-.123.076-1.179-.292c-1.053-.261-1.202-.293-1.4-.303a1.7 1.7 0 0 0-1.162.367c-.203.154-.32.312-.64.847C1.62 7.988 1.63 7.973 1.568 8.279c-.04.203-.03.579.021.781.047.183.21.508.324.65.054.066.468.447.922.847l.824.727v1.433l-.735.646c-.893.785-.947.835-1.058.99a2.127 2.127 0 0 0-.276.587 2.285 2.285 0 0 0-.045.371 1.54 1.54 0 0 0 .121.729c.06.14 1.39 2.397 1.554 2.64.255.376.695.649 1.162.722.323.05.46.027 1.744-.291.647-.16 1.187-.291 1.2-.291.013 0 .234.119.491.265l.468.265.304 1.052c.168.578.321 1.1.34 1.16.146.445.47.806.911 1.017.335.159.217.151 2.16.151 1.94 0 1.824.008 2.154-.15.373-.177.645-.44.82-.79.077-.154.123-.301.456-1.46.152-.528.285-.97.297-.983.012-.013.228-.138.48-.279l.458-.255 1.202.297c1.307.322 1.426.342 1.75.292a1.759 1.759 0 0 0 1.161-.722c.111-.163 1.452-2.423 1.53-2.577.12-.238.155-.385.166-.685.012-.316-.02-.517-.12-.756-.12-.288-.208-.391-1.115-1.294l-.86-.856v-1.024l.852-.849c.47-.467.891-.903.938-.969.114-.161.2-.336.252-.513.061-.21.076-.655.03-.865a1.72 1.72 0 0 0-.175-.464c-.16-.28-1.435-2.418-1.494-2.507-.294-.444-.863-.741-1.418-.741-.237 0-.249.002-1.544.322l-1.129.278-.122-.075a71.71 71.71 0 0 1-.533-.335l-.41-.26-.356-1.07a24.781 24.781 0 0 0-.424-1.208 1.758 1.758 0 0 0-1.206-.942c-.202-.042-3.102-.041-3.296.001Zm2.982 1.468c.042.01.098.038.124.062.036.034.144.334.441 1.227.216.65.414 1.227.44 1.282a.771.771 0 0 0 .142.193c.085.083 1.555 1.029 1.76 1.133a.78.78 0 0 0 .4.073c.053-.008.674-.157 1.38-.332a32.08 32.08 0 0 1 1.356-.317c.052 0 .088.017.14.065.063.06 1.424 2.323 1.471 2.448.047.124.041.13-.982 1.157-.856.859-.984.995-1.033 1.1l-.056.12v2.06l.058.12c.05.103.191.254 1.024 1.09.542.545.975.995.987 1.028a.172.172 0 0 1-.002.13c-.039.119-1.394 2.386-1.468 2.457-.05.048-.087.065-.137.065-.038 0-.648-.143-1.355-.318a67.357 67.357 0 0 0-1.38-.332.828.828 0 0 0-.387.064c-.303.15-1.595.894-1.672.962a.736.736 0 0 0-.157.21c-.033.068-.218.673-.412 1.343a41.138 41.138 0 0 1-.38 1.272.297.297 0 0 1-.083.091c-.054.036-.116.038-1.546.038s-1.492-.002-1.546-.038a.294.294 0 0 1-.083-.09 41.203 41.203 0 0 1-.38-1.272c-.193-.671-.379-1.276-.412-1.344a.736.736 0 0 0-.157-.21c-.077-.068-1.372-.814-1.672-.962a.828.828 0 0 0-.387-.064c-.05.008-.672.157-1.38.332-.708.175-1.318.318-1.355.318-.05 0-.087-.018-.137-.065-.054-.052-1.284-2.089-1.418-2.349a.272.272 0 0 1-.009-.236c.012-.028.424-.404.915-.835.95-.834.998-.88 1.073-.999.104-.164.108-.214.108-1.436 0-1.235-.003-1.274-.116-1.455-.035-.056-.393-.386-1.007-.927-.608-.536-.962-.861-.978-.899a.326.326 0 0 1-.014-.134c.014-.096 1.347-2.346 1.446-2.44.05-.047.087-.065.136-.065.038 0 .648.143 1.356.318.708.175 1.33.324 1.38.332a.816.816 0 0 0 .407-.075c.2-.101 1.67-1.049 1.753-1.129a.819.819 0 0 0 .142-.193c.027-.057.227-.635.443-1.285.418-1.256.418-1.256.556-1.288.092-.022 2.57-.023 2.663-.001ZM11.42 7.792c-1.215.162-2.304.859-3 1.918a5.45 5.45 0 0 0-.42.856 4.428 4.428 0 0 0-.12 2.468 4.278 4.278 0 0 0 1.83 2.546c.192.125.613.332.856.42a4.47 4.47 0 0 0 1.988.209 4.234 4.234 0 0 0 3.257-2.339 4.08 4.08 0 0 0 .43-1.87 4.08 4.08 0 0 0-.43-1.87 3.961 3.961 0 0 0-.81-1.131 3.941 3.941 0 0 0-1.13-.809 4.051 4.051 0 0 0-1.308-.398 5.598 5.598 0 0 0-1.143 0Zm1.04 1.501c.818.125 1.59.688 1.978 1.444a2.748 2.748 0 0 1-1.174 3.7 2.751 2.751 0 0 1-3.478-.81 2.924 2.924 0 0 1-.496-1.167 3.297 3.297 0 0 1 0-.92 2.773 2.773 0 0 1 1.442-1.975 2.686 2.686 0 0 1 1.728-.272Z" clip-rule="evenodd"/>
</svg>
