<svg xmlns="http://www.w3.org/2000/svg" width="24" height="24" fill="none" viewBox="0 0 24 24">
  <path fill="#161C24" d="M21.25 12a9.25 9.25 0 1 0-18.5 0 9.25 9.25 0 0 0 18.5 0Zm1.5 0c0 5.937-4.813 10.75-10.75 10.75S1.25 17.937 1.25 12 6.063 1.25 12 1.25 22.75 6.063 22.75 12Z"/>
  <path fill="#161C24" d="M12 15.25c1.213 0 2.34.377 3.268 1.019l.182.131.06.05a.75.75 0 0 1-.897 1.193l-.063-.043-.275-.19A4.226 4.226 0 0 0 12 16.75c-.958 0-1.84.316-2.55.85a.75.75 0 0 1-.9-1.2A5.727 5.727 0 0 1 12 15.25ZM9.25 9.5a.75.75 0 1 0-1.5 0 .75.75 0 0 0 1.5 0Zm1.5 0a2.25 2.25 0 1 1-4.5 0 2.25 2.25 0 0 1 4.5 0Zm5.5 0a.75.75 0 1 0-1.5 0 .75.75 0 0 0 1.5 0Zm1.5 0a2.25 2.25 0 1 1-4.5 0 2.25 2.25 0 0 1 4.5 0Z"/>
</svg>
