<svg xmlns="http://www.w3.org/2000/svg" width="24" height="24" fill="none" viewBox="0 0 24 24">
  <path fill="#161C24" fill-rule="evenodd" d="M11.75 3c-1.962 0-3.5 1.535-3.5 3.364V7.5h-2V6.364C6.25 3.373 8.742 1 11.75 1s5.5 2.373 5.5 5.364V7.5h-2V6.364c0-1.83-1.538-3.364-3.5-3.364Z" clip-rule="evenodd"/>
  <path fill="#161C24" fill-rule="evenodd" d="M3.408 9.472A3.75 3.75 0 0 1 7.015 6.75h9.47a3.75 3.75 0 0 1 3.607 2.722l.73 2.56.011.041v.001l.274.957a2.49 2.49 0 0 0-1.375.701l-3.752 3.753a2.5 2.5 0 0 0-3.248 3.783l1.4 1.4c-.793.058-1.613.085-2.43.082-1.627-.005-3.26-.129-4.666-.37-1.374-.236-2.633-.602-3.428-1.153a5.096 5.096 0 0 1-1.854-2.344c-.325-.842-.307-1.751-.119-2.814.186-1.046.558-2.343 1.032-3.996l.741-2.6ZM10.25 10a1 1 0 1 0 0 2h3a1 1 0 1 0 0-2h-3Z" clip-rule="evenodd"/>
  <path fill="#161C24" fill-rule="evenodd" d="M22.207 14.793a1 1 0 0 1 0 1.414l-5.5 5.5a1 1 0 0 1-1.414 0l-1.5-1.5a1 1 0 0 1 1.414-1.414l.793.793 4.793-4.793a1 1 0 0 1 1.414 0Z" clip-rule="evenodd"/>
</svg>
