<svg xmlns="http://www.w3.org/2000/svg" width="24" height="24" fill="none" viewBox="0 0 24 24">
  <path fill="#161C24" fill-rule="evenodd" d="M11.353 1.289A5.307 5.307 0 0 0 7.836 3.25 5.117 5.117 0 0 0 6.78 5.837a7.175 7.175 0 0 0-.021.576c0 .278-.006.37-.025.375-.014.004-.11.023-.215.043-1.178.22-2.244 1.093-2.708 2.219-.104.25-.14.368-.683 2.28-.712 2.504-.773 2.724-.94 3.383-.33 1.303-.445 2.082-.423 2.857.019.69.125 1.113.433 1.73a5 5 0 0 0 1.55 1.844c.575.417 1.277.715 2.308.977 1.499.381 3.912.642 5.703.616.443-.007.452-.008.56-.061a.856.856 0 0 0 .356-.355.855.855 0 0 0 .027-.577.785.785 0 0 0-.441-.445c-.09-.034-.193-.041-.906-.058a46.55 46.55 0 0 1-1.146-.041c-1.735-.106-3.332-.361-4.38-.7-.538-.174-.894-.342-1.194-.563a3.461 3.461 0 0 1-1.108-1.327c-.214-.446-.27-.698-.27-1.21.003-.752.182-1.649.695-3.48.41-1.463 1.17-4.106 1.214-4.223a2.07 2.07 0 0 1 .53-.802A2.24 2.24 0 0 1 6.9 8.277c.223-.04 9.837-.04 10.06 0 .835.152 1.523.743 1.767 1.517.029.091.165.676.304 1.3.175.788.268 1.168.303 1.24a.803.803 0 0 0 .342.338c.104.053.132.058.324.058s.22-.005.324-.058a.767.767 0 0 0 .34-.342.566.566 0 0 0 .07-.28c.009-.148-.01-.25-.253-1.34-.161-.72-.295-1.274-.344-1.42a3.765 3.765 0 0 0-2.767-2.456l-.12-.025-.012-.489c-.017-.66-.075-1.017-.246-1.53A5.12 5.12 0 0 0 14.4 1.823a5.384 5.384 0 0 0-1.6-.514 8.522 8.522 0 0 0-1.447-.02Zm.907 1.471a3.76 3.76 0 0 1 2.538 1.207 3.49 3.49 0 0 1 .943 2.193c.012.17.019.373.015.45l-.006.14h-7.5l-.006-.16a5.09 5.09 0 0 1 .075-.913c.25-1.222 1.126-2.227 2.339-2.689.37-.141.712-.205 1.292-.245.022-.001.162.006.31.017Zm-2.002 7.529a.854.854 0 0 0-.44.401c-.042.087-.048.127-.048.31 0 .192.005.22.058.325.07.137.223.288.362.356l.1.049h2.92l.115-.058a.899.899 0 0 0 .356-.362c.043-.087.049-.128.049-.31s-.006-.223-.05-.31a.899.899 0 0 0-.355-.362l-.115-.058-1.44-.004c-1.163-.003-1.454.001-1.512.023Zm11 4.499a1.22 1.22 0 0 0-.16.082c-.048.03-1.215 1.18-2.592 2.556L16 19.928l-.525-.519c-.636-.628-.652-.639-.976-.639-.192 0-.22.005-.325.058a.899.899 0 0 0-.356.362c-.043.087-.05.128-.05.31 0 .341-.026.306.95 1.281.975.976.94.949 1.28.949.364 0 .062.272 3.282-2.949 3.22-3.22 2.949-2.918 2.949-3.281 0-.182-.006-.223-.05-.31a.899.899 0 0 0-.355-.362c-.1-.05-.14-.059-.305-.062a.843.843 0 0 0-.262.022Z" clip-rule="evenodd"/>
</svg>
