<svg xmlns="http://www.w3.org/2000/svg" width="24" height="24" fill="none" viewBox="0 0 24 24">
  <path fill="#161C24" fill-rule="evenodd" d="M10.853 1.289A5.307 5.307 0 0 0 7.336 3.25a5.117 5.117 0 0 0-1.055 2.587 7.175 7.175 0 0 0-.021.576c0 .278-.006.37-.025.375-.014.004-.11.023-.215.043-1.178.22-2.244 1.093-2.708 2.219-.103.249-.136.36-.709 2.37-.908 3.183-1.088 3.877-1.232 4.755-.087.53-.101.697-.101 1.235.001.446.007.554.044.76.079.432.187.749.397 1.161a5.074 5.074 0 0 0 1.495 1.784c.79.593 1.995 1.005 3.784 1.295 1.312.213 3.045.345 4.27.327.43-.007.454-.009.55-.056a.899.899 0 0 0 .362-.356c.053-.105.058-.133.058-.325 0-.183-.006-.223-.049-.31a.834.834 0 0 0-.445-.401c-.058-.021-.289-.034-.883-.048a26.752 26.752 0 0 1-1.833-.092c-1.767-.151-3.22-.437-4.17-.823a3.072 3.072 0 0 1-.745-.414 3.41 3.41 0 0 1-1.063-1.268c-.215-.428-.286-.74-.285-1.244.001-.706.163-1.551.606-3.16.202-.734 1.209-4.26 1.271-4.45.113-.348.295-.636.567-.899.328-.316.674-.5 1.14-.605.137-.031.536-.034 4.989-.041 3.212-.004 4.917 0 5.07.014.556.05.993.244 1.382.615.204.195.33.359.445.582.105.205.153.351.384 1.164.096.335.195.657.222.714a.85.85 0 0 0 .401.366.617.617 0 0 0 .296.036c.231-.011.365-.071.508-.228a.636.636 0 0 0 .196-.468c.009-.167.006-.182-.191-.87-.11-.385-.233-.794-.273-.91a3.753 3.753 0 0 0-2.79-2.429 6.687 6.687 0 0 1-.215-.043c-.019-.005-.025-.099-.025-.382 0-.609-.075-1.098-.248-1.616A5.12 5.12 0 0 0 13.9 1.823a5.384 5.384 0 0 0-1.6-.514 8.522 8.522 0 0 0-1.447-.02Zm.907 1.471a3.76 3.76 0 0 1 2.538 1.207c.571.617.884 1.344.943 2.193.012.17.019.373.015.45l-.006.14h-7.5l-.006-.16a5.09 5.09 0 0 1 .075-.913c.251-1.222 1.126-2.227 2.339-2.689.371-.141.712-.205 1.292-.245.022-.001.162.006.31.017Zm-2.002 7.529a.853.853 0 0 0-.439.401c-.043.087-.049.127-.049.31 0 .192.005.22.058.325.07.137.223.288.362.356l.1.049h3.42l.1-.049a.899.899 0 0 0 .362-.356c.053-.105.058-.133.058-.325s-.005-.22-.058-.325a.899.899 0 0 0-.362-.356l-.1-.049-1.69-.004c-1.371-.003-1.704.001-1.762.023Zm8 2.999a.856.856 0 0 0-.439.402l-.049.1-.01 1.73-.01 1.73-1.73.01-1.73.01-.115.058a.899.899 0 0 0-.356.362c-.043.087-.049.128-.049.31s.006.223.049.31a.899.899 0 0 0 .356.362l.115.058 1.73.01 1.73.01.01 1.73.01 1.73.058.115c.07.137.223.288.362.356.087.043.128.049.31.049s.223-.006.31-.049a.899.899 0 0 0 .362-.356l.058-.115.01-1.73.01-1.73 1.73-.01 1.73-.01.115-.058a.899.899 0 0 0 .356-.362c.043-.087.049-.128.049-.31 0-.192-.005-.22-.058-.325a.899.899 0 0 0-.362-.356l-.1-.049-1.73-.01-1.73-.01-.01-1.73-.01-1.73-.049-.1a.894.894 0 0 0-.355-.361c-.099-.05-.14-.059-.305-.063a.785.785 0 0 0-.263.022Z" clip-rule="evenodd"/>
</svg>
