<svg xmlns="http://www.w3.org/2000/svg" width="24" height="24" fill="none" viewBox="0 0 24 24">
  <path fill="#161C24" fill-rule="evenodd" d="M15.184 2.052a1 1 0 0 1 1.265.632l1.5 4.5a1 1 0 1 1-1.897.632l-1.5-4.5a1 1 0 0 1 .632-1.264Zm-5.909-.013a1 1 0 0 1 .687 1.236l-2 7a1 1 0 0 1-1.923-.55l2-7a1 1 0 0 1 1.236-.686ZM22.64 14.232a1 1 0 0 1 .128 1.408l-5 6a1 1 0 0 1-1.475.067l-2-2a1 1 0 0 1 1.414-1.414l1.226 1.226 4.299-5.16a1 1 0 0 1 1.408-.127Z" clip-rule="evenodd"/>
  <path fill="#161C24" d="M3 7.25A1.75 1.75 0 0 0 1.25 9v2c0 .323.207.61.513.711l1.092.364 1.744 8.285c.17.81.885 1.39 1.712 1.39h7.904l-.983-.983a2.5 2.5 0 1 1 3.536-3.535l.064.064 3.247-3.897c.262-.313.583-.546.934-.697l.132-.627 1.092-.364A.75.75 0 0 0 22.75 11V9A1.75 1.75 0 0 0 21 7.25H3Z"/>
</svg>
