<svg xmlns="http://www.w3.org/2000/svg" width="24" height="24" fill="none" viewBox="0 0 24 24">
  <path fill="#161C24" fill-rule="evenodd" d="M2.125 2.749a1 1 0 0 1 1-1h2.5a1 1 0 0 1 .987.84L7.001 5h1.838c.054.503.274.991.66 1.376l.873.874-.873.874a2.3 2.3 0 0 0 3.252 3.252l.874-.873.874.873a2.3 2.3 0 0 0 3.252-3.252l-.873-.874.873-.874A2.29 2.29 0 0 0 18.411 5h2.714a.75.75 0 0 1 .737.888l-1.5 8a.75.75 0 0 1-.608.6l-10.917 1.9.004.021a1 1 0 0 0 .987.841h8.297c.037 0 .073.002.109.006a2.5 2.5 0 1 1-2.308 1.994h-4.101a2.5 2.5 0 1 1-4.343-1.13 2.991 2.991 0 0 1-.615-1.392L4.773 3.749H3.125a1 1 0 0 1-1-1Zm7.25 16.002a1 1 0 1 0 0 2 1 1 0 0 0 0-2Zm8 1a1 1 0 1 1 2 0 1 1 0 0 1-2 0Zm-6.957-15.71a1 1 0 0 1 1.414 0l1.793 1.794 1.793-1.793a1 1 0 1 1 1.414 1.414L15.04 7.25l1.793 1.793a1 1 0 0 1-1.414 1.414l-1.793-1.793-1.793 1.793a1 1 0 1 1-1.414-1.414l1.793-1.793-1.793-1.793a1 1 0 0 1 0-1.414Z" clip-rule="evenodd"/>
</svg>
