<svg xmlns="http://www.w3.org/2000/svg" width="24" height="24" fill="none" viewBox="0 0 24 24">
  <path fill="#161C24" fill-rule="evenodd" d="M15.184 1.554a1 1 0 0 1 1.265.632l1.5 4.5a1 1 0 1 1-1.897.632l-1.5-4.5a1 1 0 0 1 .632-1.264ZM9.275 1.54a1 1 0 0 1 .687 1.236l-2 7a1 1 0 1 1-1.923-.55l2-7a1 1 0 0 1 1.236-.686Z" clip-rule="evenodd"/>
  <path fill="#161C24" d="M18.493 13.982c.654-.271 1.58-.395 2.611.143 1.334.695 1.928 2.323 1.533 3.92-.403 1.634-1.801 3.22-4.382 4.16a.75.75 0 0 1-.513 0c-2.58-.94-3.975-2.527-4.374-4.161-.39-1.599.209-3.225 1.54-3.92 1.031-.537 1.954-.414 2.607-.142.186.078.349.167.486.254a3.3 3.3 0 0 1 .492-.254Z"/>
  <path fill="#161C24" d="M3 6.752a1.75 1.75 0 0 0-1.75 1.75v2c0 .323.207.61.513.711l1.092.364 1.744 8.286c.17.81.885 1.389 1.712 1.389h7.179c-.791-.846-1.325-1.814-1.579-2.853-.518-2.123.238-4.526 2.305-5.605 1.45-.756 2.81-.616 3.788-.232a4.468 4.468 0 0 1 2.958-.113l.183-.872 1.092-.364a.75.75 0 0 0 .513-.711v-2A1.75 1.75 0 0 0 21 6.752H3Z"/>
</svg>
