<svg xmlns="http://www.w3.org/2000/svg" width="24" height="24" fill="none" viewBox="0 0 24 24">
  <path fill="#161C24" fill-rule="evenodd" d="M15.184 2.05a1 1 0 0 1 1.265.632l1.5 4.5a1 1 0 1 1-1.897.633l-1.5-4.5a1 1 0 0 1 .632-1.265Zm-5.909-.013a1 1 0 0 1 .687 1.236l-2 7a1 1 0 1 1-1.923-.55l2-7a1 1 0 0 1 1.236-.686ZM18 14a1 1 0 0 1 1 1v2h2a1 1 0 1 1 0 2h-2v2a1 1 0 1 1-2 0v-2h-2a1 1 0 1 1 0-2h2v-2a1 1 0 0 1 1-1Z" clip-rule="evenodd"/>
  <path fill="#161C24" d="M3 7.248a1.75 1.75 0 0 0-1.75 1.75v2c0 .323.207.61.513.712l1.092.363 1.744 8.286c.17.81.885 1.389 1.712 1.389h9.303A2.498 2.498 0 0 1 15.5 21v-.5H15a2.5 2.5 0 0 1 0-5h.5V15a2.5 2.5 0 0 1 5 0v.139l.645-3.066 1.092-.363a.75.75 0 0 0 .513-.712v-2A1.75 1.75 0 0 0 21 7.248H3Z"/>
</svg>
