<svg xmlns="http://www.w3.org/2000/svg" width="24" height="24" fill="none" viewBox="0 0 24 24">
  <path fill="#161C24" fill-rule="evenodd" d="M10.853 1.289A5.307 5.307 0 0 0 7.336 3.25a5.117 5.117 0 0 0-1.055 2.587 7.175 7.175 0 0 0-.021.576c0 .278-.006.37-.025.375-.014.004-.11.023-.215.043-1.178.22-2.244 1.093-2.708 2.219-.103.249-.136.36-.709 2.37-.908 3.183-1.088 3.877-1.232 4.755-.087.53-.101.697-.101 1.235.001.446.007.554.044.76.079.432.187.749.397 1.161a5.074 5.074 0 0 0 1.495 1.784c.791.594 1.994 1.006 3.783 1.295 1.334.215 3.028.344 4.301.327.468-.007.483-.008.59-.059a.79.79 0 0 0 .365-.372.547.547 0 0 0 .062-.304.578.578 0 0 0-.045-.272.75.75 0 0 0-.434-.429c-.095-.036-.187-.041-.952-.06-1.345-.032-2.246-.103-3.346-.263-1.351-.195-2.444-.491-3.064-.83a4.197 4.197 0 0 1-.68-.496 3.647 3.647 0 0 1-.906-1.388c-.093-.279-.124-.493-.123-.864.001-.706.163-1.551.606-3.16.202-.734 1.209-4.26 1.271-4.45.113-.348.295-.636.567-.899.328-.316.674-.5 1.14-.605.137-.031.534-.034 4.949-.041 3.184-.004 4.877 0 5.03.014.269.024.508.08.722.171.398.168.82.537 1.051.92.137.229.204.44.447 1.409.14.561.264 1.012.293 1.073a.816.816 0 0 0 .345.343c.101.049.133.055.322.055.191 0 .22-.005.322-.057a.767.767 0 0 0 .339-.337.544.544 0 0 0 .075-.286c.007-.151-.006-.215-.233-1.12-.266-1.059-.299-1.172-.434-1.473a3.44 3.44 0 0 0-.778-1.108 3.075 3.075 0 0 0-.531-.446 3.749 3.749 0 0 0-1.322-.566l-.198-.042v-.383c0-.616-.075-1.102-.248-1.622A5.12 5.12 0 0 0 13.9 1.823a5.384 5.384 0 0 0-1.6-.514 8.522 8.522 0 0 0-1.447-.02Zm.907 1.471a3.76 3.76 0 0 1 2.538 1.207c.571.617.884 1.344.943 2.193.012.17.019.373.015.45l-.006.14h-7.5l-.006-.16a5.09 5.09 0 0 1 .075-.913c.251-1.222 1.126-2.227 2.339-2.689.371-.141.712-.205 1.292-.245.022-.001.162.006.31.017Zm-2.002 7.529a.853.853 0 0 0-.439.401c-.043.087-.049.127-.049.31 0 .192.005.22.058.325.07.137.223.288.362.356l.1.049h3.42l.1-.049a.899.899 0 0 0 .362-.356c.053-.105.058-.133.058-.325s-.005-.22-.058-.325a.899.899 0 0 0-.362-.356l-.1-.049-1.69-.004c-1.371-.003-1.704.001-1.762.023Zm4.5 4.499a.856.856 0 0 0-.439.402c-.043.087-.049.127-.049.31 0 .35-.079.252 1.388 1.725l1.271 1.275-1.271 1.275c-1.467 1.473-1.388 1.375-1.388 1.725 0 .192.005.22.058.325.07.137.223.288.362.356.087.043.128.049.31.049.35 0 .252.079 1.725-1.388l1.275-1.271 1.275 1.271c1.473 1.467 1.375 1.388 1.725 1.388.182 0 .223-.006.31-.049a.899.899 0 0 0 .362-.356c.053-.105.058-.133.058-.325 0-.35.079-.252-1.388-1.725L18.571 18.5l1.271-1.275c1.467-1.473 1.388-1.375 1.388-1.725 0-.192-.005-.22-.058-.325a.899.899 0 0 0-.362-.356c-.087-.043-.128-.049-.31-.049-.35 0-.252-.079-1.725 1.388L17.5 17.429l-1.275-1.271c-1.458-1.452-1.375-1.385-1.705-1.392a.843.843 0 0 0-.262.022Z" clip-rule="evenodd"/>
</svg>
