<svg xmlns="http://www.w3.org/2000/svg" width="24" height="24" fill="none" viewBox="0 0 24 24">
  <path fill="#161C24" fill-rule="evenodd" d="M11.5 3C9.538 3 8 4.535 8 6.364V7.5H6V6.364C6 3.373 8.492 1 11.5 1S17 3.373 17 6.364V7.5h-2V6.364C15 4.534 13.462 3 11.5 3Z" clip-rule="evenodd"/>
  <path fill="#161C24" fill-rule="evenodd" d="M3.158 9.472A3.75 3.75 0 0 1 6.765 6.75h9.47a3.75 3.75 0 0 1 3.607 2.722l.73 2.56.011.041.272.952a2.496 2.496 0 0 0-2.123.707L17.5 14.964l-1.232-1.232a2.5 2.5 0 0 0-3.536 3.536l1.232 1.232-1.232 1.232a2.501 2.501 0 0 0-.403 3.01c-.292.006-.584.009-.876.008-1.628-.005-3.262-.129-4.667-.37-1.374-.236-2.633-.602-3.428-1.153a5.096 5.096 0 0 1-1.854-2.344c-.325-.842-.307-1.751-.119-2.814.186-1.046.558-2.343 1.032-3.996l.741-2.6ZM10 10a1 1 0 1 0 0 2h3a1 1 0 1 0 0-2h-3Z" clip-rule="evenodd"/>
  <path fill="#161C24" fill-rule="evenodd" d="M13.793 14.793a1 1 0 0 1 1.414 0l2.293 2.293 2.293-2.293a1 1 0 0 1 1.414 1.414L18.914 18.5l2.293 2.293a1 1 0 0 1-1.414 1.414L17.5 19.914l-2.293 2.293a1 1 0 0 1-1.414-1.414l2.293-2.293-2.293-2.293a1 1 0 0 1 0-1.414Z" clip-rule="evenodd"/>
</svg>
