<svg xmlns="http://www.w3.org/2000/svg" width="24" height="24" fill="none" viewBox="0 0 24 24">
  <path fill="#161C24" fill-rule="evenodd" d="M11.353 1.289A5.307 5.307 0 0 0 7.836 3.25a5.117 5.117 0 0 0-1.055 2.587 7.175 7.175 0 0 0-.021.576c0 .278-.006.37-.025.375-.014.004-.11.023-.215.043-1.178.22-2.244 1.093-2.708 2.219-.103.249-.136.36-.709 2.37-.908 3.183-1.088 3.877-1.232 4.755-.087.53-.101.697-.101 1.235.001.446.007.554.044.76.079.432.187.749.397 1.161a5.074 5.074 0 0 0 1.495 1.784c.79.593 1.995 1.005 3.784 1.295 1.312.213 3.045.345 4.27.327.43-.007.454-.009.55-.056a.899.899 0 0 0 .362-.356c.053-.105.058-.133.058-.325 0-.183-.006-.223-.049-.31a.834.834 0 0 0-.445-.401c-.058-.021-.289-.034-.883-.048a26.752 26.752 0 0 1-1.833-.092c-1.767-.151-3.22-.437-4.17-.823a3.072 3.072 0 0 1-.745-.414 3.41 3.41 0 0 1-1.063-1.268c-.215-.428-.286-.74-.285-1.244.001-.706.163-1.551.606-3.16.202-.734 1.209-4.26 1.271-4.45.113-.348.295-.636.567-.899.328-.316.674-.5 1.14-.605.137-.031.528-.034 4.849-.041 3.218-.005 4.776 0 4.94.015a2.12 2.12 0 0 1 1.07.369 2.3 2.3 0 0 1 .769.861c.112.225.174.444.251.89.04.23.078.385.111.452a.833.833 0 0 0 .349.344c.099.048.132.054.32.053.189 0 .221-.006.324-.056a.919.919 0 0 0 .211-.16c.219-.232.244-.396.147-.963-.103-.599-.229-.976-.462-1.386-.518-.913-1.3-1.507-2.38-1.809l-.09-.025-.012-.5c-.017-.669-.074-1.024-.246-1.54A5.12 5.12 0 0 0 14.4 1.823a5.384 5.384 0 0 0-1.6-.514 8.522 8.522 0 0 0-1.447-.02Zm.907 1.471a3.76 3.76 0 0 1 2.538 1.207c.571.617.884 1.344.943 2.193.012.17.019.373.015.45l-.006.14h-7.5l-.006-.16a5.09 5.09 0 0 1 .075-.913c.251-1.222 1.126-2.227 2.339-2.689.371-.141.712-.205 1.292-.245.022-.001.162.006.31.017Zm-2.002 7.529a.853.853 0 0 0-.439.401c-.043.087-.049.127-.049.31 0 .192.005.22.058.325.07.137.223.288.362.356l.1.049h3.42l.1-.049a.899.899 0 0 0 .362-.356c.053-.105.058-.133.058-.325s-.005-.22-.058-.325a.899.899 0 0 0-.362-.356l-.1-.049-1.69-.004c-1.371-.003-1.704.001-1.762.023Zm5.152 4c-.726.114-1.447.519-1.889 1.06a3.427 3.427 0 0 0-.73 1.677 4.815 4.815 0 0 0-.002 1.08c.223 1.574 1.261 2.937 2.991 3.929.367.21.735.383 1.28.601.222.089.237.092.44.092s.218-.003.44-.092c.127-.051.344-.142.484-.203 1.795-.786 3.098-2.054 3.586-3.491.162-.474.232-.896.231-1.377a3.47 3.47 0 0 0-.11-.924c-.31-1.158-1.094-1.967-2.211-2.28a3.155 3.155 0 0 0-1.536-.012c-.257.067-.673.245-.829.355-.054.038-.056.038-.11 0-.156-.11-.572-.288-.829-.355a3.402 3.402 0 0 0-1.206-.06Zm.783 1.503c.241.05.54.211.767.413a.766.766 0 0 0 .424.213c.242.034.429-.025.638-.201.378-.32.713-.459 1.108-.459.259 0 .458.051.73.185.181.089.233.127.38.276.335.34.507.802.506 1.361a2.684 2.684 0 0 1-.287 1.195c-.437.926-1.422 1.765-2.724 2.324l-.235.101-.235-.101c-1.474-.633-2.517-1.608-2.873-2.687-.177-.536-.188-1.07-.03-1.535.14-.415.411-.749.748-.921.383-.196.698-.244 1.083-.164Z" clip-rule="evenodd"/>
</svg>
