<svg xmlns="http://www.w3.org/2000/svg" width="24" height="24" fill="none" viewBox="0 0 24 24">
  <path fill="#161C24" fill-rule="evenodd" d="M8.724 2.302a.908.908 0 0 0-.387.354c-.025.052-.335 1.107-.688 2.344l-.643 2.25-2.168.01-2.168.011-.146.045A2.22 2.22 0 0 0 2 7.567a1.82 1.82 0 0 0-.685.967c-.045.155-.045.167-.045 1.416v1.26l.058.114a.809.809 0 0 0 .341.344c.056.026.34.126.631.222s.537.181.545.188c.008.007.411 1.896.895 4.198.485 2.302.905 4.251.933 4.33.158.441.529.826.976 1.012.308.129.132.123 3.761.117l3.3-.005.115-.058a.899.899 0 0 0 .356-.362c.043-.087.049-.128.049-.31s-.006-.223-.049-.31a.899.899 0 0 0-.356-.362l-.115-.058-3.23-.01c-2.395-.007-3.24-.016-3.27-.033-.129-.075-.07.176-1.06-4.526-.51-2.421-.943-4.444-.963-4.495a.851.851 0 0 0-.35-.369 8.654 8.654 0 0 0-.603-.216l-.496-.165.006-.764c.007-.838.005-.824.13-.907.051-.033.174-.035 1.855-.04.99-.003 1.81-.002 1.823.003.016.006-.029.189-.136.565-.154.537-.159.563-.151.727a.66.66 0 0 0 .226.499c.148.14.257.185.479.196.251.012.368-.033.549-.212a.623.623 0 0 0 .177-.253c.024-.066.494-1.699 1.045-3.63l1.003-3.51-.009-.17a.64.64 0 0 0-.197-.468c-.147-.161-.277-.218-.518-.226-.156-.005-.209.001-.296.036Zm6.519-.003a.734.734 0 0 0-.415.381.597.597 0 0 0-.064.282l-.009.173.683 2.048c.375 1.126.682 2.054.682 2.062 0 .008-1.087.017-2.415.02l-2.415.005-.115.058a.899.899 0 0 0-.356.362c-.043.087-.049.128-.049.31s.006.223.049.31a.899.899 0 0 0 .356.362l.115.058 4.891.01c4.629.009 4.894.012 4.945.045.125.083.123.069.13.907l.006.764-.496.165c-.273.091-.535.182-.582.202a.872.872 0 0 0-.352.345c-.049.103-.257 1.034-.283 1.267a.7.7 0 0 0 .103.446.7.7 0 0 0 .327.297c.098.046.136.052.321.052.192 0 .219-.005.318-.057a.865.865 0 0 0 .339-.337c.025-.051.077-.24.115-.42.039-.179.077-.332.084-.339.008-.006.253-.091.544-.187.292-.096.575-.196.631-.222.13-.061.268-.2.341-.344l.058-.114V9.95c0-1.249 0-1.261-.045-1.416a1.783 1.783 0 0 0-1.209-1.218c-.146-.045-.15-.045-1.956-.056l-1.81-.01-.76-2.27a139.927 139.927 0 0 0-.796-2.341.88.88 0 0 0-.334-.312.84.84 0 0 0-.577-.028Zm6.502 11.999a.696.696 0 0 0-.307.215c-.051.054-1.081 1.283-2.288 2.733l-2.195 2.636-.753-.746c-.888-.882-.866-.866-1.202-.866-.192 0-.22.005-.325.058a.899.899 0 0 0-.356.362c-.043.087-.049.128-.049.31 0 .348-.057.275 1.199 1.532 1.255 1.257 1.18 1.198 1.531 1.197.241 0 .337-.033.482-.163.087-.077 5.017-5.982 5.132-6.146a.67.67 0 0 0 .122-.466.659.659 0 0 0-.226-.492c-.153-.145-.258-.188-.48-.196a.657.657 0 0 0-.285.032Z" clip-rule="evenodd"/>
</svg>
