<svg xmlns="http://www.w3.org/2000/svg" width="24" height="24" fill="none" viewBox="0 0 24 24">
  <path fill="#161C24" d="M19.25 3a.25.25 0 0 0-.25-.25H5a.25.25 0 0 0-.25.25v2l-.006.093L2.868 20.1a.25.25 0 0 0 .217.279l6.033.754h.05a.25.25 0 0 0 .228-.213l.862-6.027 1.484.212-.86 6.028a1.75 1.75 0 0 1-1.774 1.502l-.176-.014-6.033-.754a1.75 1.75 0 0 1-1.52-1.953L3.25 4.955V3c0-.966.783-1.75 1.75-1.75h14c.966 0 1.75.784 1.75 1.75v1.954l1.87 14.961.014.179a1.75 1.75 0 0 1-1.357 1.743l-.176.031-6.033.754a1.75 1.75 0 0 1-1.916-1.314l-.034-.174-.86-6.028 1.484-.212.861 6.027.012.049a.25.25 0 0 0 .267.164l6.033-.754.049-.012a.25.25 0 0 0 .169-.217l-.001-.05-1.876-15.008A.757.757 0 0 1 19.25 5V3Z"/>
  <path fill="#161C24" d="M15.027 12.918a.75.75 0 0 1 1.055 1.056l-.052.056-.914.915a2.75 2.75 0 0 1-1.944.805h-2.344a2.75 2.75 0 0 1-1.742-.623l-.202-.183-.914-.914-.052-.056a.75.75 0 0 1 1.056-1.056l.056.052.914.914.092.083c.223.182.502.283.792.283h2.344c.331 0 .65-.132.884-.366l.914-.914.056-.052ZM20 4.25a.75.75 0 0 1 0 1.5H4a.75.75 0 0 1 0-1.5h16Z"/>
  <path fill="#161C24" d="M6.25 5a.75.75 0 0 1 1.5 0c0 3.148-.924 4.887-2.012 5.82a3.955 3.955 0 0 1-1.485.807 3.367 3.367 0 0 1-.671.12l-.05.002-.02.001h-.011L3.5 11v.75a.75.75 0 0 1 0-1.5h-.004a1.847 1.847 0 0 0 .345-.065c.243-.069.579-.211.92-.504C5.424 9.113 6.25 7.85 6.25 5Zm10 0a.75.75 0 0 1 1.5 0c0 2.852.826 4.113 1.488 4.68.342.294.678.436.921.505a1.848 1.848 0 0 0 .345.065H20.5a.75.75 0 0 1 0 1.5V11l-.001.75h-.012l-.018-.001c-.014 0-.03 0-.051-.002a3.366 3.366 0 0 1-.67-.12 3.955 3.955 0 0 1-1.486-.808C17.174 9.887 16.25 8.15 16.25 5Z"/>
</svg>
