<svg xmlns="http://www.w3.org/2000/svg" width="24" height="24" fill="none" viewBox="0 0 24 24">
  <path fill="#161C24" fill-rule="evenodd" d="M4.517 4A1.75 1.75 0 0 0 2.78 5.533L1.014 19.665a1.75 1.75 0 0 0 1.52 1.953l6.032.754a1.75 1.75 0 0 0 1.95-1.489l.728-5.1h-.783a2.75 2.75 0 0 1-1.944-.805l-.915-.914a.75.75 0 0 1 1.061-1.061l.914.914c.235.235.553.366.884.366h2.343c.332 0 .65-.131.884-.366l.914-.914a.75.75 0 1 1 1.061 1.06l-.914.915a2.75 2.75 0 0 1-1.945.805h-.78l.728 5.1a1.75 1.75 0 0 0 1.95 1.49l6.033-.755a1.75 1.75 0 0 0 1.519-1.953L20.488 5.533A1.75 1.75 0 0 0 18.75 4H4.517Zm2.116 0a.75.75 0 0 1 .75.75c0 3.148-.924 4.887-2.012 5.82a3.955 3.955 0 0 1-1.485.807 3.35 3.35 0 0 1-.671.12l-.051.003h-.031a.75.75 0 0 1-.01-1.5h.006a1.862 1.862 0 0 0 .344-.065c.244-.07.58-.212.922-.504.662-.568 1.488-1.83 1.488-4.681a.75.75 0 0 1 .75-.75Zm10 0a.75.75 0 0 1 .75.75c0 2.852.826 4.113 1.488 4.68.342.293.678.436.921.505a1.86 1.86 0 0 0 .344.065h.006a.75.75 0 0 1-.01 1.5h-.03a1.744 1.744 0 0 1-.21-.017 3.349 3.349 0 0 1-.512-.106 3.956 3.956 0 0 1-1.485-.808c-1.088-.932-2.012-2.67-2.012-5.819a.75.75 0 0 1 .75-.75Z" clip-rule="evenodd"/>
  <path fill="#161C24" fill-rule="evenodd" d="M4.633 2.5a.25.25 0 0 0-.25.25V4h14.5V2.75a.25.25 0 0 0-.25-.25h-14Zm-1.75.25c0-.966.783-1.75 1.75-1.75h14c.966 0 1.75.784 1.75 1.75v2a.75.75 0 0 1-.75.75h-16a.75.75 0 0 1-.75-.75v-2Z" clip-rule="evenodd"/>
</svg>
