<svg xmlns="http://www.w3.org/2000/svg" width="24" height="24" fill="none" viewBox="0 0 24 24">
  <path fill="#161C24" d="M1.25 12C1.25 6.063 6.063 1.25 12 1.25c.181 0 .361.005.54.014l.534.039.076.011a.75.75 0 0 1-.147 1.486l-.077-.004-.46-.034a9.25 9.25 0 1 0 8.679 7.84l-.08-.453-.011-.076a.75.75 0 0 1 1.462-.297l.02.075.092.525c.08.53.122 1.072.122 1.624 0 5.937-4.813 10.75-10.75 10.75S1.25 17.937 1.25 12Z"/>
  <path fill="#161C24" d="M6.97 9.97a.75.75 0 0 1 1.004-.052l.056.052.07.063c.171.14.385.217.607.217H10a.75.75 0 0 1 0 1.5H8.707c-.57 0-1.12-.198-1.557-.556l-.18-.164-.052-.056A.75.75 0 0 1 6.97 9.97Zm9.056-.052a.75.75 0 0 1 1.056 1.056l-.052.056c-.46.461-1.085.72-1.737.72H14a.75.75 0 0 1 0-1.5h1.293c.254 0 .497-.1.677-.28l.056-.052ZM13.25 16a1.25 1.25 0 1 0-2.5 0 1.25 1.25 0 0 0 2.5 0Zm1.5 0a2.75 2.75 0 1 1-5.5 0 2.75 2.75 0 0 1 5.5 0ZM21 1.25l.077.004A.75.75 0 0 1 21.75 2v.5l-.015.147a.75.75 0 0 1-.111.269l-.094.114-3.22 3.22H21a.75.75 0 0 1 0 1.5h-4a.75.75 0 0 1-.75-.75v-.5c0-.199.08-.39.22-.53l3.22-3.22H17a.75.75 0 0 1 0-1.5h4Z"/>
</svg>
