<svg xmlns="http://www.w3.org/2000/svg" width="24" height="24" fill="none" viewBox="0 0 24 24">
  <path fill="#161C24" d="M14.993 1c-2.098 0-4.03.775-5.624 2.071a1 1 0 0 0 1.262 1.552C11.91 3.583 13.407 3 14.993 3c1.592 0 3.093.586 4.374 1.633a1 1 0 0 0 1.266-1.55C19.036 1.78 17.098 1 14.993 1Zm0 4.2a6.116 6.116 0 0 0-3.24.942 1 1 0 1 0 1.055 1.7 4.117 4.117 0 0 1 2.185-.641 4.12 4.12 0 0 1 2.196.647 1 1 0 0 0 1.058-1.697 6.118 6.118 0 0 0-3.254-.95ZM15 9a1 1 0 1 0 0 2h.006a1 1 0 0 0 0-2H15Z"/>
  <path fill="#161C24" fill-rule="evenodd" d="M8.06 5.425a2.528 2.528 0 0 1-.13-.175H6A2.75 2.75 0 0 0 3.25 8v12A2.75 2.75 0 0 0 6 22.75h7A2.75 2.75 0 0 0 15.75 20v-7.613a2.499 2.499 0 0 1-.744.113H15a2.5 2.5 0 0 1-2.445-3.022 2.5 2.5 0 0 1-2.688-3.134 2.494 2.494 0 0 1-1.806-.92ZM9.5 18a1 1 0 1 0 0 2h.009a1 1 0 1 0 0-2H9.5Z" clip-rule="evenodd"/>
</svg>
