<svg xmlns="http://www.w3.org/2000/svg" width="24" height="24" fill="none" viewBox="0 0 24 24">
  <path fill="#161C24" d="M3.912 12s0-.005-.004-.014a.693.693 0 0 0-.076-.133 3.459 3.459 0 0 0-.217-.276l-.356-.407-.82-.922-.048-.06a.75.75 0 0 1 1.116-.99l.053.054.82.92.38.435c.117.14.223.273.31.4.186.272.342.594.342.993s-.156.721-.342.993a5.05 5.05 0 0 1-.31.4l-.38.434-.82.92a.75.75 0 1 1-1.12-.995l.819-.922.356-.407c.093-.11.163-.198.217-.277a.693.693 0 0 0 .076-.132L3.912 12Zm14.676 0c0-.4.156-.721.342-.993.173-.255.422-.533.69-.834l.82-.921.053-.055a.75.75 0 0 1 1.115.991l-.048.06-.819.922c-.294.33-.466.527-.573.683a.67.67 0 0 0-.075.133l-.005.014.005.014a.67.67 0 0 0 .075.132c.107.157.28.353.573.684l.82.922.047.06a.75.75 0 0 1-1.115.99l-.054-.054-.819-.92c-.268-.302-.517-.58-.69-.835-.186-.272-.342-.594-.342-.993Zm-3.3 9.221a.75.75 0 1 1-1.433-.443l1.433.444Zm1.104-3.735c.32.035.7.13 1.113.23l1.173.285.073.021a.75.75 0 0 1-.353 1.45l-.076-.014-1.172-.285c-.452-.11-.721-.174-.92-.196a.688.688 0 0 0-.162-.003l-.014.002c-.001.001-.005.004-.01.011a.685.685 0 0 0-.08.14 3.592 3.592 0 0 0-.131.347l-.173.544-.372 1.203-1.433-.443.372-1.203.184-.58c.061-.18.123-.347.19-.493.144-.312.35-.624.712-.83l.137-.069c.32-.14.643-.15.942-.117ZM8.738 2.706a.75.75 0 0 1 1.407.516l-.373 1.203c-.125.405-.24.78-.374 1.073-.125.273-.298.546-.583.748l-.129.082c-.362.206-.736.223-1.078.186a5.14 5.14 0 0 1-.521-.09l-.592-.14-1.172-.285-.074-.022a.75.75 0 0 1 .353-1.45l.075.015 1.173.285.555.13c.149.033.266.054.365.065a.69.69 0 0 0 .162.004l.014-.003.01-.01a.686.686 0 0 0 .08-.14c.083-.182.166-.446.304-.892l.372-1.203.026-.072ZM7.6 17.465c.35-.026.73.004 1.091.232.36.228.552.56.679.887.119.306.212.697.315 1.122l.27 1.117.016.075a.75.75 0 0 1-1.45.352l-.023-.073-.27-1.118c-.113-.465-.182-.74-.257-.933a.696.696 0 0 0-.08-.158l-.002-.002-.002-.001-.011-.002a.697.697 0 0 0-.166-.002 3.618 3.618 0 0 0-.378.054l-.575.116-1.604.335-.076.011a.75.75 0 0 1-.23-1.48l1.603-.335.611-.123c.193-.035.374-.062.538-.074ZM14.594 2.27a.75.75 0 0 1 .884.479l.023.073.27 1.117.143.57c.04.15.076.268.113.364a.696.696 0 0 0 .08.158l.002.002.003.001.01.003a.723.723 0 0 0 .167 0c.206-.014.485-.071.953-.17l1.604-.334a.75.75 0 0 1 .306 1.468l-1.603.336c-.428.09-.822.173-1.15.197-.306.023-.636.002-.955-.156l-.137-.076c-.36-.228-.552-.56-.678-.887a5.189 5.189 0 0 1-.164-.517l-.152-.605-.27-1.117-.015-.076a.75.75 0 0 1 .566-.83Z"/>
  <path fill="#161C24" d="M14.852 5.622a.75.75 0 0 1 1.296.756l-2.842 4.872H19l.077.004a.75.75 0 0 1 0 1.492L19 12.75h-5.694l2.842 4.872.036.068a.75.75 0 0 1-1.29.752l-.042-.064L12 13.488l-2.853 4.89a.75.75 0 1 1-1.294-.756l2.841-4.872H5a.75.75 0 0 1 0-1.5h5.694L7.853 6.378l-.037-.069a.75.75 0 0 1 1.29-.752l.041.065L12 10.512l2.852-4.89Z"/>
</svg>
