<svg xmlns="http://www.w3.org/2000/svg" width="24" height="24" fill="none" viewBox="0 0 24 24">
  <path fill="#161C24" fill-rule="evenodd" d="M21.25 5.75v-2a1.5 1.5 0 0 0-1.5-1.5h-5.5a1.5 1.5 0 0 0-1.5 1.5v2h8.5Zm-8.5 5.941v-4.69h8.5v4.257a3.75 3.75 0 0 0-2.375 6.42l-1.82 1.816-6.048-6.048 1.743-1.755Zm6.5 3.31a2.25 2.25 0 0 1 2-2.237v.576a4.75 4.75 0 0 1-1.313 3.279A2.243 2.243 0 0 1 19.25 15Zm-9.3-.49a4.27 4.27 0 0 0 .052 5.988 4.276 4.276 0 0 0 5.99.054L9.95 14.51Z" clip-rule="evenodd"/>
  <path fill="#161C24" d="M11.5 7H6.75v4.69l-1.743 1.756 2.664 2.665c.23-.901.69-1.755 1.38-2.47l2.45-2.465V7ZM7.534 18.095 3.95 14.511a4.27 4.27 0 0 0 .052 5.988 4.278 4.278 0 0 0 5.002.766 5.496 5.496 0 0 1-1.47-3.17ZM11.5 5.75v-3.5H8.25a1.5 1.5 0 0 0-1.5 1.5v2h4.75Z"/>
</svg>
