<svg xmlns="http://www.w3.org/2000/svg" width="24" height="24" fill="none" viewBox="0 0 24 24">
  <path fill="#161C24" d="M19.75 4a.25.25 0 0 0-.25-.25h-5a.25.25 0 0 0-.25.25v1.25h5.5V4Zm1.5 2a.75.75 0 0 1-.75.75h-7a.75.75 0 0 1-.75-.75V4c0-.966.784-1.75 1.75-1.75h5c.966 0 1.75.784 1.75 1.75v2Z"/>
  <path fill="#161C24" d="M12.75 6a.75.75 0 0 1 1.5 0v6a.75.75 0 0 1-.218.528l-2.968 2.989-.002.002a2.77 2.77 0 0 0 0 3.918l.211.19a2.776 2.776 0 0 0 3.713-.19l3.809-3.795.111-.118a3.25 3.25 0 0 0 .844-2.184V6a.75.75 0 0 1 1.5 0v7.34a4.75 4.75 0 0 1-1.233 3.192l-.163.171-3.808 3.797-.001-.001a4.275 4.275 0 0 1-5.884.151l-.16-.151a4.27 4.27 0 0 1 0-6.041l2.749-2.768V6Zm-6-2c0-.966.784-1.75 1.75-1.75h2a.75.75 0 0 1 0 1.5h-2a.25.25 0 0 0-.25.25v1.25h2.25a.75.75 0 0 1 0 1.5h-3A.75.75 0 0 1 6.75 6V4Z"/>
  <path fill="#161C24" d="M6.75 6a.75.75 0 0 1 1.5 0v6a.75.75 0 0 1-.218.528l-2.968 2.989-.002.002a2.77 2.77 0 0 0 0 3.918v.002l.123.114a2.77 2.77 0 0 0 2.214.672.75.75 0 0 1 .202 1.486 4.27 4.27 0 0 1-3.41-1.035L4 20.499a4.27 4.27 0 0 1 0-6.041l2.75-2.768V6Zm3.72 7.97a.75.75 0 0 1 1.004-.052l.056.052 5 5 .052.056a.75.75 0 0 1-1.056 1.056l-.056-.052-5-5-.052-.056a.75.75 0 0 1 .052-1.004Z"/>
  <path fill="#161C24" d="M4.47 13.97a.75.75 0 0 1 1.004-.052l.056.052 2 2 .052.056a.75.75 0 0 1-1.056 1.056l-.056-.052-2-2-.052-.056a.75.75 0 0 1 .052-1.004ZM16.75 15a3.75 3.75 0 0 1 3.75-3.75.75.75 0 0 1 0 1.5 2.25 2.25 0 0 0-1.677 3.75.75.75 0 0 1-1.118 1l-.212-.258A3.737 3.737 0 0 1 16.75 15Z"/>
</svg>
