<svg xmlns="http://www.w3.org/2000/svg" width="24" height="24" fill="none" viewBox="0 0 24 24">
  <path fill="#161C24" fill-rule="evenodd" d="M4.04 1.792a3.001 3.001 0 0 0-1.064.422A2.767 2.767 0 0 0 1.79 4.055c-.026.155-.03 1.054-.03 7.945 0 8.486-.008 7.878.11 8.295.057.194.224.55.347.735a2.777 2.777 0 0 0 1.838 1.179c.155.027 1.053.031 7.935.031 8.448 0 7.89.007 8.3-.11a3.42 3.42 0 0 0 .74-.347 2.777 2.777 0 0 0 1.179-1.838c.027-.155.03-1.054.03-7.945 0-8.486.009-7.878-.11-8.295a3.402 3.402 0 0 0-.343-.729 2.767 2.767 0 0 0-1.841-1.185c-.155-.027-1.05-.031-7.965-.029-6.486.002-7.815.007-7.94.03Zm15.78 1.493c.357.111.652.354.797.659a2 2 0 0 1 .106.276c.04.164.04 15.396 0 15.56a1.3 1.3 0 0 1-.943.943c-.164.04-15.396.04-15.56 0a1.3 1.3 0 0 1-.943-.943c-.04-.164-.04-15.396 0-15.56a1.275 1.275 0 0 1 1.063-.959c.072-.009 3.559-.015 7.75-.013 7.123.002 7.627.005 7.73.037ZM7.266 9.288a.7.7 0 0 0-.314.212c-.146.156-.181.251-.181.5-.001.189.005.221.053.32.03.06.106.161.17.224a360.97 360.97 0 0 0 2.346 2.095c1.626 1.446 2.26 1.997 2.34 2.037.099.048.132.054.32.054s.22-.006.32-.054c.08-.04.714-.591 2.34-2.037a325.33 325.33 0 0 0 2.343-2.093c.062-.061.138-.161.17-.223.052-.103.057-.132.057-.323 0-.189-.006-.221-.055-.322a.925.925 0 0 0-.37-.364c-.08-.036-.131-.044-.305-.044-.188 0-.221.006-.32.054-.08.04-.661.545-2.135 1.855A140.223 140.223 0 0 1 12 12.98c-.011 0-.931-.81-2.045-1.801C8.487 9.874 7.9 9.364 7.82 9.325c-.09-.044-.141-.054-.29-.059a.891.891 0 0 0-.265.022Z" clip-rule="evenodd"/>
</svg>
