<svg xmlns="http://www.w3.org/2000/svg" width="24" height="24" fill="none" viewBox="0 0 24 24">
  <path fill="#161C24" fill-rule="evenodd" d="M4.04 1.792a3.001 3.001 0 0 0-1.064.422A2.767 2.767 0 0 0 1.79 4.055c-.026.155-.03 1.054-.03 7.945 0 8.486-.008 7.878.11 8.295.057.194.224.55.347.735a2.777 2.777 0 0 0 1.838 1.179c.155.027 1.053.031 7.935.031 8.448 0 7.89.007 8.3-.11a3.42 3.42 0 0 0 .74-.347 2.777 2.777 0 0 0 1.179-1.838c.027-.155.03-1.054.03-7.945 0-8.486.009-7.878-.11-8.295a3.402 3.402 0 0 0-.343-.729 2.767 2.767 0 0 0-1.841-1.185c-.155-.027-1.05-.031-7.965-.029-6.486.002-7.815.007-7.94.03Zm15.78 1.493c.357.111.652.354.797.659a2 2 0 0 1 .106.276c.04.164.04 15.396 0 15.56a1.3 1.3 0 0 1-.943.943c-.164.04-15.396.04-15.56 0a1.3 1.3 0 0 1-.943-.943c-.04-.164-.04-15.396 0-15.56a1.275 1.275 0 0 1 1.063-.959c.072-.009 3.559-.015 7.75-.013 7.123.002 7.627.005 7.73.037Zm-6.054 3.503a.726.726 0 0 0-.32.216A362.65 362.65 0 0 0 11.36 9.34c-1.446 1.626-1.997 2.26-2.037 2.34-.048.099-.054.132-.054.32s.006.221.054.32c.04.08.59.714 2.037 2.34a360.97 360.97 0 0 0 2.095 2.346c.063.064.164.14.224.17.098.048.132.054.32.054.174 0 .226-.008.305-.044a.916.916 0 0 0 .367-.361c.053-.105.058-.133.058-.325 0-.188-.006-.221-.054-.32-.04-.08-.546-.662-1.855-2.135A140.223 140.223 0 0 1 11.02 12c0-.011.81-.931 1.8-2.045 1.31-1.473 1.816-2.055 1.856-2.135.048-.099.054-.132.054-.32 0-.253-.034-.343-.192-.51a.632.632 0 0 0-.507-.224.891.891 0 0 0-.265.022Z" clip-rule="evenodd"/>
</svg>
