<svg xmlns="http://www.w3.org/2000/svg" width="24" height="24" fill="none" viewBox="0 0 24 24">
  <path fill="#161C24" fill-rule="evenodd" d="M4.04 1.792a3.001 3.001 0 0 0-1.064.422A2.767 2.767 0 0 0 1.79 4.055c-.026.155-.03 1.054-.03 7.945 0 8.486-.008 7.878.11 8.295.057.194.224.55.347.735a2.777 2.777 0 0 0 1.838 1.179c.155.027 1.053.031 7.935.031 8.448 0 7.89.007 8.3-.11a3.42 3.42 0 0 0 .74-.347 2.777 2.777 0 0 0 1.179-1.838c.027-.155.03-1.054.03-7.945 0-8.486.009-7.878-.11-8.295a3.402 3.402 0 0 0-.343-.729 2.767 2.767 0 0 0-1.841-1.185c-.155-.027-1.05-.031-7.965-.029-6.486.002-7.815.007-7.94.03Zm15.78 1.493c.357.111.652.354.797.659a2 2 0 0 1 .106.276c.04.164.04 15.396 0 15.56a1.3 1.3 0 0 1-.943.943c-.164.04-15.396.04-15.56 0a1.3 1.3 0 0 1-.943-.943c-.04-.164-.04-15.396 0-15.56a1.275 1.275 0 0 1 1.063-.959c.072-.009 3.559-.015 7.75-.013 7.123.002 7.627.005 7.73.037ZM6.758 6.289a.853.853 0 0 0-.44.401l-.048.1v3.42l.049.1a.899.899 0 0 0 .356.362c.105.053.133.058.325.058s.22-.005.325-.058a.899.899 0 0 0 .356-.362c.049-.099.049-.104.055-.798l.006-.699 1.404 1.4c1.617 1.612 1.502 1.517 1.854 1.517.192 0 .22-.005.325-.058a.899.899 0 0 0 .356-.362c.043-.087.049-.128.049-.31 0-.352.095-.237-1.517-1.854l-1.4-1.404.699-.006c.694-.006.699-.006.798-.055a.899.899 0 0 0 .362-.356c.053-.105.058-.133.058-.325s-.005-.22-.058-.325a.899.899 0 0 0-.362-.356l-.1-.049-1.69-.004c-1.371-.003-1.704.001-1.762.023Zm6 5.999a.856.856 0 0 0-.44.402c-.042.087-.048.127-.048.31 0 .352-.095.237 1.518 1.854l1.399 1.404-.698.006-.7.006-.114.058a.899.899 0 0 0-.356.362c-.043.087-.05.128-.05.31s.007.223.05.31a.899.899 0 0 0 .356.362l.115.058h3.42l.115-.058a.899.899 0 0 0 .356-.362l.049-.1v-3.42l-.058-.115a.899.899 0 0 0-.362-.356c-.087-.043-.128-.049-.31-.049s-.223.006-.31.049a.899.899 0 0 0-.362.356l-.058.115-.006.699-.006.698-1.404-1.399c-1.601-1.596-1.501-1.513-1.833-1.522a.785.785 0 0 0-.263.022Z" clip-rule="evenodd"/>
</svg>
