<svg xmlns="http://www.w3.org/2000/svg" width="24" height="24" fill="none" viewBox="0 0 24 24">
  <path fill="#161C24" fill-rule="evenodd" d="M4.25 9a7.75 7.75 0 1 1 15.5 0 7.75 7.75 0 0 1-15.5 0Zm8.129-4.209.93 1.906a.427.427 0 0 0 .311.237l2.021.336c.343.057.48.495.235.752l-1.447 1.515a.457.457 0 0 0-.12.383l.32 2.115c.054.358-.304.63-.613.464l-1.823-.97a.409.409 0 0 0-.386 0l-1.823.97c-.31.165-.667-.106-.613-.464l.32-2.115a.457.457 0 0 0-.12-.383L8.125 8.022c-.245-.257-.109-.695.234-.752l2.02-.336a.427.427 0 0 0 .313-.237l.93-1.906a.417.417 0 0 1 .757 0ZM7.25 22.001v-5.355A8.958 8.958 0 0 0 12 18.002a8.958 8.958 0 0 0 4.75-1.355v5.355a.75.75 0 0 1-1.2.6L12 19.938l-3.55 2.663a.75.75 0 0 1-1.2-.6Z" clip-rule="evenodd"/>
</svg>
