<svg xmlns="http://www.w3.org/2000/svg" width="24" height="24" fill="none" viewBox="0 0 24 24">
  <path fill="#161C24" fill-rule="evenodd" d="M1.293 1.293a1 1 0 0 1 1.414 0l20 20a1 1 0 0 1-1.414 1.414l-20-20a1 1 0 0 1 0-1.414Z" clip-rule="evenodd"/>
  <path fill="#161C24" d="m7.682 7.681-4.443.701c-1.422.224-1.99 1.95-.972 2.961l3.434 3.41a.248.248 0 0 1 .07.215l-.756 4.758c-.225 1.41 1.26 2.478 2.545 1.83l4.326-2.183a.255.255 0 0 1 .229 0l4.325 2.183c1.285.648 2.77-.42 2.545-1.83l-.14-.88L7.682 7.68Zm10.612 7.077a.29.29 0 0 1 .005-.005l3.434-3.41c1.017-1.01.45-2.737-.973-2.961l-4.796-.756a.252.252 0 0 1-.185-.134l-2.206-4.288c-.655-1.272-2.491-1.272-3.146 0L9.174 5.64l9.12 9.12Z"/>
</svg>
