<svg xmlns="http://www.w3.org/2000/svg" width="24" height="24" fill="none" viewBox="0 0 24 24">
  <path fill="#161C24" fill-rule="evenodd" d="M12 1.25C6.063 1.25 1.25 6.063 1.25 12S6.063 22.75 12 22.75 22.75 17.937 22.75 12 17.937 1.25 12 1.25ZM7.96 4.853a1.063 1.063 0 0 0-1.917 0l-.601 1.233-1.295.215c-.893.149-1.164 1.225-.595 1.822l.946.99-.21 1.39c-.12.804.713 1.57 1.554 1.122l1.16-.617 1.159.617c.84.447 1.675-.318 1.554-1.122l-.21-1.39.946-.99c.57-.597.298-1.673-.595-1.822L8.56 6.086l-.6-1.233ZM6.694 6.94l.308-.63.307.63c.148.304.435.53.785.589l.733.122-.546.572a1.092 1.092 0 0 0-.289.917l.114.757-.607-.324a1.057 1.057 0 0 0-.995 0l-.607.324.114-.757c.05-.329-.053-.67-.289-.917l-.546-.572.733-.122a1.07 1.07 0 0 0 .785-.589Zm9.35-2.087a1.063 1.063 0 0 1 1.916 0l.601 1.233 1.295.215c.893.149 1.164 1.225.595 1.822l-.946.99.21 1.39c.12.804-.713 1.57-1.554 1.122l-1.16-.617-1.159.617c-.84.447-1.675-.318-1.554-1.122l.21-1.39-.945-.99c-.57-.597-.299-1.673.594-1.822l1.295-.215.601-1.233ZM17 6.31l-.307.63a1.07 1.07 0 0 1-.785.589l-.733.122.546.572c.236.248.338.588.289.917l-.114.757.607-.324a1.06 1.06 0 0 1 .994 0l.608.324-.114-.757c-.05-.329.053-.67.288-.917l.547-.572-.733-.122a1.07 1.07 0 0 1-.785-.589L17 6.31Zm-8.4 8.24a.75.75 0 1 0-1.2.9 5.742 5.742 0 0 0 4.6 2.3 5.742 5.742 0 0 0 4.6-2.3.75.75 0 1 0-1.2-.9 4.242 4.242 0 0 1-3.4 1.7 4.242 4.242 0 0 1-3.4-1.7Z" clip-rule="evenodd"/>
</svg>
