<svg xmlns="http://www.w3.org/2000/svg" width="24" height="24" fill="none" viewBox="0 0 24 24">
  <path fill="#161C24" d="M6.124 4.712a1.062 1.062 0 0 1 1.752 0l.082.14.6 1.233 1.297.216.16.039c.712.227.938 1.096.531 1.666l-.097.117-.946.99.21 1.39.012.15c.005.695-.676 1.305-1.408 1.042l-.158-.07L7 11.008l-1.159.617c-.84.447-1.675-.318-1.554-1.122l.21-1.39-.946-.99c-.57-.597-.298-1.674.595-1.822l1.295-.216.601-1.233.082-.14Zm.569 2.228h-.001c-.13.265-.365.472-.656.559l-.128.03-.735.12.548.574.082.097c.152.202.227.449.218.696l-.011.124-.114.755.607-.322.12-.055c.243-.092.511-.092.754 0l.12.055.607.322-.114-.755c-.05-.329.054-.67.29-.917l.546-.574-.734-.12a1.07 1.07 0 0 1-.784-.59v.001L7 6.31l-.307.63Zm9.349-2.086a1.062 1.062 0 0 1 1.915 0l.001-.001.6 1.232 1.297.216.159.039c.713.226.94 1.096.532 1.666l-.097.117-.946.99.21 1.39.012.15c.005.695-.677 1.306-1.408 1.042l-.158-.07L17 11.008l-1.159.617c-.84.448-1.675-.318-1.554-1.122l.21-1.39-.946-.99c-.57-.597-.298-1.673.595-1.822l1.295-.216.601-1.232Zm.65 2.086a1.07 1.07 0 0 1-.785.587l.001.001-.735.121.548.575.082.096c.177.235.25.532.206.82l-.113.756.607-.323.12-.054c.243-.093.511-.093.754 0l.12.054.607.323-.114-.755V9.14c-.05-.33.054-.67.29-.916l.546-.574-.734-.122a1.066 1.066 0 0 1-.723-.478l-.061-.11L17 6.31l-.308.63Z"/>
  <path fill="#161C24" d="M1.25 12a.75.75 0 0 1 1.5 0 9.25 9.25 0 0 0 18.5 0 .75.75 0 0 1 1.5 0c0 5.937-4.813 10.75-10.75 10.75S1.25 17.937 1.25 12ZM12 1.25c1.157 0 2.272.183 3.318.522l.445.155.07.031a.75.75 0 0 1-.523 1.397l-.073-.023-.38-.133A9.242 9.242 0 0 0 12 2.75a9.23 9.23 0 0 0-3.237.582l-.074.023a.75.75 0 0 1-.452-1.428l.445-.155A10.742 10.742 0 0 1 12 1.25Z"/>
  <path fill="#161C24" d="M15.4 14.55a.75.75 0 1 1 1.2.9 5.742 5.742 0 0 1-4.6 2.3 5.739 5.739 0 0 1-4.397-2.044L7.4 15.45l-.043-.063a.75.75 0 0 1 1.194-.897l.049.06.15.19A4.239 4.239 0 0 0 12 16.25a4.24 4.24 0 0 0 3.4-1.7Z"/>
</svg>
