<svg xmlns="http://www.w3.org/2000/svg" width="24" height="24" fill="none" viewBox="0 0 24 24">
  <path fill="#161C24" fill-rule="evenodd" d="M11.42 1.272a7.583 7.583 0 0 0-2.773.748 7.152 7.152 0 0 0-2.118 1.51A7.109 7.109 0 0 0 5.02 5.646c-.38.786-.587 1.487-.713 2.413-.053.39-.053 1.491 0 1.88.127.934.334 1.63.722 2.43.187.388.351.675.545.96l.109.157-1.207 2.652L3.27 18.79V19c0 .19.006.221.055.322.069.14.206.277.35.35.205.103.275.098 1.643-.13.665-.112 1.216-.196 1.224-.188.009.01.291.66.628 1.446.337.787.636 1.477.665 1.535a.84.84 0 0 0 .345.338c.1.052.128.057.32.057.197 0 .218-.004.33-.063a.768.768 0 0 0 .334-.33c.029-.059.549-1.299 1.156-2.757l1.144-2.745.041-.095h.99l.041.095 1.144 2.745a299.33 299.33 0 0 0 1.156 2.756.768.768 0 0 0 .334.331c.112.06.133.063.33.063.192 0 .22-.005.32-.057a.84.84 0 0 0 .345-.338c.029-.058.328-.748.665-1.535.337-.786.619-1.437.628-1.446.008-.008.559.076 1.224.187 1.368.23 1.438.234 1.643.131a.832.832 0 0 0 .35-.35c.049-.1.055-.133.055-.322v-.21l-1.206-2.65-1.207-2.653.109-.158c.194-.284.358-.57.545-.959.388-.8.595-1.496.722-2.43.053-.389.053-1.49 0-1.88-.127-.934-.334-1.63-.722-2.43a7.126 7.126 0 0 0-1.5-2.1 7.126 7.126 0 0 0-2.101-1.5 7.414 7.414 0 0 0-2.359-.713c-.218-.03-.418-.04-.891-.046-.335-.004-.65-.003-.7.001Zm.894 1.488A6.202 6.202 0 0 1 15.9 4.116c.244.194.79.74.984.984a6.23 6.23 0 0 1 1.354 4.235 6.196 6.196 0 0 1-1.354 3.565c-.194.244-.74.79-.984.984a6.23 6.23 0 0 1-4.235 1.354A6.196 6.196 0 0 1 8.1 13.884a9.142 9.142 0 0 1-.984-.984 6.201 6.201 0 0 1-1.355-3.572A6.229 6.229 0 0 1 7.117 5.1c.196-.247.641-.7.89-.907a6.245 6.245 0 0 1 3.633-1.432l.3-.018c.017 0 .185.006.374.017Zm-.6 1.53c-.23.063-.455.214-.592.395a33.248 33.248 0 0 0-.846 1.678c-.004.01-.382.081-.841.158-.459.076-.877.154-.929.171a1.127 1.127 0 0 0-.447.302 1.077 1.077 0 0 0-.299.767c0 .322.099.564.337.823.084.091.37.393.636.671.331.346.481.516.475.54-.004.02-.063.4-.13.845-.162 1.068-.161 1.187.015 1.523.14.266.446.497.741.558.16.033.469.015.599-.036.057-.022.427-.212.823-.422.395-.21.73-.383.744-.383.014 0 .349.172.744.383.396.21.766.4.823.422.13.051.439.07.599.036a1.16 1.16 0 0 0 .741-.558c.175-.334.176-.455.015-1.523a80.565 80.565 0 0 0-.13-.844c-.005-.024.178-.229.571-.64.319-.333.619-.66.668-.728.132-.182.192-.357.204-.595a1.042 1.042 0 0 0-.096-.549 1.147 1.147 0 0 0-.649-.594 17.237 17.237 0 0 0-.93-.173c-.457-.076-.833-.147-.836-.157a34.824 34.824 0 0 0-.846-1.675 1.135 1.135 0 0 0-.601-.396 1.501 1.501 0 0 0-.563.001Zm.568 2.526c.258.527.279.563.405.69.096.095.18.155.298.214.156.076.2.087.779.184l.614.103-.154.165-.459.488c-.526.557-.559.693-.406 1.675.044.29.081.542.081.563 0 .03-.096-.014-.505-.23-.278-.147-.55-.283-.605-.303a1.014 1.014 0 0 0-.33-.035c-.168 0-.257.01-.33.035-.055.02-.327.156-.605.303-.409.216-.505.26-.505.23 0-.02.037-.274.081-.563.114-.734.109-.907-.034-1.209-.056-.12-.122-.2-.392-.487-.179-.188-.385-.408-.459-.487l-.134-.145.614-.103c.579-.097.623-.108.778-.184a1.12 1.12 0 0 0 .297-.21c.125-.125.145-.159.405-.69.151-.308.279-.56.284-.56.005 0 .132.25.282.556ZM7.16 15.047c.456.37.896.646 1.47.924a7.54 7.54 0 0 0 1.129.448c.114.034.212.065.216.07.006.006-1.434 3.477-1.471 3.544-.013.022-.13-.23-.415-.896-.219-.51-.419-.965-.444-1.01a.811.811 0 0 0-.322-.3c-.193-.096-.305-.09-1.221.063-.442.073-.81.13-.815.123a59.46 59.46 0 0 1 .735-1.65l.746-1.642.081.07c.044.038.185.153.311.256Zm10.83 1.34c.404.888.729 1.62.723 1.626-.005.006-.373-.05-.815-.123-.916-.153-1.028-.159-1.221-.064a.814.814 0 0 0-.306.272c-.025.04-.228.5-.451 1.02-.292.68-.411.937-.424.915a293.612 293.612 0 0 1-1.471-3.545c.004-.004.102-.035.216-.069a8.685 8.685 0 0 0 1.719-.758 8.22 8.22 0 0 0 1.139-.827c.088-.077.134-.105.143-.089.007.014.344.752.748 1.641Z" clip-rule="evenodd"/>
</svg>
