<svg xmlns="http://www.w3.org/2000/svg" width="24" height="24" fill="none" viewBox="0 0 24 24">
  <path fill="#161C24" fill-rule="evenodd" d="M12 1.25C6.063 1.25 1.25 6.063 1.25 12S6.063 22.75 12 22.75 22.75 17.937 22.75 12 17.937 1.25 12 1.25ZM12 20a8 8 0 1 0 0-16 8 8 0 0 0 0 16Z" clip-rule="evenodd"/>
  <path fill="#161C24" fill-rule="evenodd" d="M12 10c2.334 0 4.566.238 6.62.672a6.782 6.782 0 0 1-.384 3.916 7.76 7.76 0 0 0-3.648 3.648A6.73 6.73 0 0 1 12 18.75a6.73 6.73 0 0 1-2.588-.514 7.761 7.761 0 0 0-3.648-3.648 6.783 6.783 0 0 1-.383-3.916A32.146 32.146 0 0 1 12 10Zm0 2.5a1.5 1.5 0 0 0 0 3h.009a1.5 1.5 0 0 0 0-3H12Z" clip-rule="evenodd"/>
</svg>
