<svg xmlns="http://www.w3.org/2000/svg" width="24" height="24" fill="none" viewBox="0 0 24 24">
  <path fill="#161C24" d="M21.25 12a9.25 9.25 0 1 0-18.5 0 9.25 9.25 0 0 0 18.5 0Zm1.5 0c0 5.937-4.813 10.75-10.75 10.75S1.25 17.937 1.25 12 6.063 1.25 12 1.25 22.75 6.063 22.75 12Z"/>
  <path fill="#161C24" d="M18.853 13.265a.75.75 0 0 1 .294 1.47 5.674 5.674 0 0 0-4.412 4.412.75.75 0 0 1-1.47-.294 7.173 7.173 0 0 1 5.588-5.588Zm-13.782-.012.077.012.26.057a7.18 7.18 0 0 1 5.27 5.27l.057.26.012.077a.75.75 0 0 1-1.464.293l-.018-.075-.045-.205a5.681 5.681 0 0 0-4.161-4.162l-.206-.045-.075-.018a.75.75 0 0 1 .293-1.464ZM12 9.25c2.419 0 4.722.324 6.804.911l.414.121.072.027a.75.75 0 0 1-.432 1.427l-.076-.018-.385-.113c-1.944-.548-4.11-.855-6.397-.855-2.286 0-4.452.307-6.396.855l-.386.113a.75.75 0 0 1-.436-1.436l.414-.12C7.278 9.573 9.581 9.25 12 9.25Zm.009 3.25.153.008a1.5 1.5 0 0 1 0 2.984l-.153.008H12a1.5 1.5 0 0 1 0-3h.009Z"/>
</svg>
