<svg xmlns="http://www.w3.org/2000/svg" width="24" height="24" fill="none" viewBox="0 0 24 24">
  <path fill="#161C24" d="M5.905 3.256A.75.75 0 0 1 6.17 4.73l-3.058.717a.25.25 0 0 0-.189.292l2.49 12.505.026.108a1.25 1.25 0 0 0 1.2.898H7l.076.004a.75.75 0 0 1 0 1.492L7 20.75h-.36A2.75 2.75 0 0 1 4 18.773l-.057-.236-2.49-12.505A1.75 1.75 0 0 1 2.77 3.986l3.058-.717.077-.013Zm11.365.573a.75.75 0 0 1 .901-.56l3.059.717.168.05a1.75 1.75 0 0 1 1.175 1.823l-.027.173-2.489 12.505a2.75 2.75 0 0 1-2.697 2.213H17a.75.75 0 0 1 0-1.5h.36a1.25 1.25 0 0 0 1.226-1.006l2.49-12.505.004-.05a.25.25 0 0 0-.146-.226l-.047-.016-3.059-.717a.75.75 0 0 1-.558-.901ZM13.365 6.6a.75.75 0 0 1 1.27.8l-1.391 2.21 2.473 8.173a.75.75 0 0 1-.069.593l-.049.074-3 4a.75.75 0 0 1-1.143.067l-.057-.067-2.999-4a.75.75 0 0 1-.118-.667l2.472-8.174L9.365 7.4l-.038-.067a.75.75 0 0 1 1.264-.794l.043.063L12 8.77l1.366-2.17ZM9.827 17.854l2.172 2.896 2.172-2.895-2.172-7.18-2.172 7.18Z"/>
  <path fill="#161C24" d="M15.667 1.328a.75.75 0 0 1 .863.142l2 2 .088.105a.75.75 0 0 1-.019.875l-3 4a.75.75 0 0 1-1.13.08L12 6.06 9.53 8.53a.75.75 0 0 1-1.13-.08l-3-4a.75.75 0 0 1 .07-.98l2-2 .105-.088a.75.75 0 0 1 .875.018L12 4.062 15.55 1.4l.117-.072ZM6.989 4.07l2.092 2.788 1.777-1.777L8.07 2.989 6.99 4.07Zm6.152 1.01 1.778 1.778 2.09-2.788-1.08-1.08-2.788 2.09Z"/>
</svg>
