<svg xmlns="http://www.w3.org/2000/svg" width="24" height="24" fill="none" viewBox="0 0 24 24">
  <path fill="#161C24" d="M6.5 12a5.5 5.5 0 1 1 11 0 5.5 5.5 0 0 1-11 0Z"/>
  <path fill="#161C24" fill-rule="evenodd" d="M10.745 3c0-.69.56-1.25 1.25-1.25h.01a1.25 1.25 0 0 1 0 2.5h-.01c-.69 0-1.25-.56-1.25-1.25Zm6.364 2.636c0-.69.56-1.25 1.25-1.25h.009a1.25 1.25 0 0 1 0 2.5h-.01c-.69 0-1.25-.56-1.25-1.25Zm-12.725 0c0-.69.56-1.25 1.25-1.25h.01a1.25 1.25 0 0 1 0 2.5h-.01c-.69 0-1.25-.56-1.25-1.25ZM1.75 12.001c0-.69.56-1.25 1.25-1.25h.009a1.25 1.25 0 1 1 0 2.5H3c-.69 0-1.25-.56-1.25-1.25Zm17.991 0c0-.69.56-1.25 1.25-1.25H21a1.25 1.25 0 1 1 0 2.5h-.009c-.69 0-1.25-.56-1.25-1.25ZM4.384 18.364c0-.69.56-1.25 1.25-1.25h.01a1.25 1.25 0 0 1 0 2.5h-.01c-.69 0-1.25-.56-1.25-1.25Zm12.724 0c0-.69.56-1.25 1.25-1.25h.01a1.25 1.25 0 0 1 0 2.5h-.01c-.69 0-1.25-.56-1.25-1.25ZM10.746 21c0-.69.56-1.25 1.25-1.25h.01a1.25 1.25 0 0 1 0 2.5h-.01c-.69 0-1.25-.56-1.25-1.25Z" clip-rule="evenodd"/>
</svg>
