<svg xmlns="http://www.w3.org/2000/svg" width="24" height="24" fill="none" viewBox="0 0 24 24">
  <path fill="#161C24" fill-rule="evenodd" d="M12 1.25C6.063 1.25 1.25 6.063 1.25 12S6.063 22.75 12 22.75 22.75 17.937 22.75 12 17.937 1.25 12 1.25ZM9.45 15.4a.75.75 0 1 0-.9 1.2A5.727 5.727 0 0 0 12 17.75c1.294 0 2.49-.428 3.45-1.15a.75.75 0 1 0-.9-1.2c-.71.534-1.592.85-2.55.85-.958 0-1.84-.316-2.55-.85ZM4.799 8.753c.045.434.132.988.295 1.531.172.572.412 1.08.73 1.433.299.332.667.533 1.177.533.917 0 1.851-.663 2.638-1.51.315-.34.582-.682.785-.965-1.848-.871-3.918-1.002-5.625-1.022ZM12 8.941a.754.754 0 0 0-.114-.084C9.207 7.25 6.032 7.25 4.056 7.25H4a.75.75 0 0 0-.75.75v.072l.007.175a10.828 10.828 0 0 0 .4 2.469c.203.678.526 1.42 1.051 2.005.545.605 1.302 1.029 2.292 1.029 1.583 0 2.899-1.087 3.737-1.99A11.613 11.613 0 0 0 12 10.12a11.613 11.613 0 0 0 1.263 1.64c.838.903 2.154 1.99 3.737 1.99.99 0 1.747-.424 2.292-1.03.525-.584.848-1.326 1.051-2.005a10.826 10.826 0 0 0 .406-2.644v-.05l.001-.014V8a.75.75 0 0 0-.75-.75h-.055c-1.977 0-5.152 0-7.83 1.607A.754.754 0 0 0 12 8.94Zm6.907 1.343a8.5 8.5 0 0 0 .295-1.53c-1.707.019-3.777.15-5.625 1.02.203.284.47.626.785.966.787.847 1.721 1.51 2.638 1.51.51 0 .878-.201 1.177-.533.318-.353.558-.86.73-1.433Z" clip-rule="evenodd"/>
</svg>
