<svg xmlns="http://www.w3.org/2000/svg" width="24" height="24" fill="none" viewBox="0 0 24 24">
  <path fill="#161C24" d="M21.25 12a9.25 9.25 0 1 0-18.5 0 9.25 9.25 0 0 0 18.5 0Zm1.5 0c0 5.937-4.813 10.75-10.75 10.75S1.25 17.937 1.25 12 6.063 1.25 12 1.25 22.75 6.063 22.75 12Z"/>
  <path fill="#161C24" d="M14.613 15.357a.75.75 0 0 1 .897 1.194l-.06.049A5.727 5.727 0 0 1 12 17.75a5.726 5.726 0 0 1-3.268-1.019L8.55 16.6l-.06-.048a.75.75 0 0 1 .897-1.194l.063.043.275.19c.657.418 1.437.66 2.275.66.958 0 1.84-.316 2.55-.85l.063-.043ZM4 7.25c1.972 0 5.182-.016 7.886 1.606l.12.09a.75.75 0 0 1 .206.79l-.06.136-.002.001v.001s0 .002-.002.003l-.005.01-.022.036-.075.124a11.607 11.607 0 0 1-1.309 1.714C9.9 12.664 8.583 13.75 7 13.75c-.99 0-1.747-.424-2.292-1.03-.526-.583-.848-1.326-1.052-2.004a10.09 10.09 0 0 1-.355-1.86 10.826 10.826 0 0 1-.05-.785l-.001-.05v-.02L4 8h-.75A.75.75 0 0 1 4 7.25Zm.798 1.503c.045.433.133.987.296 1.531.171.572.411 1.08.73 1.433.298.332.666.533 1.176.533.917 0 1.851-.664 2.638-1.51a9.97 9.97 0 0 0 .78-.964c-1.846-.87-3.914-1.004-5.62-1.023Z"/>
  <path fill="#161C24" d="M20.077 7.254A.75.75 0 0 1 20.75 8H20l.75.001v.07c-.002.042-.003.102-.007.176-.006.149-.019.358-.044.608-.05.498-.15 1.175-.355 1.86-.204.68-.526 1.422-1.052 2.006-.545.605-1.302 1.029-2.292 1.029-1.583 0-2.899-1.086-3.737-1.99a11.61 11.61 0 0 1-1.384-1.837l-.021-.035-.006-.011-.002-.003v-.001h-.001a.75.75 0 0 1 .265-1.017l.255-.146C15.018 7.236 18.09 7.25 20 7.25l.077.004Zm-.876 1.499c-1.706.02-3.774.153-5.62 1.023.202.283.467.625.782.963.786.847 1.72 1.511 2.637 1.511.51 0 .878-.201 1.177-.533.318-.354.558-.861.73-1.433a8.516 8.516 0 0 0 .294-1.531Z"/>
</svg>
