<svg xmlns="http://www.w3.org/2000/svg" width="24" height="24" fill="none" viewBox="0 0 24 24">
  <path fill="#161C24" fill-rule="evenodd" d="M11.293 2.793a1 1 0 0 1 1.414 0l2.5 2.5A1 1 0 0 1 14.5 7H13v2.5a1 1 0 1 1-2 0V7H9.5a1 1 0 0 1-.707-1.707l2.5-2.5Zm7.914 6.5a1 1 0 0 1 0 1.414l-1.5 1.5a1 1 0 0 1-1.414-1.414l1.5-1.5a1 1 0 0 1 1.414 0Zm-14.415.003a1 1 0 0 1 1.414-.001l1.5 1.497a1 1 0 0 1-1.412 1.416l-1.5-1.498a1 1 0 0 1-.002-1.414ZM2 16.5a1 1 0 0 1 1-1h2a1 1 0 1 1 0 2H3a1 1 0 0 1-1-1Zm16 0a1 1 0 0 1 1-1h2a1 1 0 1 1 0 2h-2a1 1 0 0 1-1-1Zm4 4a1 1 0 0 1-1 1H3a1 1 0 1 1 0-2h18a1 1 0 0 1 1 1Zm-14.75-4a4.75 4.75 0 1 1 9.5 0 .75.75 0 0 1-.75.75H8a.75.75 0 0 1-.75-.75Z" clip-rule="evenodd"/>
</svg>
