<svg xmlns="http://www.w3.org/2000/svg" width="24" height="24" fill="none" viewBox="0 0 24 24">
  <path fill="#161C24" d="M11.25 4a.75.75 0 0 1 1.5 0v4.19l1.22-1.22a.75.75 0 1 1 1.06 1.06l-2.5 2.5a.75.75 0 0 1-1.003.052l-.057-.052-2.5-2.5-.052-.056a.75.75 0 0 1 1.056-1.056l.056.052 1.22 1.22V4ZM4.969 9.973a.751.751 0 0 1 1.061-.001l1.5 1.497.051.057a.75.75 0 0 1-1.054 1.056l-.057-.05-1.5-1.499-.051-.056a.75.75 0 0 1 .05-1.004Zm13-.003a.75.75 0 0 1 1.061 1.06l-1.5 1.5a.75.75 0 1 1-1.06-1.06l1.5-1.5ZM5 16.25a.75.75 0 0 1 0 1.5H3a.75.75 0 0 1 0-1.5h2Zm16 0a.75.75 0 0 1 0 1.5h-2a.75.75 0 0 1 0-1.5h2Zm0 3a.75.75 0 0 1 0 1.5H3a.75.75 0 0 1 0-1.5h18ZM15.25 17a3.25 3.25 0 0 0-6.5 0 .75.75 0 0 1-1.5 0 4.75 4.75 0 0 1 9.5 0 .75.75 0 0 1-1.5 0Z"/>
</svg>
