<svg xmlns="http://www.w3.org/2000/svg" width="24" height="24" fill="none" viewBox="0 0 24 24">
  <path fill="#161C24" fill-rule="evenodd" d="M1.25 12C1.25 6.063 6.063 1.25 12 1.25S22.75 6.063 22.75 12 17.937 22.75 12 22.75 1.25 17.937 1.25 12Zm7.3 4.4A5.727 5.727 0 0 1 12 15.25c1.294 0 2.49.428 3.45 1.15a.75.75 0 1 1-.9 1.2 4.227 4.227 0 0 0-2.55-.85c-.958 0-1.84.316-2.55.85a.75.75 0 0 1-.9-1.2ZM7 8.75c.26 0 .633.001 1.022.075.132.026.258.058.376.097a1.29 1.29 0 0 0-.148.566 1.25 1.25 0 1 0 2.5.012c0-.375-.183-.682-.309-.858a3.327 3.327 0 0 0-.427-.48c-.522-.49-1.175-.708-1.712-.81A6.823 6.823 0 0 0 7.01 7.25H7a.75.75 0 0 0 0 1.5Zm7 0c.26 0 .633.001 1.022.075.132.026.258.058.376.097a1.29 1.29 0 0 0-.148.566 1.25 1.25 0 1 0 2.5.012c0-.375-.183-.682-.309-.858a3.327 3.327 0 0 0-.427-.48c-.522-.49-1.175-.708-1.712-.81a6.823 6.823 0 0 0-1.292-.102H14a.75.75 0 0 0 0 1.5Z" clip-rule="evenodd"/>
</svg>
