<svg xmlns="http://www.w3.org/2000/svg" width="24" height="24" fill="none" viewBox="0 0 24 24">
  <path fill="#161C24" d="M6.25 5c0-.962.148-1.884.419-2.729a.75.75 0 0 1 1.429.46A7.444 7.444 0 0 0 7.75 5c0 1.644.513 3.104 1.309 4.139.795 1.033 1.841 1.61 2.941 1.61 1.1 0 2.146-.577 2.941-1.61.796-1.035 1.309-2.495 1.309-4.14a7.44 7.44 0 0 0-.348-2.27.75.75 0 0 1 1.43-.459c.27.845.418 1.767.418 2.73 0 1.946-.606 3.735-1.62 5.054-1.015 1.319-2.468 2.196-4.13 2.196s-3.115-.877-4.13-2.196C6.856 8.736 6.25 6.947 6.25 5Zm5.849 11.251c.764.012 1.485.172 2.289.424l.35.114.072.028a.75.75 0 0 1-.474 1.415l-.074-.02-.63-.198c-.59-.17-1.074-.255-1.558-.263-.642-.01-1.339.118-2.33.458a.75.75 0 0 1-.488-1.418c1.085-.373 1.965-.554 2.843-.54ZM4.25 22v-4a.75.75 0 0 1 1.5 0v4a.75.75 0 0 1-1.5 0Zm14 0v-4a.75.75 0 0 1 1.5 0v4a.75.75 0 0 1-1.5 0Z"/>
  <path fill="#161C24" d="M9.25 8.41a3.289 3.289 0 0 0-2.182-3.104l-.257-.08-.074-.023a.75.75 0 0 1 .377-1.443l.076.015.19.054a4.787 4.787 0 0 1 3.37 4.581 4.79 4.79 0 0 1-.686 2.478.75.75 0 0 1-1.286-.774A3.291 3.291 0 0 0 9.25 8.41Zm4 0a4.785 4.785 0 0 1 3.56-4.635l.076-.015a.75.75 0 0 1 .377 1.443l-.074.024A3.285 3.285 0 0 0 14.75 8.41c0 .547.132 1.062.365 1.514l.107.19.036.068a.75.75 0 0 1-1.278.77l-.043-.064-.156-.278a4.794 4.794 0 0 1-.53-2.2Z"/>
  <path fill="#161C24" d="M16.986 18.745a.75.75 0 0 1-.034-1.5l.034 1.5Zm.11-17.49c.096.014.19.045.274.094l3.5 2a.75.75 0 0 1 .351.85l-.052.136c-.215.43-.554 1.363-.805 2.483-.25 1.12-.396 2.35-.276 3.388l.035.207c.11.479.4.935.772 1.56l.242.431c.512.99.68 1.86.582 2.654-.098.783-.447 1.404-.804 1.906l-.153.208c-.997 1.318-2.326 1.54-3.776 1.573l-.016-.75-.018-.75c1.33-.03 2.047-.23 2.613-.978l.246-.347c.223-.342.373-.675.42-1.048.052-.425-.019-.991-.427-1.78l-.197-.35c-.333-.559-.832-1.308-.984-2.186l-.026-.178c-.146-1.273.036-2.688.304-3.887.186-.83.422-1.592.644-2.172l-2.737-1.563c-1.725.06-3.442.937-4.274 1.771a.75.75 0 0 1-1.059.003c-.844-.838-2.563-1.713-4.289-1.774L4.442 4.323c.232.635.481 1.499.671 2.4.25 1.19.43 2.574.29 3.677l-.032.217c-.085.495-.283.924-.485 1.291-.102.184-.21.361-.311.525l-.283.472c-.458.806-.575 1.405-.534 1.888.04.48.246.943.618 1.468.836.999 1.798 1.008 2.556.962l.078-.001a.75.75 0 0 1 .013 1.498l-.365.015c-.856.017-2.107-.12-3.203-1.255l-.25-.28-.032-.042c-.466-.652-.837-1.379-.91-2.238-.074-.864.162-1.765.725-2.756l.309-.516c.1-.164.192-.315.275-.465.166-.301.276-.561.32-.82l.041-.335c.068-.822-.06-1.919-.288-2.996-.225-1.071-.523-2.014-.733-2.511l-.085-.186a.75.75 0 0 1 .299-.986l3.5-2 .088-.043a.75.75 0 0 1 .284-.056c1.906 0 3.79.809 5.003 1.753 1.206-.946 3.093-1.753 4.997-1.753l.098.006Z"/>
</svg>
