<svg xmlns="http://www.w3.org/2000/svg" width="24" height="24" fill="none" viewBox="0 0 24 24">
  <path fill="#161C24" fill-rule="evenodd" d="M6.376 1.099A.75.75 0 0 1 6.748 1c1.906 0 3.792.808 5.004 1.752C12.958 1.806 14.844 1 16.748 1a.75.75 0 0 1 .372.099l3.5 2a.75.75 0 0 1 .299.986c-.215.43-.553 1.363-.804 2.484-.251 1.12-.397 2.35-.277 3.388.06.517.336.978.715 1.61l.093.155c.7 1.173.936 2.179.823 3.086-.112.895-.552 1.578-.957 2.114-.308.407-.648.71-1.014.935v3.893a.75.75 0 0 1-.75.75h-14a.75.75 0 0 1-.75-.75v-3.873a4.332 4.332 0 0 1-1.075-.97c-.466-.651-.837-1.378-.91-2.237-.073-.864.162-1.765.725-2.756.094-.165.194-.327.285-.477l.024-.038c.1-.165.192-.316.276-.466.166-.3.275-.561.32-.82.144-.843.012-2.1-.247-3.33-.258-1.225-.61-2.281-.819-2.698a.75.75 0 0 1 .299-.986l3.5-2ZM11.845 16c.874.014 1.69.22 2.64.538a.75.75 0 0 1-.477 1.422c-.896-.3-1.542-.45-2.187-.46-.642-.01-1.34.117-2.33.458a.75.75 0 0 1-.488-1.418c1.084-.373 1.964-.554 2.842-.54ZM8.432 4.684a.517.517 0 0 0-.646.463C7.607 7.639 8.921 9.229 9.68 9.746a.517.517 0 0 0 .734-.16 3.3 3.3 0 0 0 .473-1.708 3.298 3.298 0 0 0-2.454-3.194Zm7.276.46a.517.517 0 0 0-.646-.46 3.298 3.298 0 0 0-2.453 3.194c0 .624.172 1.209.473 1.707a.517.517 0 0 0 .726.166c.893-.587 1.383-1.506 1.64-2.362a6.506 6.506 0 0 0 .26-2.244Z" clip-rule="evenodd"/>
</svg>
