<svg xmlns="http://www.w3.org/2000/svg" width="24" height="24" fill="none" viewBox="0 0 24 24">
  <path fill="#161C24" fill-rule="evenodd" d="M13.146 1.27a17.74 17.74 0 0 0-1.12-.02c-.445 0-.867 0-1.172.02a2.824 2.824 0 0 0-.907.19 2.75 2.75 0 0 0-1.488 1.487c-.12.29-.167.59-.189.908-.02.304-.02.676-.02 1.12v7.666a5.75 5.75 0 1 0 7.501 0V4.975c0-.444 0-.816-.021-1.12a2.824 2.824 0 0 0-.189-.908 2.75 2.75 0 0 0-1.488-1.487 2.84 2.84 0 0 0-.907-.19ZM12 7a1 1 0 0 1 1 1v6.438a2.751 2.751 0 1 1-2 0V8a1 1 0 0 1 1-1Z" clip-rule="evenodd"/>
</svg>
