<svg xmlns="http://www.w3.org/2000/svg" width="24" height="24" fill="none" viewBox="0 0 24 24">
  <path fill="#161C24" fill-rule="evenodd" d="M11.51 1.282A3.783 3.783 0 0 0 8.795 3.06a4.1 4.1 0 0 0-.443 1.07c-.094.378-.092.292-.092 4.517v3.973l-.296.295C6.85 14.028 6.26 15.439 6.26 17c0 1.555.586 2.969 1.69 4.07A5.671 5.671 0 0 0 12 22.74c2.08 0 3.95-1.088 4.999-2.907.807-1.401.966-3.164.427-4.723a5.729 5.729 0 0 0-1.39-2.195l-.295-.294-.006-4.066-.006-4.065-.054-.241a4.053 4.053 0 0 0-.47-1.189 3.773 3.773 0 0 0-2.668-1.769 5.52 5.52 0 0 0-1.027-.009Zm.86 1.502c.799.12 1.508.728 1.767 1.517.118.355.109.044.122 4.669l.01 4.24.045.093c.057.124.152.225.396.426.89.733 1.433 1.784 1.53 2.973.06.707-.098 1.494-.44 2.188a3.961 3.961 0 0 1-.823 1.141 4.287 4.287 0 0 1-2.47 1.19 6.13 6.13 0 0 1-1.014 0 4.306 4.306 0 0 1-3.058-1.901 4.914 4.914 0 0 1-.463-.979 4.166 4.166 0 0 1-.213-1.639c.099-1.191.649-2.255 1.54-2.983.243-.197.305-.263.375-.399l.056-.11.012-4.24c.008-3.063.018-4.271.034-4.35.1-.485.31-.882.636-1.208.52-.519 1.21-.741 1.958-.628Zm-.612 4.504a.856.856 0 0 0-.44.402l-.048.1-.01 3.279-.01 3.278-.19.072a2.743 2.743 0 0 0-1.77 2.136c-.04.226-.04.664 0 .89.067.381.223.777.427 1.085a2.777 2.777 0 0 0 1.838 1.179c.36.063.847.032 1.236-.079.196-.056.554-.224.733-.344a2.767 2.767 0 0 0 1.185-1.841c.04-.226.04-.664 0-.89a2.94 2.94 0 0 0-.423-1.079 2.776 2.776 0 0 0-1.346-1.057l-.19-.072-.01-3.278-.01-3.279-.05-.1a.894.894 0 0 0-.354-.361c-.1-.05-.14-.059-.305-.063a.785.785 0 0 0-.263.022Zm.532 8.495c.055.012.175.057.266.1.13.063.2.113.324.237.25.251.365.526.365.88 0 .223-.03.347-.128.556-.111.234-.327.45-.561.561a1.108 1.108 0 0 1-.556.128c-.223 0-.347-.029-.556-.128a1.239 1.239 0 0 1-.561-.561 1.108 1.108 0 0 1-.128-.556c0-.224.029-.347.129-.558a.999.999 0 0 1 .233-.321c.32-.318.717-.432 1.173-.338Z" clip-rule="evenodd"/>
</svg>
