<svg xmlns="http://www.w3.org/2000/svg" width="24" height="24" fill="none" viewBox="0 0 24 24">
  <path fill="#161C24" d="M6.47 16.47a.75.75 0 1 1 1.06 1.06l-1 1a.75.75 0 1 1-1.06-1.06l1-1Zm4.312-9.279c.288-.007.572.015.848.064a.75.75 0 0 1-.184 1.486l-.076-.01-.18-.025a2.74 2.74 0 0 0-.369-.015l-.187.011c-1.59.15-2.842 1.674-2.684 3.494l.036.282c.217 1.292 1.125 2.265 2.22 2.561l.237.053.076.016a.75.75 0 0 1-.26 1.47l-.076-.009-.186-.037c-1.84-.41-3.265-2.007-3.52-4.006l-.021-.2c-.221-2.55 1.537-4.881 4.037-5.117l.29-.018ZM4.5 11.751a.75.75 0 1 1 0 1.5h-1a.75.75 0 0 1 0-1.5h1Zm-.17-5.086a.75.75 0 0 1 .935-.366l.07.03 1 .5.067.038a.75.75 0 0 1-.667 1.334l-.07-.03-1-.5-.067-.038a.75.75 0 0 1-.269-.968ZM9.664 3.33a.75.75 0 0 1 .968.269l.038.067.5 1 .03.07a.75.75 0 0 1-1.334.667l-.038-.067-.5-1-.03-.07a.75.75 0 0 1 .366-.936ZM17.75 4a1.25 1.25 0 1 0-2.5 0v10.535a.75.75 0 0 1-.374.65 3.25 3.25 0 1 0 3.248 0 .75.75 0 0 1-.374-.65V4Zm1.5 10.129a4.75 4.75 0 1 1-5.5 0V4a2.75 2.75 0 1 1 5.5 0v10.129Z"/>
</svg>
