<svg xmlns="http://www.w3.org/2000/svg" width="24" height="24" fill="none" viewBox="0 0 24 24">
  <path fill="#161C24" fill-rule="evenodd" d="M6.266 1.288c-.124.04-.202.095-.348.246-.103.105-3.705 4.103-4.215 4.676a1.937 1.937 0 0 0-.366.625l-.067.195v5.28l.045.156c.049.168.153.39.252.534.209.307.569.564.957.684l.146.046 3.43.006 3.43.006.188-.043a1.778 1.778 0 0 0 1.129-.859c.072-.134 1.798-4.61 1.872-4.853.083-.273.086-.673.008-.954a1.651 1.651 0 0 0-.465-.773 1.756 1.756 0 0 0-.772-.454c-.11-.032-.252-.036-1.66-.04a68.755 68.755 0 0 1-1.565-.016c-.021-.007-.019-.025.005-.083.039-.092.104-.346.144-.557a5.03 5.03 0 0 0 .04-.54c.018-.675-.084-1.16-.364-1.74-.208-.429-.419-.715-.848-1.149-.359-.363-.434-.407-.711-.415a.891.891 0 0 0-.265.022ZM6.63 3.27c.257.412.384.957.332 1.423-.044.391-.143.654-.418 1.112-.277.462-.274.455-.274.696 0 .191.005.22.057.323a.834.834 0 0 0 .351.352l.112.055 2.161.01c2.021.01 2.164.012 2.215.045a.257.257 0 0 1 .122.213c-.001.045-.333.935-.867 2.322a216.571 216.571 0 0 1-.894 2.305.28.28 0 0 1-.082.09c-.05.033-.234.035-3.285.035-3.054 0-3.235-.002-3.286-.035a.417.417 0 0 1-.089-.089c-.033-.05-.035-.198-.04-2.398-.005-1.85 0-2.358.02-2.415.017-.05.613-.726 1.88-2.133 1.02-1.133 1.864-2.06 1.874-2.06.01 0 .06.067.111.15Zm7.614 7.041a1.797 1.797 0 0 0-1.101.87c-.065.12-1.792 4.603-1.862 4.83a1.921 1.921 0 0 0-.008.956c.083.301.224.536.465.774.223.221.463.362.772.454.11.032.252.036 1.635.041.833.004 1.515.013 1.515.021 0 .008-.046.104-.101.214a2.5 2.5 0 0 0-.279 1.21c0 .46.08.82.268 1.21.175.362.304.522.932 1.152.682.685.686.688 1.02.688.233 0 .334-.034.477-.158a816.08 816.08 0 0 0 4.319-4.782c.157-.177.29-.405.367-.625l.067-.195v-5.28l-.045-.156a2.106 2.106 0 0 0-.252-.534 1.847 1.847 0 0 0-.957-.684l-.146-.046-3.45-.004-3.45-.004-.186.048Zm6.882 1.475a.4.4 0 0 1 .089.09c.033.05.035.197.04 2.397.005 1.85 0 2.358-.02 2.415-.017.05-.61.721-1.865 2.115a672.83 672.83 0 0 0-1.865 2.074c-.023.03-.051.008-.238-.177-.331-.327-.447-.537-.485-.883a1.208 1.208 0 0 1 .124-.688c.027-.054.196-.34.374-.638.471-.784.45-.738.45-.99 0-.19-.005-.22-.057-.323a.834.834 0 0 0-.351-.352l-.112-.055-2.161-.01c-2.021-.009-2.164-.012-2.215-.045a.257.257 0 0 1-.122-.213c.001-.045.333-.933.867-2.322.476-1.237.877-2.273.892-2.3a.205.205 0 0 1 .154-.12c.036-.009 1.501-.015 3.256-.013 3.012.003 3.194.005 3.245.038Z" clip-rule="evenodd"/>
</svg>
