<svg xmlns="http://www.w3.org/2000/svg" width="24" height="24" fill="none" viewBox="0 0 24 24">
  <path fill="#161C24" fill-rule="evenodd" d="M13.649 2.8a.976.976 0 0 0-.215.135c-.063.052-1.609 1.61-3.435 3.46L6.678 9.758l-2.004.006-2.004.006-.146.045a2.22 2.22 0 0 0-.524.251 1.82 1.82 0 0 0-.685.967l-.045.156v8.62l.045.156c.049.168.153.39.252.534.209.307.57.565.957.684l.146.045 2.16.011c1.188.005 4.72.005 7.85 0 5.294-.01 5.7-.014 5.83-.046.852-.21 1.504-.719 1.875-1.464.083-.168.001.065 1.244-3.53.553-1.6 1.027-2.995 1.053-3.1.041-.166.047-.24.047-.59.001-.315-.007-.435-.035-.565-.214-.973-.902-1.75-1.815-2.053-.412-.136-.327-.132-2.955-.132-1.887 0-2.366-.005-2.357-.025.338-.785.476-1.244.566-1.885.05-.354.05-1.157 0-1.49a7.059 7.059 0 0 0-.203-.93 5.783 5.783 0 0 0-1.39-2.35c-.266-.268-.339-.306-.6-.314-.153-.005-.21.002-.291.034Zm.347 1.976a4.34 4.34 0 0 1 .601 3.194c-.067.334-.197.685-.554 1.502-.188.43-.352.83-.365.888a.703.703 0 0 0 .058.45.698.698 0 0 0 .341.355l.132.065 3.001.011c3.164.012 3.052.008 3.278.104.344.144.625.473.723.845.049.183.042.465-.016.66-.051.172-1.973 5.737-2.089 6.047a1.186 1.186 0 0 1-.309.495 1.24 1.24 0 0 1-.387.262c-.245.101.044.096-5.49.096H7.75l-.005-4.468-.005-4.469.786-.79 3.062-3.098a224.823 224.823 0 0 1 2.293-2.305c.008 0 .06.07.115.156ZM6.25 15.5v4.25H4.589c-1.553 0-1.664-.002-1.715-.035a.417.417 0 0 1-.089-.089c-.033-.05-.035-.272-.041-4.055-.003-2.2 0-4.039.006-4.086.015-.103.09-.198.177-.223.036-.01.749-.017 1.693-.015l1.63.003v4.25Z" clip-rule="evenodd"/>
</svg>
