<svg xmlns="http://www.w3.org/2000/svg" width="24" height="24" fill="none" viewBox="0 0 24 24">
  <path fill="#161C24" fill-rule="evenodd" d="M1 11.75c0 .966.784 1.75 1.75 1.75h6.313a1.75 1.75 0 0 0 1.634-1.122l1.73-4.5A1.75 1.75 0 0 0 10.794 5.5H7.996a3.75 3.75 0 0 0-.872-3.937L6.78 1.22a.75.75 0 0 0-1.087.028L1.449 5.963A1.75 1.75 0 0 0 1 7.133v4.617Zm11.804-.628A1.75 1.75 0 0 1 14.437 10h6.313c.967 0 1.75.784 1.75 1.75v4.616c0 .433-.16.85-.449 1.171l-4.243 4.715a.75.75 0 0 1-1.088.028l-.896-.896a2.75 2.75 0 0 1-.413-3.359l.015-.025h-2.72a1.75 1.75 0 0 1-1.633-2.378l1.73-4.5Z" clip-rule="evenodd"/>
</svg>
