<svg xmlns="http://www.w3.org/2000/svg" width="24" height="24" fill="none" viewBox="0 0 24 24">
  <path fill="#161C24" fill-rule="evenodd" d="M16.69 5.277a1 1 0 0 1 .033 1.413l-5.25 5.5a1 1 0 0 1-1.446-1.38l5.25-5.5a1 1 0 0 1 1.414-.033Zm-15.348 6.97a1 1 0 0 1 1.41.095l2.78 3.176.2-.209a1 1 0 0 1 1.446 1.382l-.955 1a1 1 0 0 1-1.476-.032l-3.5-4a1 1 0 0 1 .095-1.412Z" clip-rule="evenodd"/>
  <path fill="#161C24" fill-rule="evenodd" d="M22.69 5.277a1 1 0 0 1 .033 1.413l-10.5 11a1 1 0 0 1-1.476-.032l-3.5-4a1 1 0 1 1 1.506-1.316l2.78 3.176L21.276 5.31a1 1 0 0 1 1.413-.033Z" clip-rule="evenodd"/>
</svg>
