<svg xmlns="http://www.w3.org/2000/svg" width="24" height="24" fill="none" viewBox="0 0 24 24">
  <path fill="#161C24" fill-rule="evenodd" d="M15.758 5.788c-.201.077-.004-.122-3.03 3.053-2.817 2.955-2.598 2.721-2.646 2.815a.817.817 0 0 0 .002.682.825.825 0 0 0 .351.338c.101.047.14.054.315.054.256 0 .365-.047.567-.243.077-.075 1.3-1.353 2.717-2.839 2.124-2.227 2.587-2.722 2.636-2.82.055-.109.06-.134.06-.328 0-.192-.005-.22-.058-.325a.9.9 0 0 0-.367-.36c-.12-.054-.436-.069-.547-.027Zm6.002 0a.878.878 0 0 0-.317.217 2894.1 2894.1 0 0 0-5.009 5.24 993.187 993.187 0 0 1-4.915 5.13c-.008-.003-.679-.765-1.492-1.695a110.784 110.784 0 0 0-1.557-1.758c-.125-.108-.236-.148-.44-.158-.15-.006-.2 0-.296.036a.864.864 0 0 0-.408.376c-.051.103-.056.135-.056.324 0 .19.006.221.055.32.038.078.569.698 1.796 2.1a252.903 252.903 0 0 0 1.845 2.096c.057.058.154.13.214.16.098.048.132.054.32.054.293 0 .358-.034.674-.354.133-.136 2.535-2.65 5.339-5.588 4.246-4.449 5.107-5.36 5.157-5.46.055-.109.06-.134.06-.328 0-.192-.005-.22-.058-.325a.9.9 0 0 0-.367-.36c-.119-.053-.436-.069-.545-.027ZM1.724 12.802a.903.903 0 0 0-.398.374c-.051.103-.056.135-.056.324 0 .19.006.221.055.32.038.078.569.698 1.796 2.1a253.122 253.122 0 0 0 1.845 2.096c.057.058.154.13.214.16.098.048.132.054.32.054.345 0 .347-.002 1.258-.96.386-.406.432-.488.432-.77 0-.167-.007-.205-.058-.315a.8.8 0 0 0-.354-.358c-.099-.052-.126-.057-.318-.057-.3 0-.374.04-.694.368-.154.16-.251.244-.262.232l-1.487-1.7a104.072 104.072 0 0 0-1.547-1.748c-.129-.112-.235-.149-.45-.156-.156-.005-.209.001-.296.036Z" clip-rule="evenodd"/>
</svg>
