<svg xmlns="http://www.w3.org/2000/svg" width="24" height="24" fill="none" viewBox="0 0 24 24">
  <path fill="#161C24" fill-rule="evenodd" d="M18.27 3.221c-.28.044-.561.164-.795.338-.1.075-1.294 1.376-4.528 4.936-2.416 2.66-4.41 4.853-4.43 4.874-.036.04-.055.021-1.212-1.13-1.212-1.209-1.293-1.28-1.588-1.418-.428-.2-1.006-.2-1.434 0-.29.134-.386.218-1.315 1.147-.93.93-1.013 1.026-1.147 1.315-.2.428-.2 1.006 0 1.434.146.315.13.298 2.897 3.065 2.727 2.727 2.734 2.734 3.04 2.888.41.206 1.074.206 1.484 0 .313-.158.173-.02 6.54-6.388 4.866-4.866 6.172-6.182 6.246-6.296A1.68 1.68 0 0 0 22.325 7c0-.267-.035-.45-.127-.67-.134-.325-.188-.385-1.385-1.579-.618-.615-1.177-1.158-1.243-1.207a1.692 1.692 0 0 0-.96-.334 2.392 2.392 0 0 0-.34.011Zm1.425 2.541a96.91 96.91 0 0 1 1.095 1.097c.027.034.04.08.04.146V7.1l-6.115 6.115L8.6 19.33h-.2l-2.615-2.615L3.17 14.1v-.2l.865-.865.865-.865h.199l1.475 1.471c1.698 1.692 1.573 1.59 1.926 1.59.19 0 .22-.006.32-.057a.915.915 0 0 0 .176-.116c.035-.033 2.16-2.367 4.724-5.186 2.563-2.819 4.68-5.136 4.705-5.149a.31.31 0 0 1 .13-.015c.084.007.112.033 1.14 1.054Z" clip-rule="evenodd"/>
</svg>
