<svg xmlns="http://www.w3.org/2000/svg" width="24" height="24" fill="none" viewBox="0 0 24 24">
  <path fill="#161C24" fill-rule="evenodd" d="M19.475 5.307a.942.942 0 0 0-.18.099c-.036.027-2.428 2.629-5.315 5.78l-5.25 5.73-2.03-2.025c-2.276-2.27-2.097-2.113-2.42-2.127a.68.68 0 0 0-.49.149.746.746 0 0 0-.171.982c.049.073.928.964 2.394 2.427 2.596 2.59 2.382 2.399 2.707 2.414a.686.686 0 0 0 .453-.12C9.25 18.565 20.3 6.522 20.383 6.399a.876.876 0 0 0 .088-.211.745.745 0 0 0-.193-.711c-.151-.152-.273-.203-.498-.211-.166-.006-.205-.001-.305.041Z" clip-rule="evenodd"/>
</svg>
