<svg xmlns="http://www.w3.org/2000/svg" width="24" height="24" fill="none" viewBox="0 0 24 24">
  <path fill="#161C24" fill-rule="evenodd" d="M12 1.25C6.063 1.25 1.25 6.063 1.25 12S6.063 22.75 12 22.75 22.75 17.937 22.75 12 17.937 1.25 12 1.25Zm0 17.25a6.5 6.5 0 1 0 0-13 6.5 6.5 0 0 0 0 13Z" clip-rule="evenodd"/>
  <path fill="#161C24" d="M10 12a2 2 0 1 1 4 0 2 2 0 0 1-4 0Zm2-7.5a1 1 0 0 1 1 1v3.407a3.248 3.248 0 0 0-2 0V5.5a1 1 0 0 1 1-1ZM9.822 9.588l-2.95-1.704a1 1 0 1 0-1 1.732l2.95 1.703a3.246 3.246 0 0 1 1-1.731ZM8.821 12.68l-2.95 1.704a1 1 0 0 0 1 1.732l2.951-1.704a3.247 3.247 0 0 1-1-1.731ZM11 15.093V18.5a1 1 0 1 0 2 0v-3.407a3.25 3.25 0 0 1-2 0Zm3.178-.681 2.952 1.704a1 1 0 1 0 1-1.732l-2.951-1.704a3.248 3.248 0 0 1-1 1.732Zm1.001-3.092 2.95-1.704a1 1 0 1 0-1-1.732l-2.95 1.704a3.25 3.25 0 0 1 1 1.732Z"/>
</svg>
