<svg xmlns="http://www.w3.org/2000/svg" width="24" height="24" fill="none" viewBox="0 0 24 24">
  <path fill="#161C24" fill-rule="evenodd" d="M1.25 12C1.25 6.063 6.063 1.25 12 1.25S22.75 6.063 22.75 12 17.937 22.75 12 22.75 1.25 17.937 1.25 12Zm6.22-4.53a.75.75 0 0 1 1.06 0l.793.793a1.75 1.75 0 0 1 0 2.474l-.793.793a.75.75 0 0 1-1.06-1.06l.793-.793a.25.25 0 0 0 0-.354L7.47 8.53a.75.75 0 0 1 0-1.06Zm9.06 0a.75.75 0 0 1 0 1.06l-.793.793a.25.25 0 0 0 0 .354l.793.793a.75.75 0 1 1-1.06 1.06l-.793-.793a1.75 1.75 0 0 1 0-2.474l.793-.793a.75.75 0 0 1 1.06 0Zm-.8 8.35c-.62-1.364-2.057-2.32-3.73-2.32s-3.11.956-3.73 2.32c-.25.552-.375.828-.159 1.055.217.227.598.116 1.362-.105.723-.21 1.625-.4 2.527-.4.902 0 1.804.19 2.527.4.764.221 1.145.332 1.362.105.216-.227.091-.503-.16-1.055Z" clip-rule="evenodd"/>
</svg>
