<svg xmlns="http://www.w3.org/2000/svg" width="24" height="24" fill="none" viewBox="0 0 24 24">
  <path fill="#161C24" fill-rule="evenodd" d="M2.72 3.274c-.232.039-.52.156-.72.293a1.82 1.82 0 0 0-.685.967l-.045.156v12.62l.045.156c.142.489.462.873.919 1.101.31.156.337.159 1.275.172l.838.011.072.19a2.743 2.743 0 0 0 2.136 1.769c.361.063.847.032 1.236-.079.196-.056.554-.224.733-.344a2.776 2.776 0 0 0 1.057-1.346l.072-.19h4.694l.072.19a2.743 2.743 0 0 0 2.136 1.769c.361.063.847.032 1.236-.079.196-.056.554-.224.733-.344a2.78 2.78 0 0 0 1.057-1.346l.072-.19.838-.011c.791-.011.847-.014.985-.056a1.78 1.78 0 0 0 1.209-1.217l.045-.156v-5.04l-.065-.249a3.028 3.028 0 0 0-.351-.801c-.142-.22-3.185-4.012-3.355-4.179a2.889 2.889 0 0 0-1.399-.743c-.08-.018-.609-.028-1.96-.037l-1.85-.011-.011-.79c-.011-.739-.014-.799-.056-.936a1.792 1.792 0 0 0-1.207-1.209l-.146-.045-4.78-.002a636.09 636.09 0 0 0-4.83.006Zm9.406 1.511c.029.02.069.06.089.089.033.052.035.363.035 6.215v6.161H9.653l-.072-.19a2.743 2.743 0 0 0-2.136-1.769 3.315 3.315 0 0 0-.89 0 2.94 2.94 0 0 0-1.079.423 2.776 2.776 0 0 0-1.057 1.346l-.072.19h-.709c-.779 0-.77.001-.853-.124-.033-.051-.035-.361-.041-6.055-.003-3.301 0-6.039.006-6.086.015-.103.09-.198.177-.223.038-.011 1.884-.017 4.604-.015 4.301.003 4.544.005 4.595.038Zm5.224 3.003c.066.02.167.058.225.085.258.122.283.15 1.59 1.786l1.261 1.577c.017.021-.336.024-1.918.019-2.12-.007-2.012-.001-2.281-.124a1.334 1.334 0 0 1-.542-.491c-.046-.078-1.465-2.88-1.465-2.894 0-.004.677-.005 1.505-.001 1.372.007 1.516.011 1.625.043Zm-3.288 2.974c.167.332.357.683.422.781.384.573.975.971 1.713 1.153.118.029.409.034 2.593.043l2.46.011v2.161c0 2.031-.002 2.164-.035 2.215-.083.125-.074.124-.853.124h-.709l-.072-.19a2.743 2.743 0 0 0-2.136-1.769 3.315 3.315 0 0 0-.89 0 2.94 2.94 0 0 0-1.079.423 2.776 2.776 0 0 0-1.057 1.346l-.072.19h-.597l-.005-3.545c-.003-1.95-.001-3.545.004-3.545.006 0 .146.271.313.602ZM7.29 16.783c.415.086.806.467.92.897a1.81 1.81 0 0 1 0 .64 1.277 1.277 0 0 1-.654.797 1.108 1.108 0 0 1-.556.128c-.223 0-.347-.029-.556-.128a1.277 1.277 0 0 1-.654-.797 1.81 1.81 0 0 1 0-.64c.105-.398.424-.736.82-.87.193-.065.446-.075.68-.027Zm10 0c.415.086.806.467.92.897.017.063.03.199.03.32 0 .37-.105.625-.361.881-.25.25-.526.364-.879.364-.223 0-.347-.029-.556-.128a1.277 1.277 0 0 1-.654-.797 1.52 1.52 0 0 1-.03-.32c0-.368.107-.63.358-.88.32-.317.717-.431 1.172-.337Z" clip-rule="evenodd"/>
</svg>
