<svg xmlns="http://www.w3.org/2000/svg" width="24" height="24" fill="none" viewBox="0 0 24 24">
  <path fill="#161C24" d="M14.25 3a.25.25 0 0 0-.25-.25h-4a.25.25 0 0 0-.25.25v1.518a.75.75 0 0 1-.285.587l-.081.056-4.599 2.743a.25.25 0 0 0-.104.123l-.015.053-1.812 11.325 1.142.229 2.253-6.81a.75.75 0 0 1 1.425.47l-2.462 7.441a.75.75 0 0 1-.86.5l-2.5-.5a.75.75 0 0 1-.592-.853l1.926-12.04.04-.188c.12-.432.401-.805.79-1.038L8.25 4.091V3c0-.966.784-1.75 1.75-1.75h4c.967 0 1.75.784 1.75 1.75v1.086l4.234 2.531.16.108c.357.27.6.67.67 1.118l1.926 12.039a.75.75 0 0 1-.592.853l-2.5.5a.75.75 0 0 1-.86-.5l-2.462-7.44.712-.235.712-.237 2.253 6.81 1.143-.228L19.333 8.08a.25.25 0 0 0-.075-.142l-.044-.033-4.599-2.748a.75.75 0 0 1-.365-.643V3Zm2.553 9.347a.75.75 0 0 1 .947.476l-1.424.472a.75.75 0 0 1 .477-.948Z"/>
  <path fill="#161C24" d="M6.25 20V10a.75.75 0 0 1 1.5 0v10c0 .69.56 1.25 1.25 1.25h6c.69 0 1.25-.56 1.25-1.25V10a.75.75 0 0 1 1.5 0v10A2.75 2.75 0 0 1 15 22.75H9A2.75 2.75 0 0 1 6.25 20Zm8.304-15.603a.75.75 0 1 1 .892 1.205 5.747 5.747 0 0 1-6.697.139l-.195-.139-.06-.049a.75.75 0 0 1 .889-1.199l.063.043.294.2a4.246 4.246 0 0 0 4.814-.2Z"/>
</svg>
