<svg xmlns="http://www.w3.org/2000/svg" width="24" height="24" fill="none" viewBox="0 0 24 24">
  <path fill="#161C24" fill-rule="evenodd" d="M9.75 2.5a.25.25 0 0 0-.25.25v1.517a.75.75 0 0 1-1.5 0V2.75C8 1.784 8.784 1 9.75 1h4c.966 0 1.75.784 1.75 1.75v1.512a.75.75 0 0 1-1.5 0V2.75a.25.25 0 0 0-.25-.25h-4Z" clip-rule="evenodd"/>
  <path fill="#161C24" d="M17.5 17.348v2.402a2.75 2.75 0 0 1-2.75 2.75h-6A2.75 2.75 0 0 1 6 19.75v-2.4l-1.038 3.137a.75.75 0 0 1-.859.5l-2.5-.5a.75.75 0 0 1-.593-.854l1.925-12.04a1.75 1.75 0 0 1 .832-1.226L8 3.842l1.494.515c1.147.717 2.844 1.009 4.512 0l1.494-.52 4.234 2.53c.444.266.748.714.83 1.226l1.927 12.039a.75.75 0 0 1-.594.854l-2.5.5a.75.75 0 0 1-.859-.5L17.5 17.348Z"/>
</svg>
