<svg xmlns="http://www.w3.org/2000/svg" width="24" height="24" fill="none" viewBox="0 0 24 24">
  <path fill="#161C24" fill-rule="evenodd" d="M11.744 3.797a.781.781 0 0 0-.19.105c-.134.108-6.057 5.543-6.126 5.62-.124.144-.158.245-.158.478 0 .174.008.226.044.305a.916.916 0 0 0 .361.367c.105.053.133.058.325.058.188 0 .222-.006.321-.054.085-.042.74-.632 2.887-2.6C10.736 6.676 11.992 5.53 12 5.53c.008 0 1.264 1.146 2.792 2.546 2.147 1.968 2.802 2.558 2.887 2.6.099.048.133.054.321.054.192 0 .22-.005.325-.058a.911.911 0 0 0 .36-.366c.036-.08.044-.133.044-.306.001-.192-.004-.22-.056-.322a1.18 1.18 0 0 0-.2-.254c-.079-.077-1.47-1.357-3.092-2.843-2.274-2.083-2.975-2.715-3.059-2.756a.886.886 0 0 0-.578-.028Zm-5.974 9.49a.855.855 0 0 0-.457.409c-.035.078-.043.13-.043.304 0 .19.005.22.057.322.033.066.117.172.2.254.079.077 1.47 1.357 3.092 2.843 2.283 2.092 2.975 2.715 3.06 2.757.099.048.133.054.321.054s.222-.006.321-.054c.085-.042.777-.665 3.06-2.757a705.953 705.953 0 0 0 3.092-2.843 1.18 1.18 0 0 0 .2-.254c.052-.102.057-.13.056-.322 0-.173-.008-.227-.044-.306a.911.911 0 0 0-.36-.366c-.105-.053-.133-.058-.325-.058-.188 0-.222.006-.321.054-.085.042-.74.632-2.887 2.6A384.703 384.703 0 0 1 12 18.47c-.008 0-1.264-1.146-2.792-2.546-2.138-1.96-2.802-2.558-2.886-2.6-.09-.043-.142-.053-.291-.058a.932.932 0 0 0-.261.02Z" clip-rule="evenodd"/>
</svg>
