<svg xmlns="http://www.w3.org/2000/svg" width="24" height="24" fill="none" viewBox="0 0 24 24">
  <path fill="#161C24" d="M21.25 12a9.25 9.25 0 1 0-18.5 0 9.25 9.25 0 0 0 18.5 0Zm1.5 0c0 5.937-4.813 10.75-10.75 10.75S1.25 17.937 1.25 12 6.063 1.25 12 1.25 22.75 6.063 22.75 12Z"/>
  <path fill="#161C24" d="M12 15.25c1.213 0 2.34.377 3.268 1.019l.182.131.06.05a.75.75 0 0 1-.897 1.193l-.063-.043-.275-.19A4.226 4.226 0 0 0 12 16.75c-.958 0-1.84.316-2.55.85a.75.75 0 0 1-.9-1.2A5.727 5.727 0 0 1 12 15.25ZM7.222 7.251c.166-.002.397.002.658.028.494.051 1.219.194 1.782.642l.143.12c.321.284.57.608.75.881l.09.162c.177.385.121.808-.103 1.129a1.292 1.292 0 0 1-1.065.537c-.782 0-1.544-.728-1.26-1.633l.074-.236a2.962 2.962 0 0 0-.564-.11 4.21 4.21 0 0 0-.622-.016c-.016 0-.027.002-.034.003h-.003l-.077.003a.75.75 0 0 1-.058-1.497h.004l.006-.001.018-.001.059-.004a4.17 4.17 0 0 1 .202-.007Zm7 0c.166-.002.397.002.658.028.494.051 1.219.194 1.782.642l.143.12c.321.284.57.608.75.881l.09.162c.177.385.121.808-.103 1.129a1.292 1.292 0 0 1-1.065.537c-.783 0-1.544-.728-1.26-1.633l.074-.236a2.962 2.962 0 0 0-.564-.11 4.21 4.21 0 0 0-.622-.016c-.016 0-.027.002-.034.003h-.003l-.077.003a.75.75 0 0 1-.058-1.497h.004l.006-.001.018-.001.059-.004a4.17 4.17 0 0 1 .202-.007Z"/>
</svg>
