<svg xmlns="http://www.w3.org/2000/svg" width="24" height="24" fill="none" viewBox="0 0 24 24">
  <path fill="#161C24" fill-rule="evenodd" d="M1.251 20.5c0-3.962 3.037-7.25 6.875-7.25h1.75c3.839 0 6.875 3.288 6.875 7.25a.75.75 0 0 1-.75.75h-14a.75.75 0 0 1-.75-.75Z" clip-rule="evenodd"/>
  <path fill="#161C24" d="M18.12 21.25H22a.75.75 0 0 0 .75-.75c0-3.962-3.037-7.25-6.875-7.25h-1.302c2.245 1.596 3.677 4.294 3.677 7.25 0 .263-.045.515-.128.75Z"/>
  <path fill="#161C24" fill-rule="evenodd" d="M4.751 7a4.25 4.25 0 1 1 8.5 0 4.25 4.25 0 0 1-8.5 0Z" clip-rule="evenodd"/>
  <path fill="#161C24" d="M13.252 10.874a4.25 4.25 0 1 0 0-7.748A5.73 5.73 0 0 1 14.752 7a5.73 5.73 0 0 1-1.5 3.874Z"/>
</svg>
