<svg xmlns="http://www.w3.org/2000/svg" width="24" height="24" fill="none" viewBox="0 0 24 24">
  <path fill="#161C24" fill-rule="evenodd" d="M12 3a9 9 0 1 0 0 18 9 9 0 0 0 0-18ZM1 12C1 5.925 5.925 1 12 1s11 4.925 11 11-4.925 11-11 11S1 18.075 1 12Z" clip-rule="evenodd"/>
  <path fill="#161C24" fill-rule="evenodd" d="M5.409 17.647a5.75 5.75 0 0 1 4.992-2.897h3.197a5.75 5.75 0 0 1 4.992 2.897l.003.005.78 1.388a.75.75 0 0 1-.15.922A10.714 10.714 0 0 1 12 22.75c-2.78 0-5.315-1.056-7.223-2.788a.75.75 0 0 1-.15-.922l.782-1.393Z" clip-rule="evenodd"/>
  <path fill="#161C24" d="M8.5 10a3.5 3.5 0 1 1 7 0 3.5 3.5 0 0 1-7 0Z"/>
</svg>
