<svg xmlns="http://www.w3.org/2000/svg" width="24" height="24" fill="none" viewBox="0 0 24 24">
  <path fill="#161C24" fill-rule="evenodd" d="M11.19 1.282a10.795 10.795 0 0 0-3.625.926 10.813 10.813 0 0 0-5.357 5.357A10.52 10.52 0 0 0 1.26 12c0 1.575.305 3.001.948 4.435a10.821 10.821 0 0 0 5.357 5.357c1.43.642 2.86.947 4.435.947 1.574 0 3.004-.305 4.435-.947a10.829 10.829 0 0 0 5.357-5.357c.642-1.431.947-2.861.947-4.435 0-1.574-.305-3.004-.947-4.435a10.821 10.821 0 0 0-5.357-5.357 10.47 10.47 0 0 0-4.475-.945c-.313.001-.66.01-.77.019Zm1.18 1.478a9.027 9.027 0 0 1 3.646.911 8.851 8.851 0 0 1 2.577 1.851 8.758 8.758 0 0 1 1.736 2.462 9.13 9.13 0 0 1 .909 4.419 8.994 8.994 0 0 1-.916 3.627c-.371.765-.85 1.492-1.336 2.029l-.1.108-.175-.308c-.463-.81-.895-1.341-1.463-1.799-.922-.742-1.937-1.163-3.088-1.28-.25-.025-4.07-.025-4.32 0-.961.098-1.807.4-2.614.933-.811.534-1.366 1.148-1.926 2.128l-.187.327-.1-.109c-.72-.797-1.38-1.942-1.766-3.069a8.96 8.96 0 0 1-.485-2.587 9.13 9.13 0 0 1 .909-4.419 8.838 8.838 0 0 1 1.85-2.577 8.758 8.758 0 0 1 2.463-1.736 9.075 9.075 0 0 1 3.585-.91c.188-.008.346-.016.35-.018.006-.001.209.006.45.017Zm-.86 3.522A3.783 3.783 0 0 0 8.795 8.06a4.1 4.1 0 0 0-.443 1.07 4.29 4.29 0 0 0-.061 1.407c.23 1.564 1.4 2.802 2.968 3.138.234.05.285.054.74.054.457 0 .508-.004.742-.054a3.77 3.77 0 0 0 2.934-2.934c.05-.234.054-.285.054-.741s-.004-.507-.054-.741c-.336-1.567-1.574-2.738-3.138-2.968a5.52 5.52 0 0 0-1.027-.009Zm.86 1.502a2.249 2.249 0 0 1 1.644 3.211 2.247 2.247 0 1 1-1.644-3.211Zm1.49 8.476c.16.011.344.029.41.041a4.284 4.284 0 0 1 2.673 1.579c.174.225.262.364.568.898l.256.449-.068.058c-.12.101-.521.385-.75.529a9.395 9.395 0 0 1-2.886 1.205 9.508 9.508 0 0 1-4.126 0 9.395 9.395 0 0 1-2.887-1.205 10.228 10.228 0 0 1-.75-.529l-.067-.058.256-.449c.306-.534.394-.673.568-.898a4.25 4.25 0 0 1 3.049-1.619c.338-.023 3.422-.023 3.754-.001Z" clip-rule="evenodd"/>
</svg>
