<svg xmlns="http://www.w3.org/2000/svg" width="24" height="24" fill="none" viewBox="0 0 24 24">
  <path fill="#161C24" fill-rule="evenodd" d="M5.25 6a4.75 4.75 0 1 1 9.5 0 4.75 4.75 0 0 1-9.5 0Zm17.39 7.232a1 1 0 0 1 .128 1.408l-5 6a1 1 0 0 1-1.475.067l-2.5-2.5a1 1 0 0 1 1.414-1.414l1.726 1.726 4.299-5.16a1 1 0 0 1 1.408-.127Z" clip-rule="evenodd"/>
  <path fill="#161C24" d="m17.395 15.62-.563.677-.564-.565a2.5 2.5 0 1 0-3.536 3.536l1.482 1.482H2a.75.75 0 0 1-.75-.75A7.75 7.75 0 0 1 9 12.25h2a7.742 7.742 0 0 1 6.395 3.37Z"/>
</svg>
