<svg xmlns="http://www.w3.org/2000/svg" width="24" height="24" fill="none" viewBox="0 0 24 24">
  <path fill="#161C24" fill-rule="evenodd" d="M4.04 1.792a3.001 3.001 0 0 0-1.064.422A2.767 2.767 0 0 0 1.79 4.055c-.026.155-.03 1.054-.03 7.945 0 8.486-.008 7.878.11 8.295.057.194.224.55.347.735a2.777 2.777 0 0 0 1.838 1.179c.155.027 1.053.031 7.935.031 8.448 0 7.89.007 8.3-.11a3.42 3.42 0 0 0 .74-.347 2.777 2.777 0 0 0 1.179-1.838c.027-.155.03-1.054.03-7.945 0-8.486.009-7.878-.11-8.295a3.402 3.402 0 0 0-.343-.729 2.767 2.767 0 0 0-1.841-1.185c-.155-.027-1.05-.031-7.965-.029-6.486.002-7.815.007-7.94.03Zm15.78 1.493c.357.111.652.354.797.659a2 2 0 0 1 .106.276c.04.164.04 15.396 0 15.56a1.3 1.3 0 0 1-.943.943c-.164.04-15.396.04-15.56 0a1.3 1.3 0 0 1-.943-.943c-.04-.164-.04-15.396 0-15.56a1.275 1.275 0 0 1 1.063-.959c.072-.009 3.559-.015 7.75-.013 7.123.002 7.627.005 7.73.037Zm-8.28 2.997c-.772.135-1.341.421-1.85.929a3.239 3.239 0 0 0-.908 2.799c.17 1.149 1.009 2.154 2.128 2.55.692.245 1.529.242 2.195-.009a3.245 3.245 0 0 0 2.106-2.629 3.248 3.248 0 0 0-2.181-3.498c-.34-.116-.54-.148-.98-.155a4.55 4.55 0 0 0-.51.013Zm.787 1.501c.62.104 1.173.612 1.357 1.249.039.134.046.205.046.468s-.007.334-.046.468a1.842 1.842 0 0 1-.827 1.058c-.341.202-.887.276-1.28.174a1.77 1.77 0 0 1-1.32-1.441 2.294 2.294 0 0 1 .034-.709c.086-.323.326-.688.598-.906.194-.157.324-.229.544-.303.28-.094.569-.112.894-.058Zm-.897 6.618c-1.312.121-2.511.552-3.53 1.271-.458.322-.978.808-1.073 1.002-.052.105-.057.135-.057.326 0 .192.005.22.058.325.07.137.223.288.362.356.087.043.128.049.31.049.192 0 .22-.005.325-.058a2.19 2.19 0 0 0 .377-.306 4.755 4.755 0 0 1 1.288-.896 5.705 5.705 0 0 1 1.83-.553c.295-.042 1.229-.036 1.52.009.855.133 1.57.4 2.21.824.284.188.48.348.79.643.323.308.38.337.66.337.174 0 .226-.008.305-.044a.916.916 0 0 0 .367-.361c.053-.105.058-.133.058-.325 0-.296-.04-.374-.358-.69a6.04 6.04 0 0 0-1.702-1.21 6.863 6.863 0 0 0-2.23-.671 11.714 11.714 0 0 0-1.51-.028Z" clip-rule="evenodd"/>
</svg>
