<svg xmlns="http://www.w3.org/2000/svg" width="24" height="24" fill="none" viewBox="0 0 24 24">
  <path fill="#161C24" fill-rule="evenodd" d="M18.5 13a1 1 0 0 1 1 1v2.5H22a1 1 0 1 1 0 2h-2.5V21a1 1 0 1 1-2 0v-2.5H15a1 1 0 1 1 0-2h2.5V14a1 1 0 0 1 1-1ZM5.25 7a4.75 4.75 0 1 1 9.5 0 4.75 4.75 0 0 1-9.5 0Z" clip-rule="evenodd"/>
  <path fill="#161C24" d="M15.906 15A7.718 7.718 0 0 0 11 13.25H9A7.75 7.75 0 0 0 1.25 21c0 .414.336.75.75.75h14.114A2.498 2.498 0 0 1 16 21v-1h-1a2.5 2.5 0 0 1 0-5h.906Z"/>
</svg>
