<svg xmlns="http://www.w3.org/2000/svg" width="24" height="24" fill="none" viewBox="0 0 24 24">
  <path fill="#161C24" d="M11.085 3.01a1.25 1.25 0 0 1 1.933.124h.001l1.802 2.525 2.612-.583.166-.027a1.252 1.252 0 0 1 1.353 1.354l-.026.166-.585 2.61 2.525 1.804.123.1a1.25 1.25 0 0 1 0 1.835l-.123.1-2.525 1.803.585 2.61.026.165c.07.77-.583 1.423-1.353 1.354l-.166-.026-2.612-.584-1.802 2.526a1.25 1.25 0 0 1-1.934.123l-.1-.122L9.18 18.34l-2.608.584a1.25 1.25 0 0 1-1.493-1.492l.582-2.611-2.526-1.804a1.25 1.25 0 0 1 0-2.034L5.66 9.177l-.582-2.609a1.25 1.25 0 0 1 1.326-1.519l.167.027 2.607.583 1.807-2.526.1-.123Zm-.975 3.926a.751.751 0 0 1-.774.296l-2.71-.606.606 2.71a.75.75 0 0 1-.296.774L4.29 12l2.646 1.89a.75.75 0 0 1 .296.773l-.605 2.71 2.709-.605.111-.016a.75.75 0 0 1 .663.311l1.892 2.647 1.887-2.646.072-.086a.75.75 0 0 1 .703-.21l2.71.605-.605-2.71a.75.75 0 0 1 .295-.774L19.71 12l-2.645-1.889a.75.75 0 0 1-.296-.774l.607-2.71-2.711.606a.751.751 0 0 1-.774-.297L12 4.29l-1.89 2.646Z"/>
</svg>
