<svg xmlns="http://www.w3.org/2000/svg" width="24" height="24" fill="none" viewBox="0 0 24 24">
  <path fill="#161C24" fill-rule="evenodd" d="m22.381 12.155-.006.008c-.145.209-.56.805-.817 1.139a23.263 23.263 0 0 1-2.216 2.487c-1.845 1.785-4.528 3.711-7.592 3.711s-5.747-1.926-7.592-3.71a23.27 23.27 0 0 1-2.216-2.488 35.698 35.698 0 0 1-.817-1.138l-.007-.01a.75.75 0 0 1 0-.808l.007-.01c.145-.209.56-.804.817-1.138a23.272 23.272 0 0 1 2.216-2.487C6.003 5.926 8.686 4 11.75 4s5.747 1.926 7.592 3.71a23.455 23.455 0 0 1 2.216 2.488c.258.334.672.93.817 1.139l.007.009a.75.75 0 0 1 0 .809ZM11.75 15.5a3.75 3.75 0 1 1 0-7.5 3.75 3.75 0 0 1 0 7.5Z" clip-rule="evenodd"/>
</svg>
