<svg xmlns="http://www.w3.org/2000/svg" width="24" height="24" fill="none" viewBox="0 0 24 24">
  <path fill="#161C24" fill-rule="evenodd" d="M13.77 3.287a.67.67 0 0 0-.13.057l-3.463 2.224L6.765 7.76H5.247c-1.64 0-1.657.001-2.042.111a3.402 3.402 0 0 0-.73.343 2.767 2.767 0 0 0-1.184 1.841c-.026.148-.031.444-.031 1.945 0 1.916 0 1.904.11 2.295.057.194.224.55.347.735a2.777 2.777 0 0 0 1.838 1.179c.147.026.419.031 1.692.031h1.518l3.409 2.192a440.693 440.693 0 0 0 3.512 2.245c.092.048.124.053.313.053.193 0 .22-.005.325-.058a.807.807 0 0 0 .348-.348l.058-.114V3.79l-.05-.1a.898.898 0 0 0-.353-.361c-.097-.049-.142-.058-.296-.063a.932.932 0 0 0-.261.021ZM13.26 12c0 3.641-.005 6.62-.011 6.62-.007 0-1.32-.842-2.92-1.87a278.729 278.729 0 0 0-3.013-1.925l-.106-.055-1.71-.011c-1.897-.013-1.782-.005-2.077-.151a1.28 1.28 0 0 1-.54-.552c-.138-.291-.133-.208-.133-2.056 0-1.85-.006-1.765.134-2.058.107-.225.319-.442.536-.549.299-.147.182-.139 2.08-.152l1.71-.011.09-.045c.05-.025 1.404-.891 3.01-1.924a476.087 476.087 0 0 1 2.935-1.88c.008-.001.015 2.978.015 6.619Zm6.464-5.698a.893.893 0 0 0-.395.371c-.054.108-.06.134-.06.327 0 .19.006.221.056.32.03.06.14.209.246.33.428.495.713.924.999 1.5.409.826.62 1.624.669 2.522a6.298 6.298 0 0 1-.67 3.178 6.647 6.647 0 0 1-.998 1.5c-.105.121-.215.27-.246.33-.05.099-.055.131-.055.32 0 .192.005.22.058.325.07.138.235.3.367.361.079.036.13.044.305.044.193 0 .219-.005.327-.059.138-.07.323-.259.627-.64a8.109 8.109 0 0 0 1.766-4.382 10.898 10.898 0 0 0 0-1.298c-.131-1.581-.742-3.096-1.771-4.388-.297-.373-.484-.564-.622-.634-.1-.05-.142-.059-.306-.064-.156-.004-.211.003-.297.037Zm-2.958 1.986a.7.7 0 0 0-.314.212.634.634 0 0 0-.187.452c-.014.231.017.315.24.651.51.763.739 1.507.739 2.397 0 .89-.23 1.634-.738 2.397-.223.335-.255.419-.242.651a.662.662 0 0 0 .226.49c.168.159.257.192.51.191.24 0 .337-.033.482-.163.27-.243.706-.999.924-1.606A5.528 5.528 0 0 0 18.74 12a5.584 5.584 0 0 0-.797-2.936c-.26-.438-.454-.666-.64-.748a1.041 1.041 0 0 0-.537-.028Z" clip-rule="evenodd"/>
</svg>
