<svg xmlns="http://www.w3.org/2000/svg" width="24" height="24" fill="none" viewBox="0 0 24 24">
  <path fill="#161C24" fill-rule="evenodd" d="M14.373 3.35a.75.75 0 0 1 .377.65v6a.75.75 0 0 1-1.286.525L9.73 6.712a.75.75 0 0 1 .156-1.172l3.736-2.187a.75.75 0 0 1 .752-.004Zm-7 4.02a.75.75 0 0 1 .935.1l6.222 6.222c.141.14.22.331.22.53V20a.75.75 0 0 1-1.156.63L6.78 16.25H4a2.75 2.75 0 0 1-2.75-2.75v-3A2.75 2.75 0 0 1 4 7.75h2.78l.592-.38Zm9.02.835a1 1 0 0 1 1.402.188A5.934 5.934 0 0 1 19 12c0 .853-.177 1.666-.496 2.4a1 1 0 1 1-1.834-.8A3.99 3.99 0 0 0 17 12c0-.915-.3-1.746-.795-2.393a1 1 0 0 1 .189-1.402Zm2.932-1.943a1 1 0 0 1 1.413.063C22.14 7.857 23 9.832 23 12a8.228 8.228 0 0 1-1.384 4.55 1 1 0 1 1-1.67-1.1A6.229 6.229 0 0 0 21 12c0-1.621-.64-3.125-1.738-4.325a1 1 0 0 1 .063-1.413Z" clip-rule="evenodd"/>
  <path fill="#161C24" fill-rule="evenodd" d="M1.293 1.293a1 1 0 0 1 1.414 0l20 20a1 1 0 0 1-1.414 1.414l-20-20a1 1 0 0 1 0-1.414Z" clip-rule="evenodd"/>
</svg>
