<svg xmlns="http://www.w3.org/2000/svg" width="24" height="24" fill="none" viewBox="0 0 24 24">
  <path fill="#161C24" d="M21.25 12a9.25 9.25 0 0 0-18.5 0c0 2.152.734 4.132 1.967 5.703l.253.31.047.06a.75.75 0 0 1-1.133.97l-.053-.056-.294-.358A10.707 10.707 0 0 1 1.25 12C1.25 6.063 6.063 1.25 12 1.25S22.75 6.063 22.75 12a10.71 10.71 0 0 1-2.581 6.987.749.749 0 1 1-1.139-.974A9.212 9.212 0 0 0 21.25 12Z"/>
  <path fill="#161C24" d="M7.47 7.47a.75.75 0 0 1 1.004-.052l.056.052.793.793.12.133a1.75 1.75 0 0 1 0 2.209l-.12.132-.793.793a.75.75 0 1 1-1.06-1.06l.793-.793.032-.04a.25.25 0 0 0 0-.275l-.032-.039-.793-.793-.052-.056A.75.75 0 0 1 7.47 7.47Zm8 0a.75.75 0 0 1 1.112 1.004l-.052.056-.793.793a.25.25 0 0 0 0 .354l.793.793.052.056a.75.75 0 0 1-1.056 1.056l-.056-.052-.793-.793a1.75 1.75 0 0 1 0-2.474l.793-.793ZM12 14.25c2.732 0 5.04 1.843 5.678 4.352l.056.246.012.076a.75.75 0 0 1-1.46.303l-.02-.075-.041-.18c-.468-1.84-2.175-3.222-4.225-3.222s-3.756 1.38-4.224 3.223l-.042.18a.75.75 0 0 1-1.468-.305l.056-.245C6.96 16.093 9.268 14.25 12 14.25Z"/>
  <path fill="#161C24" d="M11.25 21v-2a.75.75 0 0 1 1.5 0v2a.75.75 0 0 1-1.5 0Zm-3.534-4.5a.75.75 0 0 1 1.5 0c0 .893.099 2.088-.044 3.123-.144 1.035-.538 2.069-1.54 2.845l-.21.151a.75.75 0 1 1-.845-1.238l.127-.092c.61-.469.874-1.092.982-1.872.125-.901.03-1.822.03-2.917Zm7.068 0a.75.75 0 0 1 1.5 0c0 1.09-.095 2.013.03 2.915.11.782.374 1.406.982 1.874l.127.092.06.046a.75.75 0 0 1-.84 1.232l-.066-.04-.208-.151c-1.002-.776-1.397-1.812-1.54-2.847-.145-1.036-.045-2.23-.045-3.121Z"/>
</svg>
