<svg xmlns="http://www.w3.org/2000/svg" width="24" height="24" fill="none" viewBox="0 0 24 24">
  <path fill="#161C24" fill-rule="evenodd" d="M3.54 2.292a3.001 3.001 0 0 0-1.064.422A2.767 2.767 0 0 0 1.29 4.555c-.026.155-.03 1.004-.03 7.445 0 7.938-.008 7.378.11 7.795.057.194.224.55.347.735a2.777 2.777 0 0 0 1.838 1.179c.155.027 1.104.031 8.435.031 8.994 0 8.39.007 8.8-.11a3.42 3.42 0 0 0 .74-.347 2.777 2.777 0 0 0 1.179-1.838c.027-.154.03-.8.03-5.445 0-5.747.008-5.382-.11-5.795a3.402 3.402 0 0 0-.343-.729c-.396-.592-.997-.999-1.726-1.168-.124-.029-.293-.037-.98-.046l-.83-.012-.012-.83c-.01-.687-.017-.856-.046-.98a2.825 2.825 0 0 0-.63-1.252 2.762 2.762 0 0 0-1.617-.897c-.155-.027-.898-.031-6.465-.029-5.22.002-6.315.007-6.44.03Zm12.78 1.493c.357.11.652.354.797.659.129.271.133.303.133 1.096v.71l-3.73.01-3.73.01-.1.049a.899.899 0 0 0-.362.356c-.053.105-.058.133-.058.325s.005.22.058.325c.07.137.223.288.362.356l.1.049 5.21.011c4.825.009 5.218.013 5.32.044.356.11.652.354.797.659.144.302.133-.151.133 5.556 0 4.277-.005 5.189-.027 5.28a1.3 1.3 0 0 1-.943.943c-.164.04-16.396.04-16.56 0a1.3 1.3 0 0 1-.943-.943c-.04-.164-.04-14.396 0-14.56a1.275 1.275 0 0 1 1.063-.959c.07-.009 2.884-.015 6.25-.013 5.704.003 6.127.005 6.23.037Zm.818 7.994c-.318.058-.732.231-.958.4a2.936 2.936 0 0 0-.484.481 2.71 2.71 0 0 0-.37.77c-.052.185-.056.227-.056.57 0 .343.004.385.056.57.067.244.236.595.37.77.118.155.332.367.484.481.164.122.523.292.75.353.183.049.23.054.57.054.338 0 .387-.005.567-.053.228-.062.547-.211.732-.341a2.69 2.69 0 0 0 .543-.549c.137-.198.269-.484.333-.719.048-.179.053-.228.053-.566 0-.339-.005-.387-.054-.57a2.68 2.68 0 0 0-.37-.77 2.936 2.936 0 0 0-.484-.481 2.795 2.795 0 0 0-.74-.35c-.162-.045-.24-.054-.52-.06a3.494 3.494 0 0 0-.422.01Zm.582 1.505a.753.753 0 0 1 .518.607.746.746 0 0 1-1.476.218.75.75 0 0 1 .958-.825Z" clip-rule="evenodd"/>
</svg>
