<svg xmlns="http://www.w3.org/2000/svg" width="24" height="24" fill="none" viewBox="0 0 24 24">
  <path fill="#161C24" fill-rule="evenodd" d="M1.758 1.288a.856.856 0 0 0-.44.402c-.042.087-.048.127-.048.31 0 .302.033.361.435.772.28.286.312.326.283.35-.076.063-.332.434-.426.616a3.48 3.48 0 0 0-.171.405C1.25 4.565 1.26 3.947 1.26 12c0 7.938-.008 7.378.11 7.795.057.194.224.55.347.735a2.777 2.777 0 0 0 1.838 1.179c.155.027 1.105.031 8.445.031 7.237 0 8.29-.004 8.439-.03l.17-.03.48.476c.575.569.584.574.89.574.185 0 .225-.006.32-.052a.85.85 0 0 0 .35-.338.771.771 0 0 0-.084-.81 6584.68 6584.68 0 0 0-10.087-10.102C3.875 2.822 2.422 1.378 2.324 1.328c-.1-.05-.14-.059-.304-.062a.843.843 0 0 0-.262.022Zm4.959 1.019a.739.739 0 0 0-.454.813.756.756 0 0 0 .417.558l.11.052 4.71.011c4.354.009 4.718.013 4.82.044.356.11.652.354.797.659.129.271.133.303.133 1.096v.71l-3.23.01-3.23.01-.11.052a.79.79 0 0 0-.365.372.548.548 0 0 0-.062.306c0 .153.008.19.062.306a.79.79 0 0 0 .365.372l.11.052 4.71.011c4.354.009 4.718.013 4.82.044.44.136.759.455.895.895.03.102.035.468.044 4.82l.01 4.71.059.115c.07.137.223.288.362.356.087.043.128.049.31.049.192 0 .22-.005.325-.058a.899.899 0 0 0 .356-.362l.049-.1.006-4.73c.006-5.164.012-4.858-.107-5.273a3.394 3.394 0 0 0-.343-.731c-.396-.592-.997-.999-1.726-1.168-.124-.029-.293-.037-.98-.046l-.83-.012-.012-.83c-.01-.687-.017-.856-.046-.98a2.825 2.825 0 0 0-.63-1.252 2.762 2.762 0 0 0-1.617-.897c-.154-.027-.743-.031-4.895-.03H6.83l-.113.046Zm4.408 9.888a3119.64 3119.64 0 0 1 8.035 8.05c0 .009-3.458.013-7.685.01-7.18-.005-7.692-.008-7.795-.04a1.32 1.32 0 0 1-.895-.895c-.032-.103-.035-.583-.041-7.18-.004-4.878 0-7.127.015-7.255.012-.102.044-.245.07-.317.048-.126.219-.408.248-.408.007 0 3.629 3.616 8.048 8.035Zm5.72-.905a2.246 2.246 0 0 0-.602.203c-.218.105-.331.208-.415.378-.053.108-.058.138-.058.329 0 .201.003.215.068.335a.73.73 0 0 0 .633.401c.152.008.173.004.364-.073.25-.101.397-.127.576-.101.476.067.83.506.833 1.031 0 .15-.01.22-.064.397-.055.181-.064.236-.056.358a.726.726 0 0 0 .413.617c.122.06.147.065.333.065.179 0 .212-.006.314-.056.223-.109.342-.267.442-.584a2.779 2.779 0 0 0 .002-1.573 2.578 2.578 0 0 0-1.284-1.515 2.622 2.622 0 0 0-.652-.211 3.238 3.238 0 0 0-.846-.001Z" clip-rule="evenodd"/>
</svg>
