<svg xmlns="http://www.w3.org/2000/svg" width="24" height="24" fill="none" viewBox="0 0 24 24">
  <path fill="#161C24" fill-rule="evenodd" d="M5.5 13a1 1 0 0 1 1 1v2.5H9a1 1 0 1 1 0 2H6.5V21a1 1 0 1 1-2 0v-2.5H2a1 1 0 1 1 0-2h2.5V14a1 1 0 0 1 1-1Z" clip-rule="evenodd"/>
  <path fill="#161C24" fill-rule="evenodd" d="M19 6V5a3 3 0 0 0-3-3H4a3 3 0 0 0-3 3v10.208A2.491 2.491 0 0 1 2 15h1v-1a2.5 2.5 0 0 1 5 0v1h1a2.5 2.5 0 0 1 0 5H8v1c0 .356-.074.694-.208 1H20a3 3 0 0 0 3-3V9a3 3 0 0 0-3-3h-1ZM4 4a1 1 0 0 0-1 1v1h14V5a1 1 0 0 0-1-1H4Zm13.5 8a2 2 0 1 1 0 4 2 2 0 0 1 0-4Z" clip-rule="evenodd"/>
</svg>
