<svg xmlns="http://www.w3.org/2000/svg" width="24" height="24" fill="none" viewBox="0 0 24 24">
  <path fill="#161C24" fill-rule="evenodd" d="M12 12c1.698 0 3.477.563 4.707 1.793a1 1 0 0 1-1.414 1.414C14.523 14.437 13.302 14 12 14s-2.523.437-3.293 1.207a1 1 0 0 1-1.414-1.414C8.523 12.563 10.302 12 12 12Z" clip-rule="evenodd"/>
  <path fill="#161C24" fill-rule="evenodd" d="M4.86 10.732c4.36-3.633 10.146-3.659 14.303.019a1 1 0 1 1-1.326 1.498c-3.378-2.989-8.056-3.015-11.697.02a1 1 0 1 1-1.28-1.537Z" clip-rule="evenodd"/>
  <path fill="#161C24" fill-rule="evenodd" d="M12 3.5c3.695 0 7.338 1.443 10.645 4.236a1 1 0 0 1-1.29 1.528C18.346 6.724 15.147 5.5 12 5.5c-3.147 0-6.346 1.223-9.355 3.764a1 1 0 0 1-1.29-1.528C4.662 4.943 8.305 3.5 12 3.5ZM9.75 18a2.25 2.25 0 1 1 4.5 0 2.25 2.25 0 0 1-4.5 0Z" clip-rule="evenodd"/>
</svg>
