<svg xmlns="http://www.w3.org/2000/svg" width="24" height="24" fill="none" viewBox="0 0 24 24">
  <path fill="#161C24" fill-rule="evenodd" d="M10.97 3.792c-3.234.259-6.296 1.56-9.15 3.889-.503.41-.549.479-.549.819 0 .17.008.227.042.301a.93.93 0 0 0 .363.373c.101.049.136.056.314.056.144 0 .226-.01.291-.035.051-.02.208-.13.35-.245.413-.335.955-.747 1.279-.973 2.32-1.613 4.746-2.518 7.237-2.697.687-.05 1.644-.024 2.343.062 1.58.195 3.03.646 4.56 1.417 1.157.584 2.125 1.223 3.319 2.19.142.116.299.226.35.246a.812.812 0 0 0 .291.035c.178 0 .213-.007.314-.056a.93.93 0 0 0 .363-.373c.034-.074.042-.13.042-.301 0-.34-.046-.408-.549-.819-2.636-2.153-5.554-3.469-8.47-3.82a15.387 15.387 0 0 0-2.74-.07Zm.52 4.98c-.403.038-.56.057-.818.1-1.517.248-3 .905-4.367 1.936-.461.348-.733.582-1.176 1.014-.32.312-.359.386-.359.678 0 .192.005.22.058.325.07.137.223.288.362.356.087.043.128.049.31.049.291 0 .356-.035.737-.397 1.791-1.7 3.777-2.576 5.843-2.578 1.169-.002 2.179.245 3.32.812l.41.203H16c.175-.001.2-.006.325-.068a.776.776 0 0 0 .349-.345c.051-.098.056-.125.056-.317 0-.198-.004-.219-.066-.344-.091-.186-.189-.264-.58-.462a8.782 8.782 0 0 0-3.004-.925c-.236-.03-1.385-.057-1.59-.037Zm3.268 4.016a.856.856 0 0 0-.439.402c-.043.087-.049.127-.049.31 0 .35-.079.252 1.388 1.725l1.271 1.275-1.271 1.275c-1.467 1.473-1.388 1.375-1.388 1.725 0 .192.005.22.058.325.07.137.223.288.362.356.087.043.128.049.31.049.35 0 .252.079 1.725-1.388L18 17.571l1.275 1.271C20.748 20.309 20.65 20.23 21 20.23c.182 0 .223-.006.31-.049a.899.899 0 0 0 .362-.356c.053-.105.058-.133.058-.325 0-.35.079-.252-1.388-1.725L19.071 16.5l1.271-1.275c1.467-1.473 1.388-1.375 1.388-1.725 0-.192-.005-.22-.058-.325a.899.899 0 0 0-.362-.356c-.087-.043-.128-.049-.31-.049-.35 0-.252-.079-1.725 1.388L18 15.429l-1.275-1.271c-1.457-1.451-1.374-1.383-1.704-1.392a.785.785 0 0 0-.263.022Zm-3.603 1.002a5.678 5.678 0 0 0-2.185.865c-.495.322-1.031.801-1.142 1.02-.053.105-.058.133-.058.325 0 .182.006.223.049.31a.899.899 0 0 0 .356.362c.105.053.133.058.325.058.193 0 .219-.005.327-.059a1.7 1.7 0 0 0 .29-.221 4.609 4.609 0 0 1 1.458-.949c.291-.115.513-.176.848-.232a2.5 2.5 0 0 0 .386-.089.878.878 0 0 0 .363-.355c.053-.105.058-.133.058-.325 0-.189-.006-.221-.055-.322a.91.91 0 0 0-.37-.363c-.121-.054-.402-.065-.65-.025Z" clip-rule="evenodd"/>
</svg>
