<svg xmlns="http://www.w3.org/2000/svg" width="25" height="24" fill="none" viewBox="0 0 25 24">
  <path fill="#161C24" fill-rule="evenodd" d="M8.465 13.788c1.32-1.3 2.946-1.924 4.79-1.763a1 1 0 1 1-.175 1.992c-1.229-.107-2.287.284-3.21 1.195a1 1 0 0 1-1.405-1.424Zm4.714-4.94a1 1 0 0 1 1.14-.836c2.014.31 3.908 1.32 5.51 2.739a1 1 0 1 1-1.325 1.498c-1.382-1.223-2.933-2.022-4.489-2.26a1 1 0 0 1-.836-1.14Zm-2.565.332a1 1 0 0 1-.627 1.268c-1.094.37-2.172.98-3.18 1.82a1 1 0 1 1-1.28-1.536c1.178-.982 2.47-1.723 3.82-2.18a1 1 0 0 1 1.267.628ZM9.98 3.756c4.579-.875 9.212.501 13.332 3.98a1 1 0 0 1-1.29 1.528c-3.737-3.155-7.774-4.287-11.667-3.543a1 1 0 1 1-.375-1.965ZM7.061 5.553a1 1 0 0 1-.447 1.341c-.885.443-2.083 1.34-3.302 2.37a1 1 0 1 1-1.29-1.528c1.23-1.038 2.583-2.073 3.698-2.63a1 1 0 0 1 1.341.447Z" clip-rule="evenodd"/>
  <path fill="#161C24" fill-rule="evenodd" d="M1.96 1.293a1 1 0 0 1 1.414 0l20 20a1 1 0 0 1-1.414 1.414l-20-20a1 1 0 0 1 0-1.414Z" clip-rule="evenodd"/>
  <path fill="#161C24" d="M12.667 16a2 2 0 1 0 0 4 2 2 0 0 0 0-4Z"/>
</svg>
