<svg xmlns="http://www.w3.org/2000/svg" width="24" height="24" fill="none" viewBox="0 0 24 24">
  <path fill="#161C24" fill-rule="evenodd" d="M10.97 3.792c-3.234.259-6.296 1.56-9.15 3.889-.503.41-.549.479-.549.819 0 .17.008.227.042.301a.93.93 0 0 0 .363.373c.101.049.136.056.314.056.144 0 .226-.01.291-.035.051-.02.208-.13.35-.245.413-.335.955-.747 1.279-.973 2.32-1.613 4.746-2.518 7.237-2.697.687-.05 1.644-.024 2.343.062 1.58.195 3.03.646 4.56 1.417 1.157.584 2.125 1.223 3.319 2.19.142.116.299.226.35.246a.812.812 0 0 0 .291.035c.178 0 .213-.007.314-.056a.93.93 0 0 0 .363-.373c.034-.074.042-.13.042-.301 0-.34-.046-.408-.549-.819-2.636-2.153-5.554-3.469-8.47-3.82a15.387 15.387 0 0 0-2.74-.07Zm.47 4.48c-.754.064-1.289.149-1.882.298-1.534.387-3.061 1.162-4.358 2.21-.369.299-.429.399-.429.72 0 .252.03.333.188.505a.65.65 0 0 0 .493.231c.225.012.348-.027.536-.171.537-.414.726-.554.912-.678 1.735-1.154 3.641-1.71 5.57-1.625 1.959.087 3.846.851 5.4 2.187.11.094.25.196.31.226.099.049.131.055.32.055.174 0 .226-.008.305-.044a.925.925 0 0 0 .37-.364c.049-.101.055-.133.055-.322 0-.325-.053-.411-.479-.769-1.438-1.21-3.173-2.026-4.96-2.333-.564-.097-.853-.12-1.571-.127-.379-.004-.73-.003-.78 0Zm-.02 4c-1.205.105-2.269.46-3.153 1.051-.44.294-.84.656-.939.852-.053.105-.058.133-.058.325s.005.22.058.325c.07.137.223.288.362.356.087.043.128.049.31.049.191 0 .22-.005.323-.057.061-.031.205-.142.32-.246 1.395-1.27 3.895-1.552 5.747-.648.408.199.68.384 1.006.683.091.084.217.178.28.21.104.053.132.058.324.058.182 0 .223-.006.31-.049a.899.899 0 0 0 .362-.356c.053-.105.058-.133.058-.325s-.005-.22-.058-.325c-.099-.196-.499-.558-.939-.852-.793-.531-1.708-.863-2.793-1.014a15.066 15.066 0 0 0-1.52-.037Zm.218 3.507c-.318.058-.732.231-.958.4a2.936 2.936 0 0 0-.484.481 2.71 2.71 0 0 0-.37.77c-.052.185-.056.227-.056.57 0 .343.004.385.056.57.067.244.236.595.37.77.118.155.332.367.484.481.164.122.523.292.75.353.183.049.231.054.57.054.338 0 .387-.005.567-.053.228-.062.547-.211.732-.341a2.69 2.69 0 0 0 .543-.549c.137-.198.269-.484.333-.719.048-.179.053-.228.053-.566 0-.339-.005-.387-.054-.57a2.68 2.68 0 0 0-.37-.77 2.936 2.936 0 0 0-.484-.481 2.795 2.795 0 0 0-.74-.35c-.162-.045-.239-.054-.52-.06a3.494 3.494 0 0 0-.422.01Zm.582 1.505a.753.753 0 0 1 .518.607.746.746 0 0 1-1.476.218.75.75 0 0 1 .958-.825Z" clip-rule="evenodd"/>
</svg>
