<svg xmlns="http://www.w3.org/2000/svg" width="24" height="24" fill="none" viewBox="0 0 24 24">
  <path fill="#161C24" fill-rule="evenodd" d="M10.408 15.58a1 1 0 0 1-.489 1.328c-.464.215-.9.488-1.212.8a1 1 0 0 1-1.414-1.415c.534-.534 1.196-.927 1.788-1.2a1 1 0 0 1 1.327.488Zm3.184 0a1 1 0 0 1 1.327-.488c.592.274 1.254.667 1.788 1.201a1 1 0 0 1-1.414 1.414c-.311-.31-.748-.584-1.212-.799a1 1 0 0 1-.489-1.327ZM8.89 11.543a1 1 0 0 1-.433 1.347c-.683.35-1.426.994-2.25 1.817a1 1 0 1 1-1.414-1.414c.84-.84 1.77-1.678 2.75-2.182a1 1 0 0 1 1.346.432Zm6.23-.019a1 1 0 0 1 1.356-.403c.762.412 1.512 1.083 2.197 1.696.165.148.327.293.484.429a1 1 0 1 1-1.314 1.508 67.888 67.888 0 0 1-.607-.537c-.66-.587-1.177-1.048-1.712-1.337a1 1 0 0 1-.403-1.356ZM7.924 7.118a1 1 0 0 1-.542 1.306c-1.36.563-3.4 2.008-4.675 3.283a1 1 0 1 1-1.414-1.414c1.411-1.411 3.663-3.03 5.325-3.717a1 1 0 0 1 1.306.542Zm8.152 0a1 1 0 0 1 1.306-.542c1.662.687 3.914 2.306 5.325 3.717a1 1 0 0 1-1.414 1.414c-1.276-1.275-3.315-2.72-4.675-3.283a1 1 0 0 1-.542-1.306ZM10.5 20a1.5 1.5 0 0 1 1.5-1.5h.012a1.5 1.5 0 0 1 0 3H12a1.5 1.5 0 0 1-1.5-1.5ZM8.553 5.394A1.75 1.75 0 0 1 10.26 3.25h3.486a1.75 1.75 0 0 1 1.705 2.143L12.732 17.17a.75.75 0 0 1-1.461 0L8.553 5.394Z" clip-rule="evenodd"/>
</svg>
