<svg xmlns="http://www.w3.org/2000/svg" width="24" height="24" fill="none" viewBox="0 0 24 24">
  <path fill="#161C24" d="M21.25 12a9.25 9.25 0 1 0-18.5 0 9.25 9.25 0 0 0 18.5 0Zm1.5 0c0 5.937-4.813 10.75-10.75 10.75S1.25 17.937 1.25 12 6.063 1.25 12 1.25 22.75 6.063 22.75 12Z"/>
  <path fill="#161C24" d="m8.008 8 .102.005a1 1 0 0 1 0 1.99L8.008 10h-.009a1 1 0 0 1 0-2h.009Zm6.518-1.082a.75.75 0 0 1 1.056 1.056l-.052.056c-.059.06-.12.134-.184.218.061 0 .12 0 .178.002l.289.02c.285.03.56.09.811.173.283.096.573.236.809.437l.097.09.052.056a.75.75 0 0 1-1.056 1.056l-.056-.052-.099-.068a1.332 1.332 0 0 0-.226-.098 2.296 2.296 0 0 0-.486-.101l-.183-.013c-.376-.012-.643.037-.857.202l-.089.078a.75.75 0 0 1-1.28-.53c0-.432.193-.937.392-1.335.21-.421.504-.871.828-1.195l.056-.052Zm.874 7.632a.75.75 0 1 1 1.2.9 5.742 5.742 0 0 1-4.6 2.3 5.739 5.739 0 0 1-4.397-2.044L7.4 15.45l-.043-.063a.75.75 0 0 1 1.194-.897l.049.06.15.19A4.239 4.239 0 0 0 12 16.25a4.24 4.24 0 0 0 3.4-1.7Z"/>
</svg>
