<svg xmlns="http://www.w3.org/2000/svg" width="24" height="24" fill="none" viewBox="0 0 24 24">
  <path fill="#161C24" fill-rule="evenodd" d="M12 1.25C6.063 1.25 1.25 6.063 1.25 12S6.063 22.75 12 22.75 22.75 17.937 22.75 12 17.937 1.25 12 1.25Zm-3.992 6.5a1.25 1.25 0 1 1 0 2.5h-.01a1.25 1.25 0 1 1 0-2.5h.01Zm7.522-.78a.75.75 0 0 1 0 1.06 2.18 2.18 0 0 0-.186.218 3.89 3.89 0 0 1 1.28.195c.324.109.657.277.906.527a.75.75 0 1 1-1.06 1.06c-.028-.028-.127-.099-.324-.165a2.394 2.394 0 0 0-.67-.115c-.43-.015-.717.052-.946.28a.75.75 0 0 1-1.28-.53c0-.432.193-.938.392-1.335.21-.422.504-.871.828-1.195a.75.75 0 0 1 1.06 0ZM8.6 14.55a.75.75 0 0 0-1.2.9 5.742 5.742 0 0 0 4.6 2.3 5.742 5.742 0 0 0 4.6-2.3.75.75 0 1 0-1.2-.9 4.242 4.242 0 0 1-3.4 1.7 4.242 4.242 0 0 1-3.4-1.7Z" clip-rule="evenodd"/>
</svg>
