<svg xmlns="http://www.w3.org/2000/svg" width="24" height="24" fill="none" viewBox="0 0 24 24">
  <path fill="#161C24" d="M11.995 13.5c-1.73 0-3.32.64-4.626 1.702a1 1 0 0 0 1.262 1.551c.992-.806 2.146-1.253 3.364-1.253 1.222 0 2.379.45 3.373 1.261a1 1 0 1 0 1.265-1.549c-1.309-1.069-2.904-1.712-4.638-1.712Z"/>
  <path fill="#161C24" d="M11.995 16.86a5.09 5.09 0 0 0-2.697.784 1 1 0 1 0 1.054 1.7 3.094 3.094 0 0 1 1.643-.483c.581 0 1.14.17 1.65.488a1 1 0 1 0 1.058-1.697 5.094 5.094 0 0 0-2.708-.791ZM12 20.5a1 1 0 1 0 0 2h.006a1 1 0 0 0 0-2H12Z"/>
  <path fill="#161C24" d="M1.25 12.33c0-2.752 1.986-5.03 4.605-5.553C6.395 3.907 8.949 1.75 12 1.75c3.37 0 6.136 2.634 6.247 5.95 2.537.357 4.503 2.504 4.503 5.121 0 1.55-.692 2.939-1.781 3.884-.469.407-1.053.545-1.568.545h-1.243a2.5 2.5 0 0 0-.577-3.2C16.037 12.79 14.114 12 11.995 12c-2.113 0-4.03.784-5.573 2.039a2.5 2.5 0 0 0-.574 3.211h-.93c-.49 0-1.036-.125-1.492-.482A5.626 5.626 0 0 1 1.25 12.33Z"/>
</svg>
