<svg xmlns="http://www.w3.org/2000/svg" width="24" height="24" fill="none" viewBox="0 0 24 24">
  <path fill="#161C24" d="M9.5 11.5v-6a3 3 0 0 1 3-3h5.776a.3.3 0 0 1 .212.512L15.25 6.25a1.768 1.768 0 1 0 2.5 2.5l3.238-3.238a.3.3 0 0 1 .512.212V11.5a3 3 0 0 1-3 3h-6a3 3 0 0 1-3-3Z"/>
  <path fill="#161C24" fill-rule="evenodd" d="M8 11.5v-.56l-5.202 5.2a3.578 3.578 0 1 0 5.06 5.06l5.204-5.2H12.5A4.5 4.5 0 0 1 8 11.5Zm-2.502 5.75c-.687 0-1.244.56-1.244 1.25s.557 1.25 1.244 1.25h.011c.688 0 1.245-.56 1.245-1.25s-.557-1.25-1.245-1.25H5.5Z" clip-rule="evenodd"/>
</svg>
