<svg xmlns="http://www.w3.org/2000/svg" width="24" height="24" fill="none" viewBox="0 0 24 24">
  <path fill="#161C24" fill-rule="evenodd" d="M15.457 2.293a1 1 0 1 0-1.414 1.414L16.336 6l-2.293 2.293a1 1 0 0 0 1.414 1.414l2.293-2.293 2.293 2.293a1 1 0 0 0 1.414-1.414L19.164 6l2.293-2.293a1 1 0 0 0-1.414-1.414L17.75 4.586l-2.293-2.293ZM5.75 2.25h6.615a2.5 2.5 0 0 0 .617 2.518L14.214 6l-1.232 1.232a2.5 2.5 0 0 0 3.536 3.536l1.232-1.232 1.232 1.232c.159.158.333.29.518.398V22a.75.75 0 0 1-1.103.662L11.25 18.85l-7.147 3.812A.75.75 0 0 1 3 22V5a2.75 2.75 0 0 1 2.75-2.75Z" clip-rule="evenodd"/>
</svg>
