<svg xmlns="http://www.w3.org/2000/svg" width="24" height="24" fill="none" viewBox="0 0 24 24">
  <path fill="#161C24" fill-rule="evenodd" d="M11.75 22.5C5.813 22.5 1 17.687 1 11.75S5.813 1 11.75 1 22.5 5.813 22.5 11.75 17.687 22.5 11.75 22.5Zm-2.16-16C7.313 6.5 6 8.404 6 10.374c0 1.71.795 3.068 1.85 4.123 1.044 1.045 2.378 1.83 3.564 2.424a.75.75 0 0 0 .672 0c1.186-.594 2.52-1.379 3.565-2.424 1.054-1.055 1.849-2.414 1.849-4.123 0-1.97-1.313-3.874-3.59-3.874-.906 0-1.612.334-2.16.842A3.078 3.078 0 0 0 9.59 6.5Z" clip-rule="evenodd"/>
</svg>
