<svg xmlns="http://www.w3.org/2000/svg" width="24" height="24" fill="none" viewBox="0 0 24 24">
  <path fill="#161C24" fill-rule="evenodd" d="M10.677 2.954c.655-1.272 2.49-1.272 3.146 0l2.206 4.288a.256.256 0 0 0 .185.134l4.797.756c1.422.224 1.99 1.95.972 2.961l-3.434 3.41a.248.248 0 0 0-.07.215l.756 4.758c.225 1.41-1.26 2.478-2.544 1.83l-4.326-2.183a.254.254 0 0 0-.23 0L7.81 21.306c-1.285.648-2.77-.42-2.545-1.83l.756-4.758a.248.248 0 0 0-.07-.216l-3.434-3.409c-1.017-1.01-.45-2.737.972-2.961l4.797-.756a.252.252 0 0 0 .185-.134l2.206-4.288Z" clip-rule="evenodd"/>
</svg>
