<svg xmlns="http://www.w3.org/2000/svg" width="24" height="24" fill="none" viewBox="0 0 24 24">
  <path fill="#161C24" fill-rule="evenodd" d="M12 1.25a7.75 7.75 0 1 0 0 15.5 7.75 7.75 0 0 0 0-15.5Zm1.309 5.447-.93-1.906a.417.417 0 0 0-.758 0l-.93 1.906a.427.427 0 0 1-.311.237l-2.021.336c-.343.057-.48.495-.234.752L9.57 9.537c.096.1.14.243.12.383l-.32 2.115c-.054.358.304.63.613.464l1.823-.97a.409.409 0 0 1 .386 0l1.823.97c.31.165.667-.106.613-.464l-.32-2.115a.457.457 0 0 1 .12-.383l1.447-1.515c.244-.257.108-.695-.235-.752l-2.02-.336a.427.427 0 0 1-.313-.237Zm-8.212 8.078-1.78 3.915a.75.75 0 0 0 .806 1.05l2.42-.403 1.268 2.959a.75.75 0 0 0 1.381-.007l1.81-4.343a8.985 8.985 0 0 1-5.905-3.17Zm9.713 7.514L13 17.946a8.985 8.985 0 0 0 5.905-3.17l1.78 3.914a.75.75 0 0 1-.806 1.05l-2.42-.403-1.268 2.96a.75.75 0 0 1-1.381-.008Z" clip-rule="evenodd"/>
</svg>
