<svg xmlns="http://www.w3.org/2000/svg" width="24" height="24" fill="none" viewBox="0 0 24 24">
  <path fill="#161C24" fill-rule="evenodd" d="M6 19.555H3v-7.807h3v7.807Zm-3 2h3a2 2 0 0 0 2-2v-7.807a2 2 0 0 0-2-2H3a2 2 0 0 0-2 2v7.807a2 2 0 0 0 2 2Z" clip-rule="evenodd"/>
  <path fill="#161C24" fill-rule="evenodd" d="M6.25 20.75c0 .414.336.75.75.75h11.081a2.75 2.75 0 0 0 2.596-1.841l2.1-6A2.75 2.75 0 0 0 20.18 10h-4.527l.137-.307a5.75 5.75 0 0 0-1.189-6.402l-.072-.071a.75.75 0 0 0-1.06 0l-7 7a.75.75 0 0 0-.22.53v10Z" clip-rule="evenodd"/>
</svg>
