<svg xmlns="http://www.w3.org/2000/svg" width="24" height="24" fill="none" viewBox="0 0 24 24">
  <path fill="#161C24" fill-rule="evenodd" d="M2.758 2.289a.85.85 0 0 0-.439.401l-.049.1v5.42l.049.1a.899.899 0 0 0 .356.362c.105.053.133.058.325.058s.22-.005.325-.058a.899.899 0 0 0 .356-.362l.049-.1.005-1.695c.003-.932.012-1.695.02-1.695S5.088 6.137 6.7 7.748c3.157 3.154 2.963 2.972 3.211 3.009a.84.84 0 0 0 .441-.067.921.921 0 0 0 .35-.359.875.875 0 0 0 .053-.431c-.038-.259.121-.088-3.032-3.245L4.812 3.741l1.699-.006L8.21 3.73l.1-.049a.899.899 0 0 0 .362-.356c.053-.105.058-.133.058-.325s-.005-.22-.058-.325a.899.899 0 0 0-.362-.356l-.1-.049-2.69-.004c-2.202-.003-2.703.001-2.762.023Zm13 0a.85.85 0 0 0-.439.401c-.043.087-.049.127-.049.31 0 .192.005.22.058.325.07.137.223.288.362.356l.1.049 1.696.005 1.697.006-2.908 2.92c-2.461 2.47-2.918 2.937-2.967 3.034-.053.105-.058.133-.058.325s.005.219.056.317c.079.15.193.266.339.345.12.065.134.068.335.068.366 0 .05.284 3.365-3.027l2.914-2.911.006 1.699.005 1.699.049.1a.899.899 0 0 0 .356.362c.105.053.133.058.325.058s.22-.005.325-.058a.899.899 0 0 0 .356-.362l.049-.1V2.79l-.058-.115a.899.899 0 0 0-.362-.356l-.1-.049-2.69-.004c-2.202-.003-2.703.001-2.762.023ZM9.786 13.268a.858.858 0 0 0-.15.069c-.036.022-1.371 1.347-2.966 2.942a397.895 397.895 0 0 1-2.915 2.901c-.008 0-.017-.763-.02-1.695L3.73 15.79l-.058-.115a.899.899 0 0 0-.362-.356c-.087-.043-.128-.049-.31-.049-.192 0-.22.005-.325.058a.899.899 0 0 0-.356.362l-.049.1v5.42l.058.115c.07.137.223.288.362.356l.1.049h5.42l.1-.049a.899.899 0 0 0 .362-.356c.053-.105.058-.133.058-.325s-.005-.22-.058-.325a.899.899 0 0 0-.362-.356l-.1-.049-1.699-.005-1.699-.006 2.91-2.914c3.309-3.314 3.028-3.002 3.028-3.365 0-.201-.003-.215-.068-.335a.796.796 0 0 0-.345-.337c-.089-.046-.137-.056-.287-.061a.854.854 0 0 0-.264.021Zm3.971-.001a.811.811 0 0 0-.451.397c-.051.096-.056.125-.056.316 0 .363-.281.051 3.028 3.365l2.91 2.914-1.699.006-1.699.005-.1.049a.899.899 0 0 0-.362.356c-.053.105-.058.133-.058.325s.005.22.058.325c.07.137.223.288.362.356l.1.049h5.42l.115-.058a.899.899 0 0 0 .356-.362l.049-.1v-5.42l-.049-.1a.899.899 0 0 0-.356-.362c-.105-.053-.133-.058-.325-.058-.182 0-.223.006-.31.049a.899.899 0 0 0-.362.356l-.058.115-.005 1.699-.006 1.699-2.914-2.911c-3.281-3.277-2.999-3.02-3.334-3.032a.774.774 0 0 0-.254.022Z" clip-rule="evenodd"/>
</svg>
