<svg xmlns="http://www.w3.org/2000/svg" width="24" height="24" fill="none" viewBox="0 0 24 24">
  <path fill="#161C24" fill-rule="evenodd" d="M10.758 5.289a.845.845 0 0 0-.44.401c-.042.087-.048.127-.048.31 0 .192.005.22.058.325.07.137.223.288.362.356l.1.049 2.7.005 2.699.006-5.401 5.404C4.68 18.257 5.27 17.632 5.27 18c0 .182.006.223.049.31a.899.899 0 0 0 .356.362c.105.053.133.058.325.058.368 0-.257.589 5.855-5.518l5.404-5.401.006 2.699.005 2.7.058.115c.07.137.223.288.362.356.087.043.128.049.31.049.192 0 .22-.005.325-.058a.899.899 0 0 0 .356-.362l.049-.1V5.79l-.05-.1a.899.899 0 0 0-.355-.362l-.115-.058-3.69-.004c-3.034-.003-3.703.001-3.762.023Z" clip-rule="evenodd"/>
</svg>
