<svg xmlns="http://www.w3.org/2000/svg" width="24" height="24" fill="none" viewBox="0 0 24 24">
  <path fill="#161C24" fill-rule="evenodd" d="M14.758 6.288a.856.856 0 0 0-.439.402c-.043.087-.049.127-.049.31 0 .358-.156.175 2.018 2.355l1.901 1.905-7.2.005-7.199.005-.1.049a.899.899 0 0 0-.362.356c-.053.105-.058.133-.058.325s.005.22.058.325c.07.137.223.288.362.356l.1.049 7.199.005 7.2.005-1.901 1.905c-2.174 2.18-2.018 1.997-2.018 2.355 0 .182.006.223.049.31a.899.899 0 0 0 .356.362c.105.053.133.058.325.058.362 0 .092.241 3.031-2.699 2.94-2.939 2.699-2.669 2.699-3.031 0-.362.241-.092-2.699-3.031-2.918-2.919-2.669-2.695-3.011-2.703a.843.843 0 0 0-.262.022Z" clip-rule="evenodd"/>
</svg>
