<svg xmlns="http://www.w3.org/2000/svg" width="24" height="24" fill="none" viewBox="0 0 24 24">
  <path fill="#161C24" fill-rule="evenodd" d="M8.758 6.288a1.22 1.22 0 0 0-.16.082c-.048.03-1.241 1.207-2.65 2.617C3.033 11.906 3.27 11.638 3.27 12c0 .362-.241.092 2.699 3.031 2.939 2.94 2.669 2.699 3.03 2.699.193 0 .22-.005.326-.058a.899.899 0 0 0 .356-.362c.043-.087.049-.128.049-.31 0-.358.156-.175-2.018-2.355L5.81 12.74l7.2-.005 7.199-.005.1-.049a.899.899 0 0 0 .362-.356c.053-.105.058-.133.058-.325s-.005-.22-.058-.325a.899.899 0 0 0-.362-.356l-.1-.049-7.2-.005-7.2-.005 1.902-1.905C9.886 7.175 9.73 7.358 9.73 7c0-.182-.006-.223-.05-.31a.899.899 0 0 0-.355-.362c-.1-.05-.14-.059-.305-.062a.843.843 0 0 0-.262.022Z" clip-rule="evenodd"/>
</svg>
