<svg xmlns="http://www.w3.org/2000/svg" width="24" height="24" fill="none" viewBox="0 0 24 24">
  <path fill="#161C24" fill-rule="evenodd" d="M11.758 3.288a.856.856 0 0 0-.439.402l-.049.1-.005 5.199-.005 5.2-1.405-1.401C8.236 11.175 8.352 11.27 8 11.27c-.182 0-.223.006-.31.049a.899.899 0 0 0-.362.356c-.053.105-.058.133-.058.325 0 .36-.179.153 2.199 2.531C11.847 16.909 11.64 16.73 12 16.73c.36 0 .153.179 2.531-2.199C16.909 12.153 16.73 12.36 16.73 12c0-.192-.005-.22-.058-.325a.899.899 0 0 0-.362-.356c-.087-.043-.128-.049-.31-.049-.352 0-.236-.095-1.855 1.518l-1.405 1.401-.005-5.2-.005-5.199-.049-.1a.894.894 0 0 0-.355-.361c-.099-.05-.14-.059-.305-.063a.785.785 0 0 0-.263.022Zm-6 16.001a.845.845 0 0 0-.439.401c-.043.087-.049.127-.049.31 0 .192.005.22.058.325.07.137.223.288.362.356l.1.049h12.42l.1-.049a.899.899 0 0 0 .362-.356c.053-.105.058-.133.058-.325s-.005-.22-.058-.325a.899.899 0 0 0-.362-.356l-.1-.049-6.19-.004c-5.113-.003-6.203.001-6.262.023Z" clip-rule="evenodd"/>
</svg>
