<svg xmlns="http://www.w3.org/2000/svg" width="24" height="24" fill="none" viewBox="0 0 24 24">
  <path fill="#161C24" fill-rule="evenodd" d="M5.758 5.289a.845.845 0 0 0-.439.401l-.049.1v7.42l.058.115c.07.137.223.288.362.356.087.043.128.049.31.049s.223-.006.31-.049a.899.899 0 0 0 .362-.356l.058-.115.005-2.7.006-2.699 5.404 5.401c6.112 6.107 5.487 5.518 5.855 5.518.192 0 .22-.005.325-.058a.899.899 0 0 0 .356-.362c.043-.087.049-.128.049-.31 0-.368.589.257-5.518-5.855L7.811 6.741l2.699-.006 2.7-.005.115-.058a.899.899 0 0 0 .356-.362c.043-.087.049-.128.049-.31s-.006-.223-.049-.31a.899.899 0 0 0-.356-.362l-.115-.058-3.69-.004c-3.034-.003-3.703.001-3.762.023Z" clip-rule="evenodd"/>
</svg>
