<svg xmlns="http://www.w3.org/2000/svg" width="24" height="24" fill="none" viewBox="0 0 24 24">
  <path fill="#161C24" fill-rule="evenodd" d="M8.758 4.288a.856.856 0 0 0-.439.402l-.049.1-.005 6.345c-.003 4.186-.012 6.345-.025 6.345-.01 0-.668-.486-1.459-1.079-1.609-1.206-1.525-1.154-1.829-1.136a.796.796 0 0 0-.258.052.893.893 0 0 0-.366.358c-.053.106-.058.132-.057.325.001.241.033.338.163.482.093.103 4.111 3.121 4.254 3.195.091.047.124.053.312.053.192 0 .22-.005.325-.058a.899.899 0 0 0 .356-.362l.05-.1V4.79l-.05-.1a.894.894 0 0 0-.355-.361c-.099-.05-.14-.059-.305-.063a.785.785 0 0 0-.263.022Zm6 0a.856.856 0 0 0-.439.402l-.049.1v14.42l.05.1a.899.899 0 0 0 .355.362c.105.053.133.058.325.058s.22-.005.325-.058a.899.899 0 0 0 .356-.362l.05-.1.004-6.345c.003-4.179.012-6.345.025-6.345.011 0 .668.486 1.46 1.079 1.608 1.206 1.524 1.154 1.828 1.136a.796.796 0 0 0 .258-.052.893.893 0 0 0 .366-.358c.053-.106.058-.132.057-.325 0-.241-.033-.338-.163-.482-.094-.105-4.113-3.123-4.254-3.194-.085-.043-.134-.053-.292-.058a.778.778 0 0 0-.262.022Z" clip-rule="evenodd"/>
</svg>
