<svg xmlns="http://www.w3.org/2000/svg" width="24" height="24" fill="none" viewBox="0 0 24 24">
  <path fill="#161C24" fill-rule="evenodd" d="M5.243 2.299a.945.945 0 0 0-.21.119c-.057.044-.671.65-1.365 1.346-1.361 1.365-1.341 1.342-1.39 1.601-.087.481.376.944.857.856.243-.045.287-.08.98-.768l.645-.641v7.229c0 7.893-.008 7.337.11 7.754.057.194.224.55.347.735a2.776 2.776 0 0 0 1.85 1.181c.159.026.504.03 2.663.025l2.48-.006.115-.058a.899.899 0 0 0 .356-.362c.043-.087.049-.128.049-.31s-.006-.223-.05-.31a.899.899 0 0 0-.355-.362l-.115-.058-2.46-.011c-2.223-.01-2.471-.014-2.57-.044a1.323 1.323 0 0 1-.895-.895c-.032-.103-.035-.589-.04-7.309l-.006-7.2.646.642c.693.688.737.723.98.768.48.088.944-.375.856-.856-.048-.261-.021-.23-1.448-1.656C5.77 2.208 5.853 2.278 5.53 2.266a.64.64 0 0 0-.287.033Zm7.515-.01a.845.845 0 0 0-.44.401c-.042.087-.048.127-.048.31 0 .192.005.22.058.325.07.137.223.288.362.356l.1.049 1.96.011c1.749.01 1.972.015 2.07.045.437.132.758.453.895.894.032.103.035.589.04 7.309l.006 7.198-.666-.66c-.79-.783-.781-.777-1.115-.777-.192 0-.22.005-.318.057-.31.163-.466.46-.417.793.037.249.014.224 1.453 1.663.837.837 1.367 1.352 1.425 1.385a.974.974 0 0 0 .235.083.527.527 0 0 0 .284 0 .974.974 0 0 0 .235-.083c.058-.033.588-.548 1.425-1.385 1.439-1.439 1.416-1.414 1.453-1.663.049-.333-.107-.63-.417-.793-.1-.052-.126-.057-.318-.057-.335 0-.326-.006-1.115.777l-.665.66v-7.228c0-7.893.008-7.337-.111-7.754a3.402 3.402 0 0 0-.343-.729 2.767 2.767 0 0 0-1.841-1.185c-.15-.026-.461-.031-2.145-.03-1.586.002-1.984.007-2.042.028Z" clip-rule="evenodd"/>
</svg>
