<svg xmlns="http://www.w3.org/2000/svg" width="24" height="24" fill="none" viewBox="0 0 24 24">
  <path fill="#161C24" fill-rule="evenodd" d="M11.758 3.288a.856.856 0 0 0-.44.402l-.048.1-.005 7.199-.005 7.2-1.905-1.901C7.175 14.114 7.358 14.27 7 14.27c-.192 0-.22.005-.325.058a.899.899 0 0 0-.356.362c-.043.087-.05.128-.05.31 0 .362-.24.092 2.7 3.031 2.939 2.94 2.669 2.699 3.03 2.699.363 0 .093.241 3.032-2.699 2.94-2.939 2.699-2.669 2.699-3.031 0-.182-.006-.223-.05-.31a.899.899 0 0 0-.355-.362c-.105-.053-.133-.058-.325-.058-.358 0-.175-.156-2.355 2.018l-1.905 1.901-.005-7.2-.005-7.199-.05-.1a.894.894 0 0 0-.354-.361c-.1-.05-.14-.059-.305-.063a.785.785 0 0 0-.263.022Z" clip-rule="evenodd"/>
</svg>
