<svg xmlns="http://www.w3.org/2000/svg" width="24" height="24" fill="none" viewBox="0 0 24 24">
  <path fill="#161C24" fill-rule="evenodd" d="M3.758 5.288a.856.856 0 0 0-.439.402l-.049.1v12.42l.049.1a.899.899 0 0 0 .356.362c.105.053.133.058.325.058s.22-.005.325-.058a.899.899 0 0 0 .356-.362l.049-.1V5.79l-.049-.1a.894.894 0 0 0-.355-.361c-.099-.05-.14-.059-.305-.063a.785.785 0 0 0-.263.022Zm8 2a1.22 1.22 0 0 0-.16.082c-.048.03-1.016.982-2.149 2.117C7.094 11.844 7.27 11.641 7.27 12c0 .36-.179.153 2.199 2.531C11.847 16.909 11.64 16.73 12 16.73c.182 0 .223-.006.31-.049a.899.899 0 0 0 .362-.356c.053-.105.058-.133.058-.325 0-.352.095-.236-1.518-1.855L9.811 12.74l5.2-.005 5.199-.005.115-.058a.899.899 0 0 0 .356-.362c.043-.087.049-.128.049-.31s-.006-.223-.049-.31a.899.899 0 0 0-.356-.362l-.115-.058-5.199-.005-5.2-.005 1.401-1.405C12.825 8.236 12.73 8.352 12.73 8c0-.182-.006-.223-.049-.31a.899.899 0 0 0-.356-.362c-.1-.05-.14-.059-.305-.062a.843.843 0 0 0-.262.022Z" clip-rule="evenodd"/>
</svg>
