<svg xmlns="http://www.w3.org/2000/svg" width="24" height="24" fill="none" viewBox="0 0 24 24">
  <path fill="#161C24" fill-rule="evenodd" d="M5.734 5.298a.804.804 0 0 0-.437.446.626.626 0 0 0-.034.286c.013.341-.538-.24 5.524 5.825l5.402 5.405-2.7.005-2.7.005-.114.058a.899.899 0 0 0-.356.362c-.043.087-.05.128-.05.31s.007.223.05.31a.899.899 0 0 0 .356.362l.115.058h7.42l.11-.054a.856.856 0 0 0 .356-.355l.054-.11v-7.42l-.058-.116a.899.899 0 0 0-.362-.356c-.087-.043-.128-.049-.31-.049s-.223.006-.31.05a.899.899 0 0 0-.362.355l-.058.115-.005 2.7-.005 2.7-5.405-5.402C5.778 4.716 6.368 5.274 6.02 5.265c-.15-.004-.211.003-.286.033Z" clip-rule="evenodd"/>
</svg>
