<svg xmlns="http://www.w3.org/2000/svg" width="24" height="24" fill="none" viewBox="0 0 24 24">
  <path fill="#161C24" fill-rule="evenodd" d="M8.758 5.288a.856.856 0 0 0-.439.402c-.043.087-.049.127-.049.31 0 .363-.263.068 2.888 3.225L13.929 12l-2.771 2.775C8.007 17.932 8.27 17.637 8.27 18c0 .182.006.223.049.31a.9.9 0 0 0 .356.362c.105.053.133.058.325.058.364 0 .03.303 3.531-3.199C16.033 12.03 15.73 12.364 15.73 12c0-.364.303-.03-3.199-3.531-3.476-3.477-3.166-3.194-3.51-3.203a.785.785 0 0 0-.263.022Z" clip-rule="evenodd"/>
</svg>
