<svg xmlns="http://www.w3.org/2000/svg" width="24" height="24" fill="none" viewBox="0 0 24 24">
  <path fill="#161C24" fill-rule="evenodd" d="M19.758 5.288a.856.856 0 0 0-.439.402l-.049.1v12.42l.049.1a.899.899 0 0 0 .356.362c.105.053.133.058.325.058s.22-.005.325-.058a.899.899 0 0 0 .356-.362l.049-.1V5.79l-.049-.1a.894.894 0 0 0-.355-.361c-.099-.05-.14-.059-.305-.063a.785.785 0 0 0-.263.022ZM11.77 7.287a.832.832 0 0 0-.451.403c-.043.087-.049.127-.049.31 0 .18.007.224.048.31.038.079.336.389 1.455 1.51a99.64 99.64 0 0 1 1.407 1.425c0 .008-2.338.017-5.195.02l-5.195.005-.115.058a.899.899 0 0 0-.356.362c-.043.087-.049.128-.049.31s.006.223.049.31a.899.899 0 0 0 .356.362l.115.058 5.195.005c2.857.003 5.195.012 5.195.02s-.633.649-1.407 1.425c-1.119 1.121-1.417 1.431-1.455 1.51-.041.086-.048.13-.048.31 0 .192.005.22.058.325.07.137.223.288.362.356.087.043.128.049.31.049.363 0 .153.182 2.532-2.198 2.38-2.379 2.198-2.169 2.198-2.532s.182-.153-2.198-2.532c-2.353-2.354-2.171-2.194-2.502-2.203a.968.968 0 0 0-.26.022Z" clip-rule="evenodd"/>
</svg>
