<svg xmlns="http://www.w3.org/2000/svg" width="24" height="24" fill="none" viewBox="0 0 24 24">
  <path fill="#161C24" fill-rule="evenodd" d="M11.864 2.261c-.228.045-.201.021-1.884 1.707-1.297 1.299-1.601 1.614-1.65 1.707-.056.107-.06.13-.06.325 0 .192.005.22.057.32a.857.857 0 0 0 .35.353c.103.052.132.057.323.057.345 0 .299.034 1.345-1.007l.895-.891v2.069c0 1.319.008 2.116.021 2.199a.72.72 0 0 0 .239.447.667.667 0 0 0 .5.197.751.751 0 0 0 .707-.488l.043-.106.006-2.169.005-2.169.915.911c.711.71.936.922 1.014.959.086.041.13.048.31.048.188 0 .222-.006.321-.054a.856.856 0 0 0 .355-.355c.048-.099.054-.133.054-.321 0-.358.12-.215-1.698-2.033-1.691-1.693-1.654-1.659-1.901-1.705a.494.494 0 0 0-.267-.001ZM5.758 8.288a1.22 1.22 0 0 0-.16.082c-.048.03-.792.757-1.652 1.617-1.367 1.366-1.571 1.577-1.615 1.675a.746.746 0 0 0 0 .676c.044.098.247.308 1.635 1.693C5.785 15.847 5.645 15.73 6 15.73c.182 0 .223-.006.31-.049a.899.899 0 0 0 .362-.356c.053-.105.058-.133.058-.325 0-.342.033-.298-1.008-1.344l-.889-.895 2.159-.005 2.158-.006.106-.043A.752.752 0 0 0 9.745 12a.727.727 0 0 0-.301-.6c-.191-.147-.043-.139-2.463-.139l-2.169-.001.9-.905C6.764 9.297 6.73 9.342 6.73 9c0-.182-.006-.223-.049-.31a.894.894 0 0 0-.355-.361c-.099-.05-.14-.059-.305-.063a.785.785 0 0 0-.263.022Zm12 0a.856.856 0 0 0-.439.402c-.043.087-.049.127-.049.31 0 .342-.034.297 1.018 1.355l.9.905-2.169.001c-2.42 0-2.272-.008-2.463.139a.727.727 0 0 0-.301.6c0 .316.184.582.489.707l.106.043 2.158.006 2.159.005-.889.895C17.237 14.702 17.27 14.658 17.27 15c0 .192.005.22.058.325.07.137.223.288.362.356.087.043.128.049.31.049.355 0 .215.117 2.034-1.699 1.388-1.385 1.591-1.595 1.635-1.693a.746.746 0 0 0 0-.676c-.044-.098-.247-.308-1.635-1.693-1.802-1.799-1.678-1.694-2.013-1.703a.785.785 0 0 0-.263.022Zm-5.992 6a.702.702 0 0 0-.315.213.673.673 0 0 0-.19.399c-.013.085-.021.846-.021 2.199v2.069l-.895-.891c-1.046-1.041-1-1.007-1.345-1.007-.191 0-.22.005-.323.057a.857.857 0 0 0-.35.353c-.052.1-.057.128-.057.32 0 .195.004.218.06.325.049.093.353.408 1.65 1.707 1.707 1.71 1.654 1.662 1.907 1.709a.786.786 0 0 0 .462-.074c.079-.04.439-.389 1.683-1.634C15.85 18.215 15.73 18.358 15.73 18c0-.188-.006-.222-.054-.321a.856.856 0 0 0-.355-.355c-.099-.048-.133-.054-.321-.054-.18 0-.224.007-.31.048-.078.037-.303.25-1.015.959l-.915.912v-2.102c0-1.336-.007-2.141-.02-2.209a.793.793 0 0 0-.418-.553c-.09-.044-.142-.054-.291-.059a.891.891 0 0 0-.265.022Z" clip-rule="evenodd"/>
</svg>
