<svg xmlns="http://www.w3.org/2000/svg" width="24" height="24" fill="none" viewBox="0 0 24 24">
  <path fill="#161C24" fill-rule="evenodd" d="M18.257 2.267a.811.811 0 0 0-.45.397c-.052.096-.057.125-.057.316 0 .331-.005.324.778 1.115l.66.665h-7.23c-7.892 0-7.336-.008-7.753.111-.194.056-.55.223-.735.346a2.776 2.776 0 0 0-1.18 1.85c-.027.16-.03.504-.026 2.663l.006 2.48.058.115c.07.137.223.288.362.356.087.043.128.05.31.05s.223-.007.31-.05a.899.899 0 0 0 .362-.356l.058-.115.011-2.46c.01-2.223.014-2.47.044-2.57.134-.44.451-.758.895-.895.103-.032.59-.035 7.31-.04l7.198-.006-.64.646c-.762.767-.758.761-.758 1.095 0 .19.005.221.056.325a.796.796 0 0 0 .35.35c.103.05.134.055.324.055.355 0 .247.088 1.774-1.438 1.161-1.159 1.331-1.336 1.376-1.436a.77.77 0 0 0 0-.672c-.045-.1-.216-.278-1.396-1.456-1.527-1.525-1.439-1.452-1.763-1.463a.774.774 0 0 0-.254.022Zm2.501 10.021a.856.856 0 0 0-.439.402l-.049.1-.01 1.96c-.01 1.75-.016 1.972-.046 2.07a1.32 1.32 0 0 1-.894.895c-.103.032-.589.035-7.309.04l-7.198.006.66-.666c.782-.79.777-.784.777-1.115 0-.192-.005-.219-.056-.317a.818.818 0 0 0-.339-.345c-.12-.065-.134-.068-.335-.068-.355 0-.244-.09-1.794 1.458-1.18 1.177-1.35 1.356-1.396 1.456a.77.77 0 0 0 0 .672c.045.1.215.277 1.376 1.436 1.527 1.526 1.42 1.438 1.774 1.438.19 0 .221-.005.325-.056a.796.796 0 0 0 .35-.349c.05-.104.055-.135.055-.325 0-.334.004-.328-.757-1.095l-.64-.645h7.218c7.857 0 7.351.007 7.76-.11.196-.056.554-.224.733-.344a2.764 2.764 0 0 0 1.187-1.853c.026-.158.03-.453.025-2.163l-.006-1.98-.049-.1a.894.894 0 0 0-.355-.36c-.099-.05-.14-.06-.305-.064a.785.785 0 0 0-.263.022Z" clip-rule="evenodd"/>
</svg>
