<svg xmlns="http://www.w3.org/2000/svg" width="24" height="24" fill="none" viewBox="0 0 24 24">
  <path fill="#161C24" fill-rule="evenodd" d="M11.19 1.282a10.795 10.795 0 0 0-3.625.926 10.813 10.813 0 0 0-5.357 5.357A10.52 10.52 0 0 0 1.26 12c0 1.576.304 3.001.948 4.435a10.821 10.821 0 0 0 5.357 5.357c1.43.642 2.86.947 4.435.947 1.574 0 3.004-.305 4.435-.947a10.829 10.829 0 0 0 5.357-5.357c.642-1.43.947-2.86.947-4.435 0-1.574-.305-3.004-.947-4.435a10.821 10.821 0 0 0-5.357-5.357 10.47 10.47 0 0 0-4.475-.945c-.313.001-.66.01-.77.02Zm1.18 1.478a9.027 9.027 0 0 1 3.646.911 8.851 8.851 0 0 1 2.577 1.851 8.758 8.758 0 0 1 1.736 2.462 9.007 9.007 0 0 1 .909 3.613 9.22 9.22 0 0 1-1.424 5.353 9.513 9.513 0 0 1-2.474 2.604 9.437 9.437 0 0 1-3.277 1.465 9.508 9.508 0 0 1-4.126 0 9.322 9.322 0 0 1-3.627-1.727 10.03 10.03 0 0 1-1.602-1.602 9.322 9.322 0 0 1-1.727-3.627 9.509 9.509 0 0 1 0-4.126A9.327 9.327 0 0 1 4.708 6.31 10.03 10.03 0 0 1 6.31 4.708a9.297 9.297 0 0 1 3.67-1.736 9.051 9.051 0 0 1 1.589-.21c.188-.009.346-.017.35-.019.006 0 .209.006.45.017Zm-2.146 4.542a.903.903 0 0 0-.398.374c-.051.103-.056.135-.056.324 0 .19.006.221.055.32.038.077.474.59 1.447 1.7l1.562 1.785.169.194-1.562 1.786c-1.11 1.266-1.578 1.817-1.617 1.895-.048.098-.054.132-.054.32 0 .19.006.221.055.322a.925.925 0 0 0 .37.364c.079.036.13.044.305.044.188 0 .222-.006.32-.054a.986.986 0 0 0 .214-.16c.057-.058.887-1.002 1.845-2.096 1.227-1.402 1.758-2.022 1.796-2.1.049-.099.055-.13.055-.32 0-.189-.006-.22-.055-.32-.038-.078-.57-.698-1.796-2.1a273.541 273.541 0 0 0-1.845-2.096c-.156-.159-.28-.212-.513-.219-.156-.004-.211.003-.297.037Z" clip-rule="evenodd"/>
</svg>
