<svg xmlns="http://www.w3.org/2000/svg" width="24" height="24" fill="none" viewBox="0 0 24 24">
  <path fill="#161C24" fill-rule="evenodd" d="M11.19 1.282a10.795 10.795 0 0 0-3.625.926 10.813 10.813 0 0 0-5.357 5.357A10.52 10.52 0 0 0 1.26 12c0 1.576.304 3.001.948 4.435a10.821 10.821 0 0 0 5.357 5.357c1.43.642 2.86.947 4.435.947 1.574 0 3.004-.305 4.435-.947a10.829 10.829 0 0 0 5.357-5.357c.642-1.43.947-2.86.947-4.435 0-1.574-.305-3.004-.947-4.435a10.821 10.821 0 0 0-5.357-5.357 10.47 10.47 0 0 0-4.475-.945c-.313.001-.66.01-.77.02Zm1.18 1.478a9.027 9.027 0 0 1 3.646.911 8.851 8.851 0 0 1 2.577 1.851 8.758 8.758 0 0 1 1.736 2.462 9.007 9.007 0 0 1 .909 3.613 9.22 9.22 0 0 1-1.424 5.353 9.513 9.513 0 0 1-2.474 2.604 9.437 9.437 0 0 1-3.277 1.465 9.508 9.508 0 0 1-4.126 0 9.322 9.322 0 0 1-3.627-1.727 10.03 10.03 0 0 1-1.602-1.602 9.322 9.322 0 0 1-1.727-3.627 9.509 9.509 0 0 1 0-4.126A9.327 9.327 0 0 1 4.708 6.31 10.03 10.03 0 0 1 6.31 4.708a9.297 9.297 0 0 1 3.67-1.736 9.051 9.051 0 0 1 1.589-.21c.188-.009.346-.017.35-.019.006 0 .209.006.45.017Zm.896 4.528c-.12.04-.201.095-.33.226-.061.064-.887 1.003-1.835 2.086-1.227 1.403-1.738 2.002-1.777 2.08-.048.098-.054.132-.054.32 0 .19.006.221.055.32.038.078.568.697 1.796 2.1a273.541 273.541 0 0 0 1.845 2.096c.057.058.154.13.214.16.098.048.132.054.32.054.189 0 .22-.006.322-.055a.925.925 0 0 0 .364-.37c.036-.079.044-.13.044-.305 0-.194-.005-.219-.06-.326-.042-.08-.523-.646-1.61-1.887-.853-.973-1.55-1.778-1.55-1.787 0-.009.68-.793 1.51-1.742s1.543-1.769 1.582-1.822a.677.677 0 0 0 .134-.483.628.628 0 0 0-.198-.463.632.632 0 0 0-.507-.224.891.891 0 0 0-.265.022Z" clip-rule="evenodd"/>
</svg>
