<svg xmlns="http://www.w3.org/2000/svg" width="24" height="24" fill="none" viewBox="0 0 24 24">
  <path fill="#161C24" fill-rule="evenodd" d="M4.04 1.792a3.001 3.001 0 0 0-1.064.422A2.767 2.767 0 0 0 1.79 4.055c-.026.155-.03 1.054-.03 7.945 0 8.486-.008 7.878.11 8.295.057.194.224.55.347.735a2.777 2.777 0 0 0 1.838 1.179c.155.027 1.053.031 7.935.031 8.448 0 7.89.007 8.3-.11a3.42 3.42 0 0 0 .74-.347 2.777 2.777 0 0 0 1.179-1.838c.027-.155.03-1.054.03-7.945 0-8.486.009-7.878-.11-8.295a3.402 3.402 0 0 0-.343-.729 2.767 2.767 0 0 0-1.841-1.185c-.155-.027-1.05-.031-7.965-.029-6.486.002-7.815.007-7.94.03Zm15.78 1.493c.357.111.652.354.797.659a2 2 0 0 1 .106.276c.04.164.04 15.396 0 15.56a1.3 1.3 0 0 1-.943.943c-.164.04-15.396.04-15.56 0a1.3 1.3 0 0 1-.943-.943c-.04-.164-.04-15.396 0-15.56a1.275 1.275 0 0 1 1.063-.959c.072-.009 3.559-.015 7.75-.013 7.123.002 7.627.005 7.73.037Zm-6.562 5.503a.856.856 0 0 0-.44.402c-.042.087-.048.127-.048.31 0 .332-.004.326.768 1.105l.649.655-3.198.005-3.2.005-.1.049a.899.899 0 0 0-.361.356c-.053.105-.058.133-.058.325s.005.22.058.325c.07.137.223.288.362.356l.1.049 3.199.005 3.198.005-.65.655c-.771.779-.767.773-.767 1.105 0 .182.006.223.049.31a.899.899 0 0 0 .356.362c.105.053.133.058.325.058.352 0 .245.087 1.78-1.449 1.537-1.536 1.45-1.429 1.45-1.781 0-.352.087-.245-1.45-1.781-1.52-1.52-1.427-1.444-1.76-1.453a.785.785 0 0 0-.262.022Z" clip-rule="evenodd"/>
</svg>
