<svg xmlns="http://www.w3.org/2000/svg" width="24" height="24" fill="none" viewBox="0 0 24 24">
  <path fill="#161C24" fill-rule="evenodd" d="M4.04 1.792a3.001 3.001 0 0 0-1.064.422A2.767 2.767 0 0 0 1.79 4.055c-.026.155-.03 1.054-.03 7.945 0 8.486-.008 7.878.11 8.295.057.194.224.55.347.735a2.777 2.777 0 0 0 1.838 1.179c.155.027 1.053.031 7.935.031 8.448 0 7.89.007 8.3-.11a3.42 3.42 0 0 0 .74-.347 2.777 2.777 0 0 0 1.179-1.838c.027-.155.03-1.054.03-7.945 0-8.486.009-7.878-.11-8.295a3.402 3.402 0 0 0-.343-.729 2.767 2.767 0 0 0-1.841-1.185c-.155-.027-1.05-.031-7.965-.029-6.486.002-7.815.007-7.94.03Zm15.78 1.493c.357.111.652.354.797.659a2 2 0 0 1 .106.276c.04.164.04 15.396 0 15.56a1.3 1.3 0 0 1-.943.943c-.164.04-15.396.04-15.56 0a1.3 1.3 0 0 1-.943-.943c-.04-.164-.04-15.396 0-15.56a1.275 1.275 0 0 1 1.063-.959c.072-.009 3.559-.015 7.75-.013 7.123.002 7.627.005 7.73.037Zm-8.076 6.012a.781.781 0 0 0-.19.105 513.17 513.17 0 0 0-4.632 4.128c-.122.14-.152.233-.152.47 0 .189.006.221.055.322a.925.925 0 0 0 .37.364c.079.036.13.044.305.044.188 0 .22-.006.32-.054.08-.04.66-.545 2.135-1.855A140.282 140.282 0 0 1 12 11.02c.01 0 .93.81 2.045 1.801 1.474 1.31 2.055 1.815 2.135 1.855.099.048.132.054.32.054.174 0 .226-.008.305-.044a.925.925 0 0 0 .37-.364c.049-.101.055-.133.055-.322 0-.188-.006-.222-.054-.32a1.044 1.044 0 0 0-.17-.224 360.97 360.97 0 0 0-2.346-2.095c-1.62-1.44-2.26-1.997-2.34-2.036a.883.883 0 0 0-.576-.028Z" clip-rule="evenodd"/>
</svg>
