<svg xmlns="http://www.w3.org/2000/svg" width="24" height="24" fill="none" viewBox="0 0 24 24">
  <path fill="#161C24" fill-rule="evenodd" d="M11.758 2.288a1.22 1.22 0 0 0-.16.082c-.048.03-1.016.982-2.149 2.117C7.094 6.844 7.27 6.641 7.27 7c0 .182.006.223.05.31a.899.899 0 0 0 .355.362c.105.053.133.058.325.058.357 0 .191.14 2.225-1.888L12 4.071l1.775 1.771C15.81 7.87 15.643 7.73 16 7.73c.192 0 .22-.005.325-.058a.899.899 0 0 0 .356-.362c.043-.087.05-.128.05-.31 0-.36.178-.153-2.2-2.531-2.358-2.358-2.17-2.194-2.51-2.203a.785.785 0 0 0-.263.022Zm-.218 7.004a3.001 3.001 0 0 0-1.064.422 2.767 2.767 0 0 0-1.185 1.841c-.04.226-.04.664 0 .89.066.381.222.777.426 1.085a2.777 2.777 0 0 0 1.838 1.179c.361.063.847.032 1.236-.079.196-.056.554-.224.733-.344a2.767 2.767 0 0 0 1.185-1.841c.04-.226.04-.664 0-.89a2.948 2.948 0 0 0-.426-1.085 2.777 2.777 0 0 0-1.838-1.179 3.56 3.56 0 0 0-.905.001Zm.75 1.491c.055.012.175.057.266.1.131.063.2.113.324.237.251.251.365.526.365.88 0 .223-.029.347-.128.556-.11.234-.327.45-.56.561a1.108 1.108 0 0 1-.557.128c-.223 0-.347-.029-.556-.128a1.239 1.239 0 0 1-.56-.561 1.108 1.108 0 0 1-.129-.556c0-.224.03-.347.13-.558a.999.999 0 0 1 .232-.321c.321-.318.717-.432 1.173-.338Zm-4.532 5.505a.856.856 0 0 0-.439.402c-.043.087-.049.127-.049.31 0 .36-.179.153 2.2 2.531 2.377 2.378 2.17 2.199 2.53 2.199.36 0 .153.179 2.531-2.199 2.378-2.378 2.2-2.171 2.2-2.531 0-.182-.007-.223-.05-.31a.899.899 0 0 0-.356-.362c-.105-.053-.133-.058-.325-.058-.357 0-.19-.14-2.225 1.888L12 19.929l-1.775-1.771c-2.016-2.011-1.869-1.885-2.205-1.892a.843.843 0 0 0-.262.022Z" clip-rule="evenodd"/>
</svg>
