<svg xmlns="http://www.w3.org/2000/svg" width="24" height="24" fill="none" viewBox="0 0 24 24">
  <path fill="#161C24" fill-rule="evenodd" d="M1.25 12C1.25 6.063 6.063 1.25 12 1.25S22.75 6.063 22.75 12 17.937 22.75 12 22.75 1.25 17.937 1.25 12Zm11.151-3.702 2.92-.973c.886-.296 1.33-.443 1.564-.21.233.234.086.677-.21 1.564l-.973 2.92c-.503 1.51-.755 2.265-1.297 2.806-.541.542-1.296.794-2.806 1.297l-2.92.973c-.887.296-1.33.444-1.564.21-.233-.234-.086-.678.21-1.564l.973-2.92c.503-1.51.755-2.265 1.297-2.806.541-.542 1.296-.794 2.806-1.297Zm.307 2.994c.39.39.39 1.02 0 1.41l-.006.006a.997.997 0 1 1-1.41-1.41l.006-.006a.997.997 0 0 1 1.41 0Z" clip-rule="evenodd"/>
</svg>
