<svg xmlns="http://www.w3.org/2000/svg" width="24" height="24" fill="none" viewBox="0 0 24 24">
  <path fill="#161C24" fill-rule="evenodd" d="M5 4a1 1 0 0 0-1 1v3.5a1 1 0 0 1-2 0V5a3 3 0 0 1 3-3h3.5a1 1 0 0 1 0 2H5Zm9.5-1a1 1 0 0 1 1-1H19a3 3 0 0 1 3 3v3.5a1 1 0 1 1-2 0V5a1 1 0 0 0-1-1h-3.5a1 1 0 0 1-1-1ZM3 14.5a1 1 0 0 1 1 1V19a1 1 0 0 0 1 1h3.5a1 1 0 1 1 0 2H5a3 3 0 0 1-3-3v-3.5a1 1 0 0 1 1-1Zm18 0a1 1 0 0 1 1 1V19a3 3 0 0 1-3 3h-3.5a1 1 0 1 1 0-2H19a1 1 0 0 0 1-1v-3.5a1 1 0 0 1 1-1Z" clip-rule="evenodd"/>
</svg>
