<svg xmlns="http://www.w3.org/2000/svg" width="24" height="24" fill="none" viewBox="0 0 24 24">
  <path fill="#161C24" fill-rule="evenodd" d="M13.023 4.424a4.564 4.564 0 0 1 6.625 0c1.803 1.877 1.803 4.904 0 6.78l-3.24 3.372a4.693 4.693 0 0 1-.927.748 4.56 4.56 0 0 1-5.698-.748 4.806 4.806 0 0 1-.636-.826 1 1 0 0 1 1.707-1.042c.104.17.228.333.371.482a2.56 2.56 0 0 0 3.21.43c.187-.115.366-.258.531-.43l3.24-3.371c1.059-1.103 1.059-2.906 0-4.009a2.564 2.564 0 0 0-3.741 0l-.714.743a1 1 0 0 1-1.442-1.386l.714-.743Z" clip-rule="evenodd"/>
  <path fill="#161C24" fill-rule="evenodd" d="M7.592 9.424a4.564 4.564 0 0 1 6.625 0c.245.256.458.533.636.826a1 1 0 1 1-1.706 1.042 2.814 2.814 0 0 0-.372-.482 2.565 2.565 0 0 0-3.741 0l-3.24 3.371c-1.059 1.103-1.059 2.906 0 4.009a2.565 2.565 0 0 0 3.741 0l.714-.743a1 1 0 0 1 1.442 1.386l-.713.743a4.564 4.564 0 0 1-6.626 0c-1.803-1.877-1.803-4.904 0-6.78l3.24-3.372Z" clip-rule="evenodd"/>
</svg>
