<svg xmlns="http://www.w3.org/2000/svg" width="24" height="24" fill="none" viewBox="0 0 24 24">
  <path fill="#161C24" fill-rule="evenodd" d="M12 2a1 1 0 0 1 1 1v3a1 1 0 1 1-2 0V3a1 1 0 0 1 1-1Zm0 15a1 1 0 0 1 1 1v3a1 1 0 1 1-2 0v-3a1 1 0 0 1 1-1Zm5-5a1 1 0 0 1 1-1h3a1 1 0 1 1 0 2h-3a1 1 0 0 1-1-1ZM2 12a1 1 0 0 1 1-1h3a1 1 0 1 1 0 2H3a1 1 0 0 1-1-1Zm17.07-7.07a1 1 0 0 1 0 1.414l-2.12 2.121a1 1 0 1 1-1.415-1.414l2.121-2.121a1 1 0 0 1 1.415 0ZM8.465 15.535a1 1 0 0 1 0 1.414l-2.121 2.122a1 1 0 0 1-1.414-1.415l2.12-2.12a1 1 0 0 1 1.415 0Zm7.07 0a1 1 0 0 1 1.414 0l2.122 2.121a1 1 0 0 1-1.415 1.415l-2.12-2.122a1 1 0 0 1 0-1.414ZM4.93 4.93a1 1 0 0 1 1.414 0l2.121 2.12a1 1 0 0 1-1.414 1.415L4.93 6.344a1 1 0 0 1 0-1.414Z" clip-rule="evenodd"/>
</svg>
