<svg xmlns="http://www.w3.org/2000/svg" width="24" height="24" fill="none" viewBox="0 0 24 24">
  <path fill="#161C24" fill-rule="evenodd" d="M14.36 3.342a.75.75 0 0 1 .39.658v16a.75.75 0 0 1-1.156.63L6.78 16.25H4a2.75 2.75 0 0 1-2.75-2.75v-3A2.75 2.75 0 0 1 4 7.75h2.78l6.814-4.38a.75.75 0 0 1 .765-.028Zm2.033 4.863a1 1 0 0 1 1.402.188A5.934 5.934 0 0 1 19 12a5.934 5.934 0 0 1-1.205 3.607 1 1 0 0 1-1.59-1.213A3.934 3.934 0 0 0 17 12c0-.915-.3-1.746-.795-2.393a1 1 0 0 1 .189-1.402Z" clip-rule="evenodd"/>
  <path fill="#161C24" fill-rule="evenodd" d="M19.325 6.262a1 1 0 0 1 1.413.063C22.14 7.857 23 9.832 23 12c0 2.168-.86 4.143-2.262 5.675a1 1 0 0 1-1.476-1.35C20.361 15.125 21 13.62 21 12s-.64-3.125-1.738-4.325a1 1 0 0 1 .063-1.413Z" clip-rule="evenodd"/>
</svg>
