<svg xmlns="http://www.w3.org/2000/svg" width="25" height="24" fill="none" viewBox="0 0 25 24">
  <path fill="#161C24" fill-rule="evenodd" d="M13.161 14.394a1 1 0 0 1-.887 1.1c-.831.09-1.679.492-2.4 1.213a1 1 0 0 1-1.414-1.414c1.012-1.012 2.273-1.645 3.6-1.787a1 1 0 0 1 1.101.888ZM5.46 11.792c3.44-3.441 7.867-4.243 11.69-2.136a1 1 0 1 1-.966 1.751c-2.932-1.616-6.405-1.106-9.31 1.8a1 1 0 0 1-1.414-1.415Z" clip-rule="evenodd"/>
  <path fill="#161C24" fill-rule="evenodd" d="M12.667 3.5c3.695 0 7.338 1.443 10.645 4.236a1 1 0 0 1-1.29 1.528C19.013 6.724 15.814 5.5 12.667 5.5c-3.147 0-6.346 1.223-9.355 3.764a1 1 0 0 1-1.29-1.528C5.329 4.943 8.972 3.5 12.667 3.5Zm2.293 9.293a1 1 0 0 1 1.414 0l2.293 2.293 2.293-2.293a1 1 0 0 1 1.414 1.414L20.081 16.5l2.293 2.293a1 1 0 0 1-1.414 1.414l-2.293-2.293-2.293 2.293a1 1 0 0 1-1.414-1.414l2.293-2.293-2.293-2.293a1 1 0 0 1 0-1.414Z" clip-rule="evenodd"/>
</svg>
