<svg xmlns="http://www.w3.org/2000/svg" width="24" height="24" fill="none" viewBox="0 0 24 24">
  <path fill="#161C24" fill-rule="evenodd" d="M10.372 16.724c1.29-1.058 2.961-2.591 4.317-3.939 2.215-2.2 4.066-4.372 5.266-6.116.597-.866 1.056-1.658 1.31-2.313.126-.325.22-.66.233-.976.014-.315-.05-.715-.36-1.023-.308-.307-.708-.369-1.022-.355-.316.013-.65.105-.977.23-.659.253-1.456.708-2.328 1.3-1.754 1.193-3.941 3.032-6.156 5.232-1.357 1.348-2.902 3.008-3.966 4.29a3.909 3.909 0 0 0-2.98 1.131c-.541.538-.866 1.08-1.046 1.645-.176.553-.195 1.448-.195 1.93.008.827.016 1.594-.407 2.575a.75.75 0 0 0 .543 1.032c.794.158 1.687.155 2.343.105 1.295-.1 2.99-.5 4.285-1.787a3.866 3.866 0 0 0 1.14-2.961Zm.57-6.118 1.9 1.887a67.292 67.292 0 0 1-2.907 2.642 3.907 3.907 0 0 0-1.65-1.644 67.348 67.348 0 0 1 2.657-2.885Z" clip-rule="evenodd"/>
</svg>
