<svg xmlns="http://www.w3.org/2000/svg" width="24" height="24" fill="none" viewBox="0 0 24 24">
  <path fill="#161C24" fill-rule="evenodd" d="M3.62 2.291a1.735 1.735 0 0 0-1.174.9c-.178.343-.212.64-.168 1.481.21 3.992 1.073 7.177 2.647 9.768 2.623 4.318 7.186 6.749 13.565 7.228 1.16.087 1.74.091 2.01.013a1.76 1.76 0 0 0 1.07-.908c.171-.356.16-.186.16-2.443v-2l-.047-.15a1.764 1.764 0 0 0-.9-1.079 176.112 176.112 0 0 0-3.597-1.592 1.792 1.792 0 0 0-1.439.174c-.06.037-.588.466-1.173.954-.585.488-1.09.904-1.124.925a.256.256 0 0 1-.114.038c-.06 0-.4-.152-.896-.4-1.906-.954-2.756-1.829-3.74-3.846-.269-.551-.312-.662-.293-.74.008-.03.398-.516.868-1.079 1.077-1.292 1.073-1.288 1.185-1.578.127-.331.143-.767.04-1.108-.04-.13-1.444-3.315-1.595-3.619-.22-.443-.58-.748-1.075-.913l-.14-.047-1.97-.004c-1.63-.003-1.992.001-2.1.025Zm10.138-.003a.856.856 0 0 0-.439.402l-.049.1v3.42l.05.1a.899.899 0 0 0 .355.362c.105.053.133.058.325.058s.22-.005.325-.058a.899.899 0 0 0 .356-.362l.05-.1V2.79l-.05-.1a.894.894 0 0 0-.355-.361c-.099-.05-.14-.059-.305-.063a.785.785 0 0 0-.263.022ZM7.401 3.76c.04.011.091.04.113.065.05.052 1.521 3.345 1.551 3.467.016.064.014.096-.009.142-.016.032-.41.517-.878 1.077-.98 1.176-.95 1.141-1.044 1.3a1.633 1.633 0 0 0-.222.869c.002.357.045.499.337 1.12 1.21 2.566 2.373 3.731 4.947 4.948.595.282.817.35 1.135.352.266.001.625-.097.858-.234.16-.093.124-.065 1.294-1.039.556-.464 1.04-.858 1.074-.875a.277.277 0 0 1 .104-.032c.024 0 .815.342 1.756.76 1.29.572 1.726.775 1.767.819a.298.298 0 0 1 .066.145c.006.047.01.844.006 1.77-.006 1.673-.006 1.683-.048 1.74-.069.093-.134.102-.588.083a25.996 25.996 0 0 1-3.967-.458c-4.139-.828-7.18-2.708-9.153-5.659-1.536-2.298-2.432-5.261-2.689-8.89-.046-.648-.068-1.249-.048-1.321a.203.203 0 0 1 .15-.148c.082-.025 3.4-.026 3.488-.001Zm11.357.528a1.22 1.22 0 0 0-.16.082c-.048.03-.565.532-1.149 1.117C16.216 6.722 16.27 6.653 16.27 7c0 .192.005.22.058.325.07.137.223.288.362.356.087.043.128.049.31.049.348 0 .276.057 1.531-1.199 1.256-1.255 1.2-1.183 1.2-1.531 0-.182-.007-.223-.05-.31a.899.899 0 0 0-.356-.362c-.1-.05-.14-.059-.305-.062a.843.843 0 0 0-.262.022Zm-1 5.001a.853.853 0 0 0-.439.401c-.043.087-.049.127-.049.31 0 .192.005.22.058.325.07.137.223.288.362.356l.1.049h3.42l.1-.049a.899.899 0 0 0 .362-.356c.053-.105.058-.133.058-.325s-.005-.22-.058-.325a.899.899 0 0 0-.362-.356l-.1-.049-1.69-.004c-1.37-.003-1.704.001-1.762.023Z" clip-rule="evenodd"/>
</svg>
