<svg xmlns="http://www.w3.org/2000/svg" width="24" height="24" fill="none" viewBox="0 0 24 24">
  <path fill="#161C24" fill-rule="evenodd" d="M3.54 1.292a2.994 2.994 0 0 0-1.064.422 2.764 2.764 0 0 0-1.187 1.853c-.027.163-.03.889-.024 6.513.006 6.004.008 6.338.042 6.48.116.487.32.892.629 1.247.359.414.898.742 1.414.859l.2.045c.033.008.429.02.88.027l.82.012.01.81c.013.842.013.838.106 1.091a1.742 1.742 0 0 0 1.714 1.122c.334-.018.6-.104.88-.284.07-.046.953-.683 1.96-1.416l1.83-1.332 4.235-.001c4.534 0 4.413.002 4.755-.097a2.773 2.773 0 0 0 1.689-1.367c.107-.201.213-.496.265-.736.034-.162.036-.46.036-6.54 0-6.073-.002-6.378-.036-6.54-.08-.367-.22-.7-.426-1.003-.402-.59-.972-.974-1.708-1.15-.143-.034-.544-.036-8.51-.039-6.998-.003-8.384.001-8.51.024Zm16.592 1.467a1.26 1.26 0 0 1 1.062.867l.056.164.006 6.06c.004 4.005-.001 6.124-.015 6.25a1.187 1.187 0 0 1-.378.794 1.15 1.15 0 0 1-.507.3l-.161.046h-4.332c-2.532.001-4.386.008-4.46.019a.908.908 0 0 0-.23.07c-.057.028-.976.686-2.043 1.463-1.067.777-1.967 1.43-2 1.451-.13.08-.316.016-.364-.124-.017-.05-.024-.373-.026-1.169-.001-1.001-.005-1.109-.037-1.203a.772.772 0 0 0-.43-.445l-.123-.052-1.22-.011c-1.208-.011-1.221-.011-1.344-.057a1.322 1.322 0 0 1-.781-.81l-.055-.162v-6.19c0-5.134.005-6.209.027-6.3a1.274 1.274 0 0 1 1.063-.959c.19-.023 16.095-.025 16.292-.002ZM9.33 6.76l-1.54.01-.11.057a.783.783 0 0 0-.346.353c-.058.118-.064.146-.064.32 0 .174.006.202.064.32a.783.783 0 0 0 .346.353l.11.057h3.9l.134-.066a.806.806 0 0 0 .356-.356c.044-.086.05-.124.05-.308 0-.188-.006-.222-.054-.321a.836.836 0 0 0-.351-.353c-.143-.067-.3-.086-.655-.081l-1.84.015Zm-1.443 5a.776.776 0 0 0-.565.42c-.046.096-.052.136-.052.32 0 .182.006.223.049.31a.836.836 0 0 0 .367.363l.124.057h7.88l.134-.066a.806.806 0 0 0 .356-.356c.044-.086.05-.124.05-.308 0-.188-.006-.222-.054-.321a.766.766 0 0 0-.581-.42c-.15-.022-7.56-.021-7.708.001Z" clip-rule="evenodd"/>
</svg>
