<svg xmlns="http://www.w3.org/2000/svg" width="24" height="24" fill="none" viewBox="0 0 24 24">
  <path fill="#161C24" fill-rule="evenodd" d="M3.54 3.292a3.001 3.001 0 0 0-1.064.422A2.767 2.767 0 0 0 1.29 5.555c-.027.155-.031.902-.031 6.445 0 6.842-.007 6.38.11 6.795.057.194.224.55.347.735a2.777 2.777 0 0 0 1.838 1.179c.155.027 1.104.031 8.435.031 8.994 0 8.39.007 8.8-.11a3.42 3.42 0 0 0 .74-.347 2.777 2.777 0 0 0 1.179-1.838c.027-.155.03-.902.03-6.445 0-6.842.008-6.38-.11-6.795a3.402 3.402 0 0 0-.343-.729 2.767 2.767 0 0 0-1.841-1.185c-.155-.027-1.101-.031-8.465-.029-6.908.002-8.315.007-8.44.03Zm16.78 1.493c.357.111.652.354.797.659.144.303.133-.253.133 6.556 0 5.117-.005 6.189-.027 6.28a1.3 1.3 0 0 1-.943.943c-.164.04-16.396.04-16.56 0a1.3 1.3 0 0 1-.837-.667c-.144-.303-.133.253-.133-6.556 0-5.117.005-6.189.027-6.28a1.275 1.275 0 0 1 1.063-.959c.07-.009 3.784-.015 8.25-.013 7.596.002 8.127.005 8.23.037ZM5.743 7.3a.753.753 0 0 0-.417.378c-.05.101-.055.133-.056.322 0 .194.005.219.06.328a.775.775 0 0 0 .17.215c.116.104 5.053 2.998 5.34 3.131.383.178.719.25 1.16.25.44 0 .777-.072 1.16-.25.287-.133 5.224-3.027 5.34-3.131a.775.775 0 0 0 .17-.215c.056-.109.06-.134.059-.328-.001-.249-.033-.336-.188-.505a.66.66 0 0 0-.505-.231.704.704 0 0 0-.26.021c-.048.016-1.225.694-2.616 1.506a148.507 148.507 0 0 1-2.677 1.541 1.22 1.22 0 0 1-.966 0c-.081-.036-1.285-.729-2.676-1.54a148.5 148.5 0 0 0-2.607-1.504.933.933 0 0 0-.491.012Z" clip-rule="evenodd"/>
</svg>
