<svg xmlns="http://www.w3.org/2000/svg" width="24" height="24" fill="none" viewBox="0 0 24 24">
  <path fill="#161C24" fill-rule="evenodd" d="M11.01 1.272c-2.191.105-4.169.482-5.68 1.083-.673.269-1.665.744-2.1 1.007-1.091.659-1.815 1.843-1.95 3.188-.015.142-.02.65-.016 1.44l.006 1.22.058.115c.07.137.223.288.362.356.087.043.127.049.31.048h.21l1.93-.765c1.062-.421 2.002-.801 2.09-.844.264-.128.468-.276.701-.509.39-.389.633-.828.761-1.371.032-.133.037-.31.047-1.6l.011-1.45.21-.044a19.234 19.234 0 0 1 3.435-.384c1.603-.046 3.247.09 4.645.384l.21.044.011 1.45c.01 1.29.015 1.467.047 1.6.128.543.371.982.761 1.371.233.233.437.381.701.509.088.043 1.029.423 2.09.844l1.93.765H22c.183.001.223-.005.31-.048a.899.899 0 0 0 .362-.356l.058-.115.006-1.22c.004-.79-.001-1.298-.016-1.44-.102-1.021-.561-1.989-1.262-2.66-.372-.356-.654-.537-1.488-.95-1.05-.521-1.853-.828-2.8-1.07-1.105-.283-2.179-.453-3.54-.562a47.35 47.35 0 0 0-2.62-.036ZM6.255 4.735c-.008 1.241-.006 1.216-.15 1.504a1.385 1.385 0 0 1-.495.515c-.142.074-2.801 1.126-2.845 1.126-.027 0-.029-.068-.019-.585.007-.4.021-.642.043-.765.153-.864.594-1.526 1.284-1.927.199-.115.963-.494 1.277-.633.298-.132.847-.349.886-.349.022-.001.025.201.019 1.114Zm11.669-1.062c.617.222 1.797.785 2.179 1.039.563.374.972 1.045 1.108 1.818.032.182.068 1.273.043 1.336-.009.023-.293-.082-1.388-.514-.757-.3-1.426-.57-1.486-.602a1.436 1.436 0 0 1-.485-.511c-.144-.288-.142-.263-.15-1.504-.005-.741-.001-1.115.012-1.115.012 0 .086.024.167.053Zm-8.394 4.6a1.783 1.783 0 0 0-1.342 1.1c-.027.073-.116.461-.197.862-.08.4-.154.735-.164.743-.009.009-.877.405-1.927.882-2.093.949-2.243 1.02-2.45 1.16a2.799 2.799 0 0 0-1.154 1.76c-.021.103-.026.693-.026 2.83v2.7l.045.156c.049.168.153.39.252.534.212.312.58.573.967.685l.156.045h16.62l.156-.045a1.784 1.784 0 0 0 1.218-1.209l.046-.146.006-2.63c.004-1.78-.001-2.683-.016-2.793a2.77 2.77 0 0 0-1.088-1.83c-.23-.169-.405-.253-2.532-1.218a154.18 154.18 0 0 1-1.927-.881c-.01-.008-.084-.343-.164-.743-.081-.401-.17-.789-.197-.862-.186-.494-.607-.881-1.152-1.06-.13-.042-.139-.042-2.61-.046-1.364-.001-2.498.001-2.52.006Zm4.784 1.519a.314.314 0 0 1 .081.092c.014.028.106.455.206.948.126.626.195.928.229.998a.769.769 0 0 0 .235.277c.036.027 1.06.5 2.275 1.052 1.215.552 2.258 1.032 2.317 1.067.172.103.376.332.463.522.138.297.13.129.13 2.853 0 2.327-.002 2.474-.035 2.525a.417.417 0 0 1-.089.089c-.052.033-.448.035-8.126.035-7.678 0-8.074-.002-8.126-.035a.417.417 0 0 1-.089-.089c-.033-.051-.035-.198-.035-2.525 0-2.728-.008-2.556.132-2.858a.909.909 0 0 1 .233-.321c.085-.085.204-.182.265-.216.061-.034 1.095-.509 2.3-1.056 1.205-.547 2.219-1.016 2.255-1.043a.756.756 0 0 0 .234-.277c.034-.069.105-.378.229-.991.099-.49.188-.913.199-.94a.236.236 0 0 1 .167-.14 90.683 90.683 0 0 1 2.28-.012c2.211.003 2.213.003 2.27.045Zm-2.774 3.5a3.001 3.001 0 0 0-1.064.422 2.768 2.768 0 0 0-1.185 1.841c-.04.226-.04.664 0 .89.066.381.222.777.426 1.085a2.777 2.777 0 0 0 1.838 1.179c.361.063.847.032 1.236-.079.196-.056.554-.224.733-.344a2.767 2.767 0 0 0 1.185-1.841c.04-.226.04-.664 0-.89a2.948 2.948 0 0 0-.426-1.085 2.777 2.777 0 0 0-1.838-1.179 3.56 3.56 0 0 0-.905.001Zm.75 1.491c.055.012.175.057.266.1.131.063.2.113.324.237.251.251.365.526.365.88 0 .223-.029.347-.128.556-.111.234-.327.45-.561.561a1.108 1.108 0 0 1-.556.128c-.223 0-.347-.029-.556-.128a1.239 1.239 0 0 1-.561-.561 1.108 1.108 0 0 1-.128-.556c0-.224.029-.347.129-.558a.999.999 0 0 1 .233-.321c.321-.318.717-.432 1.173-.338Z" clip-rule="evenodd"/>
</svg>
