<svg xmlns="http://www.w3.org/2000/svg" width="24" height="24" fill="none" viewBox="0 0 24 24">
  <path fill="#161C24" fill-rule="evenodd" d="M13.97 2.073a33.767 33.767 0 0 0-4.43 0c-4.565.303-8.2 3.988-8.498 8.6a20.502 20.502 0 0 0 0 2.616c.111 1.72.838 3.206 1.69 4.519.288.542.2 1.058-.345 2.09a15.54 15.54 0 0 1-.241.437l-.026.046a3.598 3.598 0 0 0-.198.386 1.16 1.16 0 0 0-.09.587c.027.22.117.394.186.51a1.185 1.185 0 0 0 .822.576c.257.055.575.058.9.058 1.415.033 2.413-.377 3.204-.96.16-.118.27-.198.35-.254.076.029.166.066.287.117l.227.094a5.62 5.62 0 0 0 1.722.394c1.457.097 2.98.097 4.44 0 4.567-.304 8.19-3.99 8.488-8.6.056-.862.056-1.754 0-2.617-.298-4.61-3.921-8.296-8.488-8.6ZM8.25 9a.75.75 0 0 0 0 1.5h3.5a.75.75 0 0 0 0-1.5h-3.5Zm0 5a.75.75 0 0 0 0 1.5h7a.75.75 0 0 0 0-1.5h-7Z" clip-rule="evenodd"/>
</svg>
