<svg xmlns="http://www.w3.org/2000/svg" width="24" height="24" fill="none" viewBox="0 0 24 24">
  <path fill="#161C24" d="M21.486 10.502a.75.75 0 0 1 .776.573c.104.433.172.88.202 1.338a17.13 17.13 0 0 1 0 2.22c-.096 1.474-.743 2.796-1.454 3.862-.178.347-.096.9.297 1.637l.02.038c.131.247.266.499.344.716.084.232.18.628-.053 1.023-.213.36-.551.487-.81.536-.211.04-.468.047-.698.052l-.041.001c-1.232.03-2.105-.323-2.798-.829a20.179 20.179 0 0 0-.245-.178 19.89 19.89 0 0 0-.385.154 4.924 4.924 0 0 1-1.497.34 29.205 29.205 0 0 1-3.788 0 7.805 7.805 0 0 1-4.043-1.446.75.75 0 0 1 .588-1.345c1.899.39 4.934.46 7.58-.616 2.588-1.053 4.836-3.208 5.306-7.411a.75.75 0 0 1 .699-.665Z"/>
  <path fill="#161C24" fill-rule="evenodd" d="M12.144 1.061a29.219 29.219 0 0 0-3.788 0c-3.934.26-7.063 3.407-7.32 7.352a17.23 17.23 0 0 0 0 2.22c.096 1.474.743 2.796 1.454 3.862.178.347.096.9-.297 1.637l-.02.038a5.96 5.96 0 0 0-.344.716c-.083.232-.18.628.053 1.023a1.127 1.127 0 0 0 .772.538c.231.05.514.051.787.052 1.226.027 2.097-.325 2.788-.83.106-.078.184-.135.245-.178.093.035.215.085.385.154a4.925 4.925 0 0 0 1.497.34c1.243.082 2.542.082 3.788 0 3.934-.259 7.063-3.406 7.32-7.352a17.13 17.13 0 0 0 0-2.22c-.257-3.945-3.386-7.092-7.32-7.352ZM6.75 7a.75.75 0 0 0 0 1.5h4a.75.75 0 0 0 0-1.5h-4Zm0 5.5h7a.75.75 0 0 0 0-1.5h-7a.75.75 0 0 0 0 1.5Z" clip-rule="evenodd"/>
</svg>
