<svg xmlns="http://www.w3.org/2000/svg" width="24" height="24" fill="none" viewBox="0 0 24 24">
  <path fill="#161C24" fill-rule="evenodd" d="M2.25 4c0-.967.784-1.75 1.75-1.75h16c.966 0 1.75.783 1.75 1.75v2A1.75 1.75 0 0 1 20 7.75H4A1.75 1.75 0 0 1 2.25 6V4Zm3 1A.75.75 0 0 1 6 4.25h.01a.75.75 0 0 1 0 1.5H6A.75.75 0 0 1 5.25 5ZM9 4.25a.75.75 0 0 0 0 1.5h.01a.75.75 0 0 0 0-1.5H9ZM2.25 11c0-.967.784-1.75 1.75-1.75h16c.966 0 1.75.783 1.75 1.75v2A1.75 1.75 0 0 1 20 14.75H4A1.75 1.75 0 0 1 2.25 13v-2Zm3 1a.75.75 0 0 1 .75-.75h.01a.75.75 0 0 1 0 1.5H6a.75.75 0 0 1-.75-.75ZM9 11.25a.75.75 0 0 0 0 1.5h.01a.75.75 0 0 0 0-1.5H9ZM2.25 18c0-.967.784-1.75 1.75-1.75h16c.966 0 1.75.783 1.75 1.75v2A1.75 1.75 0 0 1 20 21.75H4A1.75 1.75 0 0 1 2.25 20v-2Zm3 1a.75.75 0 0 1 .75-.75h.01a.75.75 0 0 1 0 1.5H6a.75.75 0 0 1-.75-.75ZM9 18.25a.75.75 0 0 0 0 1.5h.01a.75.75 0 0 0 0-1.5H9Z" clip-rule="evenodd"/>
</svg>
