<svg width="512" height="512" viewBox="0 0 512 512" fill="none" xmlns="http://www.w3.org/2000/svg">
<g clip-path="url(#clip0_24_303)">
<path d="M72.2308 210.647C82.2397 210.647 90.3536 218.761 90.3536 228.77V301H18.1227C8.11381 301 0 292.886 0 282.877V262.652C0 252.643 8.11381 244.529 18.1227 244.529H37.6474V273.234C37.6474 276.094 39.9658 278.412 42.8253 278.412H52.7061V238.413C52.7061 235.553 50.3877 233.236 47.5282 233.235H1.29448V210.647H72.2308ZM158.116 278.412L158.117 173H195.765V301H123.535C113.526 301 105.412 292.886 105.412 282.877V228.77C105.412 218.761 113.526 210.647 123.535 210.647H143.057V273.234C143.057 276.094 145.376 278.412 148.235 278.412H158.116ZM263.528 278.412V210.647H301.177V320.519C301.177 330.528 293.063 338.642 283.054 338.642H212.118V312.294H263.529V301H228.946C218.937 301 210.823 292.886 210.823 282.877V210.647H248.469V273.234C248.469 276.094 250.788 278.412 253.647 278.412H263.528ZM388.465 210.647C398.474 210.647 406.588 218.761 406.588 228.77V248.995C406.588 259.004 398.474 267.118 388.465 267.118H368.94V238.414C368.94 235.555 366.623 233.236 363.762 233.236H353.882V273.234C353.882 276.094 356.2 278.412 359.06 278.412H405.293V301H334.358C324.349 301 316.235 292.886 316.235 282.877V210.647H388.465ZM493.877 210.647C503.886 210.647 512 218.761 512 228.77V301H474.353V238.413C474.353 235.565 472.023 233.235 469.175 233.235H459.294V301H421.646V210.647H493.877Z" fill="#32AA52"/>
</g>
<defs>
<clipPath id="clip0_24_303">
<rect width="512" height="166" fill="white" transform="translate(0 173)"/>
</clipPath>
</defs>
</svg>
