<svg width="512" height="512" viewBox="0 0 512 512" fill="none" xmlns="http://www.w3.org/2000/svg">
<path d="M331.207 82.0483C313.041 103.544 283.976 120.499 254.911 118.077C251.278 89.0118 265.508 58.1301 282.16 39.0562C300.325 16.9546 332.115 1.21104 357.85 0C360.877 30.2761 349.07 59.9467 331.207 82.0483ZM357.547 123.829C315.463 121.407 279.435 147.747 259.452 147.747C239.167 147.747 208.589 125.04 175.285 125.646C131.99 126.251 91.7228 150.775 69.6212 189.831C24.2071 267.944 57.8135 383.598 101.714 447.178C123.21 478.665 148.945 513.18 182.854 511.969C214.947 510.758 227.663 491.078 266.416 491.078C305.472 491.078 316.674 511.969 350.584 511.363C385.704 510.758 407.805 479.876 429.301 448.389C453.825 412.663 463.816 377.846 464.422 376.029C463.816 375.424 396.603 349.689 395.998 272.182C395.392 207.391 448.981 176.51 451.403 174.693C421.127 129.885 373.896 125.04 357.547 123.829Z" fill="black"/>
</svg>
