<svg width="512" height="512" viewBox="0 0 512 512" fill="none" xmlns="http://www.w3.org/2000/svg">
<g clip-path="url(#clip0_104_473)">
<path d="M481.656 102.198C495.511 102.198 506.783 113.47 506.783 127.325V385.233C506.783 399.087 495.512 410.36 481.656 410.36H29.9101C16.0557 410.36 4.78336 399.088 4.78336 385.233V127.325C4.78336 113.471 16.0547 102.198 29.9101 102.198H481.656ZM481.656 97.198H29.9101C13.2716 97.198 -0.216797 110.686 -0.216797 127.325V385.233C-0.216797 401.873 13.2716 415.36 29.9101 415.36H481.656C498.296 415.36 511.783 401.873 511.783 385.233V127.325C511.783 110.686 498.295 97.198 481.656 97.198Z" fill="#00B5E5"/>
<path d="M283.6 312.934C286.019 315.68 288.404 317.732 290.755 319.09C293.106 320.449 295.45 321.129 297.788 321.129C299.963 321.129 301.75 320.544 303.15 319.376C304.549 318.208 305.25 316.726 305.25 314.932C305.25 312.948 304.645 311.419 303.437 310.345C302.226 309.271 299.489 308.164 295.22 307.022C289.376 305.446 285.244 303.392 282.825 300.865C280.406 298.338 279.196 294.872 279.196 290.469C279.196 284.761 281.105 280.107 284.925 276.505C288.742 272.901 293.696 271.102 299.786 271.102C303.075 271.102 306.193 271.543 309.143 272.427C312.09 273.31 314.884 274.649 317.521 276.444L312.424 288.145C310.575 286.57 308.679 285.379 306.736 284.579C304.793 283.777 302.87 283.375 300.966 283.375C299.009 283.375 297.418 283.845 296.195 284.781C294.971 285.72 294.36 286.922 294.36 288.39C294.36 289.885 294.896 291.08 295.97 291.977C297.043 292.874 299.117 293.73 302.189 294.545L302.923 294.749C309.554 296.543 313.917 298.515 316.01 300.661C317.423 302.13 318.497 303.889 319.231 305.942C319.965 307.995 320.333 310.27 320.333 312.771C320.333 319.105 318.253 324.193 314.095 328.041C309.937 331.887 304.391 333.81 297.459 333.81C293.3 333.81 289.515 333.102 286.104 331.69C282.693 330.277 279.412 328.061 276.258 325.044L283.6 312.934Z" fill="#00AFD8"/>
<path d="M209.801 272.528V332.219H225.499V302.74C225.499 301.246 225.422 299.533 225.274 297.602C225.123 295.672 224.887 293.457 224.561 290.956C225.729 293.512 226.809 295.732 227.802 297.623C228.794 299.512 229.52 300.768 229.983 301.394L252.531 332.218H268.146V272.527H252.531V302.006C252.531 303.501 252.606 305.213 252.756 307.145C252.905 309.075 253.143 311.276 253.469 313.749C252.274 311.14 251.178 308.891 250.186 307.002C249.192 305.111 248.48 303.856 248.046 303.229L225.499 272.528H209.801Z" fill="#00AFD8"/>
<path d="M58.3719 286.636V332.219H74.6404V286.636H88.0139V272.528H44.9995V286.636H58.3719Z" fill="#00AFD8"/>
<path fill-rule="evenodd" clip-rule="evenodd" d="M95.9639 272.529V332.219H111.213V308.857L124.913 332.219H158.671L161.77 321.536H184.889L187.906 332.219H204.092L183.462 272.529H163.075L142.761 331.42L127.033 308.164C131.382 307.211 134.691 305.289 136.962 302.392C139.231 299.499 140.366 295.74 140.366 291.119C140.366 288.076 139.788 285.289 138.633 282.762C137.477 280.235 135.826 278.155 133.679 276.524C131.776 275.084 129.513 274.058 126.89 273.446C124.267 272.835 119.626 272.529 112.966 272.529H95.9639ZM114.23 300.742H111.214V285.045H114.475C118.037 285.045 120.572 285.676 122.08 286.941C123.589 288.204 124.343 290.331 124.343 293.321C124.343 295.877 123.534 297.752 121.916 298.947C120.298 300.143 117.737 300.742 114.23 300.742ZM165.277 309.917H181.464L175.388 290.223C175.198 289.625 174.94 288.661 174.613 287.328C174.287 285.997 173.866 284.285 173.349 282.191C172.995 283.659 172.649 285.058 172.31 286.39C171.97 287.721 171.623 288.999 171.27 290.222L165.277 309.917Z" fill="#00AFD8"/>
<path d="M329.468 272.529V332.219H345.329V308.776H364.858V295.972H345.329V285.617H366.041V272.529H329.468Z" fill="#00AFD8"/>
<path d="M374.89 332.219V272.529H411.462V285.617H390.749V295.972H410.28V308.776H390.749V318.845H411.462V332.219H374.89Z" fill="#00AFD8"/>
<path fill-rule="evenodd" clip-rule="evenodd" d="M422.226 272.529V332.219H437.475V308.857L451.175 332.219H469.564L453.295 308.164C457.644 307.211 460.952 305.289 463.223 302.392C465.491 299.499 466.627 295.74 466.627 291.119C466.627 288.076 466.048 285.289 464.894 282.762C463.739 280.235 462.088 278.155 459.94 276.524C458.039 275.084 455.775 274.058 453.152 273.446C450.529 272.835 445.888 272.529 439.229 272.529H422.226ZM440.493 300.742H437.475V285.045H440.738C444.299 285.045 446.833 285.676 448.342 286.941C449.851 288.204 450.605 290.331 450.605 293.321C450.605 295.877 449.795 297.752 448.178 298.947C446.561 300.143 444 300.742 440.493 300.742Z" fill="#00AFD8"/>
<path fill-rule="evenodd" clip-rule="evenodd" d="M144.314 182.118V261.707H166.767C175.826 261.707 182.351 261.399 186.338 260.782C190.325 260.165 193.677 259.133 196.395 257.683C199.729 255.908 202.293 253.408 204.087 250.181C205.881 246.957 206.778 243.223 206.778 238.982C206.778 233.075 205.182 228.355 201.994 224.821C198.805 221.287 194.383 219.303 188.73 218.868C193.766 217.491 197.436 215.471 199.738 212.807C202.039 210.143 203.19 206.546 203.19 202.015C203.19 198.427 202.42 195.265 200.879 192.529C199.338 189.792 197.101 187.609 194.166 185.978C191.592 184.564 188.52 183.568 184.951 182.988C181.382 182.409 175.102 182.118 166.114 182.118H144.314ZM168.778 213.921H164.429V197.883H169.104C174.504 197.883 178.138 198.491 180.005 199.704C181.871 200.919 182.804 203.03 182.804 206.037C182.804 208.938 181.806 210.977 179.814 212.154C177.82 213.333 174.14 213.921 168.778 213.921ZM172.039 245.451H164.429L164.428 228.109H172.365C177.656 228.109 181.281 228.771 183.238 230.093C185.196 231.416 186.174 233.745 186.174 237.079C186.174 240.086 185.106 242.235 182.967 243.521C180.828 244.808 177.185 245.451 172.039 245.451Z" fill="#006E90"/>
<path fill-rule="evenodd" clip-rule="evenodd" d="M237.928 182.118L210.475 261.706H232.057L236.19 247.463H267.013L271.037 261.706H292.618L265.11 182.118H237.928ZM262.446 231.969H240.863L248.854 205.711C249.324 204.08 249.786 202.377 250.24 200.601C250.693 198.826 251.155 196.959 251.626 195.002C252.315 197.793 252.877 200.077 253.312 201.852C253.747 203.628 254.091 204.915 254.345 205.711L262.446 231.969Z" fill="#006E90"/>
<path d="M300.229 261.706V182.118H321.159L351.222 223.053C351.8 223.887 352.751 225.563 354.076 228.082C355.398 230.601 356.856 233.6 358.453 237.079C358.017 233.781 357.699 230.846 357.501 228.272C357.302 225.699 357.202 223.417 357.202 221.423V182.118H378.023V261.706H357.202L327.139 220.607C326.522 219.774 325.554 218.098 324.231 215.578C322.908 213.059 321.466 210.097 319.909 206.689C320.345 210.025 320.662 212.979 320.861 215.551C321.059 218.124 321.16 220.408 321.16 222.401V261.706H300.229Z" fill="#006E90"/>
<path d="M395.092 182.118V261.705H416.566V225.988L442.498 261.705H469.571L437.605 220.933L467.016 182.118H441.737L416.566 218.269V182.118H395.092Z" fill="#006E90"/>
<path d="M126.912 181.915H38.77V197.687H126.912V181.915Z" fill="url(#paint0_linear_104_473)"/>
<path d="M126.912 212.533H38.77V228.305H126.912V212.533Z" fill="url(#paint1_linear_104_473)"/>
<path d="M38.77 245.933H126.912V261.706H38.77V245.933Z" fill="url(#paint2_linear_104_473)"/>
</g>
<defs>
<linearGradient id="paint0_linear_104_473" x1="38.7696" y1="253.819" x2="126.911" y2="253.819" gradientUnits="userSpaceOnUse">
<stop stop-color="#E70000" stop-opacity="0"/>
<stop offset="0.3317" stop-color="#DE0000" stop-opacity="0.4506"/>
<stop offset="0.7362" stop-color="#CD0000"/>
<stop offset="0.7931" stop-color="#C20000"/>
<stop offset="0.8916" stop-color="#A60000"/>
<stop offset="1" stop-color="#800000"/>
</linearGradient>
<linearGradient id="paint1_linear_104_473" x1="38.7696" y1="253.819" x2="126.911" y2="253.819" gradientUnits="userSpaceOnUse">
<stop stop-color="#E70000" stop-opacity="0"/>
<stop offset="0.3317" stop-color="#DE0000" stop-opacity="0.4506"/>
<stop offset="0.7362" stop-color="#CD0000"/>
<stop offset="0.7931" stop-color="#C20000"/>
<stop offset="0.8916" stop-color="#A60000"/>
<stop offset="1" stop-color="#800000"/>
</linearGradient>
<linearGradient id="paint2_linear_104_473" x1="38.7696" y1="253.819" x2="126.911" y2="253.819" gradientUnits="userSpaceOnUse">
<stop stop-color="#E70000" stop-opacity="0"/>
<stop offset="0.3317" stop-color="#DE0000" stop-opacity="0.4506"/>
<stop offset="0.7362" stop-color="#CD0000"/>
<stop offset="0.7931" stop-color="#C20000"/>
<stop offset="0.8916" stop-color="#A60000"/>
<stop offset="1" stop-color="#800000"/>
</linearGradient>
<clipPath id="clip0_104_473">
<rect width="512" height="512" fill="white"/>
</clipPath>
</defs>
</svg>
