<svg width="512" height="512" viewBox="0 0 512 512" fill="none" xmlns="http://www.w3.org/2000/svg">
<path fill-rule="evenodd" clip-rule="evenodd" d="M119.012 0C53.8358 0 1 52.8358 1 118.012V393.988C1 459.164 53.8357 512 119.012 512H392.245C457.422 512 510.257 459.164 510.257 393.988V118.012C510.257 52.8357 457.422 0 392.245 0H119.012Z" fill="#00D632"/>
<path fill-rule="evenodd" clip-rule="evenodd" d="M338.371 190.432C318.932 173.979 294.3 164.934 268.834 164.895C247.852 164.895 226.871 171.849 226.871 191.151C226.871 208.747 245.552 215.633 268.564 224.116C270.795 224.937 273.068 225.775 275.368 226.639C320.867 241.985 358.333 260.808 358.333 305.408C358.333 353.845 320.746 386.935 259.241 390.712L253.667 416.669C252.618 421.517 248.317 424.968 243.355 424.942H204.691C201.528 424.864 198.562 423.388 196.594 420.912C194.626 418.434 193.86 415.211 194.5 412.113L200.495 384.718C177.279 378.798 155.937 367.105 138.45 350.728C136.424 348.773 135.28 346.079 135.28 343.264C135.28 340.449 136.424 337.755 138.45 335.801L159.911 314.82C163.97 310.828 170.479 310.828 174.537 314.82C194.197 333.576 220.444 343.847 247.612 343.414C275.607 343.414 294.61 331.544 294.61 312.722C294.61 295.705 279.029 290.005 249.461 279.19C246.324 278.042 243.03 276.838 239.579 275.555C201.573 262.007 165.605 242.645 165.605 197.625C165.605 145.532 209.126 120.115 260.441 117.596L265.836 91.1605C266.904 86.3578 271.167 82.9429 276.087 82.9478H314.632C317.773 82.9378 320.75 84.343 322.739 86.7734C324.727 89.2037 325.515 92.4006 324.883 95.4766L318.889 125.03C338.511 131.444 356.695 141.626 372.421 155.003C374.588 156.867 375.879 159.552 375.981 162.409C376.084 165.266 374.988 168.035 372.96 170.049L352.938 190.132C348.929 194.077 342.538 194.208 338.371 190.432Z" fill="white"/>
</svg>
