<svg width="512" height="513" viewBox="0 0 512 513" fill="none" xmlns="http://www.w3.org/2000/svg">
<path d="M325.227 131.828H186.78V380.622H325.227V131.828Z" fill="#007AD0"/>
<path d="M195.571 256.225C195.549 232.265 200.979 208.613 211.449 187.061C221.919 165.509 237.155 146.622 256.004 131.829C232.663 113.482 204.63 102.072 175.111 98.9037C145.591 95.7353 115.776 100.936 89.0726 113.912C62.3693 126.887 39.8554 147.114 24.1042 172.28C8.353 197.446 0 226.536 0 256.225C0 285.914 8.353 315.004 24.1042 340.17C39.8554 365.336 62.3693 385.563 89.0726 398.539C115.776 411.514 145.591 416.715 175.111 413.547C204.63 410.378 232.663 398.969 256.004 380.622C237.155 365.829 221.919 346.941 211.449 325.389C200.979 303.837 195.549 280.186 195.571 256.225Z" fill="#0066BA"/>
<path d="M496.904 354.271V349.178H498.958V348.14H493.728V349.178H495.782V354.271H496.904ZM507.059 354.271V348.13H505.456L503.612 352.354L501.767 348.13H500.163V354.271H501.295V349.639L503.025 353.633H504.198L505.928 349.629V354.271H507.059Z" fill="#00A2E5"/>
<path d="M512 256.225C512.001 285.914 503.649 315.004 487.899 340.17C472.148 365.336 449.635 385.563 422.932 398.538C396.23 411.514 366.415 416.715 336.896 413.547C307.377 410.378 279.345 398.969 256.004 380.622C274.836 365.814 290.06 346.923 300.529 325.375C310.997 303.826 316.436 280.182 316.436 256.225C316.436 232.268 310.997 208.624 300.529 187.076C290.06 165.527 274.836 146.637 256.004 131.829C279.345 113.482 307.377 102.072 336.896 98.9036C366.415 95.7353 396.23 100.936 422.932 113.912C449.635 126.888 472.148 147.115 487.899 172.281C503.649 197.447 512.001 226.537 512 256.225Z" fill="#00A2E5"/>
</svg>
