<svg width="512" height="512" viewBox="0 0 512 512" fill="none" xmlns="http://www.w3.org/2000/svg">
<path fill-rule="evenodd" clip-rule="evenodd" d="M9.26831 260.109C9.26831 142.113 104.922 46.4592 222.914 46.4592C340.91 46.4592 436.564 142.113 436.564 260.109C436.564 378.105 340.91 473.764 222.914 473.764C104.922 473.764 9.26831 378.105 9.26831 260.109Z" fill="#FFFFFE"/>
<path fill-rule="evenodd" clip-rule="evenodd" d="M352.122 255.903C352.036 201.19 317.837 154.529 269.647 136.049V375.747C317.837 357.244 352.036 310.625 352.122 255.903ZM177.717 375.701V136.074C129.57 154.611 95.4241 201.206 95.2951 255.904C95.4241 310.588 129.57 357.178 177.717 375.701ZM223.707 53.3022C111.818 53.3452 21.1681 144.014 21.149 255.903C21.1681 367.777 111.818 458.432 223.707 458.451C335.596 458.432 426.264 367.777 426.293 255.903C426.264 144.014 335.596 53.3452 223.707 53.3022ZM223.21 477.571C100.773 478.153 0 378.961 0 258.215C0 126.251 100.773 34.9761 223.21 35H280.587C401.577 34.9761 512 126.208 512 258.215C512 378.918 401.577 477.571 280.587 477.571H223.21Z" fill="#0069AA"/>
</svg>
