<svg width="512" height="512" viewBox="0 0 512 512" fill="none" xmlns="http://www.w3.org/2000/svg">
<path fill-rule="evenodd" clip-rule="evenodd" d="M268.607 208.137V404.37C268.607 404.37 154.824 383.839 154.824 305.841C154.831 243.632 239.056 216.211 268.607 208.137ZM268.607 204.476C200.222 199.528 45.1592 231.582 45.1592 301.73C45.1592 347.468 127.268 414.336 260.983 416.092C266.259 416.092 418.156 410.224 415.814 247.184C413.845 110.246 311.354 86.2602 278.58 82.0846V73.7399C409.238 82.0332 512 160.61 512 255.979C512 356.855 397.046 438.958 255.707 438.958C114.368 438.958 0 356.849 0 255.979C0 155.109 114.362 73 255.707 73C260.037 73 264.341 73.0772 268.614 73.2316V204.476H268.607Z" fill="black"/>
</svg>
