<svg width="512" height="512" viewBox="0 0 512 512" fill="none" xmlns="http://www.w3.org/2000/svg">
<path d="M300.415 252.455C294.062 246.274 290.488 238.008 289.971 228.472C289.946 228.348 289.935 228.234 289.922 228.1C289.912 227.99 289.9 227.87 289.88 227.731C289.449 214.765 294.28 204.236 303.896 197.313C313.645 190.259 326.306 188.438 335.232 188.134C345.412 187.783 354.465 189.219 358.555 190.742C360.563 191.529 362.182 193.071 363.064 195.039C363.947 197.006 364.023 199.241 363.277 201.264C362.53 203.287 361.02 204.936 359.071 205.858C357.121 206.78 354.888 206.901 352.851 206.194C348.37 204.54 325.564 202.012 313.558 210.675C308.727 214.156 306.418 218.942 306.332 225.691V226.036C306.332 232.217 308.159 236.962 311.904 240.616C317.649 246.274 328.529 249.451 340.971 249.146C345.412 249.06 351.851 247.796 354.81 246.711C366.954 242.31 379.488 234.216 380.183 207.366L380.229 205.017C380.183 179.212 362.082 157.452 340.713 157.452C329.482 157.452 321.216 159.583 313.122 164.501C309.25 166.85 304.16 165.632 301.805 161.761C300.674 159.895 300.327 157.658 300.84 155.537C301.354 153.416 302.686 151.585 304.545 150.444C315.253 143.918 326.392 141 340.713 141C355.861 141 370.09 148.008 380.792 160.715C391.017 172.899 396.676 188.651 396.676 205.103V205.321L396.636 207.803C396.245 223.382 392.545 235.526 385.365 244.924C379.442 252.627 371.308 258.286 360.382 262.203C356.12 263.726 348.026 265.42 341.368 265.593C340.753 265.639 340.104 265.639 339.449 265.639C332.797 265.639 326.219 264.811 320.389 263.243C312.208 261.026 305.505 257.413 300.415 252.455Z" fill="black"/>
<path d="M277.932 144.439C279.009 144.405 280.082 144.583 281.09 144.964C283.127 145.749 284.777 147.293 285.688 149.277C286.599 151.261 286.699 153.523 285.968 155.58L247.841 256.717C247.243 258.267 246.193 259.602 244.828 260.549C243.463 261.497 241.845 262.013 240.184 262.031H240.138C236.743 262.031 233.698 259.94 232.48 256.804L200.627 175.599L170.072 256.717C169.473 258.267 168.424 259.602 167.059 260.549C165.694 261.497 164.076 262.013 162.415 262.031H162.369C158.979 262.031 155.929 259.94 154.711 256.804L115.068 155.666C114.275 153.635 114.319 151.372 115.191 149.373C116.063 147.375 117.693 145.803 119.721 145.004C121.753 144.211 124.017 144.256 126.015 145.129C128.014 146.002 129.585 147.633 130.383 149.663L162.242 230.907L192.613 150.312C192.977 149.123 193.605 148.032 194.451 147.121C195.297 146.209 196.338 145.501 197.496 145.05C197.547 145.031 197.591 145.013 197.635 144.995C197.699 144.968 197.762 144.942 197.841 144.918C197.881 144.872 197.881 144.872 197.927 144.872C198.046 144.85 198.165 144.814 198.283 144.779C198.381 144.75 198.479 144.72 198.576 144.699C198.6 144.699 198.624 144.687 198.647 144.675C198.668 144.664 198.689 144.654 198.708 144.654L199.317 144.527C199.409 144.481 199.495 144.481 199.582 144.481C199.668 144.481 199.755 144.47 199.843 144.458C199.931 144.447 200.018 144.435 200.104 144.435H200.84C200.929 144.435 201.007 144.447 201.085 144.458C201.161 144.47 201.237 144.481 201.322 144.481C201.408 144.527 201.494 144.527 201.581 144.527C201.773 144.534 201.964 144.563 202.149 144.613C202.169 144.613 202.199 144.624 202.23 144.635C202.263 144.647 202.298 144.659 202.322 144.659C202.54 144.699 202.758 144.745 202.977 144.832C202.977 144.832 203.017 144.872 203.063 144.872C203.169 144.882 203.273 144.913 203.367 144.964C203.438 144.985 203.495 145.02 203.552 145.054C203.603 145.084 203.653 145.115 203.712 145.136C204.788 145.605 205.752 146.297 206.54 147.167C207.328 148.036 207.923 149.063 208.285 150.18L239.965 230.861L270.521 149.749C270.9 148.74 271.474 147.816 272.21 147.029C272.947 146.243 273.832 145.609 274.813 145.165C275.795 144.72 276.855 144.474 277.932 144.439Z" fill="black"/>
<path d="M0 203.575C0 169.332 25.161 141.477 56.0952 141.477V141.483C87.0351 141.483 112.196 169.286 112.196 203.581C112.196 208.107 108.497 211.807 103.964 211.807H38.8214C34.2947 211.807 30.5953 208.107 30.5953 203.581C30.5953 199.054 34.2947 195.355 38.8214 195.355H95.1348C91.7398 174.071 75.5518 157.929 56.0952 157.929C34.2488 157.929 16.4523 178.425 16.4523 203.581C16.4523 228.782 34.2086 249.232 56.0952 249.232C67.3257 249.232 79.596 247.492 93.3081 234.825C94.0981 234.088 95.0259 233.515 96.0381 233.138C97.0504 232.761 98.1272 232.588 99.2066 232.629C100.286 232.669 101.347 232.923 102.328 233.375C103.309 233.827 104.191 234.468 104.924 235.262C108.014 238.611 107.842 243.792 104.493 246.883C86.5181 263.548 69.1926 265.685 56.0952 265.685C25.161 265.685 0 237.829 0 203.575Z" fill="black"/>
<path d="M511.914 153.15V217.46L512 251.278C512 282.654 500.425 312.29 479.406 334.745C458.254 357.333 429.968 370.04 399.764 370.476H397.765C371.914 370.476 348.063 363.382 328.831 349.934C308.639 335.877 293.841 314.95 286.051 289.444C285.731 288.413 285.618 287.328 285.718 286.253C285.819 285.177 286.131 284.132 286.636 283.178C287.142 282.223 287.831 281.378 288.664 280.691C289.497 280.004 290.458 279.488 291.491 279.173C292.523 278.853 293.607 278.74 294.683 278.84C295.758 278.94 296.803 279.252 297.758 279.758C298.712 280.263 299.557 280.953 300.245 281.786C300.932 282.619 301.448 283.58 301.762 284.613C308.547 306.85 320.823 324.302 338.229 336.446C354.681 347.935 375.263 354.024 397.725 354.024H399.505C425.177 353.633 449.287 342.799 467.394 323.475C484.978 304.673 494.899 280 495.508 253.753C486.238 262.071 474.135 266.522 461.685 266.191C449.236 265.859 437.386 260.771 428.573 251.973C419.175 242.707 413.993 230.477 413.993 217.465V152.271C413.993 147.744 417.692 144.045 422.219 144.045C426.746 144.045 430.445 147.744 430.445 152.271V217.511C430.445 226.088 433.886 234.182 440.108 240.317C446.173 246.369 454.385 249.778 462.953 249.801C471.484 249.801 479.578 246.452 485.799 240.317C492.026 234.182 495.462 226.088 495.462 217.511V153.15C495.462 148.623 499.161 144.924 503.688 144.924C508.214 144.924 511.914 148.623 511.914 153.15Z" fill="black"/>
</svg>
