<svg width="512" height="512" viewBox="0 0 512 512" fill="none" xmlns="http://www.w3.org/2000/svg">
<g clip-path="url(#clip0_24_1264)">
<path d="M283.832 165.553C283.832 156.358 276.474 149 267.279 149C258.084 149 250.727 156.358 250.727 165.553C250.727 174.747 258.084 182.105 267.279 182.105C276.474 181.838 283.832 174.491 283.832 165.553Z" fill="#4BCD3E"/>
<path d="M231.29 165.553C231.29 156.358 223.932 149 214.737 149C205.542 149 198.185 156.358 198.185 165.553C198.185 174.747 205.542 182.105 214.737 182.105C223.932 181.838 231.29 174.491 231.29 165.553Z" fill="#4BCD3E" fill-opacity="0.8"/>
<path d="M178.749 165.553C178.749 156.358 171.391 149 162.196 149C153.001 149 145.644 156.358 145.644 165.553C145.644 174.747 153.001 182.105 162.196 182.105C171.391 181.838 178.749 174.491 178.749 165.553Z" fill="#4BCD3E" fill-opacity="0.6"/>
<path d="M126.474 165.553C126.474 156.358 119.116 149 109.922 149C100.727 149 93.3691 156.358 93.3691 165.553C93.3691 174.747 100.727 182.105 109.922 182.105C119.116 181.838 126.474 174.491 126.474 165.553Z" fill="#4BCD3E" fill-opacity="0.4"/>
<path d="M73.9332 165.553C73.9332 156.358 66.5754 149 57.3807 149C48.186 149 40.8281 156.358 40.8281 165.553C40.8281 174.747 48.186 182.105 57.3807 182.105C66.5754 181.838 73.9332 174.491 73.9332 165.553Z" fill="#4BCD3E" fill-opacity="0.2"/>
<path d="M267.279 362.839C260.455 362.839 254.934 357.328 254.934 350.494V227.022C254.934 220.454 260.444 214.943 267.279 214.677C274.103 214.677 279.624 220.187 279.624 227.022V350.494C279.624 357.318 274.103 362.839 267.279 362.839Z" fill="#4BCD3E"/>
<path d="M194.255 215.723C200.566 215.723 205.553 220.977 205.553 227.022C205.553 233.333 200.555 238.32 194.255 238.32H82.0811C51.0797 238.32 32.6903 258.28 32.6903 288.758V350.494C32.6903 357.318 27.1693 362.839 20.3451 362.839C13.5209 362.839 8 357.328 8 350.494V288.758C8 244.621 37.9444 215.723 82.0811 215.723H194.255Z" fill="#4BCD3E"/>
<path d="M502.668 215.723C508.979 215.723 513.966 220.721 513.966 227.022V227.032C513.966 233.333 508.968 238.587 502.668 238.587H372.105C362.12 238.587 353.715 247.782 353.715 258.023C353.715 267.998 361.863 277.459 372.105 277.459H476.92C500.564 277.459 520 295.582 520 319.492C520 343.136 500.831 361.525 476.92 361.525H346.357C340.046 361.525 335.059 356.538 335.059 350.227C335.059 343.916 340.057 338.928 346.357 338.928H476.92C486.905 338.928 495.31 329.734 495.31 319.492C495.31 309.518 487.162 300.056 476.92 300.056H372.105C348.461 300.056 329.025 281.933 329.025 258.023C329.025 234.113 348.194 215.723 372.105 215.723H502.668Z" fill="#4BCD3E"/>
<path d="M45.2919 288.758C45.2919 295.058 50.2792 300.056 56.5903 300.056H169.821C176.122 300.056 181.119 295.069 181.119 288.758C181.119 282.447 176.132 277.459 169.821 277.459H56.5903C50.2895 277.459 45.2919 282.713 45.2919 288.758Z" fill="#4BCD3E"/>
</g>
<defs>
<clipPath id="clip0_24_1264">
<rect width="512" height="512" fill="white"/>
</clipPath>
</defs>
</svg>
