<svg width="512" height="512" viewBox="0 0 512 512" fill="none" xmlns="http://www.w3.org/2000/svg">
<path d="M337.376 0H175.411C170.671 0.00503336 166.126 1.88939 162.774 5.23988C159.421 8.59038 157.534 13.1336 157.525 17.8735V176.736H172.567V17.8735C172.579 17.1242 172.883 16.4091 173.414 15.8803C173.945 15.3515 174.661 15.0505 175.411 15.0413H207.978V130.469H177.741L221.068 176.738H291.714L335.03 130.469H304.802V15.0413H337.376C338.128 15.048 338.847 15.3478 339.38 15.8768C339.913 16.4059 340.219 17.1223 340.232 17.8735V176.736H355.252V17.8735C355.247 13.1345 353.361 8.59124 350.01 5.24047C346.659 1.88971 342.115 0.00503878 337.376 0Z" fill="#5DC4E9"/>
<path fill-rule="evenodd" clip-rule="evenodd" d="M395.369 147.51H353.339V158.767H386.42L468.648 496.959H44.1587L126.386 158.767H159.491V147.51H117.438L25 512H487.806L395.369 147.51ZM222.392 372.97H290.459C291.52 372.98 292.571 372.772 293.547 372.357C294.522 371.942 295.402 371.329 296.13 370.558C296.857 369.786 297.418 368.873 297.775 367.874C298.133 366.876 298.281 365.815 298.208 364.757L295.59 320.161C295.43 317.95 294.446 315.88 292.833 314.359C291.221 312.838 289.096 311.976 286.88 311.945H225.953C223.736 311.976 221.612 312.838 219.999 314.359C218.386 315.88 217.403 317.95 217.242 320.161L214.624 364.757C214.552 365.816 214.7 366.879 215.059 367.879C215.417 368.879 215.979 369.793 216.709 370.565C217.439 371.336 218.321 371.948 219.299 372.362C220.277 372.776 221.33 372.983 222.392 372.97ZM126.925 311.946H188.404C189.455 311.931 190.497 312.138 191.462 312.554C192.426 312.97 193.292 313.585 194.002 314.359C194.712 315.134 195.25 316.05 195.58 317.047C195.911 318.044 196.027 319.1 195.92 320.145L192.112 364.772C191.881 366.993 190.844 369.052 189.199 370.563C187.554 372.073 185.413 372.929 183.18 372.971H114.638C113.625 373.02 112.615 372.832 111.688 372.42C110.762 372.008 109.944 371.385 109.302 370.601C108.659 369.816 108.21 368.892 107.989 367.903C107.769 366.913 107.783 365.886 108.031 364.903L117.075 320.012C117.606 317.774 118.858 315.772 120.638 314.315C122.417 312.858 124.627 312.025 126.925 311.946ZM225.097 294.213H287.671C288.519 294.221 289.36 294.054 290.141 293.722C290.922 293.39 291.625 292.9 292.207 292.283C292.79 291.666 293.238 290.935 293.524 290.136C293.81 289.337 293.928 288.488 293.87 287.642L291.786 251.964C291.657 250.195 290.87 248.54 289.581 247.323C288.291 246.106 286.592 245.418 284.819 245.393H227.95C226.177 245.417 224.478 246.106 223.188 247.322C221.897 248.539 221.11 250.195 220.982 251.964L218.897 287.642C218.839 288.488 218.957 289.337 219.243 290.136C219.53 290.935 219.978 291.666 220.56 292.283C221.142 292.9 221.846 293.39 222.627 293.722C223.407 294.054 224.248 294.221 225.097 294.213ZM138.529 245.393H196.029C196.87 245.379 197.705 245.544 198.478 245.876C199.251 246.209 199.944 246.701 200.513 247.321C201.081 247.941 201.512 248.675 201.776 249.474C202.04 250.272 202.132 251.118 202.046 251.955L198.99 287.654C198.805 289.43 197.977 291.078 196.662 292.286C195.347 293.494 193.635 294.179 191.85 294.213H128.707C127.897 294.253 127.09 294.101 126.348 293.772C125.607 293.443 124.954 292.944 124.44 292.317C123.927 291.689 123.567 290.95 123.391 290.159C123.214 289.367 123.225 288.545 123.424 287.759L130.649 251.848C131.074 250.057 132.076 248.456 133.499 247.29C134.923 246.124 136.69 245.457 138.529 245.393ZM383.935 294.213C384.745 294.253 385.552 294.102 386.293 293.772C387.034 293.443 387.687 292.945 388.2 292.317C388.713 291.69 389.072 290.951 389.248 290.16C389.424 289.369 389.413 288.547 389.214 287.761L381.952 251.845C381.525 250.055 380.521 248.454 379.096 247.288C377.671 246.123 375.903 245.457 374.063 245.393H316.787C315.945 245.379 315.111 245.543 314.337 245.875C313.564 246.207 312.87 246.699 312.301 247.319C311.732 247.939 311.301 248.672 311.036 249.471C310.772 250.27 310.679 251.116 310.766 251.953L313.819 287.652C314.004 289.428 314.833 291.075 316.148 292.283C317.463 293.491 319.174 294.177 320.959 294.211L383.935 294.213ZM284.973 229.768H227.854C227.112 229.775 226.376 229.629 225.693 229.338C225.01 229.047 224.394 228.619 223.884 228.079C223.375 227.539 222.982 226.899 222.732 226.2C222.481 225.502 222.378 224.758 222.428 224.018L224.039 196.472C224.149 194.924 224.836 193.474 225.965 192.408C227.094 191.343 228.582 190.742 230.134 190.722H282.691C284.243 190.741 285.732 191.343 286.861 192.408C287.991 193.473 288.678 194.924 288.788 196.472L290.397 224.018C290.448 224.758 290.344 225.501 290.094 226.2C289.844 226.899 289.452 227.539 288.942 228.079C288.433 228.619 287.817 229.047 287.134 229.338C286.451 229.629 285.715 229.775 284.973 229.768ZM371.843 229.768C372.552 229.803 373.258 229.671 373.907 229.383C374.555 229.095 375.127 228.659 375.576 228.11C376.025 227.561 376.339 226.915 376.493 226.222C376.647 225.53 376.637 224.811 376.462 224.123L370.85 196.371C370.476 194.804 369.599 193.403 368.352 192.383C367.105 191.362 365.559 190.779 363.949 190.723H310.966C310.23 190.711 309.499 190.855 308.823 191.145C308.146 191.436 307.539 191.866 307.041 192.409C306.543 192.951 306.165 193.593 305.933 194.292C305.701 194.991 305.62 195.731 305.694 196.463L308.053 224.03C308.216 225.585 308.941 227.026 310.093 228.083C311.244 229.14 312.742 229.739 314.305 229.768H371.843ZM148.578 190.723H201.816C202.553 190.71 203.284 190.853 203.961 191.143C204.639 191.433 205.247 191.864 205.746 192.406C206.245 192.949 206.623 193.591 206.855 194.29C207.088 194.99 207.169 195.73 207.094 196.463L204.736 224.03C204.573 225.585 203.848 227.026 202.696 228.083C201.545 229.14 200.046 229.739 198.484 229.769H140.72C140.011 229.803 139.304 229.671 138.656 229.383C138.007 229.095 137.435 228.659 136.986 228.11C136.536 227.562 136.221 226.915 136.066 226.223C135.911 225.53 135.92 224.811 136.093 224.123L141.677 196.371C142.049 194.803 142.926 193.401 144.173 192.381C145.42 191.36 146.968 190.778 148.578 190.723ZM398.057 372.971C399.069 373.02 400.078 372.831 401.004 372.42C401.93 372.008 402.747 371.385 403.389 370.601C404.03 369.817 404.479 368.893 404.699 367.904C404.918 366.914 404.903 365.887 404.654 364.905L395.577 320.012C395.044 317.774 393.79 315.772 392.009 314.315C390.229 312.858 388.019 312.026 385.719 311.946H324.39C323.338 311.929 322.295 312.134 321.329 312.549C320.362 312.964 319.495 313.58 318.784 314.354C318.072 315.129 317.533 316.046 317.202 317.044C316.871 318.042 316.755 319.099 316.862 320.145L320.682 364.772C320.914 366.993 321.95 369.053 323.595 370.563C325.241 372.073 327.381 372.929 329.614 372.971H398.057ZM223.038 393.181H289.744C292.404 393.219 294.953 394.253 296.887 396.078C298.822 397.904 300.002 400.388 300.194 403.041L303.5 459.606C303.587 460.875 303.411 462.15 302.981 463.348C302.552 464.546 301.88 465.642 301.007 466.568C300.133 467.494 299.078 468.229 297.907 468.727C296.736 469.226 295.474 469.476 294.202 469.463H218.581C217.308 469.476 216.047 469.226 214.875 468.727C213.704 468.229 212.649 467.494 211.776 466.568C210.902 465.642 210.23 464.546 209.801 463.348C209.372 462.15 209.195 460.875 209.282 459.606L212.588 403.041C212.78 400.388 213.96 397.904 215.895 396.078C217.83 394.253 220.379 393.219 223.038 393.181ZM179.497 393.182H112.332C109.573 393.278 106.922 394.277 104.786 396.027C102.65 397.776 101.148 400.178 100.511 402.864L89.0582 459.785C88.7608 460.965 88.7438 462.198 89.0088 463.385C89.2738 464.572 89.8133 465.681 90.5841 466.622C91.3549 467.563 92.3354 468.31 93.4471 468.804C94.5589 469.297 95.7709 469.524 96.9858 469.464H172.964C175.642 469.414 178.209 468.386 180.182 466.573C182.154 464.761 183.396 462.29 183.673 459.626L188.519 403.021C188.647 401.766 188.508 400.499 188.111 399.302C187.713 398.106 187.068 397.006 186.215 396.077C185.363 395.148 184.324 394.409 183.166 393.91C182.008 393.411 180.757 393.163 179.497 393.182ZM407.934 396.026C410.071 397.774 411.576 400.176 412.216 402.862L423.712 459.786C424.011 460.964 424.03 462.197 423.766 463.384C423.502 464.572 422.964 465.681 422.194 466.622C421.424 467.563 420.443 468.311 419.332 468.805C418.22 469.299 417.008 469.525 415.794 469.465H339.816C337.138 469.414 334.57 468.386 332.598 466.574C330.625 464.761 329.383 462.29 329.106 459.626L324.26 403.021C324.132 401.765 324.272 400.496 324.67 399.298C325.069 398.099 325.717 396.999 326.571 396.069C327.426 395.14 328.468 394.402 329.628 393.904C330.789 393.406 332.042 393.16 333.304 393.182H400.386C403.145 393.279 405.797 394.277 407.934 396.026Z" fill="#1F3A6A"/>
</svg>
