<svg width="512" height="512" viewBox="0 0 512 512" fill="none" xmlns="http://www.w3.org/2000/svg">
<g clip-path="url(#clip0_24_271)">
<path d="M465.894 122.499C415.298 93.2918 350.599 110.647 321.36 161.244L247.656 288.921C226.329 325.791 253.784 338.674 284.399 357.029L355.32 397.963C379.337 411.816 410.013 403.592 423.866 379.607L499.635 248.395C525.089 204.303 509.986 147.954 465.894 122.499Z" fill="#EA4335"/>
<path d="M382.495 175.344L311.573 134.411C272.423 112.678 250.252 111.24 234.178 136.788L129.578 317.94C100.37 368.505 117.757 433.173 168.322 462.317C212.414 487.771 268.764 472.667 294.218 428.576L400.82 243.921C414.736 219.906 406.512 189.197 382.495 175.344Z" fill="#FBBC04"/>
<path d="M396.146 82.2214L346.332 53.4523C291.233 21.6499 220.78 40.5062 188.978 95.6053L94.1332 259.87C80.1238 284.105 88.4419 315.126 112.677 329.104L168.464 361.313C196.013 377.231 231.224 367.786 247.141 340.236L355.494 152.581C377.947 113.711 427.636 100.39 466.505 122.842L396.146 82.2214Z" fill="#34A853"/>
<path d="M202.451 142.604L148.603 111.584C124.587 97.7621 93.9107 105.955 80.0577 129.908L15.4524 241.546C-16.3501 296.488 2.50619 366.785 57.6053 398.494L98.6013 422.102L148.322 450.746L169.899 463.161C131.592 437.52 119.428 386.141 142.849 345.677L159.579 316.783L220.839 210.931C234.66 187.041 226.436 156.426 202.451 142.604Z" fill="#4285F4"/>
</g>
<defs>
<clipPath id="clip0_24_271">
<rect width="512" height="512" fill="white"/>
</clipPath>
</defs>
</svg>
