<svg width="512" height="512" viewBox="0 0 512 512" fill="none" xmlns="http://www.w3.org/2000/svg">
<path d="M140.555 145H87.49C64.0438 146.109 44.8782 155.552 39.3443 175.026C36.4588 185.183 34.8708 196.337 32.6144 206.865C21.1436 260.398 10.9723 315.404 0 367.867H413.121C445.059 367.867 466.987 361.118 472.914 335.771C475.667 323.995 478.304 310.657 480.938 297.72C491.206 247.278 501.483 196.838 512 145H140.555Z" fill="#B82126"/>
<path d="M353.7 278.153C347.97 283.762 331.887 285.355 333.533 271.948C334.899 260.812 347.023 258.446 360.163 260.054C359.186 266.145 358.066 273.879 353.7 278.153ZM335.601 234.716C335.054 237.788 334.214 240.568 333.533 243.507C340.094 241.862 360.522 236.819 362.491 245.575C363.145 248.484 362.017 251.575 361.198 253.849C342.724 252.099 327.667 255.168 323.708 268.328C321.055 277.142 324.005 285.816 329.655 288.238C340.536 292.899 353.772 287.559 358.354 280.222C357.878 282.762 357.427 285.327 357.578 288.496H367.144C367.246 279.334 368.579 271.918 369.988 263.674C371.19 256.653 373.45 249.703 373.09 243.507C372.269 229.316 348.76 234.336 335.601 234.716ZM431.524 282.548C424.039 282.709 420.318 278.077 420.147 270.397C419.849 256.946 425.749 242.003 437.729 240.663C443.307 240.039 447.345 241.336 451.432 242.732C447.681 257.84 449.035 282.173 431.524 282.548ZM456.345 211.447C455.392 219.801 454.118 227.836 452.467 235.491C425.196 226.86 408.471 246.924 408.771 271.689C408.83 276.479 409.654 281.228 412.65 284.616C417.812 290.455 432.594 291.852 440.056 286.944C441.502 285.995 442.977 284.266 443.935 283.066C444.654 282.163 445.796 279.8 446.002 280.479C445.611 283.104 445.024 285.535 444.969 288.496H455.053C456.995 260.619 463.005 236.808 467.463 211.447H456.345ZM171.679 278.412C165.73 284.712 151.107 284.615 149.961 274.016C149.461 269.404 151.18 264.568 152.029 259.796C152.888 254.967 153.507 250.332 154.355 246.092C160.214 238.938 177.43 238.075 179.177 249.971C180.693 260.299 176.605 273.195 171.679 278.412ZM180.47 234.716C171.06 231.182 159.591 235.401 154.62 239.415C154.637 239.592 154.502 239.616 154.355 239.629C154.44 239.557 154.532 239.486 154.62 239.415C154.619 239.4 154.618 239.387 154.614 239.371C154.698 237.644 155.306 236.442 155.39 234.716H145.824C141.837 261.239 137.11 287.02 132.12 312.54H143.238C144.847 302.601 145.91 292.116 148.151 282.807C150.69 292.598 167.268 290.726 174.264 286.944C188.699 279.139 199.833 241.99 180.47 234.716ZM233.214 253.332H207.101C207.927 247.329 213.328 240.73 221.838 240.405C229.847 240.098 235.581 243.345 233.214 253.332ZM222.614 233.682C214.58 234.301 207.79 236.613 202.964 241.697C197.045 247.933 192.251 261.72 193.656 274.275C195.659 292.187 217.961 291.544 235.8 287.202C236.103 284.059 236.864 281.372 237.351 278.412C230.002 281.162 217.244 285 209.686 280.222C203.98 276.614 203.947 267.477 205.808 259.537C217.797 259.156 230.257 259.229 242.263 259.537C243.025 253.909 245.205 247.773 243.297 242.215C240.782 234.876 231.777 232.977 222.614 233.682ZM124.881 234.716C124.58 234.76 124.6 235.125 124.622 235.491C122.172 253.812 118.857 271.268 115.314 288.496H126.432C129.103 270.051 132.163 251.997 135.998 234.716H124.881ZM414.977 234.974C405.151 230.062 396.971 238.305 393.776 243.248C394.686 240.712 394.738 237.317 395.585 234.716H385.76C383.112 253.183 379.917 271.104 376.194 288.496H387.57C387.642 281.368 389.042 276.095 390.155 269.104C392.533 254.178 396.023 237.81 413.426 242.732C414.003 240.207 414.243 237.344 414.977 234.974ZM290.095 275.826C289.071 273.179 288.805 268.807 289.061 265.484C289.636 258.012 292.358 248.917 296.559 244.8C302.357 239.117 313.803 240.057 322.931 243.248C323.215 240.171 323.833 237.427 324.225 234.458C309.252 232.013 295.044 233.534 287.51 241.439C280.136 249.177 275.301 266.962 278.719 278.153C282.719 291.248 300.653 291.96 315.176 286.944C315.818 284.312 316.158 281.378 316.727 278.67C308.792 282.793 293.622 284.936 290.095 275.826ZM283.891 234.716C274.032 230.735 266.283 237.463 262.69 243.766C263.504 240.962 263.841 237.678 264.499 234.716H254.674C252.272 253.344 248.732 270.833 245.367 288.496H256.485C258.043 278.011 258.716 263.878 262.172 253.849C264.935 245.835 272.165 239.007 282.598 242.732C282.745 239.775 283.591 237.518 283.891 234.716ZM104.714 212.998C103.126 223.303 101.337 233.407 99.5429 243.507C88.0249 243.628 76.2649 244.076 65.1555 243.248C67.2537 233.368 68.7586 222.893 70.8428 212.998H58.4333C53.9899 238.203 49.9491 263.809 44.9888 288.496H57.6573C59.645 275.831 61.5033 263.038 64.1205 251.005C74.9227 250.739 87.8693 250.275 98.2498 251.264C96.1095 263.775 93.5234 275.839 91.5276 288.496H104.197C108.267 262.919 112.557 237.561 117.642 212.998H104.714ZM136.257 224.374C138.474 222.848 141.328 215.893 138.067 212.998C137.034 212.081 135.306 211.815 132.896 212.223C130.66 212.6 129.374 213.359 128.501 214.549C127.096 216.462 125.808 222.231 127.983 224.374C130.101 226.461 134.847 225.345 136.257 224.374Z" fill="white"/>
</svg>
