<svg width="512" height="512" viewBox="0 0 512 512" fill="none" xmlns="http://www.w3.org/2000/svg">
<path d="M0 63.4531V447.829C0 466.229 15.0539 481.283 33.4531 481.283H263.109C436.73 481.283 512 384.101 512 255.139C512 126.847 436.73 30 263.109 30H33.4531C15.0539 30 0 45.0539 0 63.4531Z" fill="white"/>
<path d="M153.717 124.338V408.355H277.326C389.561 408.355 438.236 344.961 438.236 255.307C438.236 169.5 389.561 102.928 277.326 102.928H175.127C163.251 102.928 153.717 112.629 153.717 124.338Z" fill="#CC0066"/>
<path d="M263.107 450.673H63.3923C45.6622 450.673 31.2773 436.288 31.2773 418.558V92.892C31.2773 75.1618 45.6622 60.777 63.3923 60.777H263.107C452.619 60.777 480.887 182.714 480.887 255.307C480.887 381.258 403.443 450.673 263.107 450.673ZM63.3923 71.482C51.5165 71.482 41.9823 81.0161 41.9823 92.892V418.558C41.9823 430.434 51.5165 439.968 63.3923 439.968H263.107C396.585 439.968 470.182 374.4 470.182 255.307C470.182 95.401 340.384 71.482 263.107 71.482H63.3923Z" fill="black"/>
<path d="M197.206 217.003C201.555 217.003 205.57 217.672 209.417 219.01C213.264 220.348 216.442 222.522 219.286 225.199C221.962 228.042 224.136 231.555 225.809 235.569C227.314 239.751 228.151 244.602 228.151 250.289C228.151 255.307 227.482 259.823 226.311 264.004C224.973 268.186 223.133 271.866 220.624 274.877C218.115 277.887 214.937 280.229 211.09 282.069C207.242 283.742 202.726 284.745 197.541 284.745H168.27V216.835H197.206V217.003ZM196.203 272.368C198.377 272.368 200.385 272.033 202.559 271.364C204.566 270.695 206.406 269.524 207.911 267.851C209.417 266.179 210.755 264.172 211.759 261.495C212.762 258.819 213.264 255.808 213.264 251.961C213.264 248.616 212.929 245.438 212.26 242.762C211.591 240.085 210.42 237.576 208.915 235.736C207.41 233.897 205.403 232.224 202.894 231.22C200.385 230.217 197.374 229.715 193.694 229.715H182.989V272.535H196.203V272.368Z" fill="white"/>
<path d="M288.533 217.003V229.548H252.738V244.1H285.69V255.641H252.738V272.2H289.369V284.745H237.852V216.835H288.533V217.003Z" fill="white"/>
<path d="M339.716 217.003L365.14 284.913H349.584L344.399 269.859H318.975L313.622 284.913H298.568L324.16 217.003H339.716ZM340.552 258.652L332.021 233.729H331.854L322.989 258.652H340.552Z" fill="white"/>
<path d="M389.396 217.003V272.368H422.515V284.913H374.51V217.003H389.396Z" fill="white"/>
<path d="M97.849 282.237C115.124 282.237 129.128 268.233 129.128 250.958C129.128 233.683 115.124 219.679 97.849 219.679C80.5743 219.679 66.5703 233.683 66.5703 250.958C66.5703 268.233 80.5743 282.237 97.849 282.237Z" fill="black"/>
<path d="M121.436 408.355C95.1751 408.355 74.0996 387.112 74.0996 361.018V324.053C74.0996 311.006 84.6373 300.301 97.8513 300.301C110.898 300.301 121.603 310.839 121.603 324.053V408.355H121.436Z" fill="black"/>
</svg>
