<svg width="512" height="512" viewBox="0 0 512 512" fill="none" xmlns="http://www.w3.org/2000/svg">
<path fill-rule="evenodd" clip-rule="evenodd" d="M1.23633 222.847H17.5321V296.087H1.23633V222.847Z" fill="#263779"/>
<path fill-rule="evenodd" clip-rule="evenodd" d="M38.0527 189.653H328.32V201.229H38.0527V189.653Z" fill="#263779"/>
<path fill-rule="evenodd" clip-rule="evenodd" d="M160.152 237.088C157.423 236.82 154.265 236.294 149.529 236.294C135.825 236.294 130.407 246.344 130.407 259.998C130.407 277.461 137.311 283.507 148.039 283.507C152.933 283.507 157.003 281.486 160.152 279.899V237.088ZM144.793 326.322C134.477 326.322 125.013 324.139 119.182 322.39L121.674 308.473C127.904 309.899 136.976 311.279 142.051 311.279C152.933 311.279 160.249 309.376 160.249 296.524C160.499 296.261 160.249 292.864 160.249 292.488C156.918 295.192 152.186 297.318 147.195 297.318C131.582 297.318 114.204 293.03 114.204 259.892C114.204 234.913 130.245 221.62 149.687 221.62C157.423 221.62 165.821 222.746 176.46 224.495V298.367C176.46 318.896 159.264 326.322 144.793 326.322Z" fill="#263779"/>
<path fill-rule="evenodd" clip-rule="evenodd" d="M223.259 234.553C216.278 234.553 209.046 239.622 208.299 251.948H235.464C235.561 240.675 230.227 234.553 223.259 234.553ZM207.952 264.443C208.049 280.429 217.271 282.713 229.497 282.713C234.225 282.713 242.542 282.017 247.932 280.794L250.428 294.512C245.037 296.358 234.721 297.318 226.497 297.318C205.215 297.318 191.656 289.43 191.656 260.686C191.656 230.893 205.558 221.102 224.756 221.102C244.44 221.102 252.418 235.075 252.418 257.977V264.443H207.952Z" fill="#263779"/>
<path fill-rule="evenodd" clip-rule="evenodd" d="M348.838 222.847H365.214V296.087H348.838V222.847Z" fill="#263779"/>
<path fill-rule="evenodd" clip-rule="evenodd" d="M431.694 238.667C427.224 236.82 422.977 235.5 416.153 235.5C405.688 235.5 397.722 241.898 397.722 259.115C397.722 275.627 401.783 282.968 419.743 282.968C425.302 282.968 429.053 281.919 433.551 281.223L435.784 294.937C430.454 296.087 425.985 297.318 418.592 297.318C391.237 297.318 380.913 286.203 380.913 258.839C380.913 235.602 394.572 220.992 416.153 220.992C425.811 220.992 431.956 223.013 436.442 225.649L431.694 238.667Z" fill="#263779"/>
<path fill-rule="evenodd" clip-rule="evenodd" d="M478.423 235.075C465.038 235.075 461.469 246.882 461.469 259.637C461.469 273.287 465.539 283.507 478.661 283.507C491.957 283.507 495.195 272.748 495.195 259.463C495.195 246.976 491.957 235.075 478.423 235.075ZM477.672 297.731C456.721 297.731 445.016 283.656 445.016 260.163C445.016 235.5 458.57 220.992 478.762 220.992C501.453 220.992 511.999 235.075 511.999 259.463C511.999 284.725 497.294 297.731 477.672 297.731Z" fill="#263779"/>
<path fill-rule="evenodd" clip-rule="evenodd" d="M18.7748 195.447C18.7748 200.593 14.5515 204.82 9.42376 204.82C4.21122 204.82 0 200.593 0 195.447C0 190.231 4.21122 186 9.42376 186C14.5515 186 18.7748 190.231 18.7748 195.447Z" fill="#263779"/>
<path fill-rule="evenodd" clip-rule="evenodd" d="M366.442 195.447C366.442 200.593 362.227 204.82 357.023 204.82C351.826 204.82 347.68 200.593 347.68 195.447C347.68 190.231 351.826 186 357.023 186C362.227 186 366.442 190.231 366.442 195.447Z" fill="#263779"/>
<path fill-rule="evenodd" clip-rule="evenodd" d="M77.3044 220.839C66.9964 220.839 59.1796 227.034 54.5364 230.528V230.354C54.4193 230.549 54.2214 230.686 54.0397 230.877C52.461 225.005 48.2337 223.293 44.4222 222.847H38.0791V296.087H54.5364V242.421C57.7745 240.578 65.2562 236.128 72.0797 236.128C81.2935 236.128 83.1952 240.943 83.1952 251.588V296.087H99.495V249.575C99.495 234.553 98.1626 220.839 77.3044 220.839Z" fill="#263779"/>
<path fill-rule="evenodd" clip-rule="evenodd" d="M306.229 220.839C295.933 220.839 288.048 227.034 283.465 230.528V230.354C283.271 230.549 283.093 230.686 282.96 230.877C281.317 225.005 277.162 223.293 273.274 222.847H267.012V296.087H283.465V242.421C286.699 240.578 294.177 236.128 301.008 236.128C310.226 236.128 312.067 240.943 312.067 251.588V296.087H328.424V249.575C328.424 234.553 327.023 220.839 306.229 220.839Z" fill="#263779"/>
</svg>
