<svg width="512" height="512" viewBox="0 0 512 512" fill="none" xmlns="http://www.w3.org/2000/svg">
<path d="M451.899 152H60.1006C26.908 152 0 178.908 0 212.101V299C0 332.193 26.908 359.101 60.1006 359.101H451.899C485.092 359.101 512 332.193 512 299V212.101C512 178.908 485.092 152 451.899 152Z" fill="#FFB3C7"/>
<path d="M409.996 242.745C405.23 239.497 399.668 237.611 393.91 237.288C388.152 236.966 382.414 238.22 377.316 240.916C372.217 243.611 367.95 247.646 364.974 252.586C361.998 257.527 360.425 263.185 360.425 268.952C360.425 274.719 361.998 280.378 364.974 285.318C367.95 290.258 372.217 294.293 377.316 296.988C382.414 299.684 388.152 300.938 393.91 300.616C399.668 300.294 405.23 298.407 409.996 295.16V299H427.99V238.9H409.996V242.745ZM393.63 284.415C390.607 284.254 387.697 283.211 385.261 281.414C382.824 279.617 380.968 277.145 379.922 274.304C378.876 271.463 378.685 268.377 379.374 265.429C380.063 262.481 381.601 259.8 383.798 257.717C385.995 255.633 388.754 254.24 391.735 253.709C394.715 253.177 397.786 253.531 400.568 254.727C403.349 255.923 405.719 257.907 407.384 260.436C409.05 262.964 409.937 265.925 409.937 268.953C409.822 273.165 408.04 277.159 404.983 280.058C401.925 282.957 397.842 284.524 393.63 284.415Z" fill="black"/>
<path d="M163.232 212.117H144.4V299H163.232V212.117Z" fill="black"/>
<path d="M328.469 237.283C324.931 237.074 321.395 237.728 318.167 239.19C314.938 240.651 312.113 242.875 309.935 245.671V238.903H292.015V299H310.15V267.417C310.011 265.603 310.264 263.78 310.892 262.072C311.52 260.364 312.508 258.811 313.79 257.52C315.072 256.228 316.616 255.227 318.319 254.586C320.022 253.945 321.843 253.677 323.658 253.802C331.567 253.802 336.113 258.527 336.113 267.293V299H354.087V260.781C354.087 246.795 342.966 237.283 328.469 237.283Z" fill="black"/>
<path d="M220.161 242.745C215.395 239.497 209.833 237.611 204.075 237.288C198.317 236.966 192.579 238.22 187.481 240.916C182.382 243.611 178.115 247.646 175.139 252.586C172.163 257.527 170.59 263.185 170.59 268.952C170.59 274.719 172.163 280.378 175.139 285.318C178.115 290.258 182.382 294.293 187.481 296.988C192.579 299.684 198.317 300.938 204.075 300.616C209.833 300.294 215.395 298.407 220.161 295.16V299H238.155V238.9H220.161V242.745ZM203.795 284.415C200.771 284.255 197.861 283.212 195.425 281.415C192.988 279.618 191.132 277.146 190.085 274.305C189.039 271.464 188.848 268.379 189.537 265.43C190.225 262.482 191.763 259.8 193.96 257.717C196.157 255.634 198.916 254.24 201.897 253.709C204.877 253.177 207.948 253.531 210.73 254.727C213.511 255.922 215.881 257.907 217.547 260.436C219.212 262.964 220.099 265.925 220.099 268.953C219.984 273.164 218.203 277.158 215.146 280.057C212.089 282.956 208.006 284.524 203.794 284.415H203.795Z" fill="black"/>
<path d="M265.989 246.729V238.901H247.565V299.001H266.028V270.943C266.028 261.476 276.29 256.387 283.41 256.387C283.482 256.387 283.551 256.394 283.624 256.395V238.904C280.287 238.815 276.973 239.471 273.922 240.824C270.871 242.178 268.161 244.195 265.989 246.729Z" fill="black"/>
<path d="M447.093 277.684C444.86 277.684 442.676 278.346 440.819 279.588C438.962 280.829 437.514 282.593 436.659 284.656C435.805 286.72 435.581 288.991 436.017 291.182C436.453 293.373 437.528 295.385 439.108 296.964C440.688 298.544 442.7 299.62 444.891 300.055C447.082 300.491 449.353 300.267 451.416 299.412C453.48 298.558 455.244 297.11 456.485 295.253C457.726 293.395 458.388 291.212 458.388 288.978C458.388 287.495 458.096 286.026 457.529 284.656C456.961 283.285 456.129 282.04 455.08 280.991C454.031 279.943 452.786 279.111 451.416 278.543C450.046 277.976 448.577 277.684 447.093 277.684Z" fill="black"/>
<path d="M131.416 212.101H111.9C111.931 219.927 110.12 227.651 106.615 234.648C103.109 241.646 98.0076 247.721 91.7214 252.384L83.9902 258.174L113.949 299.028H138.579L111.015 261.437C117.515 254.976 122.667 247.287 126.169 238.817C129.672 230.347 131.455 221.266 131.416 212.101Z" fill="black"/>
<path d="M81.6054 212.101H62.0547V299.024H81.6054V212.101Z" fill="black"/>
</svg>
