<svg width="512" height="518" viewBox="0 0 512 518" fill="none" xmlns="http://www.w3.org/2000/svg">
<path d="M210.367 114.239C225.526 109.174 241.732 106.453 258.607 106.453C332.189 106.453 393.623 158.717 407.695 228.186L512 206.91C488.062 88.8492 383.73 0 258.607 0C229.935 0 202.392 4.67271 176.625 13.2821L210.367 114.239Z" fill="#FFCC00"/>
<path d="M87.269 452.282L157.806 372.534C126.319 344.639 106.453 303.929 106.453 258.573C106.453 213.25 126.292 172.559 157.758 144.699L87.215 64.9387C33.7421 112.314 0 181.514 0 258.573C0 335.679 33.7556 404.899 87.269 452.282Z" fill="#00A0DE"/>
<path d="M407.667 289.101C393.534 358.537 332.168 410.699 258.607 410.699C241.726 410.699 225.473 407.978 210.321 402.886L176.531 503.884C202.305 512.486 229.903 517.146 258.607 517.146C383.609 517.146 487.928 428.444 511.959 310.493L407.667 289.101Z" fill="#EC3413"/>
</svg>
