<svg width="512" height="512" viewBox="0 0 512 512" fill="none" xmlns="http://www.w3.org/2000/svg">
<path fill-rule="evenodd" clip-rule="evenodd" d="M47.3463 186.024C51.9204 185.996 65.5145 184.772 71.2727 204.206C75.1515 217.297 81.3302 238.74 89.8088 268.537H93.2617C102.354 237.123 108.6 215.68 112 204.206C117.818 184.57 132.364 186.024 138.182 186.024L183.07 186.024V325.66H137.319V243.37H134.251L108.746 325.66H74.3241L48.8197 243.309H45.7517V325.66H0V186.024L47.3463 186.024ZM248.769 186.024V268.375H252.419L283.443 200.659C289.465 187.183 302.3 186.024 302.3 186.024H346.574V325.661H299.867V243.309H296.217L265.802 311.026C259.779 324.441 246.336 325.661 246.336 325.661H202.062V186.024H248.769ZM508.015 252.38C501.5 270.843 481.04 284.065 458.388 284.065H409.406V325.661H364.99V252.38H508.015Z" fill="#0F754E"/>
<path fill-rule="evenodd" clip-rule="evenodd" d="M460.53 186.024H362.661C364.99 217.112 391.762 243.725 419.476 243.725H511.101C516.389 217.888 498.187 186.024 460.53 186.024Z" fill="url(#paint0_linear_108_254)"/>
<defs>
<linearGradient id="paint0_linear_108_254" x1="512" y1="222.321" x2="362.661" y2="222.321" gradientUnits="userSpaceOnUse">
<stop stop-color="#1F5CD7"/>
<stop offset="1" stop-color="#02AEFF"/>
</linearGradient>
</defs>
</svg>
