<svg width="512" height="512" viewBox="0 0 512 512" fill="none" xmlns="http://www.w3.org/2000/svg">
<path fill-rule="evenodd" clip-rule="evenodd" d="M446.404 214C458.6 214 467.893 216.129 474.087 220.342C480.034 224.4 482.915 230.207 482.892 238.121C482.892 244.881 481.157 250.596 477.727 254.948C474.296 259.299 469.372 262.211 463.061 263.558L460.203 264.155L472.732 297.452H445.382L433.287 256.705L425.814 297.452H168.034L179.959 232.91H164.634L152.725 297.452H54.7232L36.6267 244.912L27.3345 297.452H0L15.3786 214H44.0295L62.6758 265.107L72.0145 214H236.486L233.079 232.91H206.751L204.095 247.545H229.401L226.404 263.891H201.075L198.404 278.534H240.598L252.507 214H280.074L268.699 275.212H287.578L298.852 214H326.442L315.083 275.212H334.441L345.731 214H398.511L395.057 232.871H369.062L366.368 247.452H391.588L388.591 263.891H363.355L360.661 278.534H402.553L414.439 214H446.404ZM87.1143 278.534H128.929L137.339 232.91H95.5237L93.0148 247.398H119.048L116.067 263.891H89.8167L87.1143 278.534ZM439.35 253.252C444.801 253.252 448.789 252.315 451.538 250.394C453.614 248.97 456.092 246.151 456.03 240.878C456.03 236.526 453.939 234.226 452.158 233.072C449.881 231.585 446.582 230.858 442.053 230.858H438.072L433.93 253.252H439.35Z" fill="#8CB749"/>
<path fill-rule="evenodd" clip-rule="evenodd" d="M495.25 292.062L494.577 278.898L500.392 278.596C501.293 278.515 502.202 278.589 503.079 278.813C503.715 279.016 504.262 279.431 504.628 279.99C505.024 280.566 505.249 281.243 505.278 281.941C505.344 282.812 505.066 283.674 504.504 284.342C503.781 285.105 502.819 285.597 501.778 285.736C502.163 285.884 502.525 286.085 502.854 286.332C503.442 286.822 503.962 287.387 504.403 288.012L506.858 291.466L504.69 291.582L502.816 288.934C502.266 288.159 501.817 287.586 501.468 287.192C501.206 286.867 500.895 286.585 500.547 286.355C500.294 286.209 500.02 286.104 499.734 286.045C499.384 286.005 499.032 285.995 498.681 286.014L496.667 286.115L496.969 291.946L495.25 292.062ZM496.613 284.644L500.346 284.45C500.975 284.442 501.598 284.327 502.188 284.11C502.602 283.95 502.946 283.651 503.164 283.266C503.376 282.905 503.478 282.491 503.458 282.073C503.45 281.782 503.375 281.496 503.241 281.238C503.107 280.979 502.917 280.754 502.684 280.579C502.05 280.153 501.28 279.976 500.524 280.083L496.381 280.292L496.613 284.644Z" fill="#8CB749"/>
<path fill-rule="evenodd" clip-rule="evenodd" d="M499.099 272.936C495.852 273.106 492.805 274.557 490.627 276.972C488.45 279.386 487.319 282.566 487.483 285.813C487.566 287.422 487.964 288.999 488.656 290.453C489.348 291.908 490.319 293.212 491.515 294.292C493.93 296.471 497.112 297.602 500.361 297.436C501.97 297.354 503.546 296.955 505.001 296.264C506.456 295.572 507.76 294.6 508.839 293.405C509.919 292.209 510.752 290.812 511.291 289.294C511.831 287.777 512.066 286.167 511.984 284.559C511.814 281.31 510.361 278.261 507.946 276.082C505.53 273.903 502.348 272.771 499.099 272.936ZM489.559 285.705C489.461 284.353 489.634 282.995 490.068 281.711C490.502 280.427 491.188 279.243 492.086 278.228C492.983 277.212 494.075 276.386 495.296 275.798C496.517 275.21 497.843 274.871 499.196 274.802C500.55 274.733 501.903 274.935 503.178 275.396C504.452 275.857 505.622 276.567 506.618 277.486C507.615 278.405 508.417 279.513 508.98 280.746C509.542 281.979 509.853 283.312 509.893 284.667V285.186C509.882 287.834 508.84 290.375 506.988 292.267C505.135 294.16 502.618 295.257 499.97 295.324C497.322 295.392 494.753 294.425 492.806 292.629C490.859 290.833 489.689 288.349 489.543 285.705H489.559Z" fill="#8CB749"/>
</svg>
