<svg width="512" height="512" viewBox="0 0 512 512" fill="none" xmlns="http://www.w3.org/2000/svg">
<path d="M310.422 177.681V191.517H292.287V177.681H310.422ZM267.47 168V202.066C264.254 198.634 261.003 196.286 257.896 194.913C253.995 193.324 249.949 192.493 245.722 192.493C237.305 192.493 229.827 195.491 223.361 201.524C216.317 208.063 212.812 216.985 212.812 228.256C212.812 238.191 215.522 246.211 220.941 252.388C227.082 259.36 235.21 262.864 245.397 262.864C250.744 262.864 255.476 261.744 259.594 259.468C262.231 258.023 264.869 255.531 267.47 251.954V260.552H285.604V168H267.47ZM263.171 241.587C259.739 246.03 255.332 248.27 249.841 248.27C245 248.27 240.918 246.5 237.486 242.995C233.873 239.347 232.031 234.434 232.031 228.329C232.031 223.488 233.223 219.261 235.571 215.613C239.003 210.338 243.808 207.701 249.985 207.701C255.043 207.701 259.233 209.652 262.52 213.517C265.844 217.383 267.47 222.26 267.47 228.184C267.47 233.386 266.025 237.866 263.171 241.587ZM310.422 194.805V260.552H292.287V194.805H310.422ZM494.696 209.652V241.189C494.696 242.851 495.093 243.971 495.888 244.513C496.755 245.091 498.092 245.416 499.862 245.416H512V260.552H488.518C484.328 260.552 481.185 259.505 479.162 257.409C477.464 255.603 476.597 252.496 476.597 247.981V171.143H494.696V194.443H512V209.652H494.696ZM474.863 194.805H453.947L435.559 220.02V171.396H417.424V216.48C416.124 212.181 414.065 208.315 411.211 204.847C404.383 196.611 395.171 192.493 383.503 192.493C376.639 192.493 370.498 194.01 365.152 197.081C362.587 198.526 360.347 200.26 358.36 202.319V194.588H337.733C333.903 194.949 330.472 195.888 327.437 197.442C324.872 198.742 322.524 200.657 320.357 203.222C318.153 205.787 317.069 209.327 317.069 213.806V260.48H335.204V216.01C335.529 214.999 336.035 214.023 336.83 213.156C337.516 212.47 338.527 211.82 339.756 211.205C340.984 210.591 342.573 210.302 344.524 210.302H352.725C350.051 215.613 348.787 221.357 348.787 227.57C348.787 237.396 351.749 245.416 357.638 251.702C364.682 259.143 373.677 262.864 384.587 262.864C392.751 262.864 400.084 260.335 406.623 255.242C410.669 252.099 413.92 247.945 416.521 242.779L399.976 238.191C398.856 240.394 397.267 242.128 395.316 243.465C392.101 245.633 388.597 246.752 384.804 246.752C379.349 246.752 374.905 244.766 371.473 240.792C369.45 238.516 368.186 235.59 367.572 231.977H417.424V260.588H435.559V233.314L453.911 260.588H474.899L452.466 226.342L474.863 194.805ZM367.5 221.609C368.186 218.141 369.414 215.36 371.184 213.265C374.363 209.616 378.482 207.774 383.684 207.774C389.102 207.774 393.437 209.616 396.761 213.265C398.676 215.36 399.904 218.105 400.482 221.609H367.5Z" fill="#004D86"/>
<path fill-rule="evenodd" clip-rule="evenodd" d="M172.677 233.891L188.031 194.804V194.768H207.285L174.122 282.913C169.86 278.144 163.285 275.832 156.782 277.241L163.177 259.034L141.502 198.705V260.551H123.367V251.52C117.406 259.07 109.784 262.827 100.536 262.827C90.4931 262.827 82.4011 259.106 76.296 251.665C73.9479 248.775 72.1416 245.523 70.8772 241.911C68.782 247.98 65.1334 252.929 59.9314 256.722C54.3681 260.804 47.7934 262.827 40.1349 262.827C30.923 262.827 23.5535 259.684 18.0986 253.399V286.67H0V194.804H18.1347V202.932C20.3745 199.861 22.7226 197.622 25.143 196.177C29.2251 193.72 34.102 192.492 39.8097 192.492C46.6012 192.492 52.6702 194.334 58.089 197.983C64.447 202.246 68.782 207.881 71.094 214.781C71.7442 212.866 72.5751 210.988 73.5505 209.182C76.2237 204.124 80.053 200.114 85.0021 197.152C89.9873 194.081 95.6228 192.564 101.872 192.564C107.074 192.564 111.698 193.792 115.781 196.249C118.237 197.73 120.766 200.006 123.403 203.113V194.804H140.129H141.538H159.347L172.677 233.891ZM35.6192 248.269C41.905 248.269 46.7457 245.776 50.1415 240.827C52.5257 237.323 53.754 233.169 53.754 228.328C53.754 222.078 52.0922 217.057 48.7687 213.336C45.4452 209.579 41.2547 207.701 36.1972 207.701C29.9837 207.701 25.143 210.265 21.675 215.395C19.3269 218.935 18.1347 223.307 18.1347 228.472C18.1347 234.614 19.7604 239.454 23.0477 242.995C26.3351 246.499 30.5256 248.269 35.6192 248.269ZM105.485 248.233C110.94 248.233 115.455 245.957 119.032 241.441C122.139 237.468 123.692 232.844 123.692 227.569C123.692 222.331 122.283 217.924 119.501 214.311C116.142 209.94 111.518 207.773 105.629 207.773C99.9217 207.773 95.4783 209.976 92.2993 214.384C89.4816 218.321 88.0727 222.909 88.0727 228.147C88.0727 234.397 89.9873 239.454 93.8166 243.284C97.0678 246.571 100.933 248.233 105.485 248.233ZM172.208 293.497C174.556 300.867 170.474 308.706 163.14 311.018C155.807 313.402 147.932 309.356 145.584 301.951C143.272 294.581 147.318 286.778 154.651 284.43C161.984 282.082 169.86 286.128 172.208 293.497ZM29.8771 313.8C27.9986 307.948 31.2499 301.662 37.1021 299.856C42.9543 297.978 49.204 301.229 51.0825 307.081C52.9248 312.933 49.7097 319.147 43.8575 321.025C38.0052 322.904 31.7556 319.653 29.8771 313.8ZM115.602 305.492C105.45 308.707 99.8511 319.581 103.066 329.696C106.281 339.847 117.119 345.483 127.27 342.231C137.421 339.016 143.02 328.179 139.805 318.028C136.59 307.84 125.753 302.277 115.602 305.492ZM70.7724 313.258C63.4751 315.57 59.4652 323.337 61.7772 330.671C64.1254 337.932 71.8922 341.978 79.1895 339.666C86.4867 337.318 90.4966 329.515 88.1846 322.254C85.8726 314.992 78.0696 310.946 70.7724 313.258Z" fill="#0D933A"/>
</svg>
