<svg width="512" height="512" viewBox="0 0 512 512" fill="none" xmlns="http://www.w3.org/2000/svg">
<path d="M162.28 494.644L171.153 438.281L151.387 437.823H57.0022L122.595 21.9214C122.799 20.6659 123.46 19.4952 124.427 18.6638C125.394 17.8325 126.633 17.3744 127.922 17.3744H287.069C339.903 17.3744 376.364 28.3687 395.4 50.069C404.325 60.2489 410.009 70.8869 412.757 82.5939C415.641 94.8777 415.692 109.554 412.876 127.453L412.672 128.76V140.229L421.597 145.285C429.113 149.272 435.085 153.836 439.666 159.062C447.301 167.766 452.238 178.828 454.325 191.943C456.48 205.432 455.767 221.482 452.238 239.653C448.166 260.556 441.583 278.761 432.693 293.658C424.515 307.384 414.098 318.769 401.729 327.591C389.92 335.973 375.889 342.335 360.025 346.407C344.653 350.411 327.127 352.43 307.904 352.43H295.518C286.662 352.43 278.06 355.62 271.307 361.338C264.537 367.174 260.058 375.148 258.684 383.869L257.751 388.942L242.074 488.281L241.361 491.929C241.174 493.083 240.852 493.66 240.377 494.05C239.953 494.406 239.342 494.644 238.748 494.644H162.28Z" fill="#253B80"/>
<path d="M430.048 130.082C429.573 133.119 429.03 136.224 428.419 139.414C407.431 247.169 335.629 284.393 243.924 284.393H197.233C186.018 284.393 176.567 292.537 174.82 303.599L150.914 455.213L144.144 498.189C143.007 505.451 148.606 512 155.936 512H238.75C248.556 512 256.887 504.874 258.431 495.203L259.245 490.995L274.838 392.046L275.839 386.617C277.366 376.912 285.713 369.786 295.52 369.786H307.905C388.14 369.786 450.951 337.21 469.308 242.944C476.977 203.564 473.007 170.683 452.715 147.558C446.573 140.585 438.955 134.799 430.048 130.082Z" fill="#179BD7"/>
<path d="M408.089 121.329C404.882 120.396 401.574 119.547 398.18 118.784C394.77 118.037 391.275 117.376 387.678 116.799C375.089 114.763 361.295 113.796 346.517 113.796H221.779C218.708 113.796 215.79 114.491 213.177 115.747C207.425 118.512 203.15 123.959 202.115 130.626L175.579 298.697L174.815 303.601C176.563 292.538 186.013 284.394 197.228 284.394H243.92C335.625 284.394 407.427 247.153 428.415 139.415C429.042 136.225 429.568 133.121 430.044 130.084C424.733 127.267 418.981 124.858 412.789 122.805C411.262 122.296 409.684 121.804 408.089 121.329Z" fill="#222D65"/>
<path d="M202.116 130.626C203.151 123.958 207.427 118.511 213.179 115.763C215.808 114.507 218.71 113.812 221.781 113.812H346.519C361.297 113.812 375.091 114.779 387.68 116.815C391.277 117.392 394.772 118.053 398.182 118.8C401.575 119.563 404.884 120.412 408.091 121.345C409.685 121.82 411.263 122.312 412.807 122.804C419 124.857 424.752 127.283 430.062 130.083C436.306 90.2621 430.011 63.1496 408.481 38.5989C384.745 11.5712 341.904 0 287.085 0H127.939C116.741 0 107.188 8.14395 105.458 19.2231L39.1695 439.4C37.8631 447.714 44.2764 455.213 52.6579 455.213H150.911L175.581 298.696L202.116 130.626Z" fill="#253B80"/>
</svg>
