<svg width="512" height="512" viewBox="0 0 512 512" fill="none" xmlns="http://www.w3.org/2000/svg">
<path fill-rule="evenodd" clip-rule="evenodd" d="M113.621 167.408C120.131 164.572 126.646 162.367 133.151 160.98C145.123 104.64 195.754 62.3617 256.454 62.3617C317.181 62.3617 367.837 104.697 379.789 161.037C398.433 164.505 413.845 171.954 425.854 183.006C426.338 172.186 425.9 161.761 424.608 151.953C416.904 66.8161 344.487 0 256.199 0C165.284 0 91.2822 71.029 87.4356 159.819C86.904 167.485 86.7476 175.464 87.0239 183.823C94.6544 177.478 103.364 171.78 113.621 167.408Z" fill="#3115F9"/>
<path fill-rule="evenodd" clip-rule="evenodd" d="M152.559 180.031C142.802 180.031 132.706 182.251 122.303 186.844C112.28 191.16 104.035 196.385 97.4569 202.612C84.8748 217.506 78.443 239.29 78 267.943V424.042C78.443 452.767 84.8748 474.51 97.4569 489.332C104.035 495.672 112.28 500.882 122.303 505.234C132.706 509.74 142.802 512 152.559 512H355.134C407.448 511.538 434.071 483.255 434.91 427.32V264.68C434.071 208.664 407.448 180.473 355.134 180.031H152.559Z" fill="#3115F9"/>
</svg>
