<svg width="512" height="512" viewBox="0 0 512 512" fill="none" xmlns="http://www.w3.org/2000/svg">
<g clip-path="url(#clip0_24_767)">
<path d="M113.754 230.631H78.7215C78.7215 224.882 78.0453 221.025 76.6996 219.059C74.6143 216.155 68.8617 214.699 59.445 214.699C50.2981 214.699 44.2356 215.535 41.2777 217.211C38.3198 218.893 36.8375 222.547 36.8375 228.173C36.8375 233.266 38.1499 236.624 40.7781 238.229C42.6601 239.372 45.1483 240.041 48.2462 240.241L55.3112 240.741C70.4539 241.744 79.9106 242.453 83.6813 242.856C95.6563 244.062 104.337 247.246 109.723 252.406C113.96 256.433 116.488 261.696 117.294 268.192C117.767 272.079 118.001 276.479 118.001 281.366C118.001 292.631 116.925 300.879 114.776 306.105C110.876 315.698 102.112 321.757 88.478 324.302C82.7653 325.378 74.0281 325.915 62.273 325.915C42.6534 325.915 28.983 324.749 21.2618 322.4C11.7884 319.526 5.53945 313.7 2.51823 304.929C0.832749 300.046 0 291.912 0 280.526H35.0321C35.0321 281.795 35.0354 282.768 35.0354 283.438C35.0354 289.513 36.7809 293.417 40.2684 295.159C42.6834 296.359 45.598 296.988 49.0256 297.065H61.9066C68.4787 297.065 72.6724 296.728 74.4811 296.052C77.7022 294.786 79.8174 292.748 80.8267 289.926C81.363 288.188 81.6294 285.943 81.6294 283.191C81.6294 277.032 79.381 273.285 74.8908 271.939C73.2087 271.409 65.4008 270.667 51.4573 269.731C40.2584 268.931 32.4806 268.162 28.1269 267.416C16.6583 265.27 9.01368 260.857 5.19969 254.158C1.84537 248.469 0.169881 239.858 0.169881 228.336C0.169881 219.566 1.07591 212.531 2.88798 207.241C4.70004 201.948 7.62132 197.931 11.6518 195.183C17.5577 190.962 25.1157 188.488 34.3126 187.748C41.9672 187.079 50.458 186.739 59.7981 186.739C74.5011 186.739 84.9804 187.585 91.226 189.26C106.472 193.357 114.093 204.829 114.093 223.683C114.093 225.228 113.98 227.54 113.754 230.631Z" fill="#10298E"/>
<path d="M267.808 325.916V186.001H322.692H331.306H337.965C347.588 186.001 354.93 186.784 359.976 188.356C371.515 191.97 379.256 199.375 383.223 210.56C385.269 216.433 386.295 225.273 386.295 237.078C386.295 251.272 385.159 261.468 382.91 267.68C378.41 279.958 369.15 287.033 355.163 288.865C353.518 289.142 346.519 289.385 334.164 289.585L327.915 289.791H305.465V325.916H267.808ZM305.465 257.334H328.938C336.383 257.068 340.91 256.495 342.539 255.599C344.764 254.376 346.259 251.925 347.002 248.25C347.478 245.805 347.715 242.168 347.715 237.338C347.715 231.419 347.242 227.032 346.293 224.167C344.94 220.153 341.696 217.712 336.559 216.822C335.54 216.689 333.108 216.616 329.255 216.616H305.465V257.334Z" fill="#10298E"/>
<path d="M466.675 301.736H416.327L409.562 325.915H370.603L412.643 186H469.447L512 325.915H473.86L466.675 301.736ZM459.197 274.478L441.553 213.827L424.431 274.478H459.197Z" fill="#10298E"/>
<path d="M215.833 205.684C231.362 205.684 245.226 212.839 254.336 224.045L262.454 206.64C249.759 194.642 232.481 187.244 213.425 187.244C183.752 187.244 158.37 205.165 147.954 230.534H132.125L122.778 250.57H143.141C142.987 252.428 142.888 254.287 142.888 256.186C142.888 258.481 143.007 260.752 143.234 262.994H133.001L123.658 283.037H148.44C159.153 307.763 184.219 325.121 213.425 325.121C228.144 325.121 241.802 320.71 253.11 313.176V288.613C244.003 298.982 230.683 305.534 215.833 305.534C198.475 305.534 183.206 296.584 174.316 283.037H226.206L235.553 262.994H166.681C166.324 260.582 166.135 258.118 166.135 255.606C166.135 253.907 166.221 252.228 166.388 250.57H241.345L250.689 230.534H172.867C181.474 215.681 197.489 205.684 215.833 205.684Z" fill="#FFBE00"/>
<path d="M215.833 206.284C230.633 206.284 244.497 212.9 253.87 224.425L254.476 225.171L254.886 224.302L263 206.897L263.18 206.501L262.87 206.201C249.526 193.59 231.965 186.645 213.425 186.645C198.945 186.645 185.015 190.875 173.133 198.88C161.531 206.694 152.631 217.563 147.401 230.304L147.954 229.931H132.125H131.739L131.579 230.278L122.236 250.317L121.836 251.173H122.779H143.141L142.541 250.52C142.372 252.602 142.288 254.451 142.288 256.186C142.288 258.434 142.405 260.749 142.635 263.055L143.234 262.395H133.001H132.622L132.462 262.741L123.112 282.781L122.715 283.637H123.658H148.441L147.888 283.274C159.06 309.059 184.785 325.721 213.425 325.721C227.782 325.721 241.615 321.56 253.444 313.679L253.707 313.503V313.176V288.613V287.018L252.658 288.217C243.327 298.839 229.907 304.929 215.833 304.929C199.278 304.929 183.946 296.618 174.815 282.704L174.316 283.637H226.206H226.592L226.752 283.294L236.099 263.248L236.499 262.395H235.553H166.681L167.277 262.908C166.921 260.48 166.738 258.028 166.738 255.606C166.738 253.958 166.821 252.285 166.988 250.63L166.388 251.173H241.345H241.732L241.892 250.826L251.235 230.787L251.638 229.931H250.689H172.867L173.386 230.834C182.16 215.691 198.429 206.284 215.833 206.284ZM172.867 231.134H250.689L250.143 230.278L240.803 250.317L241.345 249.97H166.388H165.845L165.785 250.513C165.619 252.205 165.535 253.921 165.535 255.606C165.535 258.085 165.722 260.603 166.085 263.085L166.165 263.597H166.681H235.553L235.01 262.741L225.666 282.781L226.206 282.434H174.316H173.2L173.813 283.36C183.163 297.624 198.875 306.128 215.833 306.128C230.25 306.128 244.004 299.892 253.564 289.01L252.508 288.613V313.176L252.774 312.68C241.146 320.424 227.542 324.518 213.425 324.518C185.261 324.518 159.973 308.14 148.994 282.794L148.834 282.434H148.441H123.658L124.208 283.294L133.548 263.248L133.001 263.597H143.234H143.897L143.834 262.935C143.607 260.67 143.487 258.394 143.487 256.186C143.487 254.487 143.571 252.665 143.741 250.62L143.794 249.97H143.141H122.779L123.322 250.826L132.668 230.787L132.125 231.134H147.954H148.357L148.507 230.761C153.654 218.239 162.401 207.56 173.806 199.876C185.485 192.011 199.188 187.851 213.425 187.851C231.659 187.851 248.92 194.676 262.041 207.077L261.908 206.384L253.797 223.792L254.806 223.665C245.196 211.857 230.996 205.082 215.833 205.082C197.996 205.082 181.338 214.718 172.344 230.231L171.821 231.134H172.867Z" fill="#10298E"/>
</g>
<defs>
<clipPath id="clip0_24_767">
<rect width="512" height="512" fill="white"/>
</clipPath>
</defs>
</svg>
