<svg width="512" height="512" viewBox="0 0 512 512" fill="none" xmlns="http://www.w3.org/2000/svg">
<path d="M407.143 186.16L449.772 178.573V342.135H407.143V186.16ZM469.371 186.16V342.045H512V178.573L469.371 186.16ZM346.542 342.045H389.171V222.467H346.542V342.045ZM64.8467 239.356C59.4278 238.995 46.9642 238.182 46.9642 226.983C46.9642 213.435 64.937 213.435 71.6204 213.435C83.4518 213.435 98.8054 216.958 109.734 220.209C109.734 220.209 115.875 222.377 121.023 224.544L121.475 224.635V224.183V187.605L120.842 187.424C107.927 182.909 92.9349 178.573 65.0273 178.573C16.9794 178.573 0 206.571 0 230.505C0 244.323 5.96084 276.837 60.9631 280.63C65.6596 280.901 78.0328 281.624 78.0328 293.274C78.0328 302.848 67.9174 308.538 50.8478 308.538C32.1524 308.538 14.0893 303.751 3.07074 299.235V337.439C19.5082 341.774 38.1132 343.942 59.8793 343.942C106.844 343.942 127.887 317.479 127.887 291.197C127.887 261.393 104.405 242.065 64.8467 239.356ZM322.518 220.751C283.14 222.015 263.18 239.717 263.18 274.85V342.135H306.17V287.223C306.17 266.18 308.88 257.148 333.897 256.335V221.293C329.562 220.48 322.518 220.751 322.518 220.751ZM206.913 222.377C206.01 224.725 199.146 244.052 182.618 264.012V178.573L138.635 187.244V342.045H182.618V294.178C195.353 313.325 201.675 342.045 201.675 342.045H254.329C249.091 320.369 226.331 280.45 226.331 280.45C246.743 254.529 255.774 226.892 257.219 222.286H206.913V222.377ZM367.766 210.997C379.326 210.997 388.809 201.604 388.809 190.044C388.809 178.483 379.417 169 367.766 169C356.205 169 346.812 178.393 346.812 190.044C346.812 201.604 356.205 210.997 367.766 210.997Z" fill="url(#paint0_linear_24_307)"/>
<defs>
<linearGradient id="paint0_linear_24_307" x1="0" y1="256" x2="512" y2="256" gradientUnits="userSpaceOnUse">
<stop stop-color="#7E3164"/>
<stop offset="1" stop-color="#4B2954"/>
</linearGradient>
</defs>
</svg>
