<svg width="512" height="512" viewBox="0 0 512 512" fill="none" xmlns="http://www.w3.org/2000/svg">
<g clip-path="url(#clip0_24_477)">
<path d="M426.444 0H85.5564C38.2996 0 0 38.2996 0 85.5564V426.444C0 473.7 38.2996 512 85.5564 512H426.444C473.7 512 512 473.7 512 426.444V85.5564C512 38.2996 473.7 0 426.444 0ZM418.928 391.902C418.928 406.83 406.83 418.928 391.902 418.928H120.098C105.17 418.928 93.0722 406.83 93.0722 391.902V120.098C93.0722 105.17 105.17 93.0722 120.098 93.0722H391.902C406.83 93.0722 418.928 105.17 418.928 120.098V391.902ZM201.691 325.495C193.094 325.495 186.196 318.546 186.196 309.949V201.433C186.196 192.837 193.094 185.836 201.691 185.836H310.361C318.906 185.836 325.856 192.785 325.856 201.433V309.897C325.856 318.494 318.906 325.444 310.361 325.444H201.691V325.495Z" fill="#1A1A1A"/>
</g>
<defs>
<clipPath id="clip0_24_477">
<rect width="512" height="512" fill="white"/>
</clipPath>
</defs>
</svg>
