<svg width="512" height="512" viewBox="0 0 512 512" fill="none" xmlns="http://www.w3.org/2000/svg">
<g clip-path="url(#clip0_102_380)">
<path d="M40.0324 281.691C41.9475 296.804 49.98 304.322 67.3253 303.282C79.4507 302.56 85.59 293.915 85.6447 284.722C85.6994 277.138 81.0156 270.736 72.4578 264.652L67.4129 261.325C56.8306 253.895 47.3536 246.026 47.4411 232.631C47.5615 213.59 63.1121 201.596 83.8609 200.677C89.9017 200.403 97.5183 201.224 103.351 202.745C106.393 203.533 110.497 204.89 112.183 205.448L107.291 224.03L105.901 224.052C103.242 212.671 98.361 206.301 82.6571 207.571C71.6152 208.468 66.4061 217.332 66.3623 224.916C66.3076 232.817 71.0023 237.775 79.8994 243.509L84.9443 246.672C96.5334 254.223 106.459 262.201 106.372 276.307C106.229 297.428 89.6719 310.702 65.3446 310.724C51.326 310.724 38.358 306.018 33.4992 301.706C33.6216 300.559 34.6058 296.967 35.866 292.368L35.8665 292.366L35.8672 292.364C36.7463 289.155 37.7596 285.457 38.7082 281.757L40.0324 281.691Z" fill="#8C7B6B"/>
<path d="M305.184 203.844C300.469 205.389 298.853 210.793 296.092 220.025C295.783 221.058 295.459 222.14 295.116 223.269L276.468 287.956C272.867 300.847 272.944 304.677 275.034 307.446L275.056 308.715H243.867L243.856 307.446C248.717 305.042 249.755 301.611 253.496 289.235L253.618 288.831L272.266 224.407C275.811 211.811 276.676 207.204 273.995 203.888V202.63L305.162 202.619L305.184 203.844Z" fill="#8C7B6B"/>
<path d="M391.98 216.899L391.979 216.901L391.314 218.969C391.063 219.75 390.816 220.516 390.577 221.26H389.318C384.852 209.652 374.709 209.849 366.536 210.008L366.531 210.008H366.529C365.612 210.025 364.72 210.043 363.864 210.043L362.966 210.021C357.09 210.021 355.47 211.367 353.971 216.85L344.505 251.234H347.689C350.111 251.234 352.411 251.271 354.58 251.306H354.584C365.319 251.479 372.862 251.601 376.285 246.922H377.554L372.049 266.347H370.802C368.348 258.518 359.75 258.563 348.703 258.622C347.583 258.628 346.438 258.634 345.271 258.632H342.261L333.758 287.894C330.639 298.816 329.6 304.43 332.314 307.352L332.325 308.731L301.103 308.785V307.483C306.191 305.497 307.487 301.098 310.598 290.53L310.599 290.528C310.813 289.8 311.036 289.043 311.27 288.256L330.016 223.252C333.441 211.433 334.098 207.252 331.46 203.871L331.427 202.612H396.639C395.519 205.889 393.702 211.54 391.98 216.899Z" fill="#8C7B6B"/>
<path d="M482.119 202.619C481.076 205.643 480.102 208.645 479.102 211.729C478.108 214.794 477.087 217.939 475.947 221.266L474.656 221.255C470.288 209.627 459.176 209.868 452.983 210.002H452.978C452.377 210.015 451.822 210.027 451.324 210.027H449.967L427.479 288.043C424.48 299.611 423.254 304.469 426.1 307.413L426.078 308.737H395.578L395.546 307.413C400.517 305.066 401.907 300.26 404.87 290.019L428.07 210.027H425.837C425.293 210.027 424.726 210.021 424.138 210.015C416.807 209.934 406.261 209.819 398.369 221.266L396.957 221.255C397.983 218.383 399.058 215.172 400.189 211.793L400.198 211.767C401.189 208.808 402.223 205.72 403.305 202.619H482.119Z" fill="#8C7B6B"/>
<path d="M258.991 203.917C254.806 206.875 252.254 211.654 247.556 220.449C247.18 221.154 246.79 221.884 246.384 222.641C239.395 235.659 219.135 275.582 208.627 296.287L208.619 296.303L208.611 296.318L208.595 296.351C205.233 302.975 202.876 307.619 202.282 308.766H190.583L184.116 241.88H183.601L147.335 308.766H137.661L128.742 223.331C128.723 223.156 128.704 222.983 128.685 222.81C128.658 222.57 128.632 222.331 128.606 222.095L128.59 221.944C127.577 212.701 126.912 206.624 123.741 203.818L123.774 202.604H153.956L153.945 203.818C150.279 207.769 149.37 212.048 150.235 222.039L155.28 272.839H155.608L193.45 203.545H201.954L208.509 272.981H208.935C217.11 257.299 228.677 234.887 235.878 220.726C241.802 209.094 240.001 205.899 239.06 204.229L239.058 204.225C239.033 204.182 239.01 204.14 238.987 204.099C238.952 204.036 238.919 203.976 238.888 203.917V202.582L259.013 202.626L258.991 203.917Z" fill="#8C7B6B"/>
<path fill-rule="evenodd" clip-rule="evenodd" d="M0 255.956C0 115.738 114.085 0.908309 254.326 0H257.663C397.915 0.908309 512 115.738 512 255.956C512 397.116 397.149 511.989 256 512C114.841 511.989 0 397.116 0 255.956ZM426.006 430.11C426.006 430.11 426.729 429.377 427.473 428.677H353.036L352.795 429.027C329.66 462.7 302.411 484.543 288.228 494.556C288.228 494.556 285.077 496.624 282.516 498.299C285 497.992 287.9 497.664 287.9 497.664C339.685 490.43 388.733 466.442 426.006 430.11ZM337.003 430.001C337.003 430.001 337.496 429.344 337.988 428.677H261.734V498.507C265.247 496.22 275.162 489.686 275.162 489.686C291.566 478.24 315.609 458.596 337.003 430.001ZM250.309 498.507V428.677H174.056C174.559 429.344 175.051 430.001 175.051 430.001C196.446 458.596 220.478 478.24 236.871 489.686C236.883 489.698 240.345 491.969 243.797 494.233C246.578 496.057 249.352 497.877 250.309 498.507ZM159.26 429.027C159.26 429.027 159.129 428.852 159.008 428.677H84.5819C85.3151 429.377 86.0374 430.11 86.0374 430.11C123.858 466.968 171.429 490.168 223.607 497.183C223.607 497.183 226.157 497.522 228.609 497.861C227.983 497.46 227.331 497.04 226.717 496.646C225.174 495.654 223.875 494.819 223.859 494.819C197.748 475.547 176.003 453.409 159.26 429.027ZM482.825 344.697C482.825 344.697 483.055 344.139 483.263 343.569H389.477C389.412 343.909 389.335 344.237 389.335 344.237C384.235 368.969 374.922 392.837 361.659 415.161C361.659 415.161 361.287 415.796 360.926 416.42H439.007C439.128 416.278 439.259 416.135 439.259 416.135C457.885 394.883 472.538 370.841 482.825 344.697ZM376.761 344.576C376.761 344.576 376.87 344.062 376.991 343.569H261.734V416.42H346.459C346.579 416.223 346.699 416.048 346.699 416.048C361.221 393.57 371.333 369.538 376.761 344.576ZM250.309 416.42V343.569H135.064C135.184 344.062 135.294 344.576 135.294 344.576C140.722 369.538 150.834 393.57 165.345 416.048C165.345 416.048 165.465 416.223 165.585 416.42H250.309ZM122.709 344.237C122.709 344.237 122.632 343.909 122.567 343.569H28.7813L29.23 344.697C39.5059 370.841 54.1591 394.883 72.7958 416.135C72.7958 416.135 72.9271 416.278 73.0475 416.42H151.129C150.757 415.796 150.385 415.161 150.385 415.161C137.11 392.837 127.808 368.969 122.709 344.237ZM487.752 180.569C487.722 180.477 487.687 180.37 487.651 180.26H24.3601C24.2616 180.556 24.1741 180.84 24.1741 180.84C16.3276 205.004 12.3223 230.283 12.2676 255.956C12.3223 281.783 16.3605 307.182 24.2945 331.455C24.2945 331.455 24.382 331.751 24.4805 332.035H487.53C487.618 331.751 487.706 331.455 487.706 331.455C495.651 307.182 499.689 281.783 499.743 255.956C499.689 230.272 495.683 204.993 487.837 180.84C487.837 180.84 487.802 180.727 487.752 180.569ZM439.154 95.3113C439.111 95.262 439.058 95.2021 439.007 95.1423H360.926C361.287 95.7661 361.659 96.4008 361.659 96.4008C374.922 118.736 384.235 142.593 389.335 167.336C389.335 167.336 389.412 167.665 389.477 167.993H483.263C483.055 167.424 482.825 166.855 482.825 166.855C472.56 140.722 457.885 116.69 439.259 95.4268C439.259 95.4268 439.215 95.3791 439.154 95.3113ZM346.699 95.5253C346.699 95.5253 346.579 95.3283 346.459 95.1423H261.734V167.993H376.991C376.87 167.489 376.761 166.986 376.761 166.986C371.333 142.035 361.221 117.981 346.699 95.5253ZM250.309 167.993V95.1423H165.585C165.465 95.3283 165.345 95.5253 165.345 95.5253C150.834 117.981 140.722 142.035 135.294 166.986C135.294 166.986 135.184 167.489 135.064 167.993H250.309ZM150.385 96.4008C150.385 96.4008 150.757 95.7661 151.129 95.1423H73.0475C72.9271 95.2846 72.7958 95.4268 72.7958 95.4268C54.1591 116.69 39.5059 140.722 29.23 166.855C29.23 166.855 29.0001 167.424 28.7813 167.993H122.567C122.632 167.665 122.709 167.336 122.709 167.336C127.808 142.593 137.11 118.736 150.385 96.4008ZM288.196 16.7435C314.318 36.0258 336.051 58.1535 352.795 82.5354L353.036 82.8857H427.473C426.729 82.1743 426.006 81.463 426.006 81.463C388.197 44.5836 340.615 21.3834 288.447 14.3796C288.447 14.3796 285.887 14.0404 283.446 13.7012C285.635 15.1129 288.163 16.7325 288.196 16.7435ZM275.195 21.8869C275.195 21.8869 263.89 14.4672 261.734 13.0665V82.8857H337.988C337.496 82.229 337.003 81.5615 337.003 81.5615C315.609 52.9772 291.566 33.3228 275.195 21.8869ZM236.882 21.865C220.489 33.3228 196.446 52.9772 175.051 81.5615C175.051 81.5615 174.559 82.229 174.056 82.8857H250.309V13.0665C246.808 15.3536 236.882 21.865 236.882 21.865ZM224.144 13.9091C172.359 21.1318 123.311 45.1198 86.0374 81.463C86.0374 81.463 85.3151 82.1743 84.5819 82.8857H159.008C159.129 82.7106 159.26 82.5354 159.26 82.5354C182.383 48.8734 209.633 27.0303 223.848 16.9951C223.848 16.9951 226.978 14.9487 229.539 13.2635C227.044 13.5589 224.144 13.9091 224.144 13.9091Z" fill="#8C7B6B"/>
</g>
<defs>
<clipPath id="clip0_102_380">
<rect width="512" height="512" fill="white"/>
</clipPath>
</defs>
</svg>
