<svg width="512" height="512" viewBox="0 0 512 512" fill="none" xmlns="http://www.w3.org/2000/svg">
<g clip-path="url(#clip0_24_492)">
<path d="M512 256C512 306.636 496.984 356.134 468.85 398.235C440.717 440.336 400.73 473.148 353.947 492.521C307.164 511.895 255.686 516.959 206.025 507.074C156.363 497.19 110.749 472.799 74.9498 436.988C39.1511 401.177 14.7763 355.554 4.90842 305.889C-4.95951 256.225 0.122627 204.749 19.5121 157.972C38.9015 111.196 71.7273 71.2204 113.838 43.1012C155.948 14.9821 205.452 -0.0172964 256.088 1.49678e-05C323.961 0.0464041 389.039 27.0354 437.025 75.0372C485.01 123.039 511.977 188.127 512 256Z" fill="url(#paint0_linear_24_492)"/>
<g style="mix-blend-mode:multiply" opacity="0.1">
<g style="mix-blend-mode:multiply">
<path d="M0.1751 256.001C0.149189 307.804 15.8507 358.394 45.2024 401.08C74.5542 443.765 116.173 476.534 164.554 495.051C212.934 513.569 265.796 516.962 316.147 504.783C366.498 492.603 411.965 465.425 446.534 426.842C397.766 470.356 334.197 493.561 268.864 491.698C203.532 489.835 141.388 463.046 95.1783 416.825C48.9683 370.604 22.1943 308.454 20.3474 243.121C18.5005 177.788 41.7207 114.225 85.2458 65.4668C58.4343 89.4329 36.9942 118.798 22.3328 151.635C7.6715 184.473 0.120386 220.039 0.1751 256.001Z" fill="#404041"/>
</g>
</g>
<path d="M464.038 256C464.038 297.129 451.842 337.334 428.992 371.532C406.142 405.729 373.664 432.382 335.666 448.122C297.668 463.861 255.856 467.979 215.518 459.955C175.179 451.932 138.126 432.126 109.044 403.044C79.9613 373.961 60.1559 336.908 52.132 296.569C44.1082 256.231 48.2263 214.419 63.9656 176.421C79.7049 138.423 106.358 105.946 140.556 83.0956C174.753 60.2457 214.958 48.0496 256.087 48.0496C283.396 48.0496 310.437 53.4284 335.666 63.8789C360.896 74.3294 383.82 89.6469 403.13 108.957C422.44 128.267 437.758 151.191 448.209 176.421C458.659 201.651 464.038 228.692 464.038 256Z" fill="#0064A4"/>
<g style="mix-blend-mode:multiply" opacity="0.1">
<g style="mix-blend-mode:multiply">
<path d="M464.039 255.999C464.036 213.907 451.259 172.807 427.398 138.132C403.537 103.457 369.715 76.8392 330.402 61.7971C291.09 46.7551 248.139 43.997 207.225 53.8876C166.312 63.7781 129.363 85.8515 101.263 117.19C140.876 81.7458 192.559 62.8167 245.694 64.2913C298.829 65.7658 349.382 87.532 386.969 125.119C424.555 162.705 446.322 213.258 447.796 266.393C449.271 319.528 430.342 371.211 394.897 410.824C416.682 391.347 434.103 367.485 446.019 340.803C457.935 314.12 464.076 285.221 464.039 255.999Z" fill="#929497"/>
</g>
</g>
<path d="M303.525 326.455L256.088 408.638L115.617 165.328H210.49L303.525 326.455Z" fill="white"/>
<path d="M400.323 165.328H304.75L258.539 245.41H354.112L400.323 165.328Z" fill="white"/>
</g>
<defs>
<linearGradient id="paint0_linear_24_492" x1="437.082" y1="75.0058" x2="75.0934" y2="436.994" gradientUnits="userSpaceOnUse">
<stop stop-color="white"/>
<stop offset="0.15" stop-color="#F9F9F9"/>
<stop offset="0.35" stop-color="#E9E9EA"/>
<stop offset="0.58" stop-color="#CECFCF"/>
<stop offset="0.83" stop-color="#A8AAAB"/>
<stop offset="1" stop-color="#898B8D"/>
</linearGradient>
<clipPath id="clip0_24_492">
<rect width="512" height="512" fill="white"/>
</clipPath>
</defs>
</svg>
