<svg width="512" height="512" viewBox="0 0 512 512" fill="none" xmlns="http://www.w3.org/2000/svg">
<path fill-rule="evenodd" clip-rule="evenodd" d="M486.742 91.0963L360.658 91.0635C360.643 91.0635 360.626 91.0635 360.626 91.0635C360.528 91.0635 360.433 91.081 360.338 91.081C343.016 91.6159 321.444 105.62 317.515 122.889L257.888 388.846C253.959 406.276 264.648 420.458 281.844 420.719H414.3C431.233 419.875 447.688 406.032 451.55 388.96L511.179 123C515.171 105.393 504.224 91.0963 486.742 91.0963Z" fill="#01798A"/>
<path fill-rule="evenodd" clip-rule="evenodd" d="M257.888 388.846L317.515 122.888C321.444 105.62 343.016 91.6156 360.338 91.0806L310.207 91.0479L219.886 91.0304C202.517 91.3885 180.663 105.491 176.736 122.888L117.092 388.846C113.148 406.275 123.853 420.458 141.037 420.719H281.843C264.648 420.458 253.959 406.275 257.888 388.846Z" fill="#024381"/>
<path fill-rule="evenodd" clip-rule="evenodd" d="M117.092 388.846L176.736 122.888C180.663 105.491 202.517 91.3886 219.887 91.0306L104.181 91C86.7142 91 64.3202 105.264 60.3285 122.888L0.684473 388.846C0.321508 390.469 0.120141 392.06 0 393.616V398.55C1.16758 411.255 10.7934 420.508 24.63 420.719H141.037C123.853 420.458 113.148 406.275 117.092 388.846Z" fill="#DD0228"/>
<path fill-rule="evenodd" clip-rule="evenodd" d="M222.326 284.826H224.515C226.528 284.826 227.881 284.146 228.516 282.798L234.206 274.214H249.443L246.266 279.86H264.536L262.218 288.511H240.478C237.975 292.308 234.893 294.093 231.187 293.881H219.863L222.326 284.826ZM219.824 297.225H259.851L257.299 306.622H241.202L238.746 315.692H254.41L251.858 325.088H236.194L232.555 338.491C231.654 340.732 232.839 341.739 236.09 341.511H248.856L246.491 350.242H221.981C217.335 350.242 215.741 347.563 217.199 342.193L221.851 325.088H211.838L214.382 315.692H224.396L226.85 306.622H217.279L219.824 297.225ZM283.711 274.149L283.08 279.65C283.08 279.65 290.631 273.936 297.488 273.936H322.828L313.137 309.297C312.334 313.339 308.888 315.349 302.801 315.349H274.081L267.353 340.179C266.966 341.51 267.514 342.192 268.963 342.192H274.614L272.536 349.9H258.17C252.655 349.9 250.361 348.228 251.271 344.87L270.282 274.149H283.711ZM305.169 284.145H282.552L279.847 293.686C279.847 293.686 283.613 290.945 289.907 290.847C296.184 290.748 303.349 290.847 303.349 290.847L305.169 284.145ZM296.975 306.28C298.647 306.508 299.583 305.841 299.695 304.267L301.079 299.237H278.428L276.528 306.28H296.975ZM281.697 317.703H294.753L294.51 323.399H297.987C299.743 323.399 300.614 322.832 300.614 321.713L301.643 318.028H312.494L311.045 323.399C309.819 327.878 306.57 330.215 301.29 330.444H294.335L294.302 340.179C294.175 341.739 295.574 342.533 298.454 342.533H304.991L302.882 350.242H287.202C282.808 350.452 280.653 348.342 280.698 343.864L281.697 317.703Z" fill="white"/>
<path fill-rule="evenodd" clip-rule="evenodd" d="M123.483 227.037C121.712 235.784 117.607 242.503 111.239 247.274C104.929 251.964 96.7906 254.316 86.8266 254.316C77.4496 254.316 70.5751 251.914 66.1882 247.095C63.1456 243.67 61.6321 239.321 61.6321 234.063C61.6321 231.889 61.8903 229.552 62.4055 227.037L73.0219 175.434H89.056L78.5841 226.453C78.2618 227.865 78.1332 229.18 78.15 230.364C78.1332 232.978 78.7769 235.119 80.0808 236.79C81.9803 239.274 85.0633 240.506 89.3536 240.506C94.2872 240.506 98.3525 239.29 101.508 236.839C104.663 234.405 106.724 230.949 107.649 226.453L118.154 175.434H134.107L123.483 227.037Z" fill="white"/>
<path fill-rule="evenodd" clip-rule="evenodd" d="M190.821 206.737H203.378L193.542 252.792H181.009L190.821 206.737ZM194.774 189.958H207.443L205.077 201.137H192.408L194.774 189.958Z" fill="white"/>
<path fill-rule="evenodd" clip-rule="evenodd" d="M214.494 249.285C211.21 246.121 209.552 241.853 209.536 236.433C209.536 235.508 209.592 234.454 209.713 233.301C209.834 232.132 209.987 230.996 210.204 229.942C211.693 222.461 214.865 216.522 219.75 212.14C224.628 207.742 230.513 205.535 237.403 205.535C243.045 205.535 247.52 207.125 250.797 210.306C254.072 213.503 255.714 217.819 255.714 223.306C255.714 224.245 255.642 225.333 255.521 226.501C255.376 227.686 255.2 228.822 254.997 229.942C253.541 237.309 250.379 243.184 245.493 247.485C240.606 251.818 234.739 253.974 227.896 253.974C222.23 253.974 217.771 252.417 214.494 249.285ZM238.425 240.166C240.638 237.748 242.224 234.079 243.19 229.196C243.335 228.433 243.463 227.638 243.543 226.843C243.623 226.063 243.656 225.333 243.656 224.668C243.656 221.828 242.939 219.621 241.498 218.063C240.067 216.489 238.031 215.711 235.399 215.711C231.921 215.711 229.087 216.942 226.867 219.41C224.628 221.877 223.042 225.609 222.044 230.575C221.907 231.337 221.795 232.101 221.691 232.847C221.611 233.609 221.587 234.323 221.602 234.972C221.602 237.796 222.319 239.971 223.759 241.512C225.191 243.054 227.218 243.817 229.885 243.817C233.378 243.817 236.211 242.6 238.425 240.166Z" fill="white"/>
<path fill-rule="evenodd" clip-rule="evenodd" d="M337.188 285.214L340.216 274.472H355.525L354.864 278.414C354.864 278.414 362.688 274.472 368.321 274.472C373.957 274.472 387.252 274.472 387.252 274.472L384.243 285.214H381.265L366.985 335.878H369.963L367.13 345.939H364.152L362.913 350.304H348.087L349.324 345.939H320.075L322.925 335.878H325.856L340.149 285.214H337.188ZM353.705 285.215L349.809 298.926C349.809 298.926 356.476 296.347 362.222 295.617C363.491 290.829 365.15 285.215 365.15 285.215L353.705 285.215ZM348.005 305.353L344.095 319.714C344.095 319.714 351.483 316.047 356.554 315.738C358.018 310.188 359.484 305.353 359.484 305.353L348.005 305.353ZM350.87 335.878L353.801 325.46H342.373L339.428 335.878H350.87ZM387.897 273.807H402.29L402.901 279.16C402.805 280.523 403.609 281.174 405.316 281.174H407.859L405.285 290.244H394.707C390.667 290.455 388.59 288.899 388.397 285.538L387.897 273.807ZM383.68 293.264H430.3L427.564 303.001H412.721L410.176 312.054H425.004L422.251 321.776H405.736L402 327.473H410.083L411.95 338.88C412.173 340.016 413.172 340.568 414.878 340.568H417.389L414.751 349.962H405.864C401.259 350.191 398.879 348.633 398.684 345.274L396.541 334.856L389.186 345.94C387.447 349.071 384.774 350.532 381.17 350.305H367.598L370.238 340.908H374.473C376.212 340.908 377.659 340.129 378.963 338.555L390.475 321.776H375.631L378.382 312.054H394.482L397.042 303.001H380.927L383.68 293.264Z" fill="white"/>
<path fill-rule="evenodd" clip-rule="evenodd" d="M138.253 206.72H149.577L148.282 213.373L149.907 211.475C153.579 207.516 158.037 205.551 163.302 205.551C168.067 205.551 171.504 206.948 173.661 209.754C175.785 212.562 176.365 216.441 175.36 221.423L169.121 252.807H157.482L163.116 224.36C163.697 221.423 163.536 219.232 162.641 217.819C161.757 216.408 160.065 215.711 157.627 215.711C154.633 215.711 152.113 216.651 150.061 218.518C147.999 220.4 146.64 223.014 145.972 226.34L140.78 252.807H129.117L138.253 206.72Z" fill="white"/>
<path fill-rule="evenodd" clip-rule="evenodd" d="M268.125 206.72H279.459L278.172 213.373L279.78 211.475C283.453 207.516 287.928 205.551 293.176 205.551C297.941 205.551 301.385 206.948 303.525 209.754C305.637 212.562 306.247 216.441 305.216 221.423L299.002 252.807H287.347L292.983 224.36C293.561 221.423 293.401 219.232 292.515 217.819C291.597 216.408 289.938 215.711 287.51 215.711C284.514 215.711 282.004 216.651 279.927 218.518C277.865 220.4 276.498 223.014 275.855 226.34L270.639 252.807H258.991L268.125 206.72" fill="white"/>
<path fill-rule="evenodd" clip-rule="evenodd" d="M324.149 178.159H357.054C363.381 178.159 368.273 179.604 371.637 182.443C374.986 185.316 376.662 189.438 376.662 194.809V194.971C376.662 195.993 376.595 197.146 376.5 198.395C376.337 199.628 376.127 200.877 375.856 202.176C374.407 209.284 371.042 214.997 365.843 219.329C360.625 223.646 354.446 225.821 347.331 225.821H329.685L324.229 252.808H308.95L324.149 178.159ZM332.373 212.839H347.008C350.822 212.839 353.848 211.945 356.055 210.177C358.245 208.392 359.694 205.666 360.497 201.966C360.625 201.283 360.705 200.667 360.803 200.1C360.853 199.565 360.915 199.028 360.915 198.51C360.915 195.864 359.984 193.949 358.115 192.748C356.248 191.53 353.32 190.947 349.261 190.947H336.832L332.373 212.839Z" fill="white"/>
<path fill-rule="evenodd" clip-rule="evenodd" d="M445.046 261.717C440.216 272.069 435.613 278.105 432.91 280.913C430.203 283.689 424.844 290.148 411.933 289.66L413.044 281.758C423.908 278.382 429.785 263.175 433.133 256.442L429.141 206.849L437.545 206.736H444.595L445.353 237.845L458.568 206.736H471.947L445.046 261.717Z" fill="white"/>
<path fill-rule="evenodd" clip-rule="evenodd" d="M407.636 210.485L402.32 214.17C396.767 209.788 391.696 207.078 381.911 211.654C368.579 217.885 357.44 265.677 394.144 249.935L396.236 252.434L410.677 252.808L420.159 209.381L407.636 210.485ZM399.424 234.226C397.105 241.124 391.924 245.683 387.867 244.385C383.81 243.12 382.361 236.465 384.711 229.553C387.029 222.639 392.244 218.096 396.269 219.394C400.325 220.66 401.79 227.313 399.424 234.226Z" fill="white"/>
</svg>
