<svg width="512" height="512" viewBox="0 0 512 512" fill="none" xmlns="http://www.w3.org/2000/svg">
<path d="M254.775 4.03103C294.729 4.03103 332.737 13.1772 366.836 29.5387C372.183 31.9429 377.564 34.8377 382.897 37.7353L359.526 58.463L324.461 22.3241L264.063 75.2996L228.492 37.2607L117.412 135.999L188.538 213.533L160.768 237.584L230.928 315.12L203.159 339.203L303.542 449.492L362.943 395.535L414.607 453.354C404.369 461.06 393.166 468.781 380.998 475.505C343.971 496.234 301.09 508.229 255.281 508.229C114.484 508.229 0.00149412 395.091 0.00149412 255.908C-0.476947 117.691 114.009 4 254.79 4L254.775 4.03103ZM208.001 240.481L268.92 186.523L323.48 246.746L262.559 300.673L208.001 240.464V240.481ZM251.357 344.519L311.803 290.087L366.836 350.296L305.916 404.253L251.373 344.519H251.357ZM164.676 137.897L225.549 83.9707L280.139 144.163L219.22 198.122L164.676 137.897ZM276.231 109.02L321.518 68.5595L362.453 113.34L317.119 154.276L276.199 109.02H276.231ZM357.089 294.422L402.375 253.978L443.311 299.233L397.992 339.71L357.073 294.422H357.089ZM397.027 385.455L442.346 344.994L483.25 389.775L437.946 430.71L397.027 385.455ZM415.54 177.378L445.764 150.43L473.028 180.289L442.836 207.251L415.525 177.378H415.54ZM376.568 88.2907L406.79 60.8539L434.086 91.2018L403.863 118.18L376.583 88.3071L376.568 88.2907ZM454.055 266.511L484.246 239.532L512 269.391L481.303 296.353L454.04 266.511H454.055ZM318.132 199.546L363.434 159.101L404.353 203.882L359.067 244.343L318.132 199.56V199.546Z" fill="#006CB4"/>
</svg>
