<svg width="512" height="512" viewBox="0 0 512 512" fill="none" xmlns="http://www.w3.org/2000/svg">
<path d="M344.772 154L290.864 352.093H251.744L210.904 220.762L170.065 352.093H131.203L76.7788 154H119.166L152.482 279.356L191.43 154H230.636L270.272 280.302L302.858 154H344.772ZM469.311 154V276.003V276.304C469.311 276.476 470.171 293.069 459.467 304.461C452.502 311.855 442.056 315.595 428.385 315.595C414.715 315.595 404.269 311.855 397.304 304.461C386.6 293.069 387.46 276.476 387.46 276.304V154H369.877L344.772 246.254V274.928C344.772 299.346 352.682 320.023 367.642 334.769C382.602 349.471 403.581 357.252 428.385 357.252C453.147 357.252 474.169 349.471 489.129 334.769C504.089 320.066 511.999 299.346 511.999 274.928V154H469.311Z" fill="#FFE500"/>
<path d="M54.424 352.093L0 154H13.8855L68.3524 352.093H54.424ZM106.742 352.093L52.3176 154H38.4321L92.8131 352.093H106.742Z" fill="white"/>
</svg>
