<svg width="512" height="512" viewBox="0 0 512 512" fill="none" xmlns="http://www.w3.org/2000/svg">
<path d="M481.873 102C495.727 102 507 113.272 507 127.127V385.035C507 398.889 495.728 410.162 481.873 410.162H30.1269C16.2725 410.162 5.00016 398.89 5.00016 385.035V127.127C5.00016 113.273 16.2715 102 30.1269 102H481.873ZM481.873 97H30.1269C13.4884 97 0 110.488 0 127.127V385.035C0 401.675 13.4884 415.162 30.1269 415.162H481.873C498.513 415.162 512 401.675 512 385.035V127.127C512 110.488 498.512 97 481.873 97Z" fill="#00B5E5"/>
<path fill-rule="evenodd" clip-rule="evenodd" d="M143.429 334.392L143.428 334.392H159.547L162.632 323.755H185.653L188.657 334.392H204.776L184.233 274.953H163.932L143.703 333.597L128.04 310.439C132.371 309.49 135.666 307.576 137.927 304.693C140.187 301.81 141.318 298.068 141.318 293.466C141.318 290.436 140.742 287.661 139.591 285.143C138.441 282.626 136.797 280.555 134.658 278.932C132.764 277.498 130.51 276.476 127.898 275.868C125.286 275.258 120.665 274.953 114.034 274.953H97.1032V334.392H112.287V311.127L125.929 334.392H143.429ZM182.242 312.184H166.124L172.093 292.573C172.458 291.307 172.804 290.035 173.129 288.758C173.483 287.366 173.828 285.972 174.164 284.576C174.678 286.661 175.097 288.366 175.422 289.691C175.747 291.017 176.004 291.979 176.193 292.573L182.242 312.184ZM115.292 303.05H112.288V287.417H115.536C119.082 287.417 121.607 288.047 123.108 289.305C124.611 290.564 125.361 292.68 125.361 295.658C125.361 298.204 124.555 300.072 122.945 301.262C121.334 302.454 118.784 303.05 115.292 303.05Z" fill="#00AFD8"/>
<path d="M210.46 274.953V334.392H226.091V305.039C226.081 303.331 226.007 301.625 225.868 299.923C225.719 298 225.482 295.796 225.157 293.305C226.322 295.849 227.398 298.062 228.386 299.943C229.372 301.825 230.097 303.077 230.558 303.7L253.01 334.392H268.56V274.953H253.01V304.308C253.019 306.015 253.094 307.721 253.234 309.423C253.412 311.621 253.649 313.815 253.944 316.001C252.753 313.403 251.662 311.162 250.675 309.281C249.688 307.4 248.977 306.149 248.543 305.526L226.091 274.953H210.46Z" fill="#00AFD8"/>
<path d="M291.073 321.32C288.731 319.966 286.358 317.924 283.948 315.189L276.638 327.247C279.78 330.251 283.047 332.457 286.445 333.864C289.843 335.272 293.612 335.976 297.753 335.976C304.654 335.976 310.175 334.061 314.317 330.232C318.46 326.401 320.53 321.334 320.53 315.025C320.53 312.536 320.163 310.269 319.433 308.225C318.703 306.182 317.632 304.43 316.226 302.967C314.142 300.828 309.796 298.866 303.192 297.079L302.462 296.877C299.405 296.064 297.341 295.21 296.271 294.318C295.201 293.426 294.667 292.233 294.667 290.745C294.667 289.284 295.276 288.086 296.494 287.153C297.712 286.22 299.296 285.752 301.244 285.752C303.138 285.752 305.053 286.152 306.989 286.949C308.923 287.748 310.812 288.934 312.652 290.502L317.728 278.85C315.103 277.064 312.322 275.731 309.384 274.851C306.447 273.972 303.341 273.532 300.067 273.532C294.003 273.532 289.071 275.326 285.269 278.912C281.465 282.499 279.563 287.132 279.563 292.816C279.563 297.203 280.767 300.653 283.177 303.171C285.585 305.688 289.701 307.734 295.519 309.302C299.768 310.44 302.495 311.542 303.701 312.612C304.904 313.68 305.507 315.203 305.507 317.178C305.507 318.964 304.81 320.44 303.416 321.603C302.022 322.768 300.243 323.35 298.078 323.35C295.749 323.35 293.414 322.674 291.073 321.32Z" fill="#00AFD8"/>
<path d="M329.623 274.953V334.392H345.417V311.048H364.865V298.298H345.417V287.986H366.042V274.953H329.623Z" fill="#00AFD8"/>
<path d="M374.852 274.953V334.392H411.272V321.076H390.647V311.048H410.096V298.298H390.647V287.986H411.272V274.953H374.852Z" fill="#00AFD8"/>
<path fill-rule="evenodd" clip-rule="evenodd" d="M421.99 274.953V334.392H437.175V311.127L450.818 334.392H469.128L452.93 310.439C457.261 309.49 460.555 307.576 462.816 304.693C465.075 301.811 466.206 298.068 466.206 293.466C466.206 290.436 465.63 287.661 464.48 285.143C463.328 282.626 461.686 280.555 459.547 278.932C457.652 277.498 455.398 276.476 452.786 275.868C450.174 275.258 445.554 274.953 438.921 274.953H421.99ZM440.181 303.05H437.175V287.417H440.423C443.969 287.417 446.494 288.047 447.995 289.305C449.497 290.564 450.248 292.68 450.248 295.658C450.248 298.204 449.442 300.072 447.832 301.262C446.223 302.455 443.672 303.05 440.181 303.05Z" fill="#00AFD8"/>
<path d="M59.669 289.001V334.392H75.8685V289.001H89.1859V274.953H46.3516V289.001H59.669Z" fill="#00AFD8"/>
<path d="M232.142 178.32L242.932 219.137C243.441 220.975 243.91 222.89 244.34 224.884C244.77 226.878 245.219 229.165 245.689 231.745C246.276 228.695 246.774 226.184 247.184 224.209C247.594 222.235 247.995 220.543 248.386 219.137L258.472 178.32H282.108L257.828 264.177H236.13L225.515 227.523C225.123 226.232 224.479 223.711 223.58 219.958C223.188 218.278 222.876 216.967 222.642 216.029C222.446 216.85 222.173 218.004 221.821 219.489C220.922 223.281 220.238 225.96 219.769 227.523L209.329 264.177H187.572L163.351 178.32H186.985L196.837 219.371C197.306 221.483 197.766 223.594 198.215 225.705C198.664 227.816 199.085 229.986 199.476 232.214C199.846 230.491 200.227 228.771 200.62 227.053C201.215 224.487 201.83 221.926 202.467 219.37L213.259 178.319H232.142V178.32ZM290.787 264.177V178.32H314.422V264.177H290.787ZM333.305 264.177V178.32H357.76C367.337 178.32 374.014 178.759 377.787 179.639C381.56 180.518 384.814 181.995 387.552 184.066C390.64 186.412 393.015 189.403 394.677 193.039C396.339 196.675 397.169 200.683 397.169 205.061C397.169 211.709 395.537 217.113 392.273 221.277C389.008 225.441 384.249 228.206 377.994 229.575L401.393 264.177H374.944L355.239 230.573V264.178H333.305V264.177ZM355.239 218.903H359.578C364.622 218.903 368.306 218.043 370.634 216.323C372.96 214.603 374.123 211.905 374.123 208.229C374.123 203.929 373.039 200.869 370.868 199.051C368.697 197.234 365.052 196.324 359.929 196.324H355.239V218.903ZM410.307 264.177V178.32H462.912V197.145H433.12V212.042H461.211V230.456H433.12V244.942H462.912V264.177H410.307Z" fill="#006E90"/>
<path d="M47.0586 177.692H154.177V194.692H47.0586V177.692Z" fill="url(#paint0_linear_104_478)"/>
<path d="M47.0586 210.691H154.177V227.691H47.0586V210.691Z" fill="url(#paint1_linear_104_478)"/>
<path d="M154.177 246.691H47.0586V263.691H154.177V246.691Z" fill="url(#paint2_linear_104_478)"/>
<defs>
<linearGradient id="paint0_linear_104_478" x1="47.0586" y1="255.191" x2="154.177" y2="255.191" gradientUnits="userSpaceOnUse">
<stop stop-color="#41E700" stop-opacity="0"/>
<stop offset="0.736" stop-color="#3ACD00"/>
<stop offset="0.781" stop-color="#36BE00"/>
<stop offset="0.926" stop-color="#299100"/>
<stop offset="1" stop-color="#248000"/>
</linearGradient>
<linearGradient id="paint1_linear_104_478" x1="47.0586" y1="255.191" x2="154.177" y2="255.191" gradientUnits="userSpaceOnUse">
<stop stop-color="#41E700" stop-opacity="0"/>
<stop offset="0.736" stop-color="#3ACD00"/>
<stop offset="0.781" stop-color="#36BE00"/>
<stop offset="0.926" stop-color="#299100"/>
<stop offset="1" stop-color="#248000"/>
</linearGradient>
<linearGradient id="paint2_linear_104_478" x1="47.0586" y1="255.191" x2="154.177" y2="255.191" gradientUnits="userSpaceOnUse">
<stop stop-color="#41E700" stop-opacity="0"/>
<stop offset="0.736" stop-color="#3ACD00"/>
<stop offset="0.781" stop-color="#36BE00"/>
<stop offset="0.926" stop-color="#299100"/>
<stop offset="1" stop-color="#248000"/>
</linearGradient>
</defs>
</svg>
