<svg width="512" height="512" viewBox="0 0 512 512" fill="none" xmlns="http://www.w3.org/2000/svg">
<path d="M452.239 388.528C447.757 395.252 442.527 401.975 436.551 408.698C423.852 422.891 408.912 436.337 392.477 447.543C371.561 461.736 349.897 472.941 327.487 481.159C308.064 487.882 290.883 491.617 275.943 492.364C274.448 492.364 272.207 492.364 270.713 492.364C263.243 492.364 258.014 491.617 255.026 489.376L253.532 488.629C252.785 487.882 252.785 487.882 252.038 487.135V486.388C252.038 485.641 252.038 484.147 252.785 482.653C254.279 478.917 256.52 475.929 259.508 472.194C260.255 471.447 261.749 469.953 262.496 468.459C273.701 465.471 284.907 461.736 297.606 458.001C308.811 460.242 320.764 460.989 331.222 460.242C344.668 458.748 357.367 455.013 368.573 449.037C382.019 441.567 393.971 431.855 403.682 419.903C409.659 411.686 414.888 403.469 418.623 393.758C438.792 378.07 455.974 361.636 469.42 345.201C471.661 342.213 473.902 339.225 476.143 336.237C470.914 354.166 463.444 372.094 452.239 388.528ZM375.296 422.144C379.778 419.903 383.513 416.915 387.995 414.674C382.019 422.144 374.549 428.867 367.079 434.096C356.62 440.82 345.415 446.049 334.21 448.29C328.981 449.037 324.499 449.784 319.27 450.531C337.945 442.314 357.367 432.602 375.296 422.144ZM512 234.643C512 212.979 506.771 192.063 496.313 172.64C487.348 155.459 473.902 139.025 457.468 124.084C453.733 103.915 443.274 85.2393 427.587 68.0579C414.888 54.6116 399.2 42.6593 379.778 32.201C364.838 23.9838 348.403 17.2607 331.222 12.0316C317.028 7.54946 302.835 5.30841 289.389 3.81438C276.69 2.32034 266.231 3.06736 256.52 4.56139C246.809 6.80244 237.845 9.79051 229.627 14.2726L228.133 15.0196C216.928 13.5256 205.723 13.5256 195.265 14.2726H192.277C181.818 15.0196 160.155 18.0077 161.649 28.4659C161.649 28.4659 161.649 34.4421 175.095 38.9242C182.565 34.4421 186.3 32.201 193.771 27.7189C192.277 27.7189 190.783 26.9719 189.288 26.9719C195.265 26.2249 201.241 25.4779 205.723 25.4779C207.217 25.4779 208.711 25.4779 209.458 25.4779C207.964 26.2249 207.217 26.9719 205.723 27.7189L199.747 31.454C188.541 38.1772 184.806 41.1652 172.854 47.8884C165.384 52.3705 158.661 56.8526 151.191 60.5877C136.997 68.0579 122.804 75.5281 107.864 82.9982C95.9113 88.2274 83.959 94.2035 68.2716 100.927L66.7776 101.674C63.0425 103.168 59.3074 104.662 56.3194 106.156H55.5723C51.8373 107.65 47.3552 109.891 45.1141 114.373L44.3671 117.361V119.602V120.349C44.3671 121.096 45.1141 121.843 45.1141 121.843L47.3552 124.084L49.5962 125.578H50.3432C52.5843 126.325 55.5723 126.325 58.5604 126.325C60.8015 126.325 62.2955 126.325 64.5366 126.325H72.0067C77.2359 126.325 82.465 125.578 86.9471 125.578C111.599 124.831 134.009 124.831 155.673 125.578C176.589 126.325 197.506 128.566 218.422 130.807C228.88 132.301 239.339 133.795 249.797 135.289C256.52 129.313 261.749 124.831 265.484 120.349C243.821 115.867 222.157 112.879 201.241 110.638C179.577 108.397 156.42 106.903 133.262 106.903C130.274 106.903 128.033 106.903 125.045 106.903C113.84 106.903 101.887 106.903 90.6822 107.65C101.887 102.421 111.599 97.1916 121.31 92.7095C135.503 85.2393 149.697 77.0221 163.89 68.0579C174.348 61.3347 185.553 53.8646 198.253 44.9003L200.494 43.4063C215.434 46.3944 233.362 49.3824 251.291 53.1175C263.99 56.1056 276.69 59.0937 289.389 62.0817C284.16 49.3824 268.472 41.9123 259.508 38.1772C246.809 35.9361 233.363 32.9481 217.675 30.707C221.41 27.7189 225.145 25.4779 228.88 23.9838C241.58 25.4779 252.038 27.7189 261.749 31.454C269.219 34.4421 275.195 37.4302 280.425 41.1653C281.172 41.9123 282.666 42.6593 283.413 43.4063C292.377 50.8765 297.606 60.5877 297.606 70.2989C298.353 78.5161 296.112 87.4803 291.63 96.4445C289.389 101.674 285.654 106.903 281.919 112.132C281.172 113.626 274.448 123.337 259.508 136.036C245.315 149.483 228.133 161.435 207.217 174.134C199.747 178.616 193.024 182.352 185.553 186.087C176.589 190.569 167.625 195.051 160.155 198.039C148.202 203.268 128.033 212.232 102.634 219.702C89.1881 223.438 76.4888 227.173 63.7895 229.414C54.0783 231.655 42.126 233.149 30.1738 233.896C43.6201 227.92 58.5604 224.185 74.2478 221.943C104.128 215.22 129.527 205.509 145.961 198.039C130.274 198.039 114.587 198.786 98.1523 200.28C71.2597 203.268 49.5962 207.003 30.1738 213.726C18.9685 217.461 4.02815 223.438 0.293059 233.149C-0.453959 238.378 0.293059 242.113 1.78709 245.848C4.77516 251.824 10.7513 254.812 20.4625 256.306C27.9327 257.053 36.1499 257.053 47.3552 255.559C67.5246 253.318 89.1881 248.836 113.84 240.619C135.503 233.896 154.926 225.679 173.601 217.461C194.518 218.208 215.434 220.449 235.604 224.185C257.267 227.92 275.942 233.149 293.871 239.872C314.04 247.342 331.222 255.559 345.415 265.27C350.644 261.535 355.126 257.8 358.861 254.812C358.114 254.812 358.114 254.065 357.367 254.065C339.439 242.113 318.522 231.655 296.112 223.438C277.437 216.714 257.267 211.485 234.857 207.003C224.398 204.762 213.94 203.268 202.735 202.521C220.663 192.81 236.351 183.099 250.544 171.893C263.243 162.182 273.701 152.471 283.413 142.76C308.811 149.483 330.475 156.206 349.897 164.423C373.055 174.134 393.224 185.34 410.406 198.039L411.9 198.786C415.635 193.557 418.623 187.581 420.864 183.099C405.177 171.893 387.995 162.182 369.32 153.218C348.403 143.507 325.246 135.289 299.847 128.566C299.1 128.566 298.353 127.819 296.859 127.819C308.064 112.132 314.787 97.1916 316.281 82.9982C317.028 78.5161 317.028 74.781 316.281 70.2989C337.945 77.0221 358.861 85.2393 378.284 94.2035C397.706 103.168 414.141 112.879 428.334 124.084L429.081 124.831C425.346 109.144 417.129 97.1916 412.647 91.9624C403.682 86.7333 393.971 82.2512 383.513 77.0221C365.585 68.8049 345.415 61.3347 323.752 54.6116C319.27 53.1175 314.04 51.6235 309.558 50.8765H308.811C302.088 38.9242 291.63 32.201 283.413 27.7189C274.448 23.2368 263.99 19.5017 252.038 17.2607C257.267 16.5137 261.749 15.7667 266.978 15.7667H268.472C272.954 15.7667 278.184 15.7667 283.413 16.5137C284.907 16.5137 285.654 16.5137 287.148 17.2607C299.847 18.7547 312.546 21.7428 326.74 26.2249C343.174 31.454 358.861 38.1772 372.308 46.3944C389.489 56.1056 403.682 67.3109 414.888 80.0102C418.623 84.4923 422.358 88.9744 425.346 93.4565C426.093 94.2035 426.84 94.9505 426.84 96.4445C426.84 96.4445 426.84 97.1916 427.587 97.1916C432.816 106.156 438.045 118.108 438.792 132.301C440.286 147.242 437.298 162.182 432.816 174.134C432.816 174.881 426.84 191.316 416.382 206.256C405.924 221.943 391.73 237.631 374.549 252.571C370.814 256.306 359.608 266.018 343.921 276.476C328.981 286.934 313.293 296.645 296.859 305.609C284.16 313.08 270.713 319.056 254.279 326.526C247.556 329.514 237.845 333.249 226.639 336.984C208.711 343.707 190.783 348.936 172.854 353.419C146.708 359.395 123.551 363.13 101.14 364.624C92.1762 365.371 83.959 365.371 75.7418 364.624C63.7895 363.877 51.0902 362.383 43.6201 355.66C42.8731 354.913 42.8731 354.913 42.126 354.166V353.419V352.672C43.6201 348.189 47.3552 345.201 51.0902 342.213C56.3194 338.478 62.2955 335.49 69.7657 332.502C86.9471 325.779 106.37 321.297 128.78 319.056C149.697 317.562 171.36 318.309 191.53 321.297C201.988 322.791 212.446 325.779 222.904 328.767C230.374 326.526 237.845 323.538 243.074 321.297C230.374 316.068 216.181 311.586 201.241 307.85C180.324 303.368 157.914 301.874 135.503 302.621C112.346 303.368 90.6822 307.103 71.2597 313.08C55.5723 318.309 38.3909 325.032 27.9327 338.478C23.4506 344.454 21.2095 351.177 22.7036 358.648C24.1976 367.612 31.6678 373.588 35.4029 375.829C45.1141 381.805 57.0664 384.793 65.2836 385.54C74.2478 387.034 83.959 387.781 94.4173 387.781C95.9113 387.781 97.4053 387.781 99.6464 387.781C121.31 387.034 144.467 384.046 172.107 378.07C195.265 372.841 219.169 366.118 243.821 356.407C250.544 353.419 258.014 351.178 264.737 348.189C275.943 355.66 284.16 363.877 289.389 372.841C294.618 381.805 296.859 390.022 296.859 398.987C296.859 407.204 294.618 415.421 290.136 422.891C289.389 425.132 287.895 426.626 286.401 428.867C291.63 427.373 296.859 425.132 302.088 422.891C302.835 421.397 303.582 419.903 304.329 418.409C308.064 408.698 309.558 398.24 308.064 388.528C306.57 377.323 301.341 366.118 293.124 356.407C289.389 351.177 284.16 346.695 278.931 342.213C302.835 331.008 324.499 319.056 343.921 306.356C353.632 299.633 363.344 292.91 372.308 286.187C387.248 300.38 398.453 316.068 403.682 333.249C406.671 342.213 408.165 351.178 408.165 360.889C414.141 355.66 419.37 351.177 423.105 347.442C421.611 333.996 417.129 321.297 409.659 308.598C403.682 297.392 394.718 286.934 384.26 276.476C404.43 259.294 420.864 241.366 432.816 222.691C433.563 221.943 434.31 220.449 435.057 219.702C449.998 234.643 461.203 251.077 468.673 267.512V268.259C470.167 271.247 470.914 274.982 472.408 277.97C477.637 266.018 479.878 255.559 480.625 248.836C474.649 236.884 466.432 225.679 457.468 215.967C453.733 211.485 449.251 207.75 444.768 203.268C452.986 186.087 458.215 169.652 459.709 153.965C463.444 158.447 467.179 162.929 470.167 167.411C481.372 184.593 488.842 202.521 490.336 219.702C491.083 226.426 491.083 232.402 491.083 239.125C491.083 239.872 491.084 246.595 488.842 257.053C488.842 258.547 488.095 260.788 487.348 262.282C485.107 270.5 481.372 280.958 476.143 292.163C475.396 292.91 475.396 294.404 474.649 295.151C473.902 295.898 473.902 297.392 473.155 298.139C463.444 316.068 449.998 333.996 432.816 350.43C430.575 352.672 428.334 354.913 425.346 357.154C419.37 363.13 410.406 370.6 402.188 376.576C385.754 389.275 367.826 400.481 349.15 410.192C334.957 417.662 320.017 425.132 304.329 431.108C287.895 437.832 272.207 443.061 260.255 446.049C237.845 452.025 216.181 456.507 195.265 458.748C175.842 460.242 160.902 460.242 146.708 458.001C137.744 456.507 131.021 454.266 125.045 451.278C123.551 450.531 122.057 449.037 121.31 448.29C121.31 447.543 120.563 447.543 120.563 446.796V446.049V445.302C123.551 437.832 133.262 434.096 142.973 431.108C151.938 428.12 163.143 426.626 175.095 426.626H176.589C187.794 426.626 199 428.12 210.952 431.108C222.157 433.349 233.363 437.085 243.074 440.82C243.821 440.82 243.821 441.567 244.568 441.567C249.05 440.82 254.279 439.326 261.002 437.085C260.255 437.085 259.508 436.337 258.014 436.337C253.532 434.843 249.05 432.602 244.568 431.108C231.868 425.879 221.41 422.891 210.952 419.903C198.253 416.915 185.553 414.674 173.601 414.674C160.902 413.927 148.203 415.421 136.25 418.409C123.551 421.397 114.587 426.626 107.864 432.602C103.381 437.085 101.14 443.061 101.14 449.037C101.14 455.013 104.128 460.989 109.358 465.471C122.804 477.423 144.467 480.412 161.649 481.159C183.312 482.653 206.47 480.412 231.868 475.929C234.857 475.182 238.592 474.435 241.58 473.688C239.339 477.423 237.098 481.159 236.351 485.641C235.604 492.364 239.339 499.087 246.809 502.822C253.532 506.557 262.496 508.798 274.448 508.798C276.69 508.798 278.931 508.798 281.172 508.798C299.847 508.051 319.27 503.569 340.933 495.352C362.596 487.882 382.766 476.676 402.188 463.977C419.37 452.025 435.804 437.832 449.251 422.144C463.444 405.71 475.396 387.781 482.866 369.106C491.083 350.43 494.819 329.514 494.072 309.345C494.072 306.356 494.072 303.368 493.325 300.38C506.771 278.717 512 256.306 512 234.643Z" fill="#E30613"/>
</svg>
