<svg width="512" height="512" viewBox="0 0 512 512" fill="none" xmlns="http://www.w3.org/2000/svg">
<g clip-path="url(#clip0_104_353)">
<path d="M0 187.733C0 122.021 0 89.1641 12.7886 64.0651C24.0377 41.9874 41.9874 24.0377 64.0651 12.7886C89.1641 0 122.021 0 187.733 0H324.267C389.98 0 422.836 0 447.935 12.7886C470.013 24.0377 487.962 41.9874 499.211 64.0651C512 89.1641 512 122.021 512 187.733V324.267C512 389.98 512 422.836 499.211 447.935C487.962 470.013 470.013 487.962 447.935 499.211C422.836 512 389.98 512 324.267 512H187.733C122.021 512 89.1641 512 64.0651 499.211C41.9874 487.962 24.0377 470.013 12.7886 447.935C0 422.836 0 389.98 0 324.267V187.733Z" fill="#6627CF"/>
<path d="M230.711 115.637L148.292 114.88L148.292 169.406H284.882L142.934 350.847V396.989H230.711V450.133H283.377V396.989H372.91C373.662 394.863 373.926 389.13 369.161 383.879C361.261 375.125 354.978 365.977 349.21 354.473C346.577 349.346 344.577 343.206 343.825 342.706C326.193 341.9 224.762 342.108 224.817 341.469L366.891 158.915V115.637H283.377V61.8666H230.711V115.637Z" fill="white"/>
</g>
<defs>
<clipPath id="clip0_104_353">
<rect width="512" height="512" fill="white"/>
</clipPath>
</defs>
</svg>
