<svg xmlns="http://www.w3.org/2000/svg" width="24" height="24" fill="none" viewBox="0 0 24 24">
  <path fill="#161C24" fill-rule="evenodd" d="M1.25 12C1.25 6.063 6.063 1.25 12 1.25S22.75 6.063 22.75 12 17.937 22.75 12 22.75 1.25 17.937 1.25 12Zm6.772-1.175A5.401 5.401 0 0 0 7 10.75a.75.75 0 0 1 0-1.5h.01c.262 0 .757 0 1.292.102.537.102 1.19.32 1.712.81.122.116.288.283.427.48.126.176.309.482.309.858a1.25 1.25 0 1 1-2.5-.012c.004-.22.07-.411.148-.566a2.826 2.826 0 0 0-.376-.097ZM16.99 9.25H17a.75.75 0 0 1 0 1.5 5.4 5.4 0 0 0-1.022.075 2.827 2.827 0 0 0-.376.098c.079.154.144.346.148.565a1.25 1.25 0 1 1-2.5.012c0-.376.183-.682.309-.858a3.39 3.39 0 0 1 .427-.48c.522-.49 1.175-.708 1.712-.81a6.823 6.823 0 0 1 1.292-.102Zm-8.39 8.2a4.242 4.242 0 0 1 3.4-1.7 4.24 4.24 0 0 1 3.4 1.7.75.75 0 0 0 1.2-.9 5.742 5.742 0 0 0-4.6-2.3 5.742 5.742 0 0 0-4.6 2.3.75.75 0 1 0 1.2.9Z" clip-rule="evenodd"/>
</svg>
