<svg xmlns="http://www.w3.org/2000/svg" width="24" height="24" fill="none" viewBox="0 0 24 24">
  <path fill="#161C24" fill-rule="evenodd" d="M1.25 12C1.25 6.063 6.063 1.25 12 1.25S22.75 6.063 22.75 12 17.937 22.75 12 22.75 1.25 17.937 1.25 12Zm5.5-3c0-.69.56-1.25 1.25-1.25h.009a1.25 1.25 0 1 1 0 2.5H8c-.69 0-1.25-.56-1.25-1.25Zm7.991 0c0-.69.56-1.25 1.25-1.25H16a1.25 1.25 0 1 1 0 2.5h-.009c-.69 0-1.25-.56-1.25-1.25Zm.538 5.696a.75.75 0 0 0-.557-1.392l-5 2a.75.75 0 0 0 .557 1.392l5-2Z" clip-rule="evenodd"/>
</svg>
