<svg xmlns="http://www.w3.org/2000/svg" width="24" height="24" fill="none" viewBox="0 0 24 24">
  <path fill="#161C24" fill-rule="evenodd" d="M12 1.25C6.063 1.25 1.25 6.063 1.25 12S6.063 22.75 12 22.75 22.75 17.937 22.75 12 17.937 1.25 12 1.25ZM7.75 9.5a.75.75 0 0 0-1.5 0 2.25 2.25 0 0 0 4.5 0 .75.75 0 0 0-1.5 0 .75.75 0 0 1-1.5 0Zm7.36-1.286c-.209.418-.36 1.049-.36 1.786a.75.75 0 0 1-1.5 0c0-.92.185-1.79.518-2.457.312-.622.88-1.293 1.732-1.293.851 0 1.42.67 1.732 1.293.333.668.518 1.537.518 2.457a.75.75 0 0 1-1.5 0c0-.737-.151-1.368-.36-1.786a1.288 1.288 0 0 0-.29-.406.32.32 0 0 0-.096-.058h-.008a.32.32 0 0 0-.095.058 1.288 1.288 0 0 0-.29.406Zm2.126 4.84a.75.75 0 0 0-1.206.892c.304.41.31.952-.092 1.325-.456.423-.963.442-1.612.27a8.87 8.87 0 0 1-.828-.28 48.542 48.542 0 0 0-.176-.066c-.306-.113-.712-.26-1.09-.274-.672-.024-1.201.283-1.614.522l-.098.056c-.455.262-.976.546-1.812.722-.4.085-.632-.008-.751-.1a.553.553 0 0 1-.207-.45.75.75 0 0 0-1.5 0c0 .63.273 1.238.79 1.638.524.404 1.223.54 1.977.38 1.064-.224 1.744-.599 2.25-.888.534-.307.697-.389.913-.381.094.003.27.052.621.182l.152.056c.283.107.63.237.988.332.872.232 2.015.31 3.017-.619 1.074-.996.94-2.422.278-3.317Z" clip-rule="evenodd"/>
</svg>
