<svg xmlns="http://www.w3.org/2000/svg" width="24" height="24" fill="none" viewBox="0 0 24 24">
  <path fill="#161C24" d="M19.94 2.365c-.199-.201-.299-.302-.423-.303-.124 0-.225.1-.426.299l-1.374 1.362a2.479 2.479 0 0 0 .017 3.504 2.532 2.532 0 0 0 3.534-.016 2.464 2.464 0 0 0 0-3.504L19.94 2.365Z"/>
  <path fill="#161C24" fill-rule="evenodd" d="m16.802 2.8-.008.008a3.779 3.779 0 0 0 .024 5.342l.008.008a3.832 3.832 0 0 0 5.248.08A10.74 10.74 0 0 1 22.75 12c0 5.937-4.813 10.75-10.75 10.75S1.25 17.937 1.25 12 6.063 1.25 12 1.25c1.838 0 3.567.461 5.08 1.274l-.278.276ZM7.55 14.4a.75.75 0 0 1 1.05.15 4.242 4.242 0 0 0 3.4 1.7 4.24 4.24 0 0 0 3.4-1.7.75.75 0 0 1 1.2.9 5.742 5.742 0 0 1-4.6 2.3 5.742 5.742 0 0 1-4.6-2.3.75.75 0 0 1 .15-1.05Zm.98-5.93a.75.75 0 0 0-1.06 1.06l.793.793a.25.25 0 0 1 0 .354l-.793.793a.75.75 0 1 0 1.06 1.06l.793-.793a1.75 1.75 0 0 0 0-2.474L8.53 8.47Zm8 1.06a.75.75 0 0 0-1.06-1.06l-.793.793a1.75 1.75 0 0 0 0 2.474l.793.793a.75.75 0 1 0 1.06-1.06l-.793-.793a.25.25 0 0 1 0-.354l.793-.793Z" clip-rule="evenodd"/>
</svg>
