<svg xmlns="http://www.w3.org/2000/svg" width="24" height="24" fill="none" viewBox="0 0 24 24">
  <path fill="#161C24" fill-rule="evenodd" d="M14.712 1.595c-.782.726-1.134 1.841-.973 2.984.195 1.384 1.105 2.765 2.73 3.911l.087.061c.47.334 1.054.749 1.944.749.89 0 1.474-.415 1.944-.749l.086-.06a8.469 8.469 0 0 0 1.216-1.033A10.709 10.709 0 0 1 22.75 12c0 5.937-4.813 10.75-10.75 10.75S1.25 17.937 1.25 12 6.063 1.25 12 1.25c.937 0 1.845.12 2.712.345ZM7.55 14.4a.75.75 0 0 1 1.05.15 4.242 4.242 0 0 0 3.4 1.7 4.24 4.24 0 0 0 3.4-1.7.75.75 0 0 1 1.2.9 5.742 5.742 0 0 1-4.6 2.3 5.742 5.742 0 0 1-4.6-2.3.75.75 0 0 1 .15-1.05Zm1.157-5.65c-.652 0-1.277.259-1.737.72a.75.75 0 1 0 1.06 1.06c.18-.18.423-.28.677-.28H10a.75.75 0 0 0 0-1.5H8.707Zm5.293 0a.75.75 0 0 0 0 1.5h1.293c.254 0 .497.1.677.28a.75.75 0 1 0 1.06-1.06 2.457 2.457 0 0 0-1.737-.72H14Z" clip-rule="evenodd"/>
  <path fill="#161C24" d="M15.888 2.331c.939-.548 1.758-.327 2.25.025.202.144.303.216.362.216.06 0 .16-.072.362-.216.492-.352 1.311-.573 2.25-.025 1.232.72 1.51 3.094-1.33 5.097-.542.381-.813.572-1.282.572-.47 0-.74-.19-1.281-.572-2.841-2.003-2.563-4.377-1.33-5.097Z"/>
</svg>
