<svg xmlns="http://www.w3.org/2000/svg" width="24" height="24" fill="none" viewBox="0 0 24 24">
  <path fill="#161C24" fill-rule="evenodd" d="M19.71 14.06a3.024 3.024 0 0 0-.264-.24c-.47-.376-1.215-.728-2.17-.491-1.227.303-1.982 1.537-2.028 2.886-.047 1.395.626 2.991 2.272 4.362a.75.75 0 0 0 .573.168c2.186-.274 3.599-1.275 4.253-2.522.635-1.211.522-2.654-.36-3.539-.686-.688-1.433-.806-2.028-.688a2.084 2.084 0 0 0-.248.064Z" clip-rule="evenodd"/>
  <path fill="#161C24" fill-rule="evenodd" d="M1.25 12C1.25 6.063 6.063 1.25 12 1.25S22.75 6.063 22.75 12c0 .517-.036 1.025-.107 1.522-.824-.7-1.743-.925-2.567-.855-.696-.496-1.775-.932-3.113-.6-1.964.485-2.955 2.374-3.014 4.104-.063 1.866.842 3.825 2.74 5.404.025.022.051.043.078.063A10.706 10.706 0 0 1 12 22.75C6.063 22.75 1.25 17.937 1.25 12Zm13.5-2.5a.75.75 0 0 1 1.5 0 .75.75 0 0 0 1.5 0 2.25 2.25 0 0 0-4.5 0 .75.75 0 0 0 1.5 0ZM7 9a1 1 0 0 1 1-1h.009a1 1 0 1 1 0 2H8a1 1 0 0 1-1-1Zm2.379 5.75c.397 0 1.168.014 1.846.343l-.376.377a.75.75 0 0 0 0 1.06l.376.377c-.678.328-1.449.343-1.846.343a.75.75 0 0 0 0 1.5h.028c.512 0 2.28.002 3.502-1.22a.75.75 0 0 0 0-1.06l-.47-.47.47-.47a.75.75 0 0 0 0-1.06c-1.222-1.222-2.99-1.22-3.502-1.22h-.028a.75.75 0 0 0 0 1.5Z" clip-rule="evenodd"/>
</svg>
