<svg xmlns="http://www.w3.org/2000/svg" width="24" height="24" fill="none" viewBox="0 0 24 24">
  <path fill="#161C24" fill-rule="evenodd" d="M12 1.25C6.063 1.25 1.25 6.063 1.25 12c0 .363 0 .544.052.62a.28.28 0 0 0 .275.131c.092-.008.26-.145.595-.42a5.19 5.19 0 0 1 .381-.282c1.057-.714 2.372-1.064 3.137-1.26A1.25 1.25 0 0 1 7 12.75c-.442.59-.419.997-.379 1.71l.004.062c.02.37.052.939-.134 1.53-.201.643-.612 1.19-1.246 1.66a2.69 2.69 0 0 1-.68.364c-.608.223-.913.334-.95.49-.039.156.132.34.472.71A10.721 10.721 0 0 0 12 22.75c3.13 0 5.948-1.338 7.913-3.473.34-.37.51-.555.473-.711-.038-.156-.343-.267-.951-.49a2.69 2.69 0 0 1-.68-.364c-.634-.47-1.045-1.017-1.247-1.66-.185-.591-.154-1.16-.133-1.53l.004-.063c.04-.712.063-1.12-.38-1.709a1.25 1.25 0 0 1 1.311-1.96c.765.195 2.08.545 3.137 1.259.128.086.256.18.38.282.337.275.504.412.596.42a.28.28 0 0 0 .275-.13c.052-.077.052-.258.052-.621 0-5.937-4.813-10.75-10.75-10.75ZM12 18c1.896 0 3.489-1.28 3.936-3.01.208-.805-.094-.99-.89-.99H8.954c-.796 0-1.098.185-.89.99C8.51 16.72 10.104 18 12 18ZM7.75 9.5a.75.75 0 0 1 1.5 0 .75.75 0 0 0 1.5 0 2.25 2.25 0 0 0-4.5 0 .75.75 0 0 0 1.5 0Zm7 0a.75.75 0 0 1 1.5 0 .75.75 0 0 0 1.5 0 2.25 2.25 0 0 0-4.5 0 .75.75 0 0 0 1.5 0Z" clip-rule="evenodd"/>
  <path fill="#161C24" d="M6 12c-1.555.399-4.459 1.234-3.938 3.782.268 1.26 1.675 1.493 2.438.926C6.338 15.343 4.5 14 6 12Zm12 0c1.555.399 4.459 1.234 3.938 3.782-.268 1.26-1.674 1.493-2.438.926C17.662 15.343 19.5 14 18 12Z"/>
</svg>
