<svg xmlns="http://www.w3.org/2000/svg" width="24" height="24" fill="none" viewBox="0 0 24 24">
  <path fill="#161C24" fill-rule="evenodd" d="M1.25 12C1.25 6.063 6.063 1.25 12 1.25S22.75 6.063 22.75 12 17.937 22.75 12 22.75 1.25 17.937 1.25 12Zm8.092 4.64a.75.75 0 0 1 1.018-.298c.468.256 1.03.408 1.64.408.61 0 1.173-.152 1.64-.408a.75.75 0 1 1 .72 1.316 4.91 4.91 0 0 1-2.36.592 4.91 4.91 0 0 1-2.36-.592.75.75 0 0 1-.298-1.018ZM9 11.75a1.25 1.25 0 1 0 0 2.5h.007a1.25 1.25 0 1 0 0-2.5H9Zm5.993 0a1.25 1.25 0 1 0 0 2.5H15a1.25 1.25 0 1 0 0-2.5h-.007Z" clip-rule="evenodd"/>
</svg>
