<svg xmlns="http://www.w3.org/2000/svg" width="24" height="24" fill="none" viewBox="0 0 24 24">
  <path fill="#161C24" fill-rule="evenodd" d="M1.25 12C1.25 6.063 6.063 1.25 12 1.25S22.75 6.063 22.75 12 17.937 22.75 12 22.75 1.25 17.937 1.25 12Zm7.3 4.4A5.727 5.727 0 0 1 12 15.25c1.294 0 2.49.428 3.45 1.15a.75.75 0 1 1-.9 1.2 4.227 4.227 0 0 0-2.55-.85c-.958 0-1.84.316-2.55.85a.75.75 0 0 1-.9-1.2Zm-.8-6.9a.75.75 0 1 1 1.5 0 .75.75 0 0 1-1.5 0Zm.75-2.25a2.25 2.25 0 1 0 0 4.5 2.25 2.25 0 0 0 0-4.5Zm6.25 2.25a.75.75 0 1 1 1.5 0 .75.75 0 0 1-1.5 0Zm.75-2.25a2.25 2.25 0 1 0 0 4.5 2.25 2.25 0 0 0 0-4.5Z" clip-rule="evenodd"/>
</svg>
