<svg xmlns="http://www.w3.org/2000/svg" width="24" height="24" fill="none" viewBox="0 0 24 24">
  <path fill="#161C24" fill-rule="evenodd" d="M1.25 12C1.25 6.063 6.063 1.25 12 1.25S22.75 6.063 22.75 12 17.937 22.75 12 22.75 1.25 17.937 1.25 12Zm9.25 2.25a.75.75 0 0 1 .75.75v.25h1.5V15a.75.75 0 0 1 1.5 0v.25H15a.75.75 0 0 1 0 1.5h-.75V17a.75.75 0 0 1-1.5 0v-.25h-1.5V17a.75.75 0 0 1-1.5 0v-.25H9a.75.75 0 0 1 0-1.5h.75V15a.75.75 0 0 1 .75-.75ZM8 7.75a1.25 1.25 0 1 0 0 2.5h.009a1.25 1.25 0 1 0 0-2.5H8Zm7.991 0a1.25 1.25 0 0 0 0 2.5H16a1.25 1.25 0 1 0 0-2.5h-.009Z" clip-rule="evenodd"/>
</svg>
