<svg xmlns="http://www.w3.org/2000/svg" width="24" height="24" fill="none" viewBox="0 0 24 24">
  <path fill="#161C24" fill-rule="evenodd" d="M1.25 12C1.25 6.063 6.063 1.25 12 1.25S22.75 6.063 22.75 12 17.937 22.75 12 22.75 1.25 17.937 1.25 12Zm6.3 2.4a.75.75 0 0 1 1.05.15 4.242 4.242 0 0 0 3.4 1.7 4.24 4.24 0 0 0 3.4-1.7.75.75 0 0 1 1.2.9 5.742 5.742 0 0 1-4.6 2.3 5.742 5.742 0 0 1-4.6-2.3.75.75 0 0 1 .15-1.05ZM8 7.75a1.25 1.25 0 1 0 0 2.5h.009a1.25 1.25 0 1 0 0-2.5H8Zm7.991 0a1.25 1.25 0 0 0 0 2.5H16a1.25 1.25 0 1 0 0-2.5h-.009Z" clip-rule="evenodd"/>
</svg>
