<svg xmlns="http://www.w3.org/2000/svg" width="24" height="24" fill="none" viewBox="0 0 24 24">
  <path fill="#161C24" fill-rule="evenodd" d="M1.25 12C1.25 6.063 6.063 1.25 12 1.25S22.75 6.063 22.75 12 17.937 22.75 12 22.75 1.25 17.937 1.25 12ZM12 13.75c-.543 0-1.25.619-1.25 1.75s.707 1.75 1.25 1.75 1.25-.619 1.25-1.75-.707-1.75-1.25-1.75ZM9.25 15.5c0-1.63 1.084-3.25 2.75-3.25s2.75 1.62 2.75 3.25-1.084 3.25-2.75 3.25-2.75-1.62-2.75-3.25ZM8 7.75a1.25 1.25 0 1 0 0 2.5h.009a1.25 1.25 0 1 0 0-2.5H8Zm7.991 0a1.25 1.25 0 0 0 0 2.5H16a1.25 1.25 0 1 0 0-2.5h-.009Z" clip-rule="evenodd"/>
</svg>
