<svg xmlns="http://www.w3.org/2000/svg" width="24" height="24" fill="none" viewBox="0 0 24 24">
  <path fill="#161C24" fill-rule="evenodd" d="M1.25 12C1.25 6.063 6.063 1.25 12 1.25S22.75 6.063 22.75 12 17.937 22.75 12 22.75 1.25 17.937 1.25 12Zm5.5-3c0-.69.56-1.25 1.25-1.25h.009a1.25 1.25 0 1 1 0 2.5H8c-.69 0-1.25-.56-1.25-1.25Zm7.991 0c0-.69.56-1.25 1.25-1.25H16a1.25 1.25 0 1 1 0 2.5h-.009c-.69 0-1.25-.56-1.25-1.25ZM8.6 13.55a.75.75 0 1 0-1.2.9 5.776 5.776 0 0 0 1.85 1.6v1.45a2.75 2.75 0 0 0 5.5 0v-1.45a5.774 5.774 0 0 0 1.85-1.6.75.75 0 1 0-1.2-.9 4.242 4.242 0 0 1-3.4 1.7 4.242 4.242 0 0 1-3.4-1.7Zm2.15 3.95v-.886a5.766 5.766 0 0 0 2.5 0v.886a1.25 1.25 0 0 1-2.5 0Z" clip-rule="evenodd"/>
</svg>
