<svg xmlns="http://www.w3.org/2000/svg" width="24" height="24" fill="none" viewBox="0 0 24 24">
  <path fill="#161C24" fill-rule="evenodd" d="M1.25 12C1.25 6.063 6.063 1.25 12 1.25S22.75 6.063 22.75 12 17.937 22.75 12 22.75 1.25 17.937 1.25 12Zm7.19-3.75a.775.775 0 0 1-.734-.504.75.75 0 1 0-1.412.508A2.275 2.275 0 0 0 8.44 9.75c.985 0 1.83-.619 2.145-1.496a.75.75 0 1 0-1.411-.508.775.775 0 0 1-.734.504Zm7.121 0a.775.775 0 0 1-.733-.504.75.75 0 1 0-1.412.508 2.275 2.275 0 0 0 2.145 1.496c.984 0 1.83-.619 2.145-1.496a.75.75 0 0 0-1.412-.508.775.775 0 0 1-.733.504Zm-.282 6.446a.75.75 0 0 0-.557-1.392l-5 2a.75.75 0 0 0 .557 1.392l5-2Z" clip-rule="evenodd"/>
</svg>
