<svg xmlns="http://www.w3.org/2000/svg" width="24" height="24" fill="none" viewBox="0 0 24 24">
  <path fill="#161C24" fill-rule="evenodd" d="M1.25 12C1.25 6.063 6.063 1.25 12 1.25S22.75 6.063 22.75 12 17.937 22.75 12 22.75 1.25 17.937 1.25 12Zm7.3 4.4A5.727 5.727 0 0 1 12 15.25c1.294 0 2.49.428 3.45 1.15a.75.75 0 1 1-.9 1.2 4.227 4.227 0 0 0-2.55-.85c-.958 0-1.84.316-2.55.85a.75.75 0 0 1-.9-1.2ZM6.253 8.078a.75.75 0 0 0 .814.68l.177-.008a4.5 4.5 0 0 1 .482.021c.202.02.395.057.566.11l-.075.236c-.285.905.477 1.633 1.26 1.633.42 0 .824-.192 1.065-.537.256-.367.293-.867.013-1.291a4.317 4.317 0 0 0-.893-1.001C9.1 7.473 8.374 7.33 7.88 7.279a5.682 5.682 0 0 0-.942-.016h-.005a.75.75 0 0 0-.68.815Zm7 0a.75.75 0 0 0 .814.68 4.182 4.182 0 0 1 .66.014c.201.02.394.056.565.109l-.075.236c-.285.905.477 1.633 1.26 1.633.42 0 .824-.192 1.065-.537.256-.367.293-.867.013-1.291a4.317 4.317 0 0 0-.893-1.001c-.563-.448-1.288-.591-1.782-.642a5.683 5.683 0 0 0-.942-.016h-.005a.75.75 0 0 0-.68.815Z" clip-rule="evenodd"/>
</svg>
