<svg xmlns="http://www.w3.org/2000/svg" width="24" height="24" fill="none" viewBox="0 0 24 24">
  <path fill="#161C24" fill-rule="evenodd" d="M9.218 16.732c.002.181.008.372.013.57.021.741.045 1.573-.059 2.321-.153 1.104-.592 2.207-1.75 2.996a.75.75 0 1 1-.845-1.238c.7-.479.994-1.131 1.11-1.964l.02-.167a.75.75 0 0 1-1.441-.402C6.81 16.214 9.179 14.25 12 14.25c2.82 0 5.189 1.964 5.735 4.598a.75.75 0 0 1-1.44.405c.005.054.012.108.02.162.115.835.409 1.489 1.108 1.965a.75.75 0 0 1-.845 1.24c-1.157-.79-1.596-1.895-1.75-2.999-.104-.75-.08-1.584-.06-2.325.006-.196.011-.385.014-.564A4.394 4.394 0 0 0 12 15.75c-1.06 0-2.03.37-2.782.982ZM12 18.25a.75.75 0 0 1 .75.75v2a.75.75 0 0 1-1.5 0v-2a.75.75 0 0 1 .75-.75Z" clip-rule="evenodd"/>
  <path fill="#161C24" fill-rule="evenodd" d="M1.25 12C1.25 6.063 6.063 1.25 12 1.25S22.75 6.063 22.75 12c0 3.263-1.453 6.186-3.748 8.157v-.371c.148-.376.191-.797.104-1.222-.682-3.29-3.628-5.714-7.106-5.714-3.478 0-6.424 2.425-7.105 5.714a2.14 2.14 0 0 0 .112 1.243v.358A10.726 10.726 0 0 1 1.25 12Zm7.28-4.53a.75.75 0 0 0-1.06 1.06l.793.793a.25.25 0 0 1 0 .354l-.793.793a.75.75 0 1 0 1.06 1.06l.793-.793a1.75 1.75 0 0 0 0-2.474L8.53 7.47Zm8 1.06a.75.75 0 0 0-1.06-1.06l-.793.793a1.75 1.75 0 0 0 0 2.474l.793.793a.75.75 0 1 0 1.06-1.06l-.793-.793a.25.25 0 0 1 0-.354l.793-.793Z" clip-rule="evenodd"/>
</svg>
