<svg xmlns="http://www.w3.org/2000/svg" width="24" height="24" fill="none" viewBox="0 0 24 24">
  <path fill="#161C24" d="M10.021 2.2a2.75 2.75 0 0 1 3.152.133l6.32 4.834.147.122a2.75 2.75 0 0 1 .917 2.345l-.026.19-.4 2.304-.018.075a.75.75 0 0 1-1.46-.332l.4-2.305.018-.172a1.25 1.25 0 0 0-.36-.921l-.13-.115-6.32-4.834a1.25 1.25 0 0 0-1.432-.06l-.086.06L4.42 8.36a1.25 1.25 0 0 0-.473 1.207l1.505 8.648.023.11c.145.542.639.926 1.208.926h4.318l.077.004a.75.75 0 0 1 0 1.492L11 20.75H6.683a2.75 2.75 0 0 1-2.656-2.036l-.054-.243L2.47 9.823a2.75 2.75 0 0 1 1.04-2.656l6.323-4.834.19-.133Z"/>
  <path fill="#161C24" d="M16.994 17.61c.935 0 1.812.276 2.577.753a.75.75 0 0 1-.794 1.274 3.348 3.348 0 0 0-1.783-.527c-.629 0-1.23.184-1.774.52a.75.75 0 1 1-.79-1.274 4.843 4.843 0 0 1 2.564-.746Zm0-3.36c1.567 0 3.018.545 4.24 1.467l.24.188.057.052a.75.75 0 0 1-.943 1.156l-.063-.046-.195-.153c-.989-.747-2.13-1.164-3.336-1.164-1.281 0-2.49.471-3.52 1.31a.75.75 0 0 1-.947-1.163c1.266-1.031 2.802-1.647 4.467-1.647Zm.013 6.75.101.005a1 1 0 0 1 0 1.99l-.101.005H17a1 1 0 1 1 0-2h.007Z"/>
</svg>
