<svg xmlns="http://www.w3.org/2000/svg" width="24" height="24" fill="none" viewBox="0 0 24 24">
  <path fill="#161C24" d="M13.25 14a1.25 1.25 0 1 0-2.5 0 1.25 1.25 0 0 0 2.5 0Zm1.5 0a2.75 2.75 0 1 1-5.5 0 2.75 2.75 0 0 1 5.5 0Z"/>
  <path fill="#161C24" d="M21.25 14a9.25 9.25 0 1 0-16.862 5.256l.212.295.043.063a.75.75 0 0 1-1.194.897l-.049-.06-.247-.342A10.704 10.704 0 0 1 1.25 14C1.25 8.063 6.063 3.25 12 3.25S22.75 8.063 22.75 14c0 2.42-.8 4.654-2.15 6.451a.75.75 0 0 1-1.2-.9A9.207 9.207 0 0 0 21.25 14Z"/>
  <path fill="#161C24" d="M17.25 14a5.25 5.25 0 1 0-9.163 3.5.75.75 0 0 1-1.118 1 6.75 6.75 0 1 1 10.062 0 .75.75 0 0 1-1.118-1A5.228 5.228 0 0 0 17.25 14Z"/>
</svg>
