<svg xmlns="http://www.w3.org/2000/svg" width="24" height="24" fill="none" viewBox="0 0 24 24">
  <path fill="#161C24" d="M21.25 12a9.25 9.25 0 1 0-18.5 0 9.25 9.25 0 0 0 18.5 0Zm1.5 0c0 5.937-4.813 10.75-10.75 10.75S1.25 17.937 1.25 12 6.063 1.25 12 1.25 22.75 6.063 22.75 12Z"/>
  <path fill="#161C24" d="M15.25 12c0-2.69-.438-5.092-1.118-6.793-.341-.852-.729-1.492-1.12-1.906-.39-.413-.732-.551-1.012-.551s-.622.138-1.012.55c-.391.415-.779 1.055-1.12 1.907C9.188 6.907 8.75 9.31 8.75 12c0 2.69.438 5.092 1.118 6.793.341.852.729 1.492 1.12 1.906.39.412.732.551 1.012.551s.622-.139 1.012-.55c.391-.415.779-1.055 1.12-1.907.68-1.7 1.118-4.103 1.118-6.793Zm1.5 0c0 2.832-.458 5.431-1.226 7.35-.382.957-.857 1.782-1.422 2.38-.567.599-1.277 1.02-2.102 1.02s-1.535-.421-2.102-1.02c-.565-.598-1.04-1.423-1.422-2.38C7.708 17.43 7.25 14.832 7.25 12s.458-5.431 1.226-7.35c.382-.957.857-1.782 1.422-2.38.567-.599 1.277-1.02 2.102-1.02s1.535.421 2.102 1.02c.565.598 1.04 1.423 1.422 2.38.768 1.919 1.226 4.518 1.226 7.35Z"/>
  <path fill="#161C24" d="M22 11.25a.75.75 0 0 1 0 1.5H2a.75.75 0 0 1 0-1.5h20Z"/>
</svg>
