<svg xmlns="http://www.w3.org/2000/svg" width="24" height="24" fill="none" viewBox="0 0 24 24">
  <path fill="#161C24" d="M13.25 12a1.25 1.25 0 1 0-2.5 0 1.25 1.25 0 0 0 2.5 0Zm1.5 0a2.75 2.75 0 1 1-5.5 0 2.75 2.75 0 0 1 5.5 0Z"/>
  <path fill="#161C24" d="M21.25 12a9.25 9.25 0 1 0-16.862 5.256l.212.295.043.063a.75.75 0 0 1-1.194.897l-.049-.06-.247-.342A10.704 10.704 0 0 1 1.25 12C1.25 6.063 6.063 1.25 12 1.25S22.75 6.063 22.75 12c0 2.42-.8 4.654-2.15 6.451a.75.75 0 0 1-1.2-.9A9.207 9.207 0 0 0 21.25 12Z"/>
  <path fill="#161C24" d="M17.25 12a5.25 5.25 0 1 0-9.163 3.5.75.75 0 0 1-1.118 1 6.75 6.75 0 1 1 10.062 0 .75.75 0 0 1-1.118-1A5.228 5.228 0 0 0 17.25 12Z"/>
  <path fill="#161C24" d="M11.25 19v-5a.75.75 0 0 1 1.5 0v5a.75.75 0 0 1-1.5 0Z"/>
  <path fill="#161C24" d="M13.546 18.25c.415 0 .824.097 1.195.282l.226.123a3.634 3.634 0 0 1 1.784 3.128V22a.75.75 0 0 1-.75.75H8a.75.75 0 0 1-.75-.75v-.218c0-1.376.778-2.634 2.009-3.25l.14-.065a2.675 2.675 0 0 1 1.055-.217h3.092Zm-3.092 1.5c-.136 0-.272.024-.4.07l-.124.054a2.13 2.13 0 0 0-1.11 1.376h6.362a2.133 2.133 0 0 0-.979-1.304l-.133-.072a1.175 1.175 0 0 0-.524-.124h-3.092Z"/>
</svg>
