<svg xmlns="http://www.w3.org/2000/svg" width="24" height="24" fill="none" viewBox="0 0 24 24">
  <path fill="#161C24" d="M13.25 8a1.25 1.25 0 1 0-2.5 0 1.25 1.25 0 0 0 2.5 0Zm1.5 0a2.75 2.75 0 1 1-5.5 0 2.75 2.75 0 0 1 5.5 0Zm-9.5 0c0-1.281.445-2.466 1.193-3.453a.75.75 0 0 1 1.196.906C7.069 6.205 6.75 7.077 6.75 8c0 .807.244 1.576.687 2.259l.202.288.043.063a.75.75 0 0 1-1.189.902l-.05-.059-.136-.187C5.64 10.317 5.25 9.2 5.25 8Zm12 0c0-.807-.244-1.576-.686-2.259l-.203-.288-.043-.063a.75.75 0 0 1 1.189-.902l.05.059.136.187C18.36 5.683 18.75 6.8 18.75 8c0 1.28-.445 2.466-1.193 3.453a.75.75 0 0 1-1.196-.906c.57-.752.889-1.624.889-2.547Zm-16 0c0-2.022.679-3.897 1.832-5.447l.049-.06a.75.75 0 0 1 1.155.954l-.178.25C3.244 4.953 2.75 6.426 2.75 8s.494 3.046 1.358 4.304l.178.249.042.063a.75.75 0 0 1-1.197.89l-.049-.059-.21-.294A9.052 9.052 0 0 1 1.25 8Zm20 0c0-1.573-.494-3.046-1.358-4.304l-.178-.249-.042-.063a.75.75 0 0 1 1.197-.89l.049.059.21.294A9.052 9.052 0 0 1 22.75 8c0 2.022-.679 3.897-1.832 5.447l-.049.06a.75.75 0 0 1-1.155-.954l.178-.25c.864-1.257 1.358-2.73 1.358-4.303Z"/>
  <path fill="#161C24" d="M10.325 9.673a.75.75 0 0 1 1.403.51l-.023.073-4 11a.75.75 0 0 1-1.41-.512l4-11 .03-.071Zm2.419-.378a.75.75 0 0 1 .931.378l.03.07 4 11 .023.074a.75.75 0 0 1-1.403.51l-.03-.071-4-11-.022-.074a.75.75 0 0 1 .471-.887Z"/>
  <path fill="#161C24" d="M15.5 16.25a.75.75 0 0 1 0 1.5h-7a.75.75 0 0 1 0-1.5h7Z"/>
</svg>
