<svg xmlns="http://www.w3.org/2000/svg" width="24" height="24" fill="none" viewBox="0 0 24 24">
  <path fill="#161C24" d="M21.25 13c0-.69-.56-1.25-1.25-1.25H4c-.69 0-1.25.56-1.25 1.25v6c0 .69.56 1.25 1.25 1.25h16c.69 0 1.25-.56 1.25-1.25v-6Zm1.5 6A2.75 2.75 0 0 1 20 21.75H4A2.75 2.75 0 0 1 1.25 19v-6A2.75 2.75 0 0 1 4 10.25h16A2.75 2.75 0 0 1 22.75 13v6ZM12 3.25c1.731 0 3.278.79 4.374 2.03l.213.252.044.063a.75.75 0 0 1-1.167.93l-.051-.057-.164-.196c-.84-.951-1.994-1.522-3.25-1.522-1.338 0-2.56.65-3.412 1.718a.751.751 0 0 1-1.174-.936C8.516 4.148 10.153 3.25 12 3.25Z"/>
  <path fill="#161C24" d="M12 6.25c.984 0 1.856.45 2.468 1.142l.119.14.044.063a.75.75 0 0 1-1.167.93l-.051-.057-.143-.162A1.774 1.774 0 0 0 12 7.75c-.543 0-1.05.262-1.413.718a.751.751 0 0 1-1.174-.936C10.027 6.762 10.95 6.25 12 6.25ZM4.25 14a.75.75 0 0 1 1.5 0v3.25h.75a.75.75 0 0 1 0 1.5H5a.75.75 0 0 1-.75-.75v-4Zm4 4v-4a.75.75 0 0 1 1.5 0v4a.75.75 0 0 1-1.5 0Zm5.548-4.264a.75.75 0 0 1 1.404.528l-1.5 4a.75.75 0 0 1-1.404 0l-1.5-4-.024-.073a.75.75 0 0 1 1.398-.525l.03.07.798 2.127.798-2.127ZM19 13.25a.75.75 0 0 1 0 1.5h-1.25v.5h.75a.75.75 0 0 1 0 1.5h-.75v.5H19a.75.75 0 0 1 0 1.5h-2a.75.75 0 0 1-.75-.75v-4l.004-.077A.75.75 0 0 1 17 13.25h2Z"/>
</svg>
