<svg xmlns="http://www.w3.org/2000/svg" width="24" height="24" fill="none" viewBox="0 0 24 24">
  <path fill="#161C24" d="M13.25 12a1.25 1.25 0 1 0-2.5 0 1.25 1.25 0 0 0 2.5 0Zm1.5 0a2.75 2.75 0 1 1-5.5 0 2.75 2.75 0 0 1 5.5 0Zm-9.5 0c0-1.649.547-3.358 1.72-4.53l.056-.052a.75.75 0 0 1 1.056 1.056l-.052.056c-.827.828-1.28 2.119-1.28 3.47 0 1.267.398 2.481 1.13 3.31l.15.16.052.056a.75.75 0 0 1-1.056 1.056l-.056-.052-.213-.225C5.73 15.145 5.25 13.545 5.25 12Z"/>
  <path fill="#161C24" d="M1.25 12c0-2.72 1.095-4.905 2.72-6.53a.75.75 0 1 1 1.06 1.06C3.655 7.905 2.75 9.72 2.75 12c0 2.138.796 3.866 2.028 5.207l.252.263.052.056a.75.75 0 0 1-1.056 1.056l-.056-.052-.3-.311c-1.458-1.59-2.42-3.67-2.42-6.22Zm16 0c0-1.267-.398-2.48-1.13-3.31l-.15-.16-.052-.056a.75.75 0 0 1 1.056-1.056l.056.052.213.225c1.027 1.16 1.507 2.76 1.507 4.305 0 1.546-.48 3.145-1.507 4.305l-.213.225a.75.75 0 1 1-1.06-1.06l.15-.16c.732-.829 1.13-2.043 1.13-3.31Z"/>
  <path fill="#161C24" d="M21.25 12c0-2.138-.796-3.866-2.028-5.207l-.252-.263-.052-.056a.75.75 0 0 1 1.056-1.056l.056.052.3.311c1.458 1.59 2.42 3.67 2.42 6.22 0 2.719-1.094 4.904-2.72 6.53a.75.75 0 1 1-1.06-1.061c1.375-1.375 2.28-3.19 2.28-5.47Z"/>
</svg>
