<svg xmlns="http://www.w3.org/2000/svg" width="24" height="24" fill="none" viewBox="0 0 24 24">
  <path fill="#161C24" d="M1.25 12.082c0-2.986 1.238-5.686 3.228-7.62l.057-.05a.75.75 0 0 1 1.04 1.07l-.053.056a9.098 9.098 0 0 0-2.772 6.544c0 5.057 4.135 9.168 9.25 9.168 2.523 0 4.809-1 6.477-2.623a.75.75 0 0 1 1.046 1.076A10.76 10.76 0 0 1 12 22.75c-5.931 0-10.75-4.77-10.75-10.668Z"/>
  <path fill="#161C24" d="M7.25 12c0-1.267.091-2.484.26-3.611l.015-.076a.75.75 0 0 1 1.468.298l-.055.398c-.121.94-.188 1.944-.188 2.991 0 2.69.438 5.092 1.118 6.793.341.852.729 1.492 1.12 1.906.39.412.732.551 1.012.551.4 0 .926-.304 1.48-1.292.534-.955.98-2.363 1.28-4.087a.751.751 0 0 1 1.48.258c-.317 1.808-.801 3.4-1.452 4.561-.632 1.13-1.548 2.06-2.788 2.06-.825 0-1.535-.421-2.102-1.02-.565-.598-1.04-1.423-1.422-2.38C7.708 17.43 7.25 14.832 7.25 12Z"/>
  <path fill="#161C24" d="M12 11.25a.75.75 0 0 1 0 1.5H2a.75.75 0 0 1 0-1.5h10Zm9.602 5.588a.75.75 0 1 1-1.34-.676l1.34.676ZM12 1.25c5.937 0 10.75 4.813 10.75 10.75 0 1.739-.414 3.383-1.148 4.838l-1.34-.676a9.187 9.187 0 0 0 .957-3.412h-5.22a.75.75 0 0 1-.75-.75c0-2.69-.437-5.092-1.117-6.793-.341-.852-.729-1.492-1.12-1.906-.39-.413-.733-.551-1.012-.551-.295 0-.684.154-1.117.586-.429.428-.848 1.082-1.184 1.937a.75.75 0 0 1-1.396-.546 8.37 8.37 0 0 1 .762-1.502 9.191 9.191 0 0 0-1.227.512.75.75 0 0 1-.676-1.34A10.708 10.708 0 0 1 12 1.25Zm2.789 1.929c.273.438.52.933.735 1.471.7 1.748 1.141 4.06 1.214 6.6h4.479a9.254 9.254 0 0 0-6.428-8.071Z"/>
  <path fill="#161C24" d="M1.47 1.47a.75.75 0 0 1 1.004-.052l.056.052 20 20 .052.058a.75.75 0 0 1-1.055 1.054l-.057-.052-20-20-.052-.056A.75.75 0 0 1 1.47 1.47Z"/>
</svg>
