<svg xmlns="http://www.w3.org/2000/svg" width="24" height="24" fill="none" viewBox="0 0 24 24">
  <path fill="#161C24" d="M21.25 15c0-.69-.56-1.25-1.25-1.25H4c-.69 0-1.25.56-1.25 1.25v4c0 .69.56 1.25 1.25 1.25h16c.69 0 1.25-.56 1.25-1.25v-4Zm1.5 4A2.75 2.75 0 0 1 20 21.75H4A2.75 2.75 0 0 1 1.25 19v-4A2.75 2.75 0 0 1 4 12.25h16A2.75 2.75 0 0 1 22.75 15v4ZM11.994 4.61a4.85 4.85 0 0 1 2.577.753.75.75 0 0 1-.794 1.274l-.207-.121a3.307 3.307 0 0 0-1.576-.406c-.629 0-1.23.183-1.774.52a.75.75 0 1 1-.79-1.274 4.843 4.843 0 0 1 2.564-.746Zm0-3.36c1.566 0 3.018.545 4.24 1.467l.24.188.057.052a.75.75 0 0 1-.943 1.156l-.063-.046-.195-.153c-.99-.747-2.13-1.164-3.336-1.164-1.282 0-2.49.471-3.52 1.31a.75.75 0 0 1-.948-1.164C8.793 1.865 10.33 1.25 11.994 1.25ZM12.007 8l.101.005a1 1 0 0 1 0 1.99l-.101.005H12a1 1 0 1 1 0-2h.007Z"/>
  <path fill="#161C24" d="m14.009 16 .102.005a1 1 0 0 1 0 1.99L14.01 18H14a1 1 0 1 1 0-2h.009ZM18 16a1 1 0 1 1 0 2h-.009a1 1 0 1 1 0-2H18Zm-8 .25a.75.75 0 0 1 0 1.5H6a.75.75 0 0 1 0-1.5h4Z"/>
</svg>
