<svg xmlns="http://www.w3.org/2000/svg" width="24" height="24" fill="none" viewBox="0 0 24 24">
  <path fill="#161C24" d="M3.25 20V8A2.75 2.75 0 0 1 6 5.25h1.5a.75.75 0 0 1 0 1.5H6c-.69 0-1.25.56-1.25 1.25v12c0 .69.56 1.25 1.25 1.25h7c.69 0 1.25-.56 1.25-1.25v-6.504a.75.75 0 0 1 1.5 0V20A2.75 2.75 0 0 1 13 22.75H6A2.75 2.75 0 0 1 3.25 20Z"/>
  <path fill="#161C24" d="m9.509 18 .102.005a1 1 0 0 1 0 1.99L9.51 20H9.5a1 1 0 1 1 0-2h.009Zm5.484-12.549c.99 0 1.926.255 2.767.707l.354.205.064.044a.75.75 0 0 1-.79 1.267l-.067-.037-.27-.158a4.317 4.317 0 0 0-2.058-.528c-.824 0-1.61.24-2.317.679a.75.75 0 0 1-.79-1.276l.353-.203c.838-.447 1.77-.7 2.754-.7Zm0-4.201c1.913 0 3.688.664 5.186 1.795l.296.232.056.052a.75.75 0 0 1-.943 1.155l-.063-.045-.25-.197c-1.265-.956-2.73-1.492-4.282-1.492-1.65 0-3.201.607-4.52 1.679l-.062.046a.75.75 0 0 1-.885-1.21l.296-.23c1.495-1.125 3.265-1.785 5.171-1.785ZM15.007 9l.101.005a1 1 0 0 1 0 1.99l-.101.005H15a1 1 0 1 1 0-2h.007Z"/>
</svg>
