<svg xmlns="http://www.w3.org/2000/svg" width="24" height="24" fill="none" viewBox="0 0 24 24">
  <path fill="#161C24" d="M9.257 15.29a.75.75 0 0 1 .626 1.355l-.069.036c-.42.194-.828.439-1.151.724l-.133.125a.75.75 0 0 1-1.06-1.06l.195-.184a6.28 6.28 0 0 1 1.52-.967l.072-.029Zm4.562.396a.75.75 0 0 1 .924-.396l.071.03.22.104c.44.22.9.506 1.3.862l.196.184.052.056a.75.75 0 0 1-1.056 1.056l-.056-.052-.133-.125a4.356 4.356 0 0 0-.796-.546l-.356-.178-.068-.036a.75.75 0 0 1-.298-.96Zm-6.162-4.353a.75.75 0 0 1 .686 1.334c-.63.324-1.296.876-2.006 1.562l-.307.301a.75.75 0 1 1-1.06-1.06l.317-.313c.748-.724 1.545-1.4 2.37-1.824Zm7.684.31a.75.75 0 0 1 .946-.335l.07.033.341.202c.568.364 1.126.851 1.662 1.33l.632.562.056.052a.75.75 0 0 1-.98 1.126l-.06-.047-.67-.592c-.525-.468-.976-.866-1.425-1.155l-.27-.16-.066-.039a.75.75 0 0 1-.236-.976ZM6.713 6.807a.751.751 0 0 1 .574 1.386c-1.398.579-3.464 2.045-4.757 3.337a.75.75 0 1 1-1.06-1.06c1.394-1.395 3.619-2.992 5.243-3.663Zm9.594.406a.75.75 0 0 1 .907-.432l.073.026.31.136c1.482.685 3.357 2.025 4.663 3.263l.27.264.052.056a.75.75 0 0 1-1.056 1.056l-.056-.052-.251-.244c-1.211-1.146-2.945-2.375-4.237-2.974l-.27-.119-.069-.033a.75.75 0 0 1-.336-.947ZM12.012 19l.102.005a1 1 0 0 1 0 1.99l-.102.005H12a1 1 0 1 1 0-2h.012Zm1.731-15.75a1.75 1.75 0 0 1 1.74 1.938l-.035.206-2.717 11.775a.75.75 0 0 1-1.462 0L8.551 5.394a1.75 1.75 0 0 1 1.706-2.144h3.486Zm-3.486 1.5a.25.25 0 0 0-.244.307L12 13.663l1.986-8.606.007-.059a.25.25 0 0 0-.25-.248h-3.486Z"/>
</svg>
