<svg xmlns="http://www.w3.org/2000/svg" width="24" height="24" fill="none" viewBox="0 0 24 24">
  <path fill="#161C24" d="M1.25 12.33c0-2.751 1.985-5.029 4.604-5.552C6.393 3.908 8.949 1.75 12 1.75c3.37 0 6.134 2.634 6.244 5.95 2.538.356 4.506 2.503 4.506 5.121 0 1.8-.933 3.382-2.338 4.306a.75.75 0 0 1-.824-1.254 3.65 3.65 0 0 0 1.662-3.052c0-1.815-1.35-3.338-3.139-3.625a6.098 6.098 0 0 1-1.294 2.633.75.75 0 0 1-1.148-.965 4.586 4.586 0 0 0 1.081-2.958c0-2.56-2.114-4.656-4.75-4.656-2.199 0-4.037 1.46-4.584 3.43a5.777 5.777 0 0 1 2.847.985l.183.13.06.049a.75.75 0 0 1-.887 1.2l-.064-.043-.275-.187a4.29 4.29 0 0 0-2.486-.644l-.204.014c-2.165.202-3.84 1.992-3.84 4.146 0 1.39.696 2.627 1.774 3.386l.221.145.064.043a.75.75 0 0 1-.782 1.272l-.067-.037-.298-.196A5.634 5.634 0 0 1 1.25 12.33Z"/>
  <path fill="#161C24" d="M11.994 17.11c.935 0 1.812.276 2.577.753a.75.75 0 0 1-.794 1.274 3.348 3.348 0 0 0-1.783-.527c-.629 0-1.23.184-1.774.52a.75.75 0 1 1-.79-1.274 4.843 4.843 0 0 1 2.564-.746Zm0-3.36c1.567 0 3.018.545 4.24 1.467l.24.188.057.052a.75.75 0 0 1-.943 1.156l-.063-.046-.195-.153c-.989-.747-2.13-1.164-3.336-1.164-1.281 0-2.49.471-3.52 1.31l-.063.045a.75.75 0 0 1-.885-1.209l.242-.188c1.218-.917 2.665-1.458 4.226-1.458Zm.013 6.75.101.005a1 1 0 0 1 0 1.99l-.101.005H12a1 1 0 1 1 0-2h.007Z"/>
</svg>
