<svg width="24" height="34" viewBox="0 0 24 34" fill="none" xmlns="http://www.w3.org/2000/svg">
<path id="Union" fill-rule="evenodd" clip-rule="evenodd" d="M0 12C0 5.37258 5.37258 0 12 0C18.6274 0 24 5.37258 24 12C24 17.5468 20.2366 22.2147 15.1238 23.5894L12.866 27.5C12.4811 28.1667 11.5189 28.1667 11.134 27.5L8.87617 23.5894C3.76344 22.2147 0 17.5468 0 12ZM12 34C13.1046 34 14 33.1046 14 32C14 30.8954 13.1046 30 12 30C10.8954 30 10 30.8954 10 32C10 33.1046 10.8954 34 12 34Z" fill="#73D9D4"/>
</svg>
