<svg width="20" height="20" viewBox="0 0 20 20" fill="none" xmlns="http://www.w3.org/2000/svg">
<path d="M12.363 5.61084L12.7001 6.27221C12.8211 6.50965 13.0483 6.67488 13.3115 6.7168L17.2739 7.34786C17.9455 7.45482 18.2131 8.27778 17.7328 8.75928L14.8962 11.6035C14.7082 11.7919 14.6217 12.0588 14.6631 12.3217L15.2883 16.2912C15.3942 16.9634 14.6932 17.4724 14.0868 17.1634L12.3 16.2532" stroke="#FFAB00" stroke-width="1.5" stroke-linecap="round" stroke-linejoin="round"/>
<path fill-rule="evenodd" clip-rule="evenodd" d="M8.94752 2.1914C9.40485 1.29393 10.7597 1.61928 10.7597 2.62654V14.6394C10.7597 15.1878 10.452 15.6899 9.96327 15.9388L6.4662 17.7204C5.40504 18.261 4.17837 17.3705 4.36366 16.1941L4.9889 12.2245C4.99925 12.1588 4.9776 12.0921 4.93062 12.0449L2.09395 9.20067C1.25355 8.35808 1.72188 6.91787 2.89716 6.73069L6.85956 6.09963C6.92535 6.08915 6.98216 6.04783 7.01241 5.98848L8.94752 2.1914Z" fill="#FFAB00"/>
</svg>
