<svg xmlns="http://www.w3.org/2000/svg" width="24" height="24" fill="none" viewBox="0 0 24 24">
  <path fill="#161C24" fill-rule="evenodd" d="M7.5 14.134a1 1 0 0 1 1.366.366l.005.008a1 1 0 0 1-1.732 1l-.005-.008a1 1 0 0 1 .366-1.366Zm7.995 0a1 1 0 0 1 1.367.366l.004.008a1 1 0 0 1-1.732 1l-.004-.008a1 1 0 0 1 .365-1.366Zm-3.997 1.998a1 1 0 0 1 1.366.365l.004.008a1 1 0 1 1-1.731 1l-.005-.007a1 1 0 0 1 .366-1.366ZM7.5 18.129a1 1 0 0 1 1.366.366l.005.008a1 1 0 1 1-1.732 1l-.005-.008A1 1 0 0 1 7.5 18.13Zm7.995 0a1 1 0 0 1 1.367.366l.004.008a1 1 0 1 1-1.732 1l-.004-.008a1 1 0 0 1 .365-1.366Zm-3.997 1.997a1 1 0 0 1 1.366.366l.004.008a1 1 0 1 1-1.731 1l-.005-.007a1 1 0 0 1 .366-1.366Z" clip-rule="evenodd"/>
  <path fill="#161C24" d="M1.25 13a5.752 5.752 0 0 1 4.603-5.635 6.252 6.252 0 0 1 12.394.938 5.251 5.251 0 0 1 .228 10.357 2.502 2.502 0 0 0-.966-1.657 2.5 2.5 0 0 0 .657-3.246 2.508 2.508 0 0 0-3.42-.922 2.493 2.493 0 0 0-1.245 2.163 2.5 2.5 0 0 0-2.999-.003 2.503 2.503 0 0 0-3.751-2.16A2.508 2.508 0 0 0 6.494 17c-.52.392-.846.958-.951 1.564A5.753 5.753 0 0 1 1.25 13Z"/>
</svg>
