<svg xmlns="http://www.w3.org/2000/svg" width="24" height="24" fill="none" viewBox="0 0 24 24">
  <path fill="#161C24" fill-rule="evenodd" d="M8.447 14.106a1 1 0 0 1 .448 1.341l-1 2a1 1 0 1 1-1.79-.894l1-2a1 1 0 0 1 1.342-.447Zm4.5 0a1 1 0 0 1 .448 1.341l-1 2a1 1 0 1 1-1.79-.894l1-2a1 1 0 0 1 1.342-.447Zm4.5 0a1 1 0 0 1 .448 1.341l-1 2a1 1 0 1 1-1.79-.894l1-2a1 1 0 0 1 1.342-.447Zm-8 4a1 1 0 0 1 .448 1.341l-1 2a1 1 0 1 1-1.79-.894l1-2a1 1 0 0 1 1.342-.447Zm4.5 0a1 1 0 0 1 .448 1.341l-1 2a1 1 0 1 1-1.79-.894l1-2a1 1 0 0 1 1.342-.447Z" clip-rule="evenodd"/>
  <path fill="#161C24" d="M1.25 13a5.752 5.752 0 0 1 4.603-5.635 6.252 6.252 0 0 1 12.394.938 5.251 5.251 0 0 1-.453 10.439 2.5 2.5 0 0 0 .442-.624l1-2a2.5 2.5 0 0 0-4.472-2.236l-.014.028a2.5 2.5 0 0 0-4.486-.028l-.014.028a2.5 2.5 0 0 0-4.486-.028l-1 2a2.499 2.499 0 0 0 .134 2.472A5.752 5.752 0 0 1 1.25 13Z"/>
</svg>
