<svg xmlns="http://www.w3.org/2000/svg" width="24" height="24" fill="none" viewBox="0 0 24 24">
  <path fill="#161C24" fill-rule="evenodd" d="M11.478 14.461a.75.75 0 0 1 1.044 0l.227.217c.366.347.893.846 1.35 1.387.286.337.566.714.776 1.11.208.39.375.845.375 1.328 0 1.582-1.222 3.247-3.25 3.247s-3.25-1.665-3.25-3.247c0-.483.167-.939.375-1.329.21-.395.49-.772.775-1.109.458-.54.985-1.04 1.35-1.387l.228-.217Z" clip-rule="evenodd"/>
  <path fill="#161C24" d="M1.25 13a5.752 5.752 0 0 1 4.603-5.635 6.252 6.252 0 0 1 12.394.938A5.251 5.251 0 0 1 17.5 18.75h-.757c.005-.082.007-.165.007-.247 0-.821-.28-1.526-.551-2.034a7.967 7.967 0 0 0-.954-1.373c-.511-.604-1.088-1.15-1.448-1.492l-.016-.015-.216-.205a2.25 2.25 0 0 0-3.13 0l-.216.205-.015.015c-.361.342-.938.888-1.449 1.492-.324.383-.675.85-.954 1.373-.27.508-.551 1.213-.551 2.034 0 .082.002.165.007.247H7A5.75 5.75 0 0 1 1.25 13Z"/>
</svg>
