<svg xmlns="http://www.w3.org/2000/svg" width="24" height="24" fill="none" viewBox="0 0 24 24">
  <path fill="#161C24" fill-rule="evenodd" d="M12.996 13.132a1 1 0 0 1 .372 1.364L12.223 16.5H13.5a1 1 0 0 1 .869 1.496l-2 3.5a1 1 0 0 1-1.737-.992l1.145-2.004H10.5a1 1 0 0 1-.868-1.496l2-3.5a1 1 0 0 1 1.364-.372Z" clip-rule="evenodd"/>
  <path fill="#161C24" d="M1.25 13a5.752 5.752 0 0 1 4.603-5.635 6.252 6.252 0 0 1 12.394.938A5.251 5.251 0 0 1 17.5 18.75h-1.835l.006-.01a2.5 2.5 0 0 0-1.023-3.46l.023-.04a2.5 2.5 0 0 0-4.342-2.48l-2 3.5a2.5 2.5 0 0 0 .006 2.49H7A5.75 5.75 0 0 1 1.25 13Z"/>
</svg>
