<svg xmlns="http://www.w3.org/2000/svg" width="24" height="24" fill="none" viewBox="0 0 24 24">
  <path fill="#161C24" fill-rule="evenodd" d="M10 4c-.571 0-1 .449-1 .961a1 1 0 1 1-2 0C7 3.307 8.362 2 10 2s3 1.307 3 2.961c0 .542-.148 1.051-.406 1.489-.415.702-1.12 1.274-1.917 1.689a7.892 7.892 0 0 1-2.833.82c-2.1.208-4.552-.35-6.544-2.304a1 1 0 0 1 1.4-1.428c1.508 1.479 3.345 1.9 4.946 1.742a5.897 5.897 0 0 0 2.109-.605c.589-.306.952-.653 1.116-.93.082-.14.129-.3.129-.473C11 4.449 10.571 4 10 4Z" clip-rule="evenodd"/>
  <path fill="#161C24" fill-rule="evenodd" d="M19.5 7c-.686 0-1.5.71-1.5 1.928a1 1 0 1 1-2 0C16 6.913 17.425 5 19.5 5 21.576 5 23 6.913 23 8.928c0 .907-.274 1.758-.752 2.436-.723 1.156-2.039 1.794-3.435 2.154-1.437.37-3.152.496-4.91.48-3.525-.029-7.431-.625-10.1-1.161a1 1 0 1 1 .394-1.961c2.608.524 6.375 1.095 9.722 1.123 1.677.014 3.197-.11 4.395-.418 1.225-.315 1.933-.777 2.248-1.292a.995.995 0 0 1 .04-.06c.24-.335.398-.787.398-1.3C21 7.708 20.186 7 19.5 7Zm-2.828 11.006c-.454-.868-1.298-1.563-2.296-2.055-1.015-.5-2.266-.83-3.648-.924-2.771-.187-6.132.577-9.324 2.944a1 1 0 1 0 1.192 1.607c2.808-2.083 5.697-2.71 7.998-2.556 1.154.078 2.145.352 2.898.723.767.378 1.216.82 1.408 1.19l.007.013a.806.806 0 0 1 .093.383c0 .473-.322.669-.5.669-.148 0-.365-.112-.461-.415a1 1 0 1 0-1.907.605c.316.993 1.21 1.81 2.368 1.81 1.479 0 2.5-1.298 2.5-2.669 0-.476-.117-.93-.328-1.325ZM18 15.5a1 1 0 0 1 1-1h2a1 1 0 1 1 0 2h-2a1 1 0 0 1-1-1Z" clip-rule="evenodd"/>
</svg>
