<svg xmlns="http://www.w3.org/2000/svg" width="24" height="24" fill="none" viewBox="0 0 24 24">
  <path fill="#161C24" fill-rule="evenodd" d="M2.336 9.003a1 1 0 0 1 1.411.083l.82.92.033.038c.252.284.5.563.677.822.2.294.385.665.385 1.134 0 .469-.184.84-.385 1.134-.177.26-.425.538-.677.822l-.034.037-.819.921a1 1 0 1 1-1.494-1.328l.818-.922c.3-.336.459-.518.555-.658L3.629 12c0-.002-.002-.004-.003-.005-.096-.141-.256-.323-.554-.66l-.82-.92a1 1 0 0 1 .084-1.412Zm19.328 0a1 1 0 0 1 .083 1.411l-.819.922c-.298.336-.457.518-.554.659l-.003.005.003.006c.097.14.256.322.555.658l.818.922a1 1 0 0 1-1.494 1.328l-.82-.92a.39.39 0 0 0-.033-.038c-.252-.284-.5-.563-.677-.822-.2-.294-.385-.665-.385-1.134 0-.469.184-.84.385-1.134.177-.26.425-.538.677-.822l.034-.037.819-.921a1 1 0 0 1 1.411-.083ZM9.724 2.045a1 1 0 0 1 .66 1.25L10.01 4.5l-.015.05c-.118.382-.234.756-.37 1.054-.155.337-.39.701-.816.943-.426.242-.86.256-1.228.216-.326-.035-.706-.128-1.095-.222a73.443 73.443 0 0 1-.05-.013l-1.173-.285A1 1 0 0 1 5.737 4.3l1.172.285c.46.112.71.17.889.19h.007a.83.83 0 0 0 .003-.005c.075-.164.153-.41.293-.861l.372-1.203a1 1 0 0 1 1.251-.66Zm7.79 15.416.05.012 1.173.285a1 1 0 0 1-.473 1.944l-1.173-.286c-.46-.111-.71-.17-.889-.19h-.007a.189.189 0 0 0-.003.006c-.075.164-.153.409-.292.86l-.373 1.204a1 1 0 1 1-1.91-.591l.372-1.204a9.48 9.48 0 0 0 .015-.05c.119-.382.234-.756.371-1.053.155-.337.39-.702.816-.943.426-.242.859-.257 1.228-.217.325.035.706.128 1.094.223ZM14.537 2.028a1 1 0 0 1 1.208.736l.27 1.117c.115.472.18.73.247.903l.002.006h.007c.186-.014.446-.066.921-.166l1.604-.335a1 1 0 1 1 .409 1.958l-1.604.335-.052.011c-.403.084-.795.166-1.13.191-.377.028-.82-.003-1.243-.27-.424-.268-.642-.655-.78-1.008-.12-.312-.215-.702-.312-1.102l-.012-.052-.27-1.117a1 1 0 0 1 .735-1.207ZM7.73 19.21c-.185.014-.445.066-.92.165l-1.604.335a1 1 0 0 1-.41-1.957l1.604-.335.052-.011c.403-.085.796-.167 1.13-.192.377-.028.82.003 1.244.271.424.268.642.654.779 1.007.12.312.215.703.312 1.103l.013.051.27 1.117a1 1 0 0 1-1.943.471l-.271-1.117c-.115-.472-.18-.729-.246-.902l-.003-.007a.16.16 0 0 1-.007 0Z" clip-rule="evenodd"/>
  <path fill="#161C24" fill-rule="evenodd" d="M7.996 5.136a1 1 0 0 1 1.368.36L12 10.016l2.636-4.52a1 1 0 0 1 1.728 1.008l-2.623 4.497H19a1 1 0 1 1 0 2h-5.259l2.623 4.495a1 1 0 1 1-1.728 1.008L12 13.984l-2.636 4.52a1 1 0 0 1-1.728-1.008l2.623-4.495H5a1 1 0 1 1 0-2h5.26L7.635 6.504a1 1 0 0 1 .36-1.368Z" clip-rule="evenodd"/>
</svg>
