<svg xmlns="http://www.w3.org/2000/svg" width="24" height="24" fill="none" viewBox="0 0 24 24">
  <path fill="#161C24" fill-rule="evenodd" d="M15 1.25a.75.75 0 0 1 .732.585c.459 2.038 1.062 3.38 2 4.338.936.956 2.29 1.613 4.433 2.095a.75.75 0 0 1 0 1.464c-2.038.459-3.38 1.062-4.338 2-.956.936-1.613 2.29-2.095 4.433a.75.75 0 0 1-1.464 0c-.459-2.038-1.062-3.38-2-4.338-.936-.956-2.29-1.613-4.433-2.095a.75.75 0 0 1 0-1.464c2.143-.482 3.497-1.14 4.433-2.095.938-.957 1.541-2.3 2-4.338A.75.75 0 0 1 15 1.25Zm-8 10a.75.75 0 0 1 .732.585c.34 1.511.796 2.433 1.437 3.06.643.63 1.557 1.05 2.996 1.373a.75.75 0 0 1 0 1.464c-1.511.34-2.433.796-3.06 1.437-.63.643-1.05 1.557-1.373 2.996a.75.75 0 0 1-1.464 0c-.34-1.511-.796-2.433-1.437-3.06-.643-.63-1.557-1.05-2.996-1.373a.75.75 0 0 1 0-1.464c1.511-.34 2.433-.796 3.06-1.437.63-.643 1.05-1.557 1.373-2.996A.75.75 0 0 1 7 11.25Z" clip-rule="evenodd"/>
</svg>
