<svg xmlns="http://www.w3.org/2000/svg" width="24" height="24" fill="none" viewBox="0 0 24 24">
  <path fill="#161C24" fill-rule="evenodd" d="M6.25 12a5.75 5.75 0 1 1 11.5 0 5.75 5.75 0 0 1-11.5 0Zm6.433-9.27a1 1 0 0 0-1.345-1.48 2.316 2.316 0 0 0-.529.742 3.291 3.291 0 0 0-.28.948c-.097.7.03 1.622.809 2.31a1 1 0 0 0 1.324-1.5c-.127-.112-.189-.274-.152-.54a1.29 1.29 0 0 1 .108-.365c.036-.076.062-.11.065-.115Zm5.553 1.351c.265-.095.587-.17.898-.15a1 1 0 0 1-.095 1.997c-.006.001-.048.007-.128.035-.107.039-.227.1-.334.182-.214.162-.285.32-.274.49a1 1 0 1 1-1.997.123c-.064-1.037.498-1.777 1.061-2.206.282-.213.585-.37.869-.47ZM4.99 3.931a1 1 0 0 1 .936 1.06c-.01.17.061.328.274.49.107.08.228.143.335.181.08.029.122.034.127.036a1 1 0 0 1 .096 1.997 2.315 2.315 0 0 1-.899-.15 3.288 3.288 0 0 1-.868-.472c-.564-.428-1.125-1.169-1.06-2.206a1 1 0 0 1 1.059-.936Zm17.018 6.878a2.3 2.3 0 0 1 .741.529 1 1 0 0 1-1.48 1.345c-.004-.003-.038-.03-.114-.065a1.29 1.29 0 0 0-.365-.108c-.266-.037-.428.025-.54.152a1 1 0 1 1-1.5-1.324c.688-.779 1.61-.906 2.31-.81.35.048.676.153.948.281Zm-20.67.442a1 1 0 0 1 1.411.087c.113.127.275.189.54.152a1.29 1.29 0 0 0 .366-.108c.076-.036.11-.062.115-.065a1 1 0 0 1 1.48 1.345 2.316 2.316 0 0 1-.742.529 3.288 3.288 0 0 1-.948.28c-.7.097-1.622-.03-2.31-.809a1 1 0 0 1 .088-1.411Zm18.58 6.984c.095.265.17.587.15.898a1 1 0 0 1-1.997-.095c-.001-.006-.007-.048-.035-.128a1.29 1.29 0 0 0-.182-.334c-.162-.213-.32-.285-.49-.274a1 1 0 0 1-.123-1.997c1.037-.064 1.778.498 2.206 1.061.213.282.37.585.471.869Zm-13.282-1.93a1 1 0 0 1 1.06.936 2.31 2.31 0 0 1-.15.899 3.287 3.287 0 0 1-.472.868c-.428.564-1.169 1.125-2.206 1.061a1 1 0 1 1 .124-1.996c.17.01.328-.061.49-.274a1.29 1.29 0 0 0 .181-.335c.029-.08.034-.122.035-.127a1 1 0 0 1 .938-1.032Zm4.615 2.533a1 1 0 0 1 1.411-.087 2.3 2.3 0 0 1 .529.741c.128.272.233.597.28.948.097.7-.03 1.622-.809 2.31a1 1 0 1 1-1.324-1.5c.127-.112.189-.274.152-.54a1.29 1.29 0 0 0-.108-.365c-.036-.076-.062-.11-.065-.114a1 1 0 0 1-.066-1.393Z" clip-rule="evenodd"/>
</svg>
