<svg xmlns="http://www.w3.org/2000/svg" width="24" height="24" fill="none" viewBox="0 0 24 24">
  <path fill="#161C24" fill-rule="evenodd" d="M11.5 3a1 1 0 0 1 1 1v1a1 1 0 1 1-2 0V4a1 1 0 0 1 1-1ZM5.135 5.636a1 1 0 0 1 1.414 0l.707.707a1 1 0 0 1-1.414 1.414l-.707-.707a1 1 0 0 1 0-1.414ZM2.5 12a1 1 0 0 1 1-1h1a1 1 0 1 1 0 2h-1a1 1 0 0 1-1-1Zm3.344 4.243a1 1 0 1 1 1.414 1.414l-.707.707a1 1 0 0 1-1.414-1.414l.707-.707ZM11.5 18a1 1 0 0 1 1 1v1a1 1 0 1 1-2 0v-1a1 1 0 0 1 1-1Z" clip-rule="evenodd"/>
  <path fill="#161C24" d="M11.5 7.25a4.75 4.75 0 1 0 .68 9.452c.238-.916.703-1.827 1.33-2.487.228-.24.381-.402.489-.523V7.96a4.728 4.728 0 0 0-2.499-.71Z"/>
  <path fill="#161C24" d="M17.5 22a4 4 0 0 0 2-7.465V4a2 2 0 1 0-4 0v10.535a4 4 0 0 0 2 7.465Z"/>
</svg>
