<svg xmlns="http://www.w3.org/2000/svg" width="24" height="24" fill="none" viewBox="0 0 24 24">
  <path fill="#161C24" d="M21.25 11c0-1.907-.002-3.261-.14-4.29-.118-.88-.327-1.434-.66-1.842l-.152-.166c-.423-.423-1.003-.677-2.009-.812-1.028-.139-2.382-.14-4.289-.14h-4c-1.907 0-3.261.002-4.29.14-.88.118-1.434.327-1.842.66l-.166.152c-.423.423-.677 1.003-.812 2.009-.14 1.028-.14 2.382-.14 4.289 0 1.907.002 3.261.14 4.29.135 1.005.389 1.585.812 2.008l.152.139c.052.043.106.084.162.123a.75.75 0 0 1-.852 1.235l-.138-.1a3.741 3.741 0 0 1-.261-.218l-.123-.119c-.749-.748-1.081-1.696-1.239-2.869C1.25 14.34 1.25 12.864 1.25 11c0-1.864-.001-3.338.153-4.49.158-1.172.49-2.12 1.239-2.868l.142-.136c.725-.654 1.628-.955 2.727-1.103C6.66 2.25 8.136 2.25 10 2.25h4c1.864 0 3.338-.001 4.49.153 1.172.158 2.12.49 2.868 1.239l.136.142c.654.725.955 1.628 1.103 2.727.154 1.15.153 2.625.153 4.489 0 1.864.001 3.338-.153 4.49-.148 1.098-.45 2-1.103 2.726l-.136.142a3.723 3.723 0 0 1-.522.437l-.066.04a.75.75 0 0 1-.785-1.275l.162-.123c.052-.044.102-.09.15-.14l.152-.165c.334-.408.543-.963.661-1.843.139-1.028.14-2.382.14-4.289Z"/>
  <path fill="#161C24" d="M8.51 16.16a7.144 7.144 0 0 1 7.194.125l.356.207c.434.252 1.062.63 1.502 1.07.302.303.62.731.68 1.277.055.516-.136.99-.492 1.4l-.162.171c-.74.721-1.67 1.34-2.894 1.34H9.306c-1.07 0-1.916-.474-2.607-1.075l-.287-.265c-.459-.447-.716-.982-.653-1.571.058-.546.377-.974.68-1.276.586-.588 1.506-1.064 1.857-1.278l.215-.125Zm6.414 1.406a5.645 5.645 0 0 0-5.507-.191l-.34.191c-.514.313-1.159.638-1.577 1.056-.2.2-.243.326-.249.377-.001.01-.02.115.208.337l.227.209c.526.459 1.038.705 1.62.705h5.389c.665 0 1.238-.321 1.846-.914l.075-.08c.149-.168.134-.249.133-.257-.005-.05-.05-.177-.249-.377-.313-.314-.754-.575-1.172-.817l-.404-.239ZM13.75 11a1.75 1.75 0 1 0-3.5 0 1.75 1.75 0 0 0 3.5 0Zm1.5 0a3.25 3.25 0 1 1-6.5 0 3.25 3.25 0 0 1 6.5 0Z"/>
</svg>
