<svg xmlns="http://www.w3.org/2000/svg" width="24" height="24" fill="none" viewBox="0 0 24 24">
  <path fill="#161C24" fill-rule="evenodd" d="M9.54 2.272c-.953.114-1.707.414-2.449.974a6.613 6.613 0 0 0-.845.845 4.846 4.846 0 0 0-.94 2.179c-.051.313-.051 1.147 0 1.46.132.802.44 1.517.94 2.179.167.222.645.695.874.866a4.815 4.815 0 0 0 2.15.919c.314.051 1.146.051 1.46 0a4.826 4.826 0 0 0 2.15-.919c.244-.182.713-.651.895-.895a4.826 4.826 0 0 0 .919-2.15c.028-.172.036-.332.036-.73 0-.398-.008-.558-.036-.73a4.826 4.826 0 0 0-.919-2.15 6.107 6.107 0 0 0-.895-.895 4.776 4.776 0 0 0-2.09-.907c-.187-.033-.345-.043-.71-.048a11.294 11.294 0 0 0-.54.002Zm.89 1.51c.317.037.714.159 1.029.317a3.27 3.27 0 0 1 1.753 2.411c.039.257.039.723 0 .98a3.267 3.267 0 0 1-1.751 2.409 3.121 3.121 0 0 1-1.461.343c-.533 0-.995-.108-1.46-.342a3.263 3.263 0 0 1-1.752-2.41 4.119 4.119 0 0 1 0-.98 3.257 3.257 0 0 1 3.642-2.728Zm-2.01 9.491c-.98.075-1.891.32-2.773.747a7.109 7.109 0 0 0-2.118 1.509 7.109 7.109 0 0 0-1.509 2.118c-.496 1.026-.745 2.063-.748 3.123l-.002.44.058.115c.07.137.223.288.362.356l.1.049h9.92l.1-.049a.899.899 0 0 0 .362-.356c.053-.105.058-.133.058-.325 0-.182-.006-.223-.049-.31a.899.899 0 0 0-.356-.362l-.115-.058-4.455-.005L2.8 20.26v-.043c0-.089.085-.533.15-.784a6.156 6.156 0 0 1 .679-1.629 6.344 6.344 0 0 1 2.774-2.489c.783-.351 1.445-.509 2.337-.557.59-.032 2.649-.011 2.97.03.501.064.84.142 1.33.305.313.105.339.11.5.104a.558.558 0 0 0 .284-.065.759.759 0 0 0 .341-.338c.061-.117.065-.136.065-.334 0-.192-.005-.22-.058-.324-.136-.269-.299-.364-.978-.567a8.36 8.36 0 0 0-1.183-.253c-.285-.04-.386-.043-1.901-.046-.88-.003-1.64-.001-1.69.003Zm9.838.015a.856.856 0 0 0-.439.402l-.049.1-.01 1.48-.01 1.48-1.48.01-1.48.01-.1.049a.899.899 0 0 0-.362.356c-.053.105-.058.133-.058.325s.005.22.058.325c.07.137.223.288.362.356l.1.049 1.48.01 1.48.01.01 1.48.01 1.48.058.115c.07.137.223.288.362.356.087.043.128.049.31.049s.223-.006.31-.049a.899.899 0 0 0 .362-.356l.058-.115.01-1.48.01-1.48 1.48-.01 1.48-.01.115-.058a.899.899 0 0 0 .356-.362c.043-.087.049-.128.049-.31 0-.192-.005-.22-.058-.325a.899.899 0 0 0-.362-.356l-.1-.049-1.48-.01-1.48-.01-.01-1.48-.01-1.48-.049-.1a.894.894 0 0 0-.355-.361c-.099-.05-.14-.059-.305-.063a.785.785 0 0 0-.263.022Z" clip-rule="evenodd"/>
</svg>
