<svg xmlns="http://www.w3.org/2000/svg" width="24" height="24" fill="none" viewBox="0 0 24 24">
  <path fill="#161C24" fill-rule="evenodd" d="M6.04 3.792a3.001 3.001 0 0 0-1.064.422 2.767 2.767 0 0 0-1.185 1.841c-.04.226-.04.664 0 .89.066.381.222.777.426 1.085a2.777 2.777 0 0 0 1.838 1.179c.361.063.847.032 1.236-.079.196-.056.554-.224.733-.344a2.767 2.767 0 0 0 1.185-1.841c.04-.226.04-.664 0-.89a2.948 2.948 0 0 0-.426-1.085 2.777 2.777 0 0 0-1.838-1.179 3.56 3.56 0 0 0-.905.001Zm11 0a3.001 3.001 0 0 0-1.064.422 2.767 2.767 0 0 0-1.185 1.841c-.064.366-.033.843.08 1.24.056.194.223.55.346.735a2.777 2.777 0 0 0 1.838 1.179c.361.063.847.032 1.236-.079.196-.056.554-.224.733-.344a2.767 2.767 0 0 0 1.185-1.841c.04-.226.04-.664 0-.89a2.948 2.948 0 0 0-.426-1.085 2.777 2.777 0 0 0-1.838-1.179 3.56 3.56 0 0 0-.905.001ZM6.79 5.283c.33.069.677.346.827.661.099.209.128.333.128.556 0 .223-.029.347-.128.556-.111.234-.327.45-.561.561a1.108 1.108 0 0 1-.556.128c-.223 0-.347-.029-.556-.128a1.239 1.239 0 0 1-.561-.561 1.108 1.108 0 0 1-.128-.556c0-.224.029-.347.129-.558a.999.999 0 0 1 .233-.321c.321-.318.717-.432 1.173-.338Zm11 0c.33.069.677.346.827.661.099.209.128.333.128.556 0 .223-.029.347-.128.556-.111.234-.327.45-.561.561a1.108 1.108 0 0 1-.556.128c-.223 0-.347-.029-.556-.128a1.239 1.239 0 0 1-.561-.561 1.108 1.108 0 0 1-.128-.556c0-.224.029-.347.129-.558a.999.999 0 0 1 .233-.321c.321-.318.717-.432 1.173-.338ZM11.51 7.79a3.244 3.244 0 0 0-2.722 2.74 3.58 3.58 0 0 0 .07 1.284 3.244 3.244 0 0 0 2.328 2.328 3.396 3.396 0 0 0 1.628 0 3.244 3.244 0 0 0 2.328-2.328 3.58 3.58 0 0 0 .07-1.284 3.24 3.24 0 0 0-2.742-2.742 4.465 4.465 0 0 0-.96.002Zm.906 1.512a1.75 1.75 0 0 1 1.286 1.292c.084.354.044.797-.101 1.117a1.823 1.823 0 0 1-.895.892 1.81 1.81 0 0 1-1.679-.145 2.31 2.31 0 0 1-.46-.451 1.778 1.778 0 0 1 0-2.014 2.31 2.31 0 0 1 .46-.451 1.778 1.778 0 0 1 1.389-.24Zm-6.496.979a5.758 5.758 0 0 0-2.87 1.146c-.253.19-.586.489-.725.653a2.478 2.478 0 0 0-.51 1.024c-.041.173-.044.237-.044.896l-.001.71.058.115c.07.137.223.288.362.356.087.043.128.049.31.049.192 0 .22-.005.325-.058a.899.899 0 0 0 .356-.362c.048-.097.049-.116.061-.71.014-.662.026-.744.145-.946.136-.233.78-.725 1.253-.957.576-.284 1.052-.403 1.813-.454.21-.014.283-.027.36-.064a.893.893 0 0 0 .359-.354c.053-.105.058-.133.058-.325 0-.182-.006-.223-.049-.31a.899.899 0 0 0-.356-.362c-.112-.056-.124-.058-.435-.061a4.886 4.886 0 0 0-.47.014Zm11.338.008a.845.845 0 0 0-.439.401c-.043.087-.049.127-.049.31 0 .192.005.22.058.325.07.137.224.289.359.354.077.037.15.05.36.064.761.051 1.231.169 1.813.454.471.231 1.117.724 1.253.957.119.202.131.284.145.946.012.594.013.613.061.71a.899.899 0 0 0 .356.362c.105.053.133.058.325.058s.22-.005.325-.058a.899.899 0 0 0 .356-.362l.049-.1v-.7c0-.759-.011-.861-.125-1.18-.154-.433-.369-.734-.785-1.099a5.87 5.87 0 0 0-2.82-1.39c-.406-.077-1.096-.105-1.242-.052Zm-5.993 5.002a6.849 6.849 0 0 0-3.61 1.525 2.394 2.394 0 0 0-.849 1.404c-.031.145-.036.267-.036.83v.66l.058.115c.07.137.223.288.362.356.087.043.128.049.31.049.192 0 .22-.005.325-.058a.899.899 0 0 0 .356-.362c.047-.097.049-.118.061-.68.012-.512.018-.595.055-.71a.858.858 0 0 1 .296-.432c.733-.631 1.715-1.061 2.737-1.199a6.818 6.818 0 0 1 1.34 0c1.025.138 2.023.577 2.748 1.209a.85.85 0 0 1 .285.422c.037.114.043.2.054.71l.013.58.058.115c.07.137.223.288.362.356.087.043.128.049.31.049s.223-.006.31-.049a.899.899 0 0 0 .362-.356l.058-.115v-.66c0-.721-.011-.82-.129-1.159-.154-.445-.386-.769-.789-1.099a6.795 6.795 0 0 0-3.692-1.511 10.033 10.033 0 0 0-1.355.01Z" clip-rule="evenodd"/>
</svg>
