<svg xmlns="http://www.w3.org/2000/svg" width="24" height="24" fill="none" viewBox="0 0 24 24">
  <path fill="#161C24" fill-rule="evenodd" d="M11.758 1.289a.845.845 0 0 0-.44.401c-.042.087-.048.127-.048.31 0 .182.006.223.049.31a.814.814 0 0 0 .47.407c.045.012.293.031.552.042 1.354.06 2.504.345 3.675.912a8.851 8.851 0 0 1 2.577 1.851 8.758 8.758 0 0 1 1.736 2.462 9.007 9.007 0 0 1 .909 3.613 9.13 9.13 0 0 1-.91 4.419 8.758 8.758 0 0 1-1.735 2.462 9.09 9.09 0 0 1-3.603 2.275 8.961 8.961 0 0 1-2.66.488c-.264.011-.512.03-.55.042a.84.84 0 0 0-.461.407c-.043.087-.05.128-.05.31 0 .192.006.22.059.325.07.137.223.288.362.356.09.044.13.05.41.056.792.018 1.93-.137 2.78-.379a10.716 10.716 0 0 0 4.718-2.76 10.716 10.716 0 0 0 2.76-4.718c.509-1.791.509-3.969 0-5.76a10.764 10.764 0 0 0-8.918-7.771c-.66-.085-1.53-.116-1.682-.06Zm-3.131.548a12.252 12.252 0 0 0-3.16 1.674c-.28.207-.35.277-.42.423-.05.103-.056.138-.056.317-.001.19.003.208.068.337.079.157.2.274.36.349.095.045.139.052.3.053.236 0 .318-.034.62-.261a10.825 10.825 0 0 1 2.715-1.452c.366-.129.506-.232.619-.454.052-.103.057-.131.057-.323-.001-.19-.006-.221-.057-.324a.817.817 0 0 0-.35-.348c-.094-.048-.143-.058-.293-.063-.167-.006-.197-.001-.403.072ZM3.062 6.229a.831.831 0 0 0-.356.256c-.19.266-.612 1.059-.795 1.495-.268.638-.46 1.25-.602 1.917-.07.32-.064.502.017.667a.744.744 0 0 0 1.197.211c.134-.13.167-.209.268-.64a8.864 8.864 0 0 1 1.036-2.624c.192-.326.22-.409.209-.608a.733.733 0 0 0-.418-.635c-.09-.046-.138-.056-.288-.061a.849.849 0 0 0-.268.022Zm8.458.561a2.996 2.996 0 0 0-2.5 2.96c0 1.143.646 2.183 1.676 2.699.593.297 1.376.374 2.04.202a2.995 2.995 0 0 0 1.947-1.629c.192-.419.276-.808.276-1.272 0-.832-.307-1.566-.901-2.15a2.962 2.962 0 0 0-1.652-.818 4.302 4.302 0 0 0-.886.008Zm.816 1.503c.392.081.8.413.984.798.19.399.19.919 0 1.318a1.532 1.532 0 0 1-.954.793 1.763 1.763 0 0 1-.716.01c-.491-.115-.914-.523-1.073-1.032-.04-.127-.047-.192-.047-.43s.007-.303.047-.43c.062-.2.162-.385.282-.526.393-.458.883-.625 1.477-.501ZM1.83 13.027a.76.76 0 0 0-.504.409c-.106.217-.085.454.103 1.174.238.906.619 1.815 1.102 2.628.18.304.28.415.444.496.104.051.135.056.325.056.192 0 .219-.005.318-.057a.737.737 0 0 0 .418-.636c.012-.199-.017-.282-.21-.608a8.864 8.864 0 0 1-1.035-2.624c-.101-.431-.134-.51-.268-.641a.765.765 0 0 0-.693-.197Zm9.779 1.053c-1.548.108-2.97.732-4.01 1.76-.286.283-.33.37-.33.66 0 .192.006.22.059.325.07.138.235.3.367.361.079.036.13.044.305.044.19 0 .22-.005.32-.056.063-.032.195-.137.31-.247a4.49 4.49 0 0 1 1.22-.858 4.958 4.958 0 0 1 4.195-.079c.492.222.848.473 1.335.941.278.267.344.299.62.299.174 0 .226-.008.305-.044a.916.916 0 0 0 .367-.361c.053-.106.058-.132.057-.325 0-.248-.028-.325-.186-.514a6.265 6.265 0 0 0-.768-.7 6.115 6.115 0 0 0-2.965-1.175 8.12 8.12 0 0 0-1.201-.031Zm-6.074 4.941a.748.748 0 0 0-.476.391c-.065.129-.07.147-.068.337 0 .179.006.214.056.317.067.137.139.21.393.402.94.711 2.08 1.315 3.208 1.701.198.068.232.074.39.068a.558.558 0 0 0 .282-.064.852.852 0 0 0 .354-.352c.05-.1.055-.132.056-.321 0-.192-.005-.22-.057-.323a.804.804 0 0 0-.33-.338A5.22 5.22 0 0 0 9 20.705a10.384 10.384 0 0 1-2.67-1.442c-.266-.198-.378-.249-.57-.256a1.01 1.01 0 0 0-.225.014Z" clip-rule="evenodd"/>
</svg>
