<svg xmlns="http://www.w3.org/2000/svg" width="24" height="24" fill="none" viewBox="0 0 24 24">
  <path fill="#161C24" fill-rule="evenodd" d="M9.54 1.272c-.953.114-1.707.414-2.449.974a6.613 6.613 0 0 0-.845.845 4.846 4.846 0 0 0-.94 2.179c-.051.313-.051 1.147 0 1.46.132.802.44 1.517.94 2.179.167.222.645.695.874.866a4.815 4.815 0 0 0 2.15.919c.314.051 1.146.051 1.46 0a4.826 4.826 0 0 0 2.15-.919c.244-.182.713-.651.895-.895a4.826 4.826 0 0 0 .919-2.15c.028-.172.036-.332.036-.73 0-.398-.008-.558-.036-.73a4.826 4.826 0 0 0-.919-2.15 6.107 6.107 0 0 0-.895-.895 4.776 4.776 0 0 0-2.09-.907c-.187-.033-.345-.043-.71-.048a11.294 11.294 0 0 0-.54.002Zm.89 1.51c.317.037.714.159 1.029.317a3.27 3.27 0 0 1 1.753 2.411c.039.257.039.723 0 .98a3.267 3.267 0 0 1-1.751 2.409A3.121 3.121 0 0 1 10 9.242c-.533 0-.995-.108-1.46-.342a3.263 3.263 0 0 1-1.752-2.41 4.119 4.119 0 0 1 0-.98 3.257 3.257 0 0 1 3.642-2.728Zm-2.01 9.491a7.605 7.605 0 0 0-2.773.747 7.109 7.109 0 0 0-2.118 1.509 7.109 7.109 0 0 0-1.509 2.118c-.496 1.026-.745 2.063-.748 3.123l-.002.44.058.115c.07.137.223.288.362.356l.1.049h9.92l.1-.049a.899.899 0 0 0 .362-.356c.053-.105.058-.133.058-.325 0-.182-.006-.223-.049-.31a.899.899 0 0 0-.356-.362l-.115-.058-4.455-.005L2.8 19.26v-.043c0-.182.164-.894.289-1.251a6.112 6.112 0 0 1 1.554-2.437c1.106-1.081 2.48-1.682 4.043-1.769a45.013 45.013 0 0 1 2.624.001c.959.053 1.699.253 2.57.696.393.2.416.209.562.218.326.021.576-.122.732-.419.051-.096.056-.125.056-.316 0-.19-.005-.221-.056-.324-.086-.176-.193-.269-.484-.426a7.464 7.464 0 0 0-2.942-.9c-.239-.024-.588-.029-1.768-.026-.809.001-1.51.006-1.56.009Zm13.325 1.025a.696.696 0 0 0-.307.215c-.051.054-1.081 1.283-2.288 2.733l-2.196 2.637-1.002-.997c-1.167-1.162-1.107-1.116-1.452-1.116-.192 0-.22.005-.325.058a.899.899 0 0 0-.356.362c-.043.087-.049.128-.049.31 0 .352-.087.245 1.449 1.781S16.648 20.73 17 20.73c.191 0 .22-.005.321-.056a.927.927 0 0 0 .179-.12 768.36 768.36 0 0 0 5.114-6.134.67.67 0 0 0 .122-.466.659.659 0 0 0-.226-.492c-.153-.145-.258-.188-.48-.196a.657.657 0 0 0-.285.032Z" clip-rule="evenodd"/>
</svg>
