<svg xmlns="http://www.w3.org/2000/svg" width="24" height="24" fill="none" viewBox="0 0 24 24">
  <path fill="#161C24" fill-rule="evenodd" d="M8.42 2.792c-1.215.162-2.304.859-3 1.918a5.45 5.45 0 0 0-.42.856 4.428 4.428 0 0 0-.12 2.468 4.278 4.278 0 0 0 1.83 2.546c.192.125.613.332.856.42a4.47 4.47 0 0 0 1.988.209 4.234 4.234 0 0 0 3.257-2.339A4.08 4.08 0 0 0 13.24 7a4.08 4.08 0 0 0-.429-1.87 3.961 3.961 0 0 0-.81-1.131 3.941 3.941 0 0 0-1.131-.809 4.051 4.051 0 0 0-1.307-.398 5.598 5.598 0 0 0-1.143 0Zm6.338-.003a.845.845 0 0 0-.439.401c-.043.087-.049.127-.049.31 0 .192.005.22.058.325a.948.948 0 0 0 .16.211c.154.145.254.185.517.207.39.033.633.075.849.147a2.748 2.748 0 0 1 1.757 3.458 2.748 2.748 0 0 1-1.757 1.762c-.219.073-.474.117-.847.146-.268.021-.395.075-.543.232-.157.167-.194.264-.194.512 0 .192.005.22.058.325.07.137.223.288.362.356.086.042.135.05.344.056.917.027 1.934-.346 2.706-.992a4.301 4.301 0 0 0 1.397-2.275 4.743 4.743 0 0 0 .072-1.524c-.161-1.24-.848-2.323-1.919-3.026a5.45 5.45 0 0 0-.856-.42 4.378 4.378 0 0 0-.871-.208c-.299-.039-.704-.04-.805-.003ZM9.46 4.293c.818.125 1.589.688 1.978 1.444a2.748 2.748 0 0 1-1.174 3.7 2.751 2.751 0 0 1-3.478-.81A2.924 2.924 0 0 1 6.29 7.46a3.297 3.297 0 0 1 0-.92 2.773 2.773 0 0 1 1.442-1.975 2.686 2.686 0 0 1 1.728-.272ZM7.6 13.272c-.313.033-.48.056-.67.09-1.9.347-3.596 1.553-4.634 3.295a7.65 7.65 0 0 0-.834 2.063 6.367 6.367 0 0 0-.191 1.57l-.001.42.058.115c.07.137.223.288.362.356l.1.049h14.42l.115-.058a.899.899 0 0 0 .356-.362c.043-.088.05-.132.056-.375.037-1.468-.522-3.164-1.449-4.402-1.053-1.404-2.541-2.355-4.168-2.663-.505-.095-.52-.096-2.02-.1a80.715 80.715 0 0 0-1.5.002Zm8.666.017a.678.678 0 0 0-.314.211c-.147.157-.181.251-.181.5 0 .253.035.345.191.511.142.15.261.201.576.249a5.012 5.012 0 0 1 1.606.501c1.568.79 2.688 2.341 3.015 4.177.023.126.041.25.041.275v.046l-1.205.006-1.205.005-.115.058a.899.899 0 0 0-.356.362c-.043.087-.049.128-.049.31 0 .192.005.22.058.325.07.137.223.288.362.356l.1.049h3.42l.1-.049a.899.899 0 0 0 .362-.356l.058-.115-.001-.42a6.819 6.819 0 0 0-.377-2.218c-.854-2.556-2.992-4.409-5.515-4.781-.253-.037-.456-.038-.571-.002Zm-5.746 1.5a5.234 5.234 0 0 1 2.586 1.117c.962.772 1.679 1.92 1.974 3.163.062.258.12.573.12.646v.045H2.8v-.047c0-.073.077-.484.131-.698.39-1.542 1.349-2.831 2.669-3.59a5.148 5.148 0 0 1 2.21-.666c.132-.008.744-.012 1.36-.009.903.005 1.164.012 1.35.039Z" clip-rule="evenodd"/>
</svg>
