<svg xmlns="http://www.w3.org/2000/svg" width="24" height="24" fill="none" viewBox="0 0 24 24">
  <path fill="#161C24" fill-rule="evenodd" d="M11.54 2.272c-.953.114-1.707.414-2.449.974a6.613 6.613 0 0 0-.845.845 4.846 4.846 0 0 0-.94 2.179c-.051.313-.051 1.147 0 1.46.132.802.44 1.517.94 2.179.167.222.645.695.874.866a4.815 4.815 0 0 0 2.15.919c.314.051 1.146.051 1.46 0a4.826 4.826 0 0 0 2.15-.919c.244-.182.713-.651.895-.895a4.826 4.826 0 0 0 .919-2.15c.028-.172.036-.332.036-.73 0-.398-.008-.558-.036-.73a4.826 4.826 0 0 0-.919-2.15 6.107 6.107 0 0 0-.895-.895 4.776 4.776 0 0 0-2.09-.907c-.187-.033-.345-.043-.71-.048a11.295 11.295 0 0 0-.54.002Zm.89 1.51c.317.037.714.159 1.029.317a3.27 3.27 0 0 1 1.753 2.411c.039.257.039.723 0 .98a3.267 3.267 0 0 1-1.751 2.409 3.121 3.121 0 0 1-1.461.343c-.533 0-.995-.108-1.46-.342a3.263 3.263 0 0 1-1.752-2.41 4.119 4.119 0 0 1 0-.98 3.257 3.257 0 0 1 3.642-2.728Zm-2.01 9.491a7.597 7.597 0 0 0-2.773.747 7.109 7.109 0 0 0-2.118 1.509 7.109 7.109 0 0 0-1.509 2.118c-.496 1.026-.745 2.063-.748 3.123l-.002.44.058.115c.07.137.223.288.362.356l.1.049h16.42l.115-.058a.899.899 0 0 0 .356-.362c.048-.097.049-.112.047-.54-.003-1.067-.253-2.101-.757-3.14a7.126 7.126 0 0 0-1.5-2.101 7.126 7.126 0 0 0-2.101-1.5c-.78-.379-1.436-.577-2.359-.714-.264-.039-.376-.041-1.891-.045a98.262 98.262 0 0 0-1.7.003Zm2.894 1.487a6.202 6.202 0 0 1 3.586 1.356c.244.194.79.74.984.984a6.254 6.254 0 0 1 1.316 3.115v.045H4.8v-.043c0-.089.085-.532.15-.784a6.222 6.222 0 0 1 1.265-2.453c.207-.245.643-.671.885-.863a6.235 6.235 0 0 1 3.54-1.356 54.183 54.183 0 0 1 2.674-.001Z" clip-rule="evenodd"/>
</svg>
