<svg xmlns="http://www.w3.org/2000/svg" width="24" height="24" fill="none" viewBox="0 0 24 24">
  <path fill="#161C24" fill-rule="evenodd" d="M3.75 9.5a8.25 8.25 0 1 1 16.5 0v2.672c0 .331.132.649.366.883l1.414 1.415c.141.14.22.331.22.53v1.382c0 .655-.37 1.285-1.006 1.566-1.67.736-4.89 1.802-9.244 1.802-4.353 0-7.574-1.066-9.244-1.802a1.703 1.703 0 0 1-1.006-1.566V15a.75.75 0 0 1 .22-.53l1.414-1.415a1.25 1.25 0 0 0 .366-.883V9.5Z" clip-rule="evenodd"/>
  <path fill="#161C24" fill-rule="evenodd" d="M9.5 19c0 .976.948 2 2.472 2 1.546 0 2.528-1.043 2.528-2h2c0 2.357-2.198 4-4.528 4C9.619 23 7.5 21.338 7.5 19h2Z" clip-rule="evenodd"/>
</svg>
