<svg xmlns="http://www.w3.org/2000/svg" width="24" height="24" fill="none" viewBox="0 0 24 24">
  <path fill="#161C24" d="M7.05 2.9a8.25 8.25 0 0 1 13.2 6.6v2.672c0 .331.132.649.366.883l1.414 1.415c.141.14.22.331.22.53v1.672c0 .48-.272.938-.73 1.15a.747.747 0 0 1-.302.07.248.248 0 0 1-.177-.078L6.834 3.607a.247.247 0 0 1-.078-.202.752.752 0 0 1 .294-.505Zm11.677 15.176a.75.75 0 0 1-.54.913A24.92 24.92 0 0 1 12 19.75c-4.353 0-7.574-1.066-9.244-1.802a1.703 1.703 0 0 1-1.006-1.566V15a.75.75 0 0 1 .22-.53l1.414-1.415a1.25 1.25 0 0 0 .366-.883V9.5c0-1.499.4-2.906 1.1-4.12a.75.75 0 0 1 1.025-.274l12.852 12.97Z"/>
  <path fill="#161C24" fill-rule="evenodd" d="M9.5 19c0 .976.948 2 2.472 2 1.546 0 2.528-1.043 2.528-2h2c0 2.357-2.198 4-4.528 4C9.619 23 7.5 21.338 7.5 19h2ZM1.293 1.293a1 1 0 0 1 1.414 0l20 20a1 1 0 0 1-1.414 1.414l-20-20a1 1 0 0 1 0-1.414Z" clip-rule="evenodd"/>
</svg>
