<svg xmlns="http://www.w3.org/2000/svg" width="24" height="24" fill="none" viewBox="0 0 24 24">
  <path fill="#161C24" fill-rule="evenodd" d="M9.678 20.485a8.879 8.879 0 0 0 4.332.08c.32-.605.468-1.082.52-1.463a2.347 2.347 0 0 0-.171-1.277 8.418 8.418 0 0 0-.277-.582 5.843 5.843 0 0 1-.302-.67c-.19-.536-.24-1.145.118-1.831.26-.5.639-.79 1.092-.934.348-.11.83-.13 1.137-.143.674-.03 1.408-.086 2.31-.734.804-.578 1.612-.74 2.354-.663a8.757 8.757 0 0 0-1.793-5.597 3.026 3.026 0 0 0-1.367.99c-.812 1.052-1.684 1.7-2.568 1.96-.901.265-1.752.107-2.431-.333-1.006-.65-1.136-1.56-1.221-2.157-.047-.311-.103-.603-.187-.758-.07-.129-.196-.283-.511-.436C9.92 5.552 9.47 4.849 9.315 4.09a3.19 3.19 0 0 1-.059-.45 8.804 8.804 0 0 0-5.994 7.348c.54.316 1.159.529 1.827.529.666 0 1.24.031 1.722.121.483.091.927.25 1.288.545.75.615.86 1.577.86 2.568 0 1.018.001 1.447.056 1.813.053.351.154.651.421 1.416.155.442.369 1.07.356 1.745a2.85 2.85 0 0 1-.114.76ZM1.25 11.841V12c0 5.937 4.813 10.75 10.75 10.75.79 0 1.561-.085 2.303-.247l.018-.004a10.76 10.76 0 0 0 8.33-9.03c.065-.48.099-.97.099-1.47 0-5.936-4.813-10.75-10.75-10.75l-.135.002C6.043 1.322 1.335 6.022 1.25 11.84Z" clip-rule="evenodd"/>
</svg>
