<svg xmlns="http://www.w3.org/2000/svg" width="24" height="24" fill="none" viewBox="0 0 24 24">
  <path fill="#161C24" fill-rule="evenodd" d="M1.249 11.094c.422-4.605 3.707-8.377 8.05-9.502-.067.138-.134.28-.201.425-1.011 2.2-2.03 5.323-2.116 9.077H1.25Zm0 2.019c.442 4.813 4.01 8.716 8.644 9.637a23.17 23.17 0 0 1-2.865-9.637H1.249Zm7.794 0a20.691 20.691 0 0 0 1.838 7.02c.396.863.792 1.57 1.117 2.1a20.694 20.694 0 0 0 2.955-9.12h-5.91Zm7.925 0a23.169 23.169 0 0 1-2.866 9.637c4.636-.92 8.205-4.823 8.647-9.637h-5.781Zm5.781-2.02h-5.735c-.085-3.753-1.105-6.875-2.116-9.076a23.788 23.788 0 0 0-.2-.425c4.343 1.123 7.628 4.896 8.051 9.502Zm-7.745 0H8.991c.085-3.294.983-6.055 1.89-8.03.328-.715.656-1.323.944-1.812a10.94 10.94 0 0 1 .346 0c.287.489.615 1.097.944 1.813.907 1.974 1.805 4.735 1.89 8.03Z" clip-rule="evenodd"/>
</svg>
