<svg xmlns="http://www.w3.org/2000/svg" width="24" height="24" fill="none" viewBox="0 0 24 24">
  <path fill="#161C24" fill-rule="evenodd" d="m11.69 22.683.005.002a.751.751 0 0 0 .61 0l.003-.001.112-.052a21.134 21.134 0 0 0 1.36-.716 22.78 22.78 0 0 0 3.2-2.215c2.31-1.924 4.77-4.865 4.77-8.701 0-5.385-4.365-9.75-9.75-9.75S2.25 5.615 2.25 11c0 3.836 2.46 6.777 4.77 8.701a22.783 22.783 0 0 0 4.258 2.784c.125.063.335.162.411.198ZM12 8.684s1.146-1.227 2.743-.394C16.677 9.298 16.816 13.247 12 15c-4.816-1.753-4.677-5.702-2.743-6.71 1.597-.833 2.743.394 2.743.394Z" clip-rule="evenodd"/>
</svg>
