<svg xmlns="http://www.w3.org/2000/svg" width="24" height="24" fill="none" viewBox="0 0 24 24">
  <path fill="#161C24" fill-rule="evenodd" d="M1.293 1.293a1 1 0 0 1 1.414 0l20 20a1 1 0 0 1-1.414 1.414l-20-20a1 1 0 0 1 0-1.414Z" clip-rule="evenodd"/>
  <path fill="#161C24" d="M5.31 3.907A9.723 9.723 0 0 0 2.25 11c0 3.836 2.46 6.777 4.77 8.701a22.783 22.783 0 0 0 4.258 2.784c.125.063.335.162.411.198l.006.002a.751.751 0 0 0 .61 0l.003-.001.112-.052a21.134 21.134 0 0 0 1.36-.716 22.78 22.78 0 0 0 3.2-2.215 17.203 17.203 0 0 0 2.082-2.042l-4.04-4.04A4 4 0 1 1 9.38 7.977L5.311 3.908Zm10.484 8.363a4 4 0 0 0-5.064-5.064L6.484 2.959A9.705 9.705 0 0 1 12 1.25 9.75 9.75 0 0 1 21.75 11c0 2.09-.731 3.916-1.77 5.455l-4.186-4.185Z"/>
</svg>
