<svg width="24" height="24" viewBox="0 0 24 24" fill="none" xmlns="http://www.w3.org/2000/svg">
<path fill-rule="evenodd" clip-rule="evenodd" d="M9.5 4.63971C9.5 3.95416 9.71972 3.03783 10.4178 2.29844C10.959 1.72513 11.8464 1.19653 13.2986 1.00049C18.5019 1.75119 22.5 6.22858 22.5 11.6398C22.5 17.5768 17.6871 22.3898 11.75 22.3898C5.81294 22.3898 1 17.5768 1 11.6398C1 6.48902 4.6225 2.18435 9.45879 1.13447C9.41377 1.17861 9.36987 1.22336 9.32706 1.26871C8.30628 2.34993 8 3.66841 8 4.63971C8 6.71078 9.67893 8.38971 11.75 8.38971C12.71 8.38971 13.5872 8.02802 14.2502 7.43467C14.5588 7.15843 14.5851 6.68428 14.3089 6.37563C14.0326 6.06699 13.5585 6.04072 13.2498 6.31697C12.8512 6.67369 12.3267 6.88971 11.75 6.88971C10.5074 6.88971 9.5 5.88235 9.5 4.63971ZM8.68764 15.1435C8.9617 14.8329 9.43565 14.8033 9.74623 15.0774C10.3462 15.6068 11.0345 15.8898 11.75 15.8898C12.4656 15.8898 13.1538 15.6068 13.7538 15.0774C14.0644 14.8033 14.5383 14.8329 14.8124 15.1435C15.0864 15.4541 15.0568 15.9281 14.7462 16.2021C13.914 16.9364 12.8832 17.3898 11.75 17.3898C10.6168 17.3898 9.58598 16.9364 8.75378 16.2021C8.44319 15.9281 8.41358 15.4541 8.68764 15.1435ZM6.19435 11.7439C5.86065 11.9893 5.3912 11.9177 5.14582 11.584C4.90044 11.2503 4.97204 10.7809 5.30575 10.5355C5.85543 10.1313 6.52506 9.88972 7.25005 9.88972C7.97504 9.88972 8.64467 10.1313 9.19435 10.5355C9.52806 10.7809 9.59966 11.2503 9.35428 11.584C9.1089 11.9177 8.63945 11.9893 8.30575 11.7439C7.99615 11.5163 7.6343 11.3897 7.25005 11.3897C6.8658 11.3897 6.50395 11.5163 6.19435 11.7439ZM14.1458 11.584C14.3912 11.9177 14.8606 11.9893 15.1944 11.7439C15.504 11.5163 15.8658 11.3897 16.25 11.3897C16.6343 11.3897 16.9961 11.5163 17.3057 11.7439C17.6395 11.9893 18.1089 11.9177 18.3543 11.584C18.5997 11.2503 18.5281 10.7809 18.1944 10.5355C17.6447 10.1313 16.975 9.88972 16.25 9.88972C15.5251 9.88972 14.8554 10.1313 14.3057 10.5355C13.972 10.7809 13.9004 11.2503 14.1458 11.584Z" fill="url(#paint0_linear_9523_3931)"/>
<defs>
<linearGradient id="paint0_linear_9523_3931" x1="22.5" y1="1.00049" x2="-3.04452" y2="8.36944" gradientUnits="userSpaceOnUse">
<stop stop-color="#FFBE74"/>
<stop offset="1" stop-color="#FFA946"/>
</linearGradient>
</defs>
</svg>
