<svg width="24" height="24" viewBox="0 0 24 24" fill="none" xmlns="http://www.w3.org/2000/svg">
<path fill-rule="evenodd" clip-rule="evenodd" d="M6.76113 3.52206C6.88619 4.05978 6.55493 4.59784 6.02122 4.72385L2.98542 5.44061L5.45636 17.9455C5.5488 18.4133 5.95634 18.7502 6.4298 18.7502H6.7873C7.33547 18.7502 7.77984 19.1979 7.77984 19.7502C7.77984 20.3025 7.33547 20.7502 6.7873 20.7502H6.4298C5.00944 20.7502 3.78682 19.7395 3.50949 18.336L1.03855 5.83111C0.829568 4.77351 1.49042 3.7394 2.53251 3.49336L5.56831 2.7766C6.10201 2.65059 6.63606 2.98435 6.76113 3.52206ZM16.7389 3.52207C16.8639 2.98435 17.398 2.65059 17.9317 2.7766L20.9675 3.49335C22.0096 3.73939 22.6704 4.7735 22.4615 5.8311L19.9905 18.336C19.7132 19.7395 18.4906 20.7502 17.0702 20.7502H16.7127C16.1645 20.7502 15.7202 20.3025 15.7202 19.7502C15.7202 19.1979 16.1645 18.7502 16.7127 18.7502H17.0702C17.5437 18.7502 17.9512 18.4133 18.0436 17.9455L20.5146 5.4406L17.4788 4.72385C16.9451 4.59784 16.6138 4.05979 16.7389 3.52207Z" fill="url(#paint0_linear_9523_1411)"/>
<path d="M9.37185 6.11508C9.71994 5.89468 10.1795 6.00032 10.3982 6.35103L11.7526 8.52243L13.1079 6.35087C13.3268 6.00021 13.7863 5.8947 14.1344 6.11519C14.4824 6.33568 14.5871 6.79868 14.3683 7.14933L12.9886 9.36004L14.4499 18.5329C14.5185 18.7614 14.4751 19.0091 14.3329 19.2001L12.3478 22.2001C12.2073 22.389 11.9866 22.5001 11.7523 22.5001C11.518 22.5001 11.2973 22.3889 11.1568 22.2L9.17235 19.2C9.03024 19.0091 8.98681 18.7614 9.0554 18.533L10.5166 9.35993L9.13766 7.14917C8.91891 6.79846 9.02376 6.33548 9.37185 6.11508Z" fill="url(#paint1_linear_9523_1411)"/>
<path fill-rule="evenodd" clip-rule="evenodd" d="M7.25366 1.21968C7.51561 0.955758 7.93031 0.926064 8.22667 1.15001L11.7501 3.81251L15.2737 1.15001C15.57 0.926064 15.9847 0.955758 16.2467 1.21968L18.2318 3.21968C18.4937 3.4836 18.5232 3.90142 18.3009 4.20001L15.3233 8.20001C15.1938 8.37394 14.9958 8.48271 14.7805 8.49812C14.5653 8.51353 14.354 8.43408 14.2014 8.28034L11.7501 5.81067L9.29894 8.28034C9.14635 8.43408 8.93505 8.51353 8.7198 8.49812C8.50454 8.48271 8.30652 8.37394 8.17704 8.20001L5.19943 4.20001C4.97715 3.90142 5.00663 3.4836 5.26858 3.21968L7.25366 1.21968Z" fill="url(#paint2_linear_9523_1411)"/>
<defs>
<linearGradient id="paint0_linear_9523_1411" x1="22.5" y1="2.75" x2="-2.26077" y2="11.2378" gradientUnits="userSpaceOnUse">
<stop stop-color="#22C55E"/>
<stop offset="1" stop-color="#1B9E4B"/>
</linearGradient>
<linearGradient id="paint1_linear_9523_1411" x1="14.4826" y1="6" x2="7.51949" y2="6.66117" gradientUnits="userSpaceOnUse">
<stop stop-color="#22C55E"/>
<stop offset="1" stop-color="#1B9E4B"/>
</linearGradient>
<linearGradient id="paint2_linear_9523_1411" x1="18.4498" y1="1" x2="4.79484" y2="8.00131" gradientUnits="userSpaceOnUse">
<stop stop-color="#22C55E"/>
<stop offset="1" stop-color="#1B9E4B"/>
</linearGradient>
</defs>
</svg>
