<svg width="24" height="24" viewBox="0 0 24 24" fill="none" xmlns="http://www.w3.org/2000/svg">
<path fill-rule="evenodd" clip-rule="evenodd" d="M9.53899 1.21472C10.3354 1.05454 11.0851 1 11.5494 1C12.0137 1 12.7633 1.05454 13.5597 1.21472C14.3463 1.37291 15.2477 1.6475 15.9654 2.12596C16.0578 2.18756 16.1354 2.2689 16.1925 2.36413L17.6925 4.86413L16.4062 5.63587L14.9985 3.2896C14.5282 3.01262 13.9057 2.81433 13.264 2.68527C12.5688 2.54545 11.9184 2.5 11.5494 2.5C11.1804 2.5 10.53 2.54545 9.83475 2.68527C9.19303 2.81433 8.57056 3.01262 8.10025 3.2896L6.69249 5.63587L5.40625 4.86413L6.90625 2.36413C6.96338 2.2689 7.04095 2.18756 7.13334 2.12596C7.85104 1.6475 8.75246 1.37291 9.53899 1.21472Z" fill="url(#paint0_linear_9523_6530)"/>
<path fill-rule="evenodd" clip-rule="evenodd" d="M16.6084 4.64432C16.835 4.47881 17.1351 4.45368 17.3861 4.57918L20.3861 6.07918C20.5711 6.17167 20.7097 6.33642 20.7691 6.53449L22.0274 10.7288C22.2719 11.5438 21.8948 12.4165 21.1338 12.7969L18.3007 14.2135V19.75C18.3007 21.2688 17.0695 22.5 15.5507 22.5H7.55072C6.03194 22.5 4.80072 21.2688 4.80072 19.75V14.2135L1.96761 12.7969C1.20662 12.4165 0.829563 11.5438 1.07404 10.7288L2.33235 6.53449C2.39178 6.33642 2.53035 6.17167 2.71531 6.07918L5.71531 4.57918C5.96588 4.4539 6.26538 4.47871 6.49192 4.6435L10.8237 7.7947C11.2628 8.11409 11.8578 8.11354 12.2963 7.79335L16.6084 4.64432Z" fill="url(#paint1_linear_9523_6530)"/>
<path fill-rule="evenodd" clip-rule="evenodd" d="M8.91675 1.51223C9.32428 1.43814 9.71472 1.70844 9.78881 2.11597L10.7888 7.61597C10.8629 8.02351 10.5926 8.41394 10.1851 8.48804C9.77754 8.56214 9.38711 8.29183 9.31301 7.8843L8.31301 2.3843C8.23891 1.97677 8.50921 1.58633 8.91675 1.51223ZM14.1851 1.51223C14.5926 1.58633 14.8629 1.97677 14.7888 2.3843L13.7888 7.8843C13.7147 8.29183 13.3243 8.56214 12.9167 8.48804C12.5092 8.41394 12.2389 8.02351 12.313 7.61597L13.313 2.11597C13.3871 1.70844 13.7775 1.43814 14.1851 1.51223Z" fill="url(#paint2_linear_9523_6530)"/>
<defs>
<linearGradient id="paint0_linear_9523_6530" x1="17.6925" y1="1" x2="7.67526" y2="8.61907" gradientUnits="userSpaceOnUse">
<stop stop-color="#35BAF6"/>
<stop offset="1" stop-color="#03A9F4"/>
</linearGradient>
<linearGradient id="paint1_linear_9523_6530" x1="22.1014" y1="4.5" x2="-2.2945" y2="12.7077" gradientUnits="userSpaceOnUse">
<stop stop-color="#35BAF6"/>
<stop offset="1" stop-color="#03A9F4"/>
</linearGradient>
<linearGradient id="paint2_linear_9523_6530" x1="14.801" y1="1.5" x2="6.98999" y2="3.58157" gradientUnits="userSpaceOnUse">
<stop stop-color="#35BAF6"/>
<stop offset="1" stop-color="#03A9F4"/>
</linearGradient>
</defs>
</svg>
