<svg xmlns="http://www.w3.org/2000/svg" width="24" height="24" fill="none" viewBox="0 0 24 24">
  <path fill="#161C24" fill-rule="evenodd" d="M1.758 1.288a.856.856 0 0 0-.439.402c-.043.087-.049.127-.049.31 0 .355-.124.208 1.754 2.091l1.637 1.641-.138.289c-.369.775-.595 1.565-.717 2.509-.025.194-.034.588-.044 2.05l-.013 1.81-.054.16c-.092.273-.167.362-1.016 1.21-.669.669-.8.808-.85.91l-.059.12v.95c0 1.068 0 1.06.151 1.379.148.309.37.564.627.719.365.219 1.757.734 2.711 1.002a26.96 26.96 0 0 0 2.272.519l.241.044.043.233c.242 1.308 1.271 2.414 2.673 2.874.504.166.923.23 1.488.23 1.24-.001 2.356-.439 3.181-1.247.548-.538.891-1.158 1.026-1.854.024-.126.046-.231.047-.234.002-.003.13-.027.282-.054.33-.058.952-.188 1.248-.26l.21-.051 1.79 1.786c2.051 2.046 1.883 1.904 2.24 1.904.192 0 .22-.005.325-.058a.899.899 0 0 0 .356-.362c.043-.087.05-.128.05-.31 0-.192-.006-.221-.06-.33-.052-.107-1.115-1.176-10.14-10.201S2.437 1.381 2.331 1.329c-.105-.051-.147-.06-.31-.063a.843.843 0 0 0-.263.022Zm9.542-.007a8.226 8.226 0 0 0-2.988.843c-.346.173-.52.274-.878.511-.38.251-.532.387-.608.541-.05.103-.056.135-.056.324 0 .192.005.22.058.325.071.139.235.3.366.358a.948.948 0 0 0 .53.03c.071-.021.193-.091.354-.204.826-.579 1.625-.928 2.555-1.118a6.78 6.78 0 0 1 3.307.142 7.005 7.005 0 0 1 2.103 1.062c1.335.986 2.314 2.566 2.6 4.195.097.558.101.649.116 2.52.013 1.584.02 1.797.05 1.93.044.194.097.351.184.55.177.404.326.59 1.101 1.372l.666.672v1.192l-.09.098a.928.928 0 0 0-.146.212c-.047.099-.054.14-.054.304 0 .164.007.205.054.304a.756.756 0 0 0 .805.433c.375-.059.78-.472.88-.899.041-.173.045-2.061.005-2.188-.06-.191-.123-.264-.933-1.08-.86-.867-.893-.905-.983-1.18l-.046-.14-.014-1.82a81.91 81.91 0 0 0-.027-1.9 28.734 28.734 0 0 1-.043-.3 8.251 8.251 0 0 0-7.188-7.061 14.022 14.022 0 0 0-1.68-.028Zm5.4 16.5c0 .038-1.415.26-2.15.338-1.576.165-3.386.17-4.99.011-2.075-.205-4.208-.722-5.902-1.429-.34-.142-.37-.162-.397-.256a5.012 5.012 0 0 1-.02-.593v-.519l.665-.671c.775-.781.923-.965 1.101-1.372.087-.199.14-.356.184-.55.031-.134.037-.345.05-1.93.01-1.124.023-1.85.037-1.97.086-.708.204-1.202.427-1.777l.08-.208 5.457 5.457c3.002 3.002 5.458 5.463 5.458 5.469ZM9.633 19.64c.572.057 1.14.083 2.018.094a24.593 24.593 0 0 0 2.855-.106l.135-.013-.022.057c-.206.553-.777 1.088-1.439 1.349a3.32 3.32 0 0 1-2.42-.006c-.445-.182-.88-.516-1.13-.866a2.736 2.736 0 0 1-.259-.484c-.016-.053-.018-.053.262-.025Z" clip-rule="evenodd"/>
</svg>
