<svg xmlns="http://www.w3.org/2000/svg" width="24" height="24" fill="none" viewBox="0 0 24 24">
  <path fill="#161C24" fill-rule="evenodd" d="M11.77 1.253a8.259 8.259 0 0 0-6.884 4.074A8.236 8.236 0 0 0 3.831 8.38a12.03 12.03 0 0 1-.043.31c-.007.033-.018.879-.026 1.88l-.014 1.82-.046.14c-.09.274-.122.313-.99 1.19-.685.691-.832.85-.882.95l-.06.12-.006.9c-.006.989.002 1.084.115 1.353.132.316.407.633.693.801.25.146 1.002.453 1.668.679.937.319 2.204.641 3.291.836l.241.044.043.233c.242 1.308 1.271 2.414 2.673 2.874.504.166.923.23 1.488.23 1.24-.001 2.356-.439 3.181-1.247.55-.539.893-1.162 1.028-1.86l.044-.23.24-.044a24.322 24.322 0 0 0 3.327-.848c.598-.206 1.338-.503 1.574-.632.432-.237.738-.653.841-1.144.04-.187.042-1.822.003-1.945-.06-.191-.124-.265-.932-1.08-.753-.76-.82-.832-.905-.99-.114-.208-.202-.301-.363-.385-.117-.061-.137-.065-.334-.065-.192 0-.22.005-.324.058a.747.747 0 0 0-.34.338.595.595 0 0 0-.072.299c-.01.212.025.325.193.603.173.288.29.42.977 1.113l.646.652v.518c0 .558-.012.65-.092.702-.14.093-1.085.455-1.678.644-2 .638-4.075.979-6.335 1.041-3.2.088-6.372-.454-8.995-1.535-.33-.137-.373-.164-.399-.257a4.995 4.995 0 0 1-.02-.594v-.518l.665-.672c.862-.87.998-1.054 1.194-1.612.13-.368.125-.292.141-2.23.015-1.786.021-1.932.1-2.418a6.771 6.771 0 0 1 4.306-5.23 7.03 7.03 0 0 1 1.983-.413 6.377 6.377 0 0 1 1.54.094c.346.058.476.054.64-.024a.808.808 0 0 0 .364-.359c.05-.106.056-.143.056-.32 0-.175-.007-.214-.054-.315a.82.82 0 0 0-.34-.352c-.175-.085-.848-.192-1.336-.212a8.34 8.34 0 0 0-.73-.018Zm3.988 2.036a.85.85 0 0 0-.439.401c-.043.087-.049.127-.049.31 0 .192.005.22.058.325.07.137.223.288.362.356l.1.049 1.795.005c.987.003 1.795.013 1.795.021 0 .009-.9 1.096-2 2.415-1.29 1.549-2.02 2.438-2.055 2.509-.05.099-.055.13-.054.32 0 .173.008.227.044.306a.917.917 0 0 0 .361.367l.114.057h5.42l.1-.049a.899.899 0 0 0 .362-.356c.053-.105.058-.133.058-.325s-.005-.22-.058-.325a.899.899 0 0 0-.362-.356l-.1-.049-1.795-.005a53.887 53.887 0 0 1-1.795-.021c0-.009.9-1.096 2-2.415 1.282-1.538 2.02-2.438 2.054-2.509.05-.099.055-.131.056-.32 0-.193-.005-.219-.058-.325a.899.899 0 0 0-.362-.356l-.1-.049-2.69-.004c-2.202-.003-2.703.001-2.762.023ZM9.64 19.639c.626.07 1.148.09 2.36.09 1.213 0 1.67-.017 2.37-.09.277-.028.273-.029.248.036-.205.549-.777 1.085-1.438 1.346a3.32 3.32 0 0 1-2.42-.006c-.445-.182-.88-.516-1.13-.866a2.735 2.735 0 0 1-.259-.484c-.016-.053.004-.055.27-.026Z" clip-rule="evenodd"/>
</svg>
