<svg xmlns="http://www.w3.org/2000/svg" width="24" height="24" fill="none" viewBox="0 0 24 24">
  <path fill="#161C24" fill-rule="evenodd" d="M11.77 1.253a8.259 8.259 0 0 0-6.884 4.074A8.236 8.236 0 0 0 3.831 8.38a12.03 12.03 0 0 1-.043.31c-.007.033-.018.879-.026 1.88l-.014 1.82-.046.14c-.09.274-.122.313-.99 1.19-.685.691-.832.85-.882.95l-.06.12-.006.9c-.006.989.002 1.084.115 1.353.132.316.407.633.693.801.25.146 1.002.453 1.668.679.937.319 2.204.641 3.291.836l.241.044.043.233c.242 1.308 1.271 2.414 2.673 2.874.504.166.923.23 1.488.23 1.24-.001 2.356-.439 3.181-1.247.55-.539.893-1.162 1.028-1.86l.044-.23.24-.044a24.322 24.322 0 0 0 3.327-.848c.598-.206 1.338-.503 1.574-.632.432-.237.738-.653.841-1.144.04-.187.042-1.822.003-1.945-.06-.193-.119-.261-.89-1.034-.715-.715-.785-.778-.914-.84-.128-.06-.156-.066-.33-.066-.168 0-.203.006-.306.057a.866.866 0 0 0-.367.367c-.05.103-.057.138-.057.306 0 .173.006.202.065.328.06.125.127.199.705.781l.64.643v.519c0 .558-.012.65-.092.702-.14.093-1.085.455-1.678.644-2 .638-4.075.979-6.335 1.041-3.2.088-6.372-.454-8.995-1.535-.33-.137-.373-.164-.399-.257a4.995 4.995 0 0 1-.02-.594v-.518l.665-.672c.862-.87.998-1.054 1.194-1.612.13-.368.125-.292.141-2.23.015-1.786.021-1.932.1-2.418a6.771 6.771 0 0 1 4.306-5.23 7.03 7.03 0 0 1 1.983-.413 6.377 6.377 0 0 1 1.54.094c.346.058.476.054.64-.024a.808.808 0 0 0 .364-.359c.05-.106.056-.143.056-.32 0-.175-.007-.214-.054-.315a.82.82 0 0 0-.34-.352c-.175-.085-.848-.192-1.336-.212a8.34 8.34 0 0 0-.73-.018Zm5.15 2.039c-1.215.162-2.304.859-3 1.918a5.45 5.45 0 0 0-.42.856 4.428 4.428 0 0 0-.12 2.468 4.278 4.278 0 0 0 1.83 2.546c.192.125.613.332.856.42a4.47 4.47 0 0 0 1.988.209 4.234 4.234 0 0 0 3.257-2.339 4.08 4.08 0 0 0 .43-1.87 4.08 4.08 0 0 0-.43-1.87 3.961 3.961 0 0 0-.81-1.131 3.941 3.941 0 0 0-1.13-.809 4.051 4.051 0 0 0-1.308-.398 5.598 5.598 0 0 0-1.143 0Zm1.033 1.5c.101.015.258.051.35.08.173.054.517.205.517.226 0 .019-3.717 3.731-3.727 3.721-.033-.036-.147-.297-.203-.466a2.534 2.534 0 0 1-.133-.853c0-.322.04-.57.134-.857a2.753 2.753 0 0 1 3.062-1.851Zm2.042 1.563c.17.364.246.718.247 1.135.001.316-.038.575-.13.858a2.749 2.749 0 0 1-1.755 1.761c-.537.18-1.176.18-1.71.001-.17-.056-.43-.17-.466-.203a335.13 335.13 0 0 1 3.721-3.727c.007 0 .05.079.093.175ZM9.64 19.639c.626.07 1.148.09 2.36.09 1.213 0 1.67-.017 2.37-.09.277-.028.273-.029.248.036-.205.549-.777 1.085-1.438 1.346a3.32 3.32 0 0 1-2.42-.006c-.445-.182-.88-.516-1.13-.866a2.735 2.735 0 0 1-.259-.484c-.016-.053.004-.055.27-.026Z" clip-rule="evenodd"/>
</svg>
