<svg xmlns="http://www.w3.org/2000/svg" width="24" height="24" fill="none" viewBox="0 0 24 24">
  <path fill="#161C24" fill-rule="evenodd" d="M10.15 1.29a9.555 9.555 0 0 0-3.385.931A9.75 9.75 0 0 0 2.22 6.765 9.49 9.49 0 0 0 1.26 11a9.49 9.49 0 0 0 .96 4.235 9.845 9.845 0 0 0 3.14 3.72 10.024 10.024 0 0 0 3.04 1.442c1.634.459 3.566.459 5.2 0a9.742 9.742 0 0 0 3.449-1.756c.132-.105.252-.199.268-.208.02-.013.568.522 2.13 2.081C21.849 22.911 21.64 22.73 22 22.73c.182 0 .223-.006.31-.049a.9.9 0 0 0 .362-.356c.053-.105.058-.133.058-.325 0-.359.18-.15-2.216-2.553-1.56-1.562-2.094-2.11-2.081-2.13.009-.016.103-.136.208-.268a9.27 9.27 0 0 0 1.13-1.799A9.47 9.47 0 0 0 20.74 11a9.47 9.47 0 0 0-.97-4.25 9.744 9.744 0 0 0-4.52-4.521 9.43 9.43 0 0 0-4.29-.967c-.292.002-.656.014-.81.028Zm1.21 1.47c.64.031 1.105.1 1.69.251a8.248 8.248 0 0 1 4.395 2.84 8.228 8.228 0 0 1 1.793 5.534 8.245 8.245 0 0 1-1.152 3.845 8.51 8.51 0 0 1-2.856 2.856 8.243 8.243 0 0 1-3.845 1.152 8.227 8.227 0 0 1-5.195-1.535 8.53 8.53 0 0 1-2.276-2.473 8.225 8.225 0 0 1-1.152-3.845A8.26 8.26 0 0 1 3.914 6.77 8.508 8.508 0 0 1 6.52 4.071a8.268 8.268 0 0 1 4.056-1.309c.184-.009.343-.017.354-.019.01-.001.205.007.43.017Zm-.602 4.028a.856.856 0 0 0-.44.402l-.048.1-.01 1.48-.01 1.48-1.48.01-1.48.01-.1.049a.899.899 0 0 0-.362.356c-.053.105-.058.133-.058.325s.005.22.058.325c.07.137.223.288.362.356l.1.049 1.48.01 1.48.01.01 1.48.01 1.48.058.115c.07.137.223.288.362.356.087.043.128.049.31.049s.223-.006.31-.049a.899.899 0 0 0 .362-.356l.058-.115.01-1.48.01-1.48 1.48-.01 1.48-.01.115-.058a.9.9 0 0 0 .356-.362c.043-.087.049-.128.049-.31 0-.192-.005-.22-.058-.325a.899.899 0 0 0-.362-.356l-.1-.049-1.48-.01-1.48-.01-.01-1.48-.01-1.48-.05-.1a.894.894 0 0 0-.354-.361c-.1-.05-.14-.059-.305-.063a.785.785 0 0 0-.263.022Z" clip-rule="evenodd"/>
</svg>
