<svg xmlns="http://www.w3.org/2000/svg" width="24" height="24" fill="none" viewBox="0 0 24 24">
  <path fill="#161C24" fill-rule="evenodd" d="M20.064 2.291c-.39.071-.795.223-1.364.511-1.66.84-3.968 2.604-6.51 4.976-1.585 1.48-3.73 3.722-4.982 5.21l-.258.305-.32.014c-.639.027-1.076.132-1.6.382a3.705 3.705 0 0 0-1.094.775c-.679.687-1.049 1.417-1.177 2.326-.012.088-.03.637-.039 1.22-.022 1.441-.046 1.59-.41 2.588a.653.653 0 0 0-.047.32.609.609 0 0 0 .053.266.76.76 0 0 0 .414.394c.125.047.58.113.98.142a13.88 13.88 0 0 0 1.471 0c1.744-.133 3.18-.715 4.217-1.71.794-.76 1.217-1.729 1.223-2.8l.002-.24.353-.294c1.06-.88 2.525-2.225 3.821-3.506 3.061-3.027 5.455-5.99 6.453-7.986.35-.699.49-1.172.49-1.646 0-.396-.104-.663-.359-.92a1.139 1.139 0 0 0-.59-.328 2.453 2.453 0 0 0-.727.001Zm.136 1.531c0 .046-.18.481-.296.71-.667 1.331-2.18 3.335-4.122 5.458a78.993 78.993 0 0 1-1.5 1.58l-.12.118-.897-.888c-.492-.488-.922-.913-.954-.943l-.06-.057.09-.092a63.63 63.63 0 0 1 1.63-1.528c2.483-2.24 4.764-3.873 6.05-4.33.148-.054.18-.059.18-.028Zm-7.61 8.418.5.502-.2.194c-.656.634-2.474 2.281-2.67 2.42-.032.02-.048.003-.147-.163a3.99 3.99 0 0 0-1.519-1.438c-.027-.01.032-.082.506-.614a75.46 75.46 0 0 1 1.615-1.746l.51-.536.452.44c.25.241.678.664.953.941Zm-5.495 2.59a2.41 2.41 0 0 1 1.784 1.306c.09.18.19.495.22.684.035.22.026.6-.019.821a2.336 2.336 0 0 1-.639 1.206c-.69.718-1.729 1.184-2.985 1.343a9.034 9.034 0 0 1-1.218.056l-.233-.012.037-.142c.065-.25.137-.77.157-1.142.011-.198.021-.675.021-1.06.001-.892.03-1.127.182-1.507.187-.468.625-.97 1.09-1.249a2.46 2.46 0 0 1 1.603-.304Z" clip-rule="evenodd"/>
</svg>
