<svg xmlns="http://www.w3.org/2000/svg" width="24" height="24" fill="none" viewBox="0 0 24 24">
  <path fill="#161C24" fill-rule="evenodd" d="M11.21 1.411a1.506 1.506 0 0 0-.531.18c-.46.23-7.418 3.9-7.499 3.955a1.818 1.818 0 0 0-.723 1.004 2.2 2.2 0 0 0 0 .9c.113.411.391.792.747 1.017.104.067 7.015 3.712 7.463 3.936.247.125.392.17.638.2.355.043.672-.02 1.045-.208.448-.225 7.345-3.864 7.446-3.928.265-.168.47-.397.622-.697.131-.258.168-.429.168-.77s-.037-.512-.168-.77a1.721 1.721 0 0 0-.622-.697c-.104-.067-7.016-3.712-7.463-3.937-.394-.197-.724-.252-1.123-.185Zm4.06 3.419a324.05 324.05 0 0 1 3.76 1.996c.055.044.06.058.06.174 0 .116-.005.13-.06.174-.033.026-1.725.925-3.76 1.996-2.865 1.509-3.716 1.949-3.77 1.949-.054 0-.905-.44-3.77-1.949a324.05 324.05 0 0 1-3.76-1.996c-.055-.044-.06-.058-.06-.174 0-.116.005-.13.06-.174A324.05 324.05 0 0 1 7.73 4.83c2.865-1.509 3.716-1.949 3.77-1.949.054 0 .905.44 3.77 1.949ZM2.758 10.288c-.249.095-.503.369-.671.722a1.773 1.773 0 0 0-.06 1.337c.12.33.37.65.659.84.133.088 7.331 3.89 7.991 4.221.237.12.384.165.628.195.352.042.672-.021 1.035-.203.667-.335 7.844-4.127 7.974-4.213.7-.462.962-1.413.599-2.177-.145-.306-.376-.574-.585-.68-.109-.055-.135-.06-.328-.06-.182 0-.223.006-.31.049a.899.899 0 0 0-.362.356c-.053.105-.058.133-.058.325 0 .248.028.321.204.536.106.13.11.137.101.233-.008.077-.023.11-.067.15-.032.028-1.832.985-4.001 2.126-2.846 1.498-3.961 2.075-4.007 2.075-.046 0-1.161-.577-4.007-2.075-2.169-1.141-3.969-2.098-4.001-2.126-.044-.04-.059-.073-.067-.15-.009-.096-.005-.103.101-.233.176-.215.204-.288.204-.536 0-.182-.006-.223-.049-.31a.899.899 0 0 0-.356-.362c-.1-.05-.14-.059-.305-.062a.843.843 0 0 0-.262.022Zm0 5c-.249.095-.503.369-.671.722a1.773 1.773 0 0 0-.06 1.337c.12.33.37.65.659.84.133.088 7.331 3.89 7.991 4.221.237.12.384.165.628.195.352.042.672-.021 1.035-.203.667-.335 7.844-4.127 7.974-4.213.7-.462.962-1.413.599-2.177-.145-.306-.376-.574-.585-.68-.109-.055-.135-.06-.328-.06-.182 0-.223.006-.31.049a.899.899 0 0 0-.362.356c-.053.105-.058.133-.058.325 0 .248.028.321.204.536.106.13.11.137.101.233-.008.077-.023.11-.067.15-.032.028-1.832.985-4.001 2.126-2.846 1.498-3.961 2.075-4.007 2.075-.046 0-1.161-.577-4.007-2.075-2.169-1.141-3.969-2.098-4.001-2.126-.044-.04-.059-.073-.067-.15-.009-.096-.005-.103.101-.233.176-.215.204-.288.204-.536 0-.182-.006-.223-.049-.31a.899.899 0 0 0-.356-.362c-.1-.05-.14-.059-.305-.062a.843.843 0 0 0-.262.022Z" clip-rule="evenodd"/>
</svg>
