<svg xmlns="http://www.w3.org/2000/svg" width="24" height="24" fill="none" viewBox="0 0 24 24">
  <path fill="#161C24" fill-rule="evenodd" d="M4.04 1.792a3.001 3.001 0 0 0-1.064.422A2.767 2.767 0 0 0 1.79 4.055c-.027.154-.031.7-.031 4.445 0 4.651-.006 4.385.11 4.795.057.193.225.552.344.73a2.786 2.786 0 0 0 1.736 1.168c.124.027.29.038.73.046l.57.011.01.57c.009.44.02.606.047.73.108.484.314.897.63 1.262.38.44.909.747 1.513.881.124.027.29.038.73.046l.57.011.01.57c.009.44.02.606.047.73.108.484.314.897.63 1.262.405.468.978.785 1.618.897.258.045 8.597.047 8.876.002a2.94 2.94 0 0 0 1.099-.428 2.777 2.777 0 0 0 1.179-1.838c.027-.154.03-.699.03-4.445 0-4.65.007-4.385-.11-4.795a3.403 3.403 0 0 0-.343-.729 2.786 2.786 0 0 0-1.736-1.169c-.124-.027-.29-.038-.73-.046l-.57-.01-.011-.57c-.008-.44-.02-.607-.046-.73a2.817 2.817 0 0 0-.63-1.263 2.785 2.785 0 0 0-1.513-.88c-.124-.028-.29-.039-.73-.047l-.57-.01-.011-.57c-.008-.44-.02-.607-.046-.73a2.817 2.817 0 0 0-.63-1.263 2.762 2.762 0 0 0-1.618-.897c-.154-.027-.694-.03-4.465-.029-3.53.002-4.317.007-4.44.03Zm8.78 1.493c.356.11.652.354.797.66.119.25.13.325.132.845v.46l-3.08.011c-2.865.01-3.09.013-3.23.046a2.847 2.847 0 0 0-1.251.63c-.435.377-.734.887-.881 1.503-.033.14-.036.364-.046 3.23l-.011 3.08h-.46c-.52-.002-.595-.014-.846-.133a1.239 1.239 0 0 1-.561-.56c-.143-.302-.133.047-.133-4.557 0-3.437.005-4.189.027-4.28a1.274 1.274 0 0 1 1.063-.959c.072-.009 1.984-.015 4.25-.013 3.812.003 4.128.006 4.23.037Zm3.5 3.5c.356.11.652.354.797.66.119.25.13.325.132.845v.46l-3.08.011c-2.865.01-3.09.013-3.23.046a2.847 2.847 0 0 0-1.251.63c-.435.377-.734.887-.881 1.503-.033.14-.036.364-.046 3.23l-.011 3.08h-.46c-.52-.002-.595-.014-.846-.133a1.239 1.239 0 0 1-.561-.56c-.143-.302-.133.047-.133-4.557 0-3.437.005-4.189.027-4.28a1.274 1.274 0 0 1 1.063-.959c.072-.009 1.984-.015 4.25-.013 3.812.003 4.128.006 4.23.037Zm3.5 3.5c.356.11.652.354.797.66.143.3.133-.049.133 4.555 0 3.437-.005 4.19-.027 4.28a1.3 1.3 0 0 1-.667.837c-.301.143.048.133-4.556.133-3.437 0-4.19-.005-4.28-.027a1.3 1.3 0 0 1-.837-.667c-.143-.3-.133.048-.133-4.556 0-3.437.005-4.189.027-4.28a1.274 1.274 0 0 1 1.063-.959c.072-.009 1.984-.015 4.25-.013 3.812.003 4.128.006 4.23.037Z" clip-rule="evenodd"/>
</svg>
