<svg xmlns="http://www.w3.org/2000/svg" width="24" height="24" fill="none" viewBox="0 0 24 24">
  <path fill="#161C24" fill-rule="evenodd" d="M9.52 1.827c-.695.184-1.35.43-2 .755A9.808 9.808 0 0 0 4.8 4.539a9.458 9.458 0 0 0-1.264 1.52c-.949 1.4-1.513 2.926-1.718 4.64-.08.684-.075 1.727.014 2.46a10.328 10.328 0 0 0 2.436 5.484 10.37 10.37 0 0 0 6.572 3.525c.683.083 1.772.094 2.39.023 2.125-.244 3.95-1.026 5.6-2.4a11.677 11.677 0 0 0 1.59-1.682 10.495 10.495 0 0 0 1.743-3.61c.071-.27.08-.33.073-.47a.594.594 0 0 0-.072-.283.764.764 0 0 0-.344-.342c-.098-.048-.132-.054-.32-.054h-.21l-.36.173a7.803 7.803 0 0 1-7.72-.454 6.828 6.828 0 0 1-1.25-1.028 6.717 6.717 0 0 1-.759-.861 7.81 7.81 0 0 1-1.142-7.097 7.06 7.06 0 0 1 .418-1.013l.173-.36V2.5c0-.191-.005-.22-.058-.33a.897.897 0 0 0-.146-.203c-.22-.214-.489-.255-.926-.14ZM8.58 3.76c0 .01-.027.112-.059.225a9.338 9.338 0 0 0 1.275 7.805 9.516 9.516 0 0 0 2.74 2.627c1.278.793 2.592 1.23 4.154 1.385.355.035 1.253.029 1.66-.011a9.8 9.8 0 0 0 1.676-.315.998.998 0 0 1 .227-.05c.02.02-.314.678-.503.994a8.942 8.942 0 0 1-4.183 3.638 9.664 9.664 0 0 1-1.967.569 8.894 8.894 0 0 1-6.876-1.712 9.486 9.486 0 0 1-1.639-1.64A9.09 9.09 0 0 1 4.06 15.58c-.496-1.11-.744-2.137-.797-3.303a8.691 8.691 0 0 1 .482-3.316A8.884 8.884 0 0 1 7.55 4.268c.278-.167.972-.528 1.015-.528.008 0 .015.009.015.02Z" clip-rule="evenodd"/>
</svg>
