<svg xmlns="http://www.w3.org/2000/svg" width="24" height="24" fill="none" viewBox="0 0 24 24">
  <path fill="#161C24" d="M12 6.25a5.75 5.75 0 1 1 0 11.5 5.75 5.75 0 1 1 0-11.5ZM7.75 12a4.25 4.25 0 1 0 8.5 0 4.25 4.25 0 0 0-8.5 0Zm13.241-.999H21a1 1 0 1 1 0 2h-.009a1 1 0 0 1 0-2Zm-2.633 6.364h.009a1 1 0 1 1 0 2h-.009a1 1 0 0 1 0-2ZM11.996 20h.009a1 1 0 0 1 0 2h-.009a1 1 0 0 1 0-2Zm6.363-15.364h.009a1 1 0 0 1 0 2h-.009a1 1 0 1 1 0-2ZM11.995 2h.01a1 1 0 0 1 0 2h-.01a1 1 0 0 1 0-2ZM5.634 17.364h.009a1 1 0 0 1 0 2h-.009a1 1 0 0 1 0-2ZM3 11.001h.009a1 1 0 1 1 0 2H3a1 1 0 0 1 0-2Zm2.634-6.365h.009a1 1 0 0 1 0 2h-.009a1 1 0 1 1 0-2Z"/>
</svg>
