<svg xmlns="http://www.w3.org/2000/svg" width="25" height="24" fill="none" viewBox="0 0 25 24">
  <path fill="#161C24" fill-rule="evenodd" d="M2.96 2.293a1 1 0 0 1 1.414 0l7 7a1 1 0 0 1-1.414 1.414l-7-7a1 1 0 0 1 0-1.414Z" clip-rule="evenodd"/>
  <path fill="#161C24" fill-rule="evenodd" d="M2.667 3a1 1 0 0 1 1-1h5a1 1 0 0 1 0 2h-4v4a1 1 0 0 1-2 0V3Zm1 12a1 1 0 0 1 1 1v4h4a1 1 0 1 1 0 2h-5a1 1 0 0 1-1-1v-5a1 1 0 0 1 1-1Zm12-12a1 1 0 0 1 1-1h5a1 1 0 0 1 1 1v5a1 1 0 1 1-2 0V4h-4a1 1 0 0 1-1-1Zm6 12a1 1 0 0 1 1 1v5a1 1 0 0 1-1 1h-5a1 1 0 1 1 0-2h4v-4a1 1 0 0 1 1-1Z" clip-rule="evenodd"/>
  <path fill="#161C24" fill-rule="evenodd" d="M11.374 13.293a1 1 0 0 1 0 1.414l-6.5 6.5a1 1 0 0 1-1.414-1.414l6.5-6.5a1 1 0 0 1 1.414 0Zm10.5-10.5a1 1 0 0 1 0 1.414l-6.5 6.5a1 1 0 0 1-1.414-1.414l6.5-6.5a1 1 0 0 1 1.414 0Zm-7.914 10.5a1 1 0 0 1 1.414 0l6.5 6.5a1 1 0 0 1-1.414 1.414l-6.5-6.5a1 1 0 0 1 0-1.414Z" clip-rule="evenodd"/>
</svg>
