<svg xmlns="http://www.w3.org/2000/svg" width="25" height="24" fill="none" viewBox="0 0 25 24">
  <path fill="#161C24" fill-rule="evenodd" d="M10.667 6a1 1 0 0 1 1-1h5c1.464 0 2.723.757 3.59 1.773.864 1.013 1.41 2.364 1.41 3.727s-.546 2.714-1.41 3.727C19.39 15.243 18.13 16 16.666 16h-8v2a1 1 0 0 1-1.707.707l-3-3a1 1 0 0 1 0-1.414l3-3A1 1 0 0 1 8.667 12v2h8c.745 0 1.486-.388 2.067-1.07.584-.684.933-1.584.933-2.43 0-.846-.35-1.746-.933-2.43-.58-.682-1.321-1.07-2.066-1.07h-5a1 1 0 0 1-1-1Z" clip-rule="evenodd"/>
</svg>
