<svg xmlns="http://www.w3.org/2000/svg" width="25" height="24" fill="none" viewBox="0 0 25 24">
  <path fill="#161C24" fill-rule="evenodd" d="M5.078 6.773C5.944 5.757 7.203 5 8.667 5h5a1 1 0 1 1 0 2h-5c-.745 0-1.486.388-2.068 1.07-.583.684-.932 1.584-.932 2.43 0 .846.35 1.745.932 2.43.582.682 1.323 1.07 2.068 1.07h8v-2a1 1 0 0 1 1.707-.707l3 3a1 1 0 0 1 0 1.414l-3 3A1 1 0 0 1 16.667 18v-2h-8c-1.464 0-2.723-.757-3.59-1.773-.864-1.013-1.41-2.364-1.41-3.727s.546-2.714 1.41-3.727Z" clip-rule="evenodd"/>
</svg>
