<svg xmlns="http://www.w3.org/2000/svg" width="25" height="24" fill="none" viewBox="0 0 25 24">
  <path fill="#161C24" fill-rule="evenodd" d="M12.668 2a1 1 0 0 1 1 1v6a1 1 0 1 1-2 0V3a1 1 0 0 1 1-1ZM2.667 12a1 1 0 0 1 1-1h6a1 1 0 1 1 0 2h-6a1 1 0 0 1-1-1Zm12 0a1 1 0 0 1 1-1h6a1 1 0 0 1 0 2h-6a1 1 0 0 1-1-1Zm-1.999 2a1 1 0 0 1 1 1v6a1 1 0 1 1-2 0v-6a1 1 0 0 1 1-1Z" clip-rule="evenodd"/>
  <path fill="#161C24" fill-rule="evenodd" d="M11.961 2.293a1 1 0 0 1 1.415 0l3 3a1 1 0 0 1-1.415 1.414l-2.293-2.293-2.292 2.293A1 1 0 0 1 8.96 5.293l3-3Zm-3 14.999a1 1 0 0 1 1.415 0l2.293 2.293 2.292-2.293a1 1 0 0 1 1.415 1.415l-3 3a1 1 0 0 1-1.415 0l-3-3a1 1 0 0 1 0-1.415Zm8.999-8.999a1 1 0 0 1 1.414 0l3 3a1 1 0 0 1 0 1.414l-3 3a1 1 0 0 1-1.415-1.414L20.252 12 17.96 9.707a1 1 0 0 1 0-1.414Zm-10.586 0a1 1 0 0 1 0 1.414L5.081 12l2.293 2.293a1 1 0 0 1-1.414 1.414l-3-3a1 1 0 0 1 0-1.414l3-3a1 1 0 0 1 1.414 0Z" clip-rule="evenodd"/>
</svg>
