<svg xmlns="http://www.w3.org/2000/svg" width="25" height="24" fill="none" viewBox="0 0 25 24">
  <path fill="#161C24" fill-rule="evenodd" d="M2.667 7.5a3 3 0 0 1 3-3h16a1 1 0 1 1 0 2h-16a1 1 0 0 0-1 1V12a1 1 0 1 1-2 0V7.5Z" clip-rule="evenodd"/>
  <path fill="#161C24" fill-rule="evenodd" d="M18.46 2.293a1 1 0 0 1 1.414 0l2.5 2.5a1 1 0 0 1 0 1.414l-2.5 2.5a1 1 0 1 1-1.414-1.414L20.253 5.5 18.46 3.707a1 1 0 0 1 0-1.414Zm-11.586 13a1 1 0 0 1 0 1.414L5.081 18.5l1.793 1.793a1 1 0 1 1-1.414 1.414l-2.5-2.5a1 1 0 0 1 0-1.414l2.5-2.5a1 1 0 0 1 1.414 0Z" clip-rule="evenodd"/>
  <path fill="#161C24" fill-rule="evenodd" d="M21.667 12a1 1 0 0 1 1 1v3.5a3 3 0 0 1-3 3h-16a1 1 0 1 1 0-2h16a1 1 0 0 0 1-1V13a1 1 0 0 1 1-1Z" clip-rule="evenodd"/>
</svg>
