<svg xmlns="http://www.w3.org/2000/svg" width="25" height="24" fill="none" viewBox="0 0 25 24">
  <path fill="#161C24" fill-rule="evenodd" d="M17.667 3a1 1 0 0 1 1 1v16a1 1 0 1 1-2 0V4a1 1 0 0 1 1-1Z" clip-rule="evenodd"/>
  <path fill="#161C24" fill-rule="evenodd" d="M13.96 16.293a1 1 0 0 1 1.414 0l2.293 2.293 2.293-2.293a1 1 0 0 1 1.414 1.414l-3 3a1 1 0 0 1-1.414 0l-3-3a1 1 0 0 1 0-1.414ZM7.667 3a1 1 0 0 1 .707.293l3 3A1 1 0 0 1 9.96 7.707L7.667 5.414 5.374 7.707A1 1 0 1 1 3.96 6.293l3-3A1 1 0 0 1 7.667 3Z" clip-rule="evenodd"/>
  <path fill="#161C24" fill-rule="evenodd" d="M7.667 3a1 1 0 0 0-1 1v16a1 1 0 1 0 2 0V4a1 1 0 0 0-1-1Z" clip-rule="evenodd"/>
</svg>
