<svg xmlns="http://www.w3.org/2000/svg" width="25" height="24" fill="none" viewBox="0 0 25 24">
  <path fill="#161C24" fill-rule="evenodd" d="M5.46 2.293a1 1 0 0 1 1.414 0l2.5 2.5A1 1 0 0 1 7.96 6.207L6.167 4.414 4.374 6.207A1 1 0 0 1 2.96 4.793l2.5-2.5Zm16.914 15.5a1 1 0 0 1 0 1.414l-2.5 2.5a1 1 0 0 1-1.414 0l-2.5-2.5a1 1 0 0 1 1.414-1.414l1.793 1.793 1.793-1.793a1 1 0 0 1 1.414 0Z" clip-rule="evenodd"/>
  <path fill="#161C24" fill-rule="evenodd" d="M6.167 2.5a1 1 0 0 1 1 1V19a1 1 0 0 0 1 1h4.5a1 1 0 1 1 0 2h-4.5a3 3 0 0 1-3-3V3.5a1 1 0 0 1 1-1Zm6.5.5a1 1 0 0 1 1-1h3.5a3 3 0 0 1 3 3v15.5a1 1 0 1 1-2 0V5a1 1 0 0 0-1-1h-3.5a1 1 0 0 1-1-1Z" clip-rule="evenodd"/>
</svg>
