<svg xmlns="http://www.w3.org/2000/svg" width="25" height="24" fill="none" viewBox="0 0 25 24">
  <path fill="#161C24" fill-rule="evenodd" d="M5.167 1.75a2.75 2.75 0 0 0-2.75 2.75v15a2.75 2.75 0 0 0 2.75 2.75h15a2.75 2.75 0 0 0 2.75-2.75v-15a2.75 2.75 0 0 0-2.75-2.75h-15ZM11.417 7a.75.75 0 0 0-.75-.75h-3a.75.75 0 0 0-.75.75v3a.75.75 0 0 0 1.5 0V8.81l2.72 2.72a.75.75 0 1 0 1.06-1.06l-2.72-2.72h1.19a.75.75 0 0 0 .75-.75Zm1.72 5.47a.75.75 0 0 0 0 1.06l2.72 2.72h-1.19a.75.75 0 0 0 0 1.5h3a.75.75 0 0 0 .75-.75v-3a.75.75 0 0 0-1.5 0v1.19l-2.72-2.72a.75.75 0 0 0-1.06 0Z" clip-rule="evenodd"/>
</svg>
