<svg xmlns="http://www.w3.org/2000/svg" width="24" height="24" fill="none" viewBox="0 0 24 24">
  <path fill="#161C24" fill-rule="evenodd" d="M11.19 1.282a10.795 10.795 0 0 0-3.625.926 10.813 10.813 0 0 0-5.357 5.357A10.52 10.52 0 0 0 1.26 12c0 1.576.304 3.001.948 4.435a10.821 10.821 0 0 0 5.357 5.357c1.43.642 2.86.947 4.435.947 1.574 0 3.004-.305 4.435-.947a10.829 10.829 0 0 0 5.357-5.357c.642-1.43.947-2.86.947-4.435 0-1.574-.305-3.004-.947-4.435a10.821 10.821 0 0 0-5.357-5.357 10.47 10.47 0 0 0-4.475-.945c-.313.001-.66.01-.77.02Zm1.18 1.478a9.027 9.027 0 0 1 3.646.911 8.851 8.851 0 0 1 2.577 1.851 8.758 8.758 0 0 1 1.736 2.462 9.007 9.007 0 0 1 .909 3.613 9.22 9.22 0 0 1-1.424 5.353 9.513 9.513 0 0 1-2.474 2.604 9.437 9.437 0 0 1-3.277 1.465 9.508 9.508 0 0 1-4.126 0 9.322 9.322 0 0 1-3.627-1.727 10.03 10.03 0 0 1-1.602-1.602 9.322 9.322 0 0 1-1.727-3.627 9.509 9.509 0 0 1 0-4.126A9.327 9.327 0 0 1 4.708 6.31 10.03 10.03 0 0 1 6.31 4.708a9.297 9.297 0 0 1 3.67-1.736 9.051 9.051 0 0 1 1.589-.21c.188-.009.346-.017.35-.019.006 0 .209.006.45.017Zm-4.1 5.027a.832.832 0 0 0-.451.403c-.043.087-.05.127-.05.31 0 .182.007.223.05.31.038.078.389.443 1.585 1.65l1.536 1.55-1.537 1.54c-1.226 1.228-1.547 1.56-1.585 1.64-.041.086-.048.13-.048.31 0 .192.005.22.058.325.07.137.223.288.362.356.087.043.128.05.31.05.357 0 .222.111 1.975-1.638L12 13.071l1.525 1.521c1.753 1.748 1.62 1.638 1.975 1.638.192 0 .22-.005.325-.058a.899.899 0 0 0 .356-.362c.043-.087.049-.128.049-.31 0-.354.11-.222-1.638-1.975L13.07 12l1.522-1.525c1.75-1.753 1.638-1.618 1.638-1.975 0-.188-.006-.222-.054-.32a.856.856 0 0 0-.355-.356c-.1-.048-.133-.054-.321-.054-.191 0-.22.005-.322.057-.091.046-.383.328-1.64 1.584l-1.527 1.53-1.531-1.528C8.744 7.68 8.855 7.774 8.53 7.765a.968.968 0 0 0-.26.022Z" clip-rule="evenodd"/>
</svg>
