<svg xmlns="http://www.w3.org/2000/svg" width="24" height="24" fill="none" viewBox="0 0 24 24">
  <path fill="#161C24" fill-rule="evenodd" d="M4.758 4.288a.856.856 0 0 0-.44.402c-.042.087-.048.127-.048.31 0 .364-.325.007 3.388 3.725L10.928 12l-3.27 3.275C3.945 18.993 4.27 18.636 4.27 19c0 .182.006.223.049.31a.899.899 0 0 0 .356.362c.105.053.133.058.325.058.364 0 .007.325 3.725-3.388L12 13.071l3.275 3.271c3.718 3.713 3.36 3.388 3.725 3.388.192 0 .22-.005.325-.058a.899.899 0 0 0 .356-.362c.043-.087.049-.128.049-.31 0-.364.325-.007-3.388-3.725L13.07 12l3.27-3.275C20.056 5.007 19.73 5.364 19.73 5c0-.192-.005-.22-.058-.325a.899.899 0 0 0-.362-.356c-.087-.043-.128-.049-.31-.049-.364 0-.007-.325-3.725 3.388L12 10.929 8.725 7.658C5.03 3.969 5.364 4.274 5.02 4.266a.843.843 0 0 0-.262.022Z" clip-rule="evenodd"/>
</svg>
