<svg xmlns="http://www.w3.org/2000/svg" width="24" height="24" fill="none" viewBox="0 0 24 24">
  <path fill="#161C24" fill-rule="evenodd" d="M4.04 1.792a3.001 3.001 0 0 0-1.064.422 2.767 2.767 0 0 0-1.185 1.84C1.764 4.21 1.76 5.11 1.76 12c0 8.486-.008 7.878.11 8.295.057.194.224.55.347.735a2.777 2.777 0 0 0 1.838 1.179c.155.027 1.053.03 7.935.03 8.448 0 7.89.008 8.3-.11.198-.056.553-.222.74-.346a2.777 2.777 0 0 0 1.179-1.838c.027-.155.03-1.054.03-7.945 0-8.486.009-7.878-.11-8.295a3.402 3.402 0 0 0-.343-.73 2.767 2.767 0 0 0-1.841-1.184c-.155-.027-1.05-.031-7.965-.03-6.486.003-7.815.008-7.94.03Zm15.78 1.493c.357.11.652.354.797.659.043.09.09.215.106.276.04.164.04 15.396 0 15.56a1.3 1.3 0 0 1-.943.943c-.164.04-15.396.04-15.56 0a1.3 1.3 0 0 1-.943-.943c-.04-.164-.04-15.396 0-15.56a1.275 1.275 0 0 1 1.063-.96c.072-.008 3.559-.014 7.75-.012 7.123.002 7.627.005 7.73.037Zm-4.075 5.013a.695.695 0 0 0-.307.215c-.051.054-1.081 1.283-2.288 2.733l-2.196 2.637-1.002-.997C8.785 11.724 8.845 11.77 8.5 11.77c-.192 0-.22.005-.325.058a.899.899 0 0 0-.356.362c-.043.087-.05.128-.05.31 0 .352-.086.245 1.45 1.78 1.536 1.537 1.429 1.45 1.78 1.45.192 0 .22-.005.322-.056a.927.927 0 0 0 .179-.12c.079-.073 5.02-6.001 5.114-6.134a.67.67 0 0 0 .122-.466.659.659 0 0 0-.226-.492c-.153-.145-.258-.188-.48-.196a.657.657 0 0 0-.285.032Z" clip-rule="evenodd"/>
</svg>
