<svg xmlns="http://www.w3.org/2000/svg" width="24" height="24" fill="none" viewBox="0 0 24 24">
  <path fill="#161C24" fill-rule="evenodd" d="M9.79 1.289c-.442.097-.903.424-1.12.794-.041.07-.32.698-.62 1.397l-.545 1.27-2.357.01-2.358.01-.115.058a.899.899 0 0 0-.356.362c-.043.087-.049.128-.049.31s.006.223.049.31a.899.899 0 0 0 .356.362l.115.058.496.006c.36.005.499.013.505.03.005.013.193 3.075.418 6.804.441 7.294.44 7.27.483 7.48.222 1.072 1.022 1.878 2.128 2.143.142.034.416.036 5.09.042 5.383.007 5.094.012 5.497-.105a2.98 2.98 0 0 0 1.041-.578c.155-.134.398-.427.518-.627.193-.32.329-.71.373-1.07.011-.091.21-3.292.441-7.115.231-3.822.424-6.961.429-6.974.006-.017.145-.025.505-.03.479-.006.499-.008.596-.055a.899.899 0 0 0 .362-.356c.053-.105.058-.133.058-.325s-.005-.22-.058-.325a.899.899 0 0 0-.362-.356l-.1-.05-2.358-.01-2.357-.01-.545-1.27c-.3-.698-.58-1.328-.621-1.4a2.117 2.117 0 0 0-.6-.583 2.378 2.378 0 0 0-.35-.16l-.189-.066-2.14-.004c-1.711-.003-2.164.002-2.26.023Zm4.111 1.47c.04.012.091.04.114.066.032.034.845 1.888.845 1.927 0 .004-1.287.008-2.86.008s-2.86-.004-2.86-.008c0-.04.813-1.893.845-1.927a.279.279 0 0 1 .104-.064c.086-.025 3.722-.026 3.812-.001Zm4.799 3.53c0 .027-.189 3.166-.42 6.975-.305 5.035-.428 6.959-.45 7.046-.11.42-.416.743-.84.887l-.16.054H7.17l-.16-.054a1.263 1.263 0 0 1-.839-.893c-.023-.087-.146-2.014-.451-7.043-.231-3.81-.42-6.946-.42-6.972V6.24h13.4v.048Zm-9.942 4.5a.85.85 0 0 0-.439.402c-.043.087-.049.127-.049.31 0 .192.005.22.058.325.07.137.223.288.362.356l.1.049h6.42l.1-.05a.899.899 0 0 0 .362-.355c.053-.105.058-.133.058-.325s-.005-.22-.058-.325a.899.899 0 0 0-.362-.356l-.1-.05-3.19-.003c-2.618-.003-3.203 0-3.262.023Zm1.5 4a.853.853 0 0 0-.439.402c-.043.087-.049.127-.049.31 0 .192.005.22.058.325.07.137.223.288.362.356l.1.049h3.42l.1-.05a.899.899 0 0 0 .362-.355c.053-.105.058-.133.058-.325s-.005-.22-.058-.325a.899.899 0 0 0-.362-.356l-.1-.05-1.69-.003c-1.371-.003-1.704 0-1.762.023Z" clip-rule="evenodd"/>
</svg>
