<svg xmlns="http://www.w3.org/2000/svg" width="24" height="24" fill="none" viewBox="0 0 24 24">
  <path fill="#161C24" fill-rule="evenodd" d="M5.95 2.793c-.307.066-.63.233-.851.44-.124.116-3.46 4.086-3.574 4.253-.18.265-.265.56-.265.927 0 .304.04.476.176.743.11.219.257.403 4.657 5.85 2.498 3.093 4.6 5.679 4.67 5.745.162.155.28.234.484.328.28.129.382.15.743.15.367 0 .494-.024.767-.151.206-.095.376-.216.536-.381A2433.69 2433.69 0 0 0 22.416 9.41c.213-.29.304-.552.319-.922.016-.407-.063-.711-.261-1.002-.12-.176-3.474-4.165-3.59-4.267a2 2 0 0 0-.54-.336c-.344-.132.145-.123-6.358-.121-5.155 0-5.914.005-6.036.03ZM17.808 4.28c.034.017.743.844 1.68 1.959a527.653 527.653 0 0 1 1.688 2.013c.07.09.086.17.046.244-.03.057-8.901 11.048-8.996 11.147-.137.142-.315.139-.457-.007a4739.79 4739.79 0 0 1-8.994-11.13c-.042-.054-.021-.167.048-.253a904.77 904.77 0 0 1 3.282-3.907.345.345 0 0 1 .133-.083c.046-.012 2.155-.018 5.792-.016 5.014.003 5.727.007 5.778.033Zm-8.05 3.509a.85.85 0 0 0-.44.4c-.042.088-.048.128-.048.31 0 .193.005.22.058.326.07.137.223.288.362.356l.1.049h4.42l.1-.05a.899.899 0 0 0 .362-.355c.053-.105.058-.133.058-.325s-.005-.22-.058-.325a.899.899 0 0 0-.362-.356l-.1-.05-2.19-.003c-1.787-.003-2.203 0-2.262.023Z" clip-rule="evenodd"/>
</svg>
