<svg xmlns="http://www.w3.org/2000/svg" width="24" height="24" fill="none" viewBox="0 0 24 24">
  <path fill="#161C24" fill-rule="evenodd" d="M11.19 1.282a10.795 10.795 0 0 0-3.625.926 10.813 10.813 0 0 0-5.357 5.357A10.52 10.52 0 0 0 1.26 12c0 1.576.304 3.001.948 4.435a10.821 10.821 0 0 0 5.357 5.357c1.43.642 2.86.947 4.435.947 1.574 0 3.004-.305 4.435-.947a10.829 10.829 0 0 0 5.357-5.357c.642-1.43.947-2.86.947-4.435 0-1.574-.305-3.004-.947-4.435a10.821 10.821 0 0 0-5.357-5.357 10.47 10.47 0 0 0-4.475-.945c-.313.001-.66.01-.77.02Zm1.18 1.478a9.027 9.027 0 0 1 3.646.911 8.851 8.851 0 0 1 2.577 1.851 8.758 8.758 0 0 1 1.736 2.462 9.007 9.007 0 0 1 .909 3.613 9.22 9.22 0 0 1-1.424 5.353 9.513 9.513 0 0 1-2.474 2.604 9.437 9.437 0 0 1-3.277 1.465 9.508 9.508 0 0 1-4.126 0 9.322 9.322 0 0 1-3.627-1.727 10.03 10.03 0 0 1-1.602-1.602 9.322 9.322 0 0 1-1.727-3.627 9.509 9.509 0 0 1 0-4.126A9.327 9.327 0 0 1 4.708 6.31 10.03 10.03 0 0 1 6.31 4.708a9.297 9.297 0 0 1 3.67-1.736 9.051 9.051 0 0 1 1.589-.21c.188-.009.346-.017.35-.019.006 0 .209.006.45.017Zm2.69 4.11c-.224.051-4.966 1.641-5.151 1.728a2.81 2.81 0 0 0-1.291 1.256c-.074.15-.294.786-.91 2.642-.445 1.345-.824 2.51-.841 2.59a2.17 2.17 0 0 0 .033.814 1.791 1.791 0 0 0 1.2 1.2c.212.062.619.078.826.032.269-.06 5.029-1.659 5.214-1.75a2.67 2.67 0 0 0 .72-.52c.116-.117.259-.283.319-.37.23-.336.259-.415 1.11-2.973.444-1.337.824-2.507.842-2.599a2.126 2.126 0 0 0-.03-.819 1.794 1.794 0 0 0-1.201-1.2 2.331 2.331 0 0 0-.84-.03Zm.5 1.507c.028.02.067.07.088.112l.038.076-.785 2.373c-.431 1.304-.82 2.444-.861 2.532a1.215 1.215 0 0 1-.434.491c-.134.088-.34.16-2.586.91-2.245.747-2.446.811-2.504.79a.274.274 0 0 1-.176-.172c-.02-.06.042-.26.77-2.453.435-1.312.814-2.434.84-2.493.103-.224.33-.453.566-.572.187-.093 4.888-1.654 4.944-1.64a.362.362 0 0 1 .1.046Zm-3.78 2.645c-.24.046-.53.261-.66.487-.163.286-.161.71.006.988.215.36.609.547 1.02.487a.919.919 0 0 0 .556-.282.936.936 0 0 0 .28-.547 1.008 1.008 0 0 0-.086-.595 1.218 1.218 0 0 0-.43-.446 1.12 1.12 0 0 0-.686-.092Z" clip-rule="evenodd"/>
</svg>
