<svg xmlns="http://www.w3.org/2000/svg" width="24" height="24" fill="none" viewBox="0 0 24 24">
  <path fill="#161C24" fill-rule="evenodd" d="M3.72 2.274c-.232.039-.52.156-.72.293a1.82 1.82 0 0 0-.685.967l-.045.156v1.57c0 1.475.002 1.578.038 1.71.077.288.238.572.437.776.058.058 1.323 1.121 2.811 2.361 1.488 1.24 2.713 2.275 2.723 2.301.01.025.199 1.674.42 3.664.222 1.99.417 3.685.434 3.768.104.509.467.965.954 1.199.387.186.863.219 1.275.089.202-.064 2.487-1.202 2.702-1.346.332-.223.595-.595.694-.985.022-.085.239-1.538.483-3.23.244-1.693.455-3.106.47-3.141.019-.046.733-.653 2.732-2.318a264.864 264.864 0 0 0 2.812-2.362c.199-.203.357-.485.437-.776.036-.132.038-.227.038-1.71V3.69l-.045-.156a1.788 1.788 0 0 0-1.209-1.219l-.146-.045-8.28-.002c-4.554-.002-8.302.001-8.33.006Zm16.406 1.511c.131.086.124.004.124 1.485 0 1.31-.001 1.342-.04 1.394-.022.029-1.259 1.069-2.75 2.311-1.607 1.338-2.764 2.316-2.842 2.402a1.729 1.729 0 0 0-.357.643c-.023.083-.244 1.551-.491 3.263a237.466 237.466 0 0 1-.467 3.16.236.236 0 0 1-.056.08c-.058.051-2.363 1.197-2.408 1.197-.106 0-.216-.094-.247-.21-.006-.022-.191-1.669-.412-3.66-.251-2.266-.416-3.68-.441-3.78a1.714 1.714 0 0 0-.472-.812A301.201 301.201 0 0 0 6.49 8.931a217.9 217.9 0 0 1-2.7-2.267c-.039-.052-.04-.089-.046-1.324a41.344 41.344 0 0 1 .006-1.355c.015-.103.091-.198.177-.223.038-.011 3.262-.017 8.104-.015 7.645.003 8.043.005 8.095.038Z" clip-rule="evenodd"/>
</svg>
