<svg xmlns="http://www.w3.org/2000/svg" width="24" height="24" fill="none" viewBox="0 0 24 24">
  <path fill="#161C24" d="M10.583 1.308a.75.75 0 0 1 .655.037l.444.256c2.225 1.337 4.607 3.498 6.431 5.9 1.866 2.46 3.256 5.316 3.129 7.898l-.018.25c-.183 2.081-1.049 3.662-2.35 4.82-1.282 1.142-2.95 1.842-4.711 2.26a.75.75 0 0 1-.84-1.07l.06-.1.004-.006.016-.023.065-.092a22.61 22.61 0 0 0 1-1.577c.576-1 1.152-2.197 1.335-3.183.154-1.626-.353-2.97-1.057-3.996-.28-.408-.59-.76-.895-1.054.003.128.005.261.002.397-.024 1.193-.289 2.786-1.381 3.989a.75.75 0 0 1-1.273-.285c-.474-1.542-1.223-2.26-1.795-2.606.008.219-.003.432-.034.639-.092.609-.335 1.123-.59 1.56-.127.217-.262.424-.387.614-.127.194-.242.367-.346.54-.182.304-.302.563-.357.813l-.02.107c-.217 1.532.23 2.508.69 3.099.236.304.486.518.672.654.093.068.169.115.218.144l.052.028.007.004h-.003v-.002h-.002a.75.75 0 0 1-.43 1.42l-.142-.036c-3.56-1.256-5.311-3.717-5.82-6.228-.492-2.428.18-4.92 1.481-6.31C7.4 6.593 9.336 4.778 10.15 1.802l.027-.081a.75.75 0 0 1 .406-.413Zm.715 1.82c-.917 2.478-2.611 4.35-4.715 6.787l-1.041 1.219a.756.756 0 0 1-.032.036c-.926.967-1.545 2.958-1.128 5.012a6.296 6.296 0 0 0 1.902 3.387c-.17-.673-.228-1.464-.098-2.383l.037-.212c.105-.486.32-.906.537-1.268.123-.207.258-.41.38-.595.126-.19.24-.368.345-.547.208-.355.35-.681.402-1.026.05-.335.023-.734-.182-1.244a.75.75 0 0 1 .702-1.03l-.007.75.008-.75h.022l.04.003a3.283 3.283 0 0 1 .497.074c.309.07.722.207 1.172.471.652.385 1.341 1.02 1.897 2.041.216-.595.305-1.244.317-1.859a8.534 8.534 0 0 0-.157-1.78 1.153 1.153 0 0 0-.005-.023v-.002l-.017-.106a.75.75 0 0 1 1.08-.738c.773.383 1.87 1.238 2.728 2.488.815 1.186 1.435 2.756 1.341 4.641l-.028.381-.01.058c-.225 1.262-.921 2.662-1.518 3.697l-.025.041c.815-.343 1.538-.771 2.135-1.302 1.015-.904 1.703-2.131 1.853-3.832l.014-.197c.098-2.044-1.027-4.54-2.826-6.91-1.616-2.13-3.688-4.04-5.62-5.281Z"/>
</svg>
