<svg xmlns="http://www.w3.org/2000/svg" width="24" height="24" fill="none" viewBox="0 0 24 24">
  <path fill="#161C24" fill-rule="evenodd" d="M13.766 1.288a.714.714 0 0 0-.31.206c-.051.053-2.227 2.566-4.835 5.586-3.345 3.874-4.757 5.522-4.796 5.6-.049.1-.054.132-.055.32 0 .183.006.223.049.31a.899.899 0 0 0 .356.362l.115.058 2.48.01 2.48.01.01 4.23.01 4.23.044.095c.061.133.23.304.364.37.101.05.133.055.322.055.188 0 .222-.006.32-.054.06-.03.161-.106.223-.17.062-.064 2.239-2.578 4.837-5.586 3.341-3.869 4.742-5.505 4.787-5.59.059-.113.063-.133.063-.33 0-.192-.005-.22-.058-.325a.899.899 0 0 0-.362-.356l-.1-.049-2.48-.01-2.48-.01-.01-4.23-.01-4.23-.044-.095a.927.927 0 0 0-.363-.369c-.091-.045-.143-.055-.292-.06a.891.891 0 0 0-.265.022Zm-.501 6.337.005 3.585.058.115c.07.137.223.288.362.356l.1.05 2.025.004c1.114.003 2.025.013 2.025.023 0 .021-7.054 8.19-7.08 8.2-.013.003-.021-1.25-.025-3.58l-.005-3.588-.058-.115a.899.899 0 0 0-.362-.356l-.1-.049-2.025-.005c-1.114-.003-2.025-.013-2.025-.023 0-.022 7.065-8.202 7.084-8.202.009 0 .018 1.613.021 3.585Z" clip-rule="evenodd"/>
</svg>
