<svg xmlns="http://www.w3.org/2000/svg" width="24" height="24" fill="none" viewBox="0 0 24 24">
  <path fill="#161C24" d="M2.25 19v-3.5a.75.75 0 0 1 1.5 0V19c0 .69.56 1.25 1.25 1.25h3.5a.75.75 0 0 1 0 1.5H5A2.75 2.75 0 0 1 2.25 19Zm18 0v-3.5a.75.75 0 0 1 1.5 0V19A2.75 2.75 0 0 1 19 21.75h-3.5a.75.75 0 0 1 0-1.5H19c.69 0 1.25-.56 1.25-1.25Zm-18-10.5V5A2.75 2.75 0 0 1 5 2.25h3.5a.75.75 0 0 1 0 1.5H5c-.69 0-1.25.56-1.25 1.25v3.5a.75.75 0 0 1-1.5 0Zm18 0V5c0-.69-.56-1.25-1.25-1.25h-3.5a.75.75 0 0 1 0-1.5H19A2.75 2.75 0 0 1 21.75 5v3.5a.75.75 0 0 1-1.5 0Z"/>
</svg>
