<svg xmlns="http://www.w3.org/2000/svg" width="24" height="24" fill="none" viewBox="0 0 24 24">
  <path fill="#161C24" fill-rule="evenodd" d="M4.04 1.792a3.001 3.001 0 0 0-1.064.422 2.767 2.767 0 0 0-1.185 1.84C1.764 4.21 1.76 5.11 1.76 12c0 8.486-.008 7.878.11 8.295.057.194.224.55.347.735a2.777 2.777 0 0 0 1.838 1.179c.155.027 1.053.03 7.935.03 8.448 0 7.89.008 8.3-.11.198-.056.553-.222.74-.346a2.777 2.777 0 0 0 1.179-1.838c.027-.155.03-1.054.03-7.945 0-8.486.009-7.878-.11-8.295a3.402 3.402 0 0 0-.343-.73 2.767 2.767 0 0 0-1.841-1.184c-.155-.027-1.05-.031-7.965-.03-6.486.003-7.815.008-7.94.03Zm15.78 1.493c.357.11.652.354.797.659.043.09.09.215.106.276.04.164.04 15.396 0 15.56a1.3 1.3 0 0 1-.943.943c-.164.04-15.396.04-15.56 0a1.3 1.3 0 0 1-.943-.943c-.04-.164-.04-15.396 0-15.56a1.275 1.275 0 0 1 1.063-.96c.072-.008 3.559-.014 7.75-.012 7.123.002 7.627.005 7.73.037Zm-8.047 3.478a2.751 2.751 0 0 0-2.24 1.528A2.26 2.26 0 0 0 9.27 9.41c0 .292.002.303.058.415.07.137.223.288.362.356.087.043.128.049.31.049.248 0 .345-.037.512-.194.155-.146.205-.263.238-.56.043-.392.14-.623.357-.844a1.243 1.243 0 0 1 2.135.877c-.003.394-.104.595-.628 1.253-.62.777-.863 1.125-1.041 1.484-.22.447-.324.87-.31 1.262.007.176.015.218.066.318a.894.894 0 0 0 .36.355c.088.043.129.049.31.049.249 0 .346-.037.513-.194.149-.141.202-.261.237-.538.063-.514.174-.71.972-1.718.656-.83.849-1.171.97-1.712.044-.194.06-.7.03-.942-.18-1.43-1.486-2.477-2.948-2.363Zm-.035 8.774c-.627.163-.932.916-.597 1.472a1.007 1.007 0 0 0 1.566.199A.92.92 0 0 0 13 16.5a.92.92 0 0 0-.293-.708 1.005 1.005 0 0 0-.97-.255Z" clip-rule="evenodd"/>
</svg>
