<svg xmlns="http://www.w3.org/2000/svg" width="24" height="24" fill="none" viewBox="0 0 24 24">
  <path fill="#161C24" fill-rule="evenodd" d="M11.19 1.282a10.795 10.795 0 0 0-3.625.926 10.813 10.813 0 0 0-5.357 5.357A10.52 10.52 0 0 0 1.26 12c0 1.576.304 3.001.948 4.435a10.821 10.821 0 0 0 5.357 5.357c1.43.642 2.86.947 4.435.947 1.574 0 3.004-.305 4.435-.947a10.829 10.829 0 0 0 5.357-5.357c.642-1.43.947-2.86.947-4.435 0-1.574-.305-3.004-.947-4.435a10.821 10.821 0 0 0-5.357-5.357 10.47 10.47 0 0 0-4.475-.945c-.313.001-.66.01-.77.02Zm1.18 1.478a9.027 9.027 0 0 1 3.646.911 8.851 8.851 0 0 1 2.577 1.851 8.758 8.758 0 0 1 1.736 2.462 9.007 9.007 0 0 1 .909 3.613 9.22 9.22 0 0 1-1.424 5.353 9.513 9.513 0 0 1-2.474 2.604 9.437 9.437 0 0 1-3.277 1.465 9.508 9.508 0 0 1-4.126 0 9.322 9.322 0 0 1-3.627-1.727 10.03 10.03 0 0 1-1.602-1.602 9.322 9.322 0 0 1-1.727-3.627 9.509 9.509 0 0 1 0-4.126A9.327 9.327 0 0 1 4.708 6.31 10.03 10.03 0 0 1 6.31 4.708a9.297 9.297 0 0 1 3.67-1.736 9.051 9.051 0 0 1 1.589-.21c.188-.009.346-.017.35-.019.006 0 .209.006.45.017Zm-.59 4.262c-.24.046-.53.261-.66.487-.163.286-.161.71.006.988.288.481.913.645 1.383.362a.997.997 0 0 0 .226-1.529 1.013 1.013 0 0 0-.955-.308Zm-.77 3.265a.806.806 0 0 0-.443.393c-.052.1-.057.128-.057.32s.005.22.057.32a.858.858 0 0 0 .349.352c.099.05.14.058.343.068l.23.01.01 2.73.01 2.73.058.11a.857.857 0 0 0 .35.353c.103.052.132.057.323.057.188 0 .222-.006.32-.054a.856.856 0 0 0 .356-.355l.054-.11.005-2.887c.005-2.786.004-2.893-.033-3.076-.1-.486-.413-.82-.882-.939-.176-.045-.932-.06-1.05-.022Z" clip-rule="evenodd"/>
</svg>
