<svg xmlns="http://www.w3.org/2000/svg" width="24" height="24" fill="none" viewBox="0 0 24 24">
  <path fill="#161C24" fill-rule="evenodd" d="M6.41 6.282a5.752 5.752 0 0 0-4.988 4.328 6.028 6.028 0 0 0-.09 2.35c.368 2.26 2.126 4.127 4.366 4.64.599.137.73.143 3.002.136l2.01-.006.115-.058a.899.899 0 0 0 .356-.362c.043-.087.049-.128.049-.31 0-.192-.005-.22-.058-.325a.899.899 0 0 0-.362-.356l-.1-.049-2.05-.012c-2.254-.013-2.195-.01-2.71-.142A4.144 4.144 0 0 1 4 15c-.685-.685-1.085-1.497-1.221-2.48a4.79 4.79 0 0 1 .054-1.36A4.27 4.27 0 0 1 5.83 7.915c.582-.164.522-.16 2.83-.173l2.05-.012.1-.049a.899.899 0 0 0 .362-.356c.053-.105.058-.133.058-.325s-.005-.22-.058-.325a.899.899 0 0 0-.362-.356l-.1-.049-2.07-.003a80.339 80.339 0 0 0-2.23.015Zm6.848.007a.845.845 0 0 0-.44.401c-.042.087-.048.127-.048.31 0 .192.005.22.058.325.07.137.223.288.362.356l.1.05 2.05.011c2.254.013 2.195.01 2.71.142A4.144 4.144 0 0 1 20 9a4.221 4.221 0 0 1 1.21 2.41 5.29 5.29 0 0 1 0 1.18A4.221 4.221 0 0 1 20 15a4.144 4.144 0 0 1-1.95 1.116c-.516.133-.456.13-2.71.142l-2.05.012-.1.05a.899.899 0 0 0-.362.355c-.053.105-.058.133-.058.325 0 .182.006.223.049.31a.899.899 0 0 0 .356.362l.115.058 2 .006c2.062.007 2.26.001 2.703-.075a5.753 5.753 0 0 0 4.584-4.27 5.35 5.35 0 0 0 .163-1.384 5.562 5.562 0 0 0-.947-3.177 5.731 5.731 0 0 0-3.843-2.499c-.398-.065-.605-.07-2.607-.07-1.622.002-2.027.007-2.085.028Zm-5 5a.845.845 0 0 0-.44.401c-.042.087-.048.127-.048.31 0 .192.005.22.058.325.07.137.223.288.362.356l.1.05h7.42l.115-.059a.899.899 0 0 0 .356-.362c.043-.087.049-.128.049-.31s-.006-.223-.05-.31a.899.899 0 0 0-.355-.362l-.115-.058-3.69-.004c-3.034-.003-3.703.001-3.762.023Z" clip-rule="evenodd"/>
</svg>
