<svg xmlns="http://www.w3.org/2000/svg" width="24" height="24" fill="none" viewBox="0 0 24 24">
  <path fill="#161C24" fill-rule="evenodd" d="M11.758 2.288a.856.856 0 0 0-.439.402l-.049.1v3.42l.049.1a.899.899 0 0 0 .356.362c.105.053.133.058.325.058s.22-.005.325-.058a.899.899 0 0 0 .356-.362l.049-.1V2.79l-.049-.1a.894.894 0 0 0-.355-.361c-.099-.05-.14-.06-.305-.063a.785.785 0 0 0-.263.022ZM5.516 4.903a.742.742 0 0 0-.614.849c.034.25.028.243 1.266 1.479C7.487 8.549 7.413 8.49 7.75 8.49c.186 0 .21-.005.333-.065a.761.761 0 0 0 .354-.361c.046-.1.053-.14.053-.314 0-.334.051-.27-1.199-1.527A42.489 42.489 0 0 0 6.095 5.05a.738.738 0 0 0-.579-.147ZM18.245 4.9c-.249.035-.242.029-1.47 1.263-.635.639-1.155 1.177-1.181 1.224a.726.726 0 0 0-.091.417.74.74 0 0 0 .433.632c.1.046.139.053.314.053.337 0 .263.059 1.582-1.26.982-.98 1.15-1.156 1.198-1.256a.799.799 0 0 0 .005-.658c-.091-.2-.322-.38-.518-.407l-.127-.017a.777.777 0 0 0-.145.009ZM2.758 11.289a.853.853 0 0 0-.439.4c-.043.088-.049.128-.049.31 0 .193.005.22.058.326.07.137.223.288.362.356l.1.049h3.42l.1-.05a.899.899 0 0 0 .362-.355c.053-.105.058-.133.058-.325s-.005-.22-.058-.325a.899.899 0 0 0-.362-.356l-.1-.05-1.69-.003c-1.371-.003-1.704 0-1.762.023Zm15 0a.853.853 0 0 0-.439.4c-.043.088-.049.128-.049.31 0 .193.005.22.058.326.07.137.223.288.362.356l.1.049h3.42l.1-.05a.899.899 0 0 0 .362-.355c.053-.105.058-.133.058-.325s-.005-.22-.058-.325a.899.899 0 0 0-.362-.356l-.1-.05-1.69-.003c-1.371-.003-1.704 0-1.762.023ZM7.53 15.527a.935.935 0 0 0-.17.082c-.05.03-.595.56-1.212 1.178-1.215 1.216-1.212 1.212-1.246 1.46-.069.507.328.908.842.85.252-.027.245-.021 1.487-1.265 1.318-1.32 1.259-1.245 1.259-1.582 0-.186-.005-.21-.065-.333a.754.754 0 0 0-.361-.353.914.914 0 0 0-.534-.037Zm8.442.023a.746.746 0 0 0-.432.444.59.59 0 0 0-.036.286c.014.308-.027.258 1.266 1.552 1.241 1.244 1.234 1.238 1.486 1.266a.74.74 0 0 0 .632-.21.74.74 0 0 0 .21-.632c-.028-.251-.023-.246-1.256-1.48-1.137-1.136-1.193-1.187-1.392-1.25a.799.799 0 0 0-.478.024Zm-4.214 1.738a.856.856 0 0 0-.439.402l-.049.1v3.42l.049.1a.899.899 0 0 0 .356.362c.105.053.133.058.325.058s.22-.005.325-.058a.899.899 0 0 0 .356-.362l.049-.1v-3.42l-.049-.1a.894.894 0 0 0-.355-.361c-.099-.05-.14-.06-.305-.063a.785.785 0 0 0-.263.022Z" clip-rule="evenodd"/>
</svg>
