<svg xmlns="http://www.w3.org/2000/svg" width="24" height="24" fill="none" viewBox="0 0 24 24">
  <path fill="#161C24" d="M18.25 12a6.25 6.25 0 1 0-3.03 5.357.75.75 0 0 1 .775 1.286A7.75 7.75 0 1 1 19.75 12c0 .384-.032.76-.086 1.13l1.455.424A9.25 9.25 0 1 0 12 21.25a9.207 9.207 0 0 0 5.552-1.85.75.75 0 0 1 .9 1.2A10.706 10.706 0 0 1 12 22.75C6.063 22.75 1.25 17.937 1.25 12S6.063 1.25 12 1.25 22.75 6.063 22.75 12c0 .927-.118 1.828-.339 2.688a.75.75 0 0 1-.936.533l-2.883-.841a.75.75 0 0 1-.519-.898c.116-.474.177-.97.177-1.482Z"/>
</svg>
