<svg xmlns="http://www.w3.org/2000/svg" width="24" height="24" fill="none" viewBox="0 0 24 24">
  <path fill="#161C24" fill-rule="evenodd" d="M11.5 2.312c-1.88.34-4.5 1.44-7.71 3.238-.998.56-1.769 1.021-1.944 1.164a1.66 1.66 0 0 0-.407.536c-.143.29-.169.404-.169.75 0 .347.026.461.169.75.115.232.251.408.426.55.261.21 1.747 1.068 3.24 1.868.122.065.178.107.185.138l.498 2.974c.548 3.295.498 3.068.72 3.275.299.28 1.277.896 1.969 1.243 1.683.844 3.156 1.111 4.643.841 1.234-.224 2.605-.837 3.97-1.776.327-.224.525-.41.589-.553.034-.076.163-.81.533-3.03.268-1.612.493-2.95.498-2.974.007-.029.054-.068.135-.113.367-.2.884-.473.899-.473.009 0 .016 1.261.016 2.802v2.803l-.71 1.654c-.45 1.047-.726 1.715-.752 1.821-.056.222-.046.595.022.81.138.438.441.792.839.982.291.14.285.138 1.341.138s1.051.001 1.341-.138c.396-.19.704-.55.84-.982.067-.215.077-.589.022-.808-.026-.104-.308-.786-.753-1.822l-.71-1.656V9.862l.325-.194c.576-.345.712-.455.892-.726.177-.266.263-.53.278-.86a1.629 1.629 0 0 0-.342-1.113c-.16-.21-.322-.333-.877-.664-3.372-2.01-6.426-3.404-8.536-3.892-.714-.166-1.008-.186-1.48-.1Zm.91 1.511c.934.183 2.152.61 3.6 1.261.483.217 1.894.915 2.42 1.197 1.089.584 2.68 1.5 2.765 1.592.053.058.06.176.015.241a.736.736 0 0 1-.165.121l-.585.344c-1.723 1.017-3.594 1.98-5.1 2.621-1.155.492-2.273.856-3.095 1.007l-.265.05-.265-.05c-.988-.18-2.224-.607-3.745-1.29a60.583 60.583 0 0 1-2.42-1.198c-1.065-.57-2.681-1.5-2.765-1.592-.049-.053-.06-.16-.025-.228.041-.075 1.626-.994 2.79-1.618a60.57 60.57 0 0 1 2.42-1.197c1.212-.545 2.263-.933 3.12-1.15.439-.113.859-.192.94-.18.033.006.195.036.36.07Zm-4.692 8.61c1.269.557 2.338.931 3.302 1.154.691.16.986.184 1.41.112 1.158-.194 2.744-.74 4.457-1.537.169-.078.177-.08.167-.037-.006.025-.176 1.04-.377 2.253l-.367 2.208-.31.204c-.945.624-1.977 1.1-2.84 1.31-1.276.31-2.45.126-3.954-.619A10.03 10.03 0 0 1 8 16.791l-.31-.205-.367-2.208a375.816 375.816 0 0 0-.377-2.253c-.01-.043-.002-.04.167.037.097.045.37.167.605.27Zm13.158 6.842c.201.47.365.875.365.9a.082.082 0 0 1-.04.064c-.024.013-.282.021-.701.021s-.677-.008-.701-.02a.082.082 0 0 1-.04-.066c0-.045.722-1.754.741-1.754.006 0 .175.385.376.855Z" clip-rule="evenodd"/>
</svg>
