<svg xmlns="http://www.w3.org/2000/svg" width="24" height="24" fill="none" viewBox="0 0 24 24">
  <path fill="#161C24" d="M9.25 5A.25.25 0 0 0 9 4.75H5a.25.25 0 0 0-.25.25v14c0 .138.112.25.25.25h4a.25.25 0 0 0 .25-.25V5Zm1.5 14A1.75 1.75 0 0 1 9 20.75H5A1.75 1.75 0 0 1 3.25 19V5c0-.966.784-1.75 1.75-1.75h4c.966 0 1.75.784 1.75 1.75v14Zm8.5-14a.25.25 0 0 0-.25-.25h-4a.25.25 0 0 0-.25.25v14c0 .138.112.25.25.25h4a.25.25 0 0 0 .25-.25V5Zm1.5 14A1.75 1.75 0 0 1 19 20.75h-4A1.75 1.75 0 0 1 13.25 19V5c0-.966.784-1.75 1.75-1.75h4c.966 0 1.75.784 1.75 1.75v14Z"/>
</svg>
