<svg xmlns="http://www.w3.org/2000/svg" width="24" height="24" fill="none" viewBox="0 0 24 24">
  <path fill="#161C24" fill-rule="evenodd" d="M21.04 1.273c-2.696.15-5.209.858-6.82 1.925-.339.224-.59.426-.97.78-1.926 1.792-2.863 2.644-2.928 2.663-.066.02-.129.002-.802-.232-.896-.31-.973-.329-1.4-.343a2.537 2.537 0 0 0-1.33.284 3.15 3.15 0 0 0-.39.237c-.094.071-.472.43-.842.796-.797.791-.788.78-.788 1.117 0 .368-.55-.217 5.2 5.533 5.752 5.754 5.16 5.197 5.53 5.197.328 0 .321.005 1.11-.78.737-.732.866-.888 1.05-1.26.215-.436.291-.802.274-1.318-.014-.449-.01-.43-.454-1.717-.128-.373-.14-.422-.12-.48.018-.059 1.077-1.22 2.682-2.945.5-.536.8-.936 1.117-1.49.983-1.713 1.56-4.2 1.57-6.77l.001-.68-.058-.115a.899.899 0 0 0-.362-.356c-.098-.048-.11-.049-.63-.05-.29-.002-.579 0-.64.004Zm.191 1.682c-.034.547-.058.847-.093 1.165-.248 2.226-.915 4.095-1.864 5.22-.06.072-.754.828-1.543 1.68A89.478 89.478 0 0 0 16.2 12.7a1.603 1.603 0 0 0-.333.961c-.015.344.007.437.305 1.3.137.397.258.777.267.844a1.33 1.33 0 0 1-.139.753c-.082.154-.19.278-.53.61l-.284.272-4.456-4.472-4.457-4.472.37-.365c.323-.32.386-.374.518-.438.201-.097.356-.135.562-.135.22 0 .275.014 1.1.3.378.13.752.25.83.262.22.04.62.016.808-.046a1.64 1.64 0 0 0 .63-.342c.114-.097 2.583-2.373 2.958-2.728.658-.62 1.525-1.095 2.751-1.504a15.364 15.364 0 0 1 3.011-.648c.263-.03.782-.074 1.066-.089l.066-.003-.01.195Zm-4.009 2.577c-.317.085-.587.35-.685.673a.837.837 0 0 0-.033.347c.01.195.015.22.092.375.2.403.611.621 1.05.557a.904.904 0 0 0 .557-.285.987.987 0 0 0 .195-1.134 1.235 1.235 0 0 0-.429-.45 1.102 1.102 0 0 0-.747-.083ZM4.758 12.288a1.22 1.22 0 0 0-.16.082c-.048.03-.79.757-1.649 1.617C1.155 15.783 1.27 15.645 1.27 16c0 .182.006.223.05.31a.899.899 0 0 0 .355.362c.105.053.133.058.325.058.356 0 .215.118 2.031-1.699 1.817-1.816 1.7-1.675 1.7-2.03 0-.183-.007-.224-.05-.31a.894.894 0 0 0-.355-.362c-.099-.05-.14-.059-.305-.063a.785.785 0 0 0-.263.022Zm3 3a1.22 1.22 0 0 0-.16.082c-.048.03-1.466 1.432-3.149 3.117C.97 21.967 1.27 21.637 1.27 22c0 .192.005.22.058.325.07.137.223.288.362.356.087.043.128.05.31.05.364 0 .03.302 3.531-3.2 3.502-3.5 3.2-3.167 3.2-3.53 0-.183-.007-.224-.05-.31a.899.899 0 0 0-.356-.363c-.1-.05-.14-.059-.305-.062a.843.843 0 0 0-.262.022Zm3 3a1.22 1.22 0 0 0-.16.082c-.048.03-.79.757-1.649 1.617C7.155 21.783 7.27 21.645 7.27 22c0 .182.006.223.05.31a.899.899 0 0 0 .355.362c.105.053.133.058.325.058.356 0 .215.118 2.031-1.699 1.817-1.816 1.7-1.675 1.7-2.03 0-.183-.007-.224-.05-.31a.899.899 0 0 0-.356-.363c-.1-.05-.14-.059-.305-.062a.843.843 0 0 0-.262.022Z" clip-rule="evenodd"/>
</svg>
