<svg xmlns="http://www.w3.org/2000/svg" width="24" height="24" fill="none" viewBox="0 0 24 24">
  <path fill="#161C24" fill-rule="evenodd" d="M17.01 1.782a3.789 3.789 0 0 0-2.74 1.82l-.099.168h-.77c-.618 0-.827.007-1.05.035-1.125.142-2.03.413-2.993.895a8.864 8.864 0 0 0-3.343 2.91l-.107.153-.36-.002a3.67 3.67 0 0 0-.918.091 3.793 3.793 0 0 0-2.778 2.778 4.29 4.29 0 0 0-.06 1.407 3.77 3.77 0 0 0 1.768 2.668c.322.2.82.395 1.187.467.142.027.18.042.194.076a9.484 9.484 0 0 0 1.201 2.323c1.335 1.86 3.415 3.154 5.698 3.546.555.096.778.112 1.53.112.883 0 1.275-.041 2.027-.212l.266-.06.194.193a3.74 3.74 0 0 0 2.192 1.071c.294.039.907.014 1.202-.049a3.761 3.761 0 0 0 2.96-3.152c.05-.341.032-.941-.039-1.271a3.769 3.769 0 0 0-.647-1.454c-.1-.131-.102-.107.028-.401.345-.777.563-1.641.658-2.604.046-.466.031-1.418-.03-1.87a8.666 8.666 0 0 0-1.4-3.738l-.117-.175.061-.098c.088-.141.24-.469.313-.675.161-.458.211-.799.196-1.344-.008-.324-.02-.446-.062-.641a3.766 3.766 0 0 0-3.135-2.958 5.52 5.52 0 0 0-1.027-.009Zm.86 1.502a2.249 2.249 0 0 1 1.644 3.211 2.247 2.247 0 1 1-1.644-3.211Zm-4.293 1.969.183.013v.279c0 1.277.677 2.465 1.8 3.16.332.205.776.379 1.2.47.233.05.284.054.74.054s.507-.004.741-.054c.421-.09.871-.266 1.191-.466a1.05 1.05 0 0 1 .161-.089c.027 0 .276.427.418.716a7 7 0 0 1 .733 3.134 6.822 6.822 0 0 1-.417 2.453l-.09.253-.165-.076a4.278 4.278 0 0 0-.668-.239c-.523-.132-1.263-.136-1.774-.009a3.793 3.793 0 0 0-2.778 2.778c-.128.515-.124 1.226.01 1.776a.97.97 0 0 1 .035.184c-.017.017-.468.09-.75.121a9.564 9.564 0 0 1-1.457.01 7.502 7.502 0 0 1-3.629-1.341 7.106 7.106 0 0 1-.97-.829 7.108 7.108 0 0 1-1.297-1.771c-.15-.287-.3-.641-.28-.659.008-.008.101-.044.205-.08 1.25-.428 2.174-1.483 2.456-2.8.05-.234.054-.285.054-.741s-.004-.507-.054-.741a3.803 3.803 0 0 0-1.027-1.907 4.43 4.43 0 0 0-.653-.523.335.335 0 0 1-.095-.073c0-.042.44-.556.695-.813.33-.33.547-.518.88-.76a7.429 7.429 0 0 1 4.135-1.43c.1-.002.203-.007.232-.009.028-.002.134.002.235.009ZM5.87 9.284a2.249 2.249 0 0 1 1.644 3.211A2.247 2.247 0 1 1 5.87 9.284Zm13 7a2.249 2.249 0 0 1 1.644 3.211 2.247 2.247 0 1 1-1.644-3.211Z" clip-rule="evenodd"/>
</svg>
