<svg xmlns="http://www.w3.org/2000/svg" width="24" height="24" fill="none" viewBox="0 0 24 24">
  <path fill="#161C24" fill-rule="evenodd" d="M17.51 2.782a3.773 3.773 0 0 0-3.076 2.569c-.14.437-.182.742-.17 1.269l.008.391-2.62 1.21-2.726 1.257-.106.048-.175-.176a3.831 3.831 0 0 0-1.74-.989c-.524-.132-1.264-.136-1.775-.009a3.793 3.793 0 0 0-2.778 2.778 4.29 4.29 0 0 0-.06 1.407c.23 1.564 1.4 2.802 2.967 3.138.234.05.285.054.741.054s.507-.004.741-.054c.897-.192 1.697-.692 2.224-1.39a.998.998 0 0 1 .152-.177l2.623 1.212 2.623 1.212c.007.004.001.055-.014.113-.09.352-.117.99-.058 1.392.246 1.673 1.564 2.961 3.258 3.184.294.039.907.014 1.202-.049a3.761 3.761 0 0 0 2.96-3.152c.05-.341.032-.941-.039-1.271a3.766 3.766 0 0 0-3.135-2.958 4.29 4.29 0 0 0-1.407.061 3.821 3.821 0 0 0-1.955 1.187c-.129.143-.138.149-.19.128a938.697 938.697 0 0 1-5.289-2.444.841.841 0 0 1 .017-.213 4.68 4.68 0 0 0-.04-1.26 4.049 4.049 0 0 0-.08-.325c-.03-.08-.029-.086.01-.106a691.66 691.66 0 0 1 5.15-2.373c.032-.007.052.008.088.067a3.771 3.771 0 0 0 2.418 1.662c.234.05.285.054.741.054s.507-.004.741-.054c1.574-.337 2.74-1.576 2.97-3.155.05-.341.032-.941-.039-1.271a3.766 3.766 0 0 0-3.135-2.958 5.52 5.52 0 0 0-1.027-.009Zm.86 1.502a2.249 2.249 0 0 1 1.644 3.211 2.247 2.247 0 1 1-1.644-3.211Zm-12 5.5a2.249 2.249 0 0 1 1.644 3.211A2.247 2.247 0 1 1 6.37 9.784Zm12 5.5a2.249 2.249 0 0 1 1.644 3.211 2.247 2.247 0 1 1-1.644-3.211Z" clip-rule="evenodd"/>
</svg>
