<svg xmlns="http://www.w3.org/2000/svg" width="24" height="24" fill="none" viewBox="0 0 24 24">
  <path fill="#161C24" fill-rule="evenodd" d="M5.758 3.288a.856.856 0 0 0-.44.402l-.048.1-.005 7.699-.005 7.698-.655-.65c-.78-.771-.773-.767-1.105-.767-.192 0-.22.005-.325.058a.899.899 0 0 0-.356.362c-.043.087-.05.128-.05.31 0 .352-.086.245 1.45 1.78 1.536 1.537 1.429 1.45 1.78 1.45.353 0 .246.087 1.782-1.45 1.536-1.535 1.449-1.428 1.449-1.78 0-.182-.006-.223-.05-.31a.899.899 0 0 0-.355-.362c-.105-.053-.133-.058-.325-.058-.332 0-.326-.004-1.105.768l-.655.649-.005-7.698-.005-7.7-.05-.1a.894.894 0 0 0-.354-.36c-.1-.05-.14-.06-.305-.063a.785.785 0 0 0-.263.022Zm5.5 0a.853.853 0 0 0-.44.402c-.042.087-.048.127-.048.31 0 .192.005.22.058.325.07.137.223.288.362.356l.1.049h2.42l.115-.058a.899.899 0 0 0 .356-.362c.043-.087.049-.128.049-.31s-.006-.223-.05-.31a.899.899 0 0 0-.355-.362l-.115-.058-1.19-.004c-.955-.003-1.204.002-1.262.023Zm0 4a.85.85 0 0 0-.44.402c-.042.087-.048.127-.048.31 0 .192.005.22.058.325.07.137.223.288.362.356l.1.049h4.42l.1-.05a.899.899 0 0 0 .362-.355c.053-.105.058-.133.058-.325s-.005-.22-.058-.325a.899.899 0 0 0-.362-.356l-.1-.05-2.19-.003c-1.787-.003-2.203 0-2.262.023Zm0 4a.845.845 0 0 0-.44.402c-.042.087-.048.127-.048.31 0 .192.005.22.058.325.07.137.223.288.362.356l.1.049h7.42l.115-.058a.899.899 0 0 0 .356-.362c.043-.087.049-.128.049-.31s-.006-.223-.05-.31a.899.899 0 0 0-.355-.362l-.115-.058-3.69-.004c-3.034-.003-3.703 0-3.762.023Zm0 4a.845.845 0 0 0-.44.402c-.042.087-.048.127-.048.31 0 .192.005.22.058.325.07.137.223.288.362.356l.1.049h9.42l.115-.058a.899.899 0 0 0 .356-.362c.043-.087.049-.128.049-.31s-.006-.223-.05-.31a.899.899 0 0 0-.355-.362l-.115-.058-4.69-.004c-3.866-.003-4.703 0-4.762.023Z" clip-rule="evenodd"/>
</svg>
