<svg xmlns="http://www.w3.org/2000/svg" width="24" height="24" fill="none" viewBox="0 0 24 24">
  <path fill="#161C24" fill-rule="evenodd" d="M11.15 1.702c-2.215.12-4.375.99-6.09 2.45-.296.251-.897.852-1.148 1.148a10.296 10.296 0 0 0-2.455 7.17 10.11 10.11 0 0 0 .938 3.862 10.074 10.074 0 0 0 2.073 2.96 10.126 10.126 0 0 0 3.982 2.481 10.44 10.44 0 0 0 5.614.286 10.398 10.398 0 0 0 3.717-1.679 10.35 10.35 0 0 0 3.911-5.576 10.509 10.509 0 0 0 0-5.608A10.365 10.365 0 0 0 19.6 5.29a13.668 13.668 0 0 0-1.129-1.129c-2.038-1.742-4.608-2.606-7.32-2.459Zm1.231 1.44a8.875 8.875 0 0 1 6.065 3.018A8.864 8.864 0 0 1 20.64 12a8.895 8.895 0 0 1-1.929 5.525 1.892 1.892 0 0 1-.186.215c-.008 0-2.828-2.813-6.265-6.25L6.01 5.237l.08-.07a8.876 8.876 0 0 1 5.02-2.025c.3-.025.967-.026 1.271-.002Zm-1.12 9.37 6.25 6.25-.08.071A8.874 8.874 0 0 1 4.63 17.29a8.873 8.873 0 0 1-.156-10.365c.185-.265.498-.665.521-.665.008 0 2.828 2.813 6.265 6.251Z" clip-rule="evenodd"/>
</svg>
