<svg xmlns="http://www.w3.org/2000/svg" width="24" height="24" fill="none" viewBox="0 0 24 24">
  <path fill="#161C24" fill-rule="evenodd" d="M1.758 1.288a.856.856 0 0 0-.44.402c-.042.087-.048.127-.048.31 0 .362-.25.083 2.768 3.105l2.65 2.655H5.21c-1.6 0-1.62.001-2.005.111a3.402 3.402 0 0 0-.73.343 2.767 2.767 0 0 0-1.184 1.841c-.046.261-.046 3.629 0 3.89.066.38.224.781.423 1.079a2.767 2.767 0 0 0 1.84 1.185c.148.026.42.031 1.693.031h1.518l3.409 2.192a440.693 440.693 0 0 0 3.512 2.245c.092.048.124.053.313.053.193 0 .22-.005.325-.058a.807.807 0 0 0 .348-.348l.058-.114.005-2.199.006-2.2 3.404 3.401c3.864 3.859 3.49 3.518 3.855 3.518.192 0 .22-.005.325-.058a.899.899 0 0 0 .356-.362c.043-.087.049-.128.049-.31 0-.192-.005-.221-.06-.33-.051-.107-1.114-1.176-10.14-10.201C3.507 2.444 2.438 1.381 2.33 1.329c-.104-.051-.146-.06-.31-.063a.843.843 0 0 0-.262.022Zm11.997 2.001c-.132.051-4.206 2.608-4.29 2.693a.924.924 0 0 0-.137.194c-.053.104-.058.132-.058.324 0 .197.004.218.063.33a.79.79 0 0 0 .34.341.873.873 0 0 0 .555.043c.05-.017.747-.441 1.55-.943.802-.501 1.463-.911 1.47-.911.006 0 .014 1.204.017 2.675l.005 2.675.058.115c.07.137.223.288.362.356.087.043.128.049.31.049s.223-.006.31-.049a.899.899 0 0 0 .362-.356l.058-.115V3.79l-.058-.114a.815.815 0 0 0-.347-.348c-.097-.049-.14-.058-.304-.062a.772.772 0 0 0-.266.023Zm5.969 3.013a.893.893 0 0 0-.395.371c-.054.108-.06.134-.06.327 0 .189.006.221.056.32.03.06.137.205.238.32.954 1.1 1.506 2.346 1.658 3.74.033.302.028.979-.01 1.3-.118.999-.412 1.845-.951 2.74-.096.16-.186.325-.2.367a.837.837 0 0 0-.016.252.578.578 0 0 0 .065.287.81.81 0 0 0 .347.346c.104.053.132.058.324.058s.22-.005.324-.058c.162-.082.257-.186.442-.482a7.983 7.983 0 0 0 1.113-5.359c-.197-1.361-.8-2.724-1.71-3.868-.297-.373-.484-.564-.622-.634-.1-.05-.142-.059-.306-.064-.156-.004-.211.003-.297.037Zm-2.958 1.986a.7.7 0 0 0-.314.212.634.634 0 0 0-.187.452c-.014.231.017.315.24.651.514.77.739 1.508.739 2.417a4.024 4.024 0 0 1-.266 1.474 5.246 5.246 0 0 0-.11.315.738.738 0 0 0 .397.863c.11.052.147.058.325.058.175 0 .214-.007.314-.053.236-.111.36-.299.534-.802a5.599 5.599 0 0 0 .302-1.892 5.592 5.592 0 0 0-.797-2.919c-.26-.438-.454-.666-.64-.748a1.041 1.041 0 0 0-.537-.028Zm-6.231 3.317 2.725 2.725v2.145c0 1.18-.005 2.145-.011 2.145-.007 0-1.32-.842-2.92-1.87a278.272 278.272 0 0 0-3.013-1.925l-.106-.055-1.71-.011c-1.897-.013-1.782-.005-2.077-.151a1.28 1.28 0 0 1-.54-.552c-.138-.291-.133-.208-.133-2.056 0-1.85-.006-1.765.134-2.058.107-.225.319-.442.536-.549.299-.147.182-.139 2.08-.152l1.71-.011.1-.052c.055-.028.185-.107.29-.174.105-.068.194-.123.2-.124.005 0 1.236 1.226 2.735 2.725Z" clip-rule="evenodd"/>
</svg>
