<svg xmlns="http://www.w3.org/2000/svg" width="24" height="24" fill="none" viewBox="0 0 24 24">
  <path fill="#161C24" fill-rule="evenodd" d="M1.758 1.288a.856.856 0 0 0-.439.402c-.043.087-.049.127-.049.31 0 .355-.119.213 1.714 2.051l1.597 1.601-.245.152c-.66.408-1.71 1.191-2.596 1.936-.419.353-.469.433-.469.76 0 .252.03.333.188.505a.65.65 0 0 0 .493.231.68.68 0 0 0 .482-.13c.056-.042.294-.234.53-.428A22.24 22.24 0 0 1 4.89 7.23c.33-.217.751-.47.784-.47.01 0 .537.521 1.175 1.159l1.158 1.158-.149.065c-.266.116-.944.468-1.209.628-.49.296-1.03.673-1.449 1.01-.369.299-.429.399-.429.72 0 .171.008.227.042.301a.93.93 0 0 0 .363.373c.103.051.135.056.324.056.266 0 .31-.019.64-.282.944-.75 1.896-1.3 2.84-1.642l.188-.068 1.025 1.025c.564.564 1.021 1.03 1.015 1.036a2.448 2.448 0 0 1-.248.053c-1.03.189-2.077.74-2.872 1.512-.138.134-.22.232-.26.311-.053.105-.058.133-.058.325 0 .182.006.223.05.31a.899.899 0 0 0 .355.362c.105.053.133.058.325.058s.22-.005.324-.058a1.88 1.88 0 0 0 .31-.237c.605-.557 1.196-.887 1.906-1.065.367-.092.591-.115 1.14-.113l.51.002 4.43 4.427c5.016 5.012 4.513 4.544 4.88 4.544.192 0 .22-.005.325-.058a.899.899 0 0 0 .356-.362c.043-.087.05-.128.05-.31 0-.192-.006-.221-.06-.33-.052-.107-1.115-1.176-10.14-10.201S2.437 1.381 2.331 1.329c-.105-.051-.147-.06-.31-.063a.843.843 0 0 0-.263.022Zm9.212 2.501c-.735.061-1.625.198-1.798.278a.803.803 0 0 0-.344.348c-.053.105-.058.133-.058.325s.005.22.057.32a.84.84 0 0 0 .35.351c.164.081.335.086.72.02a11.722 11.722 0 0 1 2.123-.176c1.175 0 2.207.142 3.373.464 2.045.565 4.05 1.642 5.897 3.169.154.127.33.256.39.287.1.05.13.055.32.055s.221-.005.324-.056a.93.93 0 0 0 .363-.373c.034-.074.042-.13.042-.301 0-.34-.053-.418-.559-.83-2.63-2.137-5.429-3.41-8.35-3.798-.61-.081-.853-.096-1.69-.103a15.11 15.11 0 0 0-1.16.02Zm2.277 4.508a.77.77 0 0 0-.423.382c-.048.099-.054.133-.054.321 0 .192.005.22.057.323a.812.812 0 0 0 .343.346c.058.028.21.069.338.091 1.467.263 2.93.982 4.23 2.079.443.375.52.412.812.397a.64.64 0 0 0 .491-.231c.157-.172.188-.253.188-.505.001-.329-.057-.42-.519-.806-1.482-1.24-3.152-2.067-4.809-2.383-.316-.06-.509-.064-.654-.014Zm-1.609 7.482c-.318.058-.732.231-.958.4a2.936 2.936 0 0 0-.484.481 2.71 2.71 0 0 0-.37.77c-.052.185-.056.227-.056.57 0 .343.004.385.056.57.067.244.236.595.37.77.118.155.332.367.484.481.164.122.523.292.75.353.183.049.231.054.57.054.338 0 .387-.005.567-.053.228-.062.547-.211.732-.341a2.69 2.69 0 0 0 .543-.549c.137-.198.27-.484.333-.719.048-.179.053-.228.053-.566 0-.339-.005-.387-.054-.57a2.68 2.68 0 0 0-.37-.77 2.936 2.936 0 0 0-.484-.481 2.795 2.795 0 0 0-.74-.35c-.162-.045-.239-.054-.52-.06a3.494 3.494 0 0 0-.422.01Zm.582 1.505a.753.753 0 0 1 .518.607.746.746 0 0 1-1.476.218.75.75 0 0 1 .958-.825Z" clip-rule="evenodd"/>
</svg>
