<svg xmlns="http://www.w3.org/2000/svg" width="24" height="24" fill="none" viewBox="0 0 24 24">
  <path fill="#161C24" fill-rule="evenodd" d="M12.01 1.782A3.785 3.785 0 0 0 9.295 3.56a4.1 4.1 0 0 0-.443 1.07c-.09.366-.092.406-.092 3.043v2.497l-2.94 2.94a297.346 297.346 0 0 0-3.107 3.13c-.437.503-.698 1.007-.83 1.602a3.72 3.72 0 0 0 .02 1.667 3.59 3.59 0 0 0 2.587 2.588 3.776 3.776 0 0 0 1.753.002c.502-.128.96-.358 1.387-.696.077-.061 1.503-1.472 3.17-3.136l3.03-3.026 2.59-.006 2.59-.006.241-.054a4.047 4.047 0 0 0 1.19-.47 3.773 3.773 0 0 0 1.768-2.668c.027-.186.031-.641.031-3.69 0-3.689.003-3.534-.094-3.717a.881.881 0 0 0-.336-.311c-.087-.043-.128-.05-.31-.05-.358 0-.164-.166-2.45 2.112-1.703 1.698-2.016 2-2.11 2.046-.422.2-.847.129-1.172-.195-.324-.325-.395-.749-.195-1.172.045-.094.346-.404 2.037-2.1 1.318-1.322 2-2.02 2.033-2.081a.731.731 0 0 0 .093-.435.646.646 0 0 0-.2-.456.948.948 0 0 0-.21-.16l-.116-.058-3.54-.003c-1.947-.001-3.594.005-3.66.015Zm3.868 2.773a61.284 61.284 0 0 0-1.392 1.425c-.237.315-.384.64-.478 1.06-.048.21-.048.709-.002.944.102.51.335.95.698 1.312.77.771 1.927.958 2.906.47.35-.174.432-.248 1.826-1.636l1.326-1.32-.008 2.48c-.006 2.221-.01 2.496-.04 2.629-.213.957-.906 1.631-1.854 1.804-.222.04-6.498.04-6.72 0a2.29 2.29 0 0 1-1.863-1.838c-.032-.161-.049-6.166-.018-6.539a2.202 2.202 0 0 1 .653-1.434c.371-.37.865-.605 1.368-.65.105-.01 1.252-.018 2.55-.02l2.358-.002-1.31 1.315ZM8.86 12.394c.038.171.152.487.253.704a3.79 3.79 0 0 0 1.798 1.793c.217.102.611.239.745.261.047.007.085.019.085.026 0 .007-1.15 1.161-2.555 2.564-1.685 1.683-2.595 2.577-2.67 2.627a2.085 2.085 0 0 1-3.143-1.174 2.097 2.097 0 0 1 .268-1.717c.058-.087.9-.943 2.626-2.672A231.797 231.797 0 0 1 8.82 12.27a.48.48 0 0 1 .04.124Zm-3.62 5.143c-.628.163-.933.916-.598 1.472a1.007 1.007 0 0 0 1.566.199.92.92 0 0 0 .293-.708.92.92 0 0 0-.293-.708 1.005 1.005 0 0 0-.969-.255Z" clip-rule="evenodd"/>
</svg>
