<svg xmlns="http://www.w3.org/2000/svg" width="24" height="24" fill="none" viewBox="0 0 24 24">
  <path fill="#161C24" d="M1.25 12.495c0-2.69 2.004-4.886 4.608-5.389C6.408 4.316 8.975 2.25 12 2.25c3.338 0 6.12 2.52 6.244 5.748 2.52.344 4.506 2.41 4.506 4.972 0 2.213-1.488 4.062-3.512 4.74a.75.75 0 0 1-.476-1.42c1.471-.495 2.488-1.812 2.488-3.32 0-1.722-1.335-3.203-3.143-3.478a5.85 5.85 0 0 1-1.298 2.546l-1.132-.984a4.313 4.313 0 0 0 1.053-2.427l.015-.201c.003-.068.005-.135.005-.203 0-2.434-2.09-4.473-4.75-4.473-2.203 0-4.019 1.4-4.575 3.263a5.893 5.893 0 0 1 2.828.949l.184.125.06.048A.75.75 0 0 1 9.63 9.35l-.066-.042-.274-.18a4.42 4.42 0 0 0-2.497-.626l-.205.015c-2.186.197-3.838 1.933-3.838 3.978 0 1.21.573 2.305 1.496 3.045l.19.144.06.046a.75.75 0 0 1-.867 1.216l-.065-.042-.255-.193c-1.25-1.002-2.059-2.514-2.059-4.216Zm15.559-.457a.75.75 0 0 1-1.132-.984l1.132.984Z"/>
  <path fill="#161C24" d="M8.39 13.064a.75.75 0 0 1 1.295.74l-.034.068-1.358 2.378H10a.75.75 0 0 1 .694 1.033l-.043.09-2 3.5a.75.75 0 0 1-1.303-.745l1.359-2.378H7a.75.75 0 0 1-.652-1.122l2-3.5.042-.064Zm4.477 4.034a.75.75 0 0 1 1.334.667l-.03.07-1.5 3a.75.75 0 0 1-1.342-.67l1.5-3 .038-.067Zm3 0a.75.75 0 0 1 1.334.667l-.03.07-1.5 3a.75.75 0 0 1-1.342-.67l1.5-3 .038-.067Z"/>
</svg>
