<svg xmlns="http://www.w3.org/2000/svg" width="24" height="24" fill="none" viewBox="0 0 24 24">
  <path fill="#161C24" d="M1.25 12.667c0-2.721 1.995-4.96 4.606-5.473C6.401 4.364 8.962 2.25 12 2.25c3.354 0 6.127 2.579 6.244 5.852 2.53.35 4.506 2.457 4.506 5.048 0 2.84-2.375 5.1-5.25 5.1a.75.75 0 0 1 0-1.5c2.095 0 3.75-1.635 3.75-3.6 0-1.77-1.343-3.273-3.14-3.553a5.977 5.977 0 0 1-1.296 2.59.75.75 0 0 1-1.141-.974c.59-.69.97-1.547 1.057-2.483l.015-.206c.003-.068.005-.138.005-.208 0-2.498-2.102-4.566-4.75-4.566-2.2 0-4.027 1.431-4.58 3.349a5.833 5.833 0 0 1 2.839.966l.182.128.06.048a.75.75 0 0 1-.877 1.208l-.064-.042-.275-.183a4.353 4.353 0 0 0-2.492-.636l-.204.015c-2.175.2-3.839 1.963-3.839 4.064 0 2.231 1.879 4.083 4.25 4.083a.75.75 0 0 1 0 1.5c-3.151 0-5.75-2.476-5.75-5.583Z"/>
  <path fill="#161C24" d="M11.89 13.564a.75.75 0 0 1 1.295.74l-.034.068-1.358 2.378H13.5a.752.752 0 0 1 .695 1.033l-.044.09-2 3.5a.75.75 0 0 1-1.303-.745l1.36-2.378H10.5a.75.75 0 0 1-.652-1.122l2-3.5.042-.064Z"/>
</svg>
