<svg xmlns="http://www.w3.org/2000/svg" width="24" height="24" fill="none" viewBox="0 0 24 24">
  <path fill="#161C24" d="M11.25 4.96c0-.654-.546-1.21-1.25-1.21s-1.25.556-1.25 1.21a.75.75 0 1 1-1.5 0c0-1.51 1.245-2.71 2.75-2.71s2.75 1.2 2.75 2.71c0 .435-.104.846-.288 1.21l-.084.152c-.383.65-1.045 1.194-1.816 1.595a7.644 7.644 0 0 1-2.743.793c-1.91.19-4.117-.274-5.977-1.894l-.367-.34-.052-.055a.75.75 0 0 1 1.045-1.066l.057.051.298.276c1.509 1.314 3.288 1.69 4.848 1.536a6.146 6.146 0 0 0 2.2-.632c.614-.32 1.02-.695 1.216-1.025l.07-.138c.06-.142.093-.298.093-.462Zm10 3.968c0-1.319-.89-2.178-1.75-2.178s-1.75.86-1.75 2.178a.75.75 0 0 1-1.5 0c0-1.916 1.349-3.678 3.25-3.678 1.902 0 3.25 1.762 3.25 3.678 0 .849-.257 1.64-.696 2.273v.001c-.668 1.093-1.918 1.717-3.304 2.074-1.407.363-3.097.488-4.846.473-3.064-.026-6.425-.483-9-.955l-1.051-.202-.075-.02a.75.75 0 0 1 .294-1.463l.076.012 1.033.198c2.522.463 5.789.905 8.736.93 1.687.014 3.231-.11 4.46-.426 1.247-.321 2.032-.806 2.398-1.403l.03-.046c.272-.378.445-.882.445-1.446Zm-6 10.403c0-.189-.047-.36-.123-.5l-.006-.012c-.224-.431-.722-.906-1.519-1.299-.785-.387-1.81-.667-2.992-.747-2.359-.159-5.307.486-8.163 2.604a.75.75 0 0 1-.894-1.205c3.143-2.332 6.445-3.078 9.158-2.896 1.353.092 2.572.415 3.554.9.972.479 1.768 1.143 2.188 1.952h-.001c.19.358.298.77.298 1.203 0 1.259-.934 2.419-2.25 2.419-1.032 0-1.842-.729-2.13-1.636l.715-.226.715-.228c.123.39.426.59.7.59.34 0 .75-.334.75-.919Zm-2.392-.158a.75.75 0 0 1 .942.487l-1.43.454a.75.75 0 0 1 .488-.941ZM21 14.75a.75.75 0 0 1 0 1.5h-2a.75.75 0 0 1 0-1.5h2Z"/>
</svg>
