<svg xmlns="http://www.w3.org/2000/svg" width="24" height="24" fill="none" viewBox="0 0 24 24">
  <path fill="#161C24" d="M19.75 13.5c0-2.498-1.401-4.823-3.128-6.726-1.5-1.652-3.175-2.909-4.161-3.583l-.378-.253a.142.142 0 0 0-.125-.02l-.041.02c-.882.577-2.825 1.948-4.54 3.836C5.652 8.677 4.25 11.002 4.25 13.5a7.75 7.75 0 0 0 15.5 0Zm1.5 0a9.25 9.25 0 0 1-18.5 0c0-3.05 1.695-5.726 3.518-7.735 1.835-2.022 3.895-3.472 4.828-4.082l.105-.063a1.641 1.641 0 0 1 1.703.063l.4.268c1.044.714 2.822 2.045 4.428 3.814 1.823 2.009 3.518 4.685 3.518 7.735Z"/>
  <path fill="#161C24" d="M4.108 11.476c1.737-.432 4.716-.41 8.244 1.572l.31.168c3.19 1.662 5.728.989 6.961.271a.75.75 0 0 1 .754 1.297c-1.642.955-4.724 1.68-8.402-.235l-.358-.193C8.194 12.433 5.48 12.61 4.222 13l-.075.02a.75.75 0 0 1-.369-1.452l.33-.092Z"/>
</svg>
