<svg xmlns="http://www.w3.org/2000/svg" width="24" height="24" fill="none" viewBox="0 0 24 24">
  <path fill="#161C24" d="M15 1.25a.75.75 0 0 1 .731.585l.18.732c.436 1.635 1 2.768 1.82 3.606.937.955 2.291 1.613 4.434 2.096a.75.75 0 0 1 0 1.462c-2.037.46-3.38 1.063-4.338 2-.896.878-1.53 2.124-2.003 4.042l-.093.392a.75.75 0 0 1-1.462 0c-.46-2.037-1.063-3.38-2-4.338-.937-.955-2.292-1.613-4.434-2.096a.75.75 0 0 1 0-1.462c2.142-.483 3.497-1.14 4.434-2.096.937-.957 1.54-2.3 2-4.338l.039-.123A.75.75 0 0 1 15 1.25Zm0 3.342c-.415 1.03-.945 1.901-1.66 2.63-.742.758-1.65 1.33-2.759 1.778 1.108.448 2.017 1.02 2.759 1.777.716.731 1.246 1.605 1.662 2.636.448-1.106 1.02-2.012 1.775-2.753.731-.716 1.604-1.247 2.636-1.663-1.105-.448-2.012-1.019-2.753-1.774-.715-.73-1.245-1.602-1.66-2.631ZM7 11.25a.75.75 0 0 1 .731.585l.134.54c.324 1.197.743 1.971 1.304 2.52.643.63 1.557 1.05 2.996 1.374l.123.039a.75.75 0 0 1-.123 1.423c-1.51.34-2.433.797-3.06 1.438-.63.643-1.05 1.557-1.374 2.996a.75.75 0 0 1-1.462 0c-.34-1.51-.797-2.433-1.438-3.06-.562-.551-1.333-.942-2.48-1.248l-.516-.126a.75.75 0 0 1 0-1.462c1.51-.34 2.433-.797 3.06-1.438.63-.643 1.05-1.557 1.374-2.996l.039-.123A.75.75 0 0 1 7 11.25Zm.001 3.128a5.56 5.56 0 0 1-1.034 1.503c-.448.457-.975.82-1.59 1.117a5.56 5.56 0 0 1 1.504 1.035c.457.448.82.974 1.117 1.588a5.56 5.56 0 0 1 1.035-1.502 5.58 5.58 0 0 1 1.588-1.118 5.558 5.558 0 0 1-1.502-1.034 5.58 5.58 0 0 1-1.118-1.59Z"/>
</svg>
