<svg xmlns="http://www.w3.org/2000/svg" width="24" height="24" fill="none" viewBox="0 0 24 24">
  <path fill="#161C24" d="M16.25 12a4.25 4.25 0 1 0-8.5 0 4.25 4.25 0 0 0 8.5 0Zm1.5 0a5.75 5.75 0 1 1-11.5 0 5.75 5.75 0 0 1 11.5 0Zm-6.312 7.004a.75.75 0 0 1 .998-.114l.06.047.142.145c.133.154.243.338.327.516.118.251.215.552.26.875.088.647-.032 1.474-.729 2.09a.75.75 0 0 1-.992-1.126c.208-.184.278-.44.234-.76a1.543 1.543 0 0 0-.13-.439.995.995 0 0 0-.08-.142l-.024-.034-.056-.053a.75.75 0 0 1-.01-1.005Zm-4.787-2.45a.75.75 0 0 1 .786.627l.01.076-.003.2a2.311 2.311 0 0 1-.133.598 3.04 3.04 0 0 1-.436.802c-.37.487-.98.958-1.82.967l-.171-.005-.076-.009a.75.75 0 0 1 .169-1.488c.277.017.508-.115.704-.372a1.55 1.55 0 0 0 .217-.401.933.933 0 0 0 .044-.159l.007-.04v-.078a.75.75 0 0 1 .702-.717Zm10.605 0c.928-.057 1.596.444 1.991.963.197.26.342.54.436.802.089.248.153.533.136.798a.751.751 0 0 1-1.498-.092c-.001-.01-.007-.078-.05-.199a1.537 1.537 0 0 0-.218-.401c-.196-.258-.427-.39-.704-.373h-.077a.75.75 0 0 1-.016-1.497Zm-13.319-5.05a.75.75 0 0 1 1.125.992 2.07 2.07 0 0 1-.66.469 3.038 3.038 0 0 1-.876.26c-.606.082-1.37-.018-1.97-.605l-.119-.124-.047-.06a.751.751 0 0 1 1.119-.988l.053.056.073.071c.177.152.408.201.688.163.16-.022.315-.071.439-.13.112-.053.165-.096.175-.104Zm17.09-.729c.323.044.623.142.874.26.179.084.362.194.517.327l.145.142.047.06a.75.75 0 0 1-1.119.988l-.053-.056-.034-.024a.995.995 0 0 0-.142-.08 1.543 1.543 0 0 0-.439-.13c-.32-.044-.576.026-.76.234a.75.75 0 0 1-1.125-.992c.615-.697 1.442-.817 2.088-.729Zm-1.91-6.595a.75.75 0 1 1-.092 1.498.783.783 0 0 0-.199.05 1.54 1.54 0 0 0-.401.218c-.257.195-.39.427-.373.704a.75.75 0 0 1-1.497.093c-.058-.928.443-1.596.962-1.991.26-.198.541-.342.802-.436.248-.089.533-.152.798-.136Zm-14.143 0a.75.75 0 0 1 .702.795v.102c.017.233.147.432.372.602.128.098.272.172.401.218.142.051.213.05.2.051a.75.75 0 0 1 .092 1.497l-.201-.002a2.311 2.311 0 0 1-.598-.134 3.042 3.042 0 0 1-.801-.435c-.52-.395-1.02-1.063-.962-1.991l.008-.077a.75.75 0 0 1 .787-.626Zm6.529-2.743a.75.75 0 0 1 .992 1.125.888.888 0 0 0-.104.176 1.543 1.543 0 0 0-.13.439c-.039.28.01.511.163.688l.071.072.056.054a.75.75 0 0 1-.989 1.12l-.06-.049-.123-.118c-.587-.6-.687-1.364-.605-1.97.044-.324.142-.625.26-.876a2.07 2.07 0 0 1 .469-.66Z"/>
</svg>
