<svg xmlns="http://www.w3.org/2000/svg" width="24" height="24" fill="none" viewBox="0 0 24 24">
  <path fill="#161C24" d="M18.75 4a1.25 1.25 0 1 0-2.5 0v10.535a.75.75 0 0 1-.374.65 3.25 3.25 0 1 0 3.248 0 .75.75 0 0 1-.374-.65V4Zm1.5 10.129a4.75 4.75 0 1 1-5.5 0V4a2.75 2.75 0 1 1 5.5 0v10.129ZM8.25 18v-1.69l-.72.72a.75.75 0 1 1-1.06-1.06l1.78-1.78v-1.94H6.31l-1.78 1.78a.75.75 0 1 1-1.06-1.06l.72-.72H2.5a.75.75 0 0 1 0-1.5h1.69l-.72-.72-.052-.056a.75.75 0 0 1 1.056-1.056l.056.052 1.78 1.78h1.94V8.31L6.47 6.53l-.052-.056a.75.75 0 0 1 1.056-1.056l.056.052.72.72V4.5a.75.75 0 0 1 1.5 0v1.69l.72-.72.056-.052A.75.75 0 0 1 11.53 6.53L9.75 8.31v2.44h1.75a.75.75 0 0 1 0 1.5H9.75v1.94l1.78 1.78.052.056a.75.75 0 0 1-1.056 1.056l-.056-.052-.72-.72V18a.75.75 0 0 1-1.5 0Z"/>
</svg>
