<svg xmlns="http://www.w3.org/2000/svg" width="24" height="24" fill="none" viewBox="0 0 24 24">
  <path fill="#161C24" fill-rule="evenodd" d="M1 5a3 3 0 0 1 3-3h16a3 3 0 0 1 3 3v11a3 3 0 0 1-3 3 1 1 0 1 1 0-2 1 1 0 0 0 1-1V5a1 1 0 0 0-1-1H4a1 1 0 0 0-1 1v11a1 1 0 0 0 1 1 1 1 0 1 1 0 2 3 3 0 0 1-3-3V5Z" clip-rule="evenodd"/>
  <path fill="#161C24" fill-rule="evenodd" d="M5.75 21c0-3.241 2.867-5.75 6.25-5.75s6.25 2.509 6.25 5.75a.75.75 0 0 1-.75.75h-11a.75.75 0 0 1-.75-.75Zm3-10a3.25 3.25 0 1 1 6.5 0 3.25 3.25 0 0 1-6.5 0Z" clip-rule="evenodd"/>
</svg>
