<svg xmlns="http://www.w3.org/2000/svg" width="24" height="24" fill="none" viewBox="0 0 24 24">
  <path fill="#161C24" fill-rule="evenodd" d="M5.25 6a4.75 4.75 0 1 1 9.5 0 4.75 4.75 0 0 1-9.5 0Zm13.72 7.47a.75.75 0 0 1 1.06 0l2.5 2.5a.75.75 0 0 1 0 1.06l-5.5 5.5a.75.75 0 0 1-.53.22H14a.75.75 0 0 1-.75-.75v-2.5a.75.75 0 0 1 .22-.53l5.5-5.5Z" clip-rule="evenodd"/>
  <path fill="#161C24" d="M16.128 14.19A7.72 7.72 0 0 0 11 12.25H9A7.75 7.75 0 0 0 1.25 20c0 .414.336.75.75.75h9.75V19.5c0-.597.237-1.169.659-1.591l3.72-3.72Z"/>
</svg>
