<svg xmlns="http://www.w3.org/2000/svg" width="24" height="24" fill="none" viewBox="0 0 24 24">
  <path fill="#161C24" fill-rule="evenodd" d="M4.5 1.75A2.75 2.75 0 0 0 1.75 4.5v15a2.75 2.75 0 0 0 2.75 2.75h15a2.75 2.75 0 0 0 2.75-2.75v-15a2.75 2.75 0 0 0-2.75-2.75h-15Zm7.492 4.5A3.252 3.252 0 0 0 8.738 9.5a3.252 3.252 0 0 0 3.254 3.25 3.252 3.252 0 0 0 3.253-3.25 3.252 3.252 0 0 0-3.253-3.25Zm5.06 10.242c-2.668-2.895-7.481-2.747-10.094-.01A.75.75 0 0 0 7.5 17.75h9a.75.75 0 0 0 .552-1.258Z" clip-rule="evenodd"/>
</svg>
