<svg xmlns="http://www.w3.org/2000/svg" width="24" height="24" fill="none" viewBox="0 0 24 24">
  <path fill="#161C24" fill-rule="evenodd" d="M9.605 3.61a4.999 4.999 0 0 0-1.784 7.136A3.75 3.75 0 1 1 9.605 3.61Zm-1.324 8.64A6.003 6.003 0 0 0 4 18v1.75H2a.75.75 0 0 1-.75-.75v-2A4.75 4.75 0 0 1 6 12.25h2.28Zm3.719-8a3.75 3.75 0 1 0 0 7.5 3.75 3.75 0 0 0 0-7.5Zm-2 9A4.75 4.75 0 0 0 5.25 18v2c0 .414.336.75.75.75h12a.75.75 0 0 0 .75-.75v-2A4.75 4.75 0 0 0 14 13.25h-4ZM19.75 7a3.75 3.75 0 0 1-3.57 3.746 4.999 4.999 0 0 0-1.784-7.136A3.75 3.75 0 0 1 19.75 7ZM22 19.75h-2V18a6.003 6.003 0 0 0-4.28-5.75H18A4.75 4.75 0 0 1 22.75 17v2a.75.75 0 0 1-.75.75Z" clip-rule="evenodd"/>
</svg>
