<svg xmlns="http://www.w3.org/2000/svg" width="24" height="24" fill="none" viewBox="0 0 24 24">
  <path fill="#161C24" fill-rule="evenodd" d="M11 2a1 1 0 0 1 1-1c6.076 0 11 4.926 11 11s-4.924 11-11 11a1 1 0 1 1 0-2 9 9 0 0 0 9-9 9 9 0 0 0-9-9 1 1 0 0 1-1-1Zm-1.053.178a1 1 0 0 1-.624 1.269 10.33 10.33 0 0 0-2.987 1.598A1 1 0 1 1 5.11 3.464a12.328 12.328 0 0 1 3.567-1.91 1 1 0 0 1 1.269.624ZM3.825 6.092a1 1 0 0 1 .32 1.377 8.624 8.624 0 0 0-1.162 2.96 1 1 0 0 1-1.966-.366c.24-1.286.731-2.526 1.43-3.65a1 1 0 0 1 1.378-.321Zm-2.008 6.68a1 1 0 0 1 1.166.799 8.624 8.624 0 0 0 1.163 2.96 1 1 0 0 1-1.699 1.057 10.624 10.624 0 0 1-1.43-3.65 1 1 0 0 1 .8-1.167Zm3.12 6.356a1 1 0 0 1 1.404-.168c.875.688 1.89 1.222 2.982 1.594a1 1 0 1 1-.645 1.893 12.063 12.063 0 0 1-3.573-1.915 1 1 0 0 1-.168-1.404Z" clip-rule="evenodd"/>
  <path fill="#161C24" fill-rule="evenodd" d="M9.017 9.75c0-1.65 1.324-3 2.976-3 1.65 0 2.975 1.35 2.975 3s-1.325 3-2.976 3c-1.65 0-2.975-1.35-2.975-3Zm-1.563 6.236c2.355-2.497 6.695-2.634 9.1.01A.75.75 0 0 1 16 17.25H8a.75.75 0 0 1-.546-1.264Z" clip-rule="evenodd"/>
</svg>
