<svg xmlns="http://www.w3.org/2000/svg" width="24" height="24" fill="none" viewBox="0 0 24 24">
  <path fill="#161C24" d="m12.13 10 1.658-1.659A.2.2 0 0 0 13.647 8h-3.518c-1 0-2 1-2 2v3l-5.384 5.41a2.103 2.103 0 1 0 2.975 2.974L11.13 16h3c1 0 2-1 2-2v-3.516a.2.2 0 0 0-.342-.142L14.129 12a1.423 1.423 0 0 1-2 0 1.423 1.423 0 0 1 0-2Z"/>
  <path fill="#161C24" fill-rule="evenodd" d="M8.952 2.368A2 2 0 0 1 10.85 1h2.558a2 2 0 0 1 1.897 1.368l.66 1.977.898.568L19 4.384a2 2 0 0 1 2.2.92l1.39 2.338a2 2 0 0 1-.309 2.44l-1.512 1.505v.826l1.511 1.505a2 2 0 0 1 .308 2.44l-1.39 2.338a2 2 0 0 1-2.2.92l-2.167-.537-.774.435-.592 2.042A2 2 0 0 1 13.545 23h-2.862a2 2 0 0 1-1.898-1.368l-.105-.316a1 1 0 0 1 1.898-.632l.105.316h2.862l.705-2.436a1 1 0 0 1 .472-.594l1.476-.829a1 1 0 0 1 .73-.098l2.552.631 1.39-2.338-1.806-1.799a1 1 0 0 1-.294-.709v-1.657a1 1 0 0 1 .295-.708l1.806-1.799-1.39-2.338-2.552.631a1 1 0 0 1-.775-.125l-1.56-.987a1 1 0 0 1-.414-.529L13.408 3H10.85l-.773 2.316a1 1 0 0 1-.414.53l-1.56.986a1 1 0 0 1-.774.125l-2.553-.631L3.412 8.62l1.79 1.576a1 1 0 0 1 .34.75v2.106a1 1 0 0 1-.34.75L2.79 15.927a1 1 0 0 1-1.321-1.5L3.542 12.6v-1.202L2.09 10.122A2 2 0 0 1 1.693 7.6l1.364-2.295a2 2 0 0 1 2.2-.92l2.138.53.898-.569.66-1.977Z" clip-rule="evenodd"/>
</svg>
