<svg xmlns="http://www.w3.org/2000/svg" width="24" height="24" fill="none" viewBox="0 0 24 24">
  <path fill="#161C24" fill-rule="evenodd" d="M2.5 7a1 1 0 0 1 1-1H6a1 1 0 0 1 0 2H3.5a1 1 0 0 1-1-1Zm0 10a1 1 0 0 1 1-1h5a1 1 0 1 1 0 2h-5a1 1 0 0 1-1-1Zm18 1H18a1 1 0 1 1 0-2h2.5a1 1 0 1 1 0 2Zm0-10h-5a1 1 0 1 1 0-2h5a1 1 0 1 1 0 2Z" clip-rule="evenodd"/>
  <path fill="#161C24" fill-rule="evenodd" d="M5.25 5c0-.966.784-1.75 1.75-1.75h4c.966 0 1.75.784 1.75 1.75v4A1.75 1.75 0 0 1 11 10.75H7A1.75 1.75 0 0 1 5.25 9V5Zm6 10c0-.966.784-1.75 1.75-1.75h4c.966 0 1.75.784 1.75 1.75v4A1.75 1.75 0 0 1 17 20.75h-4A1.75 1.75 0 0 1 11.25 19v-4Z" clip-rule="evenodd"/>
</svg>
