<svg xmlns="http://www.w3.org/2000/svg" width="24" height="24" fill="none" viewBox="0 0 24 24">
  <path fill="#161C24" fill-rule="evenodd" d="M4.5 1.75A2.75 2.75 0 0 0 1.75 4.5v15a2.75 2.75 0 0 0 2.75 2.75h15a2.75 2.75 0 0 0 2.75-2.75v-15a2.75 2.75 0 0 0-2.75-2.75h-15Zm7.492 9a1.25 1.25 0 1 0 0 2.5h.01a1.25 1.25 0 0 0 0-2.5h-.01ZM14.746 12c0-.69.56-1.25 1.25-1.25h.01a1.25 1.25 0 0 1 0 2.5h-.01c-.69 0-1.25-.56-1.25-1.25Zm-6.75-1.25a1.25 1.25 0 1 0 0 2.5h.01a1.25 1.25 0 1 0 0-2.5h-.01Z" clip-rule="evenodd"/>
</svg>
