<svg xmlns="http://www.w3.org/2000/svg" width="24" height="24" fill="none" viewBox="0 0 24 24">
  <path fill="#161C24" fill-rule="evenodd" d="M14.495 3.495a4.244 4.244 0 0 1 3.574-1.207.75.75 0 0 1 .43 1.274L17 5.06V7h1.94l1.498-1.499a.75.75 0 0 1 1.274.43 4.248 4.248 0 0 1-5.267 4.686l-5.828 5.828a4.248 4.248 0 0 1-1.112 4.06 4.244 4.244 0 0 1-3.574 1.207.75.75 0 0 1-.43-1.274L7 18.94V17H5.06l-1.498 1.5a.75.75 0 0 1-1.274-.43 4.244 4.244 0 0 1 1.207-3.574 4.248 4.248 0 0 1 4.063-1.112l5.825-5.825a4.248 4.248 0 0 1 1.112-4.063ZM3.97 2.97a.75.75 0 0 1 .865-.14l3 1.5a.75.75 0 0 1 .195 1.2l-.543.543 2.807 2.807-1.414 1.414-2.807-2.807-.543.543a.75.75 0 0 1-1.2-.195l-1.5-3a.75.75 0 0 1 .14-.865l1-1Zm12.9 17.665-4.337-4.338 3.764-3.763 4.337 4.337c.82.82.82 2.151 0 2.972l-.792.792c-.82.82-2.15.82-2.972 0Z" clip-rule="evenodd"/>
</svg>
