<svg xmlns="http://www.w3.org/2000/svg" width="24" height="24" fill="none" viewBox="0 0 24 24">
  <path fill="#161C24" fill-rule="evenodd" d="M4.26 2.283c-.871.059-2.331.31-2.602.448a.77.77 0 0 0-.33.34l-.058.119v14.92l.068.125a.74.74 0 0 0 .6.4c.105.008.208-.007.502-.072a11.676 11.676 0 0 1 2.7-.306c1.082 0 1.967.122 2.92.401 1.281.375 2.493 1.029 3.328 1.795.098.09.229.189.29.22.102.052.131.057.322.057.192 0 .22-.005.325-.058.063-.032.194-.131.29-.22.221-.205.395-.343.685-.544 2.082-1.445 4.751-1.963 7.6-1.476.159.027.457.086.66.131.294.065.397.08.502.072a.748.748 0 0 0 .61-.419l.058-.126V3.19l-.058-.119a.77.77 0 0 0-.33-.34c-.197-.1-1.247-.305-1.992-.389a13.267 13.267 0 0 0-3.126.018c-1.891.251-3.696.976-5.109 2.055L12 4.502l-.115-.087C10.466 3.334 8.668 2.611 6.776 2.36a14.642 14.642 0 0 0-2.516-.077Zm1.81 1.509c1.708.138 3.313.699 4.63 1.616.228.159.464.339.527.402.03.03.033.517.033 6.341 0 3.47-.006 6.309-.012 6.309a3.61 3.61 0 0 1-.255-.146c-1.697-1.024-3.681-1.553-5.826-1.554-.76 0-1.447.052-2.102.16a4.04 4.04 0 0 1-.28.04H2.74v-6.478c0-5.678.004-6.479.029-6.489.017-.006.194-.039.395-.072a11.45 11.45 0 0 1 2.906-.129Zm13.6-.01c.154.011.397.033.54.049.263.03.966.141 1.021.162.025.01.029.811.029 6.489v6.478h-.045a4.04 4.04 0 0 1-.28-.04 13.414 13.414 0 0 0-3.711-.06 11.004 11.004 0 0 0-4.217 1.454 3.61 3.61 0 0 1-.255.146c-.006 0-.012-2.839-.012-6.309 0-5.824.003-6.311.033-6.341.066-.066.302-.247.527-.402 1.77-1.229 3.996-1.797 6.37-1.626ZM4.77 6.286a.83.83 0 0 0-.45.404.871.871 0 0 0-.024.566.79.79 0 0 0 .44.444c.079.03.194.042.586.058.975.041 1.663.176 2.396.471.121.049.412.181.646.295l.426.206.21-.001c.188 0 .221-.006.321-.055a.854.854 0 0 0 .353-.354c.051-.1.056-.129.056-.32-.001-.19-.006-.221-.057-.324-.098-.196-.221-.292-.646-.498-1.078-.522-1.845-.751-2.91-.868-.401-.044-1.241-.059-1.347-.024Zm-.012 4.002a.857.857 0 0 0-.439.402c-.043.087-.049.127-.049.31 0 .192.005.22.058.325.07.137.224.289.36.354.084.041.144.05.41.064 1.109.058 1.548.124 2.184.329.356.115.576.206 1.088.455l.42.203H9c.189-.001.221-.006.321-.056a.854.854 0 0 0 .353-.354c.051-.1.056-.129.056-.32 0-.19-.005-.221-.057-.326-.108-.219-.216-.296-.825-.582-.988-.464-1.689-.665-2.728-.783-.388-.045-1.267-.058-1.362-.021Z" clip-rule="evenodd"/>
</svg>
