<svg xmlns="http://www.w3.org/2000/svg" width="24" height="24" fill="none" viewBox="0 0 24 24">
  <path fill="#161C24" fill-rule="evenodd" d="M5.58 1.29a2.75 2.75 0 0 0-2.19 1.94c-.117.404-.109-.162-.123 8.78-.013 9.021-.02 8.347.103 8.78.067.235.262.63.415.836a2.787 2.787 0 0 0 1.771 1.085c.17.026.673.03 3.924.025l3.73-.006.123-.064c.108-.056.598-.538 3.706-3.64 3.277-3.272 3.586-3.586 3.636-3.696l.055-.12.006-5.69c.005-4.174 0-5.738-.017-5.87a2.726 2.726 0 0 0-1.209-1.94 2.88 2.88 0 0 0-.95-.403c-.142-.034-.47-.036-6.49-.04-5.099-.002-6.369.002-6.49.023Zm12.792 1.515c.371.126.676.418.811.781l.047.124.005 5.275.005 5.275h-2.255c-2.446 0-2.382-.002-2.78.111a3.402 3.402 0 0 0-.729.343c-.592.396-.994.99-1.169 1.726-.032.138-.036.338-.046 2.48l-.01 2.33-3.15.005c-2.69.005-3.176.001-3.32-.024a1.271 1.271 0 0 1-.992-.91c-.033-.124-.035-.54-.03-7.27.003-3.928.012-7.63.02-8.23.013-1.068.014-1.094.06-1.22a1.278 1.278 0 0 1 1.031-.842c.066-.008 2.87-.013 6.23-.01l6.11.001.162.055ZM7.758 6.29a.845.845 0 0 0-.439.401c-.043.087-.049.127-.049.31 0 .192.005.22.058.325.07.137.223.288.362.356l.1.05h8.42l.115-.059a.899.899 0 0 0 .356-.362c.043-.087.05-.128.05-.31s-.007-.223-.05-.31a.899.899 0 0 0-.356-.362l-.115-.058-4.19-.004c-3.45-.003-4.203.001-4.262.023Zm0 4a.85.85 0 0 0-.439.401c-.043.087-.049.127-.049.31 0 .192.005.22.058.325.07.137.223.288.362.356l.1.05h4.42l.1-.05a.899.899 0 0 0 .362-.356c.053-.105.058-.133.058-.325s-.005-.22-.058-.325a.899.899 0 0 0-.362-.356l-.1-.049-2.19-.004c-1.787-.003-2.203.001-2.262.023Zm10.422 5.466c0 .014-3.45 3.465-4.146 4.145l-.296.29.007-1.7c.008-1.89 0-1.77.148-2.07.053-.108.115-.19.225-.3.213-.21.444-.326.722-.359.168-.02 3.34-.026 3.34-.006Z" clip-rule="evenodd"/>
</svg>
