<svg xmlns="http://www.w3.org/2000/svg" width="24" height="24" fill="none" viewBox="0 0 24 24">
  <path fill="#161C24" fill-rule="evenodd" d="M5.54 1.292a2.994 2.994 0 0 0-1.064.422A2.767 2.767 0 0 0 3.29 3.555C3.264 3.71 3.26 4.66 3.26 12c0 9.034-.008 8.377.11 8.795.057.193.225.552.344.73a2.767 2.767 0 0 0 1.84 1.184c.156.027.902.031 6.436.031 6.81 0 6.393.007 6.8-.11a3.42 3.42 0 0 0 .74-.347 2.777 2.777 0 0 0 1.179-1.838c.027-.154.03-.843.03-5.875 0-4.533-.005-5.716-.025-5.78a1.443 1.443 0 0 0-.071-.17c-.033-.064-1.076-1.119-3.62-3.66-3.155-3.154-3.587-3.578-3.693-3.631l-.12-.059-3.76-.003c-3.106-.002-3.786.002-3.91.025Zm6.72 3.788c.013 2.573.004 2.392.142 2.808a2.76 2.76 0 0 0 1.708 1.709c.419.14.236.13 2.81.142l2.33.011v5.21c0 4.311-.005 5.23-.027 5.32a1.3 1.3 0 0 1-.667.837c-.303.144.253.133-6.556.133-5.117 0-6.19-.005-6.28-.027a1.3 1.3 0 0 1-.943-.943c-.04-.164-.04-16.396 0-16.56a1.274 1.274 0 0 1 1.063-.959 173.55 173.55 0 0 1 3.27-.013l3.14.002.01 2.33Zm5.745 3.176c-.096.003-.86.003-1.695 0-1.687-.009-1.593-.002-1.887-.148a1.318 1.318 0 0 1-.531-.531c-.147-.297-.14-.179-.147-2.067l-.006-1.7 2.22 2.22 2.22 2.22-.174.006ZM7.758 12.29a.85.85 0 0 0-.44.401c-.042.087-.048.127-.048.31 0 .192.005.22.058.325.07.137.223.288.362.356l.1.05h4.42l.1-.05a.899.899 0 0 0 .362-.356c.053-.105.058-.133.058-.325s-.005-.22-.058-.325a.899.899 0 0 0-.362-.356l-.1-.049-2.19-.004c-1.787-.003-2.203.001-2.262.023Zm0 4a.845.845 0 0 0-.44.401c-.042.087-.048.127-.048.31 0 .192.005.22.058.325.07.137.223.288.362.356l.1.05h8.42l.115-.059a.899.899 0 0 0 .356-.362c.043-.087.049-.128.049-.31s-.006-.223-.05-.31a.899.899 0 0 0-.355-.362l-.115-.058-4.19-.004c-3.45-.003-4.203.001-4.262.023Z" clip-rule="evenodd"/>
</svg>
