<svg xmlns="http://www.w3.org/2000/svg" width="24" height="24" fill="none" viewBox="0 0 24 24">
  <path fill="#161C24" fill-rule="evenodd" d="M2.72 2.274c-.235.04-.52.156-.72.293a1.85 1.85 0 0 0-.685.957l-.045.146-.01 8.68c-.006 4.774-.004 8.723.004 8.776a.745.745 0 0 0 .622.611c.057.007 3.862.009 8.454.003l8.35-.01.116-.059a.824.824 0 0 0 .339-.343c.027-.054.833-2.06 1.792-4.458 1.243-3.111 1.752-4.406 1.775-4.52.025-.121.03-.223.022-.42a1.473 1.473 0 0 0-.19-.736 1.683 1.683 0 0 0-.772-.754c-.267-.133-.386-.161-.732-.177l-.29-.013-.011-1.33c-.01-1.174-.016-1.348-.047-1.48a2.835 2.835 0 0 0-.63-1.252 2.762 2.762 0 0 0-1.617-.897c-.153-.027-.667-.031-4.13-.031H10.36L9.356 4.055a61.087 61.087 0 0 0-1.11-1.31 1.85 1.85 0 0 0-.738-.43l-.138-.044-2.3-.003c-1.265-.002-2.322.001-2.35.006ZM7.164 3.79c.057.043 1.216 1.428 1.216 1.453 0 .009-.358.018-.795.021l-.795.006-.115.058a.899.899 0 0 0-.356.362c-.043.087-.05.128-.05.31s.007.223.05.31a.899.899 0 0 0 .356.362l.115.058 5.71.01c5.298.01 5.718.013 5.82.045.357.11.652.354.797.659.136.285.133.254.133 1.596v1.21l-6.46.01-6.46.01-.204.072c-.114.04-.28.119-.377.18a1.955 1.955 0 0 0-.583.599c-.046.082-.603 1.449-1.238 3.039a267.71 267.71 0 0 1-1.171 2.909c-.025.028-.022-13.041.003-13.13a.264.264 0 0 1 .172-.179c.032-.009.985-.015 2.118-.014 2.027.004 2.062.005 2.114.044Zm13.962 7.995c.078.051.12.126.118.211-.001.049-.542 1.424-1.64 4.164l-1.636 4.09-7.424.005c-4.945.003-7.424-.002-7.424-.015 0-.011.752-1.9 1.67-4.197 1.136-2.837 1.687-4.192 1.718-4.221a.316.316 0 0 1 .104-.061c.033-.01 3.22-.016 7.259-.014 6.843.003 7.203.005 7.255.038Z" clip-rule="evenodd"/>
</svg>
