<svg xmlns="http://www.w3.org/2000/svg" width="24" height="24" fill="none" viewBox="0 0 24 24">
  <path fill="#161C24" fill-rule="evenodd" d="M4.72 2.274c-.231.04-.52.156-.72.293a1.847 1.847 0 0 0-.684.957l-.046.146-.01 3.29-.01 3.29-.27.012c-.365.016-.584.077-.859.237a1.767 1.767 0 0 0-.822 1.11 1.368 1.368 0 0 0-.034.446c.009.24.062.506.853 4.341.504 2.444.863 4.14.893 4.22.111.294.353.605.62.796.144.102.411.233.579.282.114.034.49.036 7.31.041 7.975.007 7.337.017 7.666-.125.223-.095.356-.18.526-.337.164-.15.29-.317.386-.508.081-.162 2.589-8.28 2.623-8.49a2.306 2.306 0 0 0-.027-.705 1.785 1.785 0 0 0-.92-1.126c-.252-.125-.421-.166-.744-.18l-.28-.014-.011-1.33c-.01-1.174-.016-1.348-.047-1.48a2.835 2.835 0 0 0-.629-1.252 2.762 2.762 0 0 0-1.618-.897c-.152-.027-.563-.03-3.107-.03h-2.931l-.791-1.186c-.69-1.034-.81-1.203-.941-1.328a1.625 1.625 0 0 0-.546-.36c-.324-.133-.196-.127-2.905-.124a179.7 179.7 0 0 0-2.504.011Zm4.874 1.517c.056.041.982 1.398.985 1.444.001.02-.255.025-1.144.03L8.29 5.27l-.115.058a.899.899 0 0 0-.356.362c-.043.087-.049.128-.049.31s.006.223.049.31a.899.899 0 0 0 .356.362l.115.058 4.96.011c4.589.01 4.968.013 5.07.044.356.11.652.354.797.66.136.284.133.253.133 1.595v1.21H4.75l-.006-3.09c-.003-1.7 0-3.128.006-3.175.015-.103.09-.198.177-.223.037-.01.991-.017 2.337-.015 2.255.003 2.274.003 2.33.044Zm11.521 7.994a.25.25 0 0 1 .125.214c0 .072-2.44 7.997-2.494 8.1a.328.328 0 0 1-.106.11l-.07.041-6.9.006c-3.795.003-6.947 0-7.005-.007-.117-.013-.215-.08-.248-.167-.033-.086-1.66-8.007-1.661-8.085-.002-.122.083-.21.234-.244.022-.004 4.095-.007 9.05-.006 8.573.003 9.013.005 9.075.038Z" clip-rule="evenodd"/>
</svg>
