<svg xmlns="http://www.w3.org/2000/svg" width="24" height="24" fill="none" viewBox="0 0 24 24">
  <path fill="#161C24" fill-rule="evenodd" d="M16.798 3.68a1.722 1.722 0 0 0-.785.293c-.112.073-1.336 1.286-5.715 5.665-3.598 3.598-5.61 5.625-5.682 5.722-.147.2-.28.435-.358.63-.035.088-.27.979-.524 1.98-.452 1.785-.46 1.824-.463 2.03 0 .198.003.217.062.331.131.25.345.39.617.404.155.008.222-.007 2.03-.46 1.085-.272 1.937-.496 2.03-.533.197-.08.432-.213.63-.358.097-.072 2.111-2.071 5.722-5.682 4.364-4.364 5.592-5.602 5.663-5.712.221-.342.3-.6.3-.99 0-.391-.08-.653-.3-.99-.097-.146-1.427-1.507-1.804-1.844a2.016 2.016 0 0 0-.599-.387 1.976 1.976 0 0 0-.824-.099Zm1.171 2.359.861.861v.2l-.915.915L17 8.93l-.965-.965L15.07 7l.9-.902c.495-.495.918-.909.94-.919.022-.01.075-.015.12-.01.072.008.134.065.94.87ZM14.97 9.04l.96.96-4.12 4.118c-4.049 4.046-4.123 4.119-4.27 4.189-.116.056-.412.137-1.318.363-.642.16-1.17.288-1.175.283-.005-.004.123-.533.283-1.175.226-.906.307-1.202.363-1.318.07-.147.143-.221 4.184-4.265C12.14 9.932 13.994 8.08 14 8.08c.006 0 .442.432.97.96Zm-3.712 10.249a.85.85 0 0 0-.439.401c-.043.087-.049.127-.049.31 0 .192.005.22.058.325.07.137.223.288.362.356l.1.049h6.42l.1-.049a.899.899 0 0 0 .362-.356c.053-.105.058-.133.058-.325s-.005-.22-.058-.325a.899.899 0 0 0-.362-.356l-.1-.049-3.19-.004c-2.618-.003-3.203.001-3.262.023Z" clip-rule="evenodd"/>
</svg>
