<svg xmlns="http://www.w3.org/2000/svg" width="24" height="24" fill="none" viewBox="0 0 24 24">
  <path fill="#161C24" fill-rule="evenodd" d="M11.54 1.272c-.953.114-1.707.414-2.45.974a6.613 6.613 0 0 0-.844.845 4.822 4.822 0 0 0-.93 2.119c-.038.212-.044.344-.054 1.14l-.012.9-1.23.01c-1.408.011-1.316-.001-1.53.202-.213.201-.123-.319-.986 5.697l-.772 5.371v.48c0 .445.004.498.053.731a3.757 3.757 0 0 0 2.975 2.942l.23.047h12.02l.23-.047c1.363-.275 2.432-1.217 2.859-2.518.143-.435.17-.628.17-1.165l-.002-.47-.771-5.37c-.6-4.172-.781-5.391-.813-5.466a.902.902 0 0 0-.361-.369l-.112-.055-1.23-.01-1.23-.01-.012-.9c-.01-.799-.016-.927-.054-1.14a4.817 4.817 0 0 0-.91-2.09 6.107 6.107 0 0 0-.894-.895 4.776 4.776 0 0 0-2.09-.907c-.187-.033-.345-.043-.71-.048a11.295 11.295 0 0 0-.54.002Zm.89 1.51c.317.037.714.159 1.029.317a3.275 3.275 0 0 1 1.763 2.471c.017.118.026.437.027.93v.75h-6.5l.002-.75c0-.499.01-.81.027-.93a3.264 3.264 0 0 1 2.116-2.622c.506-.183.96-.232 1.536-.166Zm6.624 10.888c.387 2.706.712 5.002.722 5.103.038.389-.038.827-.205 1.18a1.935 1.935 0 0 1-.417.601 2.188 2.188 0 0 1-.931.585c-.363.118.024.111-6.223.111s-5.86.007-6.223-.111a2.23 2.23 0 0 1-.911-.561 2.175 2.175 0 0 1-.616-1.168c-.076-.378-.1-.19.678-5.63.393-2.745.717-5.001.722-5.015.007-.02 1.288-.024 6.354-.02l6.346.005.704 4.92Zm-9.796-3.382a.856.856 0 0 0-.44.402c-.09.185-.076.655.034 1.094a3.234 3.234 0 0 0 2.678 2.428 3.58 3.58 0 0 0 1.284-.07 3.252 3.252 0 0 0 2.227-2.005c.137-.373.208-.779.196-1.128-.006-.194-.014-.232-.066-.334a.89.89 0 0 0-.361-.356c-.087-.043-.128-.049-.31-.049-.248 0-.345.037-.512.194-.163.154-.21.27-.24.593-.013.15-.04.331-.057.402-.076.29-.243.569-.474.793a1.655 1.655 0 0 1-1.217.492c-.502 0-.917-.177-1.261-.537a1.543 1.543 0 0 1-.33-.474c-.091-.198-.128-.358-.16-.677-.03-.318-.063-.409-.213-.568a.93.93 0 0 0-.21-.159c-.1-.05-.14-.059-.305-.063a.785.785 0 0 0-.263.022Z" clip-rule="evenodd"/>
</svg>
