<svg xmlns="http://www.w3.org/2000/svg" width="24" height="24" fill="none" viewBox="0 0 24 24">
  <path fill="#161C24" fill-rule="evenodd" d="M2.758 1.789a.853.853 0 0 0-.439.401c-.043.087-.049.127-.049.31 0 .192.005.22.058.325.07.137.223.288.362.356l.1.049 1.034.006 1.033.005.011.055c.007.03.489 3.012 1.072 6.628.582 3.615 1.069 6.617 1.08 6.67.085.389.269.775.524 1.102l.099.127-.177.183c-.16.166-.346.418-.433.588-.073.142-.17.408-.215.587-.041.165-.047.237-.047.569 0 .333.006.404.047.57a2.525 2.525 0 0 0 1.042 1.503c.204.134.25.158.466.245.325.131.498.161.924.161.333 0 .404-.006.57-.047a2.508 2.508 0 0 0 1.862-1.862c.041-.166.047-.237.047-.57 0-.407-.029-.59-.139-.87-.025-.064-.041-.122-.035-.129.015-.014 4.375-.014 4.39 0 .006.007-.01.065-.035.129-.11.28-.139.463-.139.87 0 .426.03.599.161.924.087.216.111.262.245.466.336.511.877.886 1.503 1.042.166.041.237.047.57.047.333 0 .404-.006.57-.047a2.508 2.508 0 0 0 1.862-1.862c.041-.166.047-.237.047-.57 0-.333-.006-.404-.047-.57a2.507 2.507 0 0 0-1.862-1.864l-.17-.045-4.57-.011c-4.308-.01-4.577-.013-4.69-.046-.458-.136-.797-.48-.897-.91l-.029-.122.053-.011c.029-.006 2.56-.447 5.623-.979 3.799-.661 5.6-.982 5.666-1.01a.874.874 0 0 0 .364-.354c.041-.086.205-.928.812-4.163.849-4.524.808-4.257.688-4.491a.824.824 0 0 0-.349-.35l-.111-.054-7.289-.01-7.29-.01-.015-.06a65.176 65.176 0 0 1-.197-1.19c-.18-1.129-.209-1.275-.281-1.392a1.005 1.005 0 0 0-.333-.294L5.71 1.77l-1.44-.004c-1.163-.003-1.454.001-1.512.023Zm17.328 4.466c.008.014-1.219 6.586-1.231 6.595-.009.008-10.622 1.849-10.627 1.845a1298.27 1298.27 0 0 1-1.354-8.44c.011-.02 13.201-.02 13.212 0ZM9.54 18.793c.208.057.432.228.562.429a1.04 1.04 0 0 1 0 1.056.998.998 0 0 1-.852.468.925.925 0 0 1-.684-.272.926.926 0 0 1-.311-.714.916.916 0 0 1 .271-.694c.268-.284.623-.38 1.014-.273Zm9 0c.208.057.432.228.562.429a1.04 1.04 0 0 1 0 1.056.998.998 0 0 1-.852.468.925.925 0 0 1-.684-.272.926.926 0 0 1-.311-.714.916.916 0 0 1 .271-.694c.268-.284.623-.38 1.014-.273Z" clip-rule="evenodd"/>
</svg>
