<svg xmlns="http://www.w3.org/2000/svg" width="24" height="24" fill="none" viewBox="0 0 24 24">
  <path fill="#161C24" fill-rule="evenodd" d="M12.818 1.527a.76.76 0 0 0-.517.464c-.04.108-.041.143-.041 1.56V5h-1.405c-1.547.001-1.572.003-1.754.12a.751.751 0 0 0 0 1.26c.182.117.207.119 1.754.12h1.405v2.91l.048.114c.14.34.464.518.833.456a.735.735 0 0 0 .55-.456l.048-.114V6.5h1.406c1.573-.001 1.58-.001 1.765-.129a.713.713 0 0 0 .33-.615.73.73 0 0 0-.341-.636c-.182-.117-.207-.119-1.754-.12H13.74V3.551c0-1.417-.001-1.452-.041-1.56a.752.752 0 0 0-.881-.464Zm-10 .5a.8.8 0 0 0-.217.092.752.752 0 0 0 0 1.261c.175.113.244.119 1.304.12h.954l.01.045c.006.025.487 3.006 1.07 6.625a924.692 924.692 0 0 0 1.1 6.742c.08.337.257.706.475.997l.13.172-.14.136a2.515 2.515 0 0 0-.622 2.571 2.52 2.52 0 0 0 1.398 1.513 2.5 2.5 0 0 0 3.186-1.155c.188-.363.274-.724.274-1.146 0-.299-.04-.541-.128-.805L11.545 19h4.41l-.067.195a2.566 2.566 0 0 0-.006 1.593 2.52 2.52 0 0 0 1.398 1.513 2.5 2.5 0 0 0 3.186-1.155 2.531 2.531 0 0 0 .152-1.934 2.496 2.496 0 0 0-2.088-1.691c-.118-.014-1.696-.021-4.57-.021-4.864-.001-4.528.009-4.817-.134a1.34 1.34 0 0 1-.55-.546c-.076-.157-.138-.361-.116-.383.007-.007 2.53-.45 5.606-.985a610.88 610.88 0 0 0 5.675-1.001.731.731 0 0 0 .416-.385c.065-.14 1.566-8.127 1.566-8.33 0-.637-.76-.963-1.247-.535-.193.171-.137-.079-.922 4.106a484.567 484.567 0 0 1-.718 3.787c-.015.015-10.611 1.855-10.621 1.844-.005-.005-.456-2.776-1.001-6.158A795.67 795.67 0 0 0 6.21 2.528a.784.784 0 0 0-.45-.483c-.082-.032-.208-.035-1.46-.038-1.015-.003-1.4.002-1.482.02ZM9.49 19.031a1 1 0 0 1 .71.669c.057.176.057.424 0 .6a.997.997 0 1 1-1.655-1.004.98.98 0 0 1 .945-.265Zm9 0c.25.064.47.223.608.441.193.304.193.752 0 1.056a.997.997 0 1 1-1.552-1.232.98.98 0 0 1 .944-.265Z" clip-rule="evenodd"/>
</svg>
