<svg xmlns="http://www.w3.org/2000/svg" width="24" height="24" fill="none" viewBox="0 0 24 24">
  <path fill="#161C24" fill-rule="evenodd" d="M8.724 2.302a.908.908 0 0 0-.387.354c-.025.052-.335 1.107-.688 2.344l-.643 2.25-2.168.01-2.168.011-.146.045A2.22 2.22 0 0 0 2 7.567a1.82 1.82 0 0 0-.685.967c-.045.155-.045.167-.045 1.416v1.26l.058.114a.809.809 0 0 0 .341.344c.056.026.34.126.631.222s.536.181.544.188c.008.007.411 1.895.895 4.195.484 2.301.895 4.226.912 4.28.055.165.164.371.275.517.199.262.585.523.924.624.114.034.422.036 6.08.041 6.552.006 6.107.014 6.421-.117.285-.118.606-.37.764-.601.095-.137.196-.349.243-.507.023-.077.433-2.003.912-4.279.479-2.277.877-4.146.885-4.153.008-.007.254-.092.545-.188.292-.096.575-.196.631-.222.13-.061.268-.2.341-.344l.058-.114V9.95c0-1.249 0-1.261-.045-1.416a1.783 1.783 0 0 0-1.209-1.218c-.146-.045-.15-.045-1.956-.056l-1.81-.01-.76-2.27a139.927 139.927 0 0 0-.796-2.341.882.882 0 0 0-.334-.313c-.1-.051-.129-.056-.32-.056-.188 0-.222.006-.322.055a.818.818 0 0 0-.349.352.606.606 0 0 0-.065.285l-.009.173.683 2.048c.375 1.126.682 2.054.682 2.062 0 .008-1.087.017-2.415.02l-2.415.005-.115.058a.899.899 0 0 0-.356.362c-.043.087-.049.128-.049.31s.006.223.049.31a.899.899 0 0 0 .356.362l.115.058 4.891.01c4.629.009 4.894.012 4.945.045.125.083.123.069.13.907l.006.764-.496.165c-.273.09-.543.186-.6.212a.869.869 0 0 0-.353.373c-.02.051-.453 2.074-.963 4.496-.882 4.191-.93 4.405-.982 4.46a.34.34 0 0 1-.127.078c-.101.028-11.385.027-11.486-.001-.109-.03-.169-.106-.203-.258-.017-.072-.435-2.059-.931-4.415-.496-2.355-.919-4.325-.941-4.375a.854.854 0 0 0-.345-.355 9.009 9.009 0 0 0-.601-.215l-.496-.165.006-.764c.007-.838.005-.824.13-.907.051-.033.174-.035 1.855-.04.99-.003 1.81-.002 1.823.003.016.006-.029.189-.136.565-.154.537-.159.563-.151.727a.66.66 0 0 0 .226.499c.148.14.257.185.479.196.251.012.368-.033.549-.212a.623.623 0 0 0 .177-.253c.024-.066.494-1.699 1.045-3.63l1.003-3.51-.009-.17a.64.64 0 0 0-.197-.468c-.147-.161-.277-.218-.518-.226-.156-.005-.209.001-.296.036Zm1.034 8.987a.85.85 0 0 0-.439.401c-.043.087-.049.127-.049.31 0 .192.005.22.058.325.07.137.223.288.362.356l.1.049h4.42l.1-.049a.899.899 0 0 0 .362-.356c.053-.105.058-.133.058-.325s-.005-.22-.058-.325a.899.899 0 0 0-.362-.356l-.1-.049-2.19-.004c-1.787-.003-2.203.001-2.262.023Z" clip-rule="evenodd"/>
</svg>
