<svg xmlns="http://www.w3.org/2000/svg" width="24" height="24" fill="none" viewBox="0 0 24 24">
  <path fill="#161C24" fill-rule="evenodd" d="M4.37 1.29a1.804 1.804 0 0 0-1.222.983c-.029.064-.462 1.445-.962 3.067-.996 3.228-.97 3.135-.899 3.384.08.27.808 1.144 1.378 1.653l.095.085v4.406c0 4.884-.008 4.565.132 4.989a2.732 2.732 0 0 0 1.755 1.753c.421.139.164.132 4.583.126l3.98-.006.095-.044a.925.925 0 0 0 .37-.364c.05-.101.055-.133.055-.322s-.006-.221-.055-.322a.925.925 0 0 0-.37-.364l-.095-.044-3.95-.01c-3.714-.01-3.957-.013-4.07-.046a1.289 1.289 0 0 1-.904-.904c-.033-.112-.036-.364-.04-4.025-.004-2.148-.002-3.905.003-3.905s.131.04.28.089c.267.089.61.164.971.214a8.814 8.814 0 0 0 1.33.001c.866-.123 1.603-.405 2.165-.829l.104-.079.206.139c1.246.846 2.682 1.056 4.065.594.453-.151 1.084-.469 1.372-.692l.072-.056.118.092c1.391 1.085 3.171 1.187 4.974.284.76-.38 1.415-.859 2.076-1.517.387-.384.615-.648.69-.796.052-.103.058-.134.058-.314v-.2l-.907-2.94a298.77 298.77 0 0 0-.948-3.04 1.797 1.797 0 0 0-1.252-1.041c-.192-.041-15.068-.04-15.253.001Zm14.938 1.469c.043.01.1.04.126.066.04.038.221.608.89 2.775l.84 2.726-.148.149c-.864.878-1.87 1.486-2.803 1.694-.837.186-1.59.05-2.229-.404-.12-.086-.124-.092-.096-.132.076-.107.28-.485.354-.655.174-.399.274-.704.41-1.248.08-.318.09-.38.083-.53a.57.57 0 0 0-.069-.29.775.775 0 0 0-.342-.342c-.104-.053-.132-.058-.324-.058s-.22.005-.324.058a.826.826 0 0 0-.324.301 3.23 3.23 0 0 0-.152.49c-.246.967-.486 1.451-.949 1.911-.663.661-1.693 1.048-2.57.969a3.292 3.292 0 0 1-1.445-.502l-.114-.077.103-.165c.208-.336.472-.935.608-1.385a7.98 7.98 0 0 0 .185-.745.752.752 0 0 0-.414-.801c-.1-.048-.138-.054-.324-.054-.245 0-.33.032-.5.184-.135.121-.184.225-.27.569-.207.821-.452 1.357-.846 1.849-.583.728-1.44 1.108-2.504 1.108-.45 0-.89-.072-1.25-.204-.645-.237-1.319-.741-1.875-1.404-.18-.215-.198-.244-.188-.3.006-.034.384-1.271.84-2.749.89-2.886.848-2.768.995-2.803.096-.022 14.53-.023 14.626-.001ZM17.97 12.783a4.3 4.3 0 0 0-2.733 1.474 4.07 4.07 0 0 0-.977 2.673c0 .796.22 1.548.67 2.291.434.715.922 1.281 1.96 2.272l.83.797c.421.407.48.44.78.44.3 0 .36-.034.77-.43.176-.17.542-.519.813-.775 1.203-1.136 1.777-1.83 2.19-2.65a4.28 4.28 0 0 0 .346-2.964c-.416-1.664-1.867-2.918-3.618-3.13a7.096 7.096 0 0 0-1.03.002Zm.824 1.486c.284.023.665.132.936.266.867.431 1.434 1.257 1.507 2.194.068.864-.296 1.715-1.135 2.651-.084.093-.233.254-.332.357-.248.259-1.244 1.203-1.269 1.203-.027 0-.764-.707-1.202-1.152-1.157-1.178-1.612-2.084-1.536-3.059.102-1.309 1.176-2.366 2.507-2.468.194-.014.264-.013.524.008Zm-.556 1.768c-.627.163-.932.916-.597 1.472a1.007 1.007 0 0 0 1.566.199A.92.92 0 0 0 19.5 17a.92.92 0 0 0-.293-.708 1.005 1.005 0 0 0-.969-.255Zm-11.98.752a.85.85 0 0 0-.439.401c-.043.087-.049.127-.049.31 0 .192.005.22.058.325.07.137.223.288.362.356l.1.049h4.42l.1-.049a.899.899 0 0 0 .362-.356c.053-.105.058-.133.058-.325s-.005-.22-.058-.325a.899.899 0 0 0-.362-.356l-.1-.049-2.19-.004c-1.787-.003-2.203.001-2.262.023Z" clip-rule="evenodd"/>
</svg>
