<svg xmlns="http://www.w3.org/2000/svg" width="24" height="24" fill="none" viewBox="0 0 24 24">
  <path fill="#161C24" fill-rule="evenodd" d="M4.37 1.79a1.804 1.804 0 0 0-1.222.983c-.029.064-.462 1.445-.962 3.067-.996 3.228-.97 3.135-.899 3.384.077.265.871 1.224 1.33 1.606l.12.1.008 4.44c.008 4.917-.003 4.525.137 4.965.133.419.356.782.678 1.105a2.69 2.69 0 0 0 1.105.678c.438.139.11.129 4.415.136 2.508.005 3.936 0 4.018-.012a.751.751 0 0 0 .573-1.072.846.846 0 0 0-.35-.346l-.11-.054-3.95-.01c-3.715-.01-3.958-.013-4.07-.046a1.261 1.261 0 0 1-.809-.667c-.129-.264-.12.005-.122-4.274 0-3.704.002-3.897.035-3.883.288.116.767.233 1.205.293a8.814 8.814 0 0 0 1.33.001c.866-.123 1.603-.405 2.164-.829l.103-.078.27.178a4.547 4.547 0 0 0 2.563.788c.62 0 1.135-.104 1.753-.354.381-.155.838-.401 1.06-.572l.071-.056.118.092c.465.362.987.622 1.537.766.94.245 2.057.131 3.085-.315l.182-.079.008.462c.008.412.013.475.051.569a.752.752 0 0 0 1.411 0c.042-.102.044-.142.054-1.048l.01-.942.2-.167c.244-.204.766-.722.984-.975.09-.103.187-.238.218-.3.052-.103.058-.134.058-.314v-.2l-.907-2.94a298.77 298.77 0 0 0-.948-3.04 1.797 1.797 0 0 0-1.252-1.041c-.192-.041-15.068-.04-15.253.001Zm14.938 1.469c.043.01.1.04.126.066.04.038.221.608.89 2.775l.84 2.726-.148.149c-.864.878-1.87 1.486-2.803 1.694-.837.186-1.59.05-2.229-.404l-.125-.089.041-.063c.318-.487.545-1.054.752-1.883.08-.318.09-.38.083-.53a.57.57 0 0 0-.069-.29.74.74 0 0 0-.783-.407.768.768 0 0 0-.533.366 3.368 3.368 0 0 0-.15.489c-.124.488-.228.799-.362 1.081-.375.79-1.062 1.364-1.986 1.659a2.978 2.978 0 0 1-2.245-.157 3.763 3.763 0 0 1-.345-.188l-.14-.092.102-.165c.21-.337.472-.936.61-1.386a7.98 7.98 0 0 0 .184-.745.752.752 0 0 0-.414-.801c-.1-.048-.138-.054-.324-.054-.245 0-.33.032-.5.184-.135.121-.184.225-.27.569-.207.821-.452 1.357-.846 1.849-.583.728-1.44 1.108-2.504 1.108-.45 0-.89-.072-1.25-.204-.645-.237-1.319-.741-1.875-1.404-.18-.215-.198-.244-.188-.3.006-.034.384-1.271.84-2.749.89-2.886.848-2.768.995-2.803.096-.022 14.53-.023 14.626-.001Zm-1.05 11.529a.856.856 0 0 0-.439.402l-.049.1-.01 1.23-.01 1.23-1.23.01-1.23.01-.115.058a.899.899 0 0 0-.356.362c-.043.087-.049.128-.049.31s.006.223.05.31a.899.899 0 0 0 .355.362l.115.058 1.23.01 1.23.01.01 1.23.01 1.23.058.115c.07.137.223.288.362.356.087.043.128.049.31.049s.223-.006.31-.049a.899.899 0 0 0 .362-.356l.058-.115.01-1.23.01-1.23 1.23-.01 1.23-.01.1-.049a.899.899 0 0 0 .362-.356c.053-.105.058-.133.058-.325s-.005-.22-.058-.325a.899.899 0 0 0-.362-.356l-.1-.049-1.23-.01-1.23-.01-.01-1.23-.01-1.23-.049-.1a.894.894 0 0 0-.355-.361c-.099-.05-.14-.059-.305-.063a.785.785 0 0 0-.263.022Zm-12 2.501a.85.85 0 0 0-.439.401c-.043.087-.049.127-.049.31 0 .192.005.22.058.325.07.137.223.288.362.356l.1.049h4.42l.1-.049a.899.899 0 0 0 .362-.356c.053-.105.058-.133.058-.325s-.005-.22-.058-.325a.899.899 0 0 0-.362-.356l-.1-.049-2.19-.004c-1.787-.003-2.203.001-2.262.023Z" clip-rule="evenodd"/>
</svg>
