<svg xmlns="http://www.w3.org/2000/svg" width="24" height="24" fill="none" viewBox="0 0 24 24">
  <path fill="#161C24" fill-rule="evenodd" d="M4.37 1.79a1.804 1.804 0 0 0-1.222.983c-.029.064-.462 1.445-.962 3.067-.996 3.228-.97 3.135-.899 3.384.08.27.808 1.144 1.378 1.653l.095.085v4.404c0 4.798-.006 4.518.111 4.929.056.194.223.55.346.735a2.777 2.777 0 0 0 1.838 1.179c.155.027.952.031 6.935.031 7.356 0 6.892.007 7.301-.11.197-.057.552-.223.74-.347a2.777 2.777 0 0 0 1.178-1.838c.027-.154.031-.721.031-4.666v-4.491l.194-.159a12.2 12.2 0 0 0 1.021-1.005 2.03 2.03 0 0 0 .217-.3c.052-.103.058-.134.058-.314v-.2l-.907-2.94a298.77 298.77 0 0 0-.948-3.04 1.797 1.797 0 0 0-1.252-1.041c-.192-.041-15.068-.04-15.253.001Zm14.938 1.469c.043.01.1.04.126.066.04.038.221.608.89 2.775l.84 2.726-.148.149c-.864.878-1.87 1.486-2.803 1.694-.837.186-1.59.05-2.229-.404l-.125-.089.041-.063c.318-.487.545-1.054.752-1.883.08-.318.09-.38.083-.53a.57.57 0 0 0-.069-.29.74.74 0 0 0-.783-.407.768.768 0 0 0-.533.366 3.368 3.368 0 0 0-.15.489c-.124.488-.228.799-.362 1.081-.375.79-1.062 1.364-1.986 1.659a2.978 2.978 0 0 1-2.245-.157 3.763 3.763 0 0 1-.345-.188l-.14-.092.102-.165c.21-.337.472-.936.61-1.386a7.98 7.98 0 0 0 .184-.745.752.752 0 0 0-.414-.801c-.1-.048-.138-.054-.324-.054-.245 0-.33.032-.5.184-.135.121-.184.225-.27.569-.207.821-.452 1.357-.846 1.849-.583.728-1.44 1.108-2.504 1.108-.45 0-.89-.072-1.25-.204-.645-.237-1.319-.741-1.875-1.404-.18-.215-.198-.244-.188-.3.006-.034.384-1.271.84-2.749.89-2.886.848-2.768.995-2.803.096-.022 14.53-.023 14.626-.001Zm-4.338 8.122c.444.343.96.597 1.5.738.941.245 2.056.131 3.09-.318.103-.044.19-.081.194-.081.004 0 .004 1.798.001 3.995-.006 3.689-.009 4.003-.04 4.105-.11.356-.354.652-.659.797a1.923 1.923 0 0 1-.276.106c-.164.04-13.396.04-13.56 0a1.317 1.317 0 0 1-.935-.903c-.03-.102-.034-.412-.04-4.025-.003-2.153 0-3.915.004-3.915.005 0 .131.04.28.089.267.089.61.164.971.214a8.814 8.814 0 0 0 1.33.001c.866-.123 1.603-.405 2.164-.829l.103-.078.27.178a4.547 4.547 0 0 0 2.563.788c.62 0 1.135-.104 1.753-.354.381-.155.844-.404 1.057-.571.038-.03.08-.049.09-.042.011.006.074.054.14.105Zm-6.204 4.908a.678.678 0 0 0-.314.211c-.146.156-.18.251-.18.5-.002.19.003.221.054.324.16.326.962.848 1.684 1.096.71.244 1.323.333 2.156.314a5.414 5.414 0 0 0 1.542-.224c.62-.18 1.263-.511 1.682-.864.274-.231.367-.423.345-.713a.703.703 0 0 0-.206-.452.665.665 0 0 0-.492-.217c-.237-.012-.333.023-.585.214-.266.201-.36.26-.612.38-.535.256-1.156.386-1.84.386-.383 0-.634-.025-.97-.097a3.534 3.534 0 0 1-1.535-.705.917.917 0 0 0-.259-.151 1.023 1.023 0 0 0-.47-.002Z" clip-rule="evenodd"/>
</svg>
