<svg xmlns="http://www.w3.org/2000/svg" width="24" height="24" fill="none" viewBox="0 0 24 24">
  <path fill="#161C24" fill-rule="evenodd" d="M4.04 1.792a3.001 3.001 0 0 0-1.064.422A2.767 2.767 0 0 0 1.79 4.055c-.026.155-.03 1.054-.03 7.945 0 8.486-.008 7.878.11 8.295.057.194.224.55.347.735a2.777 2.777 0 0 0 1.838 1.179c.155.027 1.053.031 7.935.031 8.448 0 7.89.007 8.3-.11a3.42 3.42 0 0 0 .74-.347 2.777 2.777 0 0 0 1.179-1.838c.027-.155.03-1.054.03-7.945 0-8.486.009-7.878-.11-8.295a3.402 3.402 0 0 0-.343-.729 2.767 2.767 0 0 0-1.841-1.185c-.155-.027-1.05-.031-7.965-.029-6.486.002-7.815.007-7.94.03Zm15.78 1.493c.357.111.652.354.797.659a2 2 0 0 1 .106.276c.04.164.04 15.396 0 15.56a1.3 1.3 0 0 1-.943.943c-.164.04-15.396.04-15.56 0a1.3 1.3 0 0 1-.943-.943c-.04-.164-.04-15.396 0-15.56a1.275 1.275 0 0 1 1.063-.959c.072-.009 3.559-.015 7.75-.013 7.123.002 7.627.005 7.73.037ZM5.724 5.302a.903.903 0 0 0-.398.374c-.051.103-.056.135-.056.324 0 .191.005.22.057.322.136.268.947 1.12 1.5 1.575 1.908 1.571 4.462 2.534 7.513 2.834a21.46 21.46 0 0 0 1.508.089h.258l-.358.365c-.45.458-.478.507-.478.815 0 .182.006.223.049.31a.899.899 0 0 0 .356.362c.105.053.133.058.325.058.348 0 .276.057 1.53-1.199 1.257-1.255 1.2-1.183 1.2-1.531 0-.351.058-.276-1.198-1.531C16.275 7.213 16.348 7.27 16 7.27c-.192 0-.22.005-.325.058a.899.899 0 0 0-.356.362c-.043.087-.05.128-.05.31 0 .317.02.349.56.896l.44.446-.23-.011c-.126-.006-.377-.015-.56-.022a16.167 16.167 0 0 1-4.13-.692C9.428 8.013 7.909 7.063 6.78 5.76c-.378-.438-.445-.482-.76-.493-.156-.006-.207 0-.295.035Zm1.034 6.986a.856.856 0 0 0-.44.402l-.048.1v5.42l.049.1a.899.899 0 0 0 .356.362c.105.053.133.058.325.058s.22-.005.325-.058a.899.899 0 0 0 .356-.362l.049-.1v-5.42l-.05-.1a.894.894 0 0 0-.354-.361c-.1-.05-.14-.059-.305-.063a.785.785 0 0 0-.263.022Zm5 2a.856.856 0 0 0-.44.402l-.048.1v3.42l.049.1a.899.899 0 0 0 .356.362c.105.053.133.058.325.058s.22-.005.325-.058a.899.899 0 0 0 .356-.362l.049-.1v-3.42l-.05-.1a.894.894 0 0 0-.354-.361c-.1-.05-.14-.059-.305-.063a.785.785 0 0 0-.263.022Zm5 1a.856.856 0 0 0-.44.402l-.048.1v2.42l.058.115c.07.137.223.288.362.356.087.043.128.049.31.049s.223-.006.31-.049a.899.899 0 0 0 .362-.356l.058-.115v-2.42l-.05-.1a.894.894 0 0 0-.354-.361c-.1-.05-.14-.059-.305-.063a.785.785 0 0 0-.263.022Z" clip-rule="evenodd"/>
</svg>
