<svg xmlns="http://www.w3.org/2000/svg" width="24" height="24" fill="none" viewBox="0 0 24 24">
  <path fill="#161C24" fill-rule="evenodd" d="M4.04 1.792a3.001 3.001 0 0 0-1.064.422A2.767 2.767 0 0 0 1.79 4.055c-.026.155-.03 1.054-.03 7.945 0 8.486-.008 7.878.11 8.295.057.194.224.55.347.735a2.777 2.777 0 0 0 1.838 1.179c.155.027 1.053.031 7.935.031 8.448 0 7.89.007 8.3-.11a3.42 3.42 0 0 0 .74-.347 2.777 2.777 0 0 0 1.179-1.838c.027-.155.03-1.054.03-7.945 0-8.486.009-7.878-.11-8.295a3.402 3.402 0 0 0-.343-.729 2.767 2.767 0 0 0-1.841-1.185c-.155-.027-1.05-.031-7.965-.029-6.486.002-7.815.007-7.94.03Zm15.78 1.493c.357.111.652.354.797.659a2 2 0 0 1 .106.276c.04.164.04 15.396 0 15.56a1.3 1.3 0 0 1-.943.943c-.164.04-15.396.04-15.56 0a1.3 1.3 0 0 1-.943-.943c-.04-.164-.04-15.396 0-15.56a1.275 1.275 0 0 1 1.063-.959c.072-.009 3.559-.015 7.75-.013 7.123.002 7.627.005 7.73.037Zm-5.062 2.004a.853.853 0 0 0-.44.401c-.042.087-.048.127-.048.31 0 .192.005.22.058.325.07.137.223.288.362.356.1.049.103.049.815.055.393.003.715.013.715.021 0 .019-.54.517-.847.781-.458.393-1.111.886-1.673 1.263a18.17 18.17 0 0 1-2.505 1.356c-1.642.689-3.105 1.019-4.815 1.084-.36.013-.565.029-.617.048a.835.835 0 0 0-.444.401c-.043.087-.05.127-.05.31 0 .182.007.223.05.31a.899.899 0 0 0 .356.362c.11.056.128.058.435.065.548.013 1.402-.055 2.11-.167 3.108-.492 6.168-2.05 8.76-4.457.137-.128.256-.233.264-.233.008 0 .017.299.02.665.006.659.006.666.055.765a.899.899 0 0 0 .356.362c.105.053.133.058.325.058.182 0 .223-.006.31-.049a.899.899 0 0 0 .362-.356l.058-.115V5.79l-.058-.115a.899.899 0 0 0-.362-.356l-.1-.049-1.69-.004c-1.371-.003-1.704.001-1.762.023Zm2 6.999a.856.856 0 0 0-.44.402l-.048.1v5.42l.049.1a.899.899 0 0 0 .356.362c.105.053.133.058.325.058s.22-.005.325-.058a.899.899 0 0 0 .356-.362l.049-.1v-5.42l-.05-.1a.894.894 0 0 0-.354-.361c-.1-.05-.14-.059-.305-.063a.785.785 0 0 0-.263.022Zm-5 2a.856.856 0 0 0-.44.402l-.048.1v3.42l.049.1a.899.899 0 0 0 .356.362c.105.053.133.058.325.058s.22-.005.325-.058a.899.899 0 0 0 .356-.362l.049-.1v-3.42l-.05-.1a.894.894 0 0 0-.354-.361c-.1-.05-.14-.059-.305-.063a.785.785 0 0 0-.263.022Zm-5 1a.856.856 0 0 0-.44.402l-.048.1v2.42l.058.115c.07.137.223.288.362.356.087.043.128.049.31.049s.223-.006.31-.049a.899.899 0 0 0 .362-.356l.058-.115v-2.42l-.05-.1a.894.894 0 0 0-.354-.361c-.1-.05-.14-.059-.305-.063a.785.785 0 0 0-.263.022Z" clip-rule="evenodd"/>
</svg>
