<svg xmlns="http://www.w3.org/2000/svg" width="24" height="24" fill="none" viewBox="0 0 24 24">
  <path fill="#161C24" fill-rule="evenodd" d="M11.781 1.283c-.038.011-2.128 1.164-4.645 2.563-3.675 2.041-4.595 2.56-4.667 2.632a.908.908 0 0 0-.145.201l-.054.111v3.42l.05.098a.806.806 0 0 0 .356.356l.133.066.721.01.72.01v7.5l-.73.01-.73.01-.115.058a.899.899 0 0 0-.356.362l-.049.1v3.42l.058.115c.07.137.223.288.362.356l.1.049h18.42l.1-.049a.899.899 0 0 0 .362-.356l.058-.115v-3.42l-.049-.1a.899.899 0 0 0-.356-.362l-.115-.058-.73-.01-.73-.01v-7.5l.72-.01.721-.01.133-.066a.806.806 0 0 0 .356-.356l.05-.098V6.79l-.054-.111a.908.908 0 0 0-.145-.201c-.072-.072-.988-.588-4.642-2.619a460.567 460.567 0 0 0-4.645-2.563 1.032 1.032 0 0 0-.463-.013Zm4.352 3.87 4.127 2.292V9.24H3.74V7.445l4.125-2.292a2098.48 2098.48 0 0 1 4.133-2.293c.004 0 1.865 1.032 4.135 2.293Zm-4.378.878a.935.935 0 0 0-.441.248.987.987 0 0 0-.19 1.205c.073.138.275.334.416.406a.998.998 0 0 0 1.183-.206A.917.917 0 0 0 13 7a.917.917 0 0 0-.277-.684.984.984 0 0 0-.968-.285ZM8.25 14.5v3.75h-2.5l-.005-3.73c-.003-2.052-.001-3.741.004-3.755.008-.02.27-.024 1.255-.02l1.246.005v3.75Zm6 0v3.75h-4.5l-.005-3.73c-.003-2.052-.001-3.741.004-3.755.008-.02.469-.024 2.255-.02l2.246.005v3.75Zm4 0v3.75h-2.5l-.005-3.73c-.003-2.052-.001-3.741.004-3.755.008-.02.27-.024 1.255-.02l1.246.005v3.75Zm2 6v.75H3.75l-.005-.73c-.003-.401-.001-.741.004-.755.008-.02 1.654-.024 8.255-.02l8.246.005v.75Z" clip-rule="evenodd"/>
</svg>
