<svg xmlns="http://www.w3.org/2000/svg" width="24" height="24" fill="none" viewBox="0 0 24 24">
  <path fill="#161C24" fill-rule="evenodd" d="M2.758 3.288a.856.856 0 0 0-.439.402l-.049.1-.006 7.23c-.006 7.903-.013 7.354.107 7.773.056.195.223.551.346.737a2.773 2.773 0 0 0 1.85 1.18c.163.028 1.088.031 8.413.026l8.23-.006.115-.058a.899.899 0 0 0 .356-.362c.043-.087.049-.128.049-.31 0-.192-.005-.22-.058-.325a.899.899 0 0 0-.362-.356l-.1-.049-8.21-.01c-7.663-.01-8.217-.013-8.32-.045a1.32 1.32 0 0 1-.895-.895c-.032-.102-.035-.603-.045-7.32l-.01-7.21-.049-.1a.894.894 0 0 0-.355-.361c-.099-.05-.14-.059-.305-.063a.785.785 0 0 0-.263.022Zm17 3a1.22 1.22 0 0 0-.16.082c-.048.03-1.215 1.18-2.593 2.557L14.5 11.429l-1.525-1.52C11.222 8.16 11.354 8.27 11 8.27c-.362 0-.092-.241-3.031 2.699C5.029 13.908 5.27 13.638 5.27 14c0 .192.005.22.058.325.07.137.223.288.362.356.087.043.128.049.31.049.36 0 .13.202 2.725-2.388L11 10.071l1.525 1.52c1.753 1.749 1.621 1.639 1.975 1.639.363 0 .061.272 3.281-2.949C21.002 7.061 20.73 7.363 20.73 7c0-.182-.006-.223-.049-.31a.899.899 0 0 0-.356-.362c-.1-.05-.14-.059-.305-.062a.843.843 0 0 0-.262.022Z" clip-rule="evenodd"/>
</svg>
