<svg xmlns="http://www.w3.org/2000/svg" width="24" height="24" fill="none" viewBox="0 0 24 24">
  <path fill="#161C24" fill-rule="evenodd" d="M3.78 2.285c-.2.071-.37.22-.461.405-.043.087-.049.128-.049.31 0 .315.023.352.497.818 3.284 3.226 7.244 5.604 11.223 6.74.811.231 1.835.459 2.39.532a.694.694 0 0 1 .125.024c.009.005-.212.191-.49.414-.278.223-.539.443-.581.49-.13.144-.163.241-.163.482-.001.193.004.219.057.325.07.138.234.299.366.36.138.063.474.064.607.003.107-.05 2.652-2.08 2.765-2.206.13-.145.163-.241.163-.482.001-.183-.006-.223-.049-.31-.057-.117-2.072-2.644-2.198-2.756-.129-.116-.243-.159-.452-.169-.151-.007-.199-.002-.296.035a.864.864 0 0 0-.408.376c-.051.103-.056.135-.056.324 0 .183.007.223.05.31.027.055.268.374.536.71.324.405.478.612.458.616-.049.01-.832-.131-1.27-.228-2.828-.63-5.771-1.981-8.37-3.842a28.674 28.674 0 0 1-3.366-2.825c-.44-.426-.506-.467-.778-.475a.932.932 0 0 0-.25.019Zm.44 5.988c-.241.044-.52.158-.72.294a1.82 1.82 0 0 0-.685.967l-.045.156v10.62l.045.156c.049.168.153.39.252.534.212.312.58.573.967.685.151.043.184.045.966.045s.815-.002.966-.045a1.772 1.772 0 0 0 1.219-1.219l.045-.156V9.69l-.045-.156a1.78 1.78 0 0 0-1.209-1.217c-.139-.043-.184-.045-.926-.049-.429-.002-.802 0-.83.005Zm1.406 1.512c.029.02.069.06.089.089.033.051.035.314.035 5.126s-.002 5.075-.035 5.126c-.081.123-.089.124-.715.124s-.634-.001-.715-.124c-.033-.051-.035-.317-.041-5.055-.003-2.751 0-5.039.006-5.086.015-.102.09-.198.177-.224.034-.01.306-.017.604-.015.479.004.547.008.595.039Zm5.594 1.988c-.241.044-.52.158-.72.294a1.82 1.82 0 0 0-.685.967l-.045.156v7.12l.045.156a1.772 1.772 0 0 0 1.219 1.219c.151.043.184.045.966.045s.815-.002.966-.045c.168-.049.39-.153.534-.252a1.82 1.82 0 0 0 .685-.967l.045-.156v-7.12l-.045-.156a1.78 1.78 0 0 0-1.209-1.217c-.139-.043-.184-.045-.926-.049-.429-.002-.802 0-.83.005Zm1.406 1.512c.029.02.069.06.089.089.033.051.035.236.035 3.376 0 3.14-.002 3.325-.035 3.376-.081.123-.089.124-.715.124s-.634-.001-.715-.124c-.033-.051-.035-.239-.041-3.305-.003-1.788 0-3.289.006-3.336.015-.102.09-.198.177-.224.034-.01.306-.017.604-.015.479.004.547.008.595.039Zm5.594.988c-.241.044-.52.158-.72.294a1.82 1.82 0 0 0-.685.967l-.045.156v4.62l.045.156a1.772 1.772 0 0 0 1.219 1.219c.151.043.184.045.966.045s.815-.002.966-.045c.168-.049.39-.153.534-.252a1.82 1.82 0 0 0 .685-.967l.045-.156v-4.62l-.045-.156a1.78 1.78 0 0 0-1.209-1.217c-.139-.043-.184-.045-.926-.049-.429-.002-.803 0-.83.005Zm1.406 1.512c.029.02.069.06.089.089.033.051.035.18.035 2.126s-.002 2.075-.035 2.126c-.081.123-.089.124-.715.124s-.634-.001-.715-.124c-.033-.051-.035-.183-.041-2.055-.003-1.101 0-2.039.006-2.086.015-.102.09-.198.177-.224.034-.01.306-.017.604-.015.479.004.547.008.595.039Z" clip-rule="evenodd"/>
</svg>
