<svg xmlns="http://www.w3.org/2000/svg" width="24" height="24" fill="none" viewBox="0 0 24 24">
  <path fill="#161C24" fill-rule="evenodd" d="M3.54 3.292a3.001 3.001 0 0 0-1.064.422 2.764 2.764 0 0 0-1.187 1.853c-.026.158-.03.453-.025 2.163l.006 1.98.049.1a.896.896 0 0 0 .35.359c.09.046.156.059.385.081.32.031.48.068.679.16.368.169.687.489.858.857.2.436.206 1.012.012 1.439a1.798 1.798 0 0 1-1.144.985 3.537 3.537 0 0 1-.402.058c-.231.021-.291.033-.386.081a.897.897 0 0 0-.352.36l-.05.1-.005 1.98c-.006 2.153-.007 2.125.107 2.523.056.195.223.551.346.737a2.777 2.777 0 0 0 1.838 1.179c.155.027 1.104.031 8.435.031 8.994 0 8.39.007 8.8-.11a3.42 3.42 0 0 0 .74-.347 2.78 2.78 0 0 0 1.18-1.85c.027-.158.03-.453.026-2.163l-.006-1.98-.058-.115a.948.948 0 0 0-.16-.211c-.16-.15-.25-.184-.568-.214-.533-.051-.821-.173-1.151-.489A1.666 1.666 0 0 1 20.256 12c0-.502.177-.917.537-1.261.167-.16.285-.242.474-.329.198-.092.358-.129.677-.16.318-.03.409-.064.568-.214a.948.948 0 0 0 .16-.211l.058-.115.006-1.98c.006-2.153.007-2.125-.107-2.523a3.394 3.394 0 0 0-.343-.731 2.767 2.767 0 0 0-1.841-1.185c-.155-.027-1.101-.031-8.465-.029-6.908.002-8.315.007-8.44.03Zm16.78 1.493c.44.137.763.459.894.895.03.097.034.286.04 1.634l.008 1.524-.086.022a3.288 3.288 0 0 0-1.933 1.425A3.156 3.156 0 0 0 18.76 12c0 .632.153 1.177.482 1.715a3.288 3.288 0 0 0 1.933 1.425l.086.022-.007 1.524c-.008 1.691-.001 1.596-.147 1.891a1.28 1.28 0 0 1-.552.54 1.923 1.923 0 0 1-.276.106c-.164.04-16.396.04-16.56 0a1.313 1.313 0 0 1-.934-.903c-.03-.097-.034-.286-.041-1.634l-.007-1.524.086-.022a3.288 3.288 0 0 0 1.933-1.425A3.156 3.156 0 0 0 5.239 12c0-.632-.153-1.177-.482-1.715A3.288 3.288 0 0 0 2.824 8.86l-.086-.022.007-1.524c.008-1.693 0-1.596.148-1.894.053-.108.115-.19.225-.3.213-.211.443-.326.722-.359.07-.009 3.784-.015 8.25-.013 7.596.002 8.127.005 8.23.037ZM9.238 8.537c-.627.163-.932.916-.597 1.472.38.631 1.277.652 1.7.038.12-.174.148-.274.148-.547 0-.214-.007-.265-.045-.357a1.018 1.018 0 0 0-1.206-.606Zm5.02.251a1.22 1.22 0 0 0-.16.082c-.048.03-1.241 1.207-2.65 2.617C8.533 14.406 8.77 14.138 8.77 14.5c0 .192.005.22.058.325.07.137.223.288.362.356.087.043.128.049.31.049.362 0 .092.241 3.03-2.699 2.94-2.939 2.7-2.669 2.7-3.031 0-.182-.006-.223-.05-.31a.894.894 0 0 0-.354-.361c-.1-.05-.14-.059-.305-.063a.785.785 0 0 0-.263.022Zm.022 4.734c-.24.046-.53.261-.66.487-.163.286-.161.71.006.988.215.359.609.547 1.02.487a.919.919 0 0 0 .556-.282.936.936 0 0 0 .28-.547c.108-.696-.501-1.269-1.202-1.133Z" clip-rule="evenodd"/>
</svg>
