<svg xmlns="http://www.w3.org/2000/svg" width="24" height="24" fill="none" viewBox="0 0 24 24">
  <path fill="#161C24" fill-rule="evenodd" d="M3.54 3.292a3.001 3.001 0 0 0-1.064.422A2.767 2.767 0 0 0 1.29 5.555c-.027.155-.031.902-.031 6.445 0 6.842-.007 6.38.11 6.795.057.194.224.55.347.735a2.776 2.776 0 0 0 1.85 1.181c.16.027.657.03 4.163.025l3.98-.006.115-.058a.899.899 0 0 0 .356-.362c.043-.087.049-.128.049-.31s-.006-.223-.05-.31a.899.899 0 0 0-.355-.362l-.115-.058-3.96-.011c-3.643-.009-3.97-.013-4.07-.044a1.301 1.301 0 0 1-.797-.659c-.143-.301-.133.052-.133-4.596V9.75h18.5l.01.48.01.48.058.115c.07.137.223.288.362.356.087.043.128.049.31.049s.223-.006.31-.049a.899.899 0 0 0 .362-.356l.058-.115.006-2.48c.006-2.7.009-2.619-.107-3.023a3.394 3.394 0 0 0-.343-.731 2.767 2.767 0 0 0-1.841-1.185c-.155-.027-1.101-.031-8.465-.029-6.908.002-8.315.007-8.44.03Zm16.78 1.493c.357.111.652.354.797.659.136.285.133.254.133 1.596v1.21H2.75V7.04c0-.949.006-1.234.027-1.32a1.275 1.275 0 0 1 1.063-.959c.07-.009 3.784-.015 8.25-.013 7.596.002 8.127.005 8.23.037Zm1.425 8.513a.696.696 0 0 0-.307.215c-.051.054-1.081 1.283-2.288 2.733l-2.196 2.637-1.002-.997c-1.167-1.162-1.107-1.116-1.452-1.116-.192 0-.22.005-.325.058a.899.899 0 0 0-.356.362c-.043.087-.05.128-.05.31 0 .352-.086.245 1.45 1.781s1.429 1.449 1.78 1.449c.192 0 .22-.005.322-.056a.927.927 0 0 0 .179-.12 768.36 768.36 0 0 0 5.114-6.134.67.67 0 0 0 .122-.466.659.659 0 0 0-.226-.492c-.153-.145-.258-.188-.48-.196a.657.657 0 0 0-.285.032Z" clip-rule="evenodd"/>
</svg>
