<svg xmlns="http://www.w3.org/2000/svg" width="24" height="24" fill="none" viewBox="0 0 24 24">
  <path fill="#161C24" fill-rule="evenodd" d="M11.78 1.286a1.45 1.45 0 0 0-.16.071c-.137.071-8.85 8.794-9.007 9.017a2.97 2.97 0 0 0-.486 1.126 3.564 3.564 0 0 0 0 1c.07.375.245.783.486 1.126.167.238 7.523 7.594 7.761 7.761a2.97 2.97 0 0 0 1.126.486c.257.047.743.047 1 0a2.97 2.97 0 0 0 1.126-.486c.218-.153 8.942-8.868 9.018-9.008.026-.05.059-.131.073-.18.019-.069.023-1.23.019-5.249l-.006-5.16-.058-.115a.899.899 0 0 0-.362-.356l-.1-.049-5.18-.004c-3.928-.002-5.197.003-5.25.02Zm9.475 5.924.005 4.46-4.275 4.272c-4.688 4.684-4.338 4.352-4.677 4.438a1.26 1.26 0 0 1-.616 0c-.338-.086-.042.193-4.135-3.896-2.922-2.919-3.749-3.756-3.806-3.852a1.271 1.271 0 0 1-.037-1.197c.068-.14.23-.304 4.343-4.42L12.33 2.74l4.46.005 4.46.005.005 4.46Zm-4.117-2.931c-.318.058-.732.231-.958.4a2.936 2.936 0 0 0-.484.481 2.71 2.71 0 0 0-.37.77c-.052.185-.056.227-.056.57 0 .343.004.385.056.57.067.244.236.595.37.77.118.155.332.367.484.481.164.122.523.292.75.353.183.049.231.054.57.054.338 0 .387-.005.567-.053.228-.062.547-.211.732-.341a2.69 2.69 0 0 0 .543-.549c.137-.198.269-.484.333-.719.048-.179.053-.228.053-.566 0-.339-.005-.387-.054-.57a2.68 2.68 0 0 0-.37-.77 2.936 2.936 0 0 0-.484-.481 2.795 2.795 0 0 0-.74-.35c-.162-.045-.239-.054-.52-.06a3.494 3.494 0 0 0-.422.01Zm.582 1.505a.747.747 0 1 1-.441 1.431.747.747 0 0 1 .441-1.431Zm-5.965 2.247a.935.935 0 0 0-.441.248.987.987 0 0 0-.19 1.205c.073.138.275.334.417.406.235.119.565.139.807.049a1.06 1.06 0 0 0 .593-.573c.067-.173.078-.478.022-.66a1.009 1.009 0 0 0-1.208-.675Zm-3.497 3.258a.845.845 0 0 0-.439.401c-.043.087-.049.127-.049.31 0 .192.005.22.058.325.07.137.223.288.362.356l.1.049h7.42l.115-.058a.899.899 0 0 0 .356-.362c.043-.087.049-.128.049-.31s-.006-.223-.049-.31a.899.899 0 0 0-.356-.362l-.115-.058-3.69-.004c-3.034-.003-3.703.001-3.762.023Zm3.48 2.748a1.011 1.011 0 0 0-.737.977c.005.479.369.897.846.97a.998.998 0 0 0 1.062-1.422 1.008 1.008 0 0 0-1.171-.525Z" clip-rule="evenodd"/>
</svg>
