<svg xmlns="http://www.w3.org/2000/svg" width="24" height="24" fill="none" viewBox="0 0 24 24">
  <path fill="#161C24" fill-rule="evenodd" d="M11.19 1.282a10.795 10.795 0 0 0-3.625.926 10.813 10.813 0 0 0-5.357 5.357A10.52 10.52 0 0 0 1.26 12c0 1.575.305 3.001.948 4.435a10.821 10.821 0 0 0 5.357 5.357c1.43.642 2.86.947 4.435.947 1.574 0 3.004-.305 4.435-.947a10.829 10.829 0 0 0 5.357-5.357c.642-1.431.947-2.861.947-4.435 0-1.574-.305-3.004-.947-4.435a10.821 10.821 0 0 0-5.357-5.357 10.47 10.47 0 0 0-4.475-.945c-.313.001-.66.01-.77.019Zm1.18 1.478a9.027 9.027 0 0 1 3.646.911 8.851 8.851 0 0 1 2.577 1.851 8.758 8.758 0 0 1 1.736 2.462 9.007 9.007 0 0 1 .909 3.613 9.22 9.22 0 0 1-1.424 5.353 9.513 9.513 0 0 1-2.474 2.604 9.437 9.437 0 0 1-3.277 1.465 9.508 9.508 0 0 1-4.126 0 9.322 9.322 0 0 1-3.627-1.727 10.03 10.03 0 0 1-1.602-1.602 9.322 9.322 0 0 1-1.727-3.627 9.508 9.508 0 0 1 0-4.126A9.327 9.327 0 0 1 4.708 6.31 10.03 10.03 0 0 1 6.31 4.708a9.297 9.297 0 0 1 3.67-1.736 9.051 9.051 0 0 1 1.589-.211c.188-.008.346-.016.35-.018.006-.001.209.006.45.017Zm-.612 3.028a.856.856 0 0 0-.44.402c-.046.096-.048.119-.058.61l-.01.51-.11.025c-1.024.236-1.765.707-2.234 1.42-.357.543-.478 1.172-.355 1.842.185 1.013.906 1.65 2.139 1.892.31.06.687.093 1.3.111.795.024 1.148.069 1.495.192.548.195.759.506.758 1.118-.001.347-.071.55-.261.756-.25.27-.662.447-1.252.536a5.377 5.377 0 0 1-1.247.01c-.85-.13-1.542-.568-1.7-1.072a1.89 1.89 0 0 1-.041-.255c-.033-.306-.18-.52-.438-.642-.098-.046-.14-.053-.304-.053-.164 0-.206.007-.304.053a.782.782 0 0 0-.357.342c-.06.112-.068.145-.076.32-.038.926.596 1.844 1.63 2.362.362.18.706.296 1.133.382l.224.046.01.507c.01.488.012.512.059.608a.899.899 0 0 0 .356.362c.105.053.133.058.325.058s.22-.005.325-.058a.899.899 0 0 0 .356-.362c.047-.096.049-.12.059-.599l.01-.499.238-.036c1.497-.224 2.45-.992 2.707-2.182.05-.233.049-.967-.001-1.219-.181-.903-.691-1.492-1.604-1.855-.501-.199-1.321-.319-2.18-.32-.71 0-1.282-.115-1.59-.318-.205-.136-.293-.307-.314-.612-.022-.316.07-.547.313-.791.172-.173.278-.25.498-.36A2.614 2.614 0 0 1 12 8.756c.77 0 1.462.294 1.812.77.115.155.165.298.189.541.015.15.035.234.077.323a.742.742 0 0 0 1.345-.001c.077-.164.092-.352.049-.643-.106-.718-.512-1.337-1.191-1.815-.378-.266-.852-.465-1.421-.596l-.11-.025-.01-.51c-.01-.49-.012-.514-.06-.61a.894.894 0 0 0-.354-.361c-.1-.05-.14-.059-.305-.063a.785.785 0 0 0-.263.022Z" clip-rule="evenodd"/>
</svg>
