<svg xmlns="http://www.w3.org/2000/svg" width="24" height="24" fill="none" viewBox="0 0 24 24">
  <path fill="#161C24" d="M11.5 10.25a.75.75 0 0 1 0 1.5h-3a.75.75 0 0 1 0-1.5h3Zm3-4a.75.75 0 0 1 0 1.5h-6a.75.75 0 0 1 0-1.5h6Z"/>
  <path fill="#161C24" d="M19.25 4c0-.69-.56-1.25-1.25-1.25H6c-.69 0-1.25.56-1.25 1.25v16.286l2.915-1.457.089-.038a.75.75 0 0 1 .643.073L12 21.115l3.602-2.25.086-.047a.75.75 0 0 1 .647.011l2.915 1.457V4Zm1.5 17.5a.75.75 0 0 1-1.085.67l-3.625-1.812-3.642 2.278a.75.75 0 0 1-.796 0L7.96 20.358l-3.624 1.813A.75.75 0 0 1 3.25 21.5V4A2.75 2.75 0 0 1 6 1.25h12A2.75 2.75 0 0 1 20.75 4v17.5Z"/>
</svg>
