<svg xmlns="http://www.w3.org/2000/svg" width="24" height="24" fill="none" viewBox="0 0 24 24">
  <path fill="#161C24" fill-rule="evenodd" d="M16.39 2.274c-1.582.084-3.431.499-4.754 1.067-2.066.887-4.252 1.122-6.666.718-.83-.139-1.987-.457-2.565-.704A.71.71 0 0 0 2 3.271c-.183-.001-.223.005-.31.048a.899.899 0 0 0-.362.356l-.058.115v15.42l.058.115a.878.878 0 0 0 .392.369c.325.153 1.088.404 1.75.575a16.36 16.36 0 0 0 2.45.423c.427.042 1.621.06 2.073.03 1.487-.097 2.747-.385 4.043-.924.421-.175.514-.244.63-.466.06-.114.064-.135.064-.332 0-.192-.005-.22-.058-.324a.747.747 0 0 0-.338-.34.585.585 0 0 0-.306-.072l-.182-.009-.288.12c-.579.24-1.009.386-1.548.526-2.122.551-4.634.44-6.934-.307l-.326-.106-.005-6.704c-.005-6.376-.003-6.704.03-6.704.019 0 .094.019.165.042.436.139 1.206.315 1.81.415.832.139 1.326.183 2.183.197 1.251.02 2.19-.078 3.297-.344a11.49 11.49 0 0 0 1.93-.644c.438-.183.534-.219.97-.358 2.079-.664 4.331-.813 6.322-.417.537.106 1.175.289 1.643.469l.165.063.005 3.854.005 3.853.049.1a.899.899 0 0 0 .356.362c.105.053.133.058.325.058s.22-.005.325-.058a.899.899 0 0 0 .356-.362l.049-.1V3.79l-.049-.1a.899.899 0 0 0-.285-.322 3.773 3.773 0 0 0-.36-.166c-1.25-.52-2.485-.81-3.886-.912a21.925 21.925 0 0 0-1.76-.016ZM11.51 8.29a3.244 3.244 0 0 0-2.722 2.74 3.58 3.58 0 0 0 .07 1.284 3.244 3.244 0 0 0 2.328 2.328 3.396 3.396 0 0 0 1.628 0 3.244 3.244 0 0 0 2.328-2.328 3.58 3.58 0 0 0 .07-1.284 3.24 3.24 0 0 0-2.742-2.742 4.465 4.465 0 0 0-.96.002Zm.906 1.512a1.75 1.75 0 0 1 1.286 1.292c.084.354.044.797-.101 1.117a1.823 1.823 0 0 1-.895.892 1.81 1.81 0 0 1-1.679-.145 2.31 2.31 0 0 1-.46-.451 1.778 1.778 0 0 1 0-2.014 2.31 2.31 0 0 1 .46-.451 1.778 1.778 0 0 1 1.389-.24Zm-7.178 1.735c-.421.11-.738.522-.738.959 0 .443.301.85.719.972.062.018.182.032.281.032.099 0 .219-.014.281-.032a1.003 1.003 0 0 0-.281-1.966c-.071 0-.189.016-.262.035Zm13.02 1.751a.856.856 0 0 0-.439.402l-.049.1-.01 1.48-.01 1.48-1.48.01-1.48.01-.1.049a.899.899 0 0 0-.362.356c-.053.105-.058.133-.058.325s.005.22.058.325c.07.137.223.288.362.356l.1.049 1.48.01 1.48.01.01 1.48.01 1.48.058.115c.07.137.223.288.362.356.087.043.128.049.31.049s.223-.006.31-.049a.899.899 0 0 0 .362-.356l.058-.115.01-1.48.01-1.48 1.48-.01 1.48-.01.115-.058a.899.899 0 0 0 .356-.362c.043-.087.049-.128.049-.31 0-.192-.005-.22-.058-.325a.899.899 0 0 0-.362-.356l-.1-.049-1.48-.01-1.48-.01-.01-1.48-.01-1.48-.049-.1a.894.894 0 0 0-.355-.361c-.099-.05-.14-.059-.305-.063a.785.785 0 0 0-.263.022Z" clip-rule="evenodd"/>
</svg>
