<svg xmlns="http://www.w3.org/2000/svg" width="24" height="24" fill="none" viewBox="0 0 24 24">
  <path fill="#161C24" fill-rule="evenodd" d="M16.39 2.774c-1.582.084-3.431.499-4.754 1.067-2.066.887-4.252 1.122-6.666.718-.855-.143-1.978-.453-2.58-.711-.17-.073-.191-.077-.39-.077-.183-.001-.223.005-.31.048a.899.899 0 0 0-.362.356l-.058.115v15.42l.058.115a.878.878 0 0 0 .392.369c.325.153 1.088.404 1.75.575a16.36 16.36 0 0 0 2.45.423c.427.042 1.621.06 2.073.03 1.487-.097 2.747-.385 4.043-.924.421-.175.514-.244.63-.466.06-.114.064-.135.064-.332 0-.192-.005-.22-.058-.324a.747.747 0 0 0-.338-.34.585.585 0 0 0-.306-.072l-.182-.009-.288.12c-.579.24-1.009.386-1.548.526-2.122.551-4.634.44-6.934-.307l-.326-.106-.005-6.704c-.005-6.376-.003-6.704.03-6.704.019 0 .094.019.165.042.436.139 1.206.315 1.81.415.832.139 1.326.183 2.183.197 1.251.02 2.19-.078 3.297-.344a11.49 11.49 0 0 0 1.93-.644c.438-.183.534-.219.97-.358 2.079-.664 4.331-.813 6.322-.417.537.106 1.175.289 1.643.469l.165.063.005 4.604.005 4.603.049.1a.899.899 0 0 0 .356.362c.105.053.133.058.325.058s.22-.005.325-.058a.899.899 0 0 0 .356-.362l.049-.1V4.29l-.049-.1a.899.899 0 0 0-.285-.322 3.773 3.773 0 0 0-.36-.166c-1.25-.52-2.485-.81-3.886-.912a21.925 21.925 0 0 0-1.76-.016ZM11.51 9.29a3.244 3.244 0 0 0-2.722 2.74 3.58 3.58 0 0 0 .07 1.284 3.244 3.244 0 0 0 2.328 2.328 3.396 3.396 0 0 0 1.628 0 3.244 3.244 0 0 0 2.328-2.328 3.58 3.58 0 0 0 .07-1.284 3.24 3.24 0 0 0-2.742-2.742 4.465 4.465 0 0 0-.96.002Zm6.712 1.242c-.417.112-.725.534-.721.986.005.476.378.9.851.969.687.099 1.256-.5 1.128-1.189a1.039 1.039 0 0 0-.709-.767 1.32 1.32 0 0 0-.549.001Zm-5.806.27a1.75 1.75 0 0 1 1.286 1.292c.084.354.044.797-.101 1.117a1.823 1.823 0 0 1-.895.892 1.81 1.81 0 0 1-1.679-.145 2.31 2.31 0 0 1-.46-.451 1.778 1.778 0 0 1 0-2.014 2.31 2.31 0 0 1 .46-.451 1.778 1.778 0 0 1 1.389-.24Zm-7.178 1.735c-.421.11-.738.522-.738.959 0 .443.301.85.719.972.062.018.182.032.281.032.099 0 .219-.014.281-.032a1.003 1.003 0 0 0-.281-1.966c-.071 0-.189.016-.262.035Zm9.52 4.752a.845.845 0 0 0-.439.401c-.043.087-.049.127-.049.31 0 .192.005.22.058.325.07.137.223.288.362.356l.1.049h7.42l.115-.058a.899.899 0 0 0 .356-.362c.043-.087.049-.128.049-.31s-.006-.223-.049-.31a.899.899 0 0 0-.356-.362l-.115-.058-3.69-.004c-3.034-.003-3.703.001-3.762.023Z" clip-rule="evenodd"/>
</svg>
