<svg xmlns="http://www.w3.org/2000/svg" width="24" height="24" fill="none" viewBox="0 0 24 24">
  <path fill="#161C24" fill-rule="evenodd" d="M3.54 2.292a3.001 3.001 0 0 0-1.064.422A2.764 2.764 0 0 0 1.29 4.567c-.027.162-.03.758-.025 5.163l.006 4.98.05.1a.899.899 0 0 0 .355.362c.105.053.133.058.325.058s.22-.005.325-.058a.899.899 0 0 0 .356-.362l.05-.1.01-4.96c.01-4.589.013-4.968.044-5.07.111-.36.351-.65.657-.796.306-.146-.256-.134 6.558-.134 5.117 0 6.19.005 6.28.027a1.3 1.3 0 0 1 .837.667c.13.271.133.303.133 1.096v.71l-3.73.01-3.73.01-.1.049a.899.899 0 0 0-.362.356c-.053.105-.058.133-.058.325s.005.22.058.325c.07.137.223.288.362.356l.1.049 5.21.011c4.825.009 5.218.013 5.32.044.356.11.652.354.797.659.144.302.133-.151.133 5.556 0 4.277-.005 5.189-.027 5.28-.109.442-.45.795-.903.935-.102.031-.466.035-4.82.044l-4.71.011-.115.058a.899.899 0 0 0-.356.362c-.043.087-.049.128-.049.31s.006.223.05.31a.899.899 0 0 0 .355.362l.115.058 4.72.006c5.142.006 4.872.011 5.28-.106a3.42 3.42 0 0 0 .74-.347 2.777 2.777 0 0 0 1.18-1.838c.026-.154.03-.8.03-5.445 0-5.747.007-5.382-.11-5.795a3.402 3.402 0 0 0-.344-.729c-.396-.592-.997-.999-1.726-1.168-.124-.029-.293-.037-.98-.046l-.83-.012-.012-.83c-.009-.687-.017-.856-.046-.98a2.825 2.825 0 0 0-.629-1.252 2.762 2.762 0 0 0-1.618-.897c-.155-.027-.898-.031-6.465-.029-5.219.002-6.315.007-6.44.03Zm13.598 8.987c-.318.058-.732.231-.958.4a2.936 2.936 0 0 0-.484.481 2.71 2.71 0 0 0-.37.77c-.052.185-.056.227-.056.57 0 .343.004.385.056.57.067.244.236.595.37.77.118.155.332.367.484.481.164.122.523.292.75.353.183.049.231.054.57.054.338 0 .387-.005.567-.053.228-.062.547-.211.732-.341a2.69 2.69 0 0 0 .543-.549c.137-.198.27-.484.333-.719.048-.179.053-.228.053-.566 0-.339-.005-.387-.054-.57a2.68 2.68 0 0 0-.37-.77 2.936 2.936 0 0 0-.484-.481 2.795 2.795 0 0 0-.74-.35c-.162-.045-.239-.054-.52-.06a3.494 3.494 0 0 0-.422.01Zm.582 1.505a.753.753 0 0 1 .518.607.746.746 0 0 1-1.476.218.75.75 0 0 1 .958-.825Zm-8.475 1.514a.696.696 0 0 0-.307.215c-.05.054-1.08 1.283-2.288 2.733l-2.196 2.637-1.002-.997C2.285 17.724 2.345 17.77 2 17.77c-.192 0-.22.005-.325.058a.899.899 0 0 0-.356.362c-.043.087-.049.128-.049.31 0 .352-.087.245 1.45 1.781 1.535 1.536 1.428 1.449 1.78 1.449.191 0 .22-.005.321-.056a.927.927 0 0 0 .18-.12 768.36 768.36 0 0 0 5.113-6.134.67.67 0 0 0 .122-.466.659.659 0 0 0-.226-.492c-.153-.145-.258-.188-.48-.196a.657.657 0 0 0-.285.032Z" clip-rule="evenodd"/>
</svg>
