<svg xmlns="http://www.w3.org/2000/svg" width="24" height="24" fill="none" viewBox="0 0 24 24">
  <path fill="#161C24" fill-rule="evenodd" d="M1.758 1.789a.85.85 0 0 0-.439.401.598.598 0 0 0-.055.26c-.007.153.014.246.456 2.01.254 1.017.486 1.908.514 1.979.141.352.386.638.723.842.064.039.246.128.405.199.158.07.292.13.296.133.004.004-.028.099-.073.212a4.313 4.313 0 0 0-.325 1.662c0 .568.088 1.017.291 1.479a3.736 3.736 0 0 0 2.101 2.03c.443.173.832.244 1.328.244a3.608 3.608 0 0 0 1.605-.345c.12-.056.22-.097.223-.093.004.004.066.126.14.269.166.329.265.484.41.635.2.211.488.386.786.478l.146.045 1.98.011 1.98.01.011 1.37c.012 1.483.012 1.483.131 1.895.346 1.198 1.268 2.163 2.428 2.541.53.173.507.171 2.06.183l1.37.011.01.73.01.73.058.115c.07.137.223.288.362.356.087.043.128.049.31.049.192 0 .22-.005.325-.058a.899.899 0 0 0 .356-.362l.05-.1v-4.42l-.059-.115a.899.899 0 0 0-.362-.356c-.087-.043-.128-.049-.31-.049-.192 0-.22.005-.325.058a.899.899 0 0 0-.356.362c-.049.099-.049.106-.059.83l-.01.73h-1.23c-.952 0-1.264-.006-1.38-.027a2.272 2.272 0 0 1-1.788-1.559c-.098-.312-.102-.371-.102-1.684v-1.23l.71-.012c.746-.013.938-.031 1.395-.129a6.23 6.23 0 0 0 2.565-1.225c.252-.2.751-.702.96-.964a6.381 6.381 0 0 0 1.313-3.07c.03-.19.036-.368.036-.85s-.007-.66-.036-.85a6.39 6.39 0 0 0-1.314-3.07 8.24 8.24 0 0 0-.959-.964 6.12 6.12 0 0 0-1.21-.758 6.09 6.09 0 0 0-1.75-.543l-.25-.043-7.69-.005c-6.378-.004-7.702 0-7.762.022ZM16.826 3.26a4.586 4.586 0 0 1 1.657.41 4.771 4.771 0 0 1 2.385 2.454c.084.2.212.573.212.616 0 .012-.769.021-2.145.025l-2.145.005-.1.049a.899.899 0 0 0-.362.356c-.053.105-.058.133-.058.325s.005.22.058.325c.07.137.223.288.362.356l.1.049 2.228.005 2.228.006-.013.166a4.945 4.945 0 0 1-.527 1.813 4.727 4.727 0 0 1-3.236 2.438c-.464.093-.406.092-3.754.092-3.158 0-3.173 0-3.23-.041-.043-.031-.314-.554-1.136-2.191-.628-1.251-1.119-2.206-1.174-2.282a1.834 1.834 0 0 0-.518-.47A90.67 90.67 0 0 0 5.61 6.84c-1.14-.505-1.916-.86-1.94-.887-.03-.033-.128-.39-.369-1.344l-.337-1.334c-.008-.033.324-.035 6.78-.035 4.108.001 6.903.008 7.082.02ZM13.48 6.522a1.095 1.095 0 0 0-.487.27.92.92 0 0 0-.293.708c0 .099.014.219.032.281.122.418.53.719.972.719.437 0 .85-.317.96-.738a1.005 1.005 0 0 0-1.184-1.24ZM5.967 8.639c.493.219.918.413.945.43.034.023.226.388.628 1.192.32.637.58 1.168.58 1.179 0 .052-.439.22-.715.272a2.608 2.608 0 0 1-.395.034 2.25 2.25 0 0 1-2.22-1.818c-.062-.298-.04-.764.053-1.137.054-.216.18-.551.207-.551.011 0 .424.179.917.399Z" clip-rule="evenodd"/>
</svg>
