<svg xmlns="http://www.w3.org/2000/svg" width="24" height="24" fill="none" viewBox="0 0 24 24">
  <path fill="#161C24" fill-rule="evenodd" d="M11.23 2.282c-2.15.177-4.298.984-6.46 2.425a19.938 19.938 0 0 0-3.062 2.517C1.3 7.64 1.27 7.695 1.27 8c0 .189.006.221.055.322a.925.925 0 0 0 .37.364c.079.036.13.044.305.044.304 0 .324-.012.82-.499 1.835-1.805 3.826-3.12 5.826-3.848 1.182-.431 2.227-.626 3.354-.626.486 0 .81.022 1.25.085 2.169.312 4.462 1.426 6.66 3.236.414.341.809.7 1.28 1.163.492.483.5.489.82.489.163 0 .217-.008.295-.044a.916.916 0 0 0 .367-.361c.053-.105.058-.133.058-.325 0-.305-.031-.36-.438-.776a19.833 19.833 0 0 0-4.126-3.176c-1.811-1.036-3.612-1.622-5.432-1.768a16.05 16.05 0 0 0-1.504.002Zm0 4.008c-1.132.109-2.143.404-3.26.951-2.253 1.102-4.513 3.235-6.368 6.01-.315.471-.342.53-.342.755 0 .196.039.289.27.639.987 1.493 2.148 2.866 3.34 3.954 1.9 1.733 3.879 2.754 5.93 3.061a9.182 9.182 0 0 0 2.4 0c1.97-.295 3.854-1.239 5.71-2.862a24.65 24.65 0 0 0 1.45-1.431 22.46 22.46 0 0 0 2.03-2.608c.324-.481.35-.539.35-.765 0-.196-.04-.289-.271-.639-.985-1.491-2.148-2.867-3.34-3.954-1.878-1.712-3.884-2.756-5.87-3.052a9.627 9.627 0 0 0-2.03-.059Zm1.265 1.481c1.145.063 2.435.5 3.645 1.234 1.64.995 3.338 2.676 4.778 4.73l.186.265-.186.265c-1 1.426-2.161 2.715-3.298 3.661-1.761 1.464-3.49 2.221-5.275 2.311-1.505.076-2.99-.335-4.485-1.242-1.641-.995-3.338-2.676-4.778-4.73L2.896 14l.186-.265c1-1.426 2.16-2.715 3.298-3.661 1.57-1.305 3.116-2.048 4.714-2.264.445-.061.825-.071 1.4-.039Zm-.985 2.511a3.775 3.775 0 0 0-2.906 2.138A3.519 3.519 0 0 0 8.26 14c0 .469.058.825.202 1.234a3.762 3.762 0 0 0 3.087 2.487c.294.039.907.014 1.202-.049a3.771 3.771 0 0 0 2.924-2.931c.05-.234.054-.285.054-.741s-.004-.507-.054-.741c-.336-1.567-1.574-2.738-3.138-2.968a5.52 5.52 0 0 0-1.027-.009Zm.86 1.502a2.249 2.249 0 0 1 1.644 3.211 2.247 2.247 0 1 1-1.644-3.211Z" clip-rule="evenodd"/>
</svg>
