<svg xmlns="http://www.w3.org/2000/svg" width="24" height="24" fill="none" viewBox="0 0 24 24">
  <path fill="#161C24" fill-rule="evenodd" d="M11.57 2.272c-1.125.066-2.018.247-2.96.598a9.739 9.739 0 0 0-5.888 6.158 9.628 9.628 0 0 0-.415 1.942 13.947 13.947 0 0 0-.03 1.734c.046.619.179 1.403.276 1.619a.81.81 0 0 0 .358.356c.122.06.38.08.522.04a.81.81 0 0 0 .394-.284c.155-.226.169-.387.077-.855a8.227 8.227 0 0 1 1.242-6.16c.32-.48.659-.884 1.116-1.33A8.187 8.187 0 0 1 9.91 4.029a8.325 8.325 0 0 1 3.62-.127A8.229 8.229 0 0 1 17.748 6.1a8.154 8.154 0 0 1 1.434 1.85 8.277 8.277 0 0 1 1.062 3.91c.003.507-.051.773-.23 1.135a2.247 2.247 0 0 1-4.162-.331c-.068-.217-.088-.358-.112-.804a4.247 4.247 0 0 0-.07-.611 3.78 3.78 0 0 0-2.766-2.888c-.523-.132-1.263-.136-1.774-.009a3.793 3.793 0 0 0-2.778 2.778c-.064.258-.092.545-.092.943 0 1.759.563 3.521 1.654 5.174.805 1.221 1.916 2.372 3.306 3.427.605.459 1.389.984 1.553 1.04a.87.87 0 0 0 .553-.043.79.79 0 0 0 .34-.341c.06-.112.064-.133.064-.33 0-.191-.005-.22-.057-.323-.085-.167-.164-.236-.593-.522-.983-.654-1.68-1.214-2.427-1.951-.524-.517-.924-.98-1.288-1.49-1.048-1.469-1.602-3.057-1.608-4.614-.001-.363.018-.518.096-.765a2.26 2.26 0 0 1 1.482-1.482c.226-.072.395-.096.667-.096.86-.002 1.63.476 2.012 1.248.157.317.218.578.236 1.017.02.499.08.839.212 1.212a3.774 3.774 0 0 0 2.797 2.441c.234.05.285.054.74.054.457 0 .508-.004.742-.054a3.776 3.776 0 0 0 2.797-2.441c.15-.427.202-.76.202-1.298a9.69 9.69 0 0 0-1.875-5.685 10.012 10.012 0 0 0-1.968-2.002 9.733 9.733 0 0 0-4.937-1.94 14.658 14.658 0 0 0-1.39-.037Zm-.1 3-.27.03a6.754 6.754 0 0 0-5.831 5.439c-.1.515-.136 1.401-.091 2.122.175 2.767.97 4.787 2.857 7.247.288.375.405.497.545.566.098.048.132.054.32.054.174 0 .226-.008.305-.044a.925.925 0 0 0 .37-.364c.049-.101.055-.133.055-.322 0-.191-.005-.22-.056-.318a3.4 3.4 0 0 0-.251-.36c-1.137-1.463-1.845-2.743-2.22-4.012-.265-.9-.405-1.791-.441-2.823-.032-.884.023-1.381.225-2.047.498-1.64 1.852-2.979 3.505-3.468A4.819 4.819 0 0 1 12 6.757c.57 0 .98.058 1.508.215a5.282 5.282 0 0 1 3.132 2.573c.37.706.554 1.38.6 2.205.012.198.03.4.04.448.045.187.215.387.41.483.087.043.128.049.31.049s.223-.006.31-.049a.899.899 0 0 0 .362-.356l.058-.115-.001-.41c-.003-1.208-.392-2.451-1.1-3.52a6.759 6.759 0 0 0-4.37-2.911c-.384-.073-.601-.092-1.16-.099a13.233 13.233 0 0 0-.63.002Zm.275 6.026a.674.674 0 0 0-.302.211c-.213.231-.228.436-.09 1.231a8.39 8.39 0 0 0 .452 1.596c.094.24.38.83.526 1.086.936 1.639 2.563 3.124 4.458 4.07.458.229.542.256.76.244a.707.707 0 0 0 .616-.402c.06-.117.065-.136.065-.334 0-.194-.005-.219-.06-.326-.102-.199-.181-.262-.543-.435a10.39 10.39 0 0 1-2.107-1.356 12.64 12.64 0 0 1-1.148-1.143 7.496 7.496 0 0 1-1.128-1.85c-.247-.589-.386-1.127-.493-1.895-.037-.268-.094-.395-.241-.533-.153-.145-.258-.188-.48-.196a.657.657 0 0 0-.285.032Z" clip-rule="evenodd"/>
</svg>
