<svg xmlns="http://www.w3.org/2000/svg" width="24" height="24" fill="none" viewBox="0 0 24 24">
  <path fill="#161C24" fill-rule="evenodd" d="M14.85 1.782a7.029 7.029 0 0 0-1.821.438c-.867.343-1.64.85-2.3 1.509A6.699 6.699 0 0 0 8.9 7.096c-.117.554-.13.697-.129 1.414 0 .585.006.693.046.95.061.391.13.693.236 1.038l.089.289-3.358 3.361c-2.214 2.216-3.395 3.413-3.467 3.512a2.814 2.814 0 0 0-.51 1.12c-.034.155-.037.289-.037 1.55v1.38l.049.1a.899.899 0 0 0 .356.362l.115.058h3.42l.115-.058a.899.899 0 0 0 .356-.362c.049-.099.049-.106.059-.83l.01-.73.73-.01.73-.01.115-.058a.899.899 0 0 0 .356-.362c.049-.099.049-.106.059-.83l.01-.73.72-.011c.396-.006.743-.02.77-.03.181-.07.279-.162 1.852-1.733l1.622-1.619.258.081a6.949 6.949 0 0 0 3.228.201 6.835 6.835 0 0 0 3.415-1.715c.76-.699 1.422-1.726 1.768-2.744a7.085 7.085 0 0 0 .339-1.62 9.406 9.406 0 0 0-.031-1.43c-.21-1.505-.876-2.857-1.921-3.9a6.773 6.773 0 0 0-4.158-1.949 10.84 10.84 0 0 0-1.262.001Zm.925 1.478a5.21 5.21 0 0 1 3.515 1.623c.747.773 1.217 1.727 1.403 2.847.029.177.036.329.036.78-.001.611-.02.777-.15 1.292a5.251 5.251 0 0 1-4.025 3.837 4.876 4.876 0 0 1-1.034.104 5.037 5.037 0 0 1-1.986-.375 3.523 3.523 0 0 0-.378-.131.722.722 0 0 0-.456.066c-.119.057-.273.206-1.83 1.759l-1.7 1.697-.94.005-.94.006-.115.058a.899.899 0 0 0-.356.362c-.049.099-.049.106-.059.83l-.01.73-.73.01-.73.01-.115.058a.899.899 0 0 0-.356.362c-.049.099-.049.106-.059.83l-.01.73h-1.5v-.81c0-.793.001-.813.047-.96.026-.082.074-.2.108-.26.047-.085.868-.919 3.645-3.7 3.4-3.405 3.588-3.597 3.652-3.728.061-.126.067-.155.066-.32 0-.173-.005-.194-.106-.442-.453-1.109-.532-2.203-.242-3.35a5.257 5.257 0 0 1 2.77-3.388c.696-.34 1.304-.491 2.21-.548.028-.002.196.005.375.016Zm1.483 2.528c-.157.06-.268.157-.809.699-.673.676-.679.685-.679 1.013 0 .182.006.223.049.31a.899.899 0 0 0 .356.362c.105.053.133.058.325.058.33 0 .335-.003 1.031-.699s.699-.701.699-1.031c0-.182-.006-.223-.049-.31a.899.899 0 0 0-.356-.362c-.1-.05-.14-.059-.305-.062a.843.843 0 0 0-.262.022Z" clip-rule="evenodd"/>
</svg>
