<svg xmlns="http://www.w3.org/2000/svg" width="24" height="24" fill="none" viewBox="0 0 24 24">
  <path fill="#161C24" fill-rule="evenodd" d="M11.42 1.283a5.65 5.65 0 0 0-1.283.308 5.875 5.875 0 0 0-1.454.84 6.513 6.513 0 0 0-.752.752A5.355 5.355 0 0 0 6.86 5.43c-.084.42-.087.463-.1 1.65l-.01 1.17-.57.011c-.44.008-.606.019-.73.046a2.817 2.817 0 0 0-1.262.63 2.762 2.762 0 0 0-.897 1.618c-.027.154-.031.749-.031 4.945 0 5.199-.007 4.883.11 5.295.057.193.225.552.344.729a2.767 2.767 0 0 0 1.84 1.185c.156.027.902.031 6.436.031 6.81 0 6.393.007 6.8-.11a3.42 3.42 0 0 0 .74-.347 2.777 2.777 0 0 0 1.179-1.838c.027-.154.03-.749.03-4.945 0-5.199.008-4.883-.11-5.295a3.402 3.402 0 0 0-.343-.729c-.396-.592-.986-.992-1.726-1.169-.142-.034-.434-.036-5.23-.046L8.25 8.25V7.24c0-1.096.009-1.233.11-1.634a3.69 3.69 0 0 1 .993-1.753 3.672 3.672 0 0 1 2.627-1.097c.492 0 .85.064 1.27.226.416.16.74.382 1.12.765.39.395.642.793.89 1.413.12.297.209.406.42.514.1.051.129.056.32.055.189 0 .22-.006.324-.056a.824.824 0 0 0 .349-.35c.052-.103.057-.131.057-.323-.001-.207-.002-.214-.106-.467-.344-.84-.738-1.429-1.332-1.989a4.406 4.406 0 0 0-1.162-.805c-.685-.338-1.331-.481-2.15-.476-.215.001-.467.01-.56.02Zm6.9 8.502c.357.111.652.354.797.659.144.302.133-.099.133 5.056 0 3.857-.005 4.689-.027 4.78a1.3 1.3 0 0 1-.667.837c-.303.144.253.133-6.556.133-5.117 0-6.19-.005-6.28-.027a1.3 1.3 0 0 1-.837-.667c-.144-.302-.133.099-.133-5.056 0-3.857.005-4.689.027-4.78a1.274 1.274 0 0 1 1.063-.959c.072-.009 2.884-.014 6.25-.013 5.71.002 6.127.005 6.23.037Zm-6.562 4.003a.856.856 0 0 0-.44.402l-.048.1v2.42l.058.115c.07.137.223.288.362.356.087.043.128.049.31.049s.223-.006.31-.049a.899.899 0 0 0 .362-.356l.058-.115v-2.42l-.05-.1a.894.894 0 0 0-.354-.361c-.1-.05-.14-.059-.305-.063a.785.785 0 0 0-.263.022Z" clip-rule="evenodd"/>
</svg>
