<svg xmlns="http://www.w3.org/2000/svg" width="24" height="24" fill="none" viewBox="0 0 24 24">
  <path fill="#161C24" fill-rule="evenodd" d="M11.336 4.28c-1.722.165-3.407.875-5.157 2.172-.712.528-1.272 1.018-2.04 1.787a20.531 20.531 0 0 0-1.855 2.095c-.35.452-.496.731-.59 1.13a3.112 3.112 0 0 0 0 1.072c.094.399.24.678.59 1.13.614.79 1.138 1.381 1.894 2.134.58.579.902.872 1.442 1.313 1.635 1.336 3.35 2.202 4.947 2.496.589.109.722.12 1.433.119.71 0 .85-.012 1.433-.119 1.596-.294 3.312-1.16 4.947-2.496a21.925 21.925 0 0 0 2.843-2.835c.362-.434.695-.868.798-1.04a2.434 2.434 0 0 0 .017-2.449c-.144-.253-.764-1.027-1.36-1.7a29.83 29.83 0 0 0-1.738-1.731c-1.16-1.003-2.148-1.677-3.211-2.191a8.978 8.978 0 0 0-2.8-.858 12.794 12.794 0 0 0-1.593-.029Zm1.252 1.502c1.904.172 4.002 1.336 6.069 3.368.664.653 1.113 1.15 1.713 1.9.42.525.49.66.49.95 0 .29-.07.425-.49.95-.6.75-1.05 1.247-1.713 1.9-2.07 2.035-4.108 3.167-6.067 3.371a8.013 8.013 0 0 1-1.18 0c-1.958-.204-4-1.338-6.067-3.371a19.413 19.413 0 0 1-1.713-1.9c-.42-.525-.49-.66-.49-.95 0-.29.066-.419.476-.931.61-.763 1.057-1.26 1.727-1.919 1.975-1.942 3.937-3.069 5.81-3.34a6.076 6.076 0 0 1 1.435-.028Zm-1.078 2.5a3.783 3.783 0 0 0-2.715 1.778 4.1 4.1 0 0 0-.443 1.07 4.29 4.29 0 0 0-.061 1.407c.23 1.564 1.4 2.802 2.968 3.138.234.05.285.054.74.054.457 0 .508-.004.742-.054a3.77 3.77 0 0 0 2.934-2.934c.05-.234.054-.285.054-.741s-.004-.507-.054-.741c-.336-1.567-1.574-2.738-3.138-2.968a5.52 5.52 0 0 0-1.027-.009Zm.86 1.502a2.249 2.249 0 0 1 1.644 3.211 2.247 2.247 0 1 1-1.644-3.211Z" clip-rule="evenodd"/>
</svg>
