<svg xmlns="http://www.w3.org/2000/svg" width="24" height="24" fill="none" viewBox="0 0 24 24">
  <path fill="#161C24" fill-rule="evenodd" d="M2.758 2.288a.856.856 0 0 0-.44.402c-.042.087-.048.127-.048.31 0 .355-.12.212 1.716 2.053l1.598 1.602-.257.207a15.914 15.914 0 0 0-2.27 2.249c-.64.781-1.357 1.835-1.683 2.473-.093.182-.102.212-.11.367-.011.214.014.294.21.659 1.024 1.903 2.576 3.675 4.36 4.978 1.573 1.148 3.373 1.892 5.056 2.091a10.45 10.45 0 0 0 1.804.04c1.413-.114 2.796-.559 4.163-1.34l.288-.164 1.702 1.699C20.8 21.861 20.644 21.73 21 21.73c.192 0 .22-.005.325-.058a.899.899 0 0 0 .356-.362c.043-.087.049-.128.049-.31 0-.192-.005-.221-.06-.33-.051-.107-1.013-1.076-9.14-9.201-8.124-8.126-9.093-9.088-9.2-9.14-.104-.051-.146-.06-.31-.063a.843.843 0 0 0-.262.022Zm8.522 1.993a9.513 9.513 0 0 0-1.94.379c-.305.096-.433.176-.538.34a.66.66 0 0 0-.118.465.673.673 0 0 0 .21.482.69.69 0 0 0 .48.209c.144.008.19.001.4-.062 1.764-.53 3.443-.447 5.236.26 2.088.823 4.202 2.628 5.64 4.816.247.373.49.784.49.825 0 .038-.268.479-.525.865a11.77 11.77 0 0 1-1.451 1.8c-.43.436-.454.477-.454.78 0 .174.008.226.044.305a.916.916 0 0 0 .36.367c.106.053.134.058.326.058.202 0 .215-.003.34-.07.223-.12.855-.775 1.357-1.406.528-.665 1.148-1.613 1.485-2.271.097-.191.106-.22.114-.374.01-.214-.014-.294-.211-.659-.914-1.701-2.268-3.318-3.815-4.56-1.793-1.439-3.685-2.277-5.69-2.521-.313-.038-1.436-.057-1.74-.028ZM7.784 8.855 8.898 9.97l-.101.16a3.737 3.737 0 0 0-.556 2.195A3.608 3.608 0 0 0 9.31 14.69c.7.7 1.598 1.073 2.59 1.073.714 0 1.386-.191 1.97-.56l.16-.101 1.005 1.004c.912.911 1.002 1.007.97 1.031a7.528 7.528 0 0 1-.431.224c-1.996.991-3.985 1.152-6.024.487-1.26-.411-2.468-1.111-3.62-2.093a14.055 14.055 0 0 1-2.581-2.925c-.237-.36-.49-.783-.49-.822 0-.037.396-.657.632-.991a14.578 14.578 0 0 1 2.856-3.05 3.57 3.57 0 0 1 .303-.227c.01 0 .52.502 1.134 1.115Zm5.07 5.199a2.63 2.63 0 0 1-.672.2c-.48.07-1.04-.06-1.472-.342a2.185 2.185 0 0 1-.784-2.718l.06-.137 1.477 1.476 1.477 1.476-.085.045Z" clip-rule="evenodd"/>
</svg>
