<svg xmlns="http://www.w3.org/2000/svg" width="24" height="24" fill="none" viewBox="0 0 24 24">
  <path fill="#161C24" fill-rule="evenodd" d="M7.37 3.291a2.77 2.77 0 0 0-1.957 1.41A93.584 93.584 0 0 0 4.51 6.83c-.448 1.078-.82 1.966-.827 1.974-.007.007-.31-.211-.677-.485-.752-.563-.767-.571-1.053-.554a.796.796 0 0 0-.258.052.893.893 0 0 0-.366.358c-.053.106-.058.132-.057.325.001.242.034.338.163.482.042.046.4.327.796.624l.737.554c.01.008-.29.475-.665 1.038-.698 1.046-.793 1.206-.897 1.502-.144.407-.135.166-.135 3.56v3.05l.045.156c.05.168.153.39.252.534.212.312.58.573.967.685.151.043.184.045.966.045s.815-.002.966-.045a1.78 1.78 0 0 0 1.217-1.209c.042-.137.045-.197.056-.936l.011-.79h12.5l.011.79c.011.739.014.799.056.936.05.162.155.385.25.524.212.312.58.573.967.685.151.043.184.045.966.045s.815-.002.966-.045a1.772 1.772 0 0 0 1.22-1.219l.044-.156v-3.05c0-3.394.01-3.153-.135-3.56-.104-.296-.199-.456-.897-1.502-.374-.563-.674-1.03-.665-1.038l.737-.554c.396-.297.754-.578.796-.624.13-.144.163-.241.163-.482.001-.193-.004-.219-.057-.325a.893.893 0 0 0-.366-.358.796.796 0 0 0-.258-.052c-.286-.017-.3-.009-1.053.554-.366.274-.67.492-.677.485-.007-.008-.379-.896-.827-1.974a89.613 89.613 0 0 0-.905-2.13c-.33-.623-.96-1.139-1.62-1.331-.396-.114-.153-.109-4.986-.107-3.639.002-4.479.007-4.61.029Zm9.08 1.487c.055.014.177.063.27.108.22.107.438.318.544.524.128.25 1.701 4.053 1.683 4.069a8.427 8.427 0 0 1-.552.148l-.534.133H6.14l-.534-.133a8.427 8.427 0 0 1-.552-.148C5.035 9.463 6.608 5.66 6.736 5.41a1.18 1.18 0 0 1 .226-.293c.218-.219.442-.322.788-.364.033-.004 1.982-.006 4.33-.004 3.401.002 4.29.008 4.37.029ZM5.12 11.05l.76.19h12.24l.771-.193c.442-.11.778-.185.788-.175.026.029 1.343 2.01 1.401 2.109.081.137.141.328.162.518.011.102.017 1.269.013 2.872-.005 2.541-.007 2.704-.04 2.755-.08.123-.089.124-.715.124s-.634-.001-.715-.124c-.032-.05-.036-.149-.045-1.195l-.01-1.141-.058-.115a.899.899 0 0 0-.362-.356l-.1-.049H4.79l-.115.058a.899.899 0 0 0-.356.362l-.049.1-.01 1.141c-.009 1.046-.013 1.145-.045 1.195-.08.123-.089.124-.715.124s-.634-.001-.715-.124c-.033-.051-.035-.214-.04-2.755-.004-1.603.002-2.77.013-2.872.021-.19.081-.381.162-.518a79.236 79.236 0 0 1 1.424-2.121c.01 0 .358.085.776.19Zm.618 1.987c-.42.11-.738.522-.738.959 0 .437.29.839.697.965.263.081.61.039.83-.101.235-.149.416-.424.458-.698A1.003 1.003 0 0 0 6 13.002c-.07 0-.189.016-.262.035Zm12 0c-.42.11-.738.522-.738.959 0 .437.29.839.697.965.263.081.61.039.83-.101.235-.149.416-.424.458-.698a1.003 1.003 0 0 0-.985-1.16c-.072 0-.189.016-.262.035Z" clip-rule="evenodd"/>
</svg>
