<svg xmlns="http://www.w3.org/2000/svg" width="24" height="24" fill="none" viewBox="0 0 24 24">
  <path fill="#161C24" fill-rule="evenodd" d="M5.78 1.289a2.456 2.456 0 0 0-.75.251 2.657 2.657 0 0 0-1.07.923c-.116.173-2.606 5.117-2.673 5.306-.024.067-.028 1.021-.027 6.29 0 6.771-.007 6.323.11 6.736.057.193.225.551.344.729a2.767 2.767 0 0 0 1.84 1.185c.156.027 1.105.031 8.436.031 8.994 0 8.39.007 8.8-.11a3.42 3.42 0 0 0 .74-.347 2.778 2.778 0 0 0 1.179-1.839c.027-.153.03-.925.03-6.385.002-5.256-.002-6.224-.026-6.29-.067-.189-2.557-5.133-2.673-5.306a2.657 2.657 0 0 0-1.07-.923 2.408 2.408 0 0 0-.77-.252c-.241-.039-12.187-.038-12.42.001ZM11.25 5v2.25l-4.015.005c-2.208.003-4.015 0-4.015-.005 0-.006.445-.899.989-1.985 1.093-2.183 1.055-2.117 1.346-2.307.163-.106.339-.172.528-.197.07-.009 1.26-.015 2.647-.014l2.52.003V5Zm6.82-2.214c.17.051.31.118.435.211.242.178.228.153 1.286 2.268.544 1.086.989 1.979.989 1.985 0 .005-1.807.008-4.015.005L12.75 7.25l-.005-2.23c-.003-1.227-.001-2.242.004-2.256.008-.02.509-.024 2.606-.019 2.417.005 2.603.008 2.715.041Zm3.18 11.674c0 4.731-.005 5.729-.027 5.82a1.3 1.3 0 0 1-.943.943c-.164.04-16.396.04-16.56 0a1.316 1.316 0 0 1-.935-.903c-.032-.102-.035-.509-.04-5.82a896.95 896.95 0 0 1 .004-5.735c.008-.02 1.81-.024 9.255-.02l9.246.005v5.71ZM9.258 11.289a.85.85 0 0 0-.44.401c-.042.087-.048.127-.048.31 0 .192.005.22.058.325.07.137.223.288.362.356l.1.049h5.42l.1-.049a.899.899 0 0 0 .362-.356c.053-.105.058-.133.058-.325s-.005-.22-.058-.325a.899.899 0 0 0-.362-.356l-.1-.049-2.69-.004c-2.202-.003-2.703.001-2.762.023Z" clip-rule="evenodd"/>
</svg>
