<svg xmlns="http://www.w3.org/2000/svg" width="24" height="24" fill="none" viewBox="0 0 24 24">
  <path fill="#161C24" fill-rule="evenodd" d="M11.25 1.298c-.055.019-2.13.938-4.61 2.04-2.845 1.265-4.542 2.03-4.595 2.071a.722.722 0 0 0-.245.325l-.041.11v6.135c0 5.179.006 6.15.029 6.228a.758.758 0 0 0 .386.46c.053.027 2.125.952 4.606 2.056l4.51 2.007.21-.001h.21l1.257-.506a57.78 57.78 0 0 0 1.375-.564.73.73 0 0 0 .328-.333c.055-.107.06-.132.06-.326 0-.198-.004-.217-.065-.334a.75.75 0 0 0-.34-.336c-.106-.056-.131-.06-.325-.06l-.21.001-.755.304a23.31 23.31 0 0 1-.775.305c-.032 0-.027-10.37.005-10.394.027-.021 7.462-3.326 7.482-3.326.007 0 .015.907.018 2.015l.005 2.016.064.129a.783.783 0 0 0 .346.353c.1.052.128.057.32.057.19 0 .22-.005.325-.056a.827.827 0 0 0 .346-.337.87.87 0 0 0 .07-.252c.014-.101.019-1.048.015-2.695l-.006-2.54-.047-.116a.87.87 0 0 0-.387-.409c-.25-.122-8.97-3.992-9.074-4.028a.876.876 0 0 0-.492.001Zm1.594 2.118c.712.316 1.295.578 1.295.584 0 .006-1.606.723-3.57 1.595L7 7.18l-1.318-.585c-.726-.322-1.32-.59-1.32-.595 0-.022 7.13-3.177 7.159-3.168.017.006.613.269 1.324.584Zm4.5 2A60.85 60.85 0 0 1 18.639 6c0 .005-1.606.723-3.57 1.595L11.5 9.18l-1.318-.585c-.726-.322-1.32-.59-1.32-.595 0-.022 7.13-3.177 7.159-3.168.017.006.613.269 1.324.584ZM7.05 8.841a529.15 529.15 0 0 1 3.685 1.645c.02.015.025 1.076.025 5.186 0 2.843-.006 5.168-.013 5.168-.012 0-7.247-3.214-7.422-3.297l-.065-.03V7.159l.065.028c.036.015 1.712.759 3.725 1.654Zm-1.77 1.444a.755.755 0 0 0-.445.381c-.061.117-.065.137-.065.334 0 .194.005.219.06.326a.73.73 0 0 0 .328.333c.065.033.683.287 1.375.565l1.257.505.21.001c.194 0 .219-.004.326-.06a.75.75 0 0 0 .339-.336c.06-.117.065-.136.065-.334 0-.194-.005-.219-.06-.326a.73.73 0 0 0-.328-.333 55.273 55.273 0 0 0-1.375-.563l-1.257-.504-.18-.007a.893.893 0 0 0-.25.018Zm10.978 3.003a.856.856 0 0 0-.44.402c-.042.087-.048.127-.048.31 0 .345-.05.282 1.138 1.475l1.02 1.025-1.02 1.025C15.72 18.718 15.77 18.655 15.77 19c0 .182.006.223.049.31a.899.899 0 0 0 .356.362c.105.053.133.058.325.058.345 0 .282.049 1.475-1.138L19 17.572l1.025 1.02c1.193 1.187 1.13 1.138 1.475 1.138.192 0 .22-.005.325-.058a.899.899 0 0 0 .356-.362c.043-.087.049-.128.049-.31 0-.345.049-.282-1.138-1.475l-1.02-1.025 1.02-1.025c1.187-1.193 1.138-1.13 1.138-1.475 0-.192-.005-.22-.058-.325a.899.899 0 0 0-.362-.356c-.087-.043-.128-.049-.31-.049-.345 0-.282-.049-1.475 1.138L19 15.428l-1.025-1.02c-1.178-1.172-1.13-1.133-1.454-1.142a.785.785 0 0 0-.263.022Z" clip-rule="evenodd"/>
</svg>
