<svg xmlns="http://www.w3.org/2000/svg" width="24" height="24" fill="none" viewBox="0 0 24 24">
  <path fill="#161C24" fill-rule="evenodd" d="M9.53 1.273a1.78 1.78 0 0 0-1.344 1.105 9.979 9.979 0 0 0-.174.754l-.124.618-.179.015a2.751 2.751 0 0 0-1.987 1.109c-.23.308-.29.458-.971 2.506a119.22 119.22 0 0 1-.65 1.926c-.009.009-.19-.1-.406-.241-.23-.153-.427-.269-.482-.284a.895.895 0 0 0-.54.048.8.8 0 0 0-.343.345c-.055.107-.06.132-.06.326 0 .192.005.22.058.324.085.168.171.243.632.548.23.153.419.283.42.289 0 .006-.262.325-.583.71-.32.384-.631.759-.689.832a3.772 3.772 0 0 0-.73 1.434c-.124.483-.12.326-.119 4.053 0 2.267.007 3.437.021 3.51.091.484.402.913.817 1.127.312.162.958.322 1.548.385a6.96 6.96 0 0 0 1.465-.031c.295-.044.663-.128.949-.214.561-.169.937-.537 1.123-1.097.044-.133.047-.175.057-.88l.011-.74h9.5l.011.74c.01.705.013.747.057.88.144.434.418.771.78.957.311.162.957.322 1.547.385a6.96 6.96 0 0 0 1.465-.031c.522-.079 1.024-.216 1.293-.354.414-.213.726-.642.817-1.127.014-.073.021-1.243.021-3.51.001-3.727.005-3.57-.119-4.053a3.852 3.852 0 0 0-.549-1.195 31.011 31.011 0 0 0-.777-.959 40.22 40.22 0 0 1-.676-.822c.001-.006.19-.136.42-.289.461-.305.547-.38.632-.548.053-.104.058-.132.058-.324 0-.194-.005-.219-.06-.326a.8.8 0 0 0-.343-.345.895.895 0 0 0-.54-.048c-.055.015-.252.131-.482.284-.215.141-.397.25-.405.241a119.22 119.22 0 0 1-.65-1.926c-.529-1.588-.656-1.949-.753-2.14a2.53 2.53 0 0 0-.665-.838c-.479-.389-.963-.589-1.54-.637l-.18-.015-.124-.617c-.136-.678-.169-.789-.302-1.018a1.832 1.832 0 0 0-1.026-.802c-.13-.042-.139-.042-2.61-.046-1.364-.001-2.498.001-2.52.006Zm4.784 1.519a.317.317 0 0 1 .081.093c.021.043.185.804.185.859 0 .009-1.16.016-2.58.016-1.419 0-2.58-.007-2.58-.016 0-.039.16-.799.176-.844a.239.239 0 0 1 .168-.141 90.69 90.69 0 0 1 2.28-.012c2.211.003 2.213.003 2.27.045Zm2.056 2.495c.36.108.644.338.801.651.04.079 1.29 3.779 1.29 3.817 0 .003-2.908.005-6.46.005-3.554 0-6.46-.002-6.46-.005a218.182 218.182 0 0 1 1.288-3.817 1.25 1.25 0 0 1 .971-.677c.072-.009 2.002-.014 4.29-.012 3.931.003 4.167.005 4.28.038Zm3.482 6.807c.605.726.707.857.675.87-.02.008-.31.083-.645.167a7.304 7.304 0 0 0-.712.202.775.775 0 0 0-.337.336c-.059.113-.063.134-.063.331 0 .191.005.22.057.323a.834.834 0 0 0 .351.352.59.59 0 0 0 .272.062c.148.006.223-.01.968-.196.444-.111.813-.197.82-.19.017.017.028 2.409.012 2.562l-.013.124-.247.111c-.93.419-2.02.822-2.63.972-.429.105-.569.12-1.212.134l-.603.012-.315-.948a21.354 21.354 0 0 0-.383-1.086 1.758 1.758 0 0 0-1.206-.942c-.216-.045-5.066-.045-5.282 0-.52.11-.97.461-1.206.942-.037.076-.209.565-.383 1.086l-.315.948-.603-.012c-.643-.014-.783-.029-1.212-.134-.609-.15-1.699-.553-2.63-.972l-.247-.111-.013-.124c-.016-.153-.005-2.545.012-2.562.007-.007.376.079.82.19.745.186.82.202.968.196a.59.59 0 0 0 .272-.062.834.834 0 0 0 .351-.352c.052-.103.057-.132.057-.323 0-.197-.004-.218-.063-.331a.775.775 0 0 0-.337-.336 7.304 7.304 0 0 0-.712-.202 25.031 25.031 0 0 1-.645-.167c-.032-.013.07-.144.675-.87l.712-.854h14.28l.712.854Zm-5.525 4.665c.143.033.155.057.395.779l.233.697c.007.02-.592.025-2.955.025s-2.962-.005-2.955-.025l.233-.697c.237-.714.254-.747.386-.778.093-.022 4.568-.023 4.663-.001ZM3.35 18.916c.85.345 1.6.589 2.182.711l.218.046v.643c0 .546-.005.647-.03.67-.032.03-.317.114-.559.164a4.489 4.489 0 0 1-1.86-.009c-.355-.078-.509-.13-.536-.183-.018-.036-.024-.318-.025-1.165 0-1.055.002-1.117.035-1.106.02.006.278.109.575.229Zm17.906.903c-.005.982-.01 1.143-.036 1.167-.032.03-.317.114-.559.164a4.489 4.489 0 0 1-1.86-.009c-.355-.078-.509-.13-.536-.183-.018-.036-.023-.205-.02-.667l.005-.618.218-.046c.57-.119 1.317-.361 2.157-.699.284-.113.532-.216.55-.227.09-.051.087-.082.081 1.118Z" clip-rule="evenodd"/>
</svg>
