<svg xmlns="http://www.w3.org/2000/svg" width="24" height="24" fill="none" viewBox="0 0 24 24">
  <path fill="#161C24" d="M21.25 12a9.25 9.25 0 1 0-18.5 0 9.25 9.25 0 0 0 18.5 0Zm1.5 0c0 5.937-4.813 10.75-10.75 10.75S1.25 17.937 1.25 12 6.063 1.25 12 1.25 22.75 6.063 22.75 12Z"/>
  <path fill="#161C24" d="M17.75 12a5.75 5.75 0 1 0-11.5 0 5.75 5.75 0 0 0 11.5 0Zm1.5 0a7.25 7.25 0 1 1-14.5 0 7.25 7.25 0 0 1 14.5 0Z"/>
  <path fill="#161C24" d="M10.326 12.1a.75.75 0 0 1 .75 1.3l-4.33 2.5a.75.75 0 0 1-.75-1.3l4.33-2.5Zm6.996-4.035a.75.75 0 0 1 .747 1.292l-.064.042-4.331 2.5a.75.75 0 0 1-.75-1.298l4.33-2.5.068-.036Z"/>
  <path fill="#161C24" d="M12.65 12.375a.75.75 0 0 1 .956-.31l.068.036 4.33 2.5.065.042a.75.75 0 0 1-.747 1.292l-.067-.036-4.331-2.5-.065-.041a.75.75 0 0 1-.21-.983Zm-6.928-4a.75.75 0 0 1 .956-.31l.068.036 4.33 2.5.065.042a.75.75 0 0 1-.746 1.292l-.069-.036-4.33-2.5-.064-.042a.75.75 0 0 1-.21-.982Z"/>
  <path fill="#161C24" d="M11.25 18.5v-5a.75.75 0 0 1 1.5 0v5a.75.75 0 0 1-1.5 0Zm0-8v-5a.75.75 0 0 1 1.5 0v5a.75.75 0 0 1-1.5 0Z"/>
  <path fill="#161C24" d="M12.75 12a.75.75 0 1 0-1.5 0 .75.75 0 0 0 1.5 0Zm1.5 0a2.25 2.25 0 1 1-4.5 0 2.25 2.25 0 0 1 4.5 0Z"/>
</svg>
