<svg xmlns="http://www.w3.org/2000/svg" width="24" height="24" fill="none" viewBox="0 0 24 24">
  <path fill="#161C24" fill-rule="evenodd" d="M1.758 3.289a.845.845 0 0 0-.439.401c-.043.087-.049.127-.049.31 0 .192.005.22.058.325.07.137.223.288.362.356l.1.049 5.641.01c5.346.009 5.644.012 5.695.045.029.02.069.06.089.089.033.051.035.199.039 2.445.005 2.871.007 2.962.064 3.157.169.58.614 1.025 1.206 1.208l.146.046 3.29.01 3.29.01v2.661c0 2.508-.002 2.664-.035 2.715-.083.125-.074.124-.853.124h-.709l-.072-.19a2.743 2.743 0 0 0-2.136-1.769 2.978 2.978 0 0 0-1.24.08 3.402 3.402 0 0 0-.729.343 2.776 2.776 0 0 0-1.057 1.346l-.072.19H9.653l-.072-.19a2.743 2.743 0 0 0-2.136-1.769 3.315 3.315 0 0 0-.89 0 2.94 2.94 0 0 0-1.079.423 2.905 2.905 0 0 0-.749.742 3.474 3.474 0 0 0-.318.629l-.054.155h-.71c-.672 0-.714-.002-.774-.04-.123-.076-.12-.043-.131-1.28l-.01-1.13-.054-.111a.856.856 0 0 0-.355-.355c-.099-.048-.133-.054-.321-.054-.192 0-.22.005-.325.058a.899.899 0 0 0-.356.362l-.049.1v2.54l.065.19c.161.475.476.834.915 1.041.355.168.366.169 1.287.169h.807l.066.184a2.786 2.786 0 0 0 1.066 1.372c.177.119.536.287.729.343a2.86 2.86 0 0 0 1.586.001c.196-.056.554-.224.733-.344a2.776 2.776 0 0 0 1.057-1.346l.072-.19h4.694l.072.19a2.743 2.743 0 0 0 2.136 1.769c.361.063.847.032 1.236-.079.196-.056.554-.224.733-.344a2.78 2.78 0 0 0 1.057-1.346l.072-.19.838-.011c.791-.011.847-.014.985-.056a1.76 1.76 0 0 0 1.243-1.379c.013-.067.021-1.27.021-3.282.001-2.616-.003-3.191-.025-3.255-.026-.075-2.342-3.953-2.572-4.307a3.122 3.122 0 0 0-.743-.739 2.87 2.87 0 0 0-.96-.413c-.136-.032-.32-.037-1.92-.047l-1.77-.011-.013-.29c-.015-.328-.054-.495-.17-.726a1.77 1.77 0 0 0-1.091-.919l-.146-.045-5.75-.004c-4.751-.003-5.763.001-5.822.023ZM18.17 6.786c.234.067.409.169.57.332.14.141.214.259 1.03 1.62.484.807.883 1.48.887 1.495.005.023-.424.027-2.861.022-2.701-.005-2.871-.007-2.922-.04a.417.417 0 0 1-.089-.089c-.033-.051-.035-.166-.04-1.694a76.793 76.793 0 0 1 .004-1.667c.009-.022.301-.026 1.656-.02 1.486.006 1.657.01 1.765.041Zm-16.412.503a.85.85 0 0 0-.439.401c-.043.087-.049.127-.049.31 0 .192.005.22.058.325.07.137.223.288.362.356l.1.049h6.42l.1-.049a.899.899 0 0 0 .362-.356c.053-.105.058-.133.058-.325s-.005-.22-.058-.325a.899.899 0 0 0-.362-.356l-.1-.049-3.19-.004c-2.618-.003-3.203.001-3.262.023Zm0 3a.85.85 0 0 0-.439.401c-.043.087-.049.127-.049.31 0 .192.005.22.058.325.07.137.223.288.362.356l.1.049h4.42l.1-.049a.899.899 0 0 0 .362-.356c.053-.105.058-.133.058-.325s-.005-.22-.058-.325a.899.899 0 0 0-.362-.356l-.1-.049-2.19-.004c-1.787-.003-2.203.001-2.262.023Zm5.532 6.494c.415.086.806.467.92.897a1.81 1.81 0 0 1 0 .64 1.277 1.277 0 0 1-.654.797 1.108 1.108 0 0 1-.556.128c-.223 0-.347-.029-.556-.128a1.277 1.277 0 0 1-.654-.797 1.81 1.81 0 0 1 0-.64c.105-.398.424-.736.82-.87.193-.065.446-.075.68-.027Zm10 0c.415.086.806.467.92.897.017.063.03.199.03.32 0 .37-.105.625-.361.881-.25.25-.526.364-.879.364-.223 0-.347-.029-.556-.128a1.277 1.277 0 0 1-.654-.797 1.52 1.52 0 0 1-.03-.32c0-.368.107-.63.358-.88.32-.317.717-.431 1.172-.337Z" clip-rule="evenodd"/>
</svg>
