<svg xmlns="http://www.w3.org/2000/svg" width="24" height="24" fill="none" viewBox="0 0 24 24">
  <path fill="#161C24" fill-rule="evenodd" d="M5.75 13a2.999 2.999 0 1 0 3 2.998 2.999 2.999 0 0 0-3-2.998Zm-5 2.998a5 5 0 0 1 5-4.998 4.999 4.999 0 1 1 0 9.996 5 5 0 0 1-5-4.998ZM18.25 13a2.999 2.999 0 1 0 3 2.998 2.999 2.999 0 0 0-3-2.998Zm-5 2.998a5 5 0 0 1 5-4.998 4.999 4.999 0 1 1-5 4.998Z" clip-rule="evenodd"/>
  <path fill="#161C24" fill-rule="evenodd" d="M16.28 7.154a1 1 0 0 1 .318 1.378l-5 7.996a1 1 0 0 1-.848.47h-5a1 1 0 0 1 0-2h4.446l4.706-7.526a1 1 0 0 1 1.378-.318Z" clip-rule="evenodd"/>
  <path fill="#161C24" fill-rule="evenodd" d="M3.75 7.002a1 1 0 0 1 1-1h5a1 1 0 1 1 0 2h-.843l4.106 4.85a1 1 0 1 1-1.526 1.293l-5.2-6.143H4.75a1 1 0 0 1-1-1ZM16.103 5.06c.445.026.872.073 1.28.182.724.193 1.192.532 1.399 1.253a1 1 0 0 0 1.922-.553c-.46-1.597-1.633-2.32-2.806-2.633-.87-.232-1.854-.262-2.589-.285-.18-.006-.345-.011-.49-.018-.724-.038-1.207.653-1.021 1.29l3.492 11.987a1 1 0 0 0 1.92-.559L16.103 5.059Z" clip-rule="evenodd"/>
</svg>
