<svg xmlns="http://www.w3.org/2000/svg" width="24" height="24" fill="none" viewBox="0 0 24 24">
  <path fill="#161C24" fill-rule="evenodd" d="M3 7.75V21a1 1 0 1 1-2 0V5a3 3 0 0 1 3-3h16a3 3 0 0 1 3 3v16a1 1 0 1 1-2 0V7.75H3Z" clip-rule="evenodd"/>
  <path fill="#161C24" fill-rule="evenodd" d="M8 18a1 1 0 0 1 1 1v2a1 1 0 1 1-2 0v-2a1 1 0 0 1 1-1Zm8 0a1 1 0 0 1 1 1v2a1 1 0 1 1-2 0v-2a1 1 0 0 1 1-1Zm-5.939-7a1 1 0 0 0-.97.758l-.621 2.485a1 1 0 1 1-1.94-.486l.62-2.485A3 3 0 0 1 10.062 9h3.877a3 3 0 0 1 2.91 2.272l.622 2.486a1 1 0 1 1-1.94.485l-.622-2.486a1 1 0 0 0-.97-.757h-3.877Z" clip-rule="evenodd"/>
  <path fill="#161C24" fill-rule="evenodd" d="M8 13a3 3 0 0 0-3 3v1a3 3 0 0 0 3 3h8a3 3 0 0 0 3-3v-1a3 3 0 0 0-3-3H8Zm2 3.5a1 1 0 1 0-2 0v.01a1 1 0 1 0 2 0v-.01Zm6 0a1 1 0 1 0-2 0v.01a1 1 0 1 0 2 0v-.01Z" clip-rule="evenodd"/>
</svg>
