<svg xmlns="http://www.w3.org/2000/svg" width="24" height="24" fill="none" viewBox="0 0 24 24">
  <path fill="#161C24" fill-rule="evenodd" d="M10.979 1.334a.975.975 0 0 1 .792 0l8.775 3.9c.084.037.16.085.229.142a.75.75 0 0 1 .354.638v8.736h-.504V14a2.25 2.25 0 0 0-4.5 0v.75h-.75a2.25 2.25 0 0 0 0 4.5h.75V20c0 .232.035.456.1.666l-4.546 2.02a.75.75 0 0 1-.609 0l-8.996-4A.75.75 0 0 1 1.63 18V6.212a.978.978 0 0 1 0-.174V6a.75.75 0 0 1 .39-.659.975.975 0 0 1 .185-.107l8.775-3.9ZM5.001 6.125l1.815.807 6.374-2.833-1.815-.807-6.374 2.833Zm6.374 2.833-2.097-.932 6.375-2.833 2.096.932-6.374 2.833Zm-6.696 1.763a.75.75 0 0 1 .975-.417l2.5 1a.75.75 0 1 1-.557 1.392l-2.5-1a.75.75 0 0 1-.418-.975ZM19.375 14a1 1 0 1 0-2 0v2h-2a1 1 0 1 0 0 2h2v2a1 1 0 1 0 2 0v-2h2a1 1 0 1 0 0-2h-2v-2Z" clip-rule="evenodd"/>
</svg>
