<svg xmlns="http://www.w3.org/2000/svg" width="24" height="24" fill="none" viewBox="0 0 24 24">
  <path fill="#161C24" fill-rule="evenodd" d="M2.168 8.945a1 1 0 0 1 1.387-.277l1.5 1a1 1 0 0 1-1.11 1.664l-1.5-1a1 1 0 0 1-.277-1.387Zm19.664 0a1 1 0 0 1-.277 1.387l-1.5 1a1 1 0 1 1-1.11-1.664l1.5-1a1 1 0 0 1 1.387.277Z" clip-rule="evenodd"/>
  <path fill="#161C24" d="M2.834 20.386c.51.204 1.105.422 1.699.591.559.16 1.271.323 1.967.323v.582c0 .379-.215.726-.575.842A5.527 5.527 0 0 1 4.25 23a5.527 5.527 0 0 1-1.675-.276c-.36-.116-.575-.463-.575-.842v-1.847c.249.11.532.23.834.35ZM17.5 21.3v.582c0 .379.215.726.575.842A5.49 5.49 0 0 0 19.75 23c.668 0 1.264-.142 1.675-.276.36-.116.575-.463.575-.842v-1.847c-.249.11-.532.23-.834.35-.51.205-1.105.423-1.699.592-.559.16-1.271.323-1.967.323Z"/>
  <path fill="#161C24" fill-rule="evenodd" d="M4.5 9.5a1 1 0 0 0-.768.36l-1.805 2.165A4 4 0 0 0 1 14.585V17.5a1 1 0 0 0 .553.894l.002.001.142.07a26.607 26.607 0 0 0 1.62.714 16.71 16.71 0 0 0 1.573.548c.521.149 1.096.273 1.61.273h11c.514 0 1.089-.124 1.61-.273a16.704 16.704 0 0 0 1.573-.549 26.591 26.591 0 0 0 1.62-.713l.144-.07A1 1 0 0 0 23 17.5v-2.914a4 4 0 0 0-.927-2.561L20.268 9.86a1 1 0 0 0-.768-.36h-15Zm-.818 3.273a.75.75 0 1 0-.364 1.455l2 .5a.75.75 0 0 0 .364-1.455l-2-.5Zm17.546.545a.75.75 0 0 1-.546.91l-2 .5a.75.75 0 0 1-.364-1.455l2-.5a.75.75 0 0 1 .91.545Zm-6.005 3.366L15.662 18H8.328l.439-1.316A1 1 0 0 1 9.716 16h4.558a1 1 0 0 1 .949.684Z" clip-rule="evenodd"/>
  <path fill="#161C24" fill-rule="evenodd" d="M7.942 5.5a1 1 0 0 0-.949.684L5.45 10.816a1 1 0 1 1-1.897-.632L5.096 5.55A3 3 0 0 1 7.942 3.5h8.117a3 3 0 0 1 2.846 2.051l1.544 4.633a1 1 0 0 1-1.897.632l-1.545-4.632a1 1 0 0 0-.948-.684H7.942Z" clip-rule="evenodd"/>
  <path fill="#161C24" d="M7.859 2.608A2 2 0 0 1 9.82 1h4.36a2 2 0 0 1 1.962 1.608l.339 1.696a1 1 0 0 1-.785 1.177H8.304a1 1 0 0 1-.784-1.177l.339-1.696Z"/>
</svg>
