<svg xmlns="http://www.w3.org/2000/svg" width="24" height="24" fill="none" viewBox="0 0 24 24">
  <path fill="#161C24" d="M17 20.5a2.5 2.5 0 1 0 0-5 2.5 2.5 0 0 0 0 5Zm-10 0a2.5 2.5 0 1 0 0-5 2.5 2.5 0 0 0 0 5Z"/>
  <path fill="#161C24" fill-rule="evenodd" d="M1 5a2 2 0 0 1 2-2h9a2 2 0 0 1 2 2v1h3.039a3 3 0 0 1 2.342 1.126l2.962 3.702A3 3 0 0 1 23 12.702V17a2 2 0 0 1-2 2h-.333A3.804 3.804 0 0 0 17 14.2a3.8 3.8 0 0 0-3.667 4.8h-2.666A3.804 3.804 0 0 0 7 14.2 3.8 3.8 0 0 0 3.333 19H3a2 2 0 0 1-2-2V5Zm18.92 6-2.1-2.625A1 1 0 0 0 17.039 8h-2.413l1.238 2.451a1 1 0 0 0 .893.549h3.162Z" clip-rule="evenodd"/>
</svg>
