<svg xmlns="http://www.w3.org/2000/svg" width="24" height="24" fill="none" viewBox="0 0 24 24">
  <path fill="#161C24" fill-rule="evenodd" d="M1 8a1 1 0 0 1 1-1h6a1 1 0 0 1 0 2H2a1 1 0 0 1-1-1Zm0 3a1 1 0 0 1 1-1h4a1 1 0 1 1 0 2H2a1 1 0 0 1-1-1Z" clip-rule="evenodd"/>
  <path fill="#161C24" fill-rule="evenodd" d="M10.448 3.25c.983 0 1.655 0 2.223.184A3.754 3.754 0 0 1 14.686 5h1.448c.688 0 1.278 0 1.767.05.522.052 1.011.167 1.477.446.467.278.8.654 1.094 1.089.276.407.555.925.881 1.53l1.3 2.414c.08.147.118.305.12.462v2.068c0 1.133 0 2.06-.098 2.791-.103.764-.325 1.427-.855 1.956-.2.2-.419.356-.657.48-.093.047-.14.072-.184.073a.203.203 0 0 1-.189-.114c-.019-.041-.019-.106-.019-.237a3.753 3.753 0 0 0-3.754-3.752 3.753 3.753 0 0 0-3.746 4.009c.016.239.024.358-.035.422-.06.063-.17.063-.391.062l-1.672-.008c-.218 0-.327-.001-.386-.065-.059-.063-.051-.181-.036-.417a3.753 3.753 0 0 0-3.746-4.003 3.753 3.753 0 0 0-3.754 3.752c0 .13 0 .196-.02.236a.203.203 0 0 1-.188.115c-.044-.001-.091-.026-.184-.074a2.626 2.626 0 0 1-.657-.479c-.702-.701-.87-1.644-.925-2.762v-.036l-.003-1.069c-.001-.235-.001-.353.063-.413s.198-.049.466-.028c.065.005.13.008.197.008h4.004a2.502 2.502 0 0 0 2.503-2.502c0-.244 0-.366.028-.426a.22.22 0 0 1 .05-.076c.046-.049.158-.096.384-.19a2.502 2.502 0 0 0-.963-4.811H2c-.213 0-.319 0-.372-.04a.194.194 0 0 1-.074-.113c-.016-.065.017-.143.084-.298.133-.31.315-.593.567-.846.53-.53 1.194-.753 1.96-.856.733-.099 1.662-.099 2.799-.099h3.484Zm9.112 7.004c.3 0 .45 0 .507-.097.059-.098-.012-.23-.154-.493l-.3-.557c-.355-.658-.587-1.087-.8-1.4-.199-.295-.335-.417-.461-.492-.127-.076-.299-.138-.653-.173-.376-.038-.864-.04-1.612-.04h-.418c-.194 0-.292 0-.35.06-.06.06-.058.158-.056.357.003.199.002.397.002.596v.188c0 .804.009 1.027.061 1.187.124.38.422.68.803.803.16.052.384.061 1.188.061h2.243Z" clip-rule="evenodd"/>
  <path fill="#161C24" d="M17 20.5a2.5 2.5 0 1 0 0-5 2.5 2.5 0 0 0 0 5Zm-10 0a2.5 2.5 0 1 0 0-5 2.5 2.5 0 0 0 0 5Z"/>
</svg>
