<svg xmlns="http://www.w3.org/2000/svg" width="24" height="24" fill="none" viewBox="0 0 24 24">
  <path fill="#161C24" d="M1.25 12.014c0-1.745.417-3.395 1.16-4.854a.75.75 0 0 1 1.337.68 9.182 9.182 0 0 0-.997 4.175c0 5.099 4.14 9.235 9.25 9.235s9.25-4.136 9.25-9.236a9.18 9.18 0 0 0-.997-4.174l1.337-.68a10.679 10.679 0 0 1 1.16 4.854c0 5.93-4.814 10.736-10.75 10.736S1.25 17.945 1.25 12.014Zm19.332-5.183a.75.75 0 0 1 1.008.329l-1.337.68a.75.75 0 0 1 .329-1.01ZM12 1.25c2.795 0 5.347.226 7.218.6.93.186 1.73.417 2.317.694.291.138.57.305.786.517.218.212.429.528.429.939 0 .41-.211.727-.429.94a2.892 2.892 0 0 1-.786.516c-.586.277-1.388.508-2.317.693-1.871.375-4.423.601-7.218.601s-5.347-.226-7.218-.6c-.93-.186-1.73-.417-2.317-.694a2.892 2.892 0 0 1-.786-.517C1.46 4.727 1.25 4.411 1.25 4c0-.41.211-.727.429-.94.216-.21.495-.378.786-.516.586-.277 1.388-.508 2.317-.693C6.653 1.476 9.205 1.25 12 1.25Zm0 1.5c-2.727 0-5.176.222-6.924.571-.88.176-1.544.377-1.97.578-.075.036-.138.07-.19.101.052.03.115.065.19.1.426.202 1.09.403 1.97.579 1.748.35 4.197.571 6.924.571 2.727 0 5.176-.222 6.924-.571.88-.176 1.544-.377 1.97-.578.075-.036.137-.07.189-.101a2.434 2.434 0 0 0-.19-.1c-.425-.202-1.089-.403-1.97-.579-1.747-.35-4.196-.571-6.923-.571Z"/>
  <path fill="#161C24" d="M15.4 14.55a.75.75 0 1 1 1.2.9 5.742 5.742 0 0 1-4.6 2.3 5.739 5.739 0 0 1-4.397-2.044L7.4 15.45l-.043-.063a.75.75 0 0 1 1.194-.897l.049.06.15.19A4.239 4.239 0 0 0 12 16.25a4.24 4.24 0 0 0 3.4-1.7Zm-6.154-4.127a.75.75 0 0 0-1.492 0l-.008.154A.75.75 0 0 1 6.25 10.5a2.25 2.25 0 0 1 4.5 0 .75.75 0 0 1-1.496.077l-.008-.154Zm7 0a.75.75 0 0 0-1.492 0l-.008.154a.75.75 0 0 1-1.496-.077 2.25 2.25 0 0 1 4.5 0 .75.75 0 0 1-1.496.077l-.008-.154Z"/>
</svg>
