<svg xmlns="http://www.w3.org/2000/svg" width="24" height="24" fill="none" viewBox="0 0 24 24">
  <path fill="#161C24" d="M21.25 12a9.25 9.25 0 1 0-18.5 0 9.25 9.25 0 0 0 18.5 0Zm1.5 0c0 5.937-4.813 10.75-10.75 10.75S1.25 17.937 1.25 12 6.063 1.25 12 1.25 22.75 6.063 22.75 12Z"/>
  <path fill="#161C24" d="M6.25 9.5a.75.75 0 0 1 1.496-.077l.008.154a.75.75 0 0 0 1.492 0l.008-.154a.75.75 0 0 1 1.496.077 2.25 2.25 0 0 1-4.5 0Zm10 .5c0-.737-.151-1.368-.36-1.786a1.289 1.289 0 0 0-.29-.405.33.33 0 0 0-.096-.059h-.008a.33.33 0 0 0-.096.059c-.08.068-.185.196-.29.405-.209.418-.36 1.049-.36 1.786a.75.75 0 0 1-1.5 0c0-.92.185-1.79.519-2.457.31-.623.88-1.293 1.731-1.293.851 0 1.42.67 1.731 1.293.334.667.519 1.537.519 2.457a.75.75 0 0 1-1.5 0Zm-.064 2.897a.75.75 0 0 1 1 .097l.05.06.117.173c.52.838.603 2.037-.208 2.953l-.187.191c-1.002.929-2.145.852-3.018.62-.424-.114-.834-.277-1.14-.39a3.98 3.98 0 0 0-.533-.17l-.087-.011c-.216-.008-.378.074-.913.38-.443.254-1.019.573-1.869.799l-.38.09c-.755.16-1.454.023-1.977-.38a2.052 2.052 0 0 1-.791-1.64.75.75 0 0 1 1.5 0c0 .2.082.356.207.452.12.092.352.185.751.1l.299-.07c.666-.177 1.115-.424 1.514-.652.425-.244.984-.604 1.711-.578l.143.01c.335.04.68.164.946.263.35.13.67.256 1.005.346.648.172 1.156.154 1.612-.269l.07-.072c.287-.32.307-.737.122-1.094l-.1-.159-.043-.063a.75.75 0 0 1 .2-.986Z"/>
</svg>
