<svg xmlns="http://www.w3.org/2000/svg" width="24" height="24" fill="none" viewBox="0 0 24 24">
  <path fill="#161C24" d="M15.31 20.645a.75.75 0 0 1 .453 1.428l-.445.154c-1.046.34-2.161.523-3.318.523a10.74 10.74 0 0 1-3.318-.523l-.445-.154-.07-.031a.75.75 0 0 1 .522-1.398l.074.024.38.133c.9.291 1.86.449 2.857.449 1.14 0 2.23-.206 3.237-.582l.073-.023ZM21.25 12a9.25 9.25 0 0 0-18.5 0c0 1.58.396 3.067 1.094 4.367l.143.257.035.068a.751.751 0 0 1-1.292.748l-.042-.064-.167-.3A10.706 10.706 0 0 1 1.25 12C1.25 6.063 6.063 1.25 12 1.25S22.75 6.063 22.75 12c0 1.957-.523 3.794-1.439 5.376a.75.75 0 0 1-1.298-.752A9.204 9.204 0 0 0 21.25 12Z"/>
  <path fill="#161C24" d="M12 14.25c1.213 0 2.34.377 3.268 1.019l.182.131.06.05a.75.75 0 0 1-.897 1.193l-.063-.043-.275-.19A4.226 4.226 0 0 0 12 15.75c-.958 0-1.84.316-2.55.85a.75.75 0 0 1-.9-1.2A5.727 5.727 0 0 1 12 14.25Zm-2.5-5.5a.75.75 0 0 1 0 1.5H8.207a.957.957 0 0 0-.606.217l-.07.063A.75.75 0 1 1 6.47 9.47l.18-.163a2.457 2.457 0 0 1 1.557-.557H9.5Zm6.293 0c.57 0 1.12.198 1.558.557l.18.163.051.056a.75.75 0 0 1-1.056 1.056l-.056-.052-.07-.063a.957.957 0 0 0-.607-.217H14.5a.75.75 0 0 1 0-1.5h1.293ZM5.25 22v-9a.75.75 0 0 1 1.5 0v9a.75.75 0 0 1-1.5 0Zm12 0v-9a.75.75 0 0 1 1.5 0v9a.75.75 0 0 1-1.5 0Z"/>
</svg>
