<svg xmlns="http://www.w3.org/2000/svg" width="24" height="24" fill="none" viewBox="0 0 24 24">
  <path fill="#161C24" d="M10 7.75a.75.75 0 1 1 0 1.5H8.707a.957.957 0 0 0-.606.217l-.07.063A.75.75 0 1 1 6.97 8.47l.18-.163a2.457 2.457 0 0 1 1.557-.557H10Zm5.293 0c.57 0 1.12.198 1.558.557l.18.163.051.056a.75.75 0 0 1-1.056 1.056l-.056-.052-.07-.063a.957.957 0 0 0-.607-.217H14a.75.75 0 0 1 0-1.5h1.293Z"/>
  <path fill="#161C24" d="M21.25 12A9.25 9.25 0 1 0 12 21.25a9.219 9.219 0 0 0 3.7-.77.75.75 0 1 1 .6 1.375 10.717 10.717 0 0 1-4.3.895C6.063 22.75 1.25 17.937 1.25 12S6.063 1.25 12 1.25 22.75 6.063 22.75 12c0 2.61-.931 5.006-2.48 6.868a.75.75 0 0 1-1.154-.959A9.21 9.21 0 0 0 21.25 12Z"/>
  <path fill="#161C24" d="M15.4 14.55a.75.75 0 1 1 1.2.9 5.742 5.742 0 0 1-4.6 2.3 5.739 5.739 0 0 1-4.397-2.044L7.4 15.45l-.043-.063a.75.75 0 0 1 1.194-.897l.049.06.15.19A4.239 4.239 0 0 0 12 16.25a4.24 4.24 0 0 0 3.4-1.7Z"/>
  <path fill="#161C24" d="M14.37 15.593a.75.75 0 0 1 .809-.321c.963.237 2.475.63 3.664 1.401.602.39 1.165.904 1.522 1.585.366.696.488 1.512.291 2.437v.006c-.235 1.056-.985 1.695-1.816 1.936-.75.217-1.605.122-2.27-.29l-.13-.086c-.679-.483-1.08-1.015-1.277-1.614-.186-.57-.159-1.131-.133-1.58.053-.902.13-1.645-.62-2.605a.75.75 0 0 1-.04-.87Zm2.054 1.593c.194.756.135 1.424.103 1.968-.026.46-.026.758.062 1.027.078.238.25.523.722.858l.109.068c.272.144.651.19 1.003.088.37-.107.666-.363.767-.819.127-.601.04-1.056-.152-1.42-.2-.383-.546-.722-1.012-1.024-.478-.31-1.038-.552-1.602-.746Z"/>
</svg>
