<svg xmlns="http://www.w3.org/2000/svg" width="24" height="24" fill="none" viewBox="0 0 24 24">
  <path fill="#161C24" d="M20.25 13a8.24 8.24 0 0 0-.429-2.634l-.127-.35c-.078-.203-.149-.382-.198-.533a1.837 1.837 0 0 1-.102-.52c-.01-.332.108-.66.207-.968l1.235-3.832-3.057.986.35.268.058.05a.75.75 0 0 1-.939 1.16l-.062-.044-.359-.275a8.255 8.255 0 0 0-.76-.488l-.4-.213A8.213 8.213 0 0 0 12 4.75a8.22 8.22 0 0 0-3.246.663l-.42.194a8.259 8.259 0 0 0-1.52.976.75.75 0 1 1-.943-1.166c.114-.092.23-.18.349-.268l-3.057-.986L4.4 7.995l.076.234c.062.199.117.403.13.61l.002.125a1.839 1.839 0 0 1-.103.52l-.198.531A8.23 8.23 0 0 0 3.75 13a8.25 8.25 0 1 0 16.5 0Zm1.5 0c0 5.385-4.365 9.75-9.75 9.75S2.25 18.385 2.25 13a9.74 9.74 0 0 1 .657-3.526l.171-.457c.034-.102.03-.117.029-.096l-.017-.08-.118-.386L1.286 3.23a.75.75 0 0 1 .945-.944L7.947 4.13A9.717 9.717 0 0 1 12 3.25c1.444 0 2.817.315 4.052.88l5.718-1.844.101-.025a.75.75 0 0 1 .843.97l-1.686 5.224a7.34 7.34 0 0 0-.118.386.632.632 0 0 0-.016.08c-.001-.02-.005-.006.028.096.034.103.086.239.17.457l.15.414A9.74 9.74 0 0 1 21.75 13Z"/>
  <path fill="#161C24" d="M14.613 16.357a.75.75 0 0 1 .897 1.194l-.06.049A5.727 5.727 0 0 1 12 18.75a5.726 5.726 0 0 1-3.268-1.019L8.55 17.6l-.06-.048a.75.75 0 0 1 .897-1.194l.063.043.275.19c.657.418 1.437.66 2.275.66.958 0 1.84-.316 2.55-.85l.063-.043ZM7 9.25c.26 0 .76-.002 1.303.102.537.102 1.189.32 1.71.811l.208.21c.074.08.15.17.22.269.126.176.309.483.309.858a1.25 1.25 0 1 1-2.5-.012l.012-.147c.022-.159.075-.3.135-.418a2.799 2.799 0 0 0-.375-.098A5.403 5.403 0 0 0 7 10.75a.75.75 0 0 1 0-1.5Zm10 0a.75.75 0 0 1 0 1.5c-.26 0-.633.001-1.023.075a2.811 2.811 0 0 0-.375.098c.06.119.114.26.136.418l.012.147-.004.122a1.25 1.25 0 0 1-2.496-.11c0-.375.183-.682.309-.858a3.32 3.32 0 0 1 .427-.479l.201-.172c.482-.372 1.04-.55 1.51-.64.543-.103 1.043-.101 1.303-.101Z"/>
</svg>
