<svg xmlns="http://www.w3.org/2000/svg" width="24" height="24" fill="none" viewBox="0 0 24 24">
  <path fill="#161C24" d="M21.25 12a9.25 9.25 0 1 0-18.5 0 9.25 9.25 0 0 0 18.5 0Zm1.5 0c0 5.937-4.813 10.75-10.75 10.75S1.25 17.937 1.25 12 6.063 1.25 12 1.25 22.75 6.063 22.75 12Z"/>
  <path fill="#161C24" d="M15.4 14.55a.75.75 0 1 1 1.2.9 5.742 5.742 0 0 1-4.6 2.3 5.739 5.739 0 0 1-4.397-2.044L7.4 15.45l-.043-.063a.75.75 0 0 1 1.194-.897l.049.06.15.19A4.239 4.239 0 0 0 12 16.25a4.24 4.24 0 0 0 3.4-1.7Zm-.976-7.53a.75.75 0 0 1 1.153.96l-.007.007-.026.033c-.024.03-.059.074-.1.13l-.003.002.059-.002c.68 0 1.406.225 1.942.732l.105.105.05.059a.75.75 0 0 1-1.09 1.02l-.054-.053-.084-.078c-.21-.175-.52-.285-.869-.285-.35 0-.66.11-.87.285l-.083.078A.75.75 0 0 1 13.25 9.5c0-.342.103-.672.214-.938.115-.276.262-.538.4-.76a8.022 8.022 0 0 1 .506-.716l.037-.046.011-.014.004-.003V7.02h.002l.325.27-.325-.271ZM8.52 6.924a.75.75 0 0 1 1.056.096l-.325.271.325-.27h.001l.001.002.004.003.011.014.037.046c.031.04.075.095.126.164.103.137.24.33.38.553.138.22.286.483.4.759.111.266.214.596.214.938l-.009.113a.75.75 0 0 1-1.204.477l-.084-.077c-.205-.22-.553-.363-.953-.363-.4 0-.747.143-.953.363a.75.75 0 1 1-1.094-1.026c.545-.58 1.322-.837 2.047-.837l.058.002-.001-.002a6.134 6.134 0 0 0-.1-.13l-.027-.033-.006-.006V7.98a.75.75 0 0 1 .096-1.056Z"/>
</svg>
