<svg xmlns="http://www.w3.org/2000/svg" width="24" height="24" fill="none" viewBox="0 0 24 24">
  <path fill="#161C24" d="M21.25 12a9.25 9.25 0 1 0-18.5 0 9.25 9.25 0 0 0 18.5 0Zm1.5 0c0 5.937-4.813 10.75-10.75 10.75S1.25 17.937 1.25 12 6.063 1.25 12 1.25 22.75 6.063 22.75 12Z"/>
  <path fill="#161C24" d="M11.7 1.36a.75.75 0 0 1 .847 1.236l-.132.106c-.62.53-.713 1.064-.646 1.472.083.507.42.892.66 1.009l.068.026c.168.055.412.055.697-.003a2.922 2.922 0 0 0 .476-.142l.023-.01v-.001l.072-.028a.75.75 0 0 1 .542 1.397L14 5.738l.307.685h-.004l-.005.004-.016.007-.05.02a4.417 4.417 0 0 1-.736.22c-.429.089-1.105.157-1.722-.144v.001c-.716-.348-1.329-1.17-1.485-2.113-.167-1.015.194-2.133 1.347-3.014l.063-.044ZM8.009 8l.102.005a1 1 0 0 1 0 1.99L8.01 10H8a1 1 0 0 1 0-2h.009ZM16 8a1 1 0 1 1 0 2h-.009a1 1 0 1 1 0-2H16Zm-.6 6.55a.75.75 0 1 1 1.2.9 5.742 5.742 0 0 1-4.6 2.3 5.739 5.739 0 0 1-4.397-2.044L7.4 15.45l-.043-.063a.75.75 0 0 1 1.194-.897l.049.06.15.19A4.239 4.239 0 0 0 12 16.25a4.24 4.24 0 0 0 3.4-1.7Z"/>
</svg>
