<svg xmlns="http://www.w3.org/2000/svg" width="24" height="24" fill="none" viewBox="0 0 24 24">
  <path fill="#161C24" d="M1.25 12C1.25 6.063 6.063 1.25 12 1.25c5.711 0 10.434 4.623 10.734 10.205l.016.544-.004.076a.75.75 0 0 1-1.492.003l-.004-.077-.014-.467C20.977 6.734 16.9 2.75 12 2.75a9.25 9.25 0 1 0 2.775 18.076.75.75 0 0 1 .45 1.432c-1.02.32-2.103.492-3.225.492-5.937 0-10.75-4.813-10.75-10.75Z"/>
  <path fill="#161C24" d="M16.246 9.423a.75.75 0 0 0-1.492 0l-.008.154A.75.75 0 0 1 13.25 9.5a2.25 2.25 0 0 1 4.5 0 .75.75 0 0 1-1.496.077l-.008-.154ZM8.009 8l.102.005a1 1 0 0 1 0 1.99L8.01 10H8a1 1 0 0 1 0-2h.009ZM10 13.25c.472 0 2.285-.025 3.53 1.22l.052.056a.75.75 0 0 1 0 .948l-.052.056-.47.47.47.47.052.056a.75.75 0 0 1-.052 1.004c-1.245 1.246-3.058 1.22-3.53 1.22a.75.75 0 1 1 0-1.5c.397 0 1.167-.015 1.846-.344l-.376-.376a.75.75 0 0 1 0-1.06l.376-.377c-.679-.329-1.449-.343-1.846-.343a.75.75 0 1 1 0-1.5Zm7.452.041c.871-.155 1.554.176 1.994.53.099.079.186.161.263.24.077-.025.16-.048.249-.066.595-.117 1.342 0 2.028.689l.156.173c.737.891.799 2.23.204 3.366-.613 1.169-1.893 2.122-3.852 2.462l-.401.06a.75.75 0 0 1-.511-.122l-.063-.047c-1.645-1.37-2.318-2.966-2.271-4.361.046-1.349.8-2.583 2.027-2.887l.177-.037Zm.32 1.469-.136.024c-.384.095-.859.583-.89 1.482-.026.798.327 1.88 1.485 2.941 1.6-.275 2.432-1.007 2.785-1.68.37-.707.254-1.367-.033-1.718l-.06-.067c-.311-.313-.542-.301-.674-.275a.778.778 0 0 0-.276.116l-.007.005.004-.003.003-.003h.002l.001-.003a.749.749 0 0 1-1.127-.206l-.012-.018a1.628 1.628 0 0 0-.33-.365c-.193-.156-.43-.267-.736-.23Z"/>
</svg>
