<svg xmlns="http://www.w3.org/2000/svg" width="24" height="24" fill="none" viewBox="0 0 24 24">
  <path fill="#161C24" d="M18.537 18.585a.75.75 0 0 1 .984 1.13l-.373.344A10.79 10.79 0 0 1 12 22.75a10.79 10.79 0 0 1-7.149-2.691l-.373-.344-.051-.057a.75.75 0 0 1 1.036-1.073l.058.05.32.297A9.29 9.29 0 0 0 12 21.25c2.52 0 4.803-.996 6.478-2.614l.059-.051ZM12 1.25c5.422 0 9.915 3.979 10.683 9.17l.063.506.004.076a.75.75 0 0 1-1.485.148l-.011-.076-.054-.434c-.66-4.461-4.526-7.89-9.2-7.89-4.674 0-8.54 3.429-9.2 7.89l-.054.434a.75.75 0 0 1-1.492-.148l.062-.506C2.085 5.229 6.577 1.25 12 1.25Z"/>
  <path fill="#161C24" d="m16 13.25.077.004a.75.75 0 0 1 .673.746 4.75 4.75 0 0 1-9.5 0l.004-.077A.75.75 0 0 1 8 13.25h8Zm-7.162 1.5a3.25 3.25 0 0 0 6.324 0H8.838Zm.408-5.327a.75.75 0 0 0-1.492 0l-.008.154A.75.75 0 0 1 6.25 9.5a2.25 2.25 0 0 1 4.5 0 .75.75 0 0 1-1.496.077l-.008-.154Zm7 0a.75.75 0 0 0-1.492 0l-.008.154A.75.75 0 0 1 13.25 9.5a2.25 2.25 0 0 1 4.5 0 .75.75 0 0 1-1.496.077l-.008-.154ZM5.93 11.253a.75.75 0 0 1 .67 1.197c-.573.764-.516 1.346-.474 2.1.02.372.044.858-.111 1.352-.145.46-.422.873-.867 1.25l-.2.158c-.588.437-1.38.546-2.07.338-.721-.217-1.354-.792-1.55-1.71l-.05-.299a3.08 3.08 0 0 1 .291-1.805c.298-.591.767-1.036 1.264-1.371.976-.659 2.21-.992 2.98-1.19l.117-.02ZM4.663 13.2a5.23 5.23 0 0 0-.991.506c-.358.242-.615.51-.764.804-.142.281-.21.638-.111 1.122.074.338.277.508.514.58.273.082.566.024.742-.107l.123-.096c.261-.22.36-.405.407-.556.064-.204.066-.436.045-.82-.022-.396-.063-.882.035-1.433Zm12.713-1.617a.751.751 0 0 1 .81-.31l.654.177c.718.208 1.595.52 2.327 1.013.497.336.966.78 1.264 1.371a3.08 3.08 0 0 1 .29 1.806l-.05.299a2.221 2.221 0 0 1-1.55 1.71 2.383 2.383 0 0 1-1.956-.261l-.112-.077c-.564-.42-.903-.884-1.068-1.409-.155-.494-.132-.98-.11-1.352.039-.707.09-1.263-.375-1.96l-.1-.14a.751.751 0 0 1-.024-.867Zm1.96 1.617c.098.551.058 1.037.036 1.434-.021.383-.019.615.045.82.054.172.175.388.53.652l.072.045a.898.898 0 0 0 .67.061c.237-.072.44-.242.514-.58.099-.484.03-.84-.111-1.122-.149-.295-.406-.562-.764-.804a5.226 5.226 0 0 0-.992-.506Z"/>
</svg>
