<svg xmlns="http://www.w3.org/2000/svg" width="24" height="24" fill="none" viewBox="0 0 24 24">
  <path fill="#161C24" d="M21.25 12a9.25 9.25 0 1 0-18.488.466l.034.46.004.077a.75.75 0 0 1-1.486.147l-.011-.076-.04-.534A10.917 10.917 0 0 1 1.25 12C1.25 6.063 6.063 1.25 12 1.25S22.75 6.063 22.75 12 17.937 22.75 12 22.75c-.81 0-1.601-.09-2.362-.26l-.325-.079-.073-.022a.75.75 0 0 1 .371-1.446l.076.016.279.066A9.25 9.25 0 0 0 21.25 12Z"/>
  <path fill="#161C24" d="M4.618 13.367a.75.75 0 0 1 .929.098l2.096 2.059.132.134a3.566 3.566 0 0 1 .003 4.897l-.135.137c-1.448 1.394-3.805 1.42-5.279.023l-.004-.004a3.586 3.586 0 0 1-.025-5.164l.005-.004L4.5 13.46l.118-.093Zm-1.237 3.256a2.085 2.085 0 0 0 .015 3.003l.173.148c.893.688 2.213.627 3.033-.163l.153-.163c.713-.842.65-2.07-.153-2.844l-.005-.005-1.581-1.553-1.635 1.577Zm4.628-9.181.102.005a1 1 0 0 1 0 1.99l-.102.005H8a1 1 0 1 1 0-2h.009Zm7.991 0a1 1 0 1 1 0 2h-.009a1 1 0 1 1 0-2H16Zm-4 6.808c1.213 0 2.34.377 3.267 1.019l.183.131.06.05a.75.75 0 0 1-.897 1.193l-.063-.043-.275-.19A4.225 4.225 0 0 0 12 15.75c-.775 0-1.5.207-2.124.568l-.069.035a.75.75 0 0 1-.683-1.333l.324-.173A5.727 5.727 0 0 1 12 14.25Z"/>
</svg>
