<svg xmlns="http://www.w3.org/2000/svg" width="24" height="24" fill="none" viewBox="0 0 24 24">
  <path fill="#161C24" d="M21.25 12a9.25 9.25 0 1 0-18.5 0 9.25 9.25 0 0 0 18.5 0Zm1.5 0c0 5.937-4.813 10.75-10.75 10.75S1.25 17.937 1.25 12 6.063 1.25 12 1.25 22.75 6.063 22.75 12Z"/>
  <path fill="#161C24" d="M12.75 17v-.25h-1.5V17a.75.75 0 0 1-1.5 0v-.25H9a.75.75 0 0 1 0-1.5h.75V15a.75.75 0 0 1 1.5 0v.25h1.5V15a.75.75 0 0 1 1.5 0v.25H15a.75.75 0 0 1 0 1.5h-.75V17a.75.75 0 0 1-1.5 0ZM8.009 8l.102.005a1 1 0 0 1 0 1.99L8.01 10H8a1 1 0 0 1 0-2h.009ZM16 8a1 1 0 1 1 0 2h-.009a1 1 0 1 1 0-2H16Z"/>
</svg>
