<svg xmlns="http://www.w3.org/2000/svg" width="24" height="24" fill="none" viewBox="0 0 24 24">
  <path fill="#161C24" d="M21.25 12a9.25 9.25 0 1 0-18.5 0 9.25 9.25 0 0 0 18.5 0Zm1.5 0c0 5.937-4.813 10.75-10.75 10.75S1.25 17.937 1.25 12 6.063 1.25 12 1.25 22.75 6.063 22.75 12Z"/>
  <path fill="#161C24" d="M9.202 7.676a.75.75 0 0 1 1.382.578l-.065.161a2.277 2.277 0 0 1-2.08 1.335 2.278 2.278 0 0 1-2.08-1.335l-.065-.161-.022-.073a.75.75 0 0 1 1.404-.505l.03.07.047.105a.78.78 0 0 0 .687.399c.344 0 .63-.216.733-.504l.03-.07Zm7.092.07a.75.75 0 0 1 1.412.508 2.276 2.276 0 0 1-2.145 1.496c-.984 0-1.83-.62-2.145-1.496l1.411-.508a.776.776 0 0 0 .734.504c.345 0 .63-.216.733-.504Zm-2.426-.452a.75.75 0 0 1 .96.452l-1.412.508a.75.75 0 0 1 .452-.96ZM12 12.75c1.959 0 3.667 1.12 4.412 2.76l.173.392c.055.138.104.278.133.41.032.15.05.338.005.543a1.134 1.134 0 0 1-.291.538l-.001-.001c-.351.367-.799.382-1.11.343a3.877 3.877 0 0 1-.477-.097l-.526-.148c-.686-.199-1.513-.37-2.318-.37a7.89 7.89 0 0 0-1.78.228l-.538.142c-.356.103-.712.21-1.003.245-.311.039-.76.024-1.11-.343a1.134 1.134 0 0 1-.292-.537 1.264 1.264 0 0 1 .005-.543c.057-.265.196-.559.306-.801l.15-.302c.809-1.474 2.425-2.459 4.262-2.459Zm0 1.5c-1.3 0-2.406.695-2.946 1.68l-.101.2-.004.008.315-.088.295-.082c.71-.188 1.567-.348 2.44-.348 1 0 1.976.209 2.737.43l.314.088-.003-.007c-.495-1.09-1.66-1.881-3.047-1.881Z"/>
</svg>
