<svg xmlns="http://www.w3.org/2000/svg" width="24" height="24" fill="none" viewBox="0 0 24 24">
  <path fill="#161C24" d="M21.25 12a9.25 9.25 0 1 0-18.5 0 9.25 9.25 0 0 0 18.5 0Zm1.5 0c0 5.937-4.813 10.75-10.75 10.75S1.25 17.937 1.25 12 6.063 1.25 12 1.25 22.75 6.063 22.75 12Z"/>
  <path fill="#161C24" d="m8.009 8 .102.005a1 1 0 0 1 0 1.99L8.01 10H8a1 1 0 0 1 0-2h.009ZM16 8a1 1 0 1 1 0 2h-.009a1 1 0 1 1 0-2H16Zm-2.75 8.61c-.403.09-.82.14-1.25.14-.43 0-.847-.05-1.25-.14v.89a1.25 1.25 0 1 0 2.5 0v-.89Zm1.5.89a2.75 2.75 0 1 1-5.5 0v-1.453a5.77 5.77 0 0 1-1.647-1.34L7.4 14.45l-.043-.063a.75.75 0 0 1 1.194-.897l.049.06.15.19A4.239 4.239 0 0 0 12 15.25a4.24 4.24 0 0 0 3.4-1.7.75.75 0 1 1 1.2.9 5.773 5.773 0 0 1-1.85 1.597V17.5Z"/>
</svg>
