<svg xmlns="http://www.w3.org/2000/svg" width="24" height="24" fill="none" viewBox="0 0 24 24">
  <path fill="#161C24" d="M21.25 12a9.25 9.25 0 1 0-18.5 0 9.25 9.25 0 0 0 18.5 0Zm1.5 0c0 5.937-4.813 10.75-10.75 10.75S1.25 17.937 1.25 12 6.063 1.25 12 1.25 22.75 6.063 22.75 12Z"/>
  <path fill="#161C24" d="M13.188 14.67c.947-.6 2.067-.557 2.99.128l.27.2a.75.75 0 1 1-.895 1.204l-.27-.2c-.396-.294-.814-.33-1.216-.11l-.17.11-.27.2c-.923.685-2.043.727-2.99.128l-.186-.128-.27-.2c-.395-.294-.814-.33-1.215-.11l-.172.11-.347.258-.063.043a.75.75 0 0 1-.831-1.247l.347-.258.187-.128c.947-.6 2.067-.557 2.989.128l.27.2.17.11c.402.22.82.184 1.216-.11l.27-.2.186-.128ZM8.009 8l.102.005a1 1 0 0 1 0 1.99L8.01 10H8a1 1 0 0 1 0-2h.009ZM16 8a1 1 0 1 1 0 2h-.009a1 1 0 1 1 0-2H16Z"/>
</svg>
