<svg xmlns="http://www.w3.org/2000/svg" width="24" height="24" fill="none" viewBox="0 0 24 24">
  <path fill="#161C24" fill-rule="evenodd" d="M17 6.5h-2a1 1 0 1 1 0-2h2a1 1 0 1 1 0 2Z" clip-rule="evenodd"/>
  <path fill="#161C24" fill-rule="evenodd" d="M5 1a3 3 0 0 0-3 3v15a3 3 0 0 0 3 3h13a3 3 0 0 0 3-3V4a3 3 0 0 0-3-3H5ZM4 4a1 1 0 0 1 1-1h13a1 1 0 0 1 1 1v4.25H4V4Zm1.5 9a1 1 0 0 1 1-1h1a1 1 0 1 1 0 2h-1a1 1 0 0 1-1-1Zm4.5 0a1 1 0 0 1 1-1h1a1 1 0 1 1 0 2h-1a1 1 0 0 1-1-1Zm4.5 0a1 1 0 0 1 1-1h1a1 1 0 1 1 0 2h-1a1 1 0 0 1-1-1Zm-8 3a1 1 0 1 0 0 2h1a1 1 0 1 0 0-2h-1Zm4.5 0a1 1 0 1 0 0 2h1a1 1 0 1 0 0-2h-1Zm4.5 0a1 1 0 1 0 0 2h1a1 1 0 1 0 0-2h-1Z" clip-rule="evenodd"/>
</svg>
