<svg xmlns="http://www.w3.org/2000/svg" width="24" height="24" fill="none" viewBox="0 0 24 24">
  <path fill="#161C24" fill-rule="evenodd" d="M18.177 3.763a1.75 1.75 0 0 1 1.237-.513H20c.966 0 1.75.784 1.75 1.75v14A1.75 1.75 0 0 1 20 20.75h-.586a1.75 1.75 0 0 1-1.237-.513l-.994-.994a3.25 3.25 0 0 0-1.364-.814l-1.558-.468-1.057 1.585a2.704 2.704 0 0 1-4.954-1.5v-1.888l-.5-.15V7.992l8.069-2.42a3.25 3.25 0 0 0 1.364-.815l.994-.994ZM9.75 16.608v1.438a1.204 1.204 0 0 0 2.206.668l.802-1.203-3.008-.903ZM6.25 8.25v7.5H5A2.75 2.75 0 0 1 2.25 13v-2A2.75 2.75 0 0 1 5 8.25h1.25Z" clip-rule="evenodd"/>
</svg>
