<svg xmlns="http://www.w3.org/2000/svg" width="24" height="24" fill="none" viewBox="0 0 24 24">
  <path fill="#161C24" fill-rule="evenodd" d="m8.297 1.25.764 2.293a1.75 1.75 0 0 0 1.66 1.197h2.559a1.75 1.75 0 0 0 1.66-1.197l.764-2.293H17A2.75 2.75 0 0 1 19.75 4v16A2.75 2.75 0 0 1 17 22.75H7A2.75 2.75 0 0 1 4.25 20V4A2.75 2.75 0 0 1 7 1.25h1.297Zm1.58 0 .607 1.82a.25.25 0 0 0 .237.17h2.559a.25.25 0 0 0 .237-.17l.606-1.82H9.878ZM10.25 19a.75.75 0 0 1 .75-.75h2a.75.75 0 0 1 0 1.5h-2a.75.75 0 0 1-.75-.75Z" clip-rule="evenodd"/>
</svg>
