<svg xmlns="http://www.w3.org/2000/svg" width="25" height="24" fill="none" viewBox="0 0 25 24">
  <path fill="#161C24" d="M12.158 1.257c.117-.01.234-.01.351 0 .504.037.912.265 1.285.556.35.275.738.663 1.192 1.117l.242.207c.257.22.386.33.54.391.154.062.323.07.66.087l.373.019c.711 0 1.319 0 1.805.065.518.07 1.009.226 1.405.623.397.397.553.887.623 1.406.066.486.066 1.093.066 1.805l.018.372c.017.338.026.506.087.66.062.155.172.283.392.54l.207.242c.454.454.842.842 1.116 1.193.292.373.52.78.557 1.284a2.34 2.34 0 0 1 0 .352c-.038.503-.265.911-.557 1.284-.274.35-.662.739-1.116 1.193l-.207.242c-.22.257-.33.385-.392.54-.061.154-.07.322-.087.66l-.018.372c0 .712 0 1.32-.066 1.805-.07.519-.226 1.01-.623 1.406-.396.397-.887.553-1.405.623-.486.065-1.094.065-1.805.065l-.43.03c-.338.023-.507.035-.66.1-.154.065-.28.178-.533.403l-.192.171c-.454.454-.842.842-1.192 1.117-.373.291-.781.519-1.285.556a2.338 2.338 0 0 1-.351 0c-.504-.037-.912-.264-1.285-.556-.35-.275-.738-.663-1.192-1.117l-.242-.207c-.257-.22-.386-.33-.54-.391-.154-.062-.323-.07-.66-.087l-.373-.019c-.711 0-1.319 0-1.805-.065-.518-.07-1.009-.226-1.405-.623-.397-.397-.554-.887-.623-1.406-.066-.486-.066-1.093-.066-1.805l-.018-.372c-.017-.338-.026-.506-.087-.66-.062-.155-.172-.283-.392-.54l-.207-.242c-.454-.454-.842-.842-1.116-1.193-.292-.373-.52-.78-.557-1.284a2.35 2.35 0 0 1 0-.352c.038-.503.265-.911.557-1.284.274-.35.662-.739 1.116-1.193l.207-.242c.22-.257.33-.385.392-.54.061-.154.07-.322.087-.66l.018-.372c0-.712 0-1.32.066-1.805.07-.519.226-1.01.623-1.406.396-.397.887-.553 1.405-.623.486-.065 1.094-.065 1.805-.065l.43-.03c.338-.023.507-.035.66-.1.154-.065.28-.178.533-.403l.192-.171c.454-.454.842-.842 1.192-1.117.373-.291.781-.519 1.285-.556Z" opacity=".4"/>
  <path fill="#161C24" fill-rule="evenodd" d="M11.334 16c0-.552.445-1 .995-1h.009c.55 0 .996.448.996 1s-.446 1-.996 1h-.009a.998.998 0 0 1-.995-1Zm1-3a1 1 0 0 1-1-1V8a1 1 0 1 1 2 0v4a1 1 0 0 1-1 1Z" clip-rule="evenodd"/>
</svg>
