<svg xmlns="http://www.w3.org/2000/svg" width="25" height="24" fill="none" viewBox="0 0 25 24">
  <path fill="#161C24" d="M10.695 2.015a5.195 5.195 0 0 1 3.277 0c1.06.352 1.892 1.186 2.728 2.359.833 1.169 1.754 2.798 2.941 4.899l.047.082c1.187 2.1 2.108 3.73 2.682 5.051.576 1.328.864 2.475.635 3.576a5.408 5.408 0 0 1-1.629 2.88c-.826.76-1.952 1.08-3.369 1.235-1.409.153-3.252.153-5.625.153h-.097c-2.373 0-4.216 0-5.625-.153-1.417-.154-2.543-.475-3.37-1.235a5.408 5.408 0 0 1-1.628-2.88c-.229-1.101.058-2.248.635-3.575.574-1.322 1.495-2.951 2.682-5.052l.047-.082c1.187-2.1 2.108-3.73 2.941-4.899.836-1.173 1.668-2.007 2.728-2.359Z" opacity=".4"/>
  <path fill="#161C24" fill-rule="evenodd" d="M11.334 17c0-.552.445-1 .995-1h.009c.55 0 .996.448.996 1s-.446 1-.996 1h-.009a.998.998 0 0 1-.995-1Zm1-3a1 1 0 0 1-1-1V9a1 1 0 1 1 2 0v4a1 1 0 0 1-1 1Z" clip-rule="evenodd"/>
</svg>
