<svg xmlns="http://www.w3.org/2000/svg" width="25" height="24" fill="none" viewBox="0 0 25 24">
  <path fill="#161C24" d="M12.39 1.75c2.191 0 3.912 0 5.255.18 1.377.185 2.47.572 3.328 1.43.858.859 1.245 1.951 1.43 3.328.18 1.343.18 3.064.18 5.255v.114c0 2.19 0 3.911-.18 5.255-.185 1.376-.572 2.469-1.43 3.327-.859.858-1.95 1.245-3.328 1.43-1.343.18-3.064.18-5.254.18h-.115c-2.19 0-3.911 0-5.254-.18-1.377-.185-2.47-.572-3.328-1.43-.858-.858-1.245-1.95-1.43-3.327-.18-1.344-.18-3.064-.18-5.255v-.114c0-2.191 0-3.912.18-5.255.185-1.377.572-2.47 1.43-3.327.859-.859 1.95-1.246 3.328-1.43 1.343-.181 3.064-.181 5.254-.181h.115Z" opacity=".4"/>
  <path fill="#161C24" fill-rule="evenodd" d="M11.334 16.5c0-.553.445-1 .995-1h.009c.55 0 .996.447.996 1 0 .552-.446 1-.996 1h-.009a.998.998 0 0 1-.995-1Zm1-3a1 1 0 0 1-1-1v-4a1 1 0 1 1 2 0v4a1 1 0 0 1-1 1Z" clip-rule="evenodd"/>
</svg>
