<svg xmlns="http://www.w3.org/2000/svg" width="25" height="24" fill="none" viewBox="0 0 25 24">
  <path fill="#161C24" fill-rule="evenodd" d="M16.437 3.424c-1.28-.172-2.968-.174-5.354-.174h-2a1 1 0 1 1 0-2h2.075c2.294 0 4.117 0 5.545.192 1.473.198 2.674.616 3.623 1.565.95.95 1.368 2.15 1.566 3.623.192 1.429.192 3.252.192 5.545v6.075a1 1 0 1 1-2 0v-6c0-2.385-.003-4.074-.175-5.353-.168-1.25-.482-1.96-.997-2.475-.515-.516-1.225-.83-2.475-.998Z" clip-rule="evenodd"/>
  <path fill="#161C24" d="M10.776 4.25c1.719 0 3.202 0 4.275.148 1.108.153 2.01.477 2.722 1.208.708.727 1.02 1.647 1.167 2.776.143 1.098.143 2.5.143 4.27v5.39c0 1.1 0 2.01-.098 2.691-.1.694-.332 1.388-1.005 1.771-.612.349-1.286.275-1.844.095-.563-.183-1.13-.512-1.646-.859l-2.571-1.926c-.376-.242-.61-.39-.798-.485-.27-.155-.496-.065-.575 0-.189.094-.422.243-.798.485l-2.57 1.926c-.516.347-1.084.676-1.647.859-.558.18-1.232.254-1.844-.095-.673-.383-.905-1.077-1.005-1.77-.099-.682-.099-1.591-.099-2.691v-5.39c0-1.77 0-3.173.144-4.271.148-1.13.46-2.049 1.167-2.776.711-.73 1.614-1.055 2.722-1.208 1.073-.148 2.441-.148 4.16-.148Z" opacity=".4"/>
</svg>
