<svg xmlns="http://www.w3.org/2000/svg" width="25" height="24" fill="none" viewBox="0 0 25 24">
  <path fill="#161C24" d="M12.39 1.75c2.191 0 3.912 0 5.255.18 1.377.186 2.47.573 3.328 1.43.858.86 1.245 1.951 1.43 3.328.18 1.343.18 3.064.18 5.255v.114c0 2.19 0 3.912-.18 5.255-.185 1.377-.572 2.469-1.43 3.327-.859.858-1.95 1.245-3.328 1.43-1.343.181-3.064.181-5.254.181h-.115c-2.19 0-3.911 0-5.254-.18-1.377-.186-2.47-.573-3.328-1.43-.858-.86-1.245-1.951-1.43-3.328-.18-1.343-.18-3.064-.18-5.255v-.114c0-2.19 0-3.912.18-5.255.185-1.377.572-2.469 1.43-3.327.859-.858 1.95-1.245 3.328-1.43 1.343-.181 3.064-.181 5.254-.181h.115Z" opacity=".4"/>
  <path fill="#161C24" fill-rule="evenodd" d="M7.333 15.25a.75.75 0 0 1 .75.75v2a.75.75 0 0 1-1.5 0v-2a.75.75 0 0 1 .75-.75Zm5.001-1a.75.75 0 0 1 .75.75v3a.75.75 0 0 1-1.5 0v-3a.75.75 0 0 1 .75-.75Zm5-2a.75.75 0 0 1 .75.75v5a.75.75 0 0 1-1.5 0v-5a.75.75 0 0 1 .75-.75Zm-.356-6.83a1.416 1.416 0 0 0-.786-.168 6.162 6.162 0 0 0-.713.094l-1.268.209a.75.75 0 1 0 .245 1.48l.723-.12c-1.882 2.643-4.893 3.835-8.846 3.835a.75.75 0 0 0 0 1.5c4.322 0 7.9-1.344 10.133-4.556l.146.513a.75.75 0 0 0 1.443-.414l-.319-1.11a4.634 4.634 0 0 0-.214-.642 1.3 1.3 0 0 0-.544-.621Z" clip-rule="evenodd"/>
</svg>
