<svg xmlns="http://www.w3.org/2000/svg" width="25" height="24" fill="none" viewBox="0 0 25 24">
  <path fill="#161C24" d="M4.212 6.54C5.22 5.283 6.667 4.375 8.334 4.375c1.619 0 3.025.843 4 1.712.974-.869 2.38-1.712 4-1.712 1.666 0 3.114.908 4.12 2.165a7.512 7.512 0 0 1 1.63 4.613c0 3.62-.523 6.288-2.626 9.456a.717.717 0 0 1-.023.034c-.835 1.119-1.867 1.892-3.063 2.145-1.205.253-2.456-.05-3.665-.846a.719.719 0 0 0-.747 0c-1.21.797-2.46 1.1-3.665.846-1.196-.253-2.228-1.026-3.063-2.145a.782.782 0 0 1-.023-.034c-2.103-3.168-2.625-5.836-2.625-9.456 0-1.684.621-3.355 1.628-4.613Z" opacity=".4"/>
  <path fill="#161C24" fill-rule="evenodd" d="M9.182 7.596a1 1 0 0 1-.32 1.378c-.831.517-1.529 1.796-1.529 3.15a1 1 0 1 1-2 0c0-1.91.949-3.9 2.472-4.848a1 1 0 0 1 1.377.32Zm4.235-2.322a4.1 4.1 0 0 1 .396-1.174c.326-.603.783-.975 1.52-.975a1 1 0 1 0 0-2c-1.662 0-2.705.961-3.28 2.025-.39.723-.589 1.525-.671 2.208.35.227.669.477.951.73a7.906 7.906 0 0 1 1.084-.814Z" clip-rule="evenodd"/>
</svg>
