<svg xmlns="http://www.w3.org/2000/svg" width="25" height="24" fill="none" viewBox="0 0 25 24">
  <path fill="#161C24" d="M3.225 15.562a.75.75 0 0 1 .609-.312h17a.75.75 0 0 1 .711.987l-.646 1.94c-.319.954-.577 1.73-.859 2.335-.293.631-.641 1.145-1.176 1.53-.535.386-1.132.553-1.824.632-.662.076-1.48.076-2.487.076h-4.44c-1.005 0-1.824 0-2.486-.076-.692-.079-1.29-.246-1.824-.632-.535-.385-.883-.899-1.176-1.53-.282-.605-.54-1.381-.859-2.336l-.646-1.939a.75.75 0 0 1 .103-.675Z" opacity=".4"/>
  <path fill="#161C24" d="M8.803 6.538c.249.49.063 1.094-.416 1.35-1.846.982-3.18 2.614-3.667 4.504a.983.983 0 0 1-.886.744.614.614 0 0 0-.1.136c-.118.2-.196.49-.196.739 0 .555.361.903.888.968.533.067.968-.19 1.097-.71.11-.442.5-.752.947-.752.447 0 .837.31.947.753.113.454.5.73 1.007.73.507 0 .895-.276 1.008-.73.11-.443.5-.753.947-.753.447 0 .837.31.947.753.113.454.5.73 1.008.73.506 0 .894-.276 1.007-.73.11-.443.5-.753.947-.753.447 0 .837.31.947.753.113.454.5.73 1.008.73.506 0 .894-.276 1.007-.73.11-.443.5-.753.947-.753.447 0 .837.31.947.753.13.52.564.776 1.097.71.527-.066.888-.414.888-.97 0-.248-.078-.537-.196-.738a.612.612 0 0 0-.1-.136.983.983 0 0 1-.886-.744c-.487-1.89-1.821-3.522-3.667-4.505a1.012 1.012 0 0 1-.416-1.349c.25-.49.84-.68 1.318-.425 2.108 1.122 3.747 2.968 4.49 5.209.433.217.743.59.937.92a3.59 3.59 0 0 1 .474 1.769c0 1.776-1.316 2.793-2.606 2.954-.774.096-1.635-.105-2.289-.654a3.074 3.074 0 0 1-1.945.689 3.073 3.073 0 0 1-1.955-.696 3.073 3.073 0 0 1-1.954.696 3.073 3.073 0 0 1-1.955-.696A3.073 3.073 0 0 1 8.424 17a3.074 3.074 0 0 1-1.945-.689c-.654.55-1.515.75-2.289.654-1.29-.16-2.607-1.178-2.607-2.954a3.6 3.6 0 0 1 .475-1.77c.194-.33.504-.702.937-.919.743-2.241 2.383-4.087 4.49-5.21a.967.967 0 0 1 1.318.426Z"/>
  <path fill="#161C24" d="M15.061 1.818a.75.75 0 0 0-.91-.545c-1.476.369-2.193 1.27-2.45 2.05a2.751 2.751 0 1 0 1.618.109c.199-.261.558-.545 1.196-.704a.75.75 0 0 0 .546-.91Z"/>
  <path fill="#161C24" fill-rule="evenodd" d="M10.28 9.606a1 1 0 0 1 .448 1.341l-.5 1a1 1 0 1 1-1.789-.894l.5-1a1 1 0 0 1 1.342-.447Zm4.106 0a1 1 0 0 1 1.342.447l.5 1a1 1 0 1 1-1.789.894l-.5-1a1 1 0 0 1 .447-1.341Z" clip-rule="evenodd"/>
</svg>
