<svg xmlns="http://www.w3.org/2000/svg" width="25" height="24" fill="none" viewBox="0 0 25 24">
  <path fill="#161C24" d="M19.334 8a1 1 0 1 1 0 2H7.073c-.471 0-.935 0-1.294-.056-.341-.053-1.046-.222-1.34-1.007-.29-.774.09-1.424.294-1.723.216-.317.542-.677.877-1.046l.652-.72c.343-.379.676-.746.969-.99.27-.225.883-.667 1.618-.343.734.323.885 1.102.933 1.468.052.395.052.91.051 1.439V8h9.5Z"/>
  <path fill="#161C24" d="M5.333 16a1 1 0 1 1 0-2h12.261c.471 0 .935 0 1.294.056.341.053 1.046.222 1.34 1.007.29.773-.09 1.424-.294 1.723-.216.317-.542.677-.877 1.046l-.652.72c-.343.379-.676.746-.969.99-.27.225-.883.667-1.618.343-.734-.323-.886-1.102-.933-1.468-.052-.395-.052-.91-.051-1.439V16h-9.5Z" opacity=".4"/>
</svg>
