<svg xmlns="http://www.w3.org/2000/svg" width="25" height="24" fill="none" viewBox="0 0 25 24">
  <path fill="#161C24" fill-rule="evenodd" d="M6.626 17.707a1 1 0 0 1 0-1.414l11-11a1 1 0 1 1 1.414 1.414l-11 11a1 1 0 0 1-1.414 0Z" clip-rule="evenodd" opacity=".4"/>
  <path fill="#161C24" d="M7.089 18.71c-.28-.082-.662-.225-.951-.514-.29-.29-.433-.671-.515-.952-.09-.31-.15-.661-.192-1.014-.082-.709-.103-1.54-.097-2.314a42.884 42.884 0 0 1 .134-2.998v-.001a1 1 0 0 1 1.993.167l-.018.232a42.683 42.683 0 0 0-.109 2.615c-.006.742.015 1.479.084 2.067.034.295.104.605.15.766.162.047.472.117.767.151.588.069 1.325.09 2.067.084a41.042 41.042 0 0 0 2.615-.11l.232-.017a1 1 0 0 1 .168 1.993h-.002l-.253.02a46.212 46.212 0 0 1-2.745.114c-.773.006-1.605-.014-2.314-.097a6.309 6.309 0 0 1-1.014-.192Z"/>
</svg>
