<svg xmlns="http://www.w3.org/2000/svg" width="25" height="24" fill="none" viewBox="0 0 25 24">
  <path fill="#161C24" d="M15.04 10.708a1 1 0 0 1-1.414-1.415L17.49 5.43l1.414 1.414-3.863 3.864Z" opacity=".4"/>
  <path fill="#161C24" d="M20.652 2.163c.273.062.706.185 1.02.499.313.313.437.747.499 1.02.073.32.113.684.135 1.039.046.714.027 1.512-.002 2.12l-.002.04c-.008.182-.018.417-.057.61-.041.204-.182.715-.739.93-.561.218-1.012-.072-1.176-.193a4.358 4.358 0 0 1-.456-.415l-.03-.03-.94-.94L16.55 4.49l-.03-.03c-.13-.13-.297-.297-.415-.455-.12-.165-.41-.615-.193-1.177.216-.557.726-.697.93-.738.194-.04.428-.05.61-.058l.041-.002a20.274 20.274 0 0 1 2.12-.002c.355.023.718.063 1.04.136Z"/>
  <path fill="#161C24" d="M9.626 10.708a1 1 0 1 0 1.415-1.415L7.176 5.43 5.763 6.844l3.863 3.864Z" opacity=".4"/>
  <path fill="#161C24" d="M4.015 2.163c-.273.062-.707.185-1.02.499-.313.313-.437.747-.499 1.02a6.777 6.777 0 0 0-.135 1.039c-.046.714-.027 1.512.002 2.12l.001.04c.009.182.02.417.058.61.041.204.182.715.739.93.561.218 1.012-.072 1.176-.193.159-.117.325-.284.456-.415l.03-.03L7.176 5.43l.94-.94.03-.03c.13-.13.297-.297.415-.455.12-.165.41-.615.193-1.177-.216-.557-.726-.697-.93-.738-.194-.04-.428-.05-.61-.058l-.041-.002a20.276 20.276 0 0 0-2.12-.002 6.777 6.777 0 0 0-1.04.136Z"/>
  <path fill="#161C24" d="M15.04 13.292a1 1 0 0 0-1.414 1.415l3.864 3.863 1.414-1.414-3.863-3.864Z" opacity=".4"/>
  <path fill="#161C24" d="M20.652 21.837c.273-.061.706-.185 1.02-.499.313-.313.437-.747.499-1.02a6.65 6.65 0 0 0 .135-1.039c.046-.714.027-1.512-.002-2.12l-.002-.04c-.008-.182-.018-.417-.057-.61-.041-.204-.182-.715-.739-.93-.561-.218-1.012.072-1.176.193a4.365 4.365 0 0 0-.456.415l-.03.03-.94.94-2.354 2.354-.03.03c-.13.13-.297.297-.415.455-.12.165-.41.615-.193 1.177.216.557.726.697.93.738.194.04.428.05.61.058l.041.002c.607.028 1.406.047 2.12.002a6.776 6.776 0 0 0 1.04-.136Z"/>
  <path fill="#161C24" d="M9.626 13.292a1 1 0 1 1 1.415 1.415L7.176 18.57l-1.414-1.414 3.863-3.864Z" opacity=".4"/>
  <path fill="#161C24" d="M4.015 21.837c-.273-.061-.707-.185-1.02-.499-.313-.313-.437-.747-.499-1.02a6.778 6.778 0 0 1-.135-1.039 20.274 20.274 0 0 1 .002-2.12l.001-.04c.009-.182.02-.417.058-.61.041-.204.182-.715.739-.93.561-.218 1.012.072 1.176.193.159.117.325.284.456.415l.03.03 2.354 2.354.94.94.03.03c.13.13.297.297.415.455.12.165.41.615.193 1.177-.216.557-.726.697-.93.738-.194.04-.428.05-.61.058l-.041.002c-.607.028-1.406.047-2.12.002a6.775 6.775 0 0 1-1.04-.136Z"/>
</svg>
