<svg xmlns="http://www.w3.org/2000/svg" width="25" height="24" fill="none" viewBox="0 0 25 24">
  <path fill="#161C24" d="M18.927 8.195a1 1 0 0 1 .212 1.398 53.178 53.178 0 0 1-2.457 3.063c-.663.762-1.397 1.55-2.082 2.156-.341.302-.694.58-1.039.787-.316.19-.752.401-1.228.401s-.911-.21-1.228-.401a7.383 7.383 0 0 1-1.038-.787c-.686-.606-1.42-1.394-2.082-2.156a53.24 53.24 0 0 1-2.457-3.063A1 1 0 0 1 6.333 8h12c.207 0 .415.063.594.195Z" opacity=".4"/>
  <path fill="#161C24" d="M18.927 8.195a1 1 0 0 1 .212 1.398 53.178 53.178 0 0 1-2.457 3.063c-.663.762-1.397 1.55-2.082 2.156-.341.302-.694.58-1.039.787-.316.19-.752.401-1.228.401s-.911-.21-1.228-.401a7.383 7.383 0 0 1-1.038-.787c-.583-.515-1.2-1.161-1.78-1.812l5.046-5h5c.207 0 .415.063.594.195Z"/>
</svg>
