<svg xmlns="http://www.w3.org/2000/svg" width="25" height="24" fill="none" viewBox="0 0 25 24">
  <path fill="#161C24" fill-rule="evenodd" d="M4.333 5a1 1 0 0 1 1 1v12a1 1 0 1 1-2 0V6a1 1 0 0 1 1-1Z" clip-rule="evenodd"/>
  <path fill="#161C24" d="M20.334 11a1 1 0 1 1 0 2h-7v1.087c0 .38 0 .773-.048 1.085-.051.333-.208.912-.816 1.198-.603.283-1.142.042-1.434-.133-.268-.16-.565-.41-.849-.647l-.047-.039c-.573-.479-1.22-1.052-1.733-1.598a6.446 6.446 0 0 1-.685-.844c-.161-.245-.389-.647-.389-1.109 0-.462.228-.863.39-1.11.186-.283.43-.572.684-.843.512-.546 1.16-1.12 1.733-1.598l.047-.04c.284-.237.581-.485.849-.646.293-.175.831-.416 1.434-.133.608.286.764.865.816 1.198.048.312.048.705.048 1.085V11h7Z" opacity=".4"/>
</svg>
