<svg xmlns="http://www.w3.org/2000/svg" width="25" height="24" fill="none" viewBox="0 0 25 24">
  <path fill="#161C24" d="M16.333 19a1 1 0 1 1-2 0V6.74c0-.472 0-.936.056-1.294.054-.342.223-1.046 1.008-1.34.773-.291 1.424.09 1.722.293.317.216.677.542 1.046.877l.72.653c.38.343.747.676.99.969.226.27.668.882.344 1.617-.324.735-1.103.886-1.468.934-.396.051-.91.051-1.44.051h-.978V19Z" opacity=".4"/>
  <path fill="#161C24" d="M8.334 5a1 1 0 1 1 2 0v12.26c0 .472 0 .936-.056 1.294-.053.342-.223 1.046-1.008 1.34-.773.291-1.424-.09-1.722-.293-.317-.216-.677-.543-1.046-.877l-.72-.653c-.38-.343-.747-.676-.99-.969-.226-.27-.668-.882-.344-1.617.324-.735 1.103-.886 1.468-.934.396-.051.91-.051 1.44-.051h.978V5Z"/>
</svg>
