<svg xmlns="http://www.w3.org/2000/svg" width="25" height="24" fill="none" viewBox="0 0 25 24">
  <path fill="#161C24" fill-rule="evenodd" d="M12.334 21a1 1 0 0 0 1-1V4a1 1 0 1 0-2 0v16a1 1 0 0 0 1 1Z" clip-rule="evenodd" opacity=".4"/>
  <path fill="#161C24" d="M12.334 18.972a5.223 5.223 0 0 1-.675-.503c-.482-.425-1.033-1.012-1.565-1.625a42.529 42.529 0 0 1-1.955-2.437 1 1 0 0 0-1.61 1.186l.002.004c.11.144.425.563.61.8a46.37 46.37 0 0 0 1.443 1.759c.554.637 1.171 1.3 1.75 1.812.289.255.591.493.89.674.271.163.666.358 1.11.358.443 0 .838-.195 1.109-.358.299-.18.601-.42.89-.674.579-.512 1.196-1.175 1.75-1.813a44.523 44.523 0 0 0 2.053-2.558l.003-.004a1 1 0 0 0-1.61-1.186c-.101.133-.4.53-.58.759-.36.46-.85 1.07-1.377 1.678-.531.613-1.082 1.2-1.564 1.625a5.24 5.24 0 0 1-.674.503Z"/>
</svg>
