<svg xmlns="http://www.w3.org/2000/svg" width="25" height="24" fill="none" viewBox="0 0 25 24">
  <path fill="#161C24" fill-rule="evenodd" d="M6.626 6.293a1 1 0 0 0 0 1.414l11 11a1 1 0 0 0 1.415-1.414l-11-11a1 1 0 0 0-1.415 0Z" clip-rule="evenodd" opacity=".4"/>
  <path fill="#161C24" d="M7.09 5.29c-.282.082-.663.225-.952.514-.29.29-.433.671-.515.952-.09.31-.15.661-.191 1.014-.083.709-.104 1.54-.098 2.314a42.884 42.884 0 0 0 .134 2.998v.001a1 1 0 0 0 1.994-.167l-.018-.232a42.708 42.708 0 0 1-.11-2.615c-.005-.742.016-1.479.084-2.067.035-.295.104-.605.151-.766.161-.048.471-.117.766-.151.588-.069 1.325-.09 2.067-.084a40.88 40.88 0 0 1 2.847.127 1 1 0 0 0 .168-1.993h-.002l-.253-.02a44.57 44.57 0 0 0-2.744-.114c-.774-.006-1.606.015-2.314.097a6.303 6.303 0 0 0-1.015.192Z"/>
</svg>
