<svg xmlns="http://www.w3.org/2000/svg" width="25" height="24" fill="none" viewBox="0 0 25 24">
  <path fill="#161C24" fill-rule="evenodd" d="M18.04 17.707a1 1 0 0 0 0-1.414l-11-11a1 1 0 0 0-1.414 1.414l11 11a1 1 0 0 0 1.415 0Z" clip-rule="evenodd" opacity=".4"/>
  <path fill="#161C24" d="M17.578 18.71c.28-.082.662-.225.951-.514.29-.29.433-.671.515-.952.09-.31.15-.661.191-1.014.083-.709.104-1.54.098-2.314a42.946 42.946 0 0 0-.115-2.745l-.02-.253v-.001a1 1 0 0 0-1.992.167l.017.232a43.23 43.23 0 0 1 .11 2.615c.005.742-.016 1.479-.084 2.067a5.248 5.248 0 0 1-.151.766 5.236 5.236 0 0 1-.767.151c-.588.069-1.324.09-2.066.084a41.038 41.038 0 0 1-2.615-.11l-.232-.017a1 1 0 0 0-.168 1.993h.002l.253.02a46.242 46.242 0 0 0 2.744.114c.774.006 1.606-.014 2.315-.097a6.31 6.31 0 0 0 1.014-.192Z"/>
</svg>
