<svg xmlns="http://www.w3.org/2000/svg" width="25" height="24" fill="none" viewBox="0 0 25 24">
  <path fill="#161C24" d="M13.333 9a1 1 0 1 1-2 0V7h-1.215c-.137 0-.335 0-.505-.025-.184-.029-.67-.137-.916-.652-.244-.512-.033-.961.062-1.13.085-.15.208-.307.291-.413l.021-.027c.351-.449.86-1.074 1.364-1.595.25-.259.52-.515.786-.715.134-.1.286-.2.45-.28.155-.074.387-.163.663-.163.275 0 .507.089.661.163.165.08.317.18.45.28.267.2.538.456.787.715.504.52 1.013 1.146 1.364 1.595l.02.027a3.4 3.4 0 0 1 .292.414c.095.168.306.617.062 1.129-.247.515-.732.623-.917.652C14.884 7 14.685 7 14.55 7h-1.216v2Zm0 6a1 1 0 1 0-2 0v2h-1.215c-.137 0-.335 0-.505.025-.184.029-.67.137-.916.652-.244.512-.033.961.062 1.13.085.15.208.307.291.414l.021.026c.351.449.86 1.074 1.364 1.595.25.259.52.515.786.715.134.1.286.2.45.28.155.074.387.163.663.163.275 0 .507-.089.661-.163.165-.08.317-.18.45-.28.267-.2.538-.456.787-.715a21.263 21.263 0 0 0 1.364-1.595l.02-.026c.084-.107.207-.264.292-.415.095-.168.306-.617.062-1.129-.247-.515-.732-.623-.917-.652C14.884 17 14.685 17 14.55 17h-1.216v-2Z" opacity=".4"/>
  <path fill="#161C24" d="M15.334 13a1 1 0 1 1 0-2h2V9.784c0-.136-.001-.335.025-.504.028-.185.136-.67.652-.916.511-.245.96-.033 1.129.061.15.085.307.208.414.292l.027.02c.448.351 1.074.86 1.595 1.364.258.25.515.52.714.787.1.133.2.286.28.45.075.155.163.387.163.662s-.088.507-.163.662a2.78 2.78 0 0 1-.28.45c-.2.266-.456.537-.714.787a21.236 21.236 0 0 1-1.595 1.363l-.027.021a3.564 3.564 0 0 1-.414.292c-.168.094-.618.306-1.13.061-.515-.246-.623-.731-.651-.916-.026-.17-.026-.368-.026-.504V13h-2Zm-6.001 0a1 1 0 1 0 0-2h-2V9.784c0-.136.001-.335-.025-.504-.028-.185-.136-.67-.652-.916-.511-.245-.96-.033-1.129.061-.15.085-.307.208-.414.292l-.027.02c-.448.351-1.074.86-1.595 1.364a6.88 6.88 0 0 0-.714.787c-.1.133-.2.286-.28.45a1.53 1.53 0 0 0-.163.662c0 .275.088.507.163.662.08.164.18.317.28.45.2.266.456.537.714.787a21.246 21.246 0 0 0 1.595 1.363l.027.021c.107.084.264.207.414.292.168.094.617.306 1.13.061.515-.246.623-.731.651-.916.026-.17.026-.368.026-.504V13h2Z"/>
</svg>
