<svg xmlns="http://www.w3.org/2000/svg" width="25" height="24" fill="none" viewBox="0 0 25 24">
  <path fill="#161C24" d="M8.528 5.407a1 1 0 0 1 1.399-.212c.345.254.673.509.96.732a53.23 53.23 0 0 1 2.102 1.725c.763.662 1.55 1.396 2.156 2.081.302.342.58.695.787 1.04.191.316.402.751.402 1.227 0 .476-.211.912-.402 1.228a7.383 7.383 0 0 1-.787 1.039c-.605.685-1.393 1.42-2.156 2.081a53.357 53.357 0 0 1-3.062 2.457A1 1 0 0 1 8.334 18V6c0-.206.063-.414.194-.593Z" opacity=".4"/>
  <path fill="#161C24" d="M15.145 9.733c.302.342.58.695.787 1.04.191.316.402.751.402 1.227 0 .476-.211.912-.402 1.228a7.383 7.383 0 0 1-.787 1.039c-.605.685-1.393 1.42-2.156 2.081a53.357 53.357 0 0 1-3.062 2.457A1 1 0 0 1 8.334 18v-5l5.05-5c.634.566 1.26 1.166 1.761 1.733Z"/>
</svg>
