<svg xmlns="http://www.w3.org/2000/svg" width="25" height="24" fill="none" viewBox="0 0 25 24">
  <path fill="#161C24" fill-rule="evenodd" d="M18.04 6.293a1 1 0 0 1 0 1.414l-11 11a1 1 0 0 1-1.414-1.414l11-11a1 1 0 0 1 1.415 0Z" clip-rule="evenodd" opacity=".4"/>
  <path fill="#161C24" d="M17.578 5.29c.28.082.662.225.951.514.29.29.433.671.515.952.09.31.15.661.191 1.014.083.709.104 1.54.098 2.314a42.804 42.804 0 0 1-.115 2.745l-.02.253v.001a1 1 0 0 1-1.992-.167l.017-.232a42.103 42.103 0 0 0 .11-2.615c.006-.742-.015-1.479-.084-2.067a5.248 5.248 0 0 0-.15-.766 5.247 5.247 0 0 0-.767-.151c-.588-.069-1.325-.09-2.067-.084a40.885 40.885 0 0 0-2.847.127 1 1 0 0 1-.168-1.993h.002a50.32 50.32 0 0 1 .918-.063 43.73 43.73 0 0 1 2.08-.071c.773-.006 1.605.015 2.314.097.353.041.704.101 1.014.192Z"/>
</svg>
