<svg xmlns="http://www.w3.org/2000/svg" width="25" height="24" fill="none" viewBox="0 0 25 24">
  <path fill="#161C24" fill-rule="evenodd" d="M20.334 5a1 1 0 0 0-1 1v12a1 1 0 0 0 2 0V6a1 1 0 0 0-1-1Z" clip-rule="evenodd"/>
  <path fill="#161C24" d="M4.333 11a1 1 0 1 0 0 2h7v1.087c0 .38 0 .773.048 1.085.051.333.208.912.816 1.198.603.283 1.141.042 1.434-.133.268-.16.565-.41.848-.647l.048-.039c.573-.479 1.22-1.052 1.733-1.598.254-.271.498-.56.685-.844.16-.245.388-.647.388-1.109 0-.462-.227-.863-.388-1.11a6.462 6.462 0 0 0-.685-.843c-.513-.546-1.16-1.12-1.734-1.598l-.046-.04c-.284-.237-.582-.485-.85-.646-.292-.175-.83-.416-1.433-.133-.608.286-.765.865-.816 1.198-.048.312-.048.705-.048 1.085V11h-7Z" opacity=".4"/>
</svg>
