<svg xmlns="http://www.w3.org/2000/svg" width="25" height="24" fill="none" viewBox="0 0 25 24">
  <path fill="#161C24" d="M8.084 20a1 1 0 0 1-2 0V8h2v12Z" opacity=".4"/>
  <path fill="#161C24" d="M6.422 3.163C6.576 3.09 6.808 3 7.083 3c.276 0 .508.089.662.163.165.08.317.18.45.28.267.2.538.456.787.715.504.52 1.013 1.146 1.364 1.595l.02.027a3.4 3.4 0 0 1 .292.414c.095.168.306.617.062 1.129-.247.515-.732.623-.916.652C9.634 8 9.436 8 9.299 8H4.868c-.137 0-.335 0-.505-.025-.184-.029-.67-.137-.916-.652-.244-.512-.033-.961.062-1.13.085-.15.208-.307.291-.413l.021-.027c.35-.449.86-1.074 1.364-1.595.25-.259.52-.515.786-.715.134-.1.286-.2.45-.28Z"/>
  <path fill="#161C24" d="M18.584 4a1 1 0 1 0-2 0v12h2V4Z" opacity=".4"/>
  <path fill="#161C24" d="M16.922 20.837c.154.074.386.163.662.163.275 0 .507-.089.661-.163.165-.08.317-.18.45-.28.267-.2.538-.456.787-.715a21.236 21.236 0 0 0 1.364-1.595l.02-.026c.084-.107.207-.264.292-.415.095-.168.306-.617.062-1.129-.247-.515-.732-.623-.916-.652-.17-.025-.368-.025-.505-.025h-4.431c-.136 0-.335 0-.505.025-.184.029-.67.137-.916.652-.244.512-.033.961.062 1.13.085.15.208.307.291.414l.021.026c.351.449.86 1.074 1.364 1.595.25.259.52.515.786.715.134.1.286.2.45.28Z"/>
</svg>
