<svg xmlns="http://www.w3.org/2000/svg" width="25" height="24" fill="none" viewBox="0 0 25 24">
  <path fill="#161C24" d="M14.54 11.206a1 1 0 1 1-1.414-1.414l4.405-4.405L18.945 6.8l-4.404 4.405Z" opacity=".4"/>
  <path fill="#161C24" d="M17.741 2.173c.56-.067 1.279-.154 1.922-.17.34-.009.701 0 1.03.056.294.05.742.163 1.08.5.338.339.45.787.5 1.08.056.33.065.69.057 1.03-.016.643-.103 1.363-.17 1.922l-.017.134a4.956 4.956 0 0 1-.09.565v.004c-.031.124-.17.69-.766.896-.594.205-1.052-.15-1.153-.23l-.002-.001a4.912 4.912 0 0 1-.416-.385l-.772-.772-2.186-2.186c-.123-.123-.275-.275-.385-.416l-.001-.001c-.079-.102-.435-.56-.23-1.154.206-.595.773-.735.896-.765l.004-.001a4.92 4.92 0 0 1 .565-.09l.134-.016Z"/>
  <path fill="#161C24" d="M10.127 12.794a1 1 0 1 1 1.414 1.414l-4.405 4.405L5.722 17.2l4.404-4.405Z" opacity=".4"/>
  <path fill="#161C24" d="M6.926 21.827c-.559.067-1.279.154-1.922.17a5.515 5.515 0 0 1-1.03-.056c-.293-.05-.742-.163-1.08-.5-.338-.339-.45-.787-.5-1.08a5.51 5.51 0 0 1-.057-1.03c.017-.643.103-1.363.17-1.922l.017-.134c.021-.177.047-.392.09-.565v-.004c.031-.124.171-.69.766-.896.594-.205 1.052.15 1.153.23l.002.001c.14.11.293.261.416.385l2.186 2.186.772.772c.123.123.276.275.385.415l.001.003c.079.1.435.559.23 1.152-.206.596-.773.736-.896.766l-.004.001a4.957 4.957 0 0 1-.565.09l-.134.016Z"/>
</svg>
