<svg xmlns="http://www.w3.org/2000/svg" width="25" height="24" fill="none" viewBox="0 0 25 24">
  <path fill="#161C24" fill-rule="evenodd" d="M3.333 12a1 1 0 0 1 1-1h16a1 1 0 1 1 0 2h-16a1 1 0 0 1-1-1Z" clip-rule="evenodd" opacity=".4"/>
  <path fill="#161C24" d="M5.361 12c.094.155.29.433.503.675.426.482 1.013 1.032 1.625 1.564a42.448 42.448 0 0 0 1.678 1.377c.23.179.626.478.76.579a1 1 0 0 1-1.187 1.61l-.003-.003a44.485 44.485 0 0 1-2.559-2.053c-.638-.553-1.3-1.17-1.813-1.75a6.31 6.31 0 0 1-.673-.89c-.164-.271-.358-.666-.359-1.109 0-.443.195-.838.359-1.11.18-.298.418-.6.673-.89.512-.578 1.175-1.196 1.813-1.75a44.53 44.53 0 0 1 2.559-2.052l.003-.003a1 1 0 0 1 1.187 1.61A42.535 42.535 0 0 0 7.49 9.761c-.613.532-1.2 1.082-1.626 1.564a5.17 5.17 0 0 0-.503.675Z"/>
</svg>
