<svg xmlns="http://www.w3.org/2000/svg" width="25" height="24" fill="none" viewBox="0 0 25 24">
  <path fill="#161C24" d="M18.927 15.805a1 1 0 0 0 .212-1.398 53.178 53.178 0 0 0-2.457-3.063c-.663-.762-1.397-1.55-2.082-2.156a7.379 7.379 0 0 0-1.039-.787C13.245 8.211 12.81 8 12.333 8s-.911.21-1.228.401a7.378 7.378 0 0 0-1.038.787c-.686.606-1.42 1.394-2.082 2.156a53.24 53.24 0 0 0-2.457 3.063A1 1 0 0 0 6.333 16h12a.995.995 0 0 0 .594-.195Z" opacity=".4"/>
  <path fill="#161C24" d="M18.927 15.805a1 1 0 0 0 .212-1.398 53.178 53.178 0 0 0-2.457-3.063c-.663-.762-1.397-1.55-2.082-2.156a7.379 7.379 0 0 0-1.039-.787C13.245 8.211 12.81 8 12.333 8s-.911.21-1.228.401a7.378 7.378 0 0 0-1.038.787 21.626 21.626 0 0 0-1.733 1.76l5 5.052h5a.995.995 0 0 0 .593-.195Z"/>
</svg>
