<svg xmlns="http://www.w3.org/2000/svg" width="25" height="24" fill="none" viewBox="0 0 25 24">
  <path fill="#161C24" d="M10.334 6a1 1 0 0 1 1-1h4.5a5.5 5.5 0 1 1 0 11h-7.5v-2h7.5a3.5 3.5 0 1 0 0-7h-4.5a1 1 0 0 1-1-1Z" opacity=".4"/>
  <path fill="#161C24" d="M7.785 11.107a1 1 0 0 1 .548.893v6a1 1 0 0 1-1.593.805l-.01-.008-.028-.02a19.486 19.486 0 0 1-.452-.346c-.29-.226-.68-.539-1.072-.88-.388-.336-.8-.72-1.125-1.087a4.183 4.183 0 0 1-.447-.592c-.109-.18-.272-.495-.272-.872s.163-.691.272-.872a4.14 4.14 0 0 1 .447-.592 12.37 12.37 0 0 1 1.125-1.088 27.129 27.129 0 0 1 1.524-1.225l.028-.02.007-.006.003-.002a1 1 0 0 1 1.045-.088Z"/>
</svg>
