<svg xmlns="http://www.w3.org/2000/svg" width="25" height="24" fill="none" viewBox="0 0 25 24">
  <path fill="#161C24" fill-rule="evenodd" d="M2.333 12c0-4.378 3.245-7.5 7.5-7.5h11a1 1 0 1 1 0 2h-11c-3.17 0-5.5 2.248-5.5 5.5a1 1 0 1 1-2 0Z" clip-rule="evenodd" opacity=".4"/>
  <path fill="#161C24" d="M18.028 2.407a1 1 0 0 1 1.399-.212l.003.003a22.742 22.742 0 0 1 1.309 1.05c.325.282.676.607.953.921a3.6 3.6 0 0 1 .39.518c.096.158.252.452.252.813 0 .36-.156.655-.251.813a3.648 3.648 0 0 1-.39.518 10.54 10.54 0 0 1-.954.921 22.74 22.74 0 0 1-1.309 1.05l-.003.003a1 1 0 0 1-1.593-.797V3c0-.206.063-.414.194-.593Z"/>
  <path fill="#161C24" fill-rule="evenodd" d="M22.334 12c0 4.378-3.245 7.5-7.5 7.5h-11a1 1 0 1 1 0-2h11c3.17 0 5.5-2.248 5.5-5.5a1 1 0 1 1 2 0Z" clip-rule="evenodd" opacity=".4"/>
  <path fill="#161C24" d="M6.639 21.593a1 1 0 0 1-1.399.212l-.003-.003a22.89 22.89 0 0 1-1.309-1.05 10.493 10.493 0 0 1-.953-.921 3.647 3.647 0 0 1-.39-.518c-.096-.158-.252-.452-.252-.813 0-.36.156-.655.252-.813a3.6 3.6 0 0 1 .39-.518c.277-.314.628-.639.953-.921.33-.287.657-.549.9-.738.12-.094.334-.256.409-.313l.003-.002A1 1 0 0 1 6.834 16v4.996a.996.996 0 0 1-.195.597Z"/>
</svg>
