<svg xmlns="http://www.w3.org/2000/svg" width="25" height="24" fill="none" viewBox="0 0 25 24">
  <path fill="#161C24" fill-rule="evenodd" d="M5.333 20a1 1 0 0 1 1-1h12a1 1 0 1 1 0 2h-12a1 1 0 0 1-1-1Z" clip-rule="evenodd"/>
  <path fill="#161C24" d="M11.334 4a1 1 0 1 1 2 0v7h1.087c.38 0 .772 0 1.084.048.333.051.913.207 1.198.816.283.602.043 1.141-.133 1.433-.16.268-.409.566-.646.85l-.04.046c-.478.573-1.052 1.221-1.598 1.733-.27.255-.559.499-.843.685-.246.162-.647.389-1.11.389-.462 0-.863-.227-1.109-.389a6.446 6.446 0 0 1-.843-.685c-.546-.512-1.12-1.16-1.599-1.733l-.039-.047c-.237-.284-.486-.58-.646-.849-.175-.292-.416-.83-.134-1.433.286-.609.866-.765 1.199-.816C9.474 11 9.867 11 10.246 11h1.088V4Z" opacity=".4"/>
</svg>
