<svg xmlns="http://www.w3.org/2000/svg" width="25" height="24" fill="none" viewBox="0 0 25 24">
  <path fill="#161C24" fill-rule="evenodd" d="M12.334 22c-4.378 0-7.5-3.245-7.5-7.5v-11a1 1 0 1 1 2 0v11c0 3.172 2.247 5.5 5.5 5.5a1 1 0 0 1 0 2Z" clip-rule="evenodd" opacity=".4"/>
  <path fill="#161C24" d="M2.74 6.305a1 1 0 0 1-.212-1.398l.003-.004c.057-.075.219-.289.312-.409.19-.243.452-.57.738-.9.283-.325.608-.675.922-.953.156-.137.332-.278.518-.39.158-.095.452-.25.813-.25.36 0 .654.155.812.25.186.112.362.253.518.39.314.278.64.629.922.954a22.757 22.757 0 0 1 1.05 1.309l.003.003A1 1 0 0 1 8.342 6.5H3.334a.996.996 0 0 1-.593-.195Z"/>
  <path fill="#161C24" fill-rule="evenodd" d="M12.334 2c4.377 0 7.5 3.245 7.5 7.5v11a1 1 0 1 1-2 0v-11c0-3.171-2.248-5.5-5.5-5.5a1 1 0 1 1 0-2Z" clip-rule="evenodd" opacity=".4"/>
  <path fill="#161C24" d="M21.927 17.695a1 1 0 0 1 .212 1.398l-.003.004c-.057.075-.218.29-.312.41-.19.242-.452.569-.738.899-.282.325-.608.676-.922.953a3.64 3.64 0 0 1-.518.39c-.158.096-.452.251-.813.251-.36 0-.654-.155-.812-.25a3.646 3.646 0 0 1-.518-.39c-.314-.278-.64-.629-.922-.954a22.695 22.695 0 0 1-1.05-1.309l-.003-.004a1 1 0 0 1 .806-1.593h4.995a.996.996 0 0 1 .598.195Z"/>
</svg>
