<svg xmlns="http://www.w3.org/2000/svg" width="25" height="24" fill="none" viewBox="0 0 25 24">
  <path fill="#161C24" fill-rule="evenodd" d="M12.334 3a1 1 0 0 1 1 1v16a1 1 0 1 1-2 0V4a1 1 0 0 1 1-1Z" clip-rule="evenodd" opacity=".4"/>
  <path fill="#161C24" d="M12.334 5.028a5.218 5.218 0 0 0-.675.503c-.482.425-1.033 1.012-1.565 1.625A42.574 42.574 0 0 0 8.14 9.593a1 1 0 0 1-1.61-1.186l.002-.004c.11-.144.425-.563.61-.8a44.53 44.53 0 0 1 1.443-1.759c.554-.637 1.171-1.3 1.75-1.812a6.31 6.31 0 0 1 .89-.674c.271-.163.666-.358 1.11-.358.443 0 .838.195 1.109.358.299.18.601.419.89.674.579.512 1.196 1.175 1.75 1.812a44.485 44.485 0 0 1 2.053 2.559l.003.004a1 1 0 0 1-1.61 1.186c-.101-.133-.4-.53-.58-.759-.36-.46-.85-1.07-1.377-1.678-.531-.613-1.082-1.2-1.564-1.625a5.218 5.218 0 0 0-.674-.503Z"/>
</svg>
