<svg xmlns="http://www.w3.org/2000/svg" width="25" height="24" fill="none" viewBox="0 0 25 24">
  <path fill="#161C24" d="M16.139 5.407a1 1 0 0 0-1.399-.212c-.345.254-.673.509-.96.732a53.222 53.222 0 0 0-2.102 1.725c-.763.662-1.55 1.396-2.156 2.081-.302.342-.58.695-.787 1.04-.191.316-.401.751-.401 1.227 0 .476.21.912.4 1.228.208.344.486.697.788 1.039.605.685 1.393 1.42 2.156 2.081a53.357 53.357 0 0 0 3.062 2.457A1 1 0 0 0 16.334 18V6a.995.995 0 0 0-.195-.593Z" opacity=".4"/>
  <path fill="#161C24" d="M16.139 5.407a1 1 0 0 0-1.399-.212c-.345.254-.673.509-.96.732a53.222 53.222 0 0 0-2.102 1.725c-.763.662-1.55 1.396-2.156 2.081-.302.342-.58.695-.787 1.04-.191.316-.401.751-.401 1.227 0 .476.21.912.4 1.228.208.344.486.697.788 1.039.468.53 1.045 1.089 1.636 1.621l5.176-5.176V6a.995.995 0 0 0-.195-.593Z"/>
</svg>
