<svg xmlns="http://www.w3.org/2000/svg" width="25" height="24" fill="none" viewBox="0 0 25 24">
  <path fill="#161C24" d="M14.334 6a1 1 0 0 0-1-1h-4.5a5.5 5.5 0 1 0 0 11h7.5v-2h-7.5a3.5 3.5 0 1 1 0-7h4.5a1 1 0 0 0 1-1Z" opacity=".4"/>
  <path fill="#161C24" d="M16.882 11.107a1 1 0 0 0-.549.893v6a1 1 0 0 0 1.594.805l.01-.008.028-.02.1-.076a27.528 27.528 0 0 0 1.424-1.15c.388-.336.8-.72 1.125-1.087a4.14 4.14 0 0 0 .447-.592c.109-.18.273-.495.273-.872s-.164-.691-.273-.872a4.167 4.167 0 0 0-.447-.592 12.37 12.37 0 0 0-1.125-1.088 27.108 27.108 0 0 0-1.524-1.225l-.028-.02-.007-.006-.003-.002a1 1 0 0 0-1.045-.088Z"/>
</svg>
