<svg xmlns="http://www.w3.org/2000/svg" width="25" height="24" fill="none" viewBox="0 0 25 24">
  <path fill="#161C24" fill-rule="evenodd" d="M21.334 12a1 1 0 0 1-1 1h-16a1 1 0 1 1 0-2h16a1 1 0 0 1 1 1Z" clip-rule="evenodd" opacity=".4"/>
  <path fill="#161C24" d="M19.306 12a5.223 5.223 0 0 0-.503-.675c-.426-.482-1.012-1.032-1.625-1.564a42.49 42.49 0 0 0-2.438-1.956 1 1 0 0 1 1.187-1.61l.003.003a44.567 44.567 0 0 1 2.56 2.052c.638.553 1.301 1.17 1.813 1.75.255.288.493.59.673.89.164.271.359.666.359 1.109 0 .443-.195.838-.359 1.11-.18.298-.418.6-.673.89-.512.578-1.175 1.196-1.813 1.75a44.523 44.523 0 0 1-2.558 2.052l-.004.003a1 1 0 0 1-1.186-1.61 42.403 42.403 0 0 0 2.438-1.956c.611-.532 1.198-1.082 1.624-1.564.214-.242.41-.52.503-.675Z"/>
</svg>
