<svg xmlns="http://www.w3.org/2000/svg" width="25" height="24" fill="none" viewBox="0 0 25 24">
  <path fill="#161C24" d="M9.908 2.25c3.216 0 5.823 2.62 5.823 5.85v5.363a3.405 3.405 0 0 1-3.397 3.412 3.405 3.405 0 0 1-3.397-3.412v-3.9c0-.539.435-.976.97-.976.537 0 .971.437.971.975v3.9a1.46 1.46 0 0 0 1.456 1.463 1.46 1.46 0 0 0 1.456-1.463V8.1c0-2.154-1.738-3.9-3.882-3.9V2.25Z"/>
  <path fill="#161C24" d="M9.907 4.2a3.891 3.891 0 0 0-3.882 3.9v5.363c0 3.5 2.824 6.337 6.309 6.337 3.484 0 6.308-2.837 6.308-6.338V12c0-.538.435-.975.97-.975.537 0 .972.437.972.975v1.463c0 4.577-3.694 8.287-8.25 8.287-4.557 0-8.25-3.71-8.25-8.287V8.1c0-3.23 2.607-5.85 5.823-5.85V4.2Z" opacity=".4"/>
</svg>
