<svg xmlns="http://www.w3.org/2000/svg" width="25" height="24" fill="none" viewBox="0 0 25 24">
  <path fill="#161C24" d="M4.083 9.5a8.25 8.25 0 1 1 16.5 0 8.25 8.25 0 0 1-16.5 0Z" opacity=".4"/>
  <path fill="#161C24" d="M16.287 7.2a1 1 0 0 1-.653 1.254c-.788.248-1.759 1.068-2.615 1.98-.407.434-1.127 1.34-1.372 1.648a1.001 1.001 0 0 1-1.685-.091c-.304-.54-.627-.766-.733-.83a1 1 0 0 1 .105-1.994c.519 0 .752.173.978.307.173.102.351.234.53.401.209-.248.451-.524.718-.809.864-.92 2.144-2.1 3.473-2.52a1 1 0 0 1 1.254.654Zm-9.945 7.97-.553 2.65c-.204.977-.375 1.797-.433 2.432-.055.609-.047 1.38.48 1.962.276.305.634.486 1.04.527.363.038.705-.043.986-.139.523-.177 1.163-.528 1.864-.912l2.351-1.287c.094-.05.164-.09.226-.122l.03-.016.032.016.225.122 2.351 1.287c.701.384 1.342.735 1.865.912.28.096.623.177.986.14a1.599 1.599 0 0 0 1.04-.528c.526-.582.535-1.353.48-1.962-.058-.635-.23-1.455-.433-2.432l-.553-2.65a8.29 8.29 0 0 1-1.75 1.407l.332 1.588c.22 1.057.366 1.762.412 2.267.008.094.012.17.013.234-.33-.13-.792-.38-1.51-.773l-2.299-1.258a6.17 6.17 0 0 0-.489-.25 1.74 1.74 0 0 0-.701-.157 1.74 1.74 0 0 0-.701.157 6.17 6.17 0 0 0-.49.25l-2.3 1.258c-.717.393-1.179.642-1.509.773.001-.063.005-.14.014-.234.046-.505.191-1.21.412-2.267l.332-1.588a8.286 8.286 0 0 1-1.75-1.406Z"/>
</svg>
