<svg xmlns="http://www.w3.org/2000/svg" width="25" height="24" fill="none" viewBox="0 0 25 24">
  <path fill="#161C24" fill-rule="evenodd" d="M12.334 1c-.73 0-1.4.188-2.14.512-.72.314-1.554.778-2.602 1.362L3.45 5.179c-.577.32-1.06.724-1.39 1.267-.334.546-.476 1.171-.476 1.873v.066c0 .256-.001.515.06.747.155.583.524.959.977 1.16.407.182.85.208 1.182.208h17.061c.333 0 .775-.026 1.183-.208.452-.201.821-.577.976-1.16.062-.232.061-.491.06-.747V8.32c0-.702-.142-1.327-.475-1.873-.331-.543-.814-.946-1.39-1.267l-4.142-2.305c-1.05-.584-1.883-1.048-2.602-1.362-.741-.324-1.411-.512-2.14-.512Zm-.004 4.75a1 1 0 1 0 0 2h.009a1 1 0 1 0 0-2h-.01Z" clip-rule="evenodd"/>
  <path fill="#161C24" d="M1.583 21.5c0-1.657 1.68-3 3.75-3h14c2.072 0 3.75 1.343 3.75 3 0 .552-.56 1-1.25 1h-19c-.69 0-1.25-.448-1.25-1Z"/>
  <path fill="#161C24" d="M5.333 17.25h3.35c.19 0 .283 0 .342-.059.059-.058.059-.152.059-.341v-4.7c0-.189 0-.283-.06-.341-.058-.059-.152-.059-.34-.059H3.772a.197.197 0 0 0-.19.19v5.048c0 .256 0 .384.077.445.077.06.21.027.474-.038a5.011 5.011 0 0 1 1.2-.145Zm14 0c.414 0 .816.05 1.2.145.265.065.397.098.474.038.076-.06.076-.189.076-.445v-5.047a.197.197 0 0 0-.19-.19l-.029-.001h-4.88c-.189 0-.283 0-.342.059-.058.058-.058.152-.058.341v4.7c0 .189 0 .283.058.341.059.059.153.059.341.059h3.35Z" opacity=".4"/>
</svg>
