<svg xmlns="http://www.w3.org/2000/svg" width="25" height="24" fill="none" viewBox="0 0 25 24">
  <path fill="#161C24" fill-rule="evenodd" d="M6.083 13a3 3 0 1 0 0 6 3 3 0 0 0 0-6Zm-5 3a5 5 0 1 1 10 0 5 5 0 0 1-10 0Zm17.501-3a3 3 0 1 0 0 6 3 3 0 0 0 0-6Zm-5 3a5 5 0 1 1 10 0 5 5 0 0 1-10 0Z" clip-rule="evenodd"/>
  <path fill="#161C24" fill-rule="evenodd" d="M8.102 6.36a1 1 0 0 0-1.537 1.28l4.948 5.937L10.704 15h-4.37a1 1 0 1 0 0 2h4.37a2 2 0 0 0 1.739-1.011l4.26-7.495a1 1 0 0 0-1.739-.988L12.57 11.72 8.102 6.36Z" clip-rule="evenodd" opacity=".4"/>
  <path fill="#161C24" fill-rule="evenodd" d="M4.333 7a1 1 0 0 1 1-1h4a1 1 0 0 1 0 2h-4a1 1 0 0 1-1-1Zm10.383-3.475C15.15 3.05 15.766 3 16.128 3c.89 0 1.967.052 2.92.435 1.018.41 1.873 1.189 2.247 2.516a1 1 0 0 1-1.925.543c-.188-.667-.56-1-1.067-1.203-.5-.2-1.132-.273-1.858-.288l2.88 10.738a1 1 0 1 1-1.932.518L14.417 5.16c-.117-.443-.18-1.11.3-1.635Z" clip-rule="evenodd"/>
</svg>
