<svg xmlns="http://www.w3.org/2000/svg" width="25" height="24" fill="none" viewBox="0 0 25 24">
  <path fill="#161C24" d="M11.248 1.498c.369-.14.73-.248 1.086-.248.354 0 .716.109 1.085.248.373.14.838.347 1.42.605.853.379 1.98.814 3.188 1.157.882.251 1.595.454 2.135.663.543.21 1.035.472 1.366.91.32.425.444.921.5 1.456.056.517.056 1.165.056 1.95v2.944c0 3.056-1.38 5.48-3.047 7.286-1.662 1.8-3.642 3.025-4.947 3.714l-.063.033c-.556.294-1.01.534-1.693.534s-1.138-.24-1.694-.534l-.063-.033c-1.305-.69-3.285-1.914-4.947-3.714-1.667-1.807-3.046-4.23-3.046-7.286V8.24c0-.785 0-1.433.054-1.95.057-.535.18-1.031.501-1.456.331-.438.824-.7 1.366-.91.54-.21 1.253-.412 2.135-.663a24.758 24.758 0 0 0 3.19-1.158c.58-.258 1.046-.465 1.42-.605Z" opacity=".4"/>
  <path fill="#161C24" fill-rule="evenodd" d="M15.084 9.901V9a2.75 2.75 0 1 0-5.5 0v.901a1.927 1.927 0 0 0-.62.314 2.25 2.25 0 0 0-.416.415c-.271.355-.375.755-.421 1.166-.044.386-.044.943-.043 1.495 0 .551 0 1.027.043 1.413.046.41.15.811.421 1.166.12.156.26.295.416.415.354.272.755.375 1.166.421.386.044.861.044 1.413.044h1.581c.552 0 1.027 0 1.413-.044.411-.046.812-.15 1.166-.421.156-.12.296-.26.416-.415.271-.355.375-.755.421-1.166.044-.386.044-.862.044-1.413 0-.552 0-1.109-.044-1.495-.046-.41-.15-.811-.421-1.166a2.25 2.25 0 0 0-.416-.415 1.926 1.926 0 0 0-.62-.314Zm-4-.901a1.25 1.25 0 0 1 2.5 0v.751h-2.5V9Z" clip-rule="evenodd"/>
</svg>
