<svg xmlns="http://www.w3.org/2000/svg" width="25" height="24" fill="none" viewBox="0 0 25 24">
  <path fill="#161C24" d="M12.388 1.25c1.84 0 3.293 0 4.43.147 1.168.152 2.115.47 2.864 1.192.754.725 1.09 1.648 1.248 2.786.154 1.101.154 2.507.154 4.274v8.397c0 1.097 0 2.01-.106 2.695-.109.709-.363 1.399-1.064 1.773-.625.334-1.313.266-1.896.089-.59-.18-1.189-.504-1.738-.85a26.818 26.818 0 0 1-1.57-1.1c-.462-.341-.89-.657-1.173-.828-.4-.24-.652-.392-.857-.488-.188-.089-.28-.103-.346-.103-.067 0-.159.014-.347.103-.205.096-.457.247-.857.488-.283.17-.71.487-1.174.829-.472.349-1.015.748-1.57 1.098-.548.347-1.147.672-1.737.85-.583.178-1.27.246-1.896-.088-.7-.374-.955-1.064-1.064-1.773-.106-.686-.106-1.598-.106-2.695V9.649c0-1.767 0-3.172.154-4.274.159-1.138.494-2.06 1.248-2.786.749-.722 1.696-1.04 2.863-1.192 1.138-.147 2.592-.147 4.43-.147h.11Z" opacity=".4"/>
  <path fill="#161C24" d="M17.281 7.68a1 1 0 0 1-.628 1.268c-.45.152-.976.481-1.541.953a14.652 14.652 0 0 0-1.578 1.57 23.301 23.301 0 0 0-1.619 2.084 1 1 0 0 1-1.717-.09c-.373-.711-.701-.982-.854-1.079a.599.599 0 0 0-.11-.057 1 1 0 0 1 .1-1.995c.171 0 .318.035.412.06.19.053.42.145.67.304.224.141.455.33.688.58.262-.337.575-.724.926-1.124a16.638 16.638 0 0 1 1.8-1.788c.651-.545 1.399-1.048 2.184-1.313a1 1 0 0 1 1.267.628Z"/>
</svg>
