<svg xmlns="http://www.w3.org/2000/svg" width="25" height="24" fill="none" viewBox="0 0 25 24">
  <path fill="#161C24" fill-rule="evenodd" d="M17.209 1.125a1 1 0 0 1 1 1v3h3a1 1 0 1 1 0 2h-3v3a1 1 0 1 1-2 0v-3h-3a1 1 0 1 1 0-2h3v-3a1 1 0 0 1 1-1Z" clip-rule="evenodd"/>
  <path fill="#161C24" d="M14.709 2.125v.9c0 .283 0 .424-.088.512-.088.088-.23.088-.513.088h-.9a2.5 2.5 0 0 0 0 5h.9c.283 0 .425 0 .513.088.088.088.088.23.088.512v.9a2.5 2.5 0 0 0 4.722 1.147.292.292 0 0 1 .255-.162c.15 0 .273.121.273.272v6.789c0 1.097 0 2.01-.106 2.695-.109.709-.363 1.399-1.064 1.773-.625.334-1.313.266-1.896.089-.59-.18-1.189-.504-1.738-.85a28.883 28.883 0 0 1-1.625-1.14c-.463-.342-.835-.617-1.118-.788-.4-.24-.652-.392-.857-.488-.188-.089-.28-.103-.346-.103-.067 0-.159.014-.347.103-.205.096-.457.247-.857.488-.283.17-.655.446-1.118.788-.472.349-1.071.789-1.625 1.14-.549.346-1.148.67-1.738.85-.583.177-1.27.245-1.896-.09-.7-.373-.955-1.064-1.064-1.773-.106-.685-.106-1.597-.106-2.694V9.774c0-1.767 0-3.172.154-4.274.159-1.138.494-2.06 1.248-2.786.749-.722 1.696-1.04 2.863-1.192 1.137-.147 2.592-.147 4.43-.147h.11c1.076 0 2.02 0 2.847.03.275.01.413.014.493.082a.255.255 0 0 1 .041.043c.065.081.065.252.065.595Z" opacity=".4"/>
</svg>
