<svg xmlns="http://www.w3.org/2000/svg" width="25" height="24" fill="none" viewBox="0 0 25 24">
  <path fill="#161C24" d="M12.388 1.25c1.84 0 3.293 0 4.43.147 1.168.152 2.115.47 2.864 1.192.754.725 1.09 1.648 1.248 2.786.154 1.101.154 2.507.154 4.274v8.397c0 1.097 0 2.01-.106 2.695-.109.709-.363 1.399-1.064 1.773-.625.334-1.313.266-1.896.089-.59-.18-1.189-.504-1.738-.85a28.883 28.883 0 0 1-1.625-1.14c-.463-.342-.835-.617-1.118-.788-.4-.24-.652-.392-.857-.488-.188-.089-.28-.103-.346-.103-.067 0-.159.014-.347.103-.205.096-.457.247-.857.488-.283.17-.655.446-1.118.788-.472.349-1.071.789-1.625 1.14-.549.346-1.148.67-1.738.85-.583.177-1.27.245-1.896-.09-.7-.373-.955-1.064-1.064-1.773-.106-.685-.106-1.597-.106-2.694V9.649c0-1.767 0-3.172.154-4.274.159-1.138.494-2.06 1.248-2.786.749-.722 1.696-1.04 2.863-1.192 1.138-.147 2.592-.147 4.43-.147h.11Z" opacity=".4"/>
  <path fill="#161C24" d="M20.978 20.74c.106-.685.105-1.597.105-2.694V12l-8.75 7.234c.067 0 .159.014.347.103.205.096.457.247.857.488.283.17.655.446 1.118.788.472.349 1.071.789 1.625 1.14.549.346 1.148.67 1.738.85.583.177 1.27.245 1.896-.09.7-.373.955-1.064 1.064-1.773Z"/>
</svg>
