<svg xmlns="http://www.w3.org/2000/svg" width="25" height="24" fill="none" viewBox="0 0 25 24">
  <path fill="#161C24" fill-rule="evenodd" d="M21.916 1.418a1 1 0 0 1 0 1.414l-2.794 2.793 2.794 2.793A1 1 0 0 1 20.5 9.832L17.708 7.04l-2.792 2.793A1 1 0 1 1 13.5 8.417l2.793-2.792L13.5 2.833a1 1 0 0 1 1.415-1.415l2.792 2.793L20.5 1.418a1 1 0 0 1 1.415 0Z" clip-rule="evenodd"/>
  <path fill="#161C24" d="M11.717 1.924c.014-.18.021-.271.01-.317a.268.268 0 0 0-.2-.218c-.045-.014-.118-.014-.264-.014h-.11c-1.838 0-3.293 0-4.43.147-1.167.152-2.114.47-2.863 1.192-.754.725-1.09 1.648-1.248 2.786-.154 1.101-.154 2.507-.154 4.274v8.397c0 1.097 0 2.01.106 2.695.109.709.363 1.399 1.064 1.773.625.334 1.313.266 1.896.089.59-.18 1.189-.504 1.738-.85a28.883 28.883 0 0 0 1.625-1.14c.463-.342.835-.617 1.118-.788.4-.24.652-.392.857-.488.188-.089.28-.103.347-.103.066 0 .158.014.346.103.205.096.457.247.857.488.283.17.655.446 1.118.788.472.349 1.071.789 1.625 1.14.549.346 1.148.67 1.738.85.583.177 1.27.245 1.896-.09.7-.373.955-1.064 1.064-1.773.106-.685.105-1.597.105-2.694v-6.534c0-.16 0-.239-.03-.3-.03-.063-.106-.122-.256-.24a2.513 2.513 0 0 1-.231-.204l-1.308-1.308c-.2-.2-.3-.3-.425-.3-.124 0-.224.1-.424.3l-1.308 1.307a2.5 2.5 0 0 1-3.535-3.535l1.307-1.308c.2-.2.3-.3.3-.424s-.1-.224-.3-.424l-1.307-1.308a2.495 2.495 0 0 1-.724-1.97Z" opacity=".4"/>
</svg>
