<svg xmlns="http://www.w3.org/2000/svg" width="25" height="24" fill="none" viewBox="0 0 25 24">
  <path fill="#161C24" d="m6.454 2.553-.062-.012c-.793-.153-1.485-.287-2.067-.29-.65-.005-1.23.149-1.759.607-.542.472-.777 1.078-.883 1.771-.1.646-.1 1.458-.1 2.424v7.412c0 .893 0 1.624.063 2.203.064.597.204 1.145.567 1.6.378.475.93.724 1.538.907.604.182 1.398.335 2.38.525l.043.008c1.743.337 3.087.87 4.042 1.393l.02.01c.488.267.879.481 1.178.627.079.038.17-.02.17-.108V5.037c0-.272 0-.408-.068-.525-.068-.117-.178-.18-.4-.306-1.121-.642-2.678-1.27-4.662-1.653Z"/>
  <path fill="#161C24" d="M13.55 4.206c-.22.126-.331.19-.399.306-.067.117-.067.253-.067.525V21.63c0 .088.09.146.17.108.298-.146.689-.36 1.178-.627l.018-.01c.956-.523 2.3-1.056 4.043-1.393l.042-.008c.983-.19 1.777-.343 2.38-.525.608-.183 1.161-.432 1.54-.906.362-.456.502-1.004.566-1.6.063-.58.063-1.311.063-2.204V7.053c0-.966 0-1.778-.1-2.424-.106-.693-.34-1.3-.883-1.77-.528-.46-1.109-.613-1.759-.609-.582.004-1.274.138-2.067.29l-.062.013c-1.984.383-3.54 1.011-4.662 1.653Z" opacity=".4"/>
</svg>
