<svg xmlns="http://www.w3.org/2000/svg" width="25" height="24" fill="none" viewBox="0 0 25 24">
  <path fill="#161C24" fill-rule="evenodd" d="M12.209 6a1 1 0 0 1 1-1h8a1 1 0 1 1 0 2h-8a1 1 0 0 1-1-1Z" clip-rule="evenodd"/>
  <path fill="#161C24" d="M15.694 1.397c-1.138-.147-2.592-.147-4.43-.147h-.11c-1.84 0-3.293 0-4.43.147-1.168.152-2.115.47-2.864 1.192-.754.725-1.09 1.648-1.248 2.786-.154 1.101-.154 2.507-.154 4.274v8.397c0 1.097 0 2.01.106 2.695.109.709.363 1.399 1.064 1.773.625.334 1.313.266 1.896.089.59-.18 1.189-.504 1.738-.85a28.49 28.49 0 0 0 1.625-1.14c.463-.342.835-.617 1.118-.788.4-.24.652-.392.857-.488.188-.089.28-.103.347-.103.066 0 .158.014.346.103.205.096.457.247.857.488.283.17.655.446 1.118.788.472.349 1.071.789 1.625 1.14.549.346 1.148.67 1.738.85.583.177 1.27.245 1.896-.09.7-.373.955-1.064 1.064-1.773.106-.685.105-1.597.105-2.694V9.099c0-.283 0-.424-.089-.511-.087-.088-.229-.088-.51-.088h-6.15a2.5 2.5 0 0 1 0-5h5.035c.458 0 .687 0 .765-.182.077-.183-.065-.33-.35-.627a3.85 3.85 0 0 0-.102-.102c-.749-.722-1.696-1.04-2.863-1.192Z" opacity=".4"/>
</svg>
