<svg xmlns="http://www.w3.org/2000/svg" width="25" height="24" fill="none" viewBox="0 0 25 24">
  <path fill="#161C24" d="M20.719 1.505c-2.114-.54-4.841-.342-7.269 1.761-1.534-.269-3.181-.017-4.5.742C7.651 4.755 6.667 6 6.466 7.681A4.662 4.662 0 0 0 3.35 9.988c-.645 1.147-.842 2.537-.63 3.863-.598.736-.905 1.669-1.042 2.617-.159 1.09-.104 2.277.048 3.384.345 2.52 3.162 3.646 5.217 2.36 3.036-1.902 6.198-4.401 9.223-7.384 3.117-3.074 4.842-5.433 6.361-8.088.542-.947.7-2.072.42-3.06-.287-1.012-1.035-1.87-2.23-2.175Z" opacity=".4"/>
  <path fill="#161C24" d="M1.865 15.582C2.3 15.407 3.1 15.262 4 15.28c1.021.019 1.927.242 2.42.634a.75.75 0 1 0 .933-1.175c-.883-.701-2.197-.938-3.325-.96a9.073 9.073 0 0 0-1.307.07v.004c-.409.504-.682 1.1-.857 1.729Zm1.639-5.845c3.476-1.397 6.997-.31 8.596.694a.75.75 0 0 0 .798-1.27c-1.363-.856-3.733-1.63-6.43-1.479v.001a4.653 4.653 0 0 0-2.964 2.054Zm4.524-5.061c3.806-1.126 7.482.734 8.51 1.378a.75.75 0 0 0 .795-1.272c-.637-.399-2.042-1.1-3.89-1.515-1.531-.267-3.176-.014-4.493.744-.33.19-.64.412-.922.665Z"/>
</svg>
