<svg xmlns="http://www.w3.org/2000/svg" width="25" height="24" fill="none" viewBox="0 0 25 24">
  <path fill="#161C24" d="M3.187 21.617a.75.75 0 0 1-.542-1.032c.423-.981.415-1.748.406-2.576l-.002-.362c0-.48.022-1.014.198-1.567.18-.565.505-1.106 1.046-1.645a3.922 3.922 0 0 1 5.522 0 3.872 3.872 0 0 1 0 5.5c-1.295 1.287-2.99 1.688-4.285 1.787a10.02 10.02 0 0 1-1.648-.012 7.03 7.03 0 0 1-.695-.093Z"/>
  <path fill="#161C24" d="M7.272 13.305c.993-1.196 2.68-2.998 3.967-4.291 2.214-2.2 4.401-4.039 6.156-5.231.872-.593 1.669-1.048 2.327-1.3.327-.126.662-.218.978-.231.314-.014.713.048 1.022.355.31.308.373.708.36 1.023-.014.316-.107.65-.234.976-.254.655-.712 1.447-1.31 2.313-1.2 1.744-3.05 3.916-5.265 6.116-1.302 1.278-3.113 2.952-4.317 3.939a3.865 3.865 0 0 0-.438-1.589 67.25 67.25 0 0 0 2.907-2.642l-1.9-1.887a67.383 67.383 0 0 0-2.657 2.886 3.925 3.925 0 0 0-1.596-.437ZM3.47 21.664Z" opacity=".5"/>
</svg>
