<svg xmlns="http://www.w3.org/2000/svg" width="25" height="24" fill="none" viewBox="0 0 25 24">
  <path fill="#161C24" d="M12.334 1.25c-5.905 0-10.75 4.588-10.75 10.317 0 2.747 1.12 5.24 2.934 7.082.268.272.355.551.316.756a4.542 4.542 0 0 1-.931 2.015.75.75 0 0 0 .444 1.21c1.612.3 3.282.03 4.714-.731.233-.125.386-.206.5-.26a.35.35 0 0 1 .2-.035c.112.015.262.043.5.088.683.128 1.377.192 2.073.191 5.904 0 10.75-4.588 10.75-10.316 0-5.729-4.846-10.317-10.75-10.317Z" opacity=".4"/>
  <path fill="#161C24" d="M8.334 11a1 1 0 1 0 0 2h.008a1 1 0 1 0 0-2h-.008Zm3.996 0a1 1 0 1 0 0 2h.008a1 1 0 1 0 0-2h-.009Zm3.995 0a1 1 0 1 0 0 2h.009a1 1 0 1 0 0-2h-.01Z"/>
</svg>
