<svg xmlns="http://www.w3.org/2000/svg" width="25" height="24" fill="none" viewBox="0 0 25 24">
  <path fill="#161C24" fill-rule="evenodd" d="M2.834 21.75a1 1 0 0 1 1-1h17a1 1 0 1 1 0 2h-17a1 1 0 0 1-1-1Z" clip-rule="evenodd"/>
  <path fill="#161C24" d="M7.152 1.427c.61-.134 1.338-.177 2.182-.177h6c.843 0 1.572.043 2.182.177.619.136 1.163.376 1.59.802.425.426.665.97.8 1.589.135.61.178 1.338.178 2.182v16h-15.5V6c0-.844.043-1.572.177-2.182.136-.619.375-1.163.801-1.59.427-.425.97-.665 1.59-.8Z" opacity=".4"/>
  <path fill="#161C24" fill-rule="evenodd" d="M10.084 6a.75.75 0 0 1 .75-.75h3a.75.75 0 1 1 0 1.5h-3a.75.75 0 0 1-.75-.75Zm0 3.5a.75.75 0 0 1 .75-.75h3a.75.75 0 1 1 0 1.5h-3a.75.75 0 0 1-.75-.75Zm0 3.5a.75.75 0 0 1 .75-.75h3a.75.75 0 1 1 0 1.5h-3a.75.75 0 0 1-.75-.75Zm-.51 3.65c.489-.588 1.25-.65 1.926-.65h1.667c.676 0 1.438.062 1.927.65.235.282.35.62.411.954.06.333.079.72.079 1.146v3h-1.5v-3c0-.4-.018-.678-.054-.875-.036-.196-.08-.255-.089-.265a.067.067 0 0 0-.02-.016.415.415 0 0 0-.103-.039c-.127-.033-.326-.055-.65-.055H11.5c-.324 0-.524.022-.65.055a.413.413 0 0 0-.104.039.065.065 0 0 0-.02.016c-.009.01-.052.069-.088.265a5.132 5.132 0 0 0-.054.875v3h-1.5v-3c0-.427.018-.813.079-1.146.06-.334.175-.672.41-.955Z" clip-rule="evenodd"/>
</svg>
