<svg xmlns="http://www.w3.org/2000/svg" width="25" height="24" fill="none" viewBox="0 0 25 24">
  <path fill="#161C24" d="M13.13 1.003a165.345 165.345 0 0 1-1.586 0C10.118.996 8.68.989 7.268 1.179c-1.336.18-2.441.56-3.317 1.436-.802.803-1.19 1.8-1.388 2.993-.294 1.776-.222 3.602-.222 5.396v2.074c0 2.057 0 3.703.174 4.995.18 1.335.561 2.441 1.437 3.317.875.875 1.98 1.257 3.316 1.436 1.412.19 2.85.183 4.277.177a161.555 161.555 0 0 1 1.585 0c1.426.006 2.865.013 4.276-.177 1.336-.18 2.442-.56 3.317-1.436.876-.876 1.257-1.982 1.437-3.317.174-1.292.173-2.938.173-4.995V9.889c-.006-1.726-.033-3.14-.222-4.28-.197-1.194-.585-2.191-1.388-2.994-.876-.875-1.981-1.257-3.317-1.436-1.411-.19-2.85-.183-4.276-.176Z" opacity=".4"/>
  <path fill="#161C24" fill-rule="evenodd" d="M7.534 3.16c-1.115.15-1.728.427-2.17.869-.407.407-.673.957-.83 1.905-.108.659-.157 1.457-.178 2.46-.006.285-.01.427.079.517.088.09.231.09.518.09H19.72c.286 0 .43 0 .518-.09.088-.09.085-.232.079-.516-.022-1.004-.07-1.802-.18-2.46-.156-.949-.422-1.5-.829-1.906-.442-.442-1.055-.72-2.17-.87-1.142-.153-2.653-.155-4.802-.155-2.149 0-3.66.002-4.802.156Zm7.8 1.84a1 1 0 1 0 0 2h2a1 1 0 0 0 0-2h-2Zm-9.001 9a1 1 0 0 1 1-1h.527a1 1 0 1 1 0 2h-.527a1 1 0 0 1-1-1Zm4.737 0a1 1 0 0 1 1-1h.527a1 1 0 1 1 0 2h-.527a1 1 0 0 1-1-1Zm4.737 0a1 1 0 0 1 1-1h.527a1 1 0 0 1 0 2h-.527a1 1 0 0 1-1-1Zm-9.474 4a1 1 0 0 1 1-1h.527a1 1 0 1 1 0 2h-.527a1 1 0 0 1-1-1Zm4.737 0a1 1 0 0 1 1-1h.527a1 1 0 1 1 0 2h-.527a1 1 0 0 1-1-1Zm4.737 0a1 1 0 0 1 1-1h.527a1 1 0 0 1 0 2h-.527a1 1 0 0 1-1-1Z" clip-rule="evenodd"/>
</svg>
