<svg xmlns="http://www.w3.org/2000/svg" width="25" height="24" fill="none" viewBox="0 0 25 24">
  <path fill="#161C24" fill-rule="evenodd" d="M7.333 2.125a1 1 0 0 0-2 0v.712c.386-.129.803-.22 1.252-.285.236-.034.486-.062.748-.084v-.343Zm12 .712a7.263 7.263 0 0 0-1.25-.285 12.688 12.688 0 0 0-.75-.084v-.343a1 1 0 1 1 2 0v.712Z" clip-rule="evenodd"/>
  <path fill="#161C24" d="M13.344 2.375c1.964 0 3.52 0 4.738.177 1.259.183 2.264.568 3.05 1.417.778.841 1.124 1.904 1.29 3.236.162 1.304.162 2.976.162 5.11v.62c0 2.133 0 3.806-.163 5.11-.165 1.332-.511 2.395-1.289 3.236-.786.849-1.791 1.234-3.05 1.417-1.218.177-2.774.177-4.738.177h-2.021c-1.964 0-3.52 0-4.738-.177-1.259-.183-2.264-.568-3.05-1.417-.778-.841-1.124-1.904-1.29-3.235-.162-1.305-.162-2.977-.162-5.111v-.62c0-2.133 0-3.806.163-5.11.165-1.332.511-2.395 1.289-3.236.786-.849 1.791-1.234 3.05-1.417 1.218-.177 2.774-.177 4.738-.177h2.021Z" opacity=".4"/>
  <path fill="#161C24" fill-rule="evenodd" d="M9.933 12.125a1.4 1.4 0 0 1 1.4 1.4v3.6a1 1 0 1 1-2 0v-3a1 1 0 1 1 0-2h.6Z" clip-rule="evenodd"/>
  <path fill="#161C24" d="M12.334 13.125a1 1 0 0 1 1-1h1.72c.797 0 1.538.79 1.201 1.697l-1.354 3.65a1 1 0 0 1-1.875-.695l.984-2.652h-.676a1 1 0 0 1-1-1Z"/>
  <path fill="#161C24" fill-rule="evenodd" d="M5.333 8.125a1 1 0 0 1 1-1h12a1 1 0 1 1 0 2h-12a1 1 0 0 1-1-1Z" clip-rule="evenodd"/>
</svg>
