<svg xmlns="http://www.w3.org/2000/svg" width="25" height="24" fill="none" viewBox="0 0 25 24">
  <path fill="#161C24" d="M7.333 2a1 1 0 0 0-2 0v.449c.38-.12.786-.207 1.216-.27.248-.035.51-.064.784-.087V2Zm12.001.449a7.66 7.66 0 0 0-1.216-.27 13.01 13.01 0 0 0-.784-.087V2a1 1 0 1 1 2 0v.449Z"/>
  <path fill="#161C24" fill-rule="evenodd" d="M13.362 2h-2.057c-1.949 0-3.52 0-4.756.18-1.29.187-2.359.588-3.197 1.495-.829.895-1.186 2.018-1.354 3.374-.165 1.32-.165 3.005-.165 5.125v.652c0 2.12 0 3.805.165 5.125.168 1.356.525 2.479 1.354 3.374.838.907 1.907 1.308 3.197 1.495 1.236.18 2.807.18 4.756.18h2.057c1.949 0 3.52 0 4.756-.18 1.29-.187 2.359-.588 3.198-1.495.828-.895 1.185-2.018 1.353-3.374.165-1.32.165-3.005.165-5.125v-.652c0-2.12 0-3.805-.165-5.125-.168-1.356-.525-2.479-1.354-3.374-.838-.907-1.907-1.308-3.197-1.495C16.882 2 15.311 2 13.362 2Zm-8.53 7c-.46 0-.689 0-.835.144-.146.144-.149.37-.155.824-.008.673-.009 1.426-.009 2.275v.514c0 2.205.002 3.765.15 4.947.144 1.162.413 1.805.837 2.263.413.447.978.723 2.016.874 1.076.156 2.502.159 4.547.159h1.9c2.046 0 3.472-.003 4.548-.159 1.038-.15 1.603-.427 2.016-.874.424-.458.693-1.101.838-2.262.147-1.183.149-2.743.149-4.948v-.514c0-.849 0-1.602-.01-2.275-.005-.453-.008-.68-.154-.824C20.524 9 20.294 9 19.836 9H4.83Z" clip-rule="evenodd" opacity=".4"/>
</svg>
