<svg xmlns="http://www.w3.org/2000/svg" width="25" height="24" fill="none" viewBox="0 0 25 24">
  <path fill="#161C24" fill-rule="evenodd" d="M13.833 2.5a1 1 0 0 1 1 1v3a1 1 0 1 1-2 0v-3a1 1 0 0 1 1-1Zm5.707 2.293a1 1 0 0 1 0 1.414l-2 2a1 1 0 1 1-1.414-1.414l2-2a1 1 0 0 1 1.414 0ZM16.833 10.5a1 1 0 0 1 1-1h3a1 1 0 1 1 0 2h-3a1 1 0 0 1-1-1Z" clip-rule="evenodd"/>
  <path fill="#161C24" d="m9.424 5.056-.253-.57c-.34-.767-.511-1.151-.792-1.422a2.007 2.007 0 0 0-.642-.418C7.375 2.5 6.955 2.5 6.115 2.5c-1.25 0-1.876 0-2.363.304a2.132 2.132 0 0 0-.74.818c-.253.515-.196 1.083-.081 2.219.953 9.421 6.14 14.609 15.562 15.561 1.135.115 1.703.172 2.218-.08.316-.156.632-.441.819-.74.303-.488.303-1.113.303-2.364 0-.84 0-1.26-.146-1.621a2.007 2.007 0 0 0-.418-.643c-.27-.28-.654-.45-1.422-.792l-.57-.253c-.672-.3-1.009-.449-1.346-.477-.359-.03-.72.037-1.043.194-.305.147-.565.408-1.086.928-.511.512-.768.768-1.1.919a2.198 2.198 0 0 1-1.133.155c-.362-.056-.628-.206-1.16-.506-1.884-1.063-3.135-2.314-4.198-4.199-.3-.531-.45-.797-.505-1.159a2.185 2.185 0 0 1 .155-1.132c.15-.333.406-.59.918-1.101.52-.52.78-.78.929-1.086.157-.324.223-.684.193-1.043-.028-.337-.178-.673-.477-1.346Z" opacity=".4"/>
</svg>
