<svg xmlns="http://www.w3.org/2000/svg" width="25" height="24" fill="none" viewBox="0 0 25 24">
  <path fill="#161C24" d="m9.425 5.056-.254-.57c-.34-.768-.511-1.151-.792-1.423a2.007 2.007 0 0 0-.642-.417C7.375 2.5 6.955 2.5 6.115 2.5c-1.25 0-1.876 0-2.363.303a2.132 2.132 0 0 0-.74.819c-.253.515-.196 1.083-.08 2.218.952 9.422 6.14 14.61 15.561 15.562 1.135.115 1.703.172 2.219-.08.316-.156.632-.442.818-.74.303-.488.303-1.113.303-2.364 0-.84 0-1.26-.146-1.622a2.006 2.006 0 0 0-.417-.642c-.271-.28-.655-.451-1.423-.792l-.57-.254c-.672-.298-1.008-.448-1.346-.476a2.01 2.01 0 0 0-1.043.194c-.305.147-.565.407-1.085.928-.512.512-.768.768-1.102.918-.324.147-.78.21-1.132.155-.361-.055-.627-.205-1.159-.505-1.884-1.063-3.136-2.315-4.199-4.199-.3-.531-.45-.797-.505-1.159a2.185 2.185 0 0 1 .155-1.132c.15-.334.407-.59.919-1.102.52-.52.78-.78.928-1.085.157-.324.224-.684.193-1.043-.028-.337-.177-.674-.476-1.346Z" opacity=".4"/>
</svg>
