<svg xmlns="http://www.w3.org/2000/svg" width="25" height="24" fill="none" viewBox="0 0 25 24">
  <path fill="#161C24" d="M12.3 1.25h.063c.604 0 1.104 0 1.517.035.433.037.824.116 1.201.302.672.333 1.097.862 1.395 1.392.231.411.41.873.563 1.264.035.093.07.181.103.264l.298.744c1.127.004 1.935.03 2.633.324a4.223 4.223 0 0 1 2.166 2.06c.2.415.302.86.37 1.378.065.504.103 1.126.151 1.904l.16 2.595c.12 1.944.215 3.48.127 4.684-.091 1.237-.381 2.246-1.13 3.053-.749.808-1.729 1.166-2.946 1.336-1.183.165-2.703.165-4.623.165h-4.034c-1.92 0-3.44 0-4.622-.165-1.218-.17-2.197-.528-2.947-1.336-.748-.807-1.038-1.816-1.129-3.053-.088-1.205.007-2.74.126-4.684l.16-2.595c.048-.778.087-1.4.153-1.904.067-.518.169-.963.37-1.378a4.223 4.223 0 0 1 2.165-2.06c.698-.293 1.506-.32 2.633-.324l.298-.744c.033-.083.068-.171.103-.264.153-.391.332-.853.563-1.264.298-.53.723-1.059 1.395-1.392.377-.186.768-.265 1.201-.302.413-.035.913-.035 1.517-.035Z" opacity=".4"/>
  <path fill="#161C24" fill-rule="evenodd" d="M11.334 6c0-.552.445-1 .995-1 .546 0 1.005.448 1.005 1s-.46 1-1.005 1a.998.998 0 0 1-.995-1Z" clip-rule="evenodd"/>
  <path fill="#161C24" d="M8.334 14a4 4 0 1 1 8 0 4 4 0 0 1-8 0Z"/>
</svg>
