<svg xmlns="http://www.w3.org/2000/svg" width="25" height="24" fill="none" viewBox="0 0 25 24">
  <path fill="#161C24" d="M1.583 12c0 5.937 4.813 10.75 10.75 10.75 5.938 0 10.75-4.813 10.75-10.75S18.271 1.25 12.334 1.25 1.584 6.063 1.584 12Z" opacity=".4"/>
  <path fill="#161C24" fill-rule="evenodd" d="M16.04 8.293a1 1 0 0 1 0 1.414L13.749 12l2.293 2.293a1 1 0 0 1-1.415 1.414l-2.293-2.293-2.292 2.293a1 1 0 0 1-1.415-1.415L10.92 12 8.626 9.708a1 1 0 1 1 1.415-1.415l2.292 2.293 2.293-2.293a1 1 0 0 1 1.415 0Z" clip-rule="evenodd"/>
</svg>
