<svg xmlns="http://www.w3.org/2000/svg" width="25" height="24" fill="none" viewBox="0 0 25 24">
  <path fill="#161C24" d="M18.233 19.752c-.188 0-.282 0-.34.058-.06.059-.06.153-.06.342v.482c0 .378.241.725.622.894l.045.02c.232.103.456.204.724.204h1.719c.268 0 .492-.1.724-.204l.045-.02c.38-.17.622-.516.622-.894v-.89c0-.255 0-.383-.071-.442-.07-.06-.213-.037-.498.01a2.93 2.93 0 0 1-.085.012l-3.117.412c-.076.01-.153.016-.23.016h-.1Zm-11.799 0c.188 0 .282 0 .34.059.06.058.06.152.06.34v.483c0 .379-.241.725-.622.894l-.045.02c-.231.104-.456.204-.724.204H3.724c-.268 0-.493-.1-.724-.204a6.702 6.702 0 0 0-.045-.02c-.38-.17-.622-.515-.622-.894v-.889c0-.256 0-.383.071-.443.07-.06.213-.037.497.01a2.9 2.9 0 0 0 .086.012l3.117.413c.076.01.153.015.23.015h.1Z"/>
  <path fill="#161C24" d="M22.043 10.34c-.43-.575-.947-1.11-1.366-1.544-.08-.083-.106-.172-.144-.28l-1.072-3.108c-.2-.578-.375-1.086-.569-1.488-.21-.435-.48-.834-.917-1.14-.438-.304-.915-.425-1.409-.48-.456-.05-1.01-.05-1.642-.05H9.743c-.632 0-1.186 0-1.642.05-.494.055-.971.176-1.409.48-.438.306-.708.705-.917 1.14-.194.402-.37.91-.57 1.488l-1.07 3.108c-.04.115-.059.192-.144.28-.419.433-.936.969-1.366 1.545-.54.723-1.04 1.63-1.04 2.659v3.47c0 .878.593 1.736 1.534 1.861l3.117.413a.753.753 0 0 0 .098.006h12a.753.753 0 0 0 .099-.006l3.117-.413c.941-.125 1.535-.983 1.535-1.86V13c0-1.029-.5-1.936-1.04-2.66Z" opacity=".4"/>
  <path fill="#161C24" fill-rule="evenodd" d="M21.098 9.236c-.146-.156-.289-.303-.421-.44a.616.616 0 0 1-.135-.255l-.009-.025-.363-1.052.716-.358a1 1 0 1 1 .895 1.789l-.683.34Zm-17.53 0-.681-.341a1 1 0 1 1 .894-1.79l.716.359-.363 1.052a5.31 5.31 0 0 0-.013.038.558.558 0 0 1-.131.242c-.132.137-.275.284-.421.44Zm3.545-.986c-.383 0-.575 0-.665-.126-.09-.126-.027-.307.098-.67l.485-1.406c.22-.64.362-1.043.504-1.337.18-.374.375-.503.786-.548.333-.037.775-.038 1.473-.038h5.08c.697 0 1.139.001 1.472.038.41.045.607.174.786.548.142.294.283.698.504 1.337l.485 1.406c.125.363.188.544.098.67s-.282.126-.665.126H7.114ZM3.67 11.58A.75.75 0 0 0 3 12.92l1.5.75a.75.75 0 1 0 .67-1.342l-1.5-.75Zm18 1.341a.75.75 0 1 0-.67-1.342l-1.5.75a.75.75 0 1 0 .67 1.342l1.5-.75Zm-8.366 2.08h-1.938c-.984 0-1.476 0-1.857.273-.295.212-.471.551-.706 1.145-.104.261-.155.392-.096.486.06.095.195.095.464.095h6.327c.27 0 .405 0 .464-.095.06-.094.008-.225-.095-.486-.235-.594-.411-.933-.707-1.145C14.78 15 14.286 15 13.303 15Z" clip-rule="evenodd"/>
</svg>
