<svg xmlns="http://www.w3.org/2000/svg" width="25" height="24" fill="none" viewBox="0 0 25 24">
  <path fill="#161C24" d="M9.834 17.375a2.5 2.5 0 1 1-5 0 2.5 2.5 0 0 1 5 0Zm10 0a2.5 2.5 0 1 1-5 0 2.5 2.5 0 0 1 5 0Z"/>
  <path fill="#161C24" d="M2.659 6.709c-.15.32-.285.644-.402.952a13.73 13.73 0 0 0-.476 1.491c-.112.442-.197.896-.197 1.259v4.63c0 .258 0 .52.023.744.027.258.09.546.268.83.315.502.821.818 1.365 1.022.067.025.1.038.129.04a.198.198 0 0 0 .206-.143c.008-.028.008-.072.008-.159a3.75 3.75 0 1 1 7.491.265c-.016.239-.025.358.035.421.059.064.169.064.389.064h1.671c.22 0 .33 0 .39-.064.059-.063.05-.182.034-.42a3.75 3.75 0 1 1 7.47.13.646.646 0 0 0-.008.162.2.2 0 0 0 .162.157c.03.005.066 0 .137-.009.375-.05.802-.17 1.157-.52.355-.351.477-.773.528-1.142.044-.328.044-.726.044-1.134v-.9c.001-.82.002-1.478-.227-2.066-.483-1.243-1.525-1.74-2.326-2.054-.607-.239-1.343-.406-1.825-.875-.407-.396-.72-.903-1.106-1.528-.102-.166-.209-.34-.324-.522-.503-.794-1.163-1.736-2.22-2.28-.47-.24-.952-.343-1.48-.39-.498-.045-1.097-.045-1.809-.045H2.561a.97.97 0 0 0-.977.964.97.97 0 0 0 .977.965c.09 0 .133.08.098.155Z" opacity=".4"/>
  <path fill="#161C24" fill-rule="evenodd" d="M13.397 6.592c-.399-.036-.908-.037-1.674-.037h-1.19c-.094 0-.14 0-.17.029-.03.03-.03.076-.03.17v2.672c0 .094 0 .142.03.17.03.03.076.03.17.03h5.502c.167 0 .25 0 .278-.052.029-.051-.016-.122-.106-.264-.247-.39-.579-.929-.59-.946-.377-.602-.814-1.257-1.464-1.591-.167-.086-.377-.147-.756-.181Zm-5.093-.008c.03.03.03.076.03.17v2.672c0 .094 0 .142-.03.17-.029.03-.076.03-.17.03H4.22c-.247 0-.37 0-.43-.081s-.024-.2.049-.435c.095-.309.207-.663.247-.77.263-.69.56-1.296.83-1.7.054-.082.059-.085.161-.085h3.057c.094 0 .141 0 .17.029Z" clip-rule="evenodd"/>
</svg>
