<svg xmlns="http://www.w3.org/2000/svg" width="25" height="24" fill="none" viewBox="0 0 25 24">
  <path fill="#161C24" fill-rule="evenodd" d="M16.19 3.317c-.62-.067-1.38-.067-2.315-.067h-3.083c-.934 0-1.695 0-2.315.067-.648.07-1.21.22-1.724.563-.514.342-.868.804-1.182 1.374-.3.547-.593 1.25-.952 2.111l-.607 1.456L2.784 7.9a.75.75 0 1 0-.9 1.2l1.432 1.074-.326.49c-.607.909-.998 1.496-1.203 2.17-.204.675-.204 1.381-.203 2.475V20c0 .414.335.75.75.75h2.25a.75.75 0 0 0 .75-.75v-1c0-.493.001-.787.03-.997a.244.244 0 0 1 .222-.223c.21-.028 1.255-.03 1.748-.03h10c.492 0 1.536.002 1.747.03.068.01.209.07.223.223.028.21.03.504.03.997v1c0 .414.335.75.75.75h2.25a.75.75 0 0 0 .75-.75v-4.691c0-1.094 0-1.8-.204-2.474-.204-.675-.596-1.262-1.203-2.172l-.326-.489L22.784 9.1a.75.75 0 1 0-.9-1.2l-1.229.921-.607-1.456c-.359-.862-.652-1.565-.952-2.11-.314-.571-.668-1.033-1.182-1.375-.514-.343-1.076-.492-1.724-.563ZM6.452 9.75l-1.091-.266.626-1.503c.38-.91.642-1.537.898-2.004.248-.45.458-.688.7-.85.242-.16.543-.263 1.054-.318.529-.058 1.209-.059 2.194-.059h3c.986 0 1.666.001 2.195.059.511.055.812.158 1.053.319.242.161.452.4.7.85.257.466.52 1.093.899 2.003l.626 1.503-1.056.266H6.452Z" clip-rule="evenodd" opacity=".4"/>
  <path fill="#161C24" fill-rule="evenodd" d="M18.334 13a1 1 0 0 1 1 1v.01a1 1 0 1 1-2 0V14a1 1 0 0 1 1-1ZM6.333 13a1 1 0 0 1 1 1v.01a1 1 0 1 1-2 0V14a1 1 0 0 1 1-1Z" clip-rule="evenodd"/>
</svg>
