<svg xmlns="http://www.w3.org/2000/svg" width="25" height="24" fill="none" viewBox="0 0 25 24">
  <path fill="#161C24" d="M23.084 20.775a.976.976 0 0 1-.978.975.976.976 0 0 1-.977-.975V7.125H3.539v13.65a.976.976 0 0 1-.978.975.976.976 0 0 1-.978-.975V7.125h21.5v13.65Z" opacity=".4"/>
  <path fill="#161C24" d="M19.206 2.25c.428 0 .798 0 1.104.02.323.023.645.071.964.203a2.926 2.926 0 0 1 1.586 1.583c.132.317.18.64.203.96.02.306.02.675.02 1.103v1.006h-21.5V6.119c0-.428 0-.797.021-1.102.022-.322.07-.644.203-.961a2.928 2.928 0 0 1 1.586-1.583 3 3 0 0 1 .964-.202c.306-.021.676-.021 1.104-.021h13.745Z"/>
  <path fill="#161C24" fill-rule="evenodd" d="M8.334 17.75a1 1 0 0 1 1 1v2a1 1 0 1 1-2 0v-2a1 1 0 0 1 1-1Zm8 0a1 1 0 0 1 1 1v2a1 1 0 1 1-2 0v-2a1 1 0 0 1 1-1Z" clip-rule="evenodd" opacity=".4"/>
  <path fill="#161C24" d="M12.766 9c.702 0 1.316 0 1.818.06.543.065 1.066.21 1.534.575.468.366.736.838.93 1.349.18.473.33 1.068.5 1.75l.256 1.024a1 1 0 1 1-1.94.485l-.243-.97c-.188-.752-.309-1.23-.442-1.577-.123-.323-.217-.426-.292-.484-.074-.058-.197-.125-.54-.166-.37-.044-.862-.046-1.637-.046h-.753c-.775 0-1.267.002-1.637.046-.343.04-.466.108-.54.166-.075.058-.17.161-.292.484-.133.348-.254.825-.442 1.576l-.242.97a1 1 0 1 1-1.94-.485l.242-.97.013-.054c.17-.681.32-1.276.5-1.75.194-.51.462-.982.93-1.348.468-.365.991-.51 1.534-.575C10.585 9 11.199 9 11.9 9h.865Z" opacity=".4"/>
  <path fill="#161C24" fill-rule="evenodd" d="M5.583 15c0-.966.784-1.75 1.75-1.75h10c.967 0 1.75.784 1.75 1.75v3a1.75 1.75 0 0 1-1.75 1.75h-10A1.75 1.75 0 0 1 5.584 18v-3Zm3.25.5c.553 0 1 .445 1 .993v.014a.997.997 0 0 1-1 .993c-.552 0-1-.445-1-.993v-.014a.997.997 0 0 1 1-.993Zm8 .993a.997.997 0 0 0-1-.993c-.552 0-1 .445-1 .993v.014c0 .548.448.993 1 .993.553 0 1-.445 1-.993v-.014Z" clip-rule="evenodd"/>
</svg>
