<svg xmlns="http://www.w3.org/2000/svg" width="25" height="24" fill="none" viewBox="0 0 25 24">
  <path fill="#161C24" d="M4.238 1.25H16.9c3.438 0 6.212 2.805 6.212 6.25s-2.774 6.25-6.212 6.25h-4.886c-.695 0-1.243.001-1.732-.193a2.737 2.737 0 0 1-.986-.672c-.359-.383-.56-.893-.818-1.544l-.585-1.473c-.336-.844-.436-1.06-.591-1.216-.154-.155-.366-.256-1.204-.593L4.292 7.33c-.621-.25-1.114-.447-1.493-.806a2.746 2.746 0 0 1-.356-.41c-.3-.426-.428-.942-.59-1.596-.103-.415-.233-.94-.273-1.25-.043-.328-.044-.7.14-1.062.1-.199.237-.376.405-.523.307-.27.67-.36 1-.398.308-.036.69-.036 1.113-.036Z" opacity=".4"/>
  <path fill="#161C24" d="M14.328 13.75v.07c0 1.355 0 2.471.118 3.355.125.928.397 1.747 1.053 2.403.628.628 1.341.919 2.236 1.051.618.092 1.37.114 2.284.12v1.001a1 1 0 1 0 2 0v-4a1 1 0 0 0-2 0v.998c-.886-.005-1.506-.025-1.99-.097-.586-.087-.864-.236-1.116-.487-.222-.222-.39-.55-.484-1.255-.1-.735-.101-1.716-.101-3.159h-2ZM3.405 6.945l-.007.07c-.078.784-.131 1.312-.097 1.759.167 2.142 1.708 3.98 3.825 4.21.433.046.94-.01 1.623-.086l.506-.056c-.334-.378-.53-.874-.778-1.5l-.163-.409c-.6.065-.816.08-.972.062-1.013-.11-1.94-1.04-2.043-2.376-.014-.177-.003-.4.04-.864l-1.048-.423c-.331-.133-.625-.25-.886-.387Z"/>
  <path fill="#161C24" fill-rule="evenodd" d="M14.34 7a1 1 0 0 1 .998-1h.009a1 1 0 0 1 0 2h-.01a1 1 0 0 1-.997-1Z" clip-rule="evenodd"/>
  <path fill="#161C24" d="M19.354 8a1.001 1.001 0 0 1-1.003-1c0-.552.449-1 1.003-1h3.579a6.296 6.296 0 0 1 .16 2h-3.74Z"/>
</svg>
