<svg xmlns="http://www.w3.org/2000/svg" width="25" height="24" fill="none" viewBox="0 0 25 24">
  <path fill="#161C24" fill-rule="evenodd" d="M5.04 2.043a1 1 0 1 0-1.414 1.414C7.5 7.33 11.388 9.281 14.33 10.261c1.142.381 2.14.615 2.938.76l-.56.446a1 1 0 0 0 1.25 1.562l2.5-2a1 1 0 0 0 .156-1.406l-2-2.5a1 1 0 1 0-1.561 1.25l.538.673a19.3 19.3 0 0 1-2.629-.682c-2.683-.894-6.294-2.693-9.921-6.32Zm7.294 10.207h.021c.215 0 .411 0 .577.011.177.013.373.04.571.123.429.177.77.518.947.947.083.198.11.393.122.571.012.165.012.362.012.576v5.544c0 .214 0 .411-.012.577-.012.177-.04.372-.122.57a1.75 1.75 0 0 1-.947.948c-.198.082-.394.11-.571.122a8.939 8.939 0 0 1-.577.011h-.043c-.214 0-.411 0-.577-.011a1.779 1.779 0 0 1-.571-.122 1.75 1.75 0 0 1-.947-.947 1.784 1.784 0 0 1-.122-.572c-.011-.165-.011-.362-.011-.576v-5.543c0-.215 0-.412.01-.577a1.78 1.78 0 0 1 .123-.571 1.75 1.75 0 0 1 .947-.947c.198-.083.394-.11.571-.123.166-.01.362-.01.577-.01h.022Z" clip-rule="evenodd"/>
  <path fill="#161C24" fill-rule="evenodd" d="M5.333 8.75h.022c.215 0 .411 0 .577.011.177.013.373.04.571.122.429.178.77.519.947.948.083.198.11.393.122.571.012.165.012.362.011.576v9.044c0 .214 0 .411-.01.577a1.78 1.78 0 0 1-.123.57 1.75 1.75 0 0 1-.947.948c-.198.082-.394.11-.571.122a8.939 8.939 0 0 1-.577.011h-.043c-.215 0-.411 0-.577-.011a1.779 1.779 0 0 1-.571-.122 1.75 1.75 0 0 1-.947-.947 1.781 1.781 0 0 1-.122-.572c-.012-.165-.012-.362-.012-.576V10.98c0-.215 0-.412.012-.577.012-.178.04-.373.122-.571a1.75 1.75 0 0 1 .947-.948c.198-.082.394-.11.571-.121.166-.012.362-.012.577-.012h.021Zm14 6h.022c.215 0 .411 0 .577.011.177.013.373.04.571.123.429.177.77.518.947.947.082.198.11.393.122.571.012.165.012.362.012.576v3.044c0 .214 0 .411-.012.577-.012.177-.04.372-.122.57a1.75 1.75 0 0 1-.947.948c-.198.082-.394.11-.571.122a8.939 8.939 0 0 1-.577.011h-.043c-.215 0-.411 0-.577-.011a1.78 1.78 0 0 1-.571-.122 1.75 1.75 0 0 1-.947-.947 1.781 1.781 0 0 1-.122-.572c-.011-.165-.011-.362-.011-.576V16.98c0-.215 0-.412.01-.577a1.78 1.78 0 0 1 .123-.571 1.75 1.75 0 0 1 .947-.947 1.78 1.78 0 0 1 .571-.123c.166-.01.362-.01.577-.01h.021Z" clip-rule="evenodd" opacity=".4"/>
</svg>
