<svg xmlns="http://www.w3.org/2000/svg" width="25" height="24" fill="none" viewBox="0 0 25 24">
  <path fill="#161C24" fill-rule="evenodd" d="M3.333 3a1 1 0 0 1 1 1v10c0 1.443.003 2.424.101 3.159.095.706.263 1.033.485 1.255.223.223.55.39 1.256.485.735.099 1.716.101 3.159.101h12a1 1 0 1 1 0 2H9.263c-1.354 0-2.47 0-3.355-.119-.927-.125-1.747-.396-2.403-1.053-.656-.656-.928-1.475-1.053-2.403-.119-.884-.119-2-.119-3.354V4a1 1 0 0 1 1-1Z" clip-rule="evenodd"/>
  <path fill="#161C24" d="M20.62 6.307a.75.75 0 0 1 .463.693v10a.75.75 0 0 1-.75.75h-14a.75.75 0 0 1-.75-.75v-3a.75.75 0 0 1 .22-.53l3.272-3.273c.303-.303.565-.564.799-.76.247-.207.516-.387.849-.481a2.25 2.25 0 0 1 1.221 0c.333.094.602.274.85.481.233.196.495.457.798.76.331.332.568.568.745.716.169.142.249.175.293.188a.75.75 0 0 0 .407 0c.044-.013.124-.046.293-.188.177-.148.392-.362.723-.693l3.75-3.75a.75.75 0 0 1 .817-.163Z" opacity=".4"/>
</svg>
