<svg xmlns="http://www.w3.org/2000/svg" width="25" height="24" fill="none" viewBox="0 0 25 24">
  <path fill="#161C24" fill-rule="evenodd" d="M4.333 14a1 1 0 0 1 1 1v4a1 1 0 1 1-2 0v-4a1 1 0 0 1 1-1Zm8.001-6a1 1 0 0 1 1 1v10a1 1 0 1 1-2 0V9a1 1 0 0 1 1-1Z" clip-rule="evenodd" opacity=".4"/>
  <path fill="#161C24" fill-rule="evenodd" d="M23.334 22a1 1 0 0 1-1 1h-20a1 1 0 1 1 0-2h20a1 1 0 0 1 1 1Z" clip-rule="evenodd"/>
  <path fill="#161C24" fill-rule="evenodd" d="M20.334 12a1 1 0 0 1 1 1v6a1 1 0 1 1-2 0v-6a1 1 0 0 1 1-1Z" clip-rule="evenodd" opacity=".4"/>
  <path fill="#161C24" fill-rule="evenodd" d="M12.334 3a1 1 0 1 0 0 2 1 1 0 0 0 0-2Zm-3 1a3 3 0 1 1 5.977.37l2.94 1.47a3 3 0 1 1-.895 1.789l-2.94-1.47A2.99 2.99 0 0 1 12.334 7a2.988 2.988 0 0 1-1.663-.503L7.197 9.103a3 3 0 1 1-1.2-1.6L9.47 4.897A2.998 2.998 0 0 1 9.334 4Zm11 3a1 1 0 1 0-.001 2 1 1 0 0 0 0-2Zm-16 2a1 1 0 1 0 0 2 1 1 0 0 0 0-2Z" clip-rule="evenodd"/>
</svg>
