<svg xmlns="http://www.w3.org/2000/svg" width="25" height="24" fill="none" viewBox="0 0 25 24">
  <path fill="#161C24" fill-rule="evenodd" d="M16.832 1.75a1 1 0 1 0 0 2h.608a23.953 23.953 0 0 1-2.01 1.63C13.198 7.009 9.664 9.085 4.516 10.8a1 1 0 0 0 .632 1.898c5.351-1.784 9.068-3.958 11.46-5.704a25.814 25.814 0 0 0 2.224-1.807v.562a1 1 0 1 0 2 0v-3a1 1 0 0 0-1-1h-3Zm-4.498 10.5h-.022c-.215 0-.411 0-.577.011-.177.012-.373.04-.571.122a1.75 1.75 0 0 0-.947.947c-.083.199-.11.394-.122.572-.011.165-.011.362-.011.576v5.544c0 .214 0 .41.01.576.013.178.04.373.123.572.177.428.518.77.947.947.198.082.394.11.571.122.166.011.363.011.577.011h.043c.214 0 .411 0 .577-.011.177-.012.373-.04.571-.122a1.75 1.75 0 0 0 .947-.947c.083-.199.11-.394.122-.572.012-.165.012-.362.012-.576v-5.544c0-.214 0-.41-.012-.576a1.781 1.781 0 0 0-.122-.572 1.75 1.75 0 0 0-.947-.947 1.781 1.781 0 0 0-.571-.122c-.166-.011-.362-.011-.577-.011h-.021Z" clip-rule="evenodd"/>
  <path fill="#161C24" d="M19.355 8.75c.215 0 .411 0 .577.011.177.012.373.04.571.122.429.178.77.519.947.947.082.199.11.394.122.572.012.165.012.362.012.576v9.044c0 .214 0 .41-.012.576-.012.178-.04.373-.122.572a1.75 1.75 0 0 1-.947.947c-.198.082-.394.11-.571.122-.166.011-.362.011-.577.011-.214 0-.454 0-.62-.011a1.781 1.781 0 0 1-.571-.122 1.75 1.75 0 0 1-.947-.947 1.781 1.781 0 0 1-.122-.572c-.011-.165-.011-.362-.011-.576v-9.044c0-.214 0-.41.01-.576a1.79 1.79 0 0 1 .123-.572 1.75 1.75 0 0 1 .947-.947c.198-.082.394-.11.571-.122.166-.011.406-.011.62-.011Zm-14 6c.215 0 .411 0 .577.011.177.012.373.04.571.122.429.178.77.519.947.947.083.199.11.394.122.572.012.165.012.362.011.576v3.044c0 .214 0 .41-.01.576a1.79 1.79 0 0 1-.123.572 1.75 1.75 0 0 1-.947.947c-.198.082-.394.11-.571.122-.166.011-.362.011-.577.011-.214 0-.454 0-.62-.011a1.781 1.781 0 0 1-.571-.122 1.75 1.75 0 0 1-.947-.947 1.781 1.781 0 0 1-.122-.572c-.012-.165-.012-.362-.012-.576v-3.044c0-.214 0-.41.012-.576.012-.178.04-.373.122-.572a1.75 1.75 0 0 1 .947-.947c.198-.082.394-.11.571-.122.166-.011.406-.011.62-.011Z" opacity=".4"/>
</svg>
