<svg xmlns="http://www.w3.org/2000/svg" width="25" height="24" fill="none" viewBox="0 0 25 24">
  <path fill="#161C24" d="M10.584 16.262c0-3.351 2.83-6.012 6.25-6.012s6.25 2.66 6.25 6.012c0 1.605-.655 3.06-1.712 4.132a.352.352 0 0 0-.081.123c.069.354.221.68.441.951a.75.75 0 0 1-.444 1.21 4.324 4.324 0 0 1-2.813-.436 11.545 11.545 0 0 0-.227-.119c-.048.008-.114.02-.212.04-.396.073-.8.11-1.203.11-3.42 0-6.25-2.66-6.25-6.011Z" opacity=".4"/>
  <path fill="#161C24" d="M11.334 1.25c-5.353 0-9.75 4.16-9.75 9.36 0 2.494 1.016 4.755 2.662 6.427.23.234.293.462.265.614a4.013 4.013 0 0 1-.823 1.78.75.75 0 0 0 .444 1.21 6.599 6.599 0 0 0 4.291-.666c.167-.089.286-.152.379-.199a.912.912 0 0 1 .14-.06.234.234 0 0 1 .066.002c.098.013.232.038.446.078.24.045.417-.213.314-.435a7.29 7.29 0 0 1-.684-3.1c0-4.243 3.567-7.511 7.75-7.511a7.93 7.93 0 0 1 3.182.664c.498.218.748.327.89.212.141-.114.092-.353-.005-.831-.883-4.32-4.855-7.545-9.567-7.545Z"/>
</svg>
