<svg xmlns="http://www.w3.org/2000/svg" width="25" height="24" fill="none" viewBox="0 0 25 24">
  <path fill="#161C24" d="M12.39 1.75h-.114c-2.19 0-3.911 0-5.254.18-1.377.186-2.47.573-3.328 1.43-.858.86-1.245 1.951-1.43 3.328-.18 1.343-.18 3.064-.18 5.255v.114c0 2.19 0 3.912.18 5.255.185 1.377.572 2.469 1.43 3.327.859.858 1.95 1.245 3.328 1.43 1.343.181 3.064.181 5.254.181h.115c2.19 0 3.911 0 5.254-.18 1.377-.186 2.47-.573 3.328-1.43.858-.86 1.245-1.951 1.43-3.328.18-1.343.18-3.064.18-5.255v-.114c0-2.19 0-3.912-.18-5.255-.185-1.377-.572-2.469-1.43-3.327-.859-.858-1.95-1.245-3.328-1.43-1.343-.181-3.064-.181-5.254-.181Z" opacity=".4"/>
  <path fill="#161C24" fill-rule="evenodd" d="M17.07 9.676a1 1 0 0 0-1.474-1.352l-4.794 5.23-1.761-1.761a1 1 0 0 0-1.415 1.414l2.5 2.5a1 1 0 0 0 1.445-.031l5.5-6Z" clip-rule="evenodd"/>
</svg>
