<svg xmlns="http://www.w3.org/2000/svg" width="25" height="24" fill="none" viewBox="0 0 25 24">
  <path fill="#161C24" d="M12.334 1.25c5.937 0 10.75 4.813 10.75 10.75s-4.813 10.75-10.75 10.75c-5.938 0-10.75-4.813-10.75-10.75S6.396 1.25 12.334 1.25Z" opacity=".4"/>
  <path fill="#161C24" d="M8.334 13a1 1 0 1 1 0-2h4.5v-.162c0-.29 0-.598.028-.84.021-.177.101-.827.71-1.128.61-.3 1.152.045 1.299.139.202.129.434.322.654.504l.038.031c.347.288.742.63 1.056.974.157.171.318.37.446.585.118.2.268.514.268.897s-.15.698-.268.897c-.128.216-.29.414-.446.585-.314.344-.709.686-1.056.974l-.038.03c-.22.183-.452.377-.654.505-.147.094-.69.439-1.299.139s-.688-.951-.71-1.128a7.66 7.66 0 0 1-.028-.84V13h-4.5Z"/>
</svg>
