<svg xmlns="http://www.w3.org/2000/svg" width="25" height="24" fill="none" viewBox="0 0 25 24">
  <path fill="#161C24" d="M1.583 12c0-5.937 4.813-10.75 10.75-10.75 5.938 0 10.75 4.813 10.75 10.75s-4.812 10.75-10.75 10.75c-5.937 0-10.75-4.813-10.75-10.75Z" opacity=".4"/>
  <path fill="#161C24" d="m12.334 12.486.062-.026c.115-.052.268-.139.455-.262.373-.248.803-.591 1.224-.955.417-.36.804-.722 1.089-.995l.456-.449a1 1 0 0 1 1.427 1.402l-.497.489c-.3.289-.716.677-1.167 1.067a14.99 14.99 0 0 1-1.427 1.108 5.364 5.364 0 0 1-.736.417c-.23.104-.545.218-.886.218-.342 0-.657-.114-.887-.218a5.37 5.37 0 0 1-.736-.417 14.854 14.854 0 0 1-1.426-1.108 30.37 30.37 0 0 1-1.168-1.067l-.497-.49a1 1 0 1 1 1.427-1.4l.456.448c.285.273.672.635 1.089.995.42.364.851.707 1.224.955.187.123.34.21.455.262l.063.026Z"/>
</svg>
