<svg xmlns="http://www.w3.org/2000/svg" width="25" height="24" fill="none" viewBox="0 0 25 24">
  <path fill="#161C24" d="M12.334 1.25c5.937 0 10.75 4.813 10.75 10.75s-4.813 10.75-10.75 10.75c-5.938 0-10.75-4.813-10.75-10.75S6.396 1.25 12.334 1.25Z" opacity=".4"/>
  <path fill="#161C24" d="m11.847 12 .027.063c.052.115.138.267.262.454.247.373.59.804.954 1.225.36.416.722.804.996 1.088l.448.456a1 1 0 0 1-1.401 1.428l-.49-.498a30.39 30.39 0 0 1-1.066-1.167 14.772 14.772 0 0 1-1.108-1.427 5.358 5.358 0 0 1-.418-.736c-.104-.23-.217-.544-.217-.886 0-.342.113-.656.217-.887.112-.247.26-.498.418-.735.315-.476.721-.98 1.108-1.427.39-.452.778-.867 1.067-1.167l.489-.498a1 1 0 0 1 1.401 1.427l-.448.457a28.51 28.51 0 0 0-.996 1.088c-.363.421-.707.851-.954 1.225-.124.187-.21.34-.262.454l-.027.063Z"/>
</svg>
