<svg xmlns="http://www.w3.org/2000/svg" width="25" height="24" fill="none" viewBox="0 0 25 24">
  <path fill="#161C24" d="M12.334 22.75c-5.938 0-10.75-4.813-10.75-10.75S6.396 1.25 12.334 1.25c5.937 0 10.75 4.813 10.75 10.75s-4.813 10.75-10.75 10.75Z" opacity=".4"/>
  <path fill="#161C24" d="M12.82 12a1.097 1.097 0 0 0-.027-.063 3.424 3.424 0 0 0-.262-.454 12.873 12.873 0 0 0-.954-1.225 28.51 28.51 0 0 0-.996-1.088l-.448-.457a1 1 0 0 1 1.401-1.427l.49.498c.288.3.676.715 1.066 1.167.387.448.793.951 1.108 1.427.158.237.306.488.418.735.104.23.217.545.217.887 0 .342-.113.656-.217.886a5.38 5.38 0 0 1-.418.736c-.315.476-.721.98-1.108 1.427-.39.452-.778.867-1.067 1.167l-.489.497a1 1 0 0 1-1.401-1.427l.448-.456c.274-.284.636-.672.996-1.088.363-.421.707-.852.954-1.225.124-.187.21-.34.262-.454L12.82 12Z"/>
</svg>
