<svg xmlns="http://www.w3.org/2000/svg" width="25" height="24" fill="none" viewBox="0 0 25 24">
  <path fill="#161C24" d="M23.084 12c0 5.937-4.814 10.75-10.75 10.75-5.938 0-10.75-4.813-10.75-10.75S6.396 1.25 12.334 1.25c5.936 0 10.75 4.813 10.75 10.75Z" opacity=".4"/>
  <path fill="#161C24" d="M12.334 11.514a1.176 1.176 0 0 0-.063.026 3.424 3.424 0 0 0-.455.263c-.373.247-.803.59-1.224.954-.417.36-.804.722-1.089.995l-.456.449a1 1 0 0 1-1.427-1.402l.497-.489c.301-.289.716-.676 1.168-1.067.447-.386.95-.792 1.426-1.108.238-.157.488-.305.736-.417.23-.104.545-.218.887-.218.341 0 .656.114.886.218.248.112.498.26.736.417.475.316.979.722 1.427 1.108.451.39.866.778 1.167 1.067l.497.49a1 1 0 0 1-1.427 1.4l-.456-.447a28.47 28.47 0 0 0-1.089-.996 12.8 12.8 0 0 0-1.224-.954 3.43 3.43 0 0 0-.455-.263 1.174 1.174 0 0 0-.063-.026Z"/>
</svg>
