<svg xmlns="http://www.w3.org/2000/svg" width="25" height="24" fill="none" viewBox="0 0 25 24">
  <path fill="#161C24" d="M1.583 12c0-5.937 4.813-10.75 10.75-10.75 5.938 0 10.75 4.813 10.75 10.75s-4.812 10.75-10.75 10.75c-5.937 0-10.75-4.813-10.75-10.75Z" opacity=".4"/>
  <path fill="#161C24" d="M13.334 16a1 1 0 1 1-2 0v-4.5h-.162c-.29 0-.598 0-.84-.029-.178-.021-.828-.1-1.128-.71-.3-.61.044-1.152.138-1.298.129-.202.322-.435.505-.655l.031-.038c.287-.346.63-.741.973-1.055a3.63 3.63 0 0 1 .585-.446c.2-.118.515-.269.898-.269.382 0 .697.15.897.269.215.127.414.289.585.446.343.314.685.709.973 1.055l.031.038c.183.22.376.453.505.655.094.146.439.689.138 1.298-.3.61-.95.689-1.127.71a7.66 7.66 0 0 1-.84.029h-.162V16Z"/>
</svg>
