<svg xmlns="http://www.w3.org/2000/svg" width="25" height="24" fill="none" viewBox="0 0 25 24">
  <path fill="#161C24" fill-rule="evenodd" d="M5.583 11.75c-.435 0-.853.021-1.225.103-.383.084-.778.246-1.102.57-.324.323-.485.719-.57 1.102-.081.372-.103.79-.103 1.225v7a1 1 0 1 0 2 0v-7c0-.392.022-.638.057-.796a.675.675 0 0 1 .034-.114.678.678 0 0 1 .113-.034c.159-.034.404-.056.796-.056h2v-2h-2Zm5.75-8.5v-1a1 1 0 1 1 2 0v1h-2Zm5.75 8.5h2c.436 0 .854.021 1.226.103.383.084.778.246 1.102.57.324.323.485.719.57 1.102.081.372.102.79.102 1.225v7a1 1 0 1 1-2 0v-7c0-.392-.021-.638-.056-.796a.681.681 0 0 0-.034-.114.681.681 0 0 0-.113-.034c-.159-.034-.404-.056-.796-.056h-2v-2Zm-12.429 2.1Z" clip-rule="evenodd"/>
  <path fill="#161C24" d="M8.334 22.75h8a.75.75 0 0 0 .75-.75V6c0-.43-.022-.826-.098-1.171-.078-.354-.222-.7-.502-.98s-.625-.424-.979-.502c-.345-.076-.742-.097-1.171-.097h-4c-.43 0-.827.021-1.172.097-.354.078-.7.223-.98.502-.279.28-.424.626-.501.98-.076.345-.098.741-.098 1.171v16c0 .414.336.75.75.75Z" opacity=".4"/>
  <path fill="#161C24" fill-rule="evenodd" d="M1.333 21.75a1 1 0 0 1 1-1h20a1 1 0 1 1 0 2h-20a1 1 0 0 1-1-1Z" clip-rule="evenodd"/>
  <path fill="#161C24" d="M13.334 18.75a1 1 0 1 0-2 0v4h-1.25v-4a2.25 2.25 0 0 1 4.5 0v4h-1.25v-4Z"/>
  <path fill="#161C24" fill-rule="evenodd" d="M10.584 6.273a.75.75 0 0 1 .75-.75h2a.75.75 0 0 1 0 1.5h-2a.75.75 0 0 1-.75-.75Zm0 3.5a.75.75 0 0 1 .75-.75h2a.75.75 0 0 1 0 1.5h-2a.75.75 0 0 1-.75-.75Zm0 3.5a.75.75 0 0 1 .75-.75h2a.75.75 0 0 1 0 1.5h-2a.75.75 0 0 1-.75-.75Z" clip-rule="evenodd"/>
</svg>
