<svg xmlns="http://www.w3.org/2000/svg" width="25" height="24" fill="none" viewBox="0 0 25 24">
  <path fill="#161C24" fill-rule="evenodd" d="M13.34 13.25a1 1 0 0 0-2 0v4.5h-.595c-.175 0-.391 0-.568.022h-.003c-.126.016-.702.088-.977.653-.275.567.027 1.067.092 1.176l.003.004c.092.153.226.323.337.464l.023.03c.295.376.677.86 1.057 1.251.19.195.408.397.638.556.206.14.556.344.987.344.43 0 .78-.203.986-.344.23-.16.448-.36.638-.556.38-.39.762-.875 1.057-1.25l.023-.03c.11-.142.245-.312.337-.465l.002-.004c.066-.109.368-.609.093-1.176-.275-.565-.85-.637-.977-.653h-.003c-.177-.022-.393-.022-.568-.022h-.583v-4.5Z" clip-rule="evenodd"/>
  <path fill="#161C24" d="M1.583 12.5a5.752 5.752 0 0 1 4.209-5.54c.196-.055.294-.082.35-.14.057-.058.081-.156.13-.352a6.252 6.252 0 0 1 12.273.831c.027.246.04.368.103.44.063.07.184.1.428.159a5.25 5.25 0 0 1-1.242 10.352h-.06c-.22 0-.33 0-.405-.05-.076-.05-.127-.173-.23-.418a2.491 2.491 0 0 0-.563-.825 2.488 2.488 0 0 0-1.148-.636c-.31-.076-.466-.113-.53-.195s-.064-.213-.064-.476v-2.4a2.5 2.5 0 0 0-5 0v2.4c0 .263 0 .394-.065.476-.064.082-.22.12-.53.195a2.487 2.487 0 0 0-1.148.636c-.25.244-.461.526-.602.83-.117.249-.175.374-.257.421-.081.047-.184.039-.389.021a5.75 5.75 0 0 1-5.26-5.729Z" opacity=".4"/>
</svg>
