<svg xmlns="http://www.w3.org/2000/svg" width="25" height="24" fill="none" viewBox="0 0 25 24">
  <path fill="#161C24" d="M3.396 7.964c.416-.068.908-.089 1.472-.089h10.681c.564 0 1.056.021 1.472.089.414.068.814.19 1.145.438.72.536.807 1.402.791 2.237-.074 3.868-.568 7.874-4.238 10.695-.548.422-1.08.693-1.683.85-.587.154-1.207.191-1.908.191H9.289c-.7 0-1.321-.037-1.908-.19-.603-.158-1.135-.429-1.683-.85-3.67-2.822-4.164-6.828-4.238-10.696-.016-.835.072-1.701.79-2.237.332-.248.732-.37 1.146-.438Z" opacity=".4"/>
  <path fill="#161C24" fill-rule="evenodd" d="M18.197 16.347a10.489 10.489 0 0 1-1.026 2.277c.07.003.14-.002.211-.014 2.173-.384 3.648-1.303 4.574-2.534.911-1.212 1.208-2.615 1.25-3.834.025-.761-.104-1.638-.93-2.163-.35-.223-.748-.326-1.127-.381a9.217 9.217 0 0 0-1.3-.073h-.96c.064.327.074.673.068 1.014a40.72 40.72 0 0 1-.03.986h.922c.447 0 .772.017 1.01.052.187.027.28.06.32.078.015.053.036.176.028.42-.033.965-.265 1.922-.85 2.699-.43.572-1.098 1.11-2.16 1.473Z" clip-rule="evenodd"/>
  <path fill="#161C24" d="M12.368 2.099a1 1 0 0 1-.324 1.376c-.062.038-.28.24-.49.66a3.372 3.372 0 0 0-.344 1.49 1 1 0 1 1-2 0c0-.918.232-1.735.553-2.38.308-.62.743-1.17 1.228-1.47a1 1 0 0 1 1.377.324Zm2.692 1.5a1 1 0 0 1-.18 1.269 2.199 2.199 0 0 0-.171.757 1 1 0 1 1-2 0c0-.372.079-.807.193-1.172.059-.187.136-.388.237-.572.085-.156.253-.425.544-.606a1 1 0 0 1 1.377.324Zm-6.578-.153a1 1 0 0 1-.032 1.392l-.009.01a.835.835 0 0 0-.083.127 1.35 1.35 0 0 0-.15.65 1 1 0 1 1-2 0c0-.687.188-1.224.39-1.6.1-.186.304-.48.47-.633a1 1 0 0 1 1.414.054Z"/>
</svg>
