<svg xmlns="http://www.w3.org/2000/svg" width="25" height="24" fill="none" viewBox="0 0 25 24">
  <g opacity=".4">
    <path fill="#161C24" fill-rule="evenodd" d="M3.91 1.714C5.217 1.262 6.958 1 8.834 1c1.875 0 3.616.262 4.923.714.649.225 1.245.515 1.699.886.447.366.878.918.878 1.65v1.756c0 .18 0 .27-.036.336a.296.296 0 0 1-.122.122c-.067.036-.159.036-.342.036-1.997 0-3.912.276-5.415.797-.74.256-1.516.617-2.158 1.143-.388.317-.851.804-1.142 1.46-.065.145-.097.217-.152.25-.055.033-.126.027-.269.014-1.756-.148-3.238-.491-4.352-1.027a6.046 6.046 0 0 1-.617-.34c-.181-.116-.272-.173-.334-.286-.062-.112-.062-.235-.062-.48V4.25c0-.732.431-1.284.878-1.65.454-.371 1.05-.661 1.7-.886Zm-.432 2.434c.203-.167.559-.361 1.086-.544C5.61 3.242 7.12 3 8.834 3c1.714 0 3.223.242 4.269.604.527.183.883.377 1.086.544a.13.13 0 0 1 0 .204c-.203.167-.559.361-1.086.544-1.046.362-2.555.604-4.27.604-1.714 0-3.223-.242-4.269-.604-.527-.183-.883-.377-1.086-.544a.13.13 0 0 1 0-.204Z" clip-rule="evenodd"/>
    <path fill="#161C24" d="M6.833 12.052c0-.176 0-.264-.052-.321-.052-.057-.14-.065-.318-.081-1.836-.165-3.47-.537-4.767-1.162a.79.79 0 0 0-.115-.05.196.196 0 0 0-.243.153c-.005.02-.005.053-.005.119v3.12c0 .265 0 .398.073.517.072.12.174.173.38.281.16.084.332.164.518.24 1.061.432 2.455.687 4.107.804.197.014.295.02.359-.039.064-.06.064-.159.064-.358v-3.223Zm0 5.528c0-.179 0-.269-.054-.326-.054-.058-.144-.064-.324-.076-1.812-.119-3.43-.397-4.717-.92-.11-.046-.165-.068-.205-.068a.195.195 0 0 0-.185.124c-.015.037-.015.093-.015.207V19c0 .75.491 1.273.923 1.587.454.33 1.046.586 1.687.783.79.243 1.74.424 2.785.528.364.036.547.055.614-.04.067-.096-.02-.282-.195-.654a3.265 3.265 0 0 1-.314-1.404v-2.22Z"/>
  </g>
  <path fill="#161C24" fill-rule="evenodd" d="M15.834 8c-1.876 0-3.617.262-4.924.714-.649.225-1.245.515-1.699.886-.447.366-.877.918-.877 1.65v2.63c0 .454 0 .68.124.905.125.226.279.323.588.518 1.513.952 3.846 1.447 6.788 1.447 2.941 0 5.275-.495 6.788-1.447.308-.195.462-.292.587-.517.125-.226.125-.452.125-.905v-2.63c0-.733-.431-1.285-.878-1.65-.454-.372-1.05-.662-1.7-.887C19.45 8.262 17.71 8 15.835 8Zm-4.27 2.604c-.527.183-.883.377-1.086.544a.13.13 0 0 0 0 .204c.203.167.559.361 1.086.544 1.046.362 2.555.604 4.27.604 1.714 0 3.223-.242 4.269-.604.527-.183.883-.377 1.086-.544a.13.13 0 0 0 0-.204c-.203-.167-.559-.361-1.086-.544-1.046-.362-2.555-.604-4.27-.604-1.714 0-3.223.242-4.269.604Z" clip-rule="evenodd"/>
  <path fill="#161C24" d="M15.834 18.25c2.848 0 5.356-.438 7.191-1.445.14-.077.21-.116.26-.087.049.03.049.108.049.265V19.8c0 .735-.442 1.282-.886 1.637-.455.364-1.05.647-1.698.866-1.304.442-3.043.697-4.916.697-1.874 0-3.613-.255-4.917-.697-.648-.219-1.243-.502-1.697-.866-.445-.355-.886-.902-.886-1.637v-2.818c0-.156 0-.235.049-.264.049-.029.119.01.259.086 1.835 1.008 4.344 1.446 7.192 1.446Z"/>
</svg>
