<svg xmlns="http://www.w3.org/2000/svg" width="25" height="24" fill="none" viewBox="0 0 25 24">
  <path fill="#161C24" d="M10.184 1.75h4.3c4.054 0 6.08 0 7.34 1.264 1.26 1.264 1.26 3.299 1.26 7.368v.54c0 4.068 0 6.102-1.26 7.367-1.26 1.264-3.286 1.264-7.34 1.264-.603.013-1.083.06-1.554.167-1.084.25-2.1.758-3.098 1.257-.188.094-.375.188-.562.28-1.68.821-2.52 1.232-3.047.848-.503-.377-.525-1.086-.385-1.87.058-.324.087-.486.016-.588-.07-.101-.232-.131-.557-.191-1.056-.195-1.873-.584-2.454-1.167-1.26-1.265-1.26-3.299-1.26-7.368v-.54c0-4.068 0-6.103 1.26-7.367 1.26-1.264 3.286-1.264 7.34-1.264Z" opacity=".4"/>
  <path fill="#161C24" fill-rule="evenodd" d="M16.334 14.25a.75.75 0 0 0 0-1.5h-8a.75.75 0 0 0 0 1.5h8Zm-4-5a.75.75 0 0 0 0-1.5h-4a.75.75 0 0 0 0 1.5h4Z" clip-rule="evenodd"/>
</svg>
