<svg xmlns="http://www.w3.org/2000/svg" width="25" height="24" fill="none" viewBox="0 0 25 24">
  <path fill="#161C24" fill-rule="evenodd" d="M10.334 15a1 1 0 0 1 1-1h2a1 1 0 1 1 0 2h-2a1 1 0 0 1-1-1Z" clip-rule="evenodd" opacity=".4"/>
  <path fill="#161C24" d="M15.164 17.25H9.503l.382 1.014a3.28 3.28 0 0 1 .144 1.726c-.068.365-.102.547-.38.779C9.371 21 9.1 21 8.552 21H7.334a1 1 0 1 0 0 2h10a1 1 0 1 0 0-2h-1.219c-.546 0-.82 0-1.097-.231-.278-.232-.312-.414-.38-.78a3.27 3.27 0 0 1 .144-1.725l.382-1.014Z" opacity=".4"/>
  <path fill="#161C24" fill-rule="evenodd" d="M10.277 1h4.113c1.592 0 2.865 0 3.883.107 1.047.11 1.938.344 2.715.888a5.5 5.5 0 0 1 1.35 1.35c.545.777.778 1.668.888 2.716.108 1.017.108 2.29.108 3.882v.114c0 1.591 0 2.865-.108 3.882-.11 1.048-.343 1.939-.887 2.716a5.501 5.501 0 0 1-1.35 1.35c-.778.544-1.669.777-2.716.888C17.255 19 15.982 19 14.39 19h-4.113c-1.592 0-2.865 0-3.883-.107-1.047-.11-1.938-.344-2.715-.888a5.5 5.5 0 0 1-1.35-1.35c-.545-.777-.778-1.668-.888-2.716-.108-1.017-.108-2.29-.108-3.882v-.114c0-1.591 0-2.865.108-3.882.11-1.048.343-1.939.887-2.716a5.5 5.5 0 0 1 1.35-1.35c.778-.544 1.669-.777 2.716-.888C7.412 1 8.685 1 10.277 1ZM6.604 3.096c-.883.093-1.393.267-1.778.537a3.5 3.5 0 0 0-.86.86c-.27.385-.443.895-.536 1.777-.095.9-.097 2.069-.097 3.73s.002 2.83.097 3.73c.093.882.267 1.392.536 1.777.235.335.526.626.86.86.385.27.895.444 1.778.537.9.095 2.068.096 3.73.096h4c1.66 0 2.829-.001 3.73-.096.882-.093 1.392-.267 1.777-.537.334-.234.625-.525.86-.86.27-.385.443-.895.536-1.777.095-.9.097-2.069.097-3.73s-.002-2.83-.097-3.73c-.093-.882-.267-1.392-.536-1.778a3.498 3.498 0 0 0-.86-.859c-.385-.27-.895-.444-1.778-.537-.9-.095-2.068-.096-3.73-.096h-4c-1.66 0-2.829.001-3.73.096Z" clip-rule="evenodd"/>
</svg>
