<svg xmlns="http://www.w3.org/2000/svg" width="25" height="24" fill="none" viewBox="0 0 25 24">
  <path fill="#141B34" d="M16.388 8.25c1.368 0 2.47 0 3.337.117.9.12 1.658.38 2.26.981.602.602.861 1.36.982 2.26.117.867.117 1.97.117 3.337v1.11c0 1.367 0 2.47-.117 3.337-.121.9-.38 1.658-.982 2.26-.602.602-1.36.86-2.26.982-.867.116-1.969.116-3.337.116h-1.11c-1.367 0-2.47 0-3.336-.116-.9-.122-1.658-.38-2.26-.982-.602-.602-.861-1.36-.982-2.26-.117-.867-.117-1.97-.116-3.337v-1.11c0-1.367 0-2.47.116-3.337.121-.9.38-1.658.982-2.26.602-.602 1.36-.86 2.26-.981.867-.117 1.969-.117 3.337-.117h1.11Z" opacity=".4"/>
  <path fill="#141B34" d="M7.083 14.857c0-1.294 0-2.481.13-3.449.144-1.066.48-2.193 1.408-3.12.928-.928 2.055-1.265 3.12-1.408.968-.13 2.155-.13 3.45-.13h2.236c.296 0 .444 0 .533-.096.089-.096.078-.24.057-.528-.019-.25-.042-.487-.072-.71-.13-.96-.388-1.758-.94-2.43a4.751 4.751 0 0 0-.658-.658c-.71-.582-1.558-.837-2.589-.96-1.004-.118-2.273-.118-3.876-.118h-.097c-1.603 0-2.872 0-3.876.119-1.031.122-1.88.377-2.589.96a4.75 4.75 0 0 0-.658.658c-.582.709-.838 1.557-.96 2.588-.119 1.004-.119 2.274-.119 3.876v.098c0 1.602 0 2.872.12 3.876.121 1.03.377 1.88.959 2.588.197.24.418.461.658.659.672.551 1.47.81 2.429.94.223.03.46.053.71.071.289.021.433.032.529-.057.095-.089.095-.237.095-.533v-2.236Z"/>
</svg>
