<svg xmlns="http://www.w3.org/2000/svg" width="25" height="24" fill="none" viewBox="0 0 25 24">
  <path fill="#161C24" d="M12.334 22.75c-.3 0-.555-.084-.788-.192-.771-.384-1.723-.932-2.432-1.352-.507-.301-.76-.452-1.03-.454-.27-.002-.521.141-1.024.428l-1.005.573c-.503.248-1.353.564-2.12.1-.533-.324-.71-.868-.782-1.36-.07-.47-.07-1.083-.07-1.79V7.945c0-1.367 0-2.47.117-3.337.121-.9.38-1.658.982-2.26.602-.602 1.36-.86 2.26-.981.867-.117 1.969-.117 3.337-.117h5.11c1.367 0 2.47 0 3.336.117.9.12 1.658.38 2.26.981.602.602.861 1.36.982 2.26.117.867.117 1.97.117 3.337v10.758c0 .707 0 1.32-.07 1.79-.073.492-.25 1.036-.782 1.36-.767.464-1.617.148-2.12-.1l-1.005-.573c-.503-.287-.754-.43-1.024-.428-.27.002-.523.153-1.03.454-.709.42-1.66.968-2.432 1.352a1.836 1.836 0 0 1-.787.192Z" opacity=".4"/>
  <path fill="#161C24" fill-rule="evenodd" d="M8.626 14.707a1 1 0 0 1 0-1.414l6-6a1 1 0 1 1 1.415 1.414l-6 6a1 1 0 0 1-1.415 0ZM8.334 8a1 1 0 0 1 1-1h.008a1 1 0 0 1 0 2h-.008a1 1 0 0 1-1-1Zm5.99 6a1 1 0 0 1 1-1h.01a1 1 0 1 1 0 2h-.01a1 1 0 0 1-1-1Z" clip-rule="evenodd"/>
</svg>
