<svg xmlns="http://www.w3.org/2000/svg" width="25" height="24" fill="none" viewBox="0 0 25 24">
  <path fill="#161C24" d="M14.387 2.75c1.606 0 2.875 0 3.885.113 1.036.115 1.887.357 2.619.9.503.372.938.834 1.288 1.362.645.976.835 2.158.903 3.72.033.747-.596 1.249-1.214 1.249-.931 0-1.759.812-1.759 1.906 0 1.094.827 1.906 1.76 1.906.617 0 1.246.502 1.213 1.248-.068 1.563-.258 2.745-.903 3.72-.35.53-.785.99-1.288 1.364-.732.542-1.583.784-2.619.9-1.01.112-2.279.112-3.885.112H10.28c-1.607 0-2.875 0-3.886-.113-1.035-.115-1.886-.357-2.618-.9a5.407 5.407 0 0 1-1.288-1.362c-.645-.976-.836-2.158-.904-3.721-.032-.747.597-1.248 1.214-1.248.932 0 1.759-.812 1.759-1.906 0-1.094-.827-1.906-1.76-1.906-.616 0-1.245-.501-1.213-1.248.068-1.563.259-2.745.904-3.72.35-.53.785-.99 1.288-1.364.732-.542 1.583-.784 2.618-.9 1.01-.112 2.28-.112 3.886-.112h4.107Z" opacity=".4"/>
  <path fill="#161C24" fill-rule="evenodd" d="M15.54 8.793a1 1 0 0 1 0 1.414l-5 5a1 1 0 0 1-1.414-1.414l5-5a1 1 0 0 1 1.415 0ZM8.834 9.5a1 1 0 0 1 1-1h.01a1 1 0 0 1 0 2h-.01a1 1 0 0 1-1-1Zm4.988 5a1 1 0 0 1 1-1h.012a1 1 0 0 1 0 2h-.012a1 1 0 0 1-1-1Z" clip-rule="evenodd"/>
</svg>
