<svg xmlns="http://www.w3.org/2000/svg" width="25" height="24" fill="none" viewBox="0 0 25 24">
  <path fill="#161C24" d="M18.806 11.698a1 1 0 0 1 1.413-.059l1.138 1.094c.068.09.411.547.167 1.127-.241.572-.798.653-.907.668-.14.02-.302.019-.4.019h-3.13c-1.054 0-1.878.835-1.878 1.828a1 1 0 1 1-2 0c0-2.13 1.752-3.828 3.877-3.828h1.47a.998.998 0 0 1 .25-.85Zm3.403 3.677a1 1 0 0 1 1 1c0 2.13-1.753 3.828-3.878 3.828h-1.47a1 1 0 0 1-1.663.907l-1.138-1.093c-.068-.09-.411-.547-.167-1.127.241-.572.798-.653.907-.668.14-.02.302-.019.4-.019h3.13c1.054 0 1.879-.834 1.879-1.828a1 1 0 0 1 1-1Z"/>
  <path fill="#161C24" d="M10.661 20.125c-1.84 0-3.283 0-4.422-.129-1.162-.13-2.104-.405-2.888-1.023a5.13 5.13 0 0 1-.65-.612c-.666-.747-.963-1.653-1.105-2.764-.138-1.08-.138-2.445-.138-4.17v-.105c0-.575 0-1.111.006-1.61.002-.276.004-.413.092-.5.087-.087.226-.087.504-.087h20.297c.278 0 .416 0 .504.087.088.087.089.225.091.5.004.474.005 1.082.005 1.78 0 .187 0 .28-.013.315-.047.124-.151.166-.272.11-.033-.015-.114-.099-.276-.266l-1.16-1.115a2.5 2.5 0 0 0-3.533.146c-.028.03-.06.07-.093.111-.1.127-.149.19-.208.22s-.137.034-.293.04c-3.357.134-5.4 2.426-5.4 5.322 0 .896.47 1.681 1.178 2.123.232.144.348.217.386.286.038.07.035.207.03.48v.04c0 .43 0 .646-.088.733-.088.088-.262.088-.61.088H10.66Z" opacity=".4"/>
  <path fill="#161C24" d="M13.757 2.625c1.839 0 3.283 0 4.422.129 1.162.13 2.104.405 2.888 1.023.234.185.452.39.65.612.666.747.963 1.653 1.105 2.764.016.128.024.192.01.248a.307.307 0 0 1-.179.202c-.054.022-.121.022-.256.022H2.022c-.135 0-.203 0-.256-.022a.307.307 0 0 1-.179-.202c-.014-.056-.006-.12.01-.248.142-1.111.44-2.017 1.105-2.764.198-.222.416-.427.65-.612.783-.618 1.726-.892 2.888-1.023 1.139-.129 2.583-.129 4.422-.129h3.095Z"/>
</svg>
