<svg xmlns="http://www.w3.org/2000/svg" width="25" height="24" fill="none" viewBox="0 0 25 24">
  <path fill="#161C24" fill-rule="evenodd" d="M1.626 1.293a1 1 0 0 1 1.415 0l20 20a1 1 0 0 1-1.415 1.414l-20-20a1 1 0 0 1 0-1.414Z" clip-rule="evenodd"/>
  <path fill="#161C24" d="M18.303 20.623c-1.139.128-2.583.128-4.422.128h-3.095c-1.84 0-3.283 0-4.422-.128-1.162-.132-2.104-.405-2.888-1.024a5.123 5.123 0 0 1-.65-.612c-.666-.747-.963-1.652-1.105-2.764-.138-1.08-.138-2.445-.138-4.17v-.105c0-.575 0-1.111.006-1.61.002-.275.004-.413.092-.5.087-.087.226-.087.504-.087h7.65c.123 0 .184 0 .239.023.055.023.098.066.185.153l9.555 9.554c.276.277.415.416.372.582-.044.166-.218.215-.567.314a8.216 8.216 0 0 1-1.316.246ZM1.721 7.78c.142-1.112.44-2.018 1.105-2.765.198-.222.416-.426.65-.611.13-.103.265-.197.404-.281.163-.1.245-.15.348-.137.103.013.177.087.325.235L7.56 7.227c.436.436.654.654.577.839-.076.185-.385.185-1.001.185h-4.99c-.134 0-.202 0-.255-.021a.307.307 0 0 1-.179-.203c-.014-.056-.006-.12.01-.248Z"/>
  <path fill="#161C24" d="M23.083 12.053c0 1.724 0 3.09-.137 4.17a6.615 6.615 0 0 1-.344 1.486c-.116.308-.173.462-.333.496-.16.035-.287-.092-.542-.347l-7.084-7.084c-.436-.436-.654-.654-.577-.839.077-.185.385-.185 1.001-.185h7.415c.278 0 .417 0 .504.087.088.087.09.224.092.5.005.499.005 1.034.005 1.61v.106ZM13.881 3.25c1.839 0 3.283 0 4.422.129 1.162.13 2.104.405 2.888 1.023.234.185.452.39.65.612.666.747.963 1.653 1.105 2.764.016.128.024.192.01.248a.307.307 0 0 1-.179.202c-.054.022-.121.022-.256.022H12.367c-.122 0-.184 0-.239-.023-.055-.023-.098-.066-.185-.153L8.122 4.253c-.405-.405-.608-.608-.533-.792.074-.184.357-.189.922-.199.682-.012 1.438-.012 2.275-.012h3.095Z" opacity=".4"/>
</svg>
