<svg xmlns="http://www.w3.org/2000/svg" width="25" height="24" fill="none" viewBox="0 0 25 24">
  <path fill="#161C24" fill-rule="evenodd" d="M15.501 13.168a1 1 0 0 1 1.415 0l2.293 2.293 2.292-2.293a1 1 0 0 1 1.415 1.414l-2.293 2.293 2.293 2.293a1 1 0 0 1-1.415 1.414l-2.293-2.293-2.292 2.293a1 1 0 0 1-1.415-1.414l2.293-2.293-2.293-2.293a1 1 0 0 1 0-1.414Z" clip-rule="evenodd"/>
  <path fill="#161C24" d="M22.957 10.672c.001.343.002.514-.083.602-.086.088-.298.092-.721.102a2.491 2.491 0 0 0-1.712.731l-.808.808c-.2.2-.3.3-.424.3-.125 0-.225-.1-.425-.3l-.808-.808a2.5 2.5 0 0 0-3.535 3.536l.808.808c.2.2.3.3.3.424s-.1.224-.3.424l-.808.808a2.492 2.492 0 0 0-.732 1.713c-.01.422-.014.634-.101.72-.088.085-.26.085-.602.085h-2.345c-1.84 0-3.283 0-4.422-.129-1.162-.13-2.104-.405-2.888-1.023a5.13 5.13 0 0 1-.65-.612c-.666-.747-.963-1.653-1.105-2.764-.138-1.08-.138-2.445-.138-4.17v-.105c0-.575 0-1.111.006-1.61.002-.276.004-.413.092-.5.087-.087.226-.087.504-.087h20.297c.278 0 .417 0 .505.087.087.087.089.224.091.5l.004.46Z" opacity=".4"/>
  <path fill="#161C24" d="M18.179 3.254c-1.139-.129-2.583-.129-4.422-.129h-3.095c-1.84 0-3.283 0-4.422.129-1.162.13-2.105.405-2.888 1.023-.234.185-.452.39-.65.612-.666.747-.963 1.653-1.105 2.764-.016.128-.024.192-.01.248.024.09.093.168.179.202.053.022.12.022.256.022h20.375c.135 0 .202 0 .256-.022a.307.307 0 0 0 .179-.202c.014-.056.006-.12-.01-.248-.142-1.111-.44-2.017-1.106-2.764a5.128 5.128 0 0 0-.65-.612c-.783-.618-1.725-.892-2.887-1.023Z"/>
</svg>
