<svg xmlns="http://www.w3.org/2000/svg" width="25" height="24" fill="none" viewBox="0 0 25 24">
  <path fill="#161C24" d="M23.084 12.053c0 1.724 0 3.09-.138 4.17-.142 1.11-.44 2.016-1.106 2.763a5.124 5.124 0 0 1-.65.612c-.783.618-1.725.892-2.887 1.023-1.139.129-2.583.129-4.422.129h-3.095c-1.84 0-3.283 0-4.422-.129-1.162-.13-2.104-.405-2.888-1.023a5.13 5.13 0 0 1-.65-.612c-.666-.747-.963-1.653-1.105-2.764-.138-1.08-.138-2.445-.138-4.17v-.105c0-.575 0-1.111.006-1.61.002-.276.004-.413.092-.5.087-.087.226-.087.504-.087h20.297c.278 0 .417 0 .505.087.087.087.089.224.091.5.006.499.006 1.034.006 1.61v.106Z" opacity=".4"/>
  <path fill="#161C24" d="M13.882 3.25c1.839 0 3.283 0 4.422.129 1.162.13 2.104.405 2.888 1.023.234.185.452.39.65.612.666.747.963 1.653 1.105 2.764.016.128.024.192.01.248a.307.307 0 0 1-.179.202c-.054.022-.121.022-.256.022H2.147c-.135 0-.203 0-.256-.022a.307.307 0 0 1-.179-.202c-.014-.056-.006-.12.01-.248.142-1.111.44-2.017 1.105-2.764.198-.222.416-.427.65-.612.783-.618 1.726-.892 2.888-1.023 1.139-.129 2.583-.129 4.422-.129h3.095Z"/>
  <path fill="#161C24" fill-rule="evenodd" d="M10.584 16a.75.75 0 0 1 .75-.75h1.5a.75.75 0 0 1 0 1.5h-1.5a.75.75 0 0 1-.75-.75Zm4.5 0a.75.75 0 0 1 .75-.75h3.5a.75.75 0 0 1 0 1.5h-3.5a.75.75 0 0 1-.75-.75Z" clip-rule="evenodd"/>
</svg>
