<svg xmlns="http://www.w3.org/2000/svg" width="25" height="24" fill="none" viewBox="0 0 25 24">
  <path fill="#161C24" d="M23.151 13.541a1 1 0 0 1-.609 1.277c-.533.189-1.15.596-1.803 1.168-.643.564-1.268 1.241-1.822 1.905a28.033 28.033 0 0 0-1.734 2.322l-.13.198a1 1 0 0 1-1.739-.088c-.44-.882-.836-1.233-1.035-1.366a.734.734 0 0 0-.164-.086 1 1 0 0 1 .094-1.996c.082.001.287.016.446.07.208.06.459.165.733.348.274.183.562.436.85.782a29.23 29.23 0 0 1 1.144-1.465c.593-.711 1.291-1.472 2.038-2.127.737-.646 1.576-1.24 2.455-1.55a1 1 0 0 1 1.276.608Z"/>
  <path fill="#161C24" d="M10.66 20.625c-1.838 0-3.283 0-4.421-.129-1.162-.13-2.105-.405-2.888-1.023a5.131 5.131 0 0 1-.65-.612c-.666-.747-.963-1.653-1.105-2.764-.138-1.08-.138-2.445-.138-4.17v-.105c0-.575 0-1.111.005-1.61.003-.276.005-.413.092-.5.088-.087.227-.087.505-.087h20.297c.278 0 .416 0 .504.087.088.087.09.224.092.5.002.15.003.303.003.46.002.341.003.513-.083.6-.085.088-.297.093-.722.103-.258.006-.52.052-.777.143-1.137.403-2.143 1.136-2.943 1.837-.825.723-1.578 1.547-2.201 2.294a.842.842 0 0 1-.108.118.282.282 0 0 1-.253.054.978.978 0 0 1-.16-.07 3.915 3.915 0 0 0-.612-.24 3.163 3.163 0 0 0-.874-.136h-.015a2.5 2.5 0 0 0-.747 4.886l.005.002c.034.01.054.016.078.045.104.123.017.317-.145.317h-2.738Z" opacity=".4"/>
  <path fill="#161C24" d="M13.757 3.125c1.839 0 3.283 0 4.422.129 1.162.13 2.104.405 2.888 1.023.234.185.451.39.65.612.665.747.963 1.653 1.105 2.764.016.128.024.192.01.248a.307.307 0 0 1-.179.202c-.054.022-.121.022-.256.022H2.021c-.134 0-.202 0-.256-.022a.307.307 0 0 1-.178-.202c-.015-.056-.007-.12.01-.248.141-1.111.439-2.017 1.105-2.764a5.09 5.09 0 0 1 .65-.612c.783-.618 1.726-.892 2.888-1.023 1.138-.129 2.583-.129 4.422-.129h3.095Z"/>
</svg>
