<svg xmlns="http://www.w3.org/2000/svg" width="25" height="24" fill="none" viewBox="0 0 25 24">
  <path fill="#161C24" d="M19.17 8.257c.397-.032.8.052 1.149.248.25.141.438.33.573.485.075.086.176.214.25.307.456.554.922 1.123 1.196 1.512.282.401.496.784.615 1.217a3.7 3.7 0 0 1 0 1.948c-.163.597-.492 1.11-.82 1.54-.198.26-.438.538-.65.784-.116.134-.281.329-.368.434-.241.294-.48.585-.796.763a2.02 2.02 0 0 1-1.149.248c-.358-.029-.848-.253-1.211-.419-.356-.159-1.028-.459-1.284-1.216-.093-.275-.092-.57-.091-.844v-4.528c-.001-.274-.002-.569.091-.844.256-.757.928-1.057 1.284-1.216.363-.166.853-.39 1.211-.42Zm-13.673 0a2.02 2.02 0 0 0-1.149.248c-.25.141-.438.33-.573.485a9.047 9.047 0 0 0-.25.307c-.456.554-.922 1.123-1.196 1.512-.282.401-.496.784-.615 1.217a3.688 3.688 0 0 0 0 1.948c.163.597.492 1.11.82 1.54.198.26.438.538.65.784.116.134.28.329.368.434.241.294.48.585.796.763.35.196.752.28 1.149.248.358-.029.848-.253 1.211-.419.356-.159 1.028-.459 1.284-1.216.093-.275.092-.57.091-.844v-4.528c.001-.274.002-.569-.091-.844-.256-.757-.928-1.057-1.284-1.216-.363-.166-.853-.39-1.211-.42Z" opacity=".4"/>
  <path fill="#161C24" d="M18.334 17.493v.309c0 1.018-1.124 2.2-3 2.2h-2a1 1 0 1 0 0 2h2c2.541 0 5-1.684 5-4.2v-.314l-.015.009c-.349.195-.751.28-1.149.248-.244-.02-.55-.13-.837-.252ZM6.362 8.52C6.648 6.096 9.082 4 12.334 4c3.251 0 5.685 2.095 5.971 4.52.294-.125.613-.243.866-.263a2.02 2.02 0 0 1 1.143.245C20.02 4.75 16.424 2 12.334 2S4.647 4.75 4.353 8.503a2.02 2.02 0 0 1 1.144-.246c.253.02.572.138.865.264Z"/>
</svg>
