<svg xmlns="http://www.w3.org/2000/svg" width="25" height="24" fill="none" viewBox="0 0 25 24">
  <path fill="#161C24" d="M6.386 1.25c.898 0 1.647 0 2.242.08.628.084 1.195.27 1.65.725.455.456.641 1.023.726 1.65.08.595.08 1.345.08 2.243v2.104c0 .898 0 1.648-.08 2.242-.085.628-.27 1.195-.726 1.65-.455.456-1.022.642-1.65.726-.595.08-1.344.08-2.242.08h-.104c-.899 0-1.648 0-2.243-.08-.628-.084-1.195-.27-1.65-.726-.456-.455-.641-1.022-.726-1.65-.08-.594-.08-1.344-.08-2.242V5.948c0-.898 0-1.648.08-2.242.085-.628.27-1.195.726-1.65.455-.456 1.022-.642 1.65-.726.595-.08 1.344-.08 2.242-.08h.105Z" opacity=".4"/>
  <path fill="#161C24" d="M7.359 15.25c.444 0 .815 0 1.12.02.317.022.616.069.907.19a2.75 2.75 0 0 1 1.488 1.488c.12.29.167.59.189.907.02.304.02.675.02 1.12v.05c0 .445 0 .816-.02 1.12a2.822 2.822 0 0 1-.189.907 2.75 2.75 0 0 1-1.488 1.489c-.29.12-.59.167-.907.188-.305.021-.676.021-1.12.021h-2.05c-.445 0-.816 0-1.12-.02a2.822 2.822 0 0 1-.908-.19 2.75 2.75 0 0 1-1.488-1.488 2.84 2.84 0 0 1-.189-.907c-.02-.304-.02-.675-.02-1.12v-.05c0-.445 0-.816.02-1.12a2.84 2.84 0 0 1 .189-.907 2.75 2.75 0 0 1 1.488-1.489c.29-.12.59-.167.907-.188.305-.021.676-.021 1.12-.021h2.05Z"/>
  <path fill="#161C24" d="M18.386 11.25c.898 0 1.647 0 2.242.08.628.084 1.195.27 1.65.726.456.455.641 1.022.726 1.65.08.594.08 1.344.08 2.242v2.104c0 .899 0 1.648-.08 2.242-.085.628-.27 1.195-.726 1.65-.455.456-1.022.642-1.65.726-.595.08-1.344.08-2.242.08h-.104c-.899 0-1.648 0-2.243-.08-.628-.084-1.195-.27-1.65-.726-.455-.455-.641-1.022-.726-1.65-.08-.594-.08-1.343-.08-2.242v-2.104c0-.899 0-1.648.08-2.242.085-.628.27-1.195.726-1.65.455-.456 1.022-.642 1.65-.726.595-.08 1.344-.08 2.242-.08h.105Z" opacity=".4"/>
  <path fill="#161C24" d="M19.359 1.25c.444 0 .815 0 1.12.02.317.022.617.07.907.19a2.75 2.75 0 0 1 1.488 1.488c.12.29.167.59.189.907.02.304.02.675.02 1.12v.05c0 .445 0 .816-.02 1.12a2.822 2.822 0 0 1-.189.907 2.75 2.75 0 0 1-1.488 1.489c-.29.12-.59.167-.907.188-.305.021-.676.021-1.12.021h-2.05c-.445 0-.816 0-1.12-.02a2.823 2.823 0 0 1-.908-.19 2.75 2.75 0 0 1-1.488-1.488 2.84 2.84 0 0 1-.189-.907c-.02-.304-.02-.675-.02-1.12v-.05c0-.445 0-.816.02-1.12a2.84 2.84 0 0 1 .189-.907 2.75 2.75 0 0 1 1.488-1.489c.29-.12.59-.167.907-.188.305-.021.676-.021 1.12-.021h2.05Z"/>
</svg>
