<svg xmlns="http://www.w3.org/2000/svg" width="25" height="24" fill="none" viewBox="0 0 25 24">
  <path fill="#161C24" d="M6.37 1.25c.74 0 1.347 0 1.838.047.51.048.973.153 1.394.41.417.256.768.607 1.024 1.025.258.42.362.883.41 1.393.048.492.048 1.1.048 1.838v.074c0 .739 0 1.346-.047 1.838-.049.51-.153.973-.41 1.393a3.104 3.104 0 0 1-1.025 1.025c-.42.258-.883.362-1.394.41-.491.047-1.099.047-1.838.047h-.073c-.74 0-1.347 0-1.838-.047-.51-.048-.973-.152-1.394-.41a3.103 3.103 0 0 1-1.024-1.025c-.258-.42-.362-.883-.41-1.393-.048-.492-.048-1.1-.048-1.838v-.074c0-.739 0-1.346.047-1.838.049-.51.153-.973.41-1.393a3.103 3.103 0 0 1 1.025-1.025c.42-.257.883-.362 1.394-.41.491-.047 1.099-.047 1.838-.047h.073Z" opacity=".5"/>
  <path fill="#161C24" d="M6.37 13.25c.74 0 1.347 0 1.838.047.51.048.973.152 1.394.41.417.256.768.607 1.024 1.025.258.42.362.883.41 1.393.048.492.048 1.1.048 1.838v.074c0 .739 0 1.346-.047 1.838-.049.51-.153.973-.41 1.393a3.103 3.103 0 0 1-1.025 1.025c-.42.258-.883.362-1.394.41-.491.047-1.099.047-1.838.047h-.073c-.74 0-1.347 0-1.838-.047-.51-.048-.973-.152-1.394-.41a3.103 3.103 0 0 1-1.024-1.025c-.258-.42-.362-.883-.41-1.393-.048-.492-.048-1.1-.048-1.838v-.073c0-.74 0-1.347.047-1.839.049-.51.153-.973.41-1.393a3.103 3.103 0 0 1 1.025-1.025c.42-.258.883-.362 1.394-.41.491-.047 1.099-.047 1.838-.047h.073Zm12-12c.74 0 1.347 0 1.838.047.51.048.973.153 1.394.41.417.256.768.607 1.024 1.025.258.42.362.883.41 1.393.047.492.047 1.1.047 1.838v.074c0 .739 0 1.346-.046 1.838-.049.51-.153.973-.41 1.393a3.103 3.103 0 0 1-1.025 1.025c-.42.258-.883.362-1.394.41-.491.047-1.099.047-1.838.047h-.073c-.74 0-1.347 0-1.838-.047-.51-.048-.973-.152-1.394-.41a3.103 3.103 0 0 1-1.024-1.025c-.258-.42-.362-.883-.41-1.393-.047-.492-.047-1.1-.047-1.838v-.074c0-.739 0-1.346.046-1.838.049-.51.153-.973.41-1.393a3.103 3.103 0 0 1 1.025-1.025c.42-.257.883-.362 1.394-.41.491-.047 1.099-.047 1.838-.047h.073Z"/>
  <path fill="#161C24" d="M18.37 13.25c.74 0 1.347 0 1.838.047.51.048.973.152 1.394.41.417.256.768.607 1.024 1.025.258.42.362.883.41 1.393.047.492.047 1.1.047 1.838v.074c0 .739 0 1.346-.046 1.838-.049.51-.153.973-.41 1.393a3.103 3.103 0 0 1-1.025 1.025c-.42.258-.883.362-1.394.41-.491.047-1.099.047-1.838.047h-.073c-.74 0-1.347 0-1.838-.047-.51-.048-.973-.152-1.394-.41a3.103 3.103 0 0 1-1.024-1.025c-.258-.42-.362-.883-.41-1.393-.047-.492-.047-1.1-.047-1.838v-.073c0-.74 0-1.347.046-1.839.049-.51.153-.973.41-1.393a3.103 3.103 0 0 1 1.025-1.025c.42-.258.883-.362 1.394-.41.491-.047 1.099-.047 1.838-.047h.073Z" opacity=".5"/>
</svg>
