<svg xmlns="http://www.w3.org/2000/svg" width="25" height="24" fill="none" viewBox="0 0 25 24">
  <path fill="#161C24" d="M18.365 13.25c.673 0 1.224 0 1.672.037.463.037.881.118 1.272.317a3.25 3.25 0 0 1 1.42 1.42c.2.391.28.81.318 1.273.037.447.037.998.037 1.671v.063c0 .674 0 1.225-.037 1.672-.038.463-.119.882-.318 1.273a3.25 3.25 0 0 1-1.42 1.42c-.39.199-.81.28-1.272.317-.448.037-.999.037-1.672.037h-.063c-.673 0-1.224 0-1.672-.037-.463-.037-.881-.118-1.272-.317a3.25 3.25 0 0 1-1.42-1.42c-.2-.391-.28-.81-.318-1.273-.036-.447-.036-.998-.036-1.672v-.062c0-.674 0-1.225.036-1.672.038-.463.119-.882.318-1.273a3.25 3.25 0 0 1 1.42-1.42c.39-.199.81-.28 1.272-.317.448-.037.999-.037 1.672-.037h.063Z" opacity=".4"/>
  <path fill="#161C24" d="M6.365 13.25c.673 0 1.224 0 1.672.037.463.037.881.118 1.272.317a3.25 3.25 0 0 1 1.42 1.42c.2.391.28.81.318 1.273.037.447.037.998.037 1.671v.063c0 .674 0 1.225-.037 1.672-.038.463-.119.882-.318 1.273a3.25 3.25 0 0 1-1.42 1.42c-.39.199-.81.28-1.272.317-.448.037-.999.037-1.672.037h-.063c-.673 0-1.224 0-1.672-.037-.463-.037-.881-.118-1.272-.317a3.25 3.25 0 0 1-1.42-1.42c-.2-.391-.28-.81-.318-1.273-.037-.447-.037-.998-.037-1.672v-.062c0-.674 0-1.225.037-1.672.038-.463.119-.882.318-1.273a3.25 3.25 0 0 1 1.42-1.42c.39-.199.81-.28 1.272-.317.448-.037.999-.037 1.672-.037h.063Z"/>
  <path fill="#161C24" d="M6.365 1.25c.673 0 1.224 0 1.672.037.463.037.881.118 1.272.317a3.25 3.25 0 0 1 1.42 1.42c.2.391.28.81.318 1.273.037.447.037.998.037 1.672v.062c0 .674 0 1.225-.037 1.672-.038.463-.119.882-.318 1.272a3.25 3.25 0 0 1-1.42 1.42c-.39.2-.81.28-1.272.318-.448.037-.999.037-1.672.037h-.063c-.673 0-1.224 0-1.672-.037-.463-.037-.881-.118-1.272-.317a3.25 3.25 0 0 1-1.42-1.42c-.2-.391-.28-.81-.318-1.273-.037-.447-.037-.998-.037-1.672V5.97c0-.674 0-1.225.037-1.672.038-.463.119-.882.318-1.272a3.25 3.25 0 0 1 1.42-1.42c.39-.2.81-.28 1.272-.318.448-.037.999-.037 1.672-.037h.063Z" opacity=".4"/>
  <path fill="#161C24" fill-rule="evenodd" d="M18.334 1.5a1 1 0 0 1 1 1V5h2.5a1 1 0 1 1 0 2h-2.5v2.5a1 1 0 1 1-2 0V7h-2.5a1 1 0 1 1 0-2h2.5V2.5a1 1 0 0 1 1-1Z" clip-rule="evenodd"/>
</svg>
