<svg xmlns="http://www.w3.org/2000/svg" width="25" height="24" fill="none" viewBox="0 0 25 24">
  <path fill="#161C24" fill-rule="evenodd" d="M4.299 3.084C3.77 3.552 3.333 4.197 3.333 5v4.988c0 .944.154 1.476.959 2.003.325.213.69.415 1.092.604C7.347 13.52 9.944 14 12.334 14c2.388 0 4.986-.481 6.949-1.405.403-.19.767-.391 1.092-.604.805-.527.959-1.059.959-2.003V5c0-.803-.438-1.448-.966-1.916-.529-.469-1.237-.846-2.026-1.142C16.755 1.347 14.63 1 12.334 1c-2.298 0-4.422.347-6.008.942-.79.296-1.498.673-2.027 1.142Zm1.327 1.497c-.357.316-.357.522 0 .838.263.234.686.486 1.28.72.95.373 1.915.57 2.892.699.785.104 1.638.162 2.536.162 2.12 0 3.996-.324 5.305-.815.659-.247 1.122-.517 1.402-.766.357-.316.357-.522 0-.838-.28-.25-.744-.52-1.402-.766C16.33 3.325 14.455 3 12.334 3c-2.121 0-3.997.324-5.306.815-.658.247-1.122.517-1.402.766Z" clip-rule="evenodd" opacity=".4"/>
  <path fill="#161C24" fill-rule="evenodd" d="M6.615 10.628a.75.75 0 0 1 .935-.502c.563.17 1.201.31 1.896.416a.75.75 0 1 1-.225 1.483 15.352 15.352 0 0 1-2.103-.463.75.75 0 0 1-.503-.934Z" clip-rule="evenodd"/>
  <path fill="#161C24" d="M3.431 13.941c.098-.058.242.02.53.175.188.102.379.198.572.289C6.943 15.539 9.68 16 12.333 16c2.612 0 5.514-.519 7.801-1.595.194-.091.384-.187.572-.289.288-.155.432-.233.53-.175.098.058.098.217.098.535V19c0 .803-.438 1.448-.966 1.916-.529.469-1.237.845-2.026 1.142-1.587.594-3.711.942-6.008.942-2.298 0-4.422-.348-6.008-.942-.79-.297-1.498-.673-2.027-1.142-.528-.468-.966-1.113-.966-1.916v-4.524c0-.318 0-.477.098-.535Z" opacity=".4"/>
  <path fill="#161C24" fill-rule="evenodd" d="M6.615 17.628a.75.75 0 0 1 .935-.502c.563.17 1.201.31 1.896.416a.75.75 0 1 1-.225 1.483 15.352 15.352 0 0 1-2.103-.463.75.75 0 0 1-.503-.934Z" clip-rule="evenodd"/>
</svg>
