<svg xmlns="http://www.w3.org/2000/svg" width="25" height="24" fill="none" viewBox="0 0 25 24">
  <path fill="#161C24" fill-rule="evenodd" d="M13.68 1.283c.566.05 1.097.223 1.553.563.337.251.572.56.772.893.185.309.372.694.584 1.131l.427.88h4.318a1 1 0 1 1 0 2h-18a1 1 0 1 1 0-2h4.41l.355-.78c.207-.453.389-.852.571-1.172.197-.346.43-.666.772-.928.462-.354 1.004-.533 1.581-.586.435-.04.874-.034 1.31-.033.511 0 .97-.002 1.348.032ZM9.942 4.75h4.852a13.822 13.822 0 0 0-.503-.983c-.192-.32-.423-.46-.787-.493-.26-.023-.598-.024-1.135-.024-.55 0-.898 0-1.163.025-.374.034-.608.18-.798.513-.124.218-.26.51-.466.962Z" clip-rule="evenodd"/>
  <path fill="#161C24" d="M19.916 15.656c-.077 1.254-.138 2.248-.262 3.042-.128.815-.333 1.494-.743 2.087a4.742 4.742 0 0 1-1.417 1.345c-.611.377-1.294.541-2.107.62H9.26c-.814-.079-1.498-.244-2.11-.621a4.741 4.741 0 0 1-1.417-1.348c-.41-.594-.614-1.273-.74-2.09-.125-.795-.184-1.79-.26-3.046L4.085 4.75h16.5l-.668 10.906Z" opacity=".4"/>
  <path fill="#161C24" fill-rule="evenodd" d="M8.584 12.316a.75.75 0 0 1 .75-.75h6a.75.75 0 0 1 0 1.5h-6a.75.75 0 0 1-.75-.75Zm1.5 3.918a.75.75 0 0 1 .75-.75h3a.75.75 0 0 1 0 1.5h-3a.75.75 0 0 1-.75-.75Z" clip-rule="evenodd"/>
</svg>
