<svg xmlns="http://www.w3.org/2000/svg" width="25" height="24" fill="none" viewBox="0 0 25 24">
  <path fill="#161C24" d="M1.583 8a.75.75 0 0 1 .75-.75h20a.75.75 0 0 1 .75.75v5.487c0 1.97 0 3.529-.17 4.748-.174 1.255-.543 2.26-1.36 3.05-.815.785-1.847 1.135-3.135 1.302-1.259.163-2.87.163-4.918.163h-2.333c-2.048 0-3.66 0-4.918-.163-1.288-.167-2.32-.517-3.134-1.302-.819-.79-1.187-1.795-1.362-3.05-.17-1.22-.17-2.777-.17-4.748V8Z" opacity=".4"/>
  <path fill="#161C24" fill-rule="evenodd" d="M9.334 12a1 1 0 0 1 1-1h4a1 1 0 1 1 0 2h-4a1 1 0 0 1-1-1Z" clip-rule="evenodd"/>
  <path fill="#161C24" d="M8.861 1.25h6.945c.903 0 1.658 0 2.278.065.654.068 1.246.215 1.793.565.546.35.916.817 1.233 1.37.3.524.591 1.193.938 1.992l.96 2.21a.9.9 0 0 1 .07.458.75.75 0 0 0-.744-.66h-1.53l-.54-1.24c-.372-.858-.623-1.432-.866-1.856-.232-.403-.413-.591-.605-.714s-.444-.212-.92-.262c-.502-.052-1.15-.053-2.12-.053h-2.42V7.25h-2V3.125h-2.42c-.969 0-1.617.001-2.118.053-.477.05-.729.14-.92.262-.193.123-.375.31-.606.714-.243.424-.494.998-.866 1.855l-.54 1.241h-1.53a.75.75 0 0 0-.744.66.899.899 0 0 1 .07-.458l.96-2.21c.347-.8.637-1.468.938-1.992.317-.553.687-1.02 1.233-1.37.547-.35 1.139-.497 1.794-.565.619-.065 1.374-.065 2.277-.065Z"/>
</svg>
