<svg xmlns="http://www.w3.org/2000/svg" width="25" height="24" fill="none" viewBox="0 0 25 24">
  <path fill="#161C24" d="M9.566 2.25h5.535c.76 0 1.268 0 1.756.119.22.054.437.126.645.215.462.199.856.503 1.436.95l.07.054.033.024c1.046.806 1.875 1.444 2.485 2.016.622.585 1.082 1.159 1.322 1.859a4.28 4.28 0 0 1 .218 1.785c-.066.737-.378 1.396-.847 2.096-.457.683-1.113 1.475-1.938 2.47l-4.058 4.901c-.736.89-1.342 1.62-1.897 2.122-.584.526-1.21.889-1.992.889-.784 0-1.41-.363-1.993-.89-.555-.5-1.16-1.231-1.897-2.12l-4.058-4.901c-.825-.996-1.48-1.788-1.938-2.471-.469-.7-.78-1.359-.847-2.096a4.28 4.28 0 0 1 .218-1.785c.24-.7.7-1.274 1.322-1.859.61-.572 1.439-1.21 2.485-2.016l.032-.024.07-.055c.58-.446.976-.75 1.437-.949.208-.09.424-.161.645-.215.488-.12.997-.12 1.756-.119Z" opacity=".4"/>
  <path fill="#161C24" fill-rule="evenodd" d="M9.584 8.5a.75.75 0 0 1 .75-.75h4a.75.75 0 0 1 0 1.5h-4a.75.75 0 0 1-.75-.75Z" clip-rule="evenodd"/>
</svg>
