<svg xmlns="http://www.w3.org/2000/svg" width="25" height="24" fill="none" viewBox="0 0 25 24">
  <path fill="#161C24" d="M16.723 7.25c.713-.001 1.313-.002 1.848.27.295.151.526.357.743.595.203.224.422.51.678.845.215.28.67.874.811 1.112.157.264.28.565.28.928 0 .363-.123.664-.28.928-.14.238-.596.832-.81 1.112-.257.334-.476.62-.68.845a2.577 2.577 0 0 1-.742.595c-.535.272-1.135.271-1.848.27h-1.39a.75.75 0 0 1-.75-.75V8a.75.75 0 0 1 .75-.75h1.39ZM11.538 2H7.944c-.713-.001-1.313-.002-1.848.27a2.583 2.583 0 0 0-.743.596c-.203.223-.422.51-.678.844-.215.28-.67.874-.811 1.112-.157.265-.28.565-.28.928 0 .363.123.664.28.928.14.238.34.499.555.779.256.334.731.954.934 1.178.217.238.447.444.743.595.535.272 1.135.271 1.848.27h4.387V2.028L11.538 2Z" opacity=".4"/>
  <path fill="#161C24" d="M11.334 20.973c0 .567.447 1.026 1 1.026.552 0 1-.46 1-1.026V3.027a1 1 0 1 0-2 0v17.946Z"/>
  <path fill="#161C24" fill-rule="evenodd" d="M8.334 21a1 1 0 0 1 1-1h6a1 1 0 1 1 0 2h-6a1 1 0 0 1-1-1Z" clip-rule="evenodd"/>
</svg>
