<svg xmlns="http://www.w3.org/2000/svg" width="25" height="24" fill="none" viewBox="0 0 25 24">
  <path fill="#161C24" d="M10.9 1.804c.415-.318.872-.554 1.434-.554.56 0 1.018.236 1.434.554.39.297.82.727 1.322 1.23l.036.035c.514.515.963.717 1.655.717.087 0 .197-.003.32-.006.316-.01.723-.02 1.078.01.522.043 1.175.183 1.673.677.502.498.646 1.154.691 1.68.031.358.02.768.01 1.085a12.37 12.37 0 0 0-.006.32c0 .45.05.703.137.902.09.204.247.42.58.754l.036.035c.503.503.933.933 1.23 1.322.317.417.553.874.553 1.435s-.236 1.018-.553 1.434c-.297.39-.727.82-1.23 1.323l-.036.035c-.333.334-.49.55-.58.754-.087.2-.137.451-.137.902 0 .087.003.196.007.32.009.317.02.727-.01 1.086-.046.525-.19 1.18-.692 1.679-.498.494-1.151.634-1.673.678-.355.03-.762.018-1.077.01a10.694 10.694 0 0 0-.32-.007c-.442 0-.69.044-.885.125-.195.08-.404.224-.718.538-.067.068-.155.162-.257.272-.23.246-.53.566-.808.81-.424.371-1.032.791-1.78.791-.749 0-1.357-.42-1.78-.79-.28-.245-.579-.565-.809-.811a12.05 12.05 0 0 0-.257-.272c-.314-.314-.523-.458-.718-.538-.195-.08-.443-.125-.884-.125-.087 0-.197.003-.32.006-.315.01-.723.02-1.078-.01-.522-.043-1.175-.183-1.673-.677-.502-.498-.646-1.154-.691-1.68a9.66 9.66 0 0 1-.01-1.085c.003-.124.006-.233.006-.32 0-.45-.05-.703-.137-.902-.09-.204-.247-.42-.58-.754l-.036-.035c-.503-.503-.933-.933-1.23-1.323-.317-.416-.553-.873-.554-1.434 0-.561.237-1.018.554-1.434.297-.39.727-.82 1.23-1.323l.036-.035c.514-.515.717-.964.717-1.656 0-.087-.003-.196-.007-.32a10.03 10.03 0 0 1 .01-1.078c.044-.521.184-1.174.678-1.673.498-.502 1.154-.645 1.679-.69.358-.032.769-.02 1.086-.011.123.003.233.006.32.006.692 0 1.14-.202 1.655-.717l.036-.035c.503-.503.932-.933 1.322-1.23Z" opacity=".4"/>
  <path fill="#161C24" fill-rule="evenodd" d="M8.626 15.707a1 1 0 0 1 0-1.414l6-6a1 1 0 1 1 1.415 1.414l-6 6a1 1 0 0 1-1.415 0ZM8.334 9a1 1 0 0 1 1-1h.01a1 1 0 0 1 0 2h-.01a1 1 0 0 1-1-1Zm5.989 6a1 1 0 0 1 1-1h.01a1 1 0 1 1 0 2h-.01a1 1 0 0 1-1-1Z" clip-rule="evenodd"/>
</svg>
