<svg xmlns="http://www.w3.org/2000/svg" width="25" height="24" fill="none" viewBox="0 0 25 24">
  <path fill="#161C24" d="M12.334 1.25C6.396 1.25 1.584 6.063 1.584 12s4.812 10.75 10.75 10.75c5.937 0 10.75-4.813 10.75-10.75S18.27 1.25 12.334 1.25Z" opacity=".4"/>
  <path fill="#161C24" fill-rule="evenodd" d="m15.655 7.325-2.92.973c-1.51.503-2.265.755-2.807 1.297-.541.541-.793 1.296-1.297 2.806l-.973 2.92c-.295.886-.443 1.33-.21 1.564.235.233.678.086 1.564-.21l2.92-.973c1.51-.503 2.265-.755 2.807-1.297.541-.541.793-1.296 1.296-2.806l.974-2.92c.295-.887.443-1.33.21-1.564-.235-.233-.678-.086-1.564.21Zm-2.614 5.377a.997.997 0 1 0-1.41-1.41l-.005.006a.997.997 0 1 0 1.41 1.41l.005-.006Z" clip-rule="evenodd"/>
</svg>
