<svg xmlns="http://www.w3.org/2000/svg" width="25" height="24" fill="none" viewBox="0 0 25 24">
  <path fill="#161C24" fill-rule="evenodd" d="M10.33 9a1 1 0 0 1 1-1h.014a1 1 0 1 1 0 2h-.014a1 1 0 0 1-1-1Zm.003 8a1 1 0 0 1 1-1h.015a1 1 0 1 1 0 2h-.015a1 1 0 0 1-1-1Zm-4-4a1 1 0 0 1 1-1h8a1 1 0 0 1 0 2h-8a1 1 0 0 1-1-1Z" clip-rule="evenodd"/>
  <path fill="#161C24" fill-rule="evenodd" d="M21.804 2.53c-.504-.505-1.262-.786-2.011-.958-.773-.177-1.659-.265-2.529-.3-1.742-.073-3.523.056-4.433.14a2.701 2.701 0 0 0-1.514.647 93.093 93.093 0 0 0-8.768 8.585c-1.256 1.403-1.27 3.498-.138 4.959a34.758 34.758 0 0 0 6.32 6.32c1.46 1.131 3.556 1.118 4.959-.138a93.094 93.094 0 0 0 8.584-8.768c.363-.422.595-.947.648-1.515.083-.91.212-2.69.14-4.433-.036-.87-.123-1.755-.3-2.528-.173-.75-.454-1.507-.958-2.012ZM17.834 5a1.5 1.5 0 1 1 0 3 1.5 1.5 0 0 1 0-3Z" clip-rule="evenodd" opacity=".4"/>
</svg>
