<svg xmlns="http://www.w3.org/2000/svg" width="25" height="24" fill="none" viewBox="0 0 25 24">
  <path fill="#161C24" d="M1.583 12c0-5.937 4.813-10.75 10.75-10.75 5.938 0 10.75 4.813 10.75 10.75s-4.812 10.75-10.75 10.75c-5.937 0-10.75-4.813-10.75-10.75Z" opacity=".4"/>
  <path fill="#161C24" fill-rule="evenodd" d="M12.334 6.25a.75.75 0 0 1 .75.75v.424a3.87 3.87 0 0 1 1.638.673c.638.468 1.112 1.178 1.112 2.03a.75.75 0 0 1-1.5 0c0-.26-.143-.559-.5-.82-.355-.261-.884-.446-1.5-.446-.617 0-1.146.185-1.502.446-.356.261-.498.56-.498.82 0 .364.105.534.292.66.25.167.755.32 1.708.32 1.041 0 1.972.143 2.657.588.755.489 1.093 1.256 1.093 2.178 0 1.004-.493 1.743-1.245 2.192-.508.303-1.119.467-1.755.536V17a.75.75 0 0 1-1.5 0v-.415a4.347 4.347 0 0 1-1.79-.664c-.678-.456-1.21-1.166-1.21-2.048a.75.75 0 0 1 1.5 0c0 .23.139.529.547.803.403.271 1.003.463 1.703.463.76 0 1.357-.135 1.736-.362.335-.2.514-.469.514-.904 0-.519-.162-.76-.408-.92-.315-.203-.884-.347-1.842-.347-1.048 0-1.919-.155-2.543-.573-.688-.461-.957-1.155-.957-1.905 0-.853.473-1.563 1.111-2.03a3.87 3.87 0 0 1 1.639-.674V7a.75.75 0 0 1 .75-.75Z" clip-rule="evenodd"/>
</svg>
