<svg xmlns="http://www.w3.org/2000/svg" width="25" height="24" fill="none" viewBox="0 0 25 24">
  <path fill="#161C24" fill-rule="evenodd" d="M22.798 2.918a.977.977 0 0 0-1.382-1.382L20.242 2.71a.977.977 0 1 0 1.382 1.382l1.173-1.173Zm-7.515 7.603c-2.053.91-3.518 2.375-4.428 4.429a3.613 3.613 0 0 1-1.35 1.59l-1.487-1.49c.47-.156.811-.464 1.01-.912 1.111-2.507 2.938-4.334 5.446-5.446.448-.198.755-.54.912-1.01l1.488 1.49a3.613 3.613 0 0 1-1.59 1.348Zm-10.858 9.39c.381.382.381 1 0 1.382l-1.173 1.173a.977.977 0 1 1-1.382-1.382l1.172-1.173a.977.977 0 0 1 1.383 0Z" clip-rule="evenodd" opacity=".4"/>
  <path fill="#161C24" fill-rule="evenodd" d="M8.531 21.445c.348.145.73.178 1.093.1.33-.07.564-.263.704-.403l1.085-1.085c.14-.14.332-.373.403-.704a1.845 1.845 0 0 0-.1-1.093 1.881 1.881 0 0 0-.336-.517l-4.79-4.791s-.31-.25-.518-.336a1.845 1.845 0 0 0-1.093-.1 1.43 1.43 0 0 0-.703.403L3.19 14.005c-.14.14-.332.372-.403.703-.078.364-.044.745.1 1.093.086.207.21.373.336.517l4.791 4.791c.144.126.31.25.517.336Zm-1.654.878c-.305.233-.668.427-1.125.427-.457 0-.82-.194-1.126-.427-.28-.214-.584-.518-.92-.855l-.84-.84c-.337-.337-.641-.64-.855-.92-.233-.306-.427-.67-.427-1.126 0-.457.194-.82.427-1.126a3.22 3.22 0 0 1 .032-.041c.17-.216.256-.324.39-.332.135-.008.24.097.45.307l4.06 4.06c.21.21.316.316.308.45-.008.135-.116.22-.332.39l-.042.033ZM17.788 1.677c.306-.233.67-.427 1.126-.427.457 0 .82.194 1.126.427.28.214.584.518.92.855l.84.84c.337.337.641.64.855.92.233.306.427.67.427 1.126 0 .457-.194.82-.427 1.126l-.033.041c-.17.216-.255.324-.39.332-.134.008-.239-.097-.449-.307l-4.06-4.06c-.21-.21-.316-.316-.308-.45.008-.135.116-.22.332-.39l.041-.032Zm-1.651.878a1.845 1.845 0 0 0-1.093-.1c-.33.07-.564.263-.704.403l-1.085 1.085c-.14.14-.332.373-.403.704a1.84 1.84 0 0 0 .1 1.093c.085.207.21.373.335.517l4.792 4.791s.31.25.517.336c.348.144.73.178 1.093.1a1.43 1.43 0 0 0 .703-.403l1.086-1.086c.14-.14.332-.372.403-.703a1.845 1.845 0 0 0-.1-1.093 1.879 1.879 0 0 0-.336-.517L16.654 2.89a1.88 1.88 0 0 0-.517-.335Z" clip-rule="evenodd"/>
</svg>
