<svg xmlns="http://www.w3.org/2000/svg" width="25" height="24" fill="none" viewBox="0 0 25 24">
  <path fill="#161C24" d="M19.973 4.927c-1.886-1.302-4.587-2.677-7.64-2.677-3.052 0-5.753 1.375-7.639 2.677A20.49 20.49 0 0 0 2.44 6.735c-.26.24-.685.677-.84.836l-.011.012a1 1 0 0 0 1.489 1.335c.123-.127.482-.494.72-.716a18.494 18.494 0 0 1 2.033-1.63C7.564 5.376 9.863 4.25 12.334 4.25c2.47 0 4.769 1.125 6.502 2.323a18.497 18.497 0 0 1 2.032 1.63c.24.221.599.59.721.715a1 1 0 0 0 1.49-1.335l-.012-.012c-.155-.16-.58-.595-.84-.836a20.497 20.497 0 0 0-2.254-1.808Z"/>
  <path fill="#161C24" d="M5.854 8.713c1.705-1.332 3.909-2.463 6.48-2.463 2.57 0 4.774 1.131 6.48 2.463 1.706 1.333 3.021 2.981 3.727 3.97.253.353.543.755.543 1.317 0 .562-.29.964-.543 1.316-.706.99-2.02 2.638-3.728 3.971-1.705 1.332-3.909 2.463-6.48 2.463-2.57 0-4.774-1.131-6.48-2.463-1.706-1.333-3.021-2.981-3.727-3.97-.253-.353-.542-.755-.542-1.317 0-.562.289-.964.542-1.316.706-.99 2.02-2.638 3.728-3.971Z" opacity=".4"/>
  <path fill="#161C24" fill-rule="evenodd" d="M12.334 16a2 2 0 1 1 0-4 2 2 0 0 1 0 4Zm-4-2a4 4 0 1 0 8 0 4 4 0 0 0-8 0Z" clip-rule="evenodd"/>
</svg>
