<svg xmlns="http://www.w3.org/2000/svg" width="25" height="24" fill="none" viewBox="0 0 25 24">
  <path fill="#161C24" d="M4.478 3.355c2.981-1.828 5.656-1.1 7.271.114.266.2.448.336.584.428.136-.092.318-.229.584-.428 1.616-1.214 4.29-1.942 7.27-.114 2.062 1.265 3.222 3.906 2.815 6.94-.409 3.05-2.383 6.498-6.562 9.592-1.452 1.074-2.517 1.863-4.107 1.863-1.59 0-2.655-.789-4.107-1.863-4.18-3.094-6.153-6.543-6.562-9.592-.407-3.034.753-5.675 2.814-6.94Z" opacity=".4"/>
  <path fill="#161C24" d="M4.478 3.355c2.981-1.828 5.656-1.1 7.271.114.266.2.448.336.584.428V21.75c-1.59 0-2.655-.789-4.107-1.863-4.18-3.094-6.153-6.543-6.562-9.592-.407-3.034.753-5.675 2.814-6.94Z"/>
</svg>
