<svg xmlns="http://www.w3.org/2000/svg" width="25" height="24" fill="none" viewBox="0 0 25 24">
  <path fill="#161C24" d="M1.583 12c0 5.937 4.813 10.75 10.75 10.75 5.938 0 10.75-4.813 10.75-10.75S18.271 1.25 12.334 1.25 1.584 6.063 1.584 12Z" opacity=".4"/>
  <path fill="#161C24" d="M12.4 7.935c.912-.686 2.416-1.083 4.056-.077 1.182.725 1.802 2.206 1.583 3.84-.22 1.648-1.28 3.455-3.43 5.047-.698.518-1.355 1.005-2.276 1.005-.92 0-1.578-.487-2.276-1.005-2.15-1.592-3.209-3.399-3.43-5.047-.22-1.634.401-3.115 1.583-3.84 1.64-1.006 3.144-.609 4.056.077l.067.05.067-.05Z"/>
</svg>
