<svg xmlns="http://www.w3.org/2000/svg" width="25" height="24" fill="none" viewBox="0 0 25 24">
  <path fill="#161C24" d="M13.47 22.583c-.475.168-.98.168-1.55.167-1.525 0-2.932 0-3.911-.115-1.013-.119-1.88-.372-2.616-.968a4.87 4.87 0 0 1-.733-.737c-.592-.738-.844-1.61-.962-2.629-.115-.983-.115-2.22-.115-3.754V9.974c0-1.782 0-3.218.152-4.348.156-1.173.492-2.16 1.272-2.945.78-.784 1.763-1.121 2.93-1.28 1.124-.151 2.695-.151 4.467-.151 1.773 0 3.202 0 4.326.152 1.167.158 2.15.495 2.93 1.28.78.783 1.115 1.771 1.272 2.944.151 1.13.151 2.566.151 4.348v3.474c.001.663.002 1.252-.222 1.796s-.639.96-1.106 1.428l-4.783 4.807c-.402.406-.759.765-1.213.984a2.89 2.89 0 0 1-.288.12Z" opacity=".4"/>
  <path fill="#161C24" d="M13.471 22.583c.098-.035.194-.075.288-.12.455-.219.81-.578 1.213-.983l4.783-4.808c.468-.469.882-.884 1.106-1.428a2.8 2.8 0 0 0 .185-.748h-1.98c-1.368 0-2.017 0-2.884.117-.9.122-1.658.38-2.26.982-.602.602-.86 1.36-.982 2.26-.116.865-.116 1.521-.116 2.883v1.983c.223-.023.438-.064.647-.138Z"/>
  <path fill="#161C24" fill-rule="evenodd" d="M17.084 7a.75.75 0 0 1-.75.75h-8a.75.75 0 1 1 0-1.5h8a.75.75 0 0 1 .75.75Zm-4 4a.75.75 0 0 1-.75.75h-4a.75.75 0 0 1 0-1.5h4a.75.75 0 0 1 .75.75Z" clip-rule="evenodd"/>
</svg>
