<svg xmlns="http://www.w3.org/2000/svg" width="25" height="24" fill="none" viewBox="0 0 25 24">
  <path fill="#161C24" d="M11.92 1.25c.57 0 1.075-.001 1.55.167.099.035.195.075.288.12.455.219.812.578 1.214.984l4.783 4.807c.467.469.882.884 1.106 1.428.224.544.223 1.132.222 1.796v3.474c0 1.782 0 3.218-.151 4.348-.157 1.173-.492 2.16-1.273 2.945-.78.784-1.762 1.122-2.93 1.28-1.123.151-2.552.151-4.325.151-1.773 0-3.344 0-4.468-.152-1.166-.157-2.149-.495-2.929-1.28-.78-.783-1.116-1.771-1.273-2.944-.15-1.13-.15-2.566-.15-4.348V9.453c0-1.534 0-2.77.113-3.754.119-1.018.37-1.89.963-2.63.218-.27.463-.518.733-.736.735-.596 1.603-.85 2.616-.968.978-.115 2.386-.115 3.912-.115Z" opacity=".4"/>
  <path fill="#161C24" d="M13.47 1.417c.098.035.194.075.288.12.455.219.811.578 1.214.983l4.783 4.808c.467.468.882.884 1.106 1.428a2.8 2.8 0 0 1 .184.748h-1.98c-1.368 0-2.017-.001-2.884-.118-.9-.12-1.658-.38-2.26-.981-.602-.602-.86-1.36-.981-2.26-.117-.865-.117-1.513-.117-2.875V1.279c.224.023.438.064.647.138Z"/>
  <path fill="#161C24" fill-rule="evenodd" d="M17.083 17a.75.75 0 0 0-.75-.75h-8a.75.75 0 0 0 0 1.5h8a.75.75 0 0 0 .75-.75Zm-4-4a.75.75 0 0 0-.75-.75h-4a.75.75 0 0 0 0 1.5h4a.75.75 0 0 0 .75-.75Z" clip-rule="evenodd"/>
</svg>
