<svg xmlns="http://www.w3.org/2000/svg" width="25" height="24" fill="none" viewBox="0 0 25 24">
  <path fill="#161C24" fill-rule="evenodd" d="M2.333 7a1 1 0 0 1 1-1h3a1 1 0 0 1 0 2h-3a1 1 0 0 1-1-1Z" clip-rule="evenodd"/>
  <path fill="#161C24" fill-rule="evenodd" d="M2.333 17a1 1 0 0 1 1-1h6a1 1 0 1 1 0 2h-6a1 1 0 0 1-1-1Z" clip-rule="evenodd" opacity=".4"/>
  <path fill="#161C24" fill-rule="evenodd" d="M17.334 17a1 1 0 0 1 1-1h3a1 1 0 1 1 0 2h-3a1 1 0 0 1-1-1Z" clip-rule="evenodd"/>
  <path fill="#161C24" fill-rule="evenodd" d="M14.334 7a1 1 0 0 1 1-1h6a1 1 0 1 1 0 2h-6a1 1 0 0 1-1-1Z" clip-rule="evenodd" opacity=".4"/>
  <path fill="#161C24" fill-rule="evenodd" d="M9.308 3.25h.05c.445 0 .816 0 1.12.02.318.022.617.069.908.19a2.75 2.75 0 0 1 1.488 1.488c.12.29.167.59.189.907.02.304.02.675.02 1.12v.05c0 .445 0 .816-.02 1.12a2.822 2.822 0 0 1-.189.907 2.75 2.75 0 0 1-1.488 1.489c-.29.12-.59.167-.907.188-.305.021-.676.021-1.12.021h-.05c-.445 0-.816 0-1.12-.02a2.822 2.822 0 0 1-.908-.19 2.75 2.75 0 0 1-1.488-1.488 2.84 2.84 0 0 1-.189-.907c-.02-.304-.02-.675-.02-1.12v-.05c0-.445 0-.816.02-1.12a2.84 2.84 0 0 1 .189-.907A2.75 2.75 0 0 1 7.28 3.459c.29-.12.59-.167.907-.188.305-.021.676-.021 1.12-.021Zm6 10h.05c.445 0 .816 0 1.12.02.318.022.617.069.908.19a2.75 2.75 0 0 1 1.488 1.488c.12.29.167.59.189.907.02.304.02.675.02 1.12v.05c0 .445 0 .816-.02 1.12a2.822 2.822 0 0 1-.189.907 2.75 2.75 0 0 1-1.488 1.489c-.29.12-.59.167-.907.188-.305.021-.676.021-1.12.021h-.05c-.445 0-.816 0-1.12-.02a2.822 2.822 0 0 1-.908-.19 2.75 2.75 0 0 1-1.488-1.488 2.84 2.84 0 0 1-.189-.907c-.02-.304-.02-.675-.02-1.12v-.05c0-.445 0-.816.02-1.12.022-.318.069-.617.189-.907a2.75 2.75 0 0 1 1.488-1.489c.29-.12.59-.167.907-.188.305-.021.676-.021 1.12-.021Z" clip-rule="evenodd"/>
</svg>
