<svg xmlns="http://www.w3.org/2000/svg" width="25" height="24" fill="none" viewBox="0 0 25 24">
  <path fill="#161C24" fill-rule="evenodd" d="M7.333 22a1 1 0 0 1-1-1v-3a1 1 0 1 1 2 0v3a1 1 0 0 1-1 1Z" clip-rule="evenodd"/>
  <path fill="#161C24" fill-rule="evenodd" d="M17.334 22a1 1 0 0 1-1-1v-6a1 1 0 1 1 2 0v6a1 1 0 0 1-1 1Z" clip-rule="evenodd" opacity=".4"/>
  <path fill="#161C24" fill-rule="evenodd" d="M17.334 7a1 1 0 0 1-1-1V3a1 1 0 1 1 2 0v3a1 1 0 0 1-1 1Z" clip-rule="evenodd"/>
  <path fill="#161C24" fill-rule="evenodd" d="M7.333 10a1 1 0 0 1-1-1V3a1 1 0 0 1 2 0v6a1 1 0 0 1-1 1Z" clip-rule="evenodd" opacity=".4"/>
  <path fill="#161C24" fill-rule="evenodd" d="M7.308 11.25h.05c.445 0 .816 0 1.12.02.318.022.617.069.908.19a2.75 2.75 0 0 1 1.488 1.488c.12.29.167.59.189.907.02.304.02.675.02 1.12v.05c0 .445 0 .816-.02 1.12a2.822 2.822 0 0 1-.189.907 2.75 2.75 0 0 1-1.488 1.489c-.29.12-.59.167-.907.188-.305.021-.676.021-1.12.021h-.05c-.445 0-.816 0-1.12-.02a2.822 2.822 0 0 1-.908-.19 2.75 2.75 0 0 1-1.488-1.488 2.84 2.84 0 0 1-.189-.907c-.02-.304-.02-.675-.02-1.12v-.05c0-.445 0-.816.02-1.12.022-.318.069-.617.189-.907a2.75 2.75 0 0 1 1.488-1.489c.29-.12.59-.167.907-.188.305-.021.676-.021 1.12-.021Zm10-6h.05c.445 0 .816 0 1.12.02.318.022.617.07.908.19a2.75 2.75 0 0 1 1.488 1.488c.12.29.167.59.189.907.02.304.02.675.02 1.12v.05c0 .445 0 .816-.02 1.12a2.822 2.822 0 0 1-.189.907 2.75 2.75 0 0 1-1.488 1.489c-.29.12-.59.167-.907.188-.305.021-.676.021-1.12.021h-.05c-.445 0-.816 0-1.12-.02a2.822 2.822 0 0 1-.908-.19 2.75 2.75 0 0 1-1.488-1.488 2.84 2.84 0 0 1-.189-.907c-.02-.304-.02-.675-.02-1.12v-.05c0-.445 0-.816.02-1.12a2.84 2.84 0 0 1 .189-.907 2.75 2.75 0 0 1 1.488-1.489c.29-.12.59-.167.907-.188.305-.021.676-.021 1.12-.021Z" clip-rule="evenodd"/>
</svg>
