<svg xmlns="http://www.w3.org/2000/svg" width="25" height="24" fill="none" viewBox="0 0 25 24">
  <path fill="#161C24" fill-rule="evenodd" d="M6.516 2.25H18.15c.77 0 1.425 0 1.941.07.546.075 1.069.243 1.469.683.403.443.514.978.522 1.525.008.51-.074 1.145-.169 1.884l-.007.054a2.928 2.928 0 0 1-.19.768 2.632 2.632 0 0 1-.437.694c-.98 1.164-2.801 3.266-5.365 5.18a.304.304 0 0 0-.104.214c-.248 2.743-.46 4.168-.626 5.05-.171.915-.878 1.552-1.48 1.987a14.027 14.027 0 0 1-1.025.662c-.272.166-.5.304-.687.436a1.508 1.508 0 0 1-1.617.108c-.474-.26-.788-.75-.855-1.31-.137-1.16-.395-3.506-.676-6.939a.302.302 0 0 0-.103-.216c-2.559-1.912-4.377-4.01-5.355-5.172a2.633 2.633 0 0 1-.438-.694 2.93 2.93 0 0 1-.196-.822c-.095-.74-.177-1.373-.169-1.884.008-.547.119-1.082.522-1.525.4-.44.923-.608 1.469-.683.516-.07 1.17-.07 1.94-.07Z" clip-rule="evenodd" opacity=".4"/>
  <path fill="#161C24" d="M6.516 2.25c-.77 0-1.425 0-1.941.07-.546.075-1.069.243-1.469.683-.403.444-.514.98-.522 1.526-.008.511.074 1.146.169 1.886.036.28.087.56.196.822.107.257.255.477.438.695 1.74 2.066 3.49 3.994 5.623 5.54 1 .727 2.026 1.528 3.324 1.528 1.297 0 2.322-.802 3.323-1.528 2.133-1.547 3.884-3.474 5.623-5.54a2.67 2.67 0 0 0 .438-.695 2.93 2.93 0 0 0 .189-.769c.082-.64.186-1.29.176-1.939-.008-.547-.119-1.082-.522-1.526-.4-.44-.923-.608-1.469-.683-.516-.07-1.17-.07-1.94-.07H6.515Z"/>
</svg>
