<svg xmlns="http://www.w3.org/2000/svg" width="25" height="24" fill="none" viewBox="0 0 25 24">
  <path fill="#161C24" fill-rule="evenodd" d="M12.334 7a5 5 0 0 0-5 5c0 3.037.888 5.01 2.78 7.375a1 1 0 0 1-1.562 1.25C6.445 17.99 5.334 15.59 5.334 12a7 7 0 1 1 14 0 1 1 0 1 1-2 0 5 5 0 0 0-5-5Z" clip-rule="evenodd" opacity=".4"/>
  <path fill="#161C24" fill-rule="evenodd" d="M12.334 4a8 8 0 0 0-7.802 9.779 1 1 0 1 1-1.95.442A10.03 10.03 0 0 1 2.333 12c0-5.523 4.477-10 10-10 5.522 0 10 4.477 10 10a4 4 0 0 1-8 0 2 2 0 1 0-4 0c0 .719.106 1.928.83 3.357.722 1.428 2.09 3.134 4.706 4.8a1 1 0 0 1-1.073 1.687c-2.884-1.835-4.516-3.8-5.418-5.584-.902-1.782-1.045-3.322-1.045-4.26a4 4 0 1 1 8 0 2 2 0 1 0 4 0 8 8 0 0 0-8-8Z" clip-rule="evenodd"/>
  <path fill="#161C24" d="M13.329 11.9a1 1 0 1 0-1.99.2c.363 3.636 2.82 5.835 4.442 6.91.453.298.88.535 1.171.682.142.071.395.184.495.229l.015.007a1 1 0 0 0 .743-1.857c-.24-.12-.931-.472-1.32-.73-1.409-.933-3.28-2.676-3.556-5.44Z" opacity=".4"/>
</svg>
