<svg xmlns="http://www.w3.org/2000/svg" width="25" height="24" fill="none" viewBox="0 0 25 24">
  <path fill="#161C24" d="M12.432 3.24c-3.602-1.834-6.513-.771-8.004.387-.217.168-.487.378-.666.743-.18.369-.18.728-.178 1.051v15.33a1 1 0 1 0 2 0v-5.793c0-.158 0-.238.04-.307.04-.07.102-.106.228-.18 1.22-.713 3.292-1.222 5.899.106 3.715 1.893 6.928 1.127 8.512.261.157-.084.467-.25.646-.552.18-.304.177-.69.175-.885V5.834c0-.38 0-.725-.03-.992-.025-.24-.094-.676-.464-.958a1.103 1.103 0 0 0-.61-.214c-.17-.01-.341.01-.493.038a13.66 13.66 0 0 0-1.133.285c-1.418.393-3.52.471-5.922-.752Z" opacity=".4"/>
  <path fill="#161C24" d="M4.428 3.625c-.217.168-.487.378-.666.743-.18.369-.18.728-.178 1.051v15.33a1 1 0 0 0 2 0v-5.793c0-.061 0-.111.002-.153l.037-.664v.406V2.899a6.4 6.4 0 0 0-1.195.726Z"/>
</svg>
