<svg xmlns="http://www.w3.org/2000/svg" width="25" height="24" fill="none" viewBox="0 0 25 24">
  <path fill="#161C24" d="M13.941 1.147c.707.301 1.19 1.016 1.19 1.87v6.768c0 .11.09.2.2.2h3.102c.886 0 1.496.598 1.747 1.225.25.627.217 1.432-.284 2.075l-6.998 8.983c-.561.72-1.444.895-2.173.584-.706-.3-1.189-1.015-1.189-1.87v-6.767a.2.2 0 0 0-.2-.2H6.233c-.886 0-1.497-.598-1.748-1.226a2.105 2.105 0 0 1 .284-2.074l6.998-8.983c.562-.72 1.444-.895 2.173-.585Z" opacity=".4"/>
  <path fill="#161C24" d="M15.33 9.985h3.102c.886 0 1.496.598 1.747 1.226a2.102 2.102 0 0 1-.283 2.074l-6.999 8.983c-.56.72-1.444.895-2.172.585-.707-.302-1.19-1.016-1.19-1.87v-6.768l5.595-4.43c0 .11.09.2.2.2Z"/>
</svg>
