<svg xmlns="http://www.w3.org/2000/svg" width="25" height="24" fill="none" viewBox="0 0 25 24">
  <path fill="#161C24" d="M18.197 10.25c1.007 0 1.833 0 2.478.08.667.082 1.433.435 1.903.905.437.523.532 1.138.5 1.782-.03.607-.18 1.359-.358 2.252l-.021.106c-.262 1.312-.472 2.366-.75 3.193-.289.86-.93 1.743-1.586 2.28-.686.486-1.477.7-2.43.802-.93.1-2.096.1-3.568.1h-4.063c-1.472 0-2.638 0-3.568-.1-.953-.102-1.744-.316-2.43-.802-.656-.537-1.297-1.42-1.586-2.28-.278-.827-.488-1.881-.75-3.193l-.01-.05-.01-.056c-.179-.893-.329-1.645-.359-2.252-.032-.644.063-1.26.5-1.782.47-.47 1.236-.823 1.903-.905.645-.08 1.47-.08 2.478-.08h11.727Z" opacity=".4"/>
  <path fill="#161C24" d="M21.084 8.425v1.985a3.025 3.025 0 0 0-.409-.08c-.645-.08-1.47-.08-2.478-.08H6.47c-1.007 0-1.833 0-2.478.08a2.95 2.95 0 0 0-.409.08V5.575c0-1.836 1.524-3.325 3.403-3.325h2.362c.976 0 1.886.476 2.427 1.27l1.079 1.58h4.827c1.879 0 3.402 1.489 3.402 3.325Z"/>
</svg>
