<svg xmlns="http://www.w3.org/2000/svg" width="25" height="24" fill="none" viewBox="0 0 25 24">
  <path fill="#161C24" d="M7.416 2.25c1.03 0 1.741 0 2.38.239 1.396.523 2.008 1.762 2.48 2.717.141.283.398.797.47.91a.262.262 0 0 0 .194.12c.133.013.314.014.63.014h3.554c1.019 0 1.84 0 2.5.067.68.07 1.27.216 1.793.565.41.274.76.625 1.034 1.035.35.522.496 1.112.566 1.793.067.659.067 1.563.067 2.582 0 1.72 0 3.068-.11 4.142-.111 1.094-.342 1.986-.86 2.76a5.751 5.751 0 0 1-1.586 1.587c-.774.517-1.666.749-2.76.86-1.074.11-2.423.11-4.142.11h-1.35c-2.308 0-4.117 0-5.529-.19-1.445-.195-2.585-.6-3.48-1.495-.894-.895-1.3-2.035-1.494-3.48-.19-1.411-.19-3.22-.19-5.528V7.91c0-.646 0-1.2.02-1.675.008-.172.018-.333.03-.485.053-.59.163-1.106.426-1.577a3.75 3.75 0 0 1 1.447-1.448c.471-.263.987-.372 1.577-.424.573-.05 1.454-.051 2.333-.051Z" opacity=".4"/>
</svg>
