<svg xmlns="http://www.w3.org/2000/svg" width="25" height="24" fill="none" viewBox="0 0 25 24">
  <path fill="#161C24" d="M20.654 10.368c.829.122 1.569.393 2.042 1.09.473.696.452 1.483.257 2.296-.188.786-.579 1.76-1.058 2.953-.354.88-.98 2.437-1.278 2.995-.312.582-.667 1.054-1.187 1.404-.52.35-1.09.503-1.748.575-.63.07-1.406.07-2.358.069H7.159c-1.291 0-2.344 0-3.146-.118-.829-.122-1.569-.393-2.042-1.089-.474-.697-.452-1.484-.258-2.297.188-.785.917-2.6 1.397-3.793.353-.88.641-1.597.94-2.155.312-.582.667-1.054 1.187-1.404.52-.35 1.09-.503 1.748-.575.63-.069 1.406-.069 2.358-.069h8.165c1.29 0 2.344 0 3.146.118Z" opacity=".4"/>
  <path fill="#161C24" d="M7.476 2.25c.884 0 1.722.4 2.277 1.087l1.479 1.83h5.016c.649 0 1.194 0 1.64.036.468.038.911.12 1.332.335a3.408 3.408 0 0 1 1.492 1.487c.214.42.297.862.335 1.327.037.445.037.99.037 1.637v.459a5.446 5.446 0 0 0-.43-.08c-.802-.118-1.855-.118-3.146-.118H9.343c-.952 0-1.728 0-2.358.069-.658.072-1.229.225-1.748.575-.52.35-.875.822-1.187 1.404-.299.558-.587 1.275-.94 2.155-.48 1.193-1.209 3.008-1.397 3.793a4.754 4.754 0 0 0-.117.69.975.975 0 0 1-.013-.158V7.61c0-.672 0-1.227.033-1.682.033-.47.104-.906.284-1.323a3.894 3.894 0 0 1 2.045-2.04c.418-.179.852-.25 1.325-.283.454-.032 1.011-.032 1.689-.032h.517Z"/>
</svg>
