<svg xmlns="http://www.w3.org/2000/svg" width="25" height="24" fill="none" viewBox="0 0 25 24">
  <path fill="#161C24" d="M18.86 6.25c.445 0 .818 0 1.123.022.316.023.623.073.915.208.331.153.627.382.843.681.203.282.28.587.313.879.03.264.03.581.03.924v.072c0 .343 0 .66-.03.924-.034.292-.11.597-.313.879a2.138 2.138 0 0 1-.843.681c-.292.135-.6.185-.915.208-.305.022-.678.022-1.123.022H5.807c-.445 0-.818 0-1.123-.022-.316-.023-.623-.073-.915-.208a2.139 2.139 0 0 1-.843-.681c-.203-.282-.28-.587-.313-.879-.03-.264-.03-.581-.03-.924v-.072c0-.343 0-.66.03-.924.033-.292.11-.597.313-.879.216-.299.512-.528.843-.681.292-.135.6-.185.915-.208.305-.022.678-.022 1.123-.022H18.86Z"/>
  <path fill="#161C24" d="M4.12 12.918c-.263-.044-.395-.066-.466-.006-.07.06-.07.182-.07.428v1.714c0 1.603 0 2.882.134 3.885.14 1.036.435 1.89 1.11 2.565s1.529.97 2.565 1.11c1.003.135 2.282.135 3.885.135.03 0 .056-.025.056-.056v-9.294c0-.189 0-.283-.06-.342-.058-.058-.152-.058-.34-.058H5.773c-.417 0-.829 0-1.18-.026a4.99 4.99 0 0 1-.473-.055Zm9.613.081c-.188 0-.282 0-.34.058-.06.059-.06.153-.06.342v9.294c0 .03.025.056.056.056 1.603 0 2.882 0 3.885-.135 1.036-.14 1.89-.435 2.565-1.11s.97-1.529 1.11-2.565c.134-1.003.134-2.282.134-3.885V13.34c0-.246 0-.369-.07-.428-.071-.06-.203-.038-.466.006a4.992 4.992 0 0 1-.474.055c-.35.026-.762.026-1.179.026h-5.16Z" opacity=".5"/>
  <path fill="#161C24" fill-rule="evenodd" d="M8.12 1.25a2.786 2.786 0 0 0-2.786 2.786A4.214 4.214 0 0 0 9.547 8.25h5.571a4.214 4.214 0 0 0 4.215-4.214 2.786 2.786 0 0 0-2.786-2.786h-.357a4.85 4.85 0 0 0-3.857 1.905A4.85 4.85 0 0 0 8.476 1.25H8.12Zm3.214 4.857A2.857 2.857 0 0 0 8.476 3.25H8.12a.786.786 0 0 0-.785.786c0 1.223.99 2.214 2.214 2.214h1.786v-.143Zm2 .143h1.785a2.214 2.214 0 0 0 2.215-2.214.786.786 0 0 0-.786-.786h-.357a2.857 2.857 0 0 0-2.857 2.857v.143Z" clip-rule="evenodd"/>
</svg>
