<svg xmlns="http://www.w3.org/2000/svg" width="25" height="24" fill="none" viewBox="0 0 25 24">
  <path fill="#161C24" d="M1.583 12c0-5.937 4.813-10.75 10.75-10.75 5.938 0 10.75 4.813 10.75 10.75s-4.812 10.75-10.75 10.75c-5.937 0-10.75-4.813-10.75-10.75Z" opacity=".4"/>
  <path fill="#161C24" d="M7.583 12c0 3.74 1.039 6.85 2.073 9.023l.216.454c.179.379.357.754.526 1.099.579.105 1.173.164 1.78.173-.266-.458-.58-1.125-.905-1.815l-.263-.556C10.045 18.35 9.083 15.46 9.083 12s.962-6.35 1.927-8.377c.09-.187.178-.375.266-.562.324-.688.637-1.353.902-1.81-.607.009-1.201.068-1.78.173-.168.343-.344.715-.523 1.091l-.219.463C8.622 5.15 7.583 8.26 7.583 12Zm6.685-10.577a10.8 10.8 0 0 0-1.779-.172c.264.457.577 1.122.901 1.81l.001.001.265.56C14.622 5.65 15.583 8.54 15.583 12c0 3.461-.961 6.35-1.927 8.378l-.263.556c-.325.69-.639 1.357-.904 1.815a10.78 10.78 0 0 0 1.78-.173c.169-.345.346-.72.526-1.098.071-.152.143-.304.216-.455 1.034-2.172 2.072-5.283 2.072-9.023 0-3.739-1.038-6.85-2.072-9.022l-.22-.462c-.178-.376-.354-.75-.523-1.093Z"/>
  <path fill="#161C24" d="M22.412 8.25c.18.484.326.985.436 1.5H1.82c.11-.515.256-1.016.436-1.5h20.156Zm.436 6c-.11.515-.256 1.016-.436 1.5H2.256a10.6 10.6 0 0 1-.436-1.5h21.028Z"/>
</svg>
