<svg xmlns="http://www.w3.org/2000/svg" width="25" height="24" fill="none" viewBox="0 0 25 24">
  <path fill="#161C24" d="M18.77 12.931c1.382-.993 2.777-.759 3.824-.192a.75.75 0 0 1 .386.763 10.76 10.76 0 0 1-8.325 8.997.75.75 0 0 1-.785-1.149c.662-.993.92-1.715.994-2.248a2.348 2.348 0 0 0-.172-1.277 7.97 7.97 0 0 0-.277-.582 5.86 5.86 0 0 1-.301-.67c-.191-.536-.241-1.145.117-1.831.261-.5.64-.79 1.092-.934.348-.11.83-.13 1.137-.143.675-.03 1.409-.086 2.31-.734ZM10.506 1.405a10.816 10.816 0 0 1 1.827-.155A10.73 10.73 0 0 1 20.7 5.248a.75.75 0 0 1-.496 1.216c-.767.091-1.632.413-2.238 1.197-.813 1.052-1.685 1.7-2.569 1.96-.9.265-1.751.107-2.43-.333-1.007-.65-1.137-1.561-1.222-2.157-.046-.311-.103-.603-.186-.758-.07-.129-.197-.283-.512-.436-.793-.385-1.242-1.088-1.398-1.846-.153-.745-.03-1.556.306-2.268a.75.75 0 0 1 .552-.418Zm-8.409 8.939a.75.75 0 0 1 .768.124c.68.579 1.564 1.05 2.557 1.05.666 0 1.24.031 1.723.121.483.09.927.25 1.287.545.75.615.86 1.577.86 2.568 0 1.018.002 1.447.057 1.813.052.35.154.651.42 1.416.155.442.369 1.07.357 1.745-.013.723-.28 1.46-.983 2.114a.75.75 0 0 1-.79.149c-3.965-1.582-6.77-5.457-6.77-9.99 0-.347.017-.691.05-1.031a.75.75 0 0 1 .464-.624Z" opacity=".4"/>
  <path fill="#161C24" fill-rule="evenodd" d="M12.334 20.795a8.795 8.795 0 1 1 0-17.59 8.795 8.795 0 0 1 0 17.59ZM1.584 12c0 5.937 4.812 10.75 10.75 10.75 5.936 0 10.75-4.813 10.75-10.75S18.27 1.25 12.334 1.25C6.396 1.25 1.584 6.063 1.584 12Z" clip-rule="evenodd"/>
</svg>
