<svg xmlns="http://www.w3.org/2000/svg" width="25" height="24" fill="none" viewBox="0 0 25 24">
  <path fill="#161C24" fill-rule="evenodd" d="M3.833 12.25a2.25 2.25 0 0 0-.085 4.498l.29 1.162a3.75 3.75 0 0 0 3.638 2.84h9.315a3.75 3.75 0 0 0 3.638-2.84l.29-1.162a2.25 2.25 0 0 0-.085-4.498h-1.895a2.75 2.75 0 0 0-1.525.462l-1.942 1.294a.25.25 0 0 1-.277 0l-1.942-1.294a2.75 2.75 0 0 0-1.525-.462H3.834Zm8.588 1.71 1.942 1.294-10.53-.004a.75.75 0 0 1 0-1.5h7.895c.247 0 .488.073.693.21Zm9.163.54a.75.75 0 0 1-.75.75h-2l-2.53.004 1.942-1.294a1.25 1.25 0 0 1 .693-.21h1.895a.75.75 0 0 1 .75.75Z" clip-rule="evenodd" opacity=".4"/>
  <path fill="#161C24" fill-rule="evenodd" d="M3.833 12.25a2.25 2.25 0 0 0-.085 4.498H20.92a2.25 2.25 0 0 0-.087-4.498H18.94a2.75 2.75 0 0 0-1.525.462l-1.942 1.294a.25.25 0 0 1-.277 0l-1.942-1.294a2.75 2.75 0 0 0-1.525-.462H3.834Zm17 3a.75.75 0 0 0 0-1.5H18.94a1.25 1.25 0 0 0-.693.21l-1.942 1.294 2.53-.004h2Zm-8.412-1.29 1.942 1.294-10.53-.004a.75.75 0 0 1 0-1.5h7.895c.247 0 .488.073.693.21Z" clip-rule="evenodd"/>
  <path fill="#161C24" d="M3.374 7.793C4.242 5.17 6.631 3.25 9.48 3.25h5.709c2.848 0 5.237 1.92 6.104 4.543.113.34.25.754.282 1.083.041.42-.052.814-.343 1.182-.31.394-.716.56-1.136.63-.364.062-.81.062-1.286.062H5.858c-.476 0-.922 0-1.286-.061-.42-.071-.826-.237-1.137-.63a1.58 1.58 0 0 1-.342-1.183c.032-.33.169-.744.281-1.083Z" opacity=".4"/>
  <path fill="#161C24" fill-rule="evenodd" d="M16.341 7a1 1 0 0 1-1 1h-.009a1 1 0 1 1 0-2h.01a1 1 0 0 1 1 1Zm-4.977-1.03a.75.75 0 0 1 0 1.06l-1 1a.75.75 0 1 1-1.06-1.06l1-1a.75.75 0 0 1 1.06 0Z" clip-rule="evenodd"/>
</svg>
