<svg xmlns="http://www.w3.org/2000/svg" width="25" height="24" fill="none" viewBox="0 0 25 24">
  <path fill="#161C24" d="M19.17 11.757c.397-.032.8.052 1.149.248.25.141.438.33.573.485.075.086.347.429.347.429.456.554.825 1.002 1.098 1.39.283.401.497.784.616 1.217a3.7 3.7 0 0 1 0 1.948c-.164.597-.492 1.11-.82 1.54-.198.26-.438.538-.65.784-.116.134-.368.434-.368.434-.241.294-.48.585-.796.763a2.02 2.02 0 0 1-1.15.248c-.357-.029-.698-.185-1.061-.35-.356-.16-1.177-.528-1.433-1.285-.093-.275-.092-.57-.092-.843v-4.53c0-.273-.001-.568.092-.843.256-.757 1.077-1.125 1.433-1.284.363-.166.704-.322 1.062-.351Zm-13.673 0c-.398-.032-.8.052-1.15.248a2.23 2.23 0 0 0-.573.485 23.13 23.13 0 0 0-.346.429c-.456.554-.825 1.002-1.099 1.39-.283.401-.497.784-.615 1.217a3.688 3.688 0 0 0 0 1.948c.163.597.491 1.11.82 1.54.197.26.438.538.65.784.116.134.368.434.368.434.24.294.479.585.796.763.349.196.751.28 1.149.248.357-.029.699-.185 1.062-.35.356-.16 1.177-.528 1.433-1.285.093-.275.092-.57.091-.843v-4.53c0-.273.002-.568-.091-.843-.256-.757-1.077-1.125-1.433-1.284-.363-.166-.705-.322-1.062-.351Z" opacity=".4"/>
  <path fill="#161C24" d="M6.333 10.75a6 6 0 0 1 12 0v1.256c.281-.124.554-.226.837-.25.397-.031.8.053 1.149.25l.014.008V10.75a8 8 0 0 0-16 0v1.264a2.019 2.019 0 0 1 1.163-.257c.283.022.556.125.837.249V10.75Z"/>
</svg>
