<svg xmlns="http://www.w3.org/2000/svg" width="25" height="24" fill="none" viewBox="0 0 25 24">
  <path fill="#161C24" d="M12.39 1.75c2.191 0 3.912 0 5.255.18 1.377.186 2.47.573 3.328 1.43.858.86 1.245 1.951 1.43 3.328.18 1.343.18 3.064.18 5.255v.114c0 2.19 0 3.912-.18 5.255-.185 1.377-.572 2.469-1.43 3.327-.859.858-1.95 1.245-3.328 1.43-1.343.181-3.064.181-5.254.181h-.115c-2.19 0-3.911 0-5.254-.18-1.377-.186-2.47-.573-3.328-1.43-.858-.86-1.245-1.951-1.43-3.328-.18-1.343-.18-3.064-.18-5.255v-.114c0-2.19 0-3.912.18-5.255.185-1.377.572-2.469 1.43-3.327.859-.858 1.95-1.245 3.328-1.43 1.343-.181 3.064-.181 5.254-.181h.115Z" opacity=".4"/>
  <path fill="#161C24" fill-rule="evenodd" d="M12.334 8.5a1 1 0 0 0-1 1 1 1 0 1 1-2 0 3 3 0 1 1 5.524 1.622 9.36 9.36 0 0 1-.577.778l-.103.127c-.154.191-.291.361-.419.536-.316.434-.425.714-.425.937a1 1 0 1 1-2 0c0-.882.432-1.597.808-2.114.16-.22.336-.437.49-.628l.09-.111a7.47 7.47 0 0 0 .454-.607 1 1 0 0 0-.842-1.54Zm-1 8c0-.552.445-1 .995-1h.009c.55 0 .996.448.996 1s-.446 1-.996 1h-.009a.998.998 0 0 1-.995-1Z" clip-rule="evenodd"/>
</svg>
