<svg xmlns="http://www.w3.org/2000/svg" width="25" height="24" fill="none" viewBox="0 0 25 24">
  <path fill="#161C24" d="M12.334 1.25c-.866 0-1.64.277-2.476.746-.81.454-1.738 1.125-2.905 1.97l-1.51 1.09c-.936.677-1.684 1.218-2.248 1.719-.583.517-1.019 1.032-1.295 1.68-.277.65-.344 1.315-.307 2.083.036.74.173 1.635.345 2.75l.315 2.05c.243 1.585.437 2.846.722 3.828.294 1.016.709 1.823 1.45 2.44.738.613 1.618.887 2.692 1.017 1.045.127 2.363.127 4.028.127h2.378c1.665 0 2.983 0 4.028-.127 1.074-.13 1.953-.404 2.691-1.018.742-.616 1.156-1.423 1.45-2.439.285-.982.48-2.244.723-3.827l.315-2.052c.171-1.114.308-2.008.344-2.749.037-.768-.03-1.433-.307-2.083-.276-.648-.712-1.163-1.294-1.68-.564-.5-1.313-1.042-2.249-1.719l-1.51-1.09c-1.166-.845-2.094-1.516-2.904-1.97-.836-.47-1.61-.746-2.476-.746Z" opacity=".4"/>
  <path fill="#161C24" fill-rule="evenodd" d="M8.545 16.386a1 1 0 0 1 1.403-.175c.62.483 1.454.789 2.386.789.932 0 1.765-.306 2.386-.79a1 1 0 0 1 1.228 1.58c-.978.76-2.245 1.21-3.614 1.21-1.369 0-2.636-.45-3.614-1.21a1 1 0 0 1-.175-1.404Z" clip-rule="evenodd"/>
</svg>
