<svg xmlns="http://www.w3.org/2000/svg" width="25" height="24" fill="none" viewBox="0 0 25 24">
  <path fill="#161C24" d="M4.583 21.75h15.5v-2.864c0-4.217-3.47-7.636-7.75-7.636-4.28 0-7.75 3.419-7.75 7.636v2.864Z" opacity=".4"/>
  <path fill="#161C24" fill-rule="evenodd" d="M6.521 2.25v2.864c0 3.163 2.602 5.727 5.813 5.727 3.21 0 5.812-2.564 5.812-5.727V2.25h1.938v2.864c0 4.217-3.47 7.636-7.75 7.636-4.28 0-7.75-3.419-7.75-7.636V2.25H6.52Z" clip-rule="evenodd"/>
  <path fill="#161C24" fill-rule="evenodd" d="M3.333 2a1 1 0 0 1 1-1h16a1 1 0 1 1 0 2h-16a1 1 0 0 1-1-1Zm0 20a1 1 0 0 1 1-1h16a1 1 0 1 1 0 2h-16a1 1 0 0 1-1-1Z" clip-rule="evenodd"/>
</svg>
