<svg xmlns="http://www.w3.org/2000/svg" width="25" height="24" fill="none" viewBox="0 0 25 24">
  <path fill="#161C24" d="M5.748 12.53a.75.75 0 0 1 .585-.28h12a.75.75 0 0 1 .733.913l-1.314 5.911c-.159.714-.292 1.314-.46 1.788-.177.502-.418.943-.842 1.283-.424.34-.907.48-1.436.544-.498.061-1.113.061-1.844.061h-1.673c-.73 0-1.346 0-1.844-.06-.53-.065-1.012-.205-1.436-.545-.424-.34-.665-.78-.843-1.283-.167-.474-.3-1.074-.459-1.788l-1.314-5.911a.75.75 0 0 1 .147-.632Z" opacity=".4"/>
  <path fill="#161C24" fill-rule="evenodd" d="M9.743 2.416c.885-.735 2.148-1.166 3.559-1.166a.959.959 0 0 1 .535 1.762c-.274.181-.369.342-.404.438a.514.514 0 0 0-.002.335c.072.241.233.432.583.642a6.1 6.1 0 0 0 .644.323l.21.094c.191.083.402.176.598.271.552.267 1.22.652 1.677 1.33.353.523.53 1.142.532 1.866 1.846.886 2.538 3.348 1.244 5.056a.968.968 0 0 1-.772.383H6.52a.968.968 0 0 1-.772-.383c-1.351-1.78-.518-4.297 1.38-5.117-.282-1.29.155-2.739 1.37-3.544.052-.906.545-1.71 1.244-2.29ZM9.167 6.75c-.444.782-.09 1.956.935 2.162a.962.962 0 1 1-.384 1.885 3.285 3.285 0 0 1-1.645-.84c-.783.224-1.237 1.115-.985 1.869h10.49c.264-.785-.22-1.737-1.1-1.899a1.457 1.457 0 0 0-1.435.554.97.97 0 0 1-1.353.19.958.958 0 0 1-.191-1.347 3.393 3.393 0 0 1 2.222-1.31 1.178 1.178 0 0 0-.183-.498c-.163-.242-.443-.443-.917-.672-.164-.08-.325-.15-.501-.228l-.256-.114a7.984 7.984 0 0 1-.85-.43c-.58-.349-1.175-.87-1.435-1.738a2.517 2.517 0 0 1-.108-.76 2.65 2.65 0 0 0-.49.318c-.484.4-.607.825-.533 1.171.063.29.298.712.967 1.154a.96.96 0 0 1 .27 1.334.97.97 0 0 1-1.34.268A4.819 4.819 0 0 1 9.166 6.75Z" clip-rule="evenodd"/>
</svg>
