<svg xmlns="http://www.w3.org/2000/svg" width="25" height="24" fill="none" viewBox="0 0 25 24">
  <path fill="#161C24" d="M16.18 15.25c.13 0 .258 0 .366.005.114.006.268.02.428.071.497.162.833.552.858.995a.983.983 0 0 1-.054.36c-.028.087-.069.19-.11.293-.144.362-.288.723-.47.962-.376.497-.968.854-1.652.996-.329.068-.686.068-1.142.068h-4.141c-.456 0-.813 0-1.142-.068-.684-.142-1.276-.5-1.653-.996-.181-.239-.293-.521-.438-.884-.04-.103-.113-.284-.14-.37a.984.984 0 0 1-.055-.36c.025-.444.36-.834.858-.996.16-.052.314-.065.428-.07.108-.006.236-.006.367-.006h7.691Z"/>
  <path fill="#161C24" fill-rule="evenodd" d="M12.334 3.188c-3.768 0-6.806 3.01-6.806 6.702a6.59 6.59 0 0 0 .97 3.45.967.967 0 0 1-.326 1.331.974.974 0 0 1-1.336-.323A8.524 8.524 0 0 1 3.583 9.89c0-4.781 3.927-8.64 8.75-8.64 4.824 0 8.75 3.859 8.75 8.64a8.52 8.52 0 0 1-1.252 4.457.974.974 0 0 1-1.336.324.967.967 0 0 1-.325-1.331 6.591 6.591 0 0 0 .97-3.45c0-3.692-3.038-6.703-6.806-6.703Zm0 6.78a.97.97 0 0 1 .972.97v4.843a.97.97 0 0 1-.972.969.97.97 0 0 1-.973-.969v-4.844a.97.97 0 0 1 .973-.968Z" clip-rule="evenodd" opacity=".4"/>
  <path fill="#161C24" d="M8.75 19.903c.12.6.213 1.067.433 1.454a2.75 2.75 0 0 0 1.53 1.255c.423.139 1.01.139 1.622.138.611 0 1.2 0 1.621-.138a2.75 2.75 0 0 0 1.532-1.255c.219-.387.312-.855.431-1.454l.03-.153H8.72l.03.153Z"/>
</svg>
