<svg xmlns="http://www.w3.org/2000/svg" width="25" height="24" fill="none" viewBox="0 0 25 24">
  <path fill="#161C24" d="M1.583 12c0 5.937 4.813 10.75 10.75 10.75 5.938 0 10.75-4.813 10.75-10.75S18.271 1.25 12.334 1.25 1.584 6.063 1.584 12Z" opacity=".4"/>
  <path fill="#161C24" fill-rule="evenodd" d="M12.015 11.027c.247.034.59.122.88.412.29.29.378.632.411.88.028.204.028.442.028.642V17a1 1 0 1 1-2 0v-4a1 1 0 1 1 0-2h.039c.2 0 .438 0 .642.027ZM11.334 8c0-.552.445-1 .995-1h.009c.55 0 .996.448.996 1s-.446 1-.996 1h-.009a.998.998 0 0 1-.995-1Z" clip-rule="evenodd"/>
</svg>
