<svg xmlns="http://www.w3.org/2000/svg" width="25" height="24" fill="none" viewBox="0 0 25 24">
  <path fill="#161C24" d="M12.39 1.75c2.191 0 3.912 0 5.255.18 1.377.186 2.47.573 3.328 1.43.858.86 1.245 1.951 1.43 3.328.18 1.343.18 3.064.18 5.255v.114c0 2.19 0 3.912-.18 5.255-.185 1.377-.572 2.469-1.43 3.327-.859.858-1.95 1.245-3.328 1.43-1.343.181-3.064.181-5.254.181h-.115c-2.19 0-3.911 0-5.254-.18-1.377-.186-2.47-.573-3.328-1.43-.858-.86-1.245-1.951-1.43-3.328-.18-1.343-.18-3.064-.18-5.255v-.114c0-2.19 0-3.912.18-5.255.185-1.377.572-2.469 1.43-3.327.859-.858 1.95-1.245 3.328-1.43 1.343-.181 3.064-.181 5.254-.181h.115Z" opacity=".4"/>
  <path fill="#161C24" fill-rule="evenodd" d="M12.015 10.527c.247.034.59.122.88.412.29.29.378.632.411.88.028.204.028.442.028.642V16.5a1 1 0 1 1-2 0v-4a1 1 0 1 1 0-2h.039c.2 0 .438 0 .642.027ZM11.334 7.5c0-.552.445-1 .995-1h.009c.55 0 .996.448.996 1s-.446 1-.996 1h-.009a.998.998 0 0 1-.995-1Z" clip-rule="evenodd"/>
</svg>
