<svg xmlns="http://www.w3.org/2000/svg" width="25" height="24" fill="none" viewBox="0 0 25 24">
  <path fill="#161C24" d="M9.084 8.5a6.75 6.75 0 1 1 4.459 6.351l-2.18 2.18a.75.75 0 0 1-.53.219h-1.75V19a.75.75 0 0 1-.75.75h-1.75v1.75a.75.75 0 0 1-.75.75h-3a.75.75 0 0 1-.75-.75v-3a.75.75 0 0 1 .22-.53l7.18-7.18a6.74 6.74 0 0 1-.4-2.29Z" opacity=".4"/>
  <path fill="#161C24" fill-rule="evenodd" d="M18.364 5.97a.75.75 0 0 1 0 1.06l-1 1a.75.75 0 1 1-1.06-1.06l1-1a.75.75 0 0 1 1.06 0Z" clip-rule="evenodd"/>
</svg>
