<svg xmlns="http://www.w3.org/2000/svg" width="25" height="24" fill="none" viewBox="0 0 25 24">
  <path fill="#161C24" d="M10.962 20.871c.879.879 2.293.879 5.122.879 2.828 0 4.242 0 5.12-.879.88-.878.88-2.293.88-5.121 0-2.828 0-4.243-.88-5.121-.878-.879-2.292-.879-5.12-.879-2.829 0-4.243 0-5.122.879-.878.878-.878 2.293-.878 5.121 0 2.828 0 4.243.878 5.121Z"/>
  <path fill="#161C24" d="M7.213 17.122C8.09 18 9.506 18 12.334 18c2.828 0 4.243 0 5.121-.878.879-.88.879-2.293.879-5.122 0-2.828 0-4.242-.879-5.121C16.577 6 15.162 6 12.334 6c-2.828 0-4.243 0-5.121.879-.879.879-.879 2.293-.879 5.121 0 2.829 0 4.243.879 5.122Z" opacity=".4"/>
  <path fill="#161C24" d="M6.359 14.225c-1.42-.057-2.287-.244-2.897-.854-.879-.878-.879-2.293-.879-5.121 0-2.828 0-4.243.88-5.121.878-.879 2.292-.879 5.12-.879 2.829 0 4.243 0 5.122.879.61.61.796 1.477.853 2.896C13.932 6 13.2 6 12.334 6c-2.829 0-4.243 0-5.122.879-.878.878-.878 2.293-.878 5.121 0 .866 0 1.599.025 2.225Z"/>
</svg>
