<svg xmlns="http://www.w3.org/2000/svg" width="25" height="24" fill="none" viewBox="0 0 25 24">
  <path fill="#161C24" d="M8.82 2.391c1.499-.693 2.468-1.141 3.514-1.141 1.045 0 2.014.448 3.512 1.141l.16.074 1.764.815c1.262.584 2.286 1.057 2.989 1.515.702.458 1.325 1.054 1.325 1.955 0 .9-.623 1.497-1.325 1.955-.703.458-1.727.931-2.99 1.515l-1.764.815-.159.074c-1.498.693-2.467 1.141-3.512 1.141-1.046 0-2.015-.448-3.513-1.141l-.16-.074-1.764-.815c-1.262-.584-2.286-1.057-2.989-1.515-.702-.458-1.325-1.054-1.325-1.955 0-.9.623-1.497 1.325-1.955.703-.458 1.727-.931 2.99-1.515l1.764-.815.159-.074Z" opacity=".4"/>
  <path fill="#161C24" fill-rule="evenodd" d="M4.929 15.393a1.018 1.018 0 0 1-.155 1.405.986.986 0 0 0-.228.237c-.013.022-.013.027-.013.03v.002l.001.01a.244.244 0 0 0 .037.06c.062.083.198.214.475.397.566.373 1.446.787 2.756 1.4l1.663.776c1.691.79 2.273 1.04 2.869 1.04.595 0 1.177-.25 2.868-1.04l1.662-.777c1.31-.612 2.191-1.026 2.758-1.4.276-.182.412-.313.474-.397a.244.244 0 0 0 .036-.059c0-.001.002-.003.002-.01v-.001c0-.004 0-.009-.013-.031a.986.986 0 0 0-.228-.237 1.018 1.018 0 0 1-.155-1.405.959.959 0 0 1 1.37-.16c.523.428.976 1.015.976 1.834 0 1.035-.712 1.69-1.408 2.15-.7.46-1.712.933-2.929 1.502l-1.736.811-.187.087c-1.429.67-2.419 1.133-3.49 1.133-1.072 0-2.062-.464-3.491-1.133l-.187-.087-1.736-.811c-1.217-.569-2.23-1.042-2.929-1.503-.696-.459-1.408-1.114-1.408-2.149 0-.819.453-1.406.976-1.834a.959.959 0 0 1 1.37.16Z" clip-rule="evenodd"/>
  <path fill="#161C24" fill-rule="evenodd" d="M4.929 10.264a1.018 1.018 0 0 1-.155 1.405.986.986 0 0 0-.228.237c-.013.022-.013.027-.013.03v.002l.001.01a.244.244 0 0 0 .037.06c.062.083.198.214.475.397.566.373 1.446.787 2.756 1.4l1.663.776c1.691.79 2.273 1.04 2.869 1.04.595 0 1.177-.25 2.868-1.04l1.662-.776c1.31-.613 2.191-1.027 2.758-1.4.276-.183.412-.314.474-.397a.244.244 0 0 0 .036-.06s.002-.003.002-.01v-.001c0-.004 0-.009-.013-.031a.986.986 0 0 0-.228-.237 1.018 1.018 0 0 1-.155-1.405.959.959 0 0 1 1.37-.16c.523.428.976 1.016.976 1.834 0 1.035-.712 1.69-1.408 2.15-.7.46-1.712.933-2.929 1.502l-1.736.811-.187.088c-1.429.668-2.419 1.132-3.49 1.132-1.072 0-2.062-.464-3.491-1.132l-.187-.088-1.736-.811c-1.217-.569-2.23-1.042-2.929-1.503-.696-.459-1.408-1.114-1.408-2.149 0-.819.453-1.406.976-1.834a.959.959 0 0 1 1.37.16Z" clip-rule="evenodd"/>
</svg>
