<svg xmlns="http://www.w3.org/2000/svg" width="25" height="24" fill="none" viewBox="0 0 25 24">
  <path fill="#161C24" fill-rule="evenodd" d="M13.356 4.424a4.564 4.564 0 0 1 6.625 0c1.803 1.877 1.803 4.904 0 6.78l-3.24 3.372a4.696 4.696 0 0 1-.926.748 4.56 4.56 0 0 1-5.698-.748 4.806 4.806 0 0 1-.637-.826 1 1 0 1 1 1.707-1.042c.738 1.208 2.346 1.671 3.58.912a2.64 2.64 0 0 0 .533-.43l3.24-3.371c1.059-1.103 1.059-2.906 0-4.009a2.564 2.564 0 0 0-3.742 0l-.713.743a1 1 0 1 1-1.442-1.386l.713-.743Z" clip-rule="evenodd" opacity=".4"/>
  <path fill="#161C24" fill-rule="evenodd" d="M7.925 9.424a4.564 4.564 0 0 1 6.625 0c.246.256.458.533.637.826a1 1 0 1 1-1.707 1.042 2.814 2.814 0 0 0-.372-.482 2.565 2.565 0 0 0-3.74 0l-3.24 3.371c-1.06 1.103-1.06 2.906 0 4.009a2.565 2.565 0 0 0 3.74 0l.715-.743a1 1 0 0 1 1.442 1.386l-.714.743a4.564 4.564 0 0 1-6.625 0c-1.803-1.877-1.803-4.904 0-6.78l3.24-3.372Z" clip-rule="evenodd"/>
</svg>
