<svg xmlns="http://www.w3.org/2000/svg" width="25" height="24" fill="none" viewBox="0 0 25 24">
  <path fill="#161C24" fill-rule="evenodd" d="M12.334 2a1 1 0 0 1 1 1v3a1 1 0 1 1-2 0V3a1 1 0 0 1 1-1Z" clip-rule="evenodd"/>
  <path fill="#161C24" fill-rule="evenodd" d="M12.334 17a1 1 0 0 1 1 1v3a1 1 0 1 1-2 0v-3a1 1 0 0 1 1-1Zm5-5a1 1 0 0 1 1-1h3a1 1 0 1 1 0 2h-3a1 1 0 0 1-1-1Z" clip-rule="evenodd" opacity=".4"/>
  <path fill="#161C24" fill-rule="evenodd" d="M2.333 12a1 1 0 0 1 1-1h3a1 1 0 1 1 0 2h-3a1 1 0 0 1-1-1Z" clip-rule="evenodd"/>
  <path fill="#161C24" fill-rule="evenodd" d="M19.404 4.93a1 1 0 0 1 0 1.414l-2.121 2.121a1 1 0 1 1-1.414-1.414l2.12-2.121a1 1 0 0 1 1.415 0Z" clip-rule="evenodd" opacity=".4"/>
  <path fill="#161C24" fill-rule="evenodd" d="M8.799 15.535a1 1 0 0 1 0 1.414l-2.122 2.122a1 1 0 0 1-1.414-1.415l2.121-2.12a1 1 0 0 1 1.415 0Z" clip-rule="evenodd"/>
  <path fill="#161C24" fill-rule="evenodd" d="M15.869 15.535a1 1 0 0 1 1.414 0l2.121 2.121a1 1 0 0 1-1.414 1.415l-2.121-2.122a1 1 0 0 1 0-1.414Z" clip-rule="evenodd" opacity=".4"/>
  <path fill="#161C24" fill-rule="evenodd" d="M5.263 4.93a1 1 0 0 1 1.414 0L8.8 7.05a1 1 0 0 1-1.415 1.415l-2.12-2.121a1 1 0 0 1 0-1.414Z" clip-rule="evenodd"/>
</svg>
