<svg xmlns="http://www.w3.org/2000/svg" width="25" height="24" fill="none" viewBox="0 0 25 24">
  <path fill="#161C24" fill-rule="evenodd" d="M1.626 1.293a1 1 0 0 1 1.415 0l20 20a1 1 0 0 1-1.415 1.414l-20-20a1 1 0 0 1 0-1.414Z" clip-rule="evenodd"/>
  <path fill="#161C24" d="M3.33 7.086c-1.421 3.324-.652 6.152.951 8.575 1.314 1.986 3.23 3.758 4.96 5.357.33.305.653.604.963.896l.002.002a3.116 3.116 0 0 0 2.129.835c.79 0 1.554-.297 2.13-.835.293-.275.597-.556.908-.842.872-.804 1.794-1.653 2.663-2.552.188-.195.283-.292.282-.415-.001-.123-.099-.22-.293-.414l-3.052-3.053c-.164-.163-.246-.245-.343-.26-.097-.015-.212.046-.441.166a4 4 0 0 1-5.4-5.4c.12-.23.18-.344.165-.441-.014-.098-.096-.18-.26-.343L5.368 5.036c-.214-.215-.321-.322-.457-.313-.135.009-.224.124-.4.353a9.256 9.256 0 0 0-1.18 2.01Z"/>
  <path fill="#161C24" d="M20.393 15.66c1.6-2.424 2.367-5.255.947-8.575-1.528-3.572-5.178-5.835-9.004-5.835a9.977 9.977 0 0 0-4.908 1.303c-.285.162-.428.243-.448.39-.02.147.101.268.343.51l3.488 3.488c.123.123.185.185.26.206.074.022.169 0 .358-.044a4 4 0 0 1 4.802 4.802c-.043.19-.065.284-.044.359.022.075.083.136.206.26l3.21 3.208c.174.175.261.262.365.274.042.005.087 0 .127-.013.1-.032.166-.132.298-.332Z" opacity=".4"/>
</svg>
