<svg xmlns="http://www.w3.org/2000/svg" width="25" height="24" fill="none" viewBox="0 0 25 24">
  <path fill="#161C24" d="M3.33 7.085C4.86 3.513 8.51 1.25 12.336 1.25c3.826 0 7.476 2.263 9.004 5.835 1.42 3.32.654 6.151-.947 8.576-1.328 2.011-3.271 3.802-5.02 5.412-.31.286-.614.567-.908.841a3.116 3.116 0 0 1-2.129.836c-.79 0-1.554-.297-2.13-.835v-.002c-.311-.293-.634-.591-.964-.896-1.729-1.6-3.646-3.372-4.96-5.357-1.603-2.423-2.372-5.251-.95-8.575Z" opacity=".4"/>
  <path fill="#161C24" d="M17.281 8.18a1 1 0 0 1-.628 1.268c-.45.152-.976.481-1.541.953a14.651 14.651 0 0 0-1.578 1.57 23.301 23.301 0 0 0-1.619 2.084 1 1 0 0 1-1.717-.09c-.373-.711-.701-.982-.854-1.079a.599.599 0 0 0-.11-.057 1 1 0 0 1 .1-1.995c.175 0 .318.035.412.06.19.053.42.145.67.304.224.141.455.33.688.58.262-.337.575-.724.926-1.124a16.638 16.638 0 0 1 1.8-1.788c.651-.545 1.399-1.048 2.184-1.313a1 1 0 0 1 1.267.628Z"/>
</svg>
