<svg xmlns="http://www.w3.org/2000/svg" width="25" height="24" fill="none" viewBox="0 0 25 24">
  <path fill="#161C24" d="M3.33 7.085C4.86 3.513 8.51 1.25 12.336 1.25c3.826 0 7.476 2.263 9.004 5.835 1.42 3.32.654 6.151-.947 8.576-1.328 2.011-3.271 3.802-5.02 5.412-.31.286-.614.567-.908.841a3.116 3.116 0 0 1-2.129.836c-.79 0-1.554-.297-2.13-.835v-.002c-.311-.293-.634-.591-.964-.896-1.729-1.6-3.646-3.372-4.96-5.357-1.603-2.423-2.372-5.251-.95-8.575Z" opacity=".4"/>
  <path fill="#161C24" d="M12.334 7.444c.65-.452 1.7-.7 2.837-.038.847.494 1.287 1.502 1.132 2.6-.156 1.107-.9 2.295-2.368 3.328-.466.33-.944.666-1.601.666-.659 0-1.136-.337-1.602-.666-1.469-1.033-2.212-2.22-2.368-3.327C8.21 8.908 8.65 7.9 9.496 7.406c1.136-.663 2.187-.414 2.838.038Z"/>
</svg>
