<svg xmlns="http://www.w3.org/2000/svg" width="25" height="24" fill="none" viewBox="0 0 25 24">
  <path fill="#161C24" fill-rule="evenodd" d="M13.184 4c-4.812 0-8.6 3.642-8.6 8 0 4.358 3.788 8 8.6 8 .43 0 .852-.03 1.264-.086a1 1 0 0 1 .271 1.982c-.502.069-1.014.104-1.535.104-5.793 0-10.6-4.417-10.6-10S7.39 2 13.183 2c.52 0 1.033.036 1.535.104a1 1 0 1 1-.271 1.982A9.313 9.313 0 0 0 13.184 4Z" clip-rule="evenodd" opacity=".4"/>
  <path fill="#161C24" d="M21.084 13.006a1 1 0 0 0 0-2h-6.5v-.594c0-.176 0-.392-.022-.568V9.84c-.016-.127-.088-.703-.654-.977-.567-.275-1.067.027-1.175.092l-.469.34c-.375.294-.89.7-1.28 1.08-.196.19-.397.407-.556.638-.141.205-.345.555-.345.986 0 .43.204.78.345.986.159.231.36.448.555.638.391.38.906.786 1.281 1.08l.469.34c.108.065.608.367 1.175.092.566-.274.638-.85.653-.976v-.004c.023-.176.023-.392.023-.568v-.582h6.5Z"/>
</svg>
