<svg xmlns="http://www.w3.org/2000/svg" width="25" height="24" fill="none" viewBox="0 0 25 24">
  <path fill="#161C24" d="M9.413 2.787c1.954-.05 3.887-.05 5.84 0l.059.001c1.525.039 2.752.07 3.735.24 1.03.18 1.866.524 2.573 1.233.704.707 1.046 1.532 1.222 2.544.167.965.193 2.162.224 3.645l.002.058c.02.997.02 1.987 0 2.984l-.002.058c-.031 1.483-.057 2.68-.224 3.645-.176 1.012-.518 1.837-1.222 2.544-.707.71-1.544 1.053-2.573 1.232-.983.172-2.21.202-3.735.24l-.058.002c-1.954.05-3.887.05-5.84 0l-.059-.001c-1.525-.039-2.752-.07-3.735-.24-1.03-.18-1.866-.524-2.573-1.233-.704-.707-1.046-1.532-1.222-2.544-.167-.965-.193-2.162-.224-3.645l-.002-.058a69.824 69.824 0 0 1 0-2.984l.002-.058c.031-1.483.057-2.68.224-3.645.176-1.012.518-1.837 1.222-2.544.707-.71 1.544-1.053 2.573-1.232.984-.172 2.21-.202 3.735-.24l.058-.002Z" opacity=".4"/>
  <path fill="#161C24" d="M6.473 7.991a1 1 0 0 1 1.37-.352l2.942 1.74c.84.497 1.238.621 1.549.621.31 0 .708-.124 1.549-.621l2.942-1.74a1 1 0 0 1 1.018 1.722L14.9 11.1c-.875.517-1.677.9-2.566.9-.89 0-1.692-.383-2.567-.9L6.825 9.36a1 1 0 0 1-.352-1.37Z"/>
</svg>
