<svg xmlns="http://www.w3.org/2000/svg" width="25" height="24" fill="none" viewBox="0 0 25 24">
  <path fill="#161C24" fill-rule="evenodd" d="M8.343 4.277h.014c2.759 0 4.778 2.433 5.157 4.825.07.448.07.967.07 1.82V22a1 1 0 0 1-2 0v-3.25H7.676c-.847 0-1.53 0-2.083-.047-.569-.048-1.067-.15-1.526-.396a3.75 3.75 0 0 1-1.54-1.54c-.245-.458-.347-.957-.395-1.526-.047-.552-.047-1.235-.047-2.083v-.068c0-1.43 0-2.55.076-3.45.078-.916.24-1.671.603-2.35a5.75 5.75 0 0 1 2.36-2.361c.873-.467 1.881-.604 3.207-.652h.013ZM6.833 8a1 1 0 0 0 0 2h2a1 1 0 1 0 0-2h-2Zm13.001-5a1 1 0 0 0-1 1v4a1 1 0 1 1-2 0V4a3 3 0 0 1 3-3 1 1 0 1 1 0 2Z" clip-rule="evenodd"/>
  <path fill="#161C24" d="M14.834 18.75h2.158c.847 0 1.53 0 2.082-.047.57-.048 1.068-.15 1.527-.396a3.75 3.75 0 0 0 1.54-1.54c.245-.458.347-.957.395-1.526.047-.552.047-1.235.047-2.082v-.069c0-1.43 0-2.55-.076-3.45-.078-.916-.24-1.671-.603-2.35a5.75 5.75 0 0 0-2.36-2.361c-.68-.363-1.435-.525-2.351-.603-.9-.076-2.02-.076-3.45-.076h-1.78c1.527 1.153 2.515 2.953 2.785 4.656.086.546.086 1.155.086 1.924v7.92Z" opacity=".4"/>
</svg>
