<svg xmlns="http://www.w3.org/2000/svg" width="25" height="24" fill="none" viewBox="0 0 25 24">
  <path fill="#161C24" d="M9.584 4a2.75 2.75 0 1 1 5.5 0 2.75 2.75 0 0 1-5.5 0Z"/>
  <path fill="#161C24" d="M12.386 7.5c.898 0 1.647 0 2.242.08.628.084 1.195.27 1.65.726.456.455.641 1.022.726 1.65.08.594.08 1.344.08 2.242v1.847c0 .432 0 .83-.043 1.152-.048.356-.16.731-.47 1.04-.309.31-.684.422-1.04.47a4.747 4.747 0 0 1-.447.035v3.303c0 .432 0 .83-.043 1.152-.048.356-.16.731-.47 1.04-.309.31-.684.422-1.04.47-.323.043-.72.043-1.152.043-.433 0-.92 0-1.242-.043-.356-.048-.732-.16-1.04-.47-.31-.309-.422-.684-.47-1.04-.043-.323-.043-.72-.043-1.152v-3.303a4.748 4.748 0 0 1-.447-.035c-.356-.048-.732-.16-1.04-.47-.31-.309-.422-.684-.47-1.04-.043-.323-.043-.72-.043-1.152v-1.847c0-.898 0-1.648.08-2.242.084-.628.27-1.195.725-1.65.455-.456 1.022-.642 1.65-.726.595-.08 1.448-.08 2.347-.08Z" opacity=".4"/>
</svg>
