<svg xmlns="http://www.w3.org/2000/svg" width="25" height="24" fill="none" viewBox="0 0 25 24">
  <path fill="#161C24" d="M7.583 3.04c0-.327 0-.49-.115-.58a.326.326 0 0 0-.047-.03c-.13-.068-.268-.004-.542.123-.461.213-.991.52-1.638.895l-1.289.748c-.468.271-.866.502-1.178.727-.332.24-.613.506-.82.87-.207.362-.293.74-.333 1.15-.038.387-.038.854-.038 1.405v8.239c0 .729 0 1.332.047 1.803.047.476.15.955.462 1.341.34.422.818.708 1.352.803.493.088.96-.06 1.391-.254.426-.192.998-.524 1.617-.883.283-.164.536-.311.772-.433.181-.094.272-.14.316-.213.043-.072.043-.166.043-.355V3.04Zm8.672 2.212a.171.171 0 0 0-.171.171v16.136c0 .06.049.11.109.11h2.193c.898 0 1.648 0 2.244-.082.631-.087 1.199-.278 1.654-.742.452-.463.636-1.037.72-1.674.08-.605.08-1.37.08-2.29V10.04c0-.92 0-1.684-.08-2.29-.084-.636-.268-1.21-.72-1.673-.455-.465-1.023-.656-1.654-.742-.596-.082-1.346-.082-2.244-.082h-2.131Z" opacity=".4"/>
  <path fill="#161C24" d="M9.084 18.266c0 .202 0 .304.047.378.048.074.147.12.345.21.222.1.502.238.881.427l3.814 1.896a.285.285 0 0 0 .413-.258V5.162c0-.181 0-.271-.045-.344-.046-.073-.126-.113-.288-.193l-2.775-1.38c-.669-.333-1.217-.605-1.69-.788-.292-.112-.438-.169-.567-.084a.342.342 0 0 0-.01.007c-.125.09-.125.258-.125.596v15.29Z"/>
</svg>
