<svg xmlns="http://www.w3.org/2000/svg" width="25" height="24" fill="none" viewBox="0 0 25 24">
  <path fill="#161C24" d="M20.893 3.342c-.277-.093-.593-.093-.894-.092-.135 0-.392 0-.535.023a1.75 1.75 0 0 0-.737.306c-.118.084-.22.186-.314.282l-.192.191c-.726.726-1.005.997-1.328 1.192l-.017.01c-.325.193-.696.31-1.678.604L8.084 7.992v8.016l7.114 2.134c.983.296 1.354.412 1.678.605l.018.01c.323.194.601.466 1.327 1.191l.191.192c.096.095.197.197.315.282.219.157.471.261.737.305.143.024.4.024.535.023.301.001.617.002.894-.091a1.75 1.75 0 0 0 1.099-1.1c.093-.276.092-.592.092-.893V5.335c0-.302.001-.617-.092-.894a1.75 1.75 0 0 0-1.1-1.099ZM6.583 15.75v-7.5h-.275c-.444 0-.815 0-1.12.021a2.823 2.823 0 0 0-.907.189 2.75 2.75 0 0 0-1.488 1.488c-.12.29-.167.59-.189.907-.02.304-.02.675-.02 1.12v.05c0 .445 0 .816.02 1.12.022.318.069.617.189.908A2.75 2.75 0 0 0 4.28 15.54c.29.12.59.167.907.188.305.021.676.021 1.12.021h.276Z" opacity=".4"/>
  <path fill="#161C24" d="M6.583 15.75v-7.5h-.275c-.444 0-.815 0-1.12.02a2.823 2.823 0 0 0-.907.19 2.75 2.75 0 0 0-1.488 1.488c-.12.29-.167.59-.189.907-.02.304-.02.675-.02 1.12v.05c0 .445 0 .816.02 1.12.022.318.069.617.189.907a2.75 2.75 0 0 0 1.488 1.489c.29.12.59.167.907.188.305.021.676.021 1.12.021h.276Zm6.509 1.759 1.502.45-1.056 1.585a2.704 2.704 0 0 1-4.954-1.5v-1.888l1.5.45v1.438a1.204 1.204 0 0 0 2.206.668l.802-1.203Z"/>
</svg>
