<svg xmlns="http://www.w3.org/2000/svg" width="25" height="24" fill="none" viewBox="0 0 25 24">
  <path fill="#161C24" d="M14.554 1.823a33.931 33.931 0 0 0-4.44 0c-4.568.303-8.19 3.99-8.489 8.6a20.5 20.5 0 0 0 0 2.616c.111 1.717.86 3.265 1.692 4.521.25.482.12 1.204-.347 2.088l-.021.04c-.157.297-.31.588-.399.835-.093.263-.19.68.051 1.091.222.38.577.518.864.573.238.046.53.053.804.06l.046.001c1.42.034 2.42-.375 3.212-.96.158-.116.266-.195.347-.251.118.043.28.11.518.208a5.626 5.626 0 0 0 1.721.394c1.457.097 2.98.097 4.44 0 4.567-.304 8.19-3.99 8.489-8.6a20.51 20.51 0 0 0 0-2.617c-.298-4.61-3.922-8.296-8.488-8.6Z" opacity=".4"/>
  <path fill="#161C24" d="M8.834 15.25a.75.75 0 0 1 0-1.5h7a.75.75 0 0 1 0 1.5h-7Zm0-5a.75.75 0 0 1 0-1.5h3.5a.75.75 0 0 1 0 1.5h-3.5Z"/>
</svg>
