<svg xmlns="http://www.w3.org/2000/svg" width="25" height="24" fill="none" viewBox="0 0 25 24">
  <path fill="#161C24" d="M12.728 1.311a29.218 29.218 0 0 0-3.789 0c-3.933.26-7.062 3.407-7.32 7.352a17.225 17.225 0 0 0 0 2.22c.097 1.474.744 2.796 1.455 3.862.177.347.096.9-.297 1.637l-.02.038a5.97 5.97 0 0 0-.344.716c-.084.232-.18.628.053 1.023.213.36.55.487.81.536.21.04.468.047.697.052l.042.001c1.231.03 2.105-.323 2.798-.829.106-.078.184-.135.245-.178.093.035.215.085.385.154a4.925 4.925 0 0 0 1.496.34 29.21 29.21 0 0 0 3.789 0c3.934-.259 7.063-3.406 7.32-7.352a17.2 17.2 0 0 0 0-2.22c-.257-3.945-3.386-7.092-7.32-7.352Z" opacity=".4"/>
  <path fill="#161C24" fill-rule="evenodd" d="M7.833 12.75a.75.75 0 0 1 0-1.5h6a.75.75 0 0 1 0 1.5h-6Zm0-4a.75.75 0 0 1 0-1.5h3a.75.75 0 0 1 0 1.5h-3Z" clip-rule="evenodd"/>
  <path fill="#161C24" d="M21.544 10.982c-.306 4.69-4.027 8.442-8.718 8.75a30.713 30.713 0 0 1-3.986 0c-.539-.035-.809-.052-.902.028a.295.295 0 0 0-.102.255c.012.123.19.272.545.569a7.197 7.197 0 0 0 4.167 1.684c1.174.077 2.399.077 3.57 0 .467-.03.974-.139 1.423-.321l.097-.04a.607.607 0 0 1 .181-.057.31.31 0 0 1 .11.014c.047.014.086.043.164.1.66.48 1.49.813 2.659.785h.04c.215-.006.46-.011.663-.05.249-.048.582-.171.791-.524.232-.39.134-.78.054-1.001-.075-.207-.203-.446-.326-.676l-.02-.037c-.367-.688-.433-1.185-.28-1.487.671-1.002 1.284-2.25 1.375-3.642.046-.688.046-1.4 0-2.087a7.428 7.428 0 0 0-.608-2.5c-.231-.528-.347-.793-.53-.803a.316.316 0 0 0-.136.024c-.17.072-.19.387-.23 1.016Z"/>
</svg>
