<svg xmlns="http://www.w3.org/2000/svg" width="25" height="24" fill="none" viewBox="0 0 25 24">
  <path fill="#161C24" d="M14.983 10.293a21.368 21.368 0 0 1 2.7 0c2.874.184 5.184 2.428 5.375 5.272.034.513.034 1.045 0 1.559-.072 1.069-.55 2.016-1.06 2.763-.026.055-.043.14-.018.284.029.168.107.373.231.6l.018.031c.09.164.192.352.254.518.067.182.166.548-.058.916-.198.327-.51.434-.718.473-.167.031-.364.035-.522.039h-.034c-.915.022-1.576-.235-2.102-.609l-.08-.057-.165.066a3.763 3.763 0 0 1-1.12.248c-.887.056-1.813.057-2.7 0-2.874-.185-5.184-2.428-5.375-5.272a11.783 11.783 0 0 1 0-1.56c.19-2.844 2.501-5.087 5.374-5.271Z" opacity=".4"/>
  <path fill="#161C24" d="M14.887 8.796a22.881 22.881 0 0 1 2.893 0 7.321 7.321 0 0 1 3.466 1.128c.296.189.445.283.543.277a.29.29 0 0 0 .233-.138c.053-.083.042-.242.022-.56-.285-4.388-3.743-7.895-8.099-8.184a32.357 32.357 0 0 0-4.223 0c-4.356.289-7.814 3.796-8.099 8.184a19.405 19.405 0 0 0 0 2.484c.106 1.636.821 3.109 1.613 4.302.226.436.112 1.102-.33 1.937l-.021.04c-.149.28-.295.557-.38.795-.09.252-.188.662.051 1.068.219.372.568.507.846.56.229.045.51.052.768.058l.045.001c1.357.033 2.315-.358 3.074-.916l.087-.064c.088-.065.132-.097.195-.11a.34.34 0 0 1 .07-.007l.067.003c.01.003-.014-.004 0 .001.013.005-.009-.005 0-.001.439.212.658.318.79.25a.313.313 0 0 0 .113-.1c.083-.123.01-.338-.137-.768a7.076 7.076 0 0 1-.361-1.812 13.285 13.285 0 0 1 0-1.76c.242-3.62 3.176-6.437 6.774-6.668Z"/>
</svg>
