<svg xmlns="http://www.w3.org/2000/svg" width="25" height="24" fill="none" viewBox="0 0 25 24">
  <path fill="#161C24" d="M6.583 7a5.75 5.75 0 1 1 11.5 0v4a5.75 5.75 0 0 1-11.5 0V7Z" opacity=".4"/>
  <path fill="#161C24" d="M18.084 10.25V11a5.8 5.8 0 0 1-.049.75h-3.701a.75.75 0 0 1 0-1.5h3.75Zm-.049-4a5.8 5.8 0 0 1 .049.75v.75h-3.75a.75.75 0 0 1 0-1.5h3.701Z"/>
  <path fill="#161C24" fill-rule="evenodd" d="M4.556 10.25c.537 0 .972.43.972.961 0 3.718 3.047 6.731 6.806 6.731 3.758 0 6.805-3.013 6.805-6.73 0-.531.435-.962.972-.962.537 0 .973.43.973.961 0 4.455-3.403 8.123-7.778 8.602v1.014h1.944c.537 0 .972.43.972.961a.967.967 0 0 1-.972.962H9.417a.967.967 0 0 1-.972-.962c0-.53.435-.961.972-.961h1.944v-1.014c-4.375-.479-7.778-4.147-7.778-8.601 0-.531.436-.962.973-.962Z" clip-rule="evenodd"/>
</svg>
