<svg xmlns="http://www.w3.org/2000/svg" width="25" height="24" fill="none" viewBox="0 0 25 24">
  <path fill="#161C24" d="M17.169 8.113a15.978 15.978 0 0 1 4.598 8.782c.284 1.697-.371 3.185-1.496 4.225-1.114 1.03-2.694 1.63-4.34 1.63H8.735c-1.647 0-3.226-.6-4.34-1.63-1.125-1.04-1.78-2.528-1.497-4.225A15.99 15.99 0 0 1 7.47 8.138c.093-.09.185-.177.29-.253.225-.165.627-.327.903-.366C8.8 7.5 8.9 7.5 9.098 7.5h6.47c.198 0 .297 0 .435.02.276.038.678.2.903.365a2.1 2.1 0 0 1 .263.228Z" opacity=".4"/>
  <path fill="#161C24" fill-rule="evenodd" d="M12.246 11.055a.75.75 0 0 1 .75.75v.114c.613.143 1.16.462 1.517.932a.75.75 0 0 1-1.194.907c-.157-.206-.538-.425-1.073-.425-.384 0-.703.116-.907.267-.205.15-.256.299-.256.394 0 .198.05.24.104.275.117.08.412.185 1.06.185.737 0 1.44.101 1.974.45.602.392.862 1.008.862 1.712 0 .786-.388 1.374-.975 1.726-.332.2-.716.319-1.112.38v.083a.75.75 0 0 1-1.5 0v-.102c-.544-.11-1.04-.342-1.416-.678a.75.75 0 1 1 1-1.118c.218.195.633.37 1.166.37.508 0 .876-.092 1.09-.22.168-.102.247-.22.247-.441 0-.305-.087-.395-.181-.456-.162-.105-.502-.206-1.156-.206-.744 0-1.405-.11-1.897-.44-.555-.374-.766-.938-.766-1.52 0-.684.378-1.242.865-1.601.301-.223.66-.384 1.048-.475v-.113a.75.75 0 0 1 .75-.75Z" clip-rule="evenodd"/>
  <path fill="#161C24" d="M10.975 1.906c.246-.247.711-.656 1.358-.656.647 0 1.112.41 1.359.656.298.3.536.748.915.948.313.166.717.005 1.03-.077.298-.077.752-.195 1.233-.13.209.027.483.094.696.283a.76.76 0 0 1 .256.714c-.045.256-.204.467-.36.667L16.57 5.46c-.23.297-.458.602-.764.826-.226.167-.512.214-.793.214h-5.36c-.28 0-.567-.047-.793-.214-.305-.224-.533-.53-.763-.826l-.892-1.15c-.156-.2-.315-.41-.36-.667a.76.76 0 0 1 .256-.714c.212-.19.486-.256.696-.284.48-.064.935.054 1.233.131.312.082.716.243 1.03.077.378-.2.616-.648.915-.948Z"/>
</svg>
