<svg xmlns="http://www.w3.org/2000/svg" width="25" height="24" fill="none" viewBox="0 0 25 24">
  <path fill="#161C24" d="M11.89 3.82c1.448-.675 3.31-1.07 5.318-1.07 1.12 0 2.19.123 3.168.346.917.21 1.615.616 2.054 1.291.421.648.528 1.43.528 2.227v8.739c0 .302 0 .453-.066.535a.25.25 0 0 1-.046.046c-.082.066-.267.066-.638.066h-7a2.5 2.5 0 0 0-2.363 3.318c.101.292.152.438.133.52a.243.243 0 0 1-.042.101c-.047.07-.168.127-.41.24-1.448.677-3.31 1.071-5.318 1.071-1.12 0-2.19-.123-3.167-.346-.876-.2-1.568-.593-2.016-1.255-.434-.64-.567-1.427-.567-2.263V6.614c0-1.567 1.591-2.476 2.918-2.172.862.197 1.82.308 2.832.308 1.826 0 3.465-.36 4.683-.93Z" opacity=".4"/>
  <path fill="#161C24" d="M8.958 12a3.25 3.25 0 1 1 6.5 0 3.25 3.25 0 0 1-6.5 0Z"/>
  <path fill="#161C24" fill-rule="evenodd" d="M5.708 12a1 1 0 0 1 1 1v.009a1 1 0 1 1-2 0V13a1 1 0 0 1 1-1Zm8.5 6.5a1 1 0 0 1 1-1h7a1 1 0 0 1 0 2h-7a1 1 0 0 1-1-1Z" clip-rule="evenodd"/>
</svg>
