<svg xmlns="http://www.w3.org/2000/svg" width="25" height="24" fill="none" viewBox="0 0 25 24">
  <path fill="#161C24" fill-rule="evenodd" d="M18.708 12.875a1 1 0 0 1 1 1v2.5h2.5a1 1 0 0 1 0 2h-2.5v2.5a1 1 0 0 1-2 0v-2.5h-2.5a1 1 0 1 1 0-2h2.5v-2.5a1 1 0 0 1 1-1Z" clip-rule="evenodd"/>
  <path fill="#161C24" d="M11.89 3.195c1.448-.675 3.31-1.07 5.318-1.07 1.12 0 2.19.123 3.168.346.917.21 1.615.616 2.054 1.291.421.648.528 1.43.528 2.227v8.239c0 .302 0 .453-.066.535a.25.25 0 0 1-.046.046c-.082.066-.267.066-.638.066h-.4c-.283 0-.424 0-.512-.088-.088-.088-.088-.23-.088-.512v-.4a2.5 2.5 0 0 0-5 0v.4c0 .283 0 .424-.088.512-.088.088-.229.088-.512.088h-.4a2.5 2.5 0 0 0-2.297 3.488c.198.459.297.688.253.802-.043.114-.235.203-.617.38a1.951 1.951 0 0 1-.021.01c-1.448.675-3.31 1.07-5.318 1.07-1.12 0-2.19-.123-3.167-.346-.876-.2-1.568-.593-2.016-1.255-.434-.64-.567-1.427-.567-2.263V5.989c0-1.567 1.591-2.476 2.918-2.172.862.197 1.82.308 2.832.308 1.826 0 3.465-.36 4.683-.93Z" opacity=".4"/>
  <path fill="#161C24" d="M8.958 11.375a3.25 3.25 0 1 1 6.5 0 3.25 3.25 0 0 1-6.5 0Z"/>
  <path fill="#161C24" fill-rule="evenodd" d="M5.708 11.375a1 1 0 0 1 1 1v.009a1 1 0 1 1-2 0v-.009a1 1 0 0 1 1-1Z" clip-rule="evenodd"/>
</svg>
