<svg xmlns="http://www.w3.org/2000/svg" width="25" height="24" fill="none" viewBox="0 0 25 24">
  <path fill="#161C24" d="M17.334 2.75c-2.009 0-3.87.395-5.318 1.07-1.218.57-2.857.93-4.683.93-1.011 0-1.97-.11-2.832-.308-1.327-.304-2.918.605-2.918 2.172v10.772c0 .836.133 1.622.567 2.263.449.662 1.14 1.054 2.016 1.255.977.223 2.048.346 3.167.346 2.009 0 3.87-.395 5.318-1.07 1.218-.57 2.857-.93 4.683-.93 1.012 0 1.97.11 2.832.308 1.326.304 2.918-.605 2.918-2.172V6.614c0-.797-.108-1.58-.529-2.227-.439-.675-1.137-1.08-2.054-1.29a14.255 14.255 0 0 0-3.168-.347Z" opacity=".4"/>
  <path fill="#161C24" fill-rule="evenodd" d="M15.334 12a3 3 0 1 1-6 0 3 3 0 0 1 6 0Zm-8.948.217a.75.75 0 0 1-.105 1.496 14.746 14.746 0 0 1-1.055-.112.75.75 0 1 1 .215-1.485c.307.045.622.079.945.101ZM19.44 10.4a.75.75 0 0 1-.215 1.485 12.81 12.81 0 0 0-.945-.101.75.75 0 0 1 .105-1.496c.36.025.711.063 1.055.112Z" clip-rule="evenodd"/>
</svg>
