<svg xmlns="http://www.w3.org/2000/svg" width="25" height="24" fill="none" viewBox="0 0 25 24">
  <path fill="#161C24" fill-rule="evenodd" d="M19.834 12.5a.5.5 0 1 1 0-1 .5.5 0 0 1 0 1Zm-2.5-.5a2.5 2.5 0 1 0 5 0 2.5 2.5 0 0 0-5 0Z" clip-rule="evenodd"/>
  <path fill="#161C24" fill-rule="evenodd" d="M12.334 12.5a.5.5 0 1 1 0-1 .5.5 0 0 1 0 1Zm-2.5-.5a2.5 2.5 0 1 0 5 0 2.5 2.5 0 0 0-5 0Z" clip-rule="evenodd" opacity=".4"/>
  <path fill="#161C24" fill-rule="evenodd" d="M4.833 12.5a.5.5 0 1 1 0-1 .5.5 0 0 1 0 1Zm-2.5-.5a2.5 2.5 0 1 0 5 0 2.5 2.5 0 0 0-5 0Z" clip-rule="evenodd"/>
</svg>
