<svg xmlns="http://www.w3.org/2000/svg" width="25" height="24" fill="none" viewBox="0 0 25 24">
  <path fill="#161C24" fill-rule="evenodd" d="M12.26 1.75h.115c2.19 0 3.911 0 5.255.18 1.377.186 2.469.573 3.327 1.43.858.86 1.245 1.951 1.43 3.328.18 1.343.18 3.064.18 5.255v.114c0 2.19 0 3.912-.18 5.255-.185 1.377-.572 2.469-1.43 3.327-.858.858-1.95 1.245-3.327 1.43-1.344.181-3.064.181-5.255.181h-.114c-2.191 0-3.912 0-5.255-.18-1.377-.186-2.469-.573-3.327-1.43-.858-.86-1.245-1.951-1.43-3.328-.181-1.343-.181-3.064-.181-5.255v-.114c0-2.19 0-3.912.18-5.255.186-1.377.573-2.469 1.43-3.327.859-.858 1.951-1.245 3.328-1.43 1.343-.181 3.064-.181 5.255-.181Z" clip-rule="evenodd" opacity=".4"/>
  <path fill="#161C24" fill-rule="evenodd" d="M11.076 12c0-.69.56-1.25 1.25-1.25h.009a1.25 1.25 0 0 1 0 2.5h-.01c-.69 0-1.25-.56-1.25-1.25Zm-.008 4c0-.69.56-1.25 1.25-1.25h.009a1.25 1.25 0 0 1 0 2.5h-.01c-.69 0-1.25-.56-1.25-1.25Zm.016-8c0-.69.56-1.25 1.25-1.25h.008a1.25 1.25 0 0 1 0 2.5h-.008c-.69 0-1.25-.56-1.25-1.25Z" clip-rule="evenodd"/>
</svg>
