<svg xmlns="http://www.w3.org/2000/svg" width="25" height="24" fill="none" viewBox="0 0 25 24">
  <path fill="#161C24" fill-rule="evenodd" d="M1.583 12c0 5.937 4.813 10.75 10.75 10.75 5.938 0 10.75-4.813 10.75-10.75S18.271 1.25 12.334 1.25 1.584 6.063 1.584 12Z" clip-rule="evenodd" opacity=".4"/>
  <path fill="#161C24" fill-rule="evenodd" d="M11.08 12c0-.69.56-1.25 1.25-1.25h.009a1.25 1.25 0 0 1 0 2.5h-.01c-.69 0-1.25-.56-1.25-1.25Zm-.012 4c0-.69.56-1.25 1.25-1.25h.009a1.25 1.25 0 0 1 0 2.5h-.01c-.69 0-1.25-.56-1.25-1.25Zm.016-8c0-.69.56-1.25 1.25-1.25h.008a1.25 1.25 0 0 1 0 2.5h-.008c-.69 0-1.25-.56-1.25-1.25Z" clip-rule="evenodd"/>
</svg>
