<svg xmlns="http://www.w3.org/2000/svg" width="25" height="24" fill="none" viewBox="0 0 25 24">
  <path fill="#161C24" d="M20.834 8.75a.75.75 0 0 1 .75.75v6.856c.084.19.193.395.327.645.088.166.187.35.296.564.288.564.6 1.244.785 2.025.123.52.197 1.206-.292 1.697-.23.23-.512.338-.76.393a3.71 3.71 0 0 1-.791.07h-.63c-.271 0-.544-.015-.792-.07a1.514 1.514 0 0 1-.76-.393c-.49-.49-.415-1.178-.292-1.697.186-.78.497-1.461.785-2.025.109-.213.208-.398.296-.564.134-.25.243-.455.328-.645V9.5a.75.75 0 0 1 .75-.75Zm-5.387 5.776c-.555.197-1.095.368-1.585.493-.45.114-1.004.23-1.529.23-.525 0-1.079-.116-1.529-.23-.49-.125-1.03-.296-1.584-.493a34.816 34.816 0 0 1-2.258-.897.51.51 0 0 0-.705.57l.596 2.757c.114.526.39 1.083.91 1.456 1.269.91 2.943 1.336 4.57 1.336 1.628 0 3.302-.427 4.57-1.336.52-.373.797-.93.91-1.456l.596-2.757a.51.51 0 0 0-.705-.57c-.776.338-1.548.646-2.257.897Z" opacity=".4"/>
  <path fill="#161C24" d="M11.175 2.433c.418-.107.826-.183 1.159-.183.332 0 .74.076 1.158.183.432.11.927.266 1.454.453 1.054.374 2.27.883 3.421 1.434 1.149.55 2.257 1.15 3.09 1.71.412.279.783.564 1.058.843.138.14.27.296.371.466.099.165.198.393.198.661s-.1.496-.198.66c-.1.17-.233.327-.37.467-.276.28-.647.564-1.06.842-.832.56-1.94 1.162-3.089 1.71a36.547 36.547 0 0 1-3.421 1.435c-.527.187-1.022.343-1.454.453-.418.107-.826.183-1.159.183-.332 0-.74-.076-1.158-.183a17.07 17.07 0 0 1-1.454-.453A36.547 36.547 0 0 1 6.3 11.68c-1.149-.55-2.257-1.15-3.09-1.71-.412-.279-.783-.564-1.058-.843a2.497 2.497 0 0 1-.371-.466A1.298 1.298 0 0 1 1.583 8c0-.268.1-.496.198-.66.1-.17.233-.327.37-.467.276-.28.647-.564 1.06-.842.832-.56 1.94-1.162 3.089-1.71a36.552 36.552 0 0 1 3.42-1.436 17.091 17.091 0 0 1 1.454-.453Z"/>
</svg>
