<svg xmlns="http://www.w3.org/2000/svg" width="25" height="24" fill="none" viewBox="0 0 25 24">
  <path fill="#161C24" d="M1.583 12c0-5.937 4.813-10.75 10.75-10.75 5.938 0 10.75 4.813 10.75 10.75s-4.812 10.75-10.75 10.75c-5.937 0-10.75-4.813-10.75-10.75Z" opacity=".4"/>
  <path fill="#161C24" fill-rule="evenodd" d="m11.294 8.602 2.732-1.125c2.05-.844 3.075-1.266 3.586-.755.51.51.089 1.536-.755 3.585l-1.125 2.732c-.34.825-.51 1.237-.816 1.543-.307.307-.719.477-1.543.816l-2.732 1.125c-2.05.844-3.075 1.266-3.586.755-.51-.51-.089-1.536.755-3.585l1.125-2.732c.34-.825.51-1.237.816-1.544.307-.306.719-.476 1.543-.815ZM13.334 12a1 1 0 1 0-2 0v.01a1 1 0 1 0 2 0V12Z" clip-rule="evenodd"/>
</svg>
