<svg xmlns="http://www.w3.org/2000/svg" width="25" height="24" fill="none" viewBox="0 0 25 24">
  <path fill="#161C24" d="M11.57 1.397a2.062 2.062 0 0 1 1.527 0c.308.122.546.329.754.546.198.21.438.508.694.826.178.226.706.632 1.395.456.388-.105.752-.204 1.03-.255.29-.053.6-.081.917-.002.532.132.988.47 1.273.939.168.276.237.575.276.868.037.28.056.656.077 1.058.013.29.205.938.863 1.203.372.143.72.277.973.399.263.127.525.285.734.53.363.428.54.983.493 1.54-.026.32-.145.6-.283.858a14.6 14.6 0 0 1-.551.894c-.184.28-.44.968 0 1.486.216.334.418.647.55.894.14.258.258.538.284.857a2.111 2.111 0 0 1-.493 1.54c-.209.246-.47.404-.734.531-.253.122-.574.246-.945.389-.326.051-.96.366-.891 1.212-.02.402-.04.778-.077 1.059-.04.293-.108.592-.276.868a2.08 2.08 0 0 1-1.273.939c-.317.079-.626.051-.916-.002-.279-.051-.614-.142-1.002-.247a1.252 1.252 0 0 0-1.443.471c-.256.319-.477.594-.675.802-.208.218-.446.424-.754.547a2.062 2.062 0 0 1-1.527 0c-.309-.123-.546-.329-.754-.547a14.322 14.322 0 0 1-.694-.826 1.351 1.351 0 0 0-1.395-.455c-.388.105-.752.204-1.03.255-.29.053-.6.081-.917.002a2.08 2.08 0 0 1-1.273-.939c-.168-.276-.237-.575-.276-.868-.037-.28-.056-.656-.077-1.059-.051-.758-.597-1.117-.863-1.201-.372-.144-.72-.278-.973-.4-.263-.127-.525-.285-.734-.53a2.111 2.111 0 0 1-.493-1.54c.026-.32.145-.6.283-.858a14.6 14.6 0 0 1 .551-.894c.412-.663.172-1.267 0-1.486a14.052 14.052 0 0 1-.55-.894c-.14-.258-.258-.538-.284-.858a2.111 2.111 0 0 1 .493-1.54c.209-.245.47-.403.734-.53.253-.122.601-.256.972-.4.778-.23.9-.897.864-1.202.02-.402.04-.777.077-1.058.04-.293.108-.592.276-.868a2.08 2.08 0 0 1 1.273-.939c.317-.079.626-.051.916.002.279.051.643.15 1.03.255.765.192 1.25-.224 1.396-.456.256-.318.496-.617.694-.826.208-.217.445-.424.754-.546Z" opacity=".4"/>
  <path fill="#161C24" d="M17.281 9.68a1 1 0 0 1-.628 1.268c-.45.152-.976.481-1.541.953a14.651 14.651 0 0 0-1.578 1.57c-.48.548-1.28 1.575-1.619 2.084a1 1 0 0 1-1.717-.09c-.373-.711-.74-1.082-.964-1.136a1 1 0 0 1 .1-1.995c.421 0 .832.205 1.082.364.224.141.455.33.688.58.262-.337.575-.724.926-1.124a16.64 16.64 0 0 1 1.8-1.788c.651-.545 1.399-1.048 2.184-1.313a1 1 0 0 1 1.267.628Z"/>
</svg>
