<svg xmlns="http://www.w3.org/2000/svg" width="25" height="24" fill="none" viewBox="0 0 25 24">
  <path fill="#161C24" fill-rule="evenodd" d="M6.758 5.967a1 1 0 0 1-.675 1.242c-1.588.47-2.078.79-2.32 1.206-.154.266-.23.615-.143 1.308.092.721.338 1.652.703 3.023l1.012 3.8c.366 1.37.615 2.3.895 2.971.268.644.508.907.771 1.058.264.152.615.227 1.312.136.725-.095 1.661-.345 3.037-.716l.473-.127a1 1 0 1 1 .52 1.93l-.54.147c-1.291.348-2.357.635-3.23.749-.917.12-1.771.073-2.568-.384-.797-.458-1.266-1.171-1.621-2.023-.338-.81-.62-1.873-.963-3.158l-1.049-3.936c-.342-1.285-.625-2.347-.736-3.219-.116-.916-.064-1.768.398-2.563.686-1.182 1.954-1.668 3.482-2.12a1 1 0 0 1 1.242.676Z" clip-rule="evenodd"/>
  <path fill="#161C24" d="M17.603 2.323c1.305.348 2.357.628 3.156.96.828.343 1.488.783 1.91 1.51.424.729.477 1.518.362 2.406-.111.853-.393 1.9-.743 3.198L21.236 14.3c-.35 1.297-.631 2.344-.965 3.139-.346.825-.789 1.481-1.52 1.9-.73.42-1.52.473-2.412.359-.857-.11-1.91-.39-3.215-.739l-1.06-.282c-1.305-.348-2.358-.628-3.156-.96-.828-.343-1.488-.783-1.91-1.51-.424-.73-.477-1.519-.362-2.406.11-.853.393-1.9.743-3.198L8.43 6.7c.35-1.297.632-2.344.966-3.139.346-.825.789-1.481 1.52-1.9.73-.42 1.52-.473 2.411-.359.858.11 1.91.39 3.216.738l1.06.283Z" opacity=".4"/>
  <path fill="#161C24" fill-rule="evenodd" d="M12.49 6.823a.75.75 0 0 1 .917-.532l4.773 1.272a.75.75 0 1 1-.386 1.45L13.021 7.74a.75.75 0 0 1-.532-.918Zm-1.024 3.796a.75.75 0 0 1 .918-.531l2.387.636a.75.75 0 1 1-.387 1.45l-2.386-.637a.75.75 0 0 1-.532-.918Z" clip-rule="evenodd"/>
</svg>
