<svg xmlns="http://www.w3.org/2000/svg" width="25" height="24" fill="none" viewBox="0 0 25 24">
  <path fill="#161C24" fill-rule="evenodd" d="M8.077 17.784a1 1 0 0 1 1.223.71c.34 1.278 1.554 2.256 3.034 2.256 1.48 0 2.693-.978 3.033-2.257a1 1 0 1 1 1.933.514c-.577 2.172-2.597 3.743-4.966 3.743-2.37 0-4.39-1.571-4.967-3.743a1 1 0 0 1 .71-1.223Z" clip-rule="evenodd"/>
  <path fill="#161C24" d="M4.671 17.843c-1.287-.532-2.58-1.718-2.299-3.55.086-.563.336-1.045.592-1.445.145-.226.336-.488.502-.716.096-.13.184-.251.25-.347.476-.7.545-1.478.545-2.51a7.95 7.95 0 0 1 1.176-4.173L18.66 18.326c-4.37 1.373-9.888 1.212-13.99-.483Z"/>
  <path fill="#161C24" d="M12.332 1.25c4.456 0 8.073 3.592 8.073 8.027 0 1.032.07 1.81.545 2.51.066.096.154.216.25.347.166.228.357.49.502.716.256.4.506.882.592 1.444.142.932-.122 1.697-.585 2.293-.226.291-.339.437-.564.451-.225.014-.38-.141-.692-.452L7.827 3.959c-.365-.365-.547-.547-.522-.784.025-.237.224-.367.622-.625a8.068 8.068 0 0 1 4.405-1.3Z" opacity=".4"/>
  <path fill="#161C24" fill-rule="evenodd" d="M1.626 1.293a1 1 0 0 1 1.415 0l20 20a1 1 0 0 1-1.415 1.414l-20-20a1 1 0 0 1 0-1.414Z" clip-rule="evenodd"/>
</svg>
