<svg xmlns="http://www.w3.org/2000/svg" width="25" height="24" fill="none" viewBox="0 0 25 24">
  <path fill="#161C24" d="M15.049 5.499c.319-.317.478-.476.47-.613-.01-.136-.233-.305-.68-.644a2.496 2.496 0 0 1-.989-1.992c0-.35 0-.526-.03-.61a.435.435 0 0 0-.251-.276c-.08-.04-.191-.05-.414-.073a8.21 8.21 0 0 0-.821-.041c-4.456 0-8.074 3.59-8.074 8.027 0 1.032-.07 1.81-.545 2.51-.066.096-.154.216-.25.347-.166.228-.357.49-.502.716-.256.4-.506.882-.592 1.444-.28 1.833 1.012 3.02 2.299 3.551 4.533 1.873 10.792 1.873 15.325 0 1.287-.531 2.58-1.718 2.299-3.55-.086-.563-.336-1.045-.592-1.444a15.045 15.045 0 0 0-.502-.717 12 12 0 0 1-.25-.347 2.724 2.724 0 0 1-.165-.276c-.214-.41-.32-.616-.44-.689-.12-.072-.292-.072-.637-.072h-2.037c-.738 0-1.492-.012-2.178-.315a2.774 2.774 0 0 1-1.442-1.44 2.726 2.726 0 0 1 .038-2.22c.224-.488.576-.896.959-1.276Z" opacity=".4"/>
  <path fill="#161C24" d="M19.517 3.25H16.35a1 1 0 1 1 0-2h3.73c.335 0 .689 0 .968.04.272.04.884.173 1.155.806.268.625-.046 1.158-.2 1.383-.16.234-.399.497-.628.748L18.262 7.25h3.072a1 1 0 0 1 0 2h-3.622c-.349 0-.728 0-1.033-.038a2.061 2.061 0 0 1-.579-.149 1.274 1.274 0 0 1-.67-.66 1.226 1.226 0 0 1 .023-1.003c.097-.21.238-.378.33-.481.09-.103.2-.212.296-.31l3.438-3.359Z"/>
  <path fill="#161C24" fill-rule="evenodd" d="M15.14 19.079c.746-.092 1.48-.222 2.192-.388a1 1 0 0 1-.032.316c-.577 2.171-2.597 3.743-4.966 3.743-2.37 0-4.39-1.572-4.967-3.743a.998.998 0 0 1-.032-.316 20.88 20.88 0 0 0 2.192.388c.507.98 1.563 1.671 2.807 1.671s2.3-.691 2.807-1.671Z" clip-rule="evenodd"/>
</svg>
