<svg xmlns="http://www.w3.org/2000/svg" width="25" height="24" fill="none" viewBox="0 0 25 24">
  <path fill="#161C24" d="M4.261 9.277c0-4.435 3.617-8.027 8.073-8.027 4.455 0 8.072 3.592 8.072 8.027 0 1.032.07 1.81.545 2.51.066.096.154.216.25.347.166.229.357.49.502.716.256.4.506.882.592 1.444.28 1.833-1.012 3.02-2.299 3.551-4.533 1.873-10.792 1.873-15.325 0-1.287-.531-2.58-1.718-2.299-3.55.086-.563.336-1.045.592-1.444.145-.227.336-.489.502-.717a12 12 0 0 0 .25-.347c.476-.7.545-1.478.545-2.51Z"/>
  <path fill="#161C24" fill-rule="evenodd" d="M8.077 17.784a1 1 0 0 1 1.223.71c.34 1.278 1.554 2.256 3.034 2.256 1.48 0 2.693-.978 3.033-2.257a1 1 0 1 1 1.933.514c-.577 2.172-2.597 3.743-4.966 3.743-2.37 0-4.39-1.571-4.967-3.743a1 1 0 0 1 .71-1.223Z" clip-rule="evenodd" opacity=".4"/>
</svg>
