<svg xmlns="http://www.w3.org/2000/svg" width="25" height="24" fill="none" viewBox="0 0 25 24">
  <path fill="#161C24" fill-rule="evenodd" d="M7.335 18.692a1 1 0 0 0 .032.315c.577 2.171 2.597 3.743 4.967 3.743 2.37 0 4.39-1.572 4.966-3.743a1 1 0 0 0 .032-.316 20.91 20.91 0 0 1-2.191.388c-.507.98-1.563 1.671-2.807 1.671s-2.3-.69-2.807-1.67a20.91 20.91 0 0 1-2.192-.388Z" clip-rule="evenodd"/>
  <path fill="#161C24" d="M13.346 1.447c.08.161-.081.389-.405.843a5.997 5.997 0 0 0 4.892 9.466 6.03 6.03 0 0 0 1.672-.235c.561-.163.842-.244.992-.193.15.051.327.295.682.783.173.238.373.51.524.745.256.4.506.881.592 1.443.28 1.83-1.012 3.017-2.299 3.548-4.533 1.87-10.792 1.87-15.325 0-1.287-.532-2.58-1.717-2.299-3.548.086-.562.336-1.043.592-1.443.145-.226.336-.487.502-.715.636-.87.795-1.781.795-2.855 0-4.432 3.617-8.02 8.073-8.02.271 0 .873-.095 1.012.181Z" opacity=".4"/>
  <path fill="#161C24" fill-rule="evenodd" d="M13.334 5.75a4.5 4.5 0 1 1 9 0 4.5 4.5 0 0 1-9 0Zm2.172-.913a2.5 2.5 0 0 0 3.241 3.241l-3.241-3.241Zm1.414-1.415 3.241 3.242a2.5 2.5 0 0 0-3.241-3.241Z" clip-rule="evenodd"/>
</svg>
