<svg xmlns="http://www.w3.org/2000/svg" width="25" height="24" fill="none" viewBox="0 0 25 24">
  <path fill="#161C24" d="M23.01 15.375a1 1 0 0 1-.551 1.302c-.434.176-.958.566-1.53 1.139-.56.56-1.105 1.235-1.59 1.899a27.938 27.938 0 0 0-1.182 1.764c-.144.234-.372.623-.449.755v.002a1 1 0 0 1-1.79-.085c-.391-.893-.737-1.236-.894-1.355a.62.62 0 0 0-.085-.056 1 1 0 0 1 .145-1.99c.207 0 .359.048.46.08.205.068.441.184.692.375.201.153.407.35.612.604.252-.387.548-.823.876-1.273.52-.712 1.132-1.474 1.789-2.133.644-.645 1.394-1.255 2.195-1.58a1 1 0 0 1 1.302.552Z"/>
  <path fill="#161C24" fill-rule="evenodd" d="M14.032 22.019a2.499 2.499 0 0 1 1.051-4.769 2.9 2.9 0 0 1 .927.155c.171.056.346.128.523.219.54-.74 1.196-1.557 1.918-2.28.685-.687 1.582-1.446 2.632-1.886V6.5c0-.796-.565-1.284-1.015-1.582-.45-.297-1.089-.6-1.813-.943l-3.113-1.474c-1.564-.743-2.636-1.251-3.809-1.251-1.172 0-2.244.508-3.809 1.25L4.412 3.976c-.725.343-1.364.646-1.813.943-.45.298-1.016.786-1.016 1.582v10.661c0 1.12.818 1.866 1.824 2.47 1.018.61 2.727 1.333 4.62 2.133 1.42.6 2.334.986 3.306.986.826 0 1.611-.28 2.7-.731Zm-2.699-18.86c-.67 0-1.315.281-3.157 1.154l-2.848 1.35c-.811.383-1.319.626-1.637.837.318.21.826.454 1.637.838l3.29 1.558c1.51.71 2.102.945 2.715.945.67 0 1.316-.281 3.158-1.154l2.848-1.35c.81-.383 1.319-.627 1.637-.837-.318-.21-.826-.454-1.637-.838l-3.29-1.558c-1.51-.71-2.103-.945-2.716-.945Z" clip-rule="evenodd" opacity=".4"/>
  <path fill="#161C24" fill-rule="evenodd" d="M4.663 11.665a.75.75 0 0 1 1.006-.336l2 1a.75.75 0 0 1-.671 1.342l-2-1a.75.75 0 0 1-.335-1.006Z" clip-rule="evenodd"/>
  <path fill="#161C24" d="m6.402 7.848 7.646-3.743 2.217 1.05-7.647 3.743-2.216-1.05Z"/>
</svg>
