<svg xmlns="http://www.w3.org/2000/svg" width="25" height="24" fill="none" viewBox="0 0 25 24">
  <path fill="#161C24" fill-rule="evenodd" d="M18.584 13a1 1 0 0 1 1 1v2.5h2.5a1 1 0 1 1 0 2h-2.5V21a1 1 0 1 1-2 0v-2.5h-2.5a1 1 0 1 1 0-2h2.5V14a1 1 0 0 1 1-1Z" clip-rule="evenodd"/>
  <path fill="#161C24" d="m6.402 7.848 7.646-3.743 2.217 1.05-7.647 3.743-2.216-1.05Z"/>
  <path fill="#161C24" fill-rule="evenodd" d="M3.538 11.665a.75.75 0 0 1 1.006-.336l2 1a.75.75 0 0 1-.67 1.342l-2-1a.75.75 0 0 1-.336-1.006Z" clip-rule="evenodd"/>
  <path fill="#161C24" fill-rule="evenodd" d="M18.584 11.5a2.5 2.5 0 0 0-2.5 2.5v1h-1a2.5 2.5 0 0 0 0 5h1v1c0 .05.001.1.004.148-.464.2-.95.405-1.449.616-1.419.6-2.333.986-3.305.986-.973 0-1.887-.386-3.306-.986-1.893-.8-3.603-1.522-4.621-2.133-1.006-.604-1.824-1.349-1.824-2.47V6.502c0-.796.566-1.285 1.016-1.583.45-.297 1.089-.6 1.813-.943l3.112-1.474c1.565-.742 2.637-1.251 3.81-1.251 1.172 0 2.244.508 3.809 1.25l3.112 1.475c.725.343 1.364.646 1.813.943.45.298 1.015.787 1.015 1.582v5.628c0 .705 0 1.057-.13 1.105-.132.048-.375-.24-.86-.815-.42-.497-.943-.918-1.51-.918Zm-7.25-8.34c-.67 0-1.316.28-3.158 1.153l-2.848 1.35c-.81.383-1.319.627-1.637.837.318.21.826.454 1.637.838l3.29 1.558c1.51.71 2.102.945 2.716.945.67 0 1.315-.281 3.157-1.154l2.848-1.35c.811-.383 1.319-.627 1.637-.837-.318-.21-.826-.454-1.637-.838l-3.29-1.558c-1.51-.71-2.102-.945-2.715-.945Z" clip-rule="evenodd" opacity=".4"/>
</svg>
