<svg xmlns="http://www.w3.org/2000/svg" width="25" height="24" fill="none" viewBox="0 0 25 24">
  <path fill="#161C24" d="m8.402 7.848 7.646-3.743 2.216 1.05-7.646 3.742-2.216-1.05Z"/>
  <path fill="#161C24" fill-rule="evenodd" d="M1.583 13a1 1 0 0 1 1-1h3a1 1 0 1 1 0 2h-3a1 1 0 0 1-1-1Zm0 3a1 1 0 0 1 1-1h3a1 1 0 1 1 0 2h-3a1 1 0 0 1-1-1Zm0 3a1 1 0 0 1 1-1h3a1 1 0 1 1 0 2h-3a1 1 0 0 1-1-1Z" clip-rule="evenodd"/>
  <path fill="#161C24" fill-rule="evenodd" d="M4.583 10.5c-.471 0-.707 0-.853-.146-.147-.147-.147-.383-.147-.854v-3c0-.796.566-1.284 1.016-1.582.45-.297 1.088-.6 1.813-.943L9.524 2.5c1.565-.742 2.637-1.25 3.81-1.25 1.172 0 2.244.508 3.808 1.25l3.113 1.475c.724.343 1.363.646 1.813.943.45.298 1.015.786 1.015 1.582v10.66c0 1.12-.817 1.866-1.823 2.47-1.018.61-2.728 1.333-4.62 2.132-1.42.6-2.335.987-3.307.987s-1.886-.387-3.306-.987c-.46-.195-.911-.385-1.343-.57-.29-.124-.436-.187-.519-.312-.082-.125-.082-.284-.082-.602V13a2.5 2.5 0 0 0-2.5-2.5h-1Zm8.75-7.341c-.67 0-1.315.28-3.157 1.154L7.328 5.662c-.811.384-1.319.627-1.637.838.318.21.826.453 1.637.837l3.29 1.559c1.51.709 2.102.945 2.715.945.67 0 1.316-.282 3.158-1.154l2.848-1.35c.81-.384 1.319-.627 1.637-.837-.318-.21-.826-.454-1.637-.838l-3.29-1.558c-1.51-.71-2.103-.945-2.716-.945Z" clip-rule="evenodd" opacity=".4"/>
</svg>
