<svg xmlns="http://www.w3.org/2000/svg" width="25" height="24" fill="none" viewBox="0 0 25 24">
  <path fill="#161C24" fill-rule="evenodd" d="M2.583 6.5v10.662c0 1.12.818 1.865 1.824 2.469 1.018.61 2.728 1.333 4.62 2.133 1.42.6 2.335.986 3.307.986s1.886-.386 3.305-.986c1.893-.8 3.603-1.522 4.621-2.133 1.006-.604 1.823-1.349 1.823-2.47V6.502c0-.796-.565-1.285-1.015-1.583-.45-.297-1.088-.6-1.813-.943l-3.112-1.474c-1.565-.742-2.637-1.251-3.81-1.251-1.172 0-2.244.508-3.809 1.25L5.412 3.976c-.724.343-1.364.646-1.813.943-.45.298-1.016.787-1.016 1.582Zm6.593-2.187c1.842-.873 2.488-1.154 3.158-1.154.613 0 1.205.236 2.714.945l3.291 1.558c.811.384 1.319.628 1.637.838-.318.21-.826.454-1.637.838l-2.848 1.35c-1.842.872-2.488 1.153-3.157 1.153-.614 0-1.206-.236-2.715-.945L6.328 7.338c-.81-.384-1.319-.628-1.637-.838.318-.21.826-.454 1.637-.838l2.848-1.35Z" clip-rule="evenodd" opacity=".4"/>
  <path fill="#161C24" fill-rule="evenodd" d="M5.663 11.665a.75.75 0 0 1 1.006-.336l2 1A.75.75 0 0 1 8 13.671l-2-1a.75.75 0 0 1-.336-1.006Z" clip-rule="evenodd"/>
  <path fill="#161C24" d="m7.402 7.848 7.646-3.743 2.217 1.05-7.647 3.743-2.216-1.05Z"/>
</svg>
