<svg xmlns="http://www.w3.org/2000/svg" width="25" height="24" fill="none" viewBox="0 0 25 24">
  <path fill="#161C24" fill-rule="evenodd" d="M4.663 11.664a.75.75 0 0 1 1.006-.336l2 1A.75.75 0 1 1 7 13.67l-2-1a.75.75 0 0 1-.336-1.006Z" clip-rule="evenodd"/>
  <path fill="#161C24" d="m6.402 7.847 7.646-3.743 2.217 1.05-7.647 3.743-2.216-1.05Z"/>
  <path fill="#161C24" fill-rule="evenodd" d="M22.79 14.292a1 1 0 0 1 0 1.414L20.499 18l2.293 2.293a1 1 0 0 1-1.415 1.414l-2.293-2.293-2.292 2.293a1 1 0 0 1-1.415-1.414L17.67 18l-2.293-2.293a1 1 0 0 1 1.415-1.414l2.293 2.293 2.292-2.293a1 1 0 0 1 1.415 0Z" clip-rule="evenodd"/>
  <path fill="#161C24" fill-rule="evenodd" d="M21.084 12.707a2.47 2.47 0 0 0-.768.524l-1.232 1.232-1.233-1.232a2.5 2.5 0 0 0-3.535 3.536l1.232 1.232-1.232 1.232a2.501 2.501 0 0 0-.478 2.868c-.989.405-1.728.651-2.504.651-.973 0-1.887-.387-3.306-.986-1.893-.8-3.603-1.522-4.621-2.133-1.006-.604-1.824-1.35-1.824-2.47V6.501c0-.797.566-1.285 1.016-1.583.45-.297 1.089-.6 1.813-.943L7.524 2.5c1.565-.742 2.637-1.25 3.81-1.25 1.172 0 2.244.508 3.809 1.25l3.112 1.475c.725.343 1.364.646 1.813.943.45.298 1.015.786 1.015 1.582v6.207Zm-9.75-9.548c-.67 0-1.316.281-3.158 1.154L5.328 5.662c-.81.384-1.319.627-1.637.838.318.21.826.454 1.637.838l3.29 1.558c1.51.71 2.102.945 2.716.945.67 0 1.315-.281 3.157-1.154l2.848-1.35c.811-.383 1.319-.627 1.637-.837-.318-.21-.826-.454-1.637-.838l-3.29-1.558c-1.51-.71-2.102-.945-2.715-.945Z" clip-rule="evenodd" opacity=".4"/>
</svg>
