<svg xmlns="http://www.w3.org/2000/svg" width="25" height="24" fill="none" viewBox="0 0 25 24">
  <path fill="#161C24" d="M7.097 1.25h7.223c.635 0 1.11 0 1.52.12a2.95 2.95 0 0 1 2 1.999c.12.41.119.885.119 1.52v.223c0 .634 0 1.11-.12 1.52a2.95 2.95 0 0 1-2 1.999c-.409.12-.884.12-1.519.12H7.097c-.635 0-1.11 0-1.52-.12a2.95 2.95 0 0 1-1.999-2c-.12-.41-.12-.885-.12-1.52V4.89c0-.635 0-1.11.12-1.52a2.95 2.95 0 0 1 2-2c.409-.12.884-.12 1.52-.119Zm6.59 14h.043c.214 0 .411 0 .577.011.177.012.373.04.571.122.429.178.77.519.947.947.083.199.11.394.122.572.012.165.012.362.012.576v3.044c0 .214 0 .41-.012.576-.012.178-.04.373-.122.572a1.75 1.75 0 0 1-.947.947c-.198.082-.394.11-.571.122-.166.011-.363.011-.577.011h-.043c-.214 0-.411 0-.577-.011a1.781 1.781 0 0 1-.571-.122 1.75 1.75 0 0 1-.947-.947 1.784 1.784 0 0 1-.122-.572c-.011-.165-.011-.362-.011-.576v-3.044c0-.214 0-.41.01-.576a1.79 1.79 0 0 1 .123-.572 1.75 1.75 0 0 1 .947-.947c.198-.082.394-.11.571-.122.166-.011.362-.011.577-.011Z" opacity=".4"/>
  <path fill="#161C24" d="M17.94 6c.184.002.326.006.447.015.199.015.26.04.278.047.24.109.358.263.438.548.098.35.106.79.106 1.393 0 1.03-.012 1.314-.082 1.53-.097.299-.373.616-.96.94-.582.32-1.33.57-2.148.8l-.188.054c-.993.279-1.904.535-2.516 1.344-.334.442-.481.91-.548 1.411a10.02 10.02 0 0 0-.058 1.241 1.98 1.98 0 0 1 .401-.063c.165-.012.362-.012.576-.012h.044c.214 0 .411 0 .576.012.127.008.263.025.403.064.002-.441.01-.74.041-.979.035-.261.09-.374.16-.468.16-.21.354-.31 1.654-.679.838-.238 1.773-.537 2.567-.973.787-.434 1.576-1.08 1.899-2.077.18-.557.18-1.186.179-1.998v-.198c0-.533 0-1.239-.18-1.882-.204-.727-.652-1.429-1.541-1.83a2.762 2.762 0 0 0-.953-.22 9.373 9.373 0 0 0-.594-.02c.018.26.018.551.017.887v.223c0 .337 0 .629-.017.89Z"/>
</svg>
