<svg xmlns="http://www.w3.org/2000/svg" width="25" height="24" fill="none" viewBox="0 0 25 24">
  <path fill="#161C24" d="M1.583 12c0-5.937 4.813-10.75 10.75-10.75 5.938 0 10.75 4.813 10.75 10.75 0 .975-.094 1.955-.57 2.741-.51.844-1.368 1.33-2.573 1.502-1.22.174-2.264.174-3.114.174h-.011c-.889 0-1.471.006-1.92.137-.373.108-.65.3-.89.781-.2.4-.193.656-.14.856.065.247.215.483.459.844l.032.048c.296.437.728 1.076.728 1.917 0 .414-.11.798-.368 1.107-.251.3-.577.453-.865.534-.444.124-.982.116-1.342.11l-.175-.001c-5.938 0-10.75-4.813-10.75-10.75Z" opacity=".4"/>
  <path fill="#161C24" fill-rule="evenodd" d="M6.368 15.261a1 1 0 0 1 .704-1.224l.008-.003a1 1 0 0 1 .515 1.932l-.008.003a.995.995 0 0 1-1.22-.708Z" clip-rule="evenodd"/>
  <path fill="#161C24" d="M7.583 8.5a2.25 2.25 0 1 1 4.5 0 2.25 2.25 0 0 1-4.5 0Zm7.001 1a2.25 2.25 0 1 1 4.5 0 2.25 2.25 0 0 1-4.5 0Z"/>
</svg>
