<svg xmlns="http://www.w3.org/2000/svg" width="25" height="24" fill="none" viewBox="0 0 25 24">
  <path fill="#161C24" d="M12.385 1.75c2.071 0 3.695 0 4.973.155 1.306.159 2.35.49 3.21 1.223.229.195.442.409.638.638.733.859 1.064 1.904 1.222 3.21.155 1.278.155 2.901.155 4.973v.102c0 2.072 0 3.695-.155 4.973-.158 1.306-.489 2.351-1.222 3.21-.196.23-.41.443-.638.638-.86.734-1.904 1.064-3.21 1.223-1.278.155-2.902.155-4.973.155h-.103c-2.071 0-3.695 0-4.973-.155-1.306-.159-2.35-.49-3.21-1.223a5.743 5.743 0 0 1-.638-.638c-.733-.859-1.064-1.904-1.222-3.21-.156-1.278-.156-2.901-.155-4.973v-.102c0-2.072 0-3.695.155-4.973.158-1.306.489-2.351 1.222-3.21a5.75 5.75 0 0 1 .638-.638c.86-.734 1.904-1.064 3.21-1.223 1.278-.155 2.902-.155 4.973-.155h.103Z" opacity=".4"/>
  <path fill="#161C24" fill-rule="evenodd" d="M10.653 6h2.68a4 4 0 1 1 0 8h-3v4a1 1 0 1 1-2 0V8.32c0-.282-.002-.629.099-.938a2 2 0 0 1 1.284-1.284c.309-.1.655-.099.937-.098Zm-.32 6h3a2 2 0 1 0 0-4h-2.6a8.097 8.097 0 0 0-.394.006v.011a8.225 8.225 0 0 0-.005.383V12Z" clip-rule="evenodd"/>
</svg>
