<svg xmlns="http://www.w3.org/2000/svg" width="25" height="24" fill="none" viewBox="0 0 25 24">
  <path fill="#161C24" fill-rule="evenodd" d="M10.334 19.75a1 1 0 0 1 1-1h6a1 1 0 1 1 0 2h-6a1 1 0 0 1-1-1Z" clip-rule="evenodd"/>
  <path fill="#161C24" d="m14.487 5.982-7.784 7.785c-.969.968-1.56 1.56-1.968 2.288-.227.407-.425 1.023-.6 1.654-.182.65-.36 1.396-.529 2.109l-.002.009a.75.75 0 0 0 .903.903l.009-.002c.713-.17 1.46-.348 2.108-.528.631-.176 1.248-.374 1.654-.601.729-.407 1.32-1 2.29-1.968l7.783-7.784-3.864-3.865Z" opacity=".4"/>
  <path fill="#161C24" d="m19.413 8.786.87-.872A2.732 2.732 0 1 0 16.42 4.05l-.87.872 3.864 3.864Z"/>
</svg>
