<svg xmlns="http://www.w3.org/2000/svg" width="25" height="24" fill="none" viewBox="0 0 25 24">
  <path fill="#161C24" d="m19.729 8.636-4.031-4.031-6.13 6.129a4.71 4.71 0 0 0-1.238 2.188l-.724 2.896a.75.75 0 0 0 .91.91l2.895-.724a4.71 4.71 0 0 0 2.188-1.24l6.13-6.128Z" opacity=".4"/>
  <path fill="#161C24" fill-rule="evenodd" d="M10.786 4.25h.061a.972.972 0 0 1 0 1.944c-1.621 0-2.752.002-3.616.104-.841.1-1.3.283-1.637.558a2.917 2.917 0 0 0-.404.405c-.276.336-.459.795-.558 1.637-.102.863-.104 1.994-.104 3.616V13c0 1.86.002 3.159.134 4.138.128.95.361 1.454.72 1.813.359.36.863.593 1.814.72.98.133 2.277.135 4.138.135h.486c1.621 0 2.752-.002 3.616-.104.841-.1 1.3-.283 1.637-.559.147-.12.283-.256.404-.404.276-.336.459-.795.558-1.637.102-.863.104-1.994.104-3.616a.972.972 0 0 1 1.945 0v.062c0 1.546 0 2.792-.118 3.782-.12 1.026-.379 1.903-.986 2.643a4.855 4.855 0 0 1-.674.674c-.74.607-1.617.865-2.642.986-.99.117-2.237.117-3.783.117h-.619c-1.772 0-3.201 0-4.325-.151-1.167-.157-2.15-.492-2.93-1.273-.78-.78-1.116-1.762-1.272-2.93-.152-1.123-.152-2.552-.151-4.325v-.619c0-1.546 0-2.792.117-3.782.12-1.026.379-1.903.986-2.643.202-.246.428-.472.674-.674.74-.607 1.617-.865 2.642-.986.99-.117 2.237-.117 3.783-.117Z" clip-rule="evenodd"/>
  <path fill="#161C24" d="M21.249 3.085a2.85 2.85 0 0 0-4.031 0l-.46.46 4.031 4.03.46-.46a2.85 2.85 0 0 0 0-4.03Z"/>
</svg>
