<svg xmlns="http://www.w3.org/2000/svg" width="25" height="24" fill="none" viewBox="0 0 25 24">
  <path fill="#161C24" d="M14.514 2.645c.986.31 1.929.764 2.796 1.353a10.878 10.878 0 0 1 3.957 4.898 11.064 11.064 0 0 1-.373 9.161c-.253.498-.52 1.026-.802 1.377-.333.415-.747.694-1.326.788-.617.102-1.128-.084-1.592-.405-.411-.283-.843-.713-1.327-1.195l-3.345-3.332c-.79-.785-1.335-1.329-1.628-2.036-.292-.706-.291-1.48-.29-2.603V5.893c0-.69 0-1.302.087-1.797.1-.556.324-1.051.822-1.425.47-.351.956-.459 1.487-.41.446.042 1.008.218 1.534.384Z" opacity=".4"/>
  <path fill="#161C24" fill-rule="evenodd" d="M9.246 5.239a.75.75 0 0 1-.441.964 7.25 7.25 0 1 0 5.247 13.52.75.75 0 1 1 .563 1.39A8.75 8.75 0 1 1 8.282 4.797a.75.75 0 0 1 .964.443Z" clip-rule="evenodd"/>
</svg>
