<svg xmlns="http://www.w3.org/2000/svg" width="25" height="24" fill="none" viewBox="0 0 25 24">
  <path fill="#161C24" d="M19.581 2.526a12.312 12.312 0 0 1 2.226 2.226c.4.517.81 1.048 1.03 1.51.256.537.33 1.083.14 1.707-.201.661-.633 1.078-1.191 1.387-.5.276-1.165.499-1.926.754l-2.733.916c-.904.304-1.663.558-2.257.665-.602.108-1.296.115-1.82-.408-.523-.524-.516-1.218-.408-1.82.107-.594.362-1.353.665-2.257l.916-2.733c.255-.76.478-1.426.754-1.925.309-.559.726-.99 1.387-1.191.624-.19 1.17-.116 1.708.14.461.22.992.63 1.51 1.029Z"/>
  <path fill="#161C24" d="M13.652 2.41c-.59-.105-1.198-.16-1.818-.16-5.661 0-10.25 4.59-10.25 10.25s4.589 10.25 10.25 10.25c5.66 0 10.25-4.59 10.25-10.25 0-.62-.056-1.229-.161-1.82-.502.225-1.064.414-1.594.591l-2.879.965c-.843.283-1.674.562-2.36.685-.698.126-1.945.225-2.924-.754-.98-.98-.88-2.226-.755-2.925.124-.685.402-1.516.685-2.36l.966-2.878c.177-.53.365-1.092.59-1.593Z" opacity=".4"/>
</svg>
