<svg xmlns="http://www.w3.org/2000/svg" width="25" height="24" fill="none" viewBox="0 0 25 24">
  <path fill="#161C24" fill-rule="evenodd" d="M6.226 15.299a1 1 0 0 1-.441 1.343c-1.185.6-1.452 1.152-1.452 1.424 0 .154.072.395.403.715.334.323.87.66 1.612.964 1.482.607 3.597 1.005 5.986 1.005 2.388 0 4.503-.398 5.985-1.005.743-.304 1.278-.64 1.612-.964.33-.32.402-.561.402-.715 0-.271-.266-.824-1.45-1.424a1 1 0 0 1 .902-1.784c1.317.666 2.549 1.724 2.549 3.208 0 .863-.432 1.591-1.012 2.152-.577.559-1.36 1.016-2.246 1.378-1.776.727-4.16 1.154-6.742 1.154-2.583 0-4.967-.427-6.743-1.154-.886-.362-1.669-.819-2.246-1.378-.58-.561-1.012-1.289-1.012-2.152 0-1.484 1.232-2.542 2.55-3.208a1 1 0 0 1 1.343.44Z" clip-rule="evenodd"/>
  <path fill="#161C24" fill-rule="evenodd" d="M12.334 1.25a4.75 4.75 0 0 0-1.236 9.338.314.314 0 0 1 .236.3v6.862a1 1 0 1 0 2 0v-6.863c0-.141.099-.263.235-.3a4.752 4.752 0 0 0-1.236-9.337Z" clip-rule="evenodd" opacity=".4"/>
</svg>
