<svg xmlns="http://www.w3.org/2000/svg" width="25" height="24" fill="none" viewBox="0 0 25 24">
  <path fill="#161C24" d="M18.043 2.553a6.197 6.197 0 0 1 3.737 3.738c.107.295.233.644.28.95a2.14 2.14 0 0 1-.118 1.083c-.292.81-.944 1.172-1.663 1.571l-1.418.791c-.513.286-.852.476-1.093.643-.235.162-.301.253-.329.307-.015.028-.06.166-.048.615.011.423.066.998.145 1.815.127 1.318-.092 2.624-.852 3.84-.129.206-.29.465-.47.657a2.094 2.094 0 0 1-.775.516c-.322.13-.615.183-.93.169-.27-.012-.578-.082-.836-.141-1.975-.449-3.861-1.595-5.356-3.09-1.496-1.495-2.642-3.381-3.09-5.357-.06-.257-.13-.566-.141-.835a2.138 2.138 0 0 1 .169-.93c.128-.316.289-.562.516-.775.192-.18.45-.342.656-.47 1.2-.75 2.495-.98 3.803-.865.836.074 1.425.126 1.857.135.215.004.486.023.627-.05.052-.028.143-.095.306-.331.167-.242.357-.582.644-1.096l.774-1.388c.4-.72.761-1.372 1.572-1.663a2.14 2.14 0 0 1 1.082-.118c.306.046.655.172.95.28Z" opacity=".4"/>
  <path fill="#161C24" d="m7.637 15.281-4.76 4.761a1 1 0 1 0 1.414 1.414l4.76-4.76a12.802 12.802 0 0 1-1.414-1.415Z"/>
</svg>
