<svg xmlns="http://www.w3.org/2000/svg" width="25" height="24" fill="none" viewBox="0 0 25 24">
  <path fill="#161C24" d="m11.648 1.645.054.015c3.541 1.017 6.631 3.144 8.902 5.99l.037.047c.443.555.835 1.046 1.088 1.513.284.524.417 1.057.324 1.688-.098.657-.425 1.144-.887 1.576a8.21 8.21 0 0 1-.855.678c-.245.173-.367.26-.495.233-.128-.027-.208-.16-.368-.426-.913-1.523-1.86-2.733-2.565-3.468C14.87 7.233 12.32 5.54 9.451 4.664a69.616 69.616 0 0 0-1.846-.535c-.287-.08-.43-.119-.49-.235-.061-.115-.013-.25.082-.52.07-.2.143-.385.22-.553.242-.522.561-.957 1.085-1.255.505-.286 1.001-.354 1.537-.298.474.05 1.01.205 1.609.377Z"/>
  <g opacity=".4">
    <path fill="#161C24" fill-rule="evenodd" d="M18.424 14.332c-.027.116-.136.19-.354.336l-3.214 2.162c-.203.136-.305.205-.394.18-.09-.026-.144-.148-.255-.391-.52-1.148-1.624-1.975-2.953-1.975-1.865 0-3.277 1.616-3.277 3.484 0 .834.277 1.609.748 2.216.15.195.226.292.212.379-.015.087-.11.147-.298.268-.794.51-1.485.925-2.084 1.217-1.077.527-2.21.84-3.134.122-.907-.704-.932-1.882-.743-3.093.196-1.253.692-2.939 1.324-5.085l.135-.46c.019-.061.088-.091.15-.072.274.084.564.129.863.129 1.771 0 3.107-1.538 3.107-3.305 0-1.451-.888-2.729-2.183-3.157a.05.05 0 0 1-.033-.06l.372-1.263c.078-.265.117-.398.224-.458s.24-.023.505.05c.588.161 1.218.342 1.872.542 2.592.791 4.913 2.328 6.76 4.4l.009.01.01.01c.652.68 1.575 1.862 2.46 3.363.131.223.197.335.17.45Zm-5.49-1.833a1 1 0 1 0 0-2h-.009a1 1 0 0 0 0 2h.01Z" clip-rule="evenodd"/>
    <path fill="#161C24" d="M4.727 12.186c-.07-.022-.119-.093-.098-.163l.858-2.915c.057-.191.085-.287.18-.321.096-.035.166.013.307.108.455.307.783.87.783 1.549 0 1.055-.776 1.805-1.607 1.805-.148 0-.29-.022-.423-.063Zm5.556 7.602a.141.141 0 0 0 .161.01l.472-.318 1.934-1.3a.682.682 0 0 0 .143-.11.147.147 0 0 0 .038-.093c.005-.033-.01-.112-.04-.269-.18-.935-.926-1.564-1.737-1.564-.927 0-1.777.831-1.777 1.984 0 .709.331 1.313.806 1.66Z"/>
  </g>
  <path fill="#161C24" d="M4.725 12.188c-.07-.022-.118-.093-.098-.163l.858-2.915c.057-.191.085-.287.18-.322.096-.034.167.014.307.109.455.307.783.87.783 1.548 0 1.056-.776 1.806-1.607 1.806-.147 0-.289-.022-.423-.063Zm5.555 7.602a.141.141 0 0 0 .163.009l.47-.317 1.935-1.3c.082-.056.123-.083.143-.11a.147.147 0 0 0 .039-.093 1.362 1.362 0 0 0-.041-.269c-.18-.936-.926-1.565-1.737-1.565-.927 0-1.777.832-1.777 1.985 0 .709.332 1.313.806 1.66Z"/>
  <path fill="#161C24" fill-rule="evenodd" d="M12.932 12.5a1 1 0 1 0 0-2h-.009a1 1 0 0 0 0 2h.01Z" clip-rule="evenodd"/>
</svg>
