<svg xmlns="http://www.w3.org/2000/svg" width="25" height="24" fill="none" viewBox="0 0 25 24">
  <path fill="#161C24" fill-rule="evenodd" d="M8.298 16.028c-.19-.026-.465-.028-.964-.028h-.5c-.736 0-1.187.002-1.513.046-.287.039-.335.093-.34.1h-.002c-.006.007-.06.055-.1.341-.043.327-.045.778-.045 1.513v3h3.5v-4c0-.5-.003-.774-.028-.964a.77.77 0 0 0-.001-.007l-.007-.001Zm.266-1.982c.383.051.82.177 1.184.54.363.363.489.8.54 1.184.046.34.046.752.046 1.176V22a1 1 0 0 1-1 1h-5.5a1 1 0 0 1-1-1v-4.062c0-.654 0-1.241.063-1.717.07-.52.232-1.052.669-1.489.436-.436.969-.598 1.488-.668C5.53 14 6.118 14 6.772 14h.616c.424 0 .836 0 1.176.046ZM17.28 16h.615c.654 0 1.242 0 1.718.064.519.07 1.052.232 1.488.668.437.437.599.97.669 1.489.064.476.064 1.063.064 1.717V22a1 1 0 0 1-1 1h-5.5a1 1 0 0 1-1-1v-3.054c0-.425 0-.837.045-1.177.052-.383.177-.82.54-1.183.364-.363.8-.489 1.184-.54.34-.046.752-.046 1.176-.046Zm-.918 2.029v.007c-.026.19-.028.464-.028.964v2h3.5v-1c0-.735-.003-1.186-.046-1.513-.04-.286-.094-.334-.1-.34l-.001-.001c-.006-.007-.054-.061-.34-.1-.327-.044-.778-.046-1.514-.046h-.5c-.5 0-.773.002-.963.028h-.008Z" clip-rule="evenodd" opacity=".4"/>
  <path fill="#161C24" fill-rule="evenodd" d="M1.333 22a1 1 0 0 1 1-1h20a1 1 0 1 1 0 2h-20a1 1 0 0 1-1-1Z" clip-rule="evenodd"/>
  <path fill="#161C24" d="M12.272 12c-.654 0-1.242 0-1.718.064-.519.07-1.052.232-1.488.668-.437.437-.599.97-.669 1.489-.064.476-.064 1.063-.063 1.717V22a1 1 0 0 0 1 1h6a1 1 0 0 0 1-1v-6.062c0-.654 0-1.241-.064-1.717-.07-.52-.232-1.052-.669-1.489-.436-.436-.969-.598-1.488-.668C13.637 12 13.049 12 12.395 12h-.123Z"/>
  <path fill="#161C24" d="M12.332 1.25c.672 0 1.122.503 1.364.995l.696 1.403.006.006a.226.226 0 0 0 .035.026l.008.004 1.255.21c.54.091 1.128.381 1.327 1.004.198.623-.112 1.2-.5 1.588v.001l-.976.984a.198.198 0 0 0-.02.07l.28 1.217c.126.551.138 1.317-.456 1.754-.598.44-1.326.193-1.811-.096l-1.177-.702-.008-.002a.191.191 0 0 0-.055.002l-1.175.702c-.487.29-1.213.534-1.81.095-.593-.437-.585-1.2-.458-1.754l.28-1.217a.205.205 0 0 0-.02-.07l-.977-.985c-.385-.388-.694-.964-.497-1.585.197-.624.785-.914 1.326-1.005l1.25-.21.008-.004a.248.248 0 0 0 .035-.026l.006-.006.696-1.405h.001c.245-.492.696-.994 1.367-.994Z" opacity=".4"/>
</svg>
