<svg xmlns="http://www.w3.org/2000/svg" width="25" height="24" fill="none" viewBox="0 0 25 24">
  <path fill="#161C24" d="M19.584 11.477c0 .08 0 .121-.015.158a.422.422 0 0 1-.1.123l-.597.597-1.752 1.753a.422.422 0 0 0-.107.13.417.417 0 0 0-.01.167l.029.59c.023.453.047.936.051 1.417.008.975-.065 2.031-.454 2.97-.294.71-.767 1.295-1.244 1.793-.24.25-.49.488-.726.711-.202.19-.495.466-.674.644a.75.75 0 0 1-1.22-.235l-1.357-3.166a.453.453 0 0 0-.032-.068.2.2 0 0 0-.103-.08.434.434 0 0 0-.155-.015l-.03.008c-.244.062-.956.23-1.11.26a6.119 6.119 0 0 1-.551.094c-.18.018-.386.02-.607-.048a1.525 1.525 0 0 1-.532-.297 6.143 6.143 0 0 1-.407-.384l-2.146-2.146a6.104 6.104 0 0 1-.384-.408 1.523 1.523 0 0 1-.298-.531 1.524 1.524 0 0 1-.047-.607c.017-.169.055-.36.094-.552.03-.154.197-.866.26-1.11l.007-.03a.192.192 0 0 0 .003-.05c0-.008-.002-.015-.004-.03a.444.444 0 0 0-.014-.074.2.2 0 0 0-.08-.103.44.44 0 0 0-.067-.033l-3.167-1.357a.75.75 0 0 1-.235-1.22c.179-.178.455-.472.644-.673a18.5 18.5 0 0 1 .711-.726c.499-.477 1.084-.95 1.793-1.244.94-.39 1.996-.462 2.97-.454.482.003.964.028 1.417.05l.59.029a.415.415 0 0 0 .167-.01c.04-.015.07-.046.13-.106l1.753-1.753.598-.595a.421.421 0 0 1 .122-.1c.037-.016.077-.016.158-.016h1.467c1.165.036 2.11.28 2.857.684.187.1.28.151.295.25.014.1-.065.18-.225.34l-.946.946a.75.75 0 1 0 1.06 1.06l.945-.945c.16-.16.24-.24.34-.225.099.014.15.108.25.295.412.762.65 1.713.685 2.856v1.466Z" opacity=".4"/>
  <path fill="#161C24" d="M22.848 1.51c-.22-.23-.703-.26-.703-.26-1.522 0-2.371 0-3.188.128a10.649 10.649 0 0 0-3.58 1.24c-.408.23-.612.345-.586.485.025.14.272.179.766.254 1.522.234 2.78.834 3.717 1.795.923.945 1.479 2.184 1.701 3.624.077.494.115.74.255.766.14.025.255-.179.484-.587a10.649 10.649 0 0 0 1.241-3.579c.128-.817.128-1.666.128-3.187 0 0-.022-.457-.235-.68Z"/>
  <path fill="#161C24" fill-rule="evenodd" d="m12.371 21.376-.848-1.98-.897.897a1 1 0 0 0 1.415 1.414l.33-.33ZM4.937 12.81l-1.98-.848-.33.33a1 1 0 1 0 1.414 1.415l.896-.897Z" clip-rule="evenodd"/>
</svg>
