<svg xmlns="http://www.w3.org/2000/svg" width="25" height="24" fill="none" viewBox="0 0 25 24">
  <path fill="#161C24" d="M20.954 1.774c.398.05.768.191 1.09.514.323.322.464.692.514 1.09.043.337.02.784 0 1.19-.119 2.441-.855 4.831-2.698 6.674l-1.486 1.486c-.648.648-.934.946-1.075 1.222-.098.19-.145.412-.037.984.12.477.269 1.073.27 1.63.001.614-.169 1.253-.71 1.795-.517.516-1.124.89-1.833.89-.708 0-1.315-.374-1.832-.89l-7.183-7.184c-.517-.516-.89-1.124-.89-1.832s.373-1.316.89-1.832c.541-.542 1.18-.712 1.794-.71.557 0 1.154.15 1.63.27.572.108.794.06.985-.038.275-.14.573-.427 1.222-1.075l1.485-1.486c1.843-1.842 4.233-2.579 6.674-2.698.407-.02.853-.042 1.19 0Z" opacity=".4"/>
  <path fill="#161C24" fill-rule="evenodd" d="M16.33 7a1 1 0 0 1 1-1h.009a1 1 0 1 1 0 2h-.01a1 1 0 0 1-1-1ZM5.605 13.026a.95.95 0 0 1 0 1.344l-1.9 1.9a.95.95 0 1 1-1.343-1.344l1.9-1.9a.95.95 0 0 1 1.343 0Zm1.507 2.85a.95.95 0 1 1 1.343 1.344l-4.75 4.75a.95.95 0 1 1-1.343-1.344l4.75-4.75Zm4.193 2.85a.95.95 0 0 1 0 1.344l-1.9 1.9a.95.95 0 1 1-1.343-1.344l1.9-1.9a.95.95 0 0 1 1.343 0Z" clip-rule="evenodd"/>
</svg>
