<svg xmlns="http://www.w3.org/2000/svg" width="25" height="24" fill="none" viewBox="0 0 25 24">
  <path fill="#161C24" fill-rule="evenodd" d="M14.858 1.525a.937.937 0 0 1 1.326 0l2.15 2.15 2.15-2.15a.937.937 0 1 1 1.325 1.326L19.659 5l2.15 2.149a.938.938 0 0 1-1.326 1.326l-2.15-2.15-2.15 2.15a.937.937 0 1 1-1.325-1.326L17.008 5l-2.15-2.15a.938.938 0 0 1 0-1.325Z" clip-rule="evenodd"/>
  <path fill="#161C24" d="M2.583 19a3.75 3.75 0 1 1 7.5 0 3.75 3.75 0 0 1-7.5 0Z"/>
  <path fill="#161C24" fill-rule="evenodd" d="M4.333 8.5a4.5 4.5 0 0 1 4.5-4.5h3.5a1 1 0 1 1 0 2h-3.5a2.5 2.5 0 0 0 0 5h7a4.5 4.5 0 1 1 0 9h-3.5a1 1 0 1 1 0-2h3.5a2.5 2.5 0 0 0 0-5h-7a4.5 4.5 0 0 1-4.5-4.5Z" clip-rule="evenodd" opacity=".4"/>
</svg>
