<svg xmlns="http://www.w3.org/2000/svg" width="25" height="24" fill="none" viewBox="0 0 25 24">
  <path fill="#161C24" fill-rule="evenodd" d="M18.334 1.25c-1.863 0-3.64 1.114-4.386 2.879-.698 1.652-.31 3.069.457 4.242.614.94 1.51 1.778 2.277 2.496l.416.39.002.002a1.794 1.794 0 0 0 2.468 0l.394-.368c.774-.723 1.682-1.569 2.303-2.52.765-1.174 1.152-2.592.455-4.242-.746-1.765-2.523-2.879-4.386-2.879Zm-.008 3c-.963 0-1.742.784-1.742 1.75s.78 1.75 1.742 1.75h.015c.962 0 1.742-.784 1.742-1.75s-.78-1.75-1.742-1.75h-.015Z" clip-rule="evenodd"/>
  <path fill="#161C24" d="M1.583 19a3.75 3.75 0 1 1 7.5 0 3.75 3.75 0 0 1-7.5 0Z"/>
  <path fill="#161C24" fill-rule="evenodd" d="M5.333 10c0-2.348 2.165-4 4.5-4h1.5a1 1 0 1 1 0 2h-1.5c-1.53 0-2.5 1.034-2.5 2s.97 2 2.5 2h3c2.336 0 4.5 1.652 4.5 4s-2.164 4-4.5 4h-1.5a1 1 0 1 1 0-2h1.5c1.531 0 2.5-1.035 2.5-2 0-.966-.969-2-2.5-2h-3c-2.335 0-4.5-1.652-4.5-4Z" clip-rule="evenodd" opacity=".4"/>
</svg>
