<svg xmlns="http://www.w3.org/2000/svg" width="25" height="24" fill="none" viewBox="0 0 25 24">
  <path fill="#161C24" fill-rule="evenodd" d="M9.334 14.4a6.4 6.4 0 1 1 11.577 3.763l2.13 2.13a1 1 0 0 1-1.415 1.414l-2.13-2.13A6.4 6.4 0 0 1 9.334 14.4Zm6.4-4.4a4.4 4.4 0 1 0 0 8.8 4.4 4.4 0 0 0 0-8.8Z" clip-rule="evenodd"/>
  <path fill="#161C24" fill-rule="evenodd" d="M1.333 10a1 1 0 0 1 1-1h5a1 1 0 1 1 0 2h-5a1 1 0 0 1-1-1Zm0 7a1 1 0 0 1 1-1h5a1 1 0 1 1 0 2h-5a1 1 0 0 1-1-1Zm0-14a1 1 0 0 1 1-1h17a1 1 0 1 1 0 2h-17a1 1 0 0 1-1-1Z" clip-rule="evenodd" opacity=".4"/>
</svg>
