<svg xmlns="http://www.w3.org/2000/svg" width="25" height="24" fill="none" viewBox="0 0 25 24">
  <path fill="#161C24" fill-rule="evenodd" d="M1.626 1.293a1 1 0 0 1 1.415 0l20 20a1 1 0 0 1-1.415 1.414l-20-20a1 1 0 0 1 0-1.414Z" clip-rule="evenodd"/>
  <path fill="#161C24" d="M20.475 16.606c.953-1.51 1.609-3.316 1.609-5.423V8.24c0-.785 0-1.433-.055-1.95-.057-.535-.18-1.031-.501-1.456-.331-.438-.823-.7-1.366-.91-.54-.21-1.253-.412-2.135-.663a24.763 24.763 0 0 1-3.189-1.157 29.858 29.858 0 0 0-1.42-.605c-.367-.14-.73-.248-1.084-.248-.355 0-.717.109-1.086.248-.372.14-.838.347-1.419.605-.764.34-1.746.723-2.81 1.046l13.456 13.457Z" opacity=".4"/>
  <path fill="#161C24" d="M4.328 3.994c-.472.199-.894.448-1.189.839-.32.425-.444.92-.5 1.456-.056.517-.056 1.165-.055 1.95v2.944c0 3.056 1.379 5.479 3.046 7.285 1.662 1.8 3.642 3.026 4.947 3.714l.063.034c.556.293 1.01.534 1.694.534.683 0 1.137-.24 1.693-.535l.063-.033c1.275-.673 3.195-1.858 4.834-3.592L4.328 3.994Z"/>
</svg>
