<svg xmlns="http://www.w3.org/2000/svg" width="25" height="24" fill="none" viewBox="0 0 25 24">
  <path fill="#161C24" d="M20.03 1.783c.7.068 1.433.256 1.9.76.454.488.603 1.223.642 1.922.041.737-.032 1.617-.182 2.565-.299 1.9-.92 4.187-1.665 6.38-.745 2.193-1.626 4.325-2.458 5.915-.414.79-.83 1.476-1.226 1.97-.198.246-.41.472-.636.64-.214.159-.527.33-.903.314-.604-.027-1.063-.358-1.4-.796-.324-.42-.58-.988-.806-1.646-.455-1.318-.883-3.262-1.434-5.768-.118-.538-.218-.721-.307-.817-.086-.093-.25-.2-.757-.342a23.123 23.123 0 0 0-1.384-.306l-.586-.12c-.851-.176-1.841-.394-2.783-.675-.932-.278-1.869-.632-2.588-1.103-.705-.461-1.367-1.148-1.373-2.12-.003-.37.17-.678.336-.894.173-.226.403-.439.655-.636.506-.397 1.202-.81 2.005-1.218 1.613-.82 3.766-1.675 5.976-2.386 2.208-.711 4.506-1.289 6.409-1.538.948-.125 1.83-.172 2.565-.1Z" opacity=".4"/>
  <path fill="#161C24" d="M11.834 13.913c-.106-.442-.197-.603-.279-.691-.086-.093-.249-.2-.756-.342a10.784 10.784 0 0 0-.614-.146l4.441-4.441a1 1 0 0 1 1.415 1.414l-4.207 4.206Z"/>
</svg>
