<svg xmlns="http://www.w3.org/2000/svg" width="25" height="24" fill="none" viewBox="0 0 25 24">
  <path fill="#161C24" d="M5.76 10.25h13.147c.393 0 .696 0 .963.053a2.75 2.75 0 0 1 2.16 2.16c.054.268.054.57.054.964 0 .392 0 .842-.053 1.11a2.75 2.75 0 0 1-2.16 2.16c-.268.053-.571.053-.964.053H5.76c-.392 0-.695 0-.963-.053a2.75 2.75 0 0 1-2.16-2.16c-.054-.268-.054-.571-.053-.964 0-.393 0-.842.052-1.11a2.75 2.75 0 0 1 2.161-2.16c.268-.054.57-.053.963-.053Zm0-8h13.147c.393 0 .696 0 .963.053a2.75 2.75 0 0 1 2.16 2.16c.054.268.054.571.054.964 0 .392 0 .842-.053 1.11a2.75 2.75 0 0 1-2.16 2.16c-.268.053-.571.053-.964.053H5.76c-.392 0-.695 0-.963-.053a2.75 2.75 0 0 1-2.16-2.16c-.054-.268-.054-.57-.053-.964 0-.392 0-.842.052-1.11a2.75 2.75 0 0 1 2.161-2.16c.268-.053.57-.053.963-.053Z" opacity=".4"/>
  <path fill="#161C24" fill-rule="evenodd" d="M5.583 13.5a.75.75 0 0 1 .75-.75h.01a.75.75 0 0 1 0 1.5h-.01a.75.75 0 0 1-.75-.75Zm3.001 0a.75.75 0 0 1 .75-.75h.01a.75.75 0 0 1 0 1.5h-.01a.75.75 0 0 1-.75-.75Zm3.75 4.75a1 1 0 0 1 1 1v.5h6a1 1 0 1 1 0 2h-14a1 1 0 1 1 0-2h6v-.5a1 1 0 0 1 1-1ZM5.583 5.5a.75.75 0 0 1 .75-.75h.01a.75.75 0 0 1 0 1.5h-.01a.75.75 0 0 1-.75-.75Zm3.001 0a.75.75 0 0 1 .75-.75h.01a.75.75 0 0 1 0 1.5h-.01a.75.75 0 0 1-.75-.75Z" clip-rule="evenodd"/>
</svg>
