<svg xmlns="http://www.w3.org/2000/svg" width="25" height="24" fill="none" viewBox="0 0 25 24">
  <path fill="#161C24" fill-rule="evenodd" d="M5.25 2.25h14.167c.38 0 .71 0 .998.077a2.25 2.25 0 0 1 1.591 1.591c.078.29.078.618.077.998 0 .381.001.878-.076 1.167a2.25 2.25 0 0 1-1.591 1.59c-.29.078-.618.078-.999.077H5.249c-.38 0-.71.001-.998-.076A2.25 2.25 0 0 1 2.66 6.083c-.078-.29-.077-.786-.077-1.167 0-.38 0-.709.077-.998a2.25 2.25 0 0 1 1.59-1.591c.29-.077.618-.077 1-.077Zm0 7h14.167c.38 0 .71 0 .998.077a2.25 2.25 0 0 1 1.591 1.591c.078.29.078.618.077.998 0 .381.001.877-.076 1.167a2.25 2.25 0 0 1-1.591 1.59c-.29.078-.618.078-.999.077H5.249c-.38 0-.71.001-.998-.076a2.25 2.25 0 0 1-1.591-1.591c-.078-.29-.077-.786-.077-1.167 0-.38 0-.709.077-.998a2.25 2.25 0 0 1 1.59-1.591c.29-.077.618-.077 1-.077Zm14.167 7H5.249c-.38 0-.71 0-.998.077a2.25 2.25 0 0 0-1.591 1.591c-.078.29-.077.618-.077.998 0 .381 0 .878.077 1.167a2.25 2.25 0 0 0 1.59 1.59c.29.078.618.078 1 .077h14.167c.38 0 .71.001.998-.076a2.25 2.25 0 0 0 1.591-1.591c.078-.29.078-.786.077-1.167 0-.38.001-.709-.076-.998a2.25 2.25 0 0 0-1.591-1.591c-.29-.078-.618-.077-.999-.077Z" clip-rule="evenodd" opacity=".4"/>
  <path fill="#161C24" fill-rule="evenodd" d="M6.333 4.25a.75.75 0 1 0 0 1.5h.01a.75.75 0 1 0 0-1.5h-.01Zm3 0a.75.75 0 1 0 0 1.5h.01a.75.75 0 1 0 0-1.5h-.01ZM5.583 12a.75.75 0 0 1 .75-.75h.01a.75.75 0 0 1 0 1.5h-.01a.75.75 0 0 1-.75-.75Zm3.75-.75a.75.75 0 0 0 0 1.5h.01a.75.75 0 0 0 0-1.5h-.01ZM5.583 19a.75.75 0 0 1 .75-.75h.01a.75.75 0 0 1 0 1.5h-.01a.75.75 0 0 1-.75-.75Zm3.75-.75a.75.75 0 0 0 0 1.5h.01a.75.75 0 0 0 0-1.5h-.01Z" clip-rule="evenodd"/>
</svg>
