<svg xmlns="http://www.w3.org/2000/svg" width="25" height="24" fill="none" viewBox="0 0 25 24">
  <path fill="#161C24" d="M10.931 22.75a1.74 1.74 0 0 1-.848-.303 1.735 1.735 0 0 1-.555-.707c-.107-.228-.643-1.829-.643-1.829s-.262-.443-.477-.584c-.423-.278-.849-.338-1.127-.278 0 0-1.881.53-2.147.572-.295.047-.619.053-.953-.082-.334-.136-.562-.365-.74-.604L2 16.453a1.731 1.731 0 0 1-.16-.89c.036-.337.179-.606.343-.836.147-.207 1.39-1.59 1.605-1.829 0 0 .26-.399.26-.898 0-.585-.26-.898-.26-.898S2.331 9.48 2.184 9.273c-.164-.23-.307-.499-.342-.836-.036-.338.047-.63.16-.89.101-.232 1.438-2.482 1.438-2.482.18-.24.407-.468.741-.604.334-.135.658-.13.953-.082.266.042 1.817.478 2.147.571 0 0 .53.115 1.127-.277.215-.14.382-.345.477-.584 0 0 .536-1.6.643-1.83a1.73 1.73 0 0 1 .555-.706 1.74 1.74 0 0 1 .848-.303h2.805c.28.032.573.106.848.303.274.197.437.452.555.707.107.228.643 1.829.643 1.829.095.24.262.443.477.584.597.392 1.127.277 1.127.277.33-.093 1.881-.53 2.147-.571.295-.047.619-.053.953.082.334.136.561.365.74.604 0 0 1.338 2.25 1.44 2.482.112.26.195.552.16.89a1.733 1.733 0 0 1-.343.836c-.147.207-1.605 1.829-1.605 1.829s-.26.313-.26.898c0 .5.26.898.26.898.215.238 1.458 1.622 1.605 1.829.164.23.307.499.342.836.036.338-.047.63-.16.89l-1.438 2.482c-.18.239-.407.468-.741.604-.334.135-.658.13-.953.082-.266-.042-2.147-.572-2.147-.572-.278-.06-.704 0-1.127.278-.215.14-.477.584-.477.584s-.536 1.6-.643 1.83a1.73 1.73 0 0 1-.555.706 1.74 1.74 0 0 1-.848.303H10.93Z" opacity=".4"/>
  <path fill="#161C24" d="M15.853 12a3.5 3.5 0 1 1-7 0 3.5 3.5 0 0 1 7 0Z"/>
</svg>
