<svg xmlns="http://www.w3.org/2000/svg" width="25" height="24" fill="none" viewBox="0 0 25 24">
  <path fill="#161C24" d="M17.834 1.5a4 4 0 1 0 0 8 4 4 0 0 0 0-8Zm-12.001 6a4 4 0 1 0 0 8 4 4 0 0 0 0-8Zm13.001 7a4 4 0 1 0 0 8 4 4 0 0 0 0-8Z"/>
  <path fill="#161C24" fill-rule="evenodd" d="M13.706 5.5a7.145 7.145 0 0 0-6.259 3.65l-1.748-.973A9.145 9.145 0 0 1 13.706 3.5c.441 0 .875.03 1.3.09l-.278 1.981a7.321 7.321 0 0 0-1.022-.071Zm7.127 7a6.89 6.89 0 0 0-1.562-4.373l1.55-1.265a8.89 8.89 0 0 1 2.012 5.638 8.867 8.867 0 0 1-1.098 4.283l-1.753-.963c.543-.988.85-2.117.85-3.32ZM6.8 14.238c.785 3.016 3.572 5.262 6.906 5.262.77 0 1.511-.12 2.204-.341l.608 1.905a9.236 9.236 0 0 1-2.812.436c-4.247 0-7.828-2.864-8.841-6.759l1.935-.503Z" clip-rule="evenodd" opacity=".4"/>
</svg>
