<svg xmlns="http://www.w3.org/2000/svg" width="25" height="24" fill="none" viewBox="0 0 25 24">
  <path fill="#161C24" fill-rule="evenodd" d="M14.584 6.5a3.75 3.75 0 1 1 7.5 0 3.75 3.75 0 0 1-7.5 0ZM2.583 12a3.75 3.75 0 1 1 7.5 0 3.75 3.75 0 0 1-7.5 0Zm12.001 5.5a3.75 3.75 0 1 1 7.5 0 3.75 3.75 0 0 1-7.5 0Z" clip-rule="evenodd"/>
  <path fill="#161C24" fill-rule="evenodd" d="m15.98 8.66-6.5 3-.838-1.817 6.5-3 .838 1.817Zm-6.5 3.684 6.5 3-.838 1.815-6.5-3 .838-1.815Z" clip-rule="evenodd" opacity=".4"/>
</svg>
