<svg xmlns="http://www.w3.org/2000/svg" width="25" height="24" fill="none" viewBox="0 0 25 24">
  <path fill="#161C24" d="M11.248 1.498c.369-.14.73-.248 1.086-.248.354 0 .716.109 1.085.248.373.14.838.347 1.419.605.854.379 1.98.814 3.189 1.157.881.251 1.595.454 2.135.663.543.21 1.035.472 1.366.91.32.425.444.921.5 1.456.056.517.056 1.165.056 1.95v2.944c0 3.056-1.38 5.48-3.047 7.286-1.662 1.8-3.642 3.025-4.947 3.714l-.063.033c-.556.294-1.01.534-1.693.534s-1.138-.24-1.694-.534l-.063-.033c-1.305-.69-3.285-1.914-4.947-3.714-1.667-1.807-3.046-4.23-3.046-7.286V8.24c0-.785 0-1.433.054-1.95.057-.535.18-1.031.501-1.456.331-.438.824-.7 1.366-.91.54-.21 1.253-.412 2.135-.663a24.757 24.757 0 0 0 3.19-1.158c.58-.258 1.046-.465 1.42-.605Z" opacity=".4"/>
</svg>
