<svg xmlns="http://www.w3.org/2000/svg" width="25" height="24" fill="none" viewBox="0 0 25 24">
  <path fill="#161C24" d="M10.327 6.625c-1.98 0-3.53.245-4.727 1.103-1.204.866-1.91 2.252-2.462 4.178l-.013.042c-.474 1.653-.846 2.95-1.031 3.996-.189 1.063-.207 1.972.119 2.814a5.096 5.096 0 0 0 1.853 2.344c.795.551 2.054.917 3.429 1.153 1.405.241 3.039.365 4.666.37.08 0 .138-.078.119-.156a2.5 2.5 0 0 1 .66-2.362l1.31-1.307c.2-.2.3-.3.3-.424s-.1-.224-.3-.424l-1.308-1.308a2.5 2.5 0 0 1 3.535-3.536l1.308 1.308c.2.2.3.3.425.3.124 0 .224-.1.424-.3l1.308-1.308a2.49 2.49 0 0 1 .985-.607c.168-.055.252-.083.292-.113a.268.268 0 0 0 .118-.224c.003-.05-.017-.119-.057-.258-.528-1.841-1.19-3.226-2.374-4.112-1.182-.884-2.745-1.168-4.815-1.168h-3.763Z" opacity=".4"/>
  <path fill="#161C24" fill-rule="evenodd" d="M10.209 10.875a1 1 0 0 1 1-1h2a1 1 0 1 1 0 2h-2a1 1 0 0 1-1-1Zm12.207 3.293a1 1 0 0 1 0 1.414l-2.793 2.793 2.793 2.793A1 1 0 0 1 21 22.582l-2.793-2.793-2.792 2.793A1 1 0 0 1 14 21.168l2.793-2.793L14 15.582a1 1 0 0 1 1.415-1.414l2.793 2.793L21 14.168a1 1 0 0 1 1.415 0Z" clip-rule="evenodd"/>
  <path fill="#161C24" d="M8.709 6.489c0-1.83 1.537-3.364 3.5-3.364 1.962 0 3.5 1.535 3.5 3.364v.21c.744.075 1.408.215 2 .442v-.652c0-2.991-2.492-5.364-5.5-5.364-3.009 0-5.5 2.373-5.5 5.364v.647c.596-.23 1.261-.366 2-.44v-.207Z"/>
</svg>
