<svg xmlns="http://www.w3.org/2000/svg" width="25" height="24" fill="none" viewBox="0 0 25 24">
  <path fill="#161C24" d="M2.833 1a1 1 0 1 0 0 2h.939a1 1 0 0 1 .966.742L7.16 15.237a3.106 3.106 0 0 1 1.642-.477h.302L6.687 3.29l-.005-.018A3 3 0 0 0 3.772 1h-.938Z"/>
  <path fill="#161C24" fill-rule="evenodd" d="M10.993 18.002h6.683a2.25 2.25 0 1 1-2.078 2H13.07a2.25 2.25 0 1 1-4.474 0h-1.85c-.818 0-1.412-.679-1.412-1.429 0-.96.37-1.89.962-2.586.243-.286.534-.544.865-.748a3.106 3.106 0 0 1 1.642-.477h.301l.339 1.607a.997.997 0 0 1 .005.386s-.432.007-.645.007c-.327 0-.684.167-.984.52a2.077 2.077 0 0 0-.394.72h3.252a2.247 2.247 0 0 1 .317 0Zm-.909 2.244a.75.75 0 1 1 1.5 0 .75.75 0 0 1-1.5 0Zm7.75-.75a.75.75 0 1 0 0 1.5.75.75 0 0 0 0-1.5Z" clip-rule="evenodd"/>
  <path fill="#161C24" d="M11.542 2.043a1 1 0 1 0-1.415 1.414L12.42 5.75l-2.293 2.293a1 1 0 1 0 1.415 1.414l2.293-2.293 2.292 2.293a1 1 0 1 0 1.415-1.414L15.249 5.75l2.293-2.293a1 1 0 0 0-1.415-1.414l-2.292 2.293-2.293-2.293Z"/>
  <path fill="#161C24" d="M9.857 5.75a.3.3 0 0 1 .213.512l-.862.862a2.3 2.3 0 1 0 3.253 3.252l1.161-1.161a.3.3 0 0 1 .425 0l1.161 1.161a2.3 2.3 0 1 0 3.253-3.252l-.862-.862a.3.3 0 0 1 .212-.512h1.972c.503 0 .967 0 1.338.059.414.066.847.224 1.153.645.294.405.332.864.303 1.283-.027.395-.125.88-.236 1.433l-.01.047c-.405 2.014-.805 3.914-1.743 5.283a4.77 4.77 0 0 1-1.96 1.676c-.833.386-1.832.574-3.03.574H7.726l-2.31-11h4.441Z" opacity=".4"/>
</svg>
