<svg xmlns="http://www.w3.org/2000/svg" width="25" height="24" fill="none" viewBox="0 0 25 24">
  <path fill="#161C24" d="M20.553 6.875H4.113c-.291 0-.547 0-.758.014a2.01 2.01 0 0 0-.686.15 1.764 1.764 0 0 0-.87.778 1.964 1.964 0 0 0-.215.975c.005.296.06.585.113.825.03.137.134.57.15.633v.003l.001.004.001.003.001.006c.083.381.342.69.68.85.37.175.61.498.673.852l.7 4.063c.084.575.183 1.249.34 1.859.233.905.634 1.886 1.472 2.56l.003.002c.63.501 1.368.72 2.246.823.851.1 1.92.1 3.254.1h.718c.588 0 .882 0 .966-.163.084-.163-.097-.416-.458-.922-.72-1.009-1.16-2.08-1.307-3.165-.265-1.955.472-3.952 2.172-4.983 1.556-.942 3.08-.917 4.277-.462.128.049.192.073.247.073.056 0 .12-.024.248-.073a4.646 4.646 0 0 1 2.897-.138c.23.063.344.094.414.08.07-.015.213-.128.498-.354.074-.058.157-.11.247-.152a1.234 1.234 0 0 0 .681-.856v-.003l.002-.004v-.003c.016-.063.12-.496.15-.633.054-.24.108-.53.113-.825a1.964 1.964 0 0 0-.216-.975 1.764 1.764 0 0 0-.87-.778 2.009 2.009 0 0 0-.685-.15c-.21-.014-.467-.014-.759-.014Z" opacity=".4"/>
  <path fill="#161C24" fill-rule="evenodd" d="M9.584 11.625a.75.75 0 0 1 .75-.75h2a.75.75 0 0 1 0 1.5h-2a.75.75 0 0 1-.75-.75Zm1.151-9.916a1 1 0 0 1 .515 1.317l-3.5 8a1 1 0 1 1-1.832-.802l3.5-8a1 1 0 0 1 1.317-.515Z" clip-rule="evenodd"/>
  <path fill="#161C24" d="M14.086 13.426c1.504-.911 2.887-.553 3.728.072l.02.013.018-.013c.841-.625 2.224-.983 3.728-.072 1.094.662 1.664 2.015 1.463 3.498-.203 1.496-1.173 3.12-3.12 4.544-.626.458-1.239.907-2.09.907-.851 0-1.464-.449-2.09-.907-1.946-1.423-2.916-3.048-3.12-4.544-.2-1.483.37-2.836 1.463-3.498Zm2.142-11.248a1 1 0 1 0-1.789.894l1.902 3.803h2.236l-2.349-4.697Z"/>
</svg>
