<svg xmlns="http://www.w3.org/2000/svg" width="25" height="24" fill="none" viewBox="0 0 25 24">
  <path fill="#161C24" d="M14.916 7c1.185 0 2.145 0 2.913.096.8.101 1.48.315 2.06.807.58.49.905 1.129 1.142 1.905.229.747.397 1.702.606 2.886l.384 2.178c.29 1.644.521 2.957.557 3.995.038 1.071-.125 1.99-.752 2.748-.628.76-1.497 1.087-2.55 1.238C18.258 23 16.94 23 15.292 23H9.375c-1.648 0-2.966 0-3.984-.147-1.053-.152-1.922-.477-2.55-1.238-.627-.758-.79-1.677-.752-2.747.036-1.04.267-2.352.557-3.996l.384-2.178c.209-1.184.377-2.14.606-2.886.237-.776.563-1.414 1.142-1.905.58-.492 1.26-.706 2.06-.807C7.605 7 8.566 7 9.75 7h5.165Z" opacity=".4"/>
  <path fill="#161C24" d="M12.333 12.25c1.132 0 1.93-.772 2.005-1.592a1 1 0 0 1 1.991.184c-.184 2.006-1.996 3.408-3.996 3.408s-3.81-1.402-3.995-3.408a1 1 0 0 1 1.991-.184c.076.82.873 1.592 2.004 1.592ZM9.15 5.752c.137-1.626 1.522-2.877 3.183-2.877 1.662 0 3.046 1.251 3.184 2.877l.106 1.249c.736.003 1.373.014 1.921.065l-.124-1.47C17.2 2.999 14.988 1 12.333 1 9.68 1 7.467 2.998 7.247 5.597l-.125 1.469a22.98 22.98 0 0 1 1.921-.065l.106-1.249Z"/>
</svg>
