<svg xmlns="http://www.w3.org/2000/svg" width="25" height="24" fill="none" viewBox="0 0 25 24">
  <path fill="#161C24" d="M9.952 6.75c-1.98 0-3.53.245-4.727 1.103-1.205.866-1.91 2.252-2.463 4.178l-.012.042c-.474 1.653-.846 2.95-1.032 3.996-.188 1.063-.206 1.972.12 2.814a5.096 5.096 0 0 0 1.853 2.344c.795.551 2.054.917 3.429 1.153 1.404.241 3.038.365 4.666.37.353.001.706-.003 1.058-.013.615-.018.922-.027.997-.206.075-.179-.15-.418-.597-.895-1.2-1.278-1.91-2.696-2.106-4.135-.265-1.956.471-3.953 2.172-4.984 1.555-.942 3.08-.917 4.277-.462.128.049.192.073.247.073.055 0 .12-.024.248-.073a4.651 4.651 0 0 1 1.747-.305c.5.01.75.015.841-.114.092-.13.017-.333-.134-.742-.473-1.284-1.08-2.283-2.006-2.976-1.182-.884-2.746-1.168-4.815-1.168H9.952Z" opacity=".4"/>
  <path fill="#161C24" fill-rule="evenodd" d="M9.833 11a1 1 0 0 1 1-1h2a1 1 0 1 1 0 2h-2a1 1 0 0 1-1-1Z" clip-rule="evenodd"/>
  <path fill="#161C24" d="M14.087 13.8c1.504-.91 2.887-.552 3.728.073l.019.013.018-.013c.842-.625 2.225-.983 3.729-.072 1.093.662 1.664 2.015 1.462 3.498-.203 1.496-1.173 3.12-3.12 4.544-.625.458-1.238.907-2.09.907-.85 0-1.463-.449-2.089-.907-1.947-1.423-2.917-3.048-3.12-4.544-.201-1.483.37-2.836 1.463-3.498ZM8.333 6.614c0-1.83 1.538-3.364 3.5-3.364s3.5 1.535 3.5 3.364v.21c.745.075 1.408.215 2 .442v-.652c0-2.991-2.492-5.364-5.5-5.364s-5.5 2.373-5.5 5.364v.647c.597-.23 1.262-.366 2-.44v-.207Z"/>
</svg>
