<svg xmlns="http://www.w3.org/2000/svg" width="25" height="24" fill="none" viewBox="0 0 25 24">
  <path fill="#161C24" d="M9.827 6.75c-1.98 0-3.53.245-4.727 1.103-1.204.866-1.91 2.252-2.462 4.178l-.013.042c-.474 1.653-.846 2.95-1.031 3.996-.189 1.063-.207 1.972.118 2.814a5.096 5.096 0 0 0 1.854 2.344c.795.551 2.054.917 3.429 1.153 1.405.241 3.039.365 4.666.37a32.734 32.734 0 0 0 2.151-.064c.223-.03.323-.203.238-.411a6.946 6.946 0 0 0-.078-.157 3.91 3.91 0 0 0-.351-.578c-.045-.06-.067-.09-.102-.116-.035-.026-.083-.044-.179-.08a2.5 2.5 0 0 1 .869-4.844c.643 0 1.148.182 1.51.368.077.039.115.058.143.066a.28.28 0 0 0 .274-.056.863.863 0 0 0 .094-.105c.623-.746 1.376-1.57 2.201-2.293.593-.52 1.3-1.057 2.087-1.464.234-.12.35-.18.393-.279.043-.098.009-.217-.06-.455l-.06-.209-.012-.043c-.528-1.841-1.19-3.226-2.374-4.112-1.182-.884-2.746-1.168-4.815-1.168H9.827Z" opacity=".4"/>
  <path fill="#161C24" fill-rule="evenodd" d="M9.709 11a1 1 0 0 1 1-1h2a1 1 0 1 1 0 2h-2a1 1 0 0 1-1-1Z" clip-rule="evenodd"/>
  <path fill="#161C24" d="M23.151 14.666a1 1 0 0 1-.609 1.277c-.533.189-1.15.596-1.803 1.168-.643.564-1.268 1.241-1.822 1.905a28.033 28.033 0 0 0-1.865 2.52 1 1 0 0 1-1.738-.088c-.44-.882-.995-1.433-1.2-1.452A1 1 0 0 1 14.21 18c.552 0 .905.235 1.18.418.274.183.561.436.85.782a28.59 28.59 0 0 1 1.143-1.465c.593-.712 1.291-1.472 2.038-2.127.737-.646 1.576-1.24 2.455-1.55a1 1 0 0 1 1.276.608ZM8.208 6.614c0-1.83 1.538-3.364 3.5-3.364 1.963 0 3.5 1.535 3.5 3.364v.21c.745.075 1.409.215 2 .442v-.652c0-2.991-2.491-5.364-5.5-5.364-3.008 0-5.5 2.373-5.5 5.364v.647c.597-.23 1.262-.366 2-.44v-.207Z"/>
</svg>
