<svg xmlns="http://www.w3.org/2000/svg" width="25" height="24" fill="none" viewBox="0 0 25 24">
  <path fill="#161C24" d="M2.833 1a1 1 0 1 0 0 2h.939a1 1 0 0 1 .966.742L7.16 15.237a3.106 3.106 0 0 1 1.642-.477h.302L6.687 3.29l-.005-.018A3 3 0 0 0 3.772 1h-.938Z"/>
  <path fill="#161C24" fill-rule="evenodd" d="M10.993 18.002h6.683a2.25 2.25 0 1 1-2.078 2H13.07a2.25 2.25 0 1 1-4.474 0h-1.85c-.818 0-1.412-.679-1.412-1.429 0-.96.37-1.89.962-2.586.243-.286.534-.544.865-.748a3.106 3.106 0 0 1 1.642-.477h.301l.339 1.607a.997.997 0 0 1 .005.386s-.432.007-.645.007c-.327 0-.684.167-.984.52a2.077 2.077 0 0 0-.394.72h3.252a2.247 2.247 0 0 1 .317 0Zm-.909 2.244a.75.75 0 1 1 1.5 0 .75.75 0 0 1-1.5 0Zm7.75-.75a.75.75 0 1 0 0 1.5.75.75 0 0 0 0-1.5Z" clip-rule="evenodd"/>
  <path fill="#161C24" d="M19.168 3.693a1 1 0 1 0-.667-1.885c-.879.31-1.718.904-2.454 1.55-.748.655-1.446 1.415-2.04 2.127a29.691 29.691 0 0 0-1.142 1.465 4.031 4.031 0 0 0-.85-.782c-.412-.274-.776-.375-1.003-.405-.602-.08-1.178.355-1.178.987a1 1 0 0 0 .907.996.73.73 0 0 1 .164.086c.199.133.594.484 1.035 1.365a1 1 0 0 0 1.739.09v-.002a28.036 28.036 0 0 1 1.864-2.52c.554-.663 1.18-1.34 1.822-1.904.653-.572 1.27-.98 1.803-1.168Z"/>
  <path fill="#161C24" d="M8.595 6.201c.05-.216-.1-.451-.321-.451H5.417l2.309 11h7.872c1.198 0 2.197-.188 3.03-.574a4.77 4.77 0 0 0 1.96-1.676c.938-1.37 1.338-3.269 1.743-5.283l.01-.047c.11-.553.209-1.038.236-1.433.029-.42-.009-.878-.303-1.283-.306-.42-.739-.58-1.153-.645-.37-.06-.834-.06-1.338-.059h-1.351a.295.295 0 0 0-.197.075 18.165 18.165 0 0 0-1.693 1.773 26.755 26.755 0 0 0-1.767 2.387 2.3 2.3 0 0 1-3.998-.207c-.236-.472-.428-.704-.526-.803A2.3 2.3 0 0 1 8.535 6.75c0-.193.02-.376.06-.549Z" opacity=".4"/>
</svg>
