<svg xmlns="http://www.w3.org/2000/svg" width="25" height="24" fill="none" viewBox="0 0 25 24">
  <path fill="#161C24" d="M22.272 6.704c-.306-.42-.739-.58-1.153-.645-.37-.06-.834-.06-1.338-.059H5.415l2.309 11h7.872c1.198 0 2.197-.188 3.03-.574a4.77 4.77 0 0 0 1.96-1.676c.939-1.37 1.338-3.269 1.743-5.283l.01-.047c.11-.553.209-1.038.236-1.433.029-.42-.009-.878-.303-1.283Z" opacity=".4"/>
  <path fill="#161C24" fill-rule="evenodd" d="M1.832 2.25a1 1 0 0 1 1-1h.938a3 3 0 0 1 2.91 2.272l.005.019 2.417 11.47H8.8c-.61 0-1.167.183-1.642.476L4.736 3.992a1 1 0 0 0-.966-.742h-.938a1 1 0 0 1-1-1Zm15.842 16.002h-6.683a2.247 2.247 0 0 0-.317 0H7.422c.082-.263.218-.512.394-.72.3-.353.657-.52.984-.52.213 0 .645-.007.645-.007a.997.997 0 0 0-.005-.386l-.34-1.607h-.3c-.611 0-1.167.183-1.642.477-.33.204-.622.462-.865.748a4.042 4.042 0 0 0-.961 2.586c0 .75.593 1.429 1.411 1.429h1.853a2.25 2.25 0 1 0 4.474 0h2.526a2.25 2.25 0 1 0 2.078-2Zm-6.841 1.494a.75.75 0 1 0 0 1.5.75.75 0 0 0 0-1.5Zm6.25.75a.75.75 0 1 1 1.5 0 .75.75 0 0 1-1.5 0Z" clip-rule="evenodd"/>
</svg>
