<svg xmlns="http://www.w3.org/2000/svg" width="25" height="24" fill="none" viewBox="0 0 25 24">
  <path fill="#161C24" d="M20.428 7.25H3.988c-.291 0-.547 0-.758.014a2.01 2.01 0 0 0-.686.15 1.764 1.764 0 0 0-.87.778 1.964 1.964 0 0 0-.215.975c.005.296.06.585.113.825a74.646 74.646 0 0 0 .153.65c.083.38.342.688.68.849.37.175.61.498.673.852l.7 4.063c.084.575.183 1.249.34 1.859.233.905.634 1.886 1.472 2.56l.003.002c.63.501 1.368.72 2.246.823.851.1 1.92.1 3.254.1H13.4c.161 0 .248-.195.144-.317-.025-.03-.046-.035-.083-.047a2.5 2.5 0 0 1 .748-4.886c.412 0 .719.088.856.127h.002c.157.045.322.104.491.178.239.105.358.158.455.136.096-.022.174-.112.329-.292.605-.702 1.399-1.564 2.09-2.17.701-.615 1.562-1.254 2.53-1.674.152-.065.227-.098.27-.142.041-.044.076-.134.145-.316.13-.338.363-.727.635-.856.338-.16.597-.469.68-.85l.002-.01.001-.006c.016-.063.12-.496.15-.633.054-.24.108-.53.113-.825a1.964 1.964 0 0 0-.216-.975 1.764 1.764 0 0 0-.87-.778 2.009 2.009 0 0 0-.685-.15c-.21-.014-.467-.014-.759-.014Z" opacity=".4"/>
  <path fill="#161C24" fill-rule="evenodd" d="M9.459 12a.75.75 0 0 1 .75-.75h4a.75.75 0 0 1 0 1.5h-4a.75.75 0 0 1-.75-.75Zm1.151-9.916a1 1 0 0 1 .515 1.317l-3.5 8a1 1 0 1 1-1.832-.802l3.5-8a1 1 0 0 1 1.317-.515Z" clip-rule="evenodd"/>
  <path fill="#161C24" d="M23.151 14.666a1 1 0 0 1-.609 1.277c-.533.189-1.15.596-1.803 1.168a17.193 17.193 0 0 0-1.821 1.905 28.038 28.038 0 0 0-1.865 2.52 1 1 0 0 1-1.739-.089c-.44-.881-.836-1.232-1.035-1.365a.734.734 0 0 0-.164-.086A1 1 0 0 1 14.209 18c.199 0 .343.04.446.07.208.06.459.165.733.348.274.183.562.436.85.782a29.23 29.23 0 0 1 1.144-1.465c.593-.712 1.291-1.472 2.038-2.127.737-.646 1.576-1.24 2.455-1.55a1 1 0 0 1 1.276.608ZM16.103 2.553a1 1 0 1 0-1.789.894l1.902 3.803h2.236l-2.349-4.697Z"/>
</svg>
