<svg xmlns="http://www.w3.org/2000/svg" width="25" height="24" fill="none" viewBox="0 0 25 24">
  <path fill="#161C24" d="M2.833 1a1 1 0 1 0 0 2h.939a1 1 0 0 1 .966.742L7.16 15.237a3.106 3.106 0 0 1 1.642-.477h.302L6.687 3.29l-.005-.018A3 3 0 0 0 3.772 1h-.938Z"/>
  <path fill="#161C24" fill-rule="evenodd" d="M10.993 18.002h6.683a2.25 2.25 0 1 1-2.078 2H13.07a2.25 2.25 0 1 1-4.474 0h-1.85c-.818 0-1.412-.679-1.412-1.429 0-.96.37-1.89.962-2.586.243-.286.534-.544.865-.748a3.106 3.106 0 0 1 1.642-.477h.301l.339 1.607a.997.997 0 0 1 .005.386s-.432.007-.645.007c-.327 0-.684.167-.984.52a2.077 2.077 0 0 0-.394.72h3.252a2.247 2.247 0 0 1 .317 0Zm-.909 2.244a.75.75 0 1 1 1.5 0 .75.75 0 0 1-1.5 0Zm7.75-.75a.75.75 0 1 0 0 1.5.75.75 0 0 0 0-1.5Z" clip-rule="evenodd"/>
  <path fill="#161C24" d="M14.334 1.54c-.773-.55-2.02-.852-3.37-.047-1.005.6-1.527 1.824-1.343 3.158.185 1.344 1.068 2.786 2.81 4.04l.075.054c.554.4 1.047.755 1.828.755.781 0 1.274-.355 1.828-.755l.074-.054c1.744-1.254 2.626-2.696 2.811-4.04.184-1.334-.337-2.558-1.344-3.158-1.349-.805-2.596-.503-3.369.046Z"/>
  <path fill="#161C24" d="M5.417 5.75H8.32a.31.31 0 0 1 .29.208c.492 1.377 1.526 2.684 3.06 3.788l.074.053.055.04c.537.388 1.329.961 2.534.961 1.205 0 1.997-.573 2.534-.961l.055-.04.074-.053c1.533-1.104 2.568-2.41 3.059-3.786a.307.307 0 0 1 .292-.207c.284.006.546.02.773.056.414.066.847.224 1.153.645.294.405.332.864.303 1.283-.027.395-.125.88-.236 1.433l-.01.047c-.405 2.014-.805 3.914-1.743 5.283a4.77 4.77 0 0 1-1.96 1.676c-.833.386-1.832.574-3.03.574H7.726l-2.31-11Z" opacity=".4"/>
</svg>
