<svg xmlns="http://www.w3.org/2000/svg" width="25" height="24" fill="none" viewBox="0 0 25 24">
  <path fill="#161C24" d="M2.833 1a1 1 0 1 0 0 2h.939a1 1 0 0 1 .966.742L7.16 15.237a3.106 3.106 0 0 1 1.642-.477h.302L6.687 3.29l-.005-.018A3 3 0 0 0 3.772 1h-.938Z"/>
  <path fill="#161C24" fill-rule="evenodd" d="M10.835 17.996c.053 0 .106.002.158.006h6.683a2.25 2.25 0 1 1-2.078 2H13.07a2.25 2.25 0 1 1-4.474 0h-1.85c-.818 0-1.412-.679-1.412-1.429 0-.96.37-1.89.962-2.586.243-.286.534-.544.865-.748a3.106 3.106 0 0 1 1.642-.477h.301l.339 1.607a.997.997 0 0 1 .005.386s-.432.007-.645.007c-.327 0-.684.167-.984.52a2.077 2.077 0 0 0-.394.72h3.252c.052-.004.105-.006.159-.006Zm-.75 2.25a.75.75 0 1 1 1.5 0 .75.75 0 0 1-1.5 0Zm7.75-.75a.75.75 0 1 0 0 1.5.75.75 0 0 0 0-1.5Z" clip-rule="evenodd"/>
  <path fill="#161C24" d="M14.335 3a1 1 0 1 0-2 0v2.5h-2.5a1 1 0 1 0 0 2h2.5V10a1 1 0 1 0 2 0V7.5h2.5a1 1 0 1 0 0-2h-2.5V3Z"/>
  <path fill="#161C24" d="M7.56 6.158c.03-.204-.115-.408-.321-.408H5.417l2.309 11h7.872c1.198 0 2.197-.188 3.03-.574a4.77 4.77 0 0 0 1.96-1.676c.938-1.37 1.338-3.269 1.743-5.283l.01-.047c.11-.553.209-1.038.236-1.433.029-.42-.009-.878-.303-1.283-.306-.42-.739-.58-1.153-.645-.37-.06-.834-.06-1.338-.059h-.353c-.206 0-.351.204-.32.408A2.3 2.3 0 0 1 16.834 8.8h-.9a.3.3 0 0 0-.3.3v.9a2.3 2.3 0 0 1-4.6 0v-.9a.3.3 0 0 0-.3-.3h-.9A2.3 2.3 0 0 1 7.56 6.158Z" opacity=".4"/>
</svg>
