<svg xmlns="http://www.w3.org/2000/svg" width="25" height="24" fill="none" viewBox="0 0 25 24">
  <path fill="#161C24" d="M20.428 7.25H3.988c-.291 0-.547 0-.758.014a2.01 2.01 0 0 0-.686.15 1.764 1.764 0 0 0-.87.778 1.964 1.964 0 0 0-.215.975c.005.296.06.585.113.825a74.646 74.646 0 0 0 .153.65c.083.38.342.688.68.849.37.175.61.498.673.852l.7 4.063c.084.575.183 1.249.34 1.859.233.905.634 1.886 1.472 2.56l.003.002c.63.501 1.368.72 2.246.823.851.1 1.92.1 3.254.1h1.913c.343 0 .514 0 .602-.086.087-.085.092-.297.101-.72a2.492 2.492 0 0 1 .732-1.712l.808-.808c.2-.2.3-.3.3-.424s-.1-.224-.3-.424l-.808-.808a2.5 2.5 0 1 1 3.535-3.536l.808.808c.2.2.3.3.425.3.124 0 .224-.1.424-.3l.808-.808c.164-.164.345-.3.538-.41.162-.091.242-.137.281-.192.04-.055.052-.132.08-.287a1.18 1.18 0 0 1 .672-.852c.338-.16.597-.469.68-.85l.002-.01.001-.006c.016-.063.12-.496.15-.633.054-.24.108-.53.113-.825a1.964 1.964 0 0 0-.216-.975 1.764 1.764 0 0 0-.87-.778 2.009 2.009 0 0 0-.685-.15c-.21-.014-.467-.014-.759-.014Z" opacity=".4"/>
  <path fill="#161C24" fill-rule="evenodd" d="M22.916 14.293a1 1 0 0 1 0 1.414L20.623 18l2.293 2.293a1 1 0 0 1-1.415 1.414l-2.293-2.293-2.292 2.293a1 1 0 0 1-1.415-1.414L17.794 18l-2.293-2.293a1 1 0 0 1 1.415-1.414l2.293 2.293 2.292-2.293a1 1 0 0 1 1.415 0ZM9.459 12a.75.75 0 0 1 .75-.75h4a.75.75 0 0 1 0 1.5h-4a.75.75 0 0 1-.75-.75Zm1.151-9.916a1 1 0 0 1 .515 1.317l-3.5 8a1 1 0 1 1-1.832-.802l3.5-8a1 1 0 0 1 1.317-.515Z" clip-rule="evenodd"/>
  <path fill="#161C24" d="M16.103 2.553a1 1 0 1 0-1.789.894l1.902 3.803h2.236l-2.349-4.697Z"/>
</svg>
