<svg xmlns="http://www.w3.org/2000/svg" width="25" height="24" fill="none" viewBox="0 0 25 24">
  <path fill="#161C24" fill-rule="evenodd" d="M11.959 3.125a4 4 0 0 0-4 4v.5a1 1 0 0 1-2 0v-.5a6 6 0 1 1 12 0v.5a1 1 0 1 1-2 0v-.5a4 4 0 0 0-4-4Zm6 9.75a1 1 0 0 1 1 1v3h3a1 1 0 1 1 0 2h-3v3a1 1 0 1 1-2 0v-3h-3a1 1 0 1 1 0-2h3v-3a1 1 0 0 1 1-1Z" clip-rule="evenodd"/>
  <path fill="#161C24" d="M4.494 6.625c-.492 0-.94 0-1.3.052-.394.058-.815.196-1.128.579-.31.378-.368.816-.356 1.215.01.368.086.818.17 1.32l1.22 7.275c.192 1.15.348 2.08.563 2.806.222.755.532 1.381 1.09 1.864.56.485 1.22.696 1.989.795.736.094 1.657.094 2.788.094h4.857c.424 0 .818 0 1.184-.005a2.499 2.499 0 0 1-.112-.745v-1.5h-1.5a2.5 2.5 0 0 1 0-5h1.5v-1.5a2.5 2.5 0 0 1 5 0v1.5h.642l.936-5.584c.084-.502.16-.952.17-1.32.012-.399-.046-.837-.356-1.215-.313-.383-.734-.52-1.128-.579-.36-.052-.808-.052-1.3-.052H4.493Z" opacity=".4"/>
</svg>
