<svg xmlns="http://www.w3.org/2000/svg" width="25" height="24" fill="none" viewBox="0 0 25 24">
  <path fill="#161C24" d="M20.553 7.375c.292 0 .548 0 .759.014.22.015.455.049.686.15.388.171.684.433.87.778.178.33.22.678.215.975-.005.296-.06.585-.113.825-.033.147-.152.64-.152.64a1.23 1.23 0 0 1-.681.859 1.18 1.18 0 0 0-.673.852l-.7 4.063c-.084.575-.183 1.249-.34 1.859-.232.905-.634 1.886-1.472 2.56l-.003.002c-.63.501-1.368.72-2.246.823-.851.1-1.92.1-3.254.1h-2.23c-1.336 0-2.404 0-3.255-.1-.878-.104-1.616-.322-2.246-.823l-.003-.002c-.838-.674-1.24-1.655-1.472-2.56-.157-.61-.256-1.284-.34-1.86l-.7-4.062a1.18 1.18 0 0 0-.673-.852c-.34-.162-.6-.473-.681-.858 0 0-.119-.493-.152-.64a4.168 4.168 0 0 1-.113-.826 1.964 1.964 0 0 1 .216-.975 1.76 1.76 0 0 1 .869-.778 2.01 2.01 0 0 1 .686-.15c.21-.014.467-.014.759-.014h16.44Z" opacity=".4"/>
  <path fill="#161C24" fill-rule="evenodd" d="M10.735 2.209a1 1 0 0 1 .515 1.317l-3.5 8a1 1 0 1 1-1.832-.802l3.5-8a1 1 0 0 1 1.317-.515Zm-1.151 9.916a.75.75 0 0 1 .75-.75h4a.75.75 0 0 1 0 1.5h-4a.75.75 0 0 1-.75-.75Z" clip-rule="evenodd"/>
  <path fill="#161C24" d="M16.228 2.678a1 1 0 1 0-1.789.894l1.902 3.803h2.236l-2.349-4.697Z"/>
</svg>
