<svg xmlns="http://www.w3.org/2000/svg" width="25" height="24" fill="none" viewBox="0 0 25 24">
  <path fill="#161C24" fill-rule="evenodd" d="M10.285 2.25h4.097c1.599 0 2.865 0 3.875.12 1.038.123 1.891.38 2.622.956.501.395.933.882 1.278 1.436.495.796.715 1.716.822 2.854l.009.097c.041.475.062.713-.087.875-.148.162-.396.162-.89.162H2.657c-.494 0-.742 0-.89-.162-.149-.162-.128-.4-.087-.875l.009-.097c.107-1.138.327-2.058.822-2.854a5.571 5.571 0 0 1 1.278-1.436c.73-.575 1.584-.833 2.622-.956 1.01-.12 2.276-.12 3.874-.12Zm-3.952 2.5a.75.75 0 1 0 0 1.5h1a.75.75 0 1 0 0-1.5h-1Zm4 0a.75.75 0 1 0 0 1.5h1a.75.75 0 0 0 0-1.5h-1Z" clip-rule="evenodd"/>
  <path fill="#161C24" d="M2.58 10.25h19.507c.468 0 .703 0 .849.146.146.146.147.38.147.846v.798c0 1.812 0 3.224-.104 4.345-.107 1.138-.328 2.058-.823 2.854a5.57 5.57 0 0 1-1.277 1.436c-.731.576-1.585.833-2.623.956-1.009.12-2.276.12-3.874.12h-4.097c-1.599 0-2.865 0-3.874-.12-1.039-.123-1.892-.38-2.623-.956a5.571 5.571 0 0 1-1.277-1.436c-.495-.796-.716-1.716-.823-2.854-.105-1.121-.105-2.533-.105-4.345v-.798c.001-.466.002-.7.148-.846.146-.146.38-.146.849-.146Z" opacity=".4"/>
</svg>
