<svg xmlns="http://www.w3.org/2000/svg" width="25" height="24" fill="none" viewBox="0 0 25 24">
  <path fill="#161C24" fill-rule="evenodd" d="M8.078 21.735a18.205 18.205 0 0 1-1.667-.104c-1.039-.123-1.892-.38-2.623-.957a5.572 5.572 0 0 1-1.277-1.436c-.495-.795-.716-1.715-.823-2.853-.105-1.121-.105-2.534-.105-4.345v-.079c0-1.81 0-3.223.105-4.344.107-1.138.328-2.058.823-2.854a5.571 5.571 0 0 1 1.277-1.436c.731-.576 1.584-.833 2.623-.956a18.178 18.178 0 0 1 1.667-.104c.47-.012.704-.017.855.13.15.147.15.385.15.862v17.484c0 .477 0 .715-.15.862-.151.147-.386.141-.855.13ZM6.584 6.965a.75.75 0 0 0-.75-.75h-1a.75.75 0 0 0 0 1.5h1a.75.75 0 0 0 .75-.75Zm0 3a.75.75 0 0 0-.75-.75h-1a.75.75 0 0 0 0 1.5h1a.75.75 0 0 0 .75-.75Z" clip-rule="evenodd"/>
  <path fill="#161C24" d="M11.584 2.25h2.798c1.598 0 2.865 0 3.874.12 1.038.123 1.892.38 2.623.956a5.57 5.57 0 0 1 1.277 1.436c.495.796.716 1.716.823 2.854.105 1.121.105 2.533.105 4.345v.079c0 1.81 0 3.223-.105 4.344-.107 1.138-.328 2.058-.823 2.854a5.57 5.57 0 0 1-1.277 1.436c-.731.576-1.585.833-2.623.956-1.009.12-2.276.12-3.874.12h-2.798c-.472 0-.708 0-.854-.146-.146-.147-.146-.383-.146-.854V3.25c0-.471 0-.707.146-.854.146-.146.382-.146.854-.146Z" opacity=".4"/>
</svg>
