<svg xmlns="http://www.w3.org/2000/svg" width="25" height="24" fill="none" viewBox="0 0 25 24">
  <path fill="#161C24" d="M8.393 1.385a.251.251 0 0 1 .281.215l.006.042.003.015.007.043c.09.542.169 1.014.28 1.391.118.406.297.787.64 1.092.356.316.766.448 1.205.509.413.057.924.058 1.518.058.595 0 1.106-.001 1.52-.058.438-.06.847-.193 1.203-.509.344-.305.522-.686.641-1.092.111-.377.19-.849.28-1.391l.007-.043.01-.06a.251.251 0 0 1 .28-.212c1.036.14 1.89.435 2.565 1.11s.97 1.529 1.11 2.565c.134 1.003.134 2.282.134 3.884v6.112c0 1.603 0 2.882-.134 3.885-.14 1.036-.435 1.89-1.11 2.564-.675.676-1.529.971-2.565 1.11-1.003.135-2.282.135-3.885.135h-.111c-1.603 0-2.882 0-3.885-.135-1.036-.139-1.89-.434-2.565-1.11-.675-.675-.97-1.528-1.11-2.564-.135-1.003-.135-2.282-.135-3.885V8.944c0-1.602 0-2.881.135-3.884.14-1.036.435-1.89 1.11-2.565s1.529-.97 2.565-1.11Z" opacity=".4"/>
  <path fill="#161C24" d="M14.375 1.263c.08.001.14.073.128.153-.099.594-.163.974-.245 1.253-.077.26-.145.345-.198.392-.058.052-.15.108-.414.145-.289.04-.684.044-1.313.044-.63 0-1.024-.004-1.313-.044-.265-.037-.356-.093-.414-.145-.053-.047-.121-.131-.198-.392-.082-.279-.146-.658-.245-1.25a.136.136 0 0 1 .132-.157 98.057 98.057 0 0 1 1.982-.012h.112c.727 0 1.388 0 1.986.013Z"/>
  <path fill="#161C24" fill-rule="evenodd" d="M11.334 19.25a.75.75 0 0 0 0 1.5h2a.75.75 0 0 0 0-1.5h-2Z" clip-rule="evenodd"/>
</svg>
