<svg xmlns="http://www.w3.org/2000/svg" width="25" height="24" fill="none" viewBox="0 0 25 24">
  <path fill="#161C24" fill-rule="evenodd" d="M6.46 6a.087.087 0 0 0-.087.1l1.585 12.032c.112.857.186 1.395.295 1.787.099.354.196.468.289.542.104.082.453.237 1.122.36.62.114 1.378.176 2.152.179.774.003 1.534-.055 2.159-.167.671-.12 1.032-.278 1.15-.372.093-.074.19-.188.29-.542.109-.392.182-.93.295-1.787l1.584-12.033A.087.087 0 0 0 17.208 6H6.46Zm-.81-1.937c.257-.052.539-.063.81-.063h10.748c.27 0 .552.011.81.063.26.052.59.163.865.435.287.284.398.63.434.922.034.274.01.557-.023.81l-1.61 12.228c-.102.772-.191 1.453-.343 1.998-.167.598-.437 1.147-.971 1.57-.53.422-1.317.645-2.042.775A14.36 14.36 0 0 1 11.81 23a14.55 14.55 0 0 1-2.506-.212c-.712-.13-1.489-.35-2.005-.761-.534-.424-.805-.973-.971-1.57-.153-.546-.242-1.227-.344-1.999L4.373 6.23a3.238 3.238 0 0 1-.023-.81 1.54 1.54 0 0 1 .434-.922 1.67 1.67 0 0 1 .865-.435Z" clip-rule="evenodd"/>
  <path fill="#161C24" d="M8.425 8.25c-.778 0-1.462.306-1.972.64A4.72 4.72 0 0 0 5.33 9.907l-.187.246 1.088 8.258c.103.784.19 1.45.338 1.977.158.567.407 1.062.885 1.442.466.37 1.189.582 1.896.711.743.137 1.607.205 2.461.208.854.003 1.722-.06 2.474-.195.718-.129 1.451-.343 1.93-.724.48-.38.728-.875.886-1.442.147-.528.235-1.193.338-1.977l1.154-8.76-.321-.265c-.26-.214-1.471-1.137-3.187-1.137-.954 0-1.878.29-2.624.538l-.236.08c-.291.098-.55.185-.795.254-.311.088-.54.128-.709.128a.517.517 0 0 1-.139-.014.09.09 0 0 1-.03-.013.569.569 0 0 1-.105-.103l-.12-.131a2.127 2.127 0 0 0-.696-.516c-.329-.15-.72-.223-1.205-.223Z" opacity=".4"/>
  <path fill="#161C24" fill-rule="evenodd" d="m13.123 8.578.157-5.68.001-.015A2 2 0 0 1 15.278 1h4.057a1 1 0 1 1 0 2h-3.862a.2.2 0 0 0-.2.194l-.14 5.056h-.049c-.688 0-1.36.15-1.961.328ZM9.334 16a1 1 0 0 1 1-1h.008a1 1 0 0 1 0 2h-.008a1 1 0 0 1-1-1Z" clip-rule="evenodd"/>
</svg>
