<svg xmlns="http://www.w3.org/2000/svg" width="25" height="24" fill="none" viewBox="0 0 25 24">
  <path fill="#161C24" d="M3.677 17.272c.177-.022.392-.022.568-.022h.588V3a1 1 0 0 1 2 0v14.25h.589c.176 0 .391 0 .568.022h.003c.126.016.702.088.977.653.275.567-.027 1.067-.092 1.176l-.34.468c-.294.376-.7.89-1.08 1.281-.19.195-.407.397-.638.555-.206.142-.556.345-.987.345-.43 0-.78-.203-.986-.345a4.397 4.397 0 0 1-.638-.555c-.38-.39-.786-.905-1.08-1.281l-.34-.468c-.065-.109-.367-.609-.092-1.176.275-.565.85-.637.977-.653h.003Z"/>
  <path fill="#161C24" fill-rule="evenodd" d="M10.334 12a1 1 0 0 0 1 1h8a1 1 0 1 0 0-2h-8a1 1 0 0 0-1 1Zm0-4a1 1 0 0 0 1 1h5a1 1 0 1 0 0-2h-5a1 1 0 0 0-1 1Zm0-4a1 1 0 0 0 1 1h3a1 1 0 1 0 0-2h-3a1 1 0 0 0-1 1Zm0 12a1 1 0 0 1 1-1h10a1 1 0 1 1 0 2h-10a1 1 0 0 1-1-1Z" clip-rule="evenodd" opacity=".4"/>
</svg>
