<svg xmlns="http://www.w3.org/2000/svg" width="25" height="24" fill="none" viewBox="0 0 25 24">
  <path fill="#161C24" d="M12.276 1.75c-2.19 0-3.911 0-5.254.18-1.377.186-2.47.573-3.328 1.43-.858.86-1.245 1.951-1.43 3.328-.18 1.343-.18 3.064-.18 5.255v.114c0 2.19 0 3.912.18 5.255.185 1.377.572 2.469 1.43 3.327.859.858 1.95 1.245 3.328 1.43 1.343.181 3.064.181 5.254.181h.115c2.19 0 3.911 0 5.254-.18 1.377-.186 2.47-.573 3.328-1.43.858-.86 1.245-1.951 1.43-3.328.18-1.343.18-3.064.18-5.255v-.114c0-2.19 0-3.912-.18-5.255-.185-1.377-.572-2.469-1.43-3.327-.859-.858-1.95-1.245-3.328-1.43-1.343-.181-3.064-.181-5.254-.181h-.115Z" opacity=".4"/>
  <path fill="#161C24" d="M13.455 16.738a.75.75 0 0 0 .788.71c.083-.004.243.002.502.016l.057.003c.227.013.497.027.766.032.287.004.604-.002.889-.044.241-.035.644-.117.93-.402.284-.286.366-.688.402-.93.041-.285.048-.602.043-.889-.004-.268-.019-.539-.031-.766l-.003-.056c-.014-.26-.02-.42-.016-.502a.75.75 0 0 0-1.28-.57l-.707.707-1.547-1.547a1 1 0 1 0-1.414 1.414l1.547 1.548-.707.707a.748.748 0 0 0-.219.57Zm-2.243-9.476a.75.75 0 0 0-.788-.71 6.213 6.213 0 0 1-.502-.016l-.057-.003a20.072 20.072 0 0 0-.766-.032 5.717 5.717 0 0 0-.889.044c-.242.035-.644.117-.93.402-.284.286-.367.688-.402.93a5.717 5.717 0 0 0-.043.889c.004.268.019.539.031.766l.003.056c.014.26.02.42.016.502a.75.75 0 0 0 1.28.57l.707-.707 1.547 1.547a1 1 0 0 0 1.415-1.414l-1.548-1.548.707-.707a.748.748 0 0 0 .219-.57Z"/>
</svg>
