<svg xmlns="http://www.w3.org/2000/svg" width="25" height="24" fill="none" viewBox="0 0 25 24">
  <path fill="#161C24" d="M22.584 12.057c0 2.19 0 3.912-.181 5.255-.185 1.377-.572 2.469-1.43 3.327-.859.858-1.95 1.245-3.328 1.43-1.343.181-3.064.181-5.254.181h-.115c-2.19 0-3.911 0-5.254-.18-1.377-.186-2.47-.573-3.328-1.43-.858-.86-1.245-1.951-1.43-3.328-.18-1.343-.18-3.064-.18-5.255v-.114c0-2.19 0-3.912.18-5.255.185-1.377.572-2.469 1.43-3.327.859-.858 1.95-1.245 3.328-1.43 1.343-.181 3.064-.181 5.254-.181h.115c2.19 0 3.911 0 5.254.18 1.377.186 2.47.573 3.328 1.43.858.86 1.245 1.951 1.43 3.328.18 1.343.18 3.064.18 5.255v.114Z" opacity=".4"/>
  <path fill="#161C24" d="m11.847 12 .027.063c.052.115.138.267.262.454.247.374.59.804.954 1.225.36.416.722.804.996 1.088l.448.457a1 1 0 0 1-1.401 1.427l-.49-.498a30.39 30.39 0 0 1-1.066-1.167 14.785 14.785 0 0 1-1.108-1.427 5.364 5.364 0 0 1-.418-.735c-.104-.23-.217-.545-.217-.887 0-.342.113-.656.217-.886a5.37 5.37 0 0 1 .418-.736c.315-.476.721-.98 1.108-1.427.39-.452.778-.867 1.067-1.167l.489-.497a1 1 0 0 1 1.401 1.427l-.448.456c-.274.284-.636.672-.996 1.088a12.93 12.93 0 0 0-.954 1.225c-.124.187-.21.34-.262.454l-.027.063Z"/>
</svg>
