<svg xmlns="http://www.w3.org/2000/svg" width="25" height="24" fill="none" viewBox="0 0 25 24">
  <path fill="#161C24" d="M12.39 22.25c2.191 0 3.912 0 5.255-.18 1.377-.186 2.47-.573 3.328-1.43.858-.86 1.245-1.951 1.43-3.328.18-1.343.18-3.064.18-5.255v-.114c0-2.19 0-3.912-.18-5.255-.185-1.377-.572-2.469-1.43-3.327-.859-.858-1.95-1.245-3.328-1.43-1.343-.181-3.064-.181-5.254-.181h-.115c-2.19 0-3.911 0-5.254.18-1.377.186-2.47.573-3.328 1.43-.858.86-1.245 1.951-1.43 3.328-.18 1.343-.18 3.064-.18 5.255v.114c0 2.19 0 3.912.18 5.255.185 1.377.572 2.469 1.43 3.327.859.858 1.95 1.245 3.328 1.43 1.343.181 3.064.181 5.254.181h.115Z" opacity=".4"/>
  <path fill="#161C24" d="M13.334 8a1 1 0 1 0-2 0v4.5h-.162c-.29 0-.598 0-.84.029-.178.021-.828.1-1.128.71-.3.61.044 1.152.138 1.298.129.202.322.435.505.655l.031.038c.287.346.63.741.973 1.055.171.157.37.319.585.446.2.118.515.269.898.269.382 0 .697-.15.897-.269.215-.128.414-.289.585-.446.343-.314.685-.709.973-1.055l.031-.038c.183-.22.376-.453.505-.655.094-.146.439-.689.138-1.298-.3-.61-.95-.689-1.127-.71a7.66 7.66 0 0 0-.84-.029h-.162V8Z"/>
</svg>
