<svg xmlns="http://www.w3.org/2000/svg" width="25" height="24" fill="none" viewBox="0 0 25 24">
  <path fill="#161C24" d="M2.083 11.943c0-2.19 0-3.912.181-5.255.185-1.377.572-2.469 1.43-3.327.859-.858 1.95-1.245 3.328-1.43 1.343-.181 3.064-.181 5.254-.181h.115c2.19 0 3.911 0 5.254.18 1.377.186 2.47.573 3.328 1.43.858.86 1.245 1.951 1.43 3.328.18 1.343.18 3.064.18 5.255v.114c0 2.19 0 3.912-.18 5.255-.185 1.377-.572 2.469-1.43 3.327-.859.858-1.95 1.245-3.328 1.43-1.343.181-3.064.181-5.254.181h-.115c-2.19 0-3.911 0-5.254-.18-1.377-.186-2.47-.573-3.328-1.43-.858-.86-1.245-1.951-1.43-3.328-.18-1.343-.18-3.064-.18-5.255v-.114Z" opacity=".4"/>
  <path fill="#161C24" d="M16.334 11a1 1 0 1 1 0 2h-4.5v.162c0 .29 0 .598-.03.84-.02.177-.1.827-.71 1.128-.609.3-1.151-.045-1.298-.139a7.257 7.257 0 0 1-.654-.504l-.038-.031c-.347-.288-.742-.63-1.056-.974a3.63 3.63 0 0 1-.446-.585A1.773 1.773 0 0 1 7.333 12c0-.383.151-.698.27-.897a3.63 3.63 0 0 1 .445-.585c.314-.344.709-.686 1.056-.974l.038-.03c.22-.183.452-.376.654-.505.147-.094.69-.439 1.299-.139s.688.951.71 1.128c.029.242.029.55.029.84V11h4.5Z"/>
</svg>
