<svg xmlns="http://www.w3.org/2000/svg" width="25" height="24" fill="none" viewBox="0 0 25 24">
  <path fill="#161C24" d="M12.39 1.75c2.191 0 3.912 0 5.255.18 1.377.186 2.47.573 3.328 1.43.858.86 1.245 1.951 1.43 3.328.18 1.343.18 3.064.18 5.255v.114c0 2.19 0 3.912-.18 5.255-.185 1.377-.572 2.469-1.43 3.327-.859.858-1.95 1.245-3.328 1.43-1.343.181-3.064.181-5.254.181h-.115c-2.19 0-3.911 0-5.254-.18-1.377-.186-2.47-.573-3.328-1.43-.858-.86-1.245-1.951-1.43-3.328-.18-1.343-.18-3.064-.18-5.255v-.114c0-2.19 0-3.912.18-5.255.185-1.377.572-2.469 1.43-3.327.859-.858 1.95-1.245 3.328-1.43 1.343-.181 3.064-.181 5.254-.181h.115Z" opacity=".4"/>
  <path fill="#161C24" d="m12.334 12.486.062-.026c.115-.052.268-.139.455-.262.373-.248.803-.591 1.224-.955.417-.36.804-.722 1.089-.995l.456-.449a1 1 0 0 1 1.427 1.402l-.497.489c-.3.289-.716.677-1.167 1.067a14.99 14.99 0 0 1-1.427 1.108 5.364 5.364 0 0 1-.736.417c-.23.104-.545.218-.886.218-.342 0-.657-.114-.887-.218a5.37 5.37 0 0 1-.736-.417 14.854 14.854 0 0 1-1.426-1.108 30.37 30.37 0 0 1-1.168-1.067l-.497-.49a1 1 0 1 1 1.427-1.4l.456.448c.285.273.672.635 1.089.995.42.364.851.707 1.224.955.187.123.34.21.455.262l.063.026Z"/>
</svg>
