<svg xmlns="http://www.w3.org/2000/svg" width="25" height="24" fill="none" viewBox="0 0 25 24">
  <path fill="#161C24" d="M2.083 11.943c0-2.19 0-3.911.181-5.255.185-1.377.572-2.469 1.43-3.327.859-.858 1.95-1.245 3.328-1.43 1.343-.18 3.064-.18 5.254-.18h.115c2.19 0 3.911 0 5.254.18 1.377.185 2.47.572 3.328 1.43.858.858 1.245 1.95 1.43 3.327.18 1.344.18 3.064.18 5.255v.114c0 2.191 0 3.912-.18 5.255-.185 1.377-.572 2.469-1.43 3.327-.859.858-1.95 1.245-3.328 1.43-1.343.181-3.064.181-5.254.181h-.115c-2.19 0-3.911 0-5.254-.18-1.377-.186-2.47-.573-3.328-1.43-.858-.859-1.245-1.951-1.43-3.328-.18-1.343-.18-3.064-.18-5.255v-.114Z" opacity=".4"/>
  <path fill="#161C24" d="M12.82 12a1.264 1.264 0 0 0-.027-.063 3.416 3.416 0 0 0-.262-.454 12.857 12.857 0 0 0-.954-1.225 28.44 28.44 0 0 0-.996-1.088l-.448-.456a1 1 0 0 1 1.401-1.428l.49.498c.288.3.676.715 1.066 1.167.387.448.793.951 1.108 1.427.157.237.306.488.418.736.104.23.217.544.217.886 0 .342-.113.656-.217.887-.112.247-.26.498-.418.735-.315.476-.721.98-1.108 1.427-.39.452-.778.867-1.067 1.167l-.489.498a1 1 0 1 1-1.401-1.427l.448-.457c.274-.284.636-.672.996-1.088.363-.421.707-.851.954-1.225.124-.187.21-.34.262-.454L12.82 12Z"/>
</svg>
