<svg xmlns="http://www.w3.org/2000/svg" width="25" height="24" fill="none" viewBox="0 0 25 24">
  <path fill="#161C24" d="M7.859 8.35c1.428-.066 2.879-.1 4.475-.1 1.595 0 3.046.034 4.474.1 2.058.095 3.73 1.688 4.001 3.705.148 1.1.274 2.257.274 3.445 0 1.188-.126 2.344-.274 3.445-.272 2.017-1.943 3.61-4 3.705-1.43.066-2.88.1-4.476.1-1.595 0-3.046-.034-4.474-.1-2.058-.095-3.73-1.688-4.001-3.705-.148-1.1-.275-2.257-.275-3.445 0-1.188.127-2.344.275-3.445.272-2.017 1.943-3.61 4-3.705Z" opacity=".4"/>
  <path fill="#161C24" fill-rule="evenodd" d="M12.334 13.5a1 1 0 0 1 1 1v2a1 1 0 1 1-2 0v-2a1 1 0 0 1 1-1Z" clip-rule="evenodd"/>
  <path fill="#161C24" d="M8.834 6.75a3.5 3.5 0 0 1 3.5-3.5c1.438 0 2.656 1.131 3.05 2.316a1 1 0 0 0 1.898-.632c-.605-1.815-2.468-3.684-4.948-3.684a5.5 5.5 0 0 0-5.5 5.5v1.777c.326-.1.67-.16 1.025-.177.323-.015.647-.028.975-.04V6.75Z"/>
</svg>
