<svg xmlns="http://www.w3.org/2000/svg" width="25" height="24" fill="none" viewBox="0 0 25 24">
  <path fill="#161C24" d="M12.276 22.25c-2.19 0-3.911 0-5.254-.18-1.377-.186-2.47-.573-3.328-1.431-.858-.858-1.245-1.95-1.43-3.327-.18-1.344-.18-3.064-.18-5.255v-.114c0-2.19 0-3.912.18-5.255.185-1.377.572-2.469 1.43-3.327.859-.858 1.95-1.245 3.328-1.43 1.343-.181 3.064-.181 5.254-.181h.115c2.19 0 3.911 0 5.254.18 1.377.186 2.47.573 3.328 1.43.858.86 1.245 1.951 1.43 3.328.18 1.343.18 3.064.18 5.255v.114c0 2.19 0 3.912-.18 5.255-.185 1.377-.572 2.469-1.43 3.327-.859.858-1.95 1.245-3.328 1.43-1.343.181-3.064.181-5.254.181h-.115Z" opacity=".4"/>
  <path fill="#161C24" d="M12.334 11.514a1.067 1.067 0 0 0-.063.026 3.413 3.413 0 0 0-.455.263c-.373.247-.804.59-1.224.954-.417.36-.804.722-1.089.995l-.456.449a1 1 0 0 1-1.427-1.402l.497-.489c.301-.289.716-.676 1.168-1.067a14.8 14.8 0 0 1 1.426-1.108c.238-.157.488-.305.736-.417.23-.104.545-.218.887-.218.341 0 .656.114.886.218.248.112.498.26.736.417.475.316.979.722 1.427 1.108.451.39.866.778 1.167 1.067l.497.49a1 1 0 1 1-1.427 1.4l-.456-.448a28.405 28.405 0 0 0-1.089-.995c-.42-.364-.851-.707-1.224-.954a3.42 3.42 0 0 0-.455-.263 1.096 1.096 0 0 0-.063-.026Z"/>
</svg>
