<svg xmlns="http://www.w3.org/2000/svg" width="25" height="24" fill="none" viewBox="0 0 25 24">
  <path fill="#161C24" d="M4.583 9a7.75 7.75 0 1 1 15.5 0 7.75 7.75 0 0 1-15.5 0Z" opacity=".4"/>
  <path fill="#161C24" d="M11.955 4.793a.417.417 0 0 1 .757 0l.93 1.906a.427.427 0 0 0 .312.237l2.02.336c.343.057.48.495.235.752l-1.447 1.515a.457.457 0 0 0-.119.383l.32 2.115c.053.358-.304.63-.614.464l-1.823-.97a.409.409 0 0 0-.385 0l-1.823.97c-.31.165-.667-.106-.613-.464l.319-2.115a.457.457 0 0 0-.12-.383L8.459 8.024c-.245-.257-.108-.695.234-.752l2.021-.336a.427.427 0 0 0 .312-.237l.93-1.906ZM7.583 16.646v3.918c0 .393 0 .768.043 1.06.044.297.167.77.648 1.01.482.242.934.057 1.198-.087.258-.14.558-.366.872-.602l1.24-.932c.303-.228.48-.36.62-.44.034-.034.134-.082.26 0 .14.08.316.212.619.44l1.24.932c.314.236.614.461.872.602.264.144.716.329 1.198.087.481-.24.604-.713.648-1.01.043-.292.043-.667.043-1.06v-3.918a8.958 8.958 0 0 1-4.75 1.355 8.958 8.958 0 0 1-4.75-1.355Z"/>
</svg>
