<svg xmlns="http://www.w3.org/2000/svg" width="25" height="24" fill="none" viewBox="0 0 25 24">
  <path fill="#161C24" d="M4.583 9a7.75 7.75 0 1 1 15.5 0 7.75 7.75 0 0 1-15.5 0Z" opacity=".4"/>
  <path fill="#161C24" d="M11.955 4.791a.417.417 0 0 1 .757 0l.93 1.906a.427.427 0 0 0 .312.237l2.02.336c.343.057.48.495.235.752l-1.447 1.515a.457.457 0 0 0-.119.383l.32 2.115c.053.358-.304.63-.614.464l-1.823-.97a.409.409 0 0 0-.385 0l-1.823.97c-.31.165-.667-.106-.613-.464l.319-2.115a.457.457 0 0 0-.12-.383L8.459 8.022c-.245-.257-.108-.695.234-.752l2.021-.336a.427.427 0 0 0 .312-.237l.93-1.906ZM5.58 14.95l-1.548 3.172c-.14.288-.275.564-.354.795a1.43 1.43 0 0 0-.081.68.751.751 0 0 0 .038.205c.043.128.195.316.302.392.275.196.625.255.924.264a3.92 3.92 0 0 0 1.119-.151c.35-.095.559-.15.717-.176.183-.04.267.064.286.12.069.131.144.318.272.643.183.461.383.858.597 1.158.184.258.5.621.97.69.075.011.153.01.23-.002.524-.085.786-.513.914-.756.14-.265.277-.628.427-1.025l1.13-2.995A8.98 8.98 0 0 1 5.58 14.95Zm7.564 3.014 1.13 2.996c.15.396.287.76.427 1.024.128.243.39.671.915.756a.75.75 0 0 0 .23.002c.468-.069.785-.432.969-.69.214-.3.414-.697.597-1.158.128-.325.203-.511.273-.642.018-.057.102-.16.285-.121.158.026.367.081.718.176.414.112.792.16 1.118.15.3-.008.649-.067.924-.263a.993.993 0 0 0 .302-.391.748.748 0 0 0 .038-.205 1.43 1.43 0 0 0-.08-.681c-.08-.23-.215-.507-.355-.795l-1.548-3.173a8.98 8.98 0 0 1-5.943 3.015Z"/>
</svg>
