<svg xmlns="http://www.w3.org/2000/svg" width="25" height="24" fill="none" viewBox="0 0 25 24">
  <path fill="#161C24" d="M12.33 1.25c1.049 0 1.875.793 2.403 1.862l1.762 3.553c.053.11.18.265.37.407.19.141.377.22.5.24l3.19.534c1.151.194 2.117.758 2.43 1.742.314.982-.145 2.004-.974 2.834l-2.478 2.499a1.272 1.272 0 0 0-.278.528 1.318 1.318 0 0 0-.043.604v.002l.71 3.09c.293 1.287.196 2.562-.711 3.23-.91.668-2.155.372-3.285-.301l-2.99-1.785a1.228 1.228 0 0 0-.601-.136c-.259 0-.479.06-.613.138l-.002.001-2.984 1.781c-1.128.676-2.371.967-3.281.297-.907-.667-1.01-1.94-.714-3.225l.708-3.09v-.002a1.318 1.318 0 0 0-.043-.604 1.272 1.272 0 0 0-.277-.528l-2.48-2.5c-.823-.83-1.28-1.85-.97-2.832.312-.984 1.276-1.55 2.429-1.743l3.187-.534c.118-.02.301-.097.491-.24.19-.141.317-.297.37-.407l.003-.005L9.92 3.11c.534-1.069 1.362-1.86 2.41-1.86Z" opacity=".4"/>
  <path fill="#161C24" d="M9.92 3.11c.533-1.069 1.361-1.86 2.41-1.86v18.903c-.257.001-.475.06-.608.138l-.002.001-2.984 1.781c-1.128.676-2.371.967-3.281.297-.907-.667-1.01-1.94-.714-3.225l.708-3.09v-.002a1.318 1.318 0 0 0-.043-.604 1.272 1.272 0 0 0-.277-.528l-2.48-2.5c-.823-.83-1.28-1.85-.97-2.832.312-.984 1.276-1.55 2.429-1.743l3.187-.534c.118-.02.301-.097.491-.24.19-.141.317-.297.37-.407l.003-.005L9.92 3.11Z"/>
</svg>
