<svg xmlns="http://www.w3.org/2000/svg" width="25" height="24" fill="none" viewBox="0 0 25 24">
  <path fill="#161C24" fill-rule="evenodd" d="M1.626 1.293a1 1 0 0 1 1.415 0l20 20a1 1 0 0 1-1.415 1.414l-20-20a1 1 0 0 1 0-1.414Z" clip-rule="evenodd"/>
  <path fill="#161C24" d="M7.295 7.312c.109-.02.163-.029.182-.03.095-.004.124.005.199.064.014.01.033.03.07.066l12.133 12.133a.617.617 0 0 1 .13.155.555.555 0 0 1 .036.188c.102 1.015-.103 1.948-.834 2.485-.91.67-2.155.373-3.285-.3l-2.99-1.785a1.228 1.228 0 0 0-.601-.136c-.259 0-.479.06-.613.138l-.002.001-2.984 1.782c-1.128.675-2.371.966-3.281.296-.907-.666-1.01-1.94-.714-3.225l.708-3.09v-.002a1.318 1.318 0 0 0-.043-.603 1.272 1.272 0 0 0-.277-.529l-2.48-2.5c-.823-.83-1.28-1.85-.97-2.831.312-.984 1.276-1.55 2.429-1.744l3.187-.533Z"/>
  <path fill="#161C24" d="M12.329 1.25c1.05 0 1.876.793 2.403 1.862l1.762 3.553c.054.11.18.265.37.407.191.141.377.22.5.24l3.19.534c1.152.194 2.117.758 2.43 1.742.314.982-.145 2.004-.974 2.834l-2.478 2.499-.178.178c-.15.125-.235.125-.385 0a2.464 2.464 0 0 1-.09-.088l-9.63-9.63c-.148-.147-.221-.22-.237-.316-.015-.095.03-.189.123-.375l.783-1.579.001-.001c.533-1.069 1.362-1.86 2.41-1.86Z" opacity=".4"/>
</svg>
