<svg xmlns="http://www.w3.org/2000/svg" width="25" height="24" fill="none" viewBox="0 0 25 24">
  <path fill="#161C24" d="M15 5.31a.75.75 0 0 1 1.005.338l.505 1.017c.053.11.18.266.37.408.19.142.374.219.49.239h.002l3.187.534c1.152.194 2.116.76 2.428 1.743.31.981-.147 2.002-.97 2.832l-2.48 2.5a1.272 1.272 0 0 0-.277.528 1.318 1.318 0 0 0-.043.604v.002l.709 3.09c.295 1.285.192 2.558-.714 3.225-.91.67-2.153.379-3.282-.297l-.981-.585a.75.75 0 0 1 .769-1.288l.982.586c1.01.604 1.489.475 1.623.376.138-.102.406-.527.14-1.682l-.71-3.1c-.099-.442-.055-.922.064-1.34.119-.418.334-.851.655-1.175l2.48-2.5c.637-.643.674-1.104.605-1.323-.068-.216-.36-.568-1.247-.717l-3.189-.534h-.002c-.414-.071-.815-.276-1.137-.517-.321-.24-.633-.568-.82-.95l-.5-1.01A.75.75 0 0 1 15 5.31Z"/>
  <path fill="#161C24" d="M12.331 1.25h.006a.75.75 0 0 1 .75.75v17.403l-4.346 2.67c-1.13.674-2.375.97-3.285.301-.907-.667-1.005-1.942-.71-3.229l.708-3.09v-.002a1.22 1.22 0 0 0-.32-1.132l-2.478-2.498-.001-.002c-.828-.83-1.287-1.85-.974-2.833.313-.984 1.28-1.548 2.431-1.742l3.19-.534a1.23 1.23 0 0 0 .872-.652l1.76-3.548c.526-1.067 1.35-1.86 2.397-1.862Z" opacity=".4"/>
</svg>
