<svg xmlns="http://www.w3.org/2000/svg" width="25" height="24" fill="none" viewBox="0 0 25 24">
  <path fill="#161C24" d="M17.8 1.25c.635 0 1.176 0 1.62.052.474.056.91.18 1.307.474.393.294.64.68.837 1.12.187.415.357.944.558 1.57l.697 2.164.015.046c.176.546.317.984.214 1.646a2.75 2.75 0 0 1-.19.708 2.491 2.491 0 0 1-.28.462l-.012.017c-.984 1.363-2.789 2.241-4.478 2.241a4.779 4.779 0 0 1-2.878-.958c-.8.602-1.798.958-2.878.958a4.779 4.779 0 0 1-2.877-.957c-.8.6-1.797.957-2.877.957-1.689 0-3.493-.878-4.478-2.24l-.012-.018a2.496 2.496 0 0 1-.28-.462 2.75 2.75 0 0 1-.19-.708c-.103-.662.038-1.1.214-1.646l.015-.046.684-2.125.013-.039c.201-.626.372-1.155.558-1.57.198-.44.444-.826.838-1.12.395-.295.832-.418 1.306-.474.444-.052.985-.052 1.62-.052H17.8Z" opacity=".4"/>
  <path fill="#161C24" fill-rule="evenodd" d="M6.333 17a1 1 0 0 1 1-1h4a1 1 0 1 1 0 2h-4a1 1 0 0 1-1-1Zm12.501-4.25c-2.334 0-4.25 1.86-4.25 4.184 0 1.325.666 2.314 1.357 3.105.246.282.516.562.77.824l.277.288c.336.354.625.679.848 1.01.187.278.52.589 1.003.589.49 0 .824-.32 1.005-.608.212-.338.492-.663.823-1.011.108-.114.226-.236.35-.362.23-.235.474-.486.692-.73.696-.778 1.375-1.754 1.375-3.105 0-2.324-1.917-4.184-4.25-4.184Zm-.007 5.75a1.497 1.497 0 0 1-1.494-1.5c0-.828.67-1.5 1.494-1.5h.013c.825 0 1.494.672 1.494 1.5s-.67 1.5-1.494 1.5h-.013Z" clip-rule="evenodd"/>
  <path fill="#161C24" d="M2.333 9.805v5.015c0 1.354 0 2.47.12 3.354.124.928.396 1.748 1.052 2.404.656.656 1.476.928 2.403 1.053.884.118 2 .118 3.355.118h3.105a1 1 0 1 0 0-2H9.334c-1.443 0-2.424-.002-3.16-.1-.705-.096-1.032-.263-1.255-.485-.222-.223-.39-.55-.485-1.256-.098-.735-.1-1.716-.1-3.159v-3.488a5.598 5.598 0 0 1-2-1.456Z"/>
</svg>
