<svg xmlns="http://www.w3.org/2000/svg" width="25" height="24" fill="none" viewBox="0 0 25 24">
  <path fill="#161C24" fill-rule="evenodd" d="M8.586 16.086a1 1 0 0 1 1.411-.084c.466.414 1.303.748 2.337.748 1.033 0 1.87-.334 2.336-.748a1 1 0 0 1 1.327 1.496c-.902.8-2.244 1.252-3.663 1.252-1.42 0-2.762-.451-3.664-1.252a1 1 0 0 1-.084-1.412Z" clip-rule="evenodd"/>
  <path fill="#161C24" d="M17.8 1.75c.635 0 1.176 0 1.62.052.474.056.91.18 1.307.474.393.294.64.68.837 1.12.187.415.357.944.558 1.57l.697 2.164.015.046c.176.546.317.984.214 1.646a2.75 2.75 0 0 1-.19.708 2.491 2.491 0 0 1-.28.462l-.012.017c-.984 1.363-2.789 2.241-4.478 2.241a4.779 4.779 0 0 1-2.878-.958c-.8.602-1.798.958-2.878.958a4.779 4.779 0 0 1-2.877-.957c-.8.6-1.797.957-2.877.957-1.689 0-3.493-.878-4.478-2.24l-.012-.018a2.496 2.496 0 0 1-.28-.462 2.75 2.75 0 0 1-.19-.708c-.103-.662.038-1.1.214-1.646l.015-.046.684-2.125.013-.039c.201-.626.372-1.155.558-1.57.198-.44.444-.826.838-1.12.395-.295.832-.418 1.306-.474.444-.052.985-.052 1.62-.052H17.8Z" opacity=".4"/>
  <path fill="#161C24" d="M2.333 10.306v5.015c0 1.354 0 2.47.12 3.354.124.928.396 1.748 1.052 2.404.656.656 1.476.928 2.403 1.053.884.118 2 .118 3.355.118h6.141c1.354 0 2.47 0 3.355-.118.927-.125 1.747-.397 2.403-1.053.656-.656.928-1.476 1.053-2.404.119-.883.119-2 .119-3.354v-5.016a5.596 5.596 0 0 1-2 1.456v3.49c0 1.442-.003 2.423-.101 3.158-.095.706-.263 1.033-.485 1.256-.223.222-.55.39-1.256.484-.735.1-1.716.101-3.159.101h-6c-1.442 0-2.423-.002-3.158-.1-.706-.095-1.033-.263-1.256-.485-.222-.223-.39-.55-.485-1.256-.098-.735-.1-1.716-.1-3.159v-3.488a5.597 5.597 0 0 1-2-1.456Z"/>
</svg>
