<svg xmlns="http://www.w3.org/2000/svg" width="25" height="24" fill="none" viewBox="0 0 25 24">
  <path fill="#161C24" d="M17.675 1.125c.635 0 1.177 0 1.62.052.474.056.911.18 1.307.474.393.294.64.68.837 1.12.187.415.357.944.559 1.57l.696 2.164.015.046c.176.546.317.984.214 1.646a2.75 2.75 0 0 1-.19.708 2.472 2.472 0 0 1-.28.462l-.012.017c-.984 1.363-2.789 2.241-4.478 2.241a4.779 4.779 0 0 1-2.878-.958c-.8.602-1.797.958-2.877.958a4.779 4.779 0 0 1-2.877-.957c-.801.6-1.798.957-2.877.957-1.69 0-3.494-.878-4.478-2.24l-.013-.018c-.083-.115-.192-.265-.279-.462a2.75 2.75 0 0 1-.19-.708c-.104-.662.038-1.1.214-1.646l.015-.046.683-2.125.013-.039c.202-.626.372-1.155.558-1.57.198-.44.444-.826.838-1.12.396-.295.833-.418 1.307-.474.443-.052.984-.052 1.62-.052h10.933Z" opacity=".4"/>
  <path fill="#161C24" fill-rule="evenodd" d="M22.916 15.168a1 1 0 0 1 0 1.414l-2.293 2.293 2.293 2.293a1 1 0 0 1-1.414 1.414l-2.293-2.293-2.293 2.293a1 1 0 0 1-1.414-1.414l2.292-2.293-2.292-2.293a1 1 0 0 1 1.414-1.414l2.293 2.293 2.293-2.293a1 1 0 0 1 1.414 0ZM6.209 16.875a1 1 0 0 1 1-1h4a1 1 0 1 1 0 2h-4a1 1 0 0 1-1-1Z" clip-rule="evenodd"/>
  <path fill="#161C24" d="M2.209 9.68v5.016c0 1.354 0 2.47.119 3.354.124.928.396 1.748 1.052 2.404.656.656 1.476.928 2.404 1.053.883.118 2 .118 3.354.118h4.07a1 1 0 1 0 0-2h-4c-1.442 0-2.423-.002-3.158-.1-.706-.095-1.033-.263-1.255-.485-.223-.223-.39-.55-.485-1.256-.1-.735-.101-1.716-.101-3.159v-3.488a5.597 5.597 0 0 1-2-1.456Zm18 1.456v1.74a1 1 0 1 0 2 0V9.68a5.596 5.596 0 0 1-2 1.456Z"/>
</svg>
