<svg xmlns="http://www.w3.org/2000/svg" width="25" height="24" fill="none" viewBox="0 0 25 24">
  <path fill="#161C24" d="M17.834 12a5.5 5.5 0 1 1-11 0 5.5 5.5 0 0 1 11 0Z" opacity=".4"/>
  <path fill="#161C24" fill-rule="evenodd" d="M13.083 1.338a1 1 0 0 1-.087 1.411.602.602 0 0 0-.103.124.4.4 0 0 0-.057.133.084.084 0 0 0 .003.05.52.52 0 0 0 .157.195 1 1 0 1 1-1.325 1.498c-.699-.617-.936-1.38-.802-2.105.118-.639.499-1.125.802-1.393a1 1 0 0 1 1.412.087ZM5.398 3.502a1 1 0 0 1 .936 1.06c-.002.04 0 .11.018.185.017.075.042.13.065.164a.15.15 0 0 0 .064.055c.028.013.111.044.29.033a1 1 0 1 1 .124 1.996c-.966.06-1.695-.325-2.125-.95-.38-.552-.458-1.188-.432-1.607a1 1 0 0 1 1.06-.936Zm12.892.434c.552-.38 1.186-.457 1.605-.431a1 1 0 0 1-.123 1.996.693.693 0 0 0-.185.017.48.48 0 0 0-.163.065.147.147 0 0 0-.055.064c-.013.027-.044.11-.033.29a1 1 0 1 1-1.996.123c-.06-.965.325-1.694.95-2.124Zm3.4 6.6c.638.117 1.125.498 1.393.802a1 1 0 1 1-1.499 1.324.602.602 0 0 0-.123-.102.4.4 0 0 0-.134-.058.084.084 0 0 0-.05.003.521.521 0 0 0-.194.157 1 1 0 1 1-1.499-1.324c.618-.7 1.38-.936 2.106-.802Zm-20.02.214a1 1 0 0 1 1.412.087c.107.121.176.15.194.157a.084.084 0 0 0 .05.003.4.4 0 0 0 .134-.058.598.598 0 0 0 .123-.102 1 1 0 1 1 1.499 1.324c-.268.304-.755.685-1.393.802-.725.134-1.488-.103-2.106-.802a1 1 0 0 1 .087-1.411Zm4.097 5.75a1 1 0 0 1 1.06.937c.025.42-.052 1.054-.432 1.606-.43.624-1.159 1.01-2.124.95a1 1 0 0 1 .123-1.996c.18.01.263-.02.29-.033a.146.146 0 0 0 .064-.055.48.48 0 0 0 .065-.163.693.693 0 0 0 .017-.185 1 1 0 0 1 .937-1.06Zm12.824 2.017a.787.787 0 0 0-.2-.017 1 1 0 0 1-.117-1.997c.408-.024 1.033.047 1.581.404.625.407 1.034 1.116.971 2.074a1 1 0 1 1-1.996-.13c.01-.153-.018-.214-.023-.225-.006-.01-.014-.024-.043-.043a.53.53 0 0 0-.173-.066Zm-7.008.82a1 1 0 0 1 1.412-.087c.303.268.684.754.802 1.393.134.725-.103 1.488-.802 2.105a1 1 0 1 1-1.325-1.498.523.523 0 0 0 .157-.194.084.084 0 0 0 .003-.05.4.4 0 0 0-.057-.134.601.601 0 0 0-.103-.124 1 1 0 0 1-.087-1.411Z" clip-rule="evenodd"/>
</svg>
