<svg xmlns="http://www.w3.org/2000/svg" width="25" height="24" fill="none" viewBox="0 0 25 24">
  <path fill="#161C24" d="M22.03 11.725c-.43-.546-.95-1.053-1.369-1.463-.088-.085-.093-.151-.136-.264l-1.074-2.84c-.198-.525-.376-.994-.573-1.368-.217-.41-.495-.782-.936-1.062-.433-.276-.901-.384-1.385-.433-.452-.045-1.001-.045-1.636-.045H9.746c-.635 0-1.184 0-1.636.045-.484.05-.951.157-1.385.433-.441.28-.72.651-.936 1.062-.197.374-.375.843-.573 1.367l-1.074 2.84c-.043.114-.049.18-.136.265-.419.41-.938.917-1.37 1.463-.54.682-1.053 1.554-1.053 2.552v3.278c0 .881.627 1.685 1.54 1.8l3.117.39a.966.966 0 0 0 .093.005h12a.74.74 0 0 0 .094-.006l3.116-.39c.914-.114 1.54-.918 1.54-1.799v-3.278c0-.998-.512-1.87-1.052-2.552Z" opacity=".4"/>
  <path fill="#161C24" d="m6.506 9.21.517-1.367c.222-.586.36-.947.497-1.208.185-.35.403-.443.792-.483.34-.034.786-.035 1.482-.035h5.08c.696 0 1.143.001 1.482.035.389.04.607.134.791.483.138.261.276.622.498 1.208l.516 1.366c.093.246.14.369.08.455-.06.087-.19.087-.454.087H6.881c-.263 0-.395 0-.454-.087-.06-.086-.014-.209.08-.455Z"/>
  <path fill="#161C24" fill-rule="evenodd" d="M11.365 16h1.938c.983 0 1.475 0 1.856.273.296.213.472.552.707 1.146.103.261.155.392.095.486-.059.095-.194.095-.464.095H9.17c-.27 0-.404 0-.464-.095-.06-.094-.008-.225.096-.486.235-.594.41-.933.706-1.146C9.89 16 10.381 16 11.365 16Zm10.15-1.772a.75.75 0 0 0-.363-1.455l-1.5.375a.75.75 0 1 0 .364 1.455l1.5-.375ZM3.67 12.829A.75.75 0 1 0 3 14.171l1.5.75a.75.75 0 0 0 .67-1.342l-1.5-.75Z" clip-rule="evenodd"/>
  <path fill="#161C24" d="M20.943 22.751h-1.719c-.285 0-.521-.113-.769-.223-.38-.17-.621-.516-.621-.895v-.482c0-.184 0-.277.058-.335.058-.059.152-.06.341-.06.107 0 .213-.005.318-.018l3.116-.39.1-.014c.284-.046.426-.069.496-.009.07.06.07.187.07.442v.866c0 .38-.24.725-.621.895-.248.11-.484.223-.77.223Zm-17.219 0h1.719c.285 0 .521-.113.769-.223.38-.17.622-.516.622-.895v-.482c0-.184 0-.277-.059-.335-.058-.059-.152-.06-.341-.06-.107 0-.213-.005-.318-.018L3 20.348a2.928 2.928 0 0 1-.1-.014c-.284-.046-.426-.069-.496-.009-.07.06-.07.187-.07.442v.866c0 .38.24.725.621.895.248.11.484.223.77.223Z"/>
  <path fill="#161C24" fill-rule="evenodd" d="m3.875 10.385-.988-.494A1 1 0 1 1 3.78 8.1l.905.453-.544 1.439c-.01.024-.017.047-.024.068a.42.42 0 0 1-.112.197l-.13.127ZM8.11 4.291c.112-.565.205-1.03.307-1.396.104-.377.24-.737.485-1.032.273-.33.606-.49.972-.56.297-.057.645-.057.981-.057h2.957c.336 0 .684 0 .981.056.366.07.7.232.972.56.245.296.38.656.485 1.033.102.365.195.83.307 1.396-.452-.046-1.001-.046-1.636-.046H9.746c-.635 0-1.184 0-1.636.046Zm11.87 4.264.905-.453a1 1 0 1 1 .895 1.789l-.99.494-.13-.128a.417.417 0 0 1-.112-.196l-.024-.068-.544-1.438Z" clip-rule="evenodd"/>
</svg>
