<svg xmlns="http://www.w3.org/2000/svg" width="25" height="24" fill="none" viewBox="0 0 25 24">
  <path fill="#161C24" d="M15.584 10.21c0-.91-.495-1.567-1.145-1.957-.623-.374-1.399-.519-2.122-.502-.725.017-1.488.197-2.095.571-.618.38-1.138 1.012-1.138 1.889 0 .34-.067.469-.105.52-.036.047-.123.13-.398.203a6.032 6.032 0 0 0-1.988.936l-2.021 1.436c-.796.564-1.378.977-1.7 1.654-.29.61-.289 1.306-.288 2.221v.199c0 .916 0 1.672.072 2.272.076.626.24 1.19.649 1.658.538.615 1.373.809 2.033.884.554.064 1.147.058 1.606.053l.298-.002h10.184l.217.001c.478.002 1.11.005 1.705-.067.652-.08 1.492-.27 2.015-.87.409-.467.573-1.031.649-1.657.072-.6.072-1.356.072-2.272v-.198c0-.916.002-1.612-.289-2.222-.321-.677-.904-1.09-1.699-1.655l-2.021-1.435a6.035 6.035 0 0 0-1.988-.936c-.275-.074-.362-.156-.398-.203-.039-.051-.105-.18-.105-.52Z" opacity=".4"/>
  <path fill="#161C24" fill-rule="evenodd" d="M12.334 13.75a2.75 2.75 0 1 0 0 5.5 2.75 2.75 0 0 0 0-5.5Z" clip-rule="evenodd"/>
  <path fill="#161C24" d="M7.088 2.476a19.301 19.301 0 0 1 10.491 0c1.394.398 2.41.897 3.337 1.5 1.653 1.073 2.322 2.98 2.137 4.757-.054.52-.305.983-.74 1.262-.426.275-.938.314-1.411.182l-.313-.086a59.29 59.29 0 0 1-1.088-.308c-.72-.214-1.32-.492-1.737-1.02-.405-.514-.55-1.159-.645-1.863l-.302-2.229c-.027-.199-.04-.298-.105-.367-.065-.07-.16-.09-.353-.132a19.386 19.386 0 0 0-8.051 0c-.192.041-.288.062-.353.132-.064.07-.078.168-.105.367L7.548 6.9c-.096.704-.24 1.349-.645 1.863-.417.528-1.016.806-1.737 1.02-.362.107-.73.208-1.088.308h-.001l-.312.086c-.473.132-.985.093-1.412-.182-.434-.28-.685-.741-.74-1.262-.184-1.776.485-3.684 2.138-4.758.928-.602 1.943-1.1 3.337-1.499Z"/>
</svg>
