<svg xmlns="http://www.w3.org/2000/svg" width="25" height="24" fill="none" viewBox="0 0 25 24">
  <path fill="#161C24" d="M12.359 1.25c.444 0 .816 0 1.12.02.318.022.617.07.908.19a2.75 2.75 0 0 1 1.487 1.487c.12.29.167.59.19.908.02.304.02.676.02 1.12v7.666a5.75 5.75 0 1 1-7.501 0V4.975c0-.444 0-.816.02-1.12.022-.318.07-.617.19-.908A2.75 2.75 0 0 1 10.28 1.46c.29-.12.59-.168.908-.19.304-.02.726-.02 1.17-.02Z" opacity=".4"/>
  <path fill="#161C24" d="M13.334 8a1 1 0 1 0-2 0v6.438a2.751 2.751 0 1 0 2 0V8Z"/>
</svg>
