<svg xmlns="http://www.w3.org/2000/svg" width="25" height="24" fill="none" viewBox="0 0 25 24">
  <path fill="#161C24" d="M6.044 1.59a1.454 1.454 0 0 1 2 .127c.087.107.282.36.37.512.457.735.599 1.614.387 2.45-.024.094-.054.188-.094.316l-.29.914.757.004c.812 0 1.495 0 2.022.068.54.07 1.094.228 1.48.698.073.09.14.185.196.285.31.545.23 1.12.07 1.63-.154.49-.439 1.085-.772 1.781-.31.65-.609 1.273-.867 1.695-.271.444-.573.812-.997 1.093-.074.05-.15.096-.23.14-.44.245-.91.35-1.44.4-.507.047-1.126.047-1.883.047h-.426c-.91 0-1.665 0-2.263-.075-.625-.08-1.192-.253-1.652-.686-.467-.438-.66-.99-.747-1.599-.082-.571-.082-1.288-.082-2.138v-.809c0-.82 0-1.43.226-1.997.225-.564.647-1.017 1.222-1.634l2.83-3.042c.05-.054.116-.125.183-.18Z" opacity=".4"/>
  <path fill="#161C24" d="M18.623 22.41a1.453 1.453 0 0 1-2-.127 5.35 5.35 0 0 1-.37-.512 3.155 3.155 0 0 1-.387-2.45c.023-.095.053-.188.094-.316l.289-.914-.756-.004c-.813 0-1.495 0-2.022-.068-.54-.07-1.094-.228-1.48-.698a2.01 2.01 0 0 1-.197-.285c-.309-.545-.23-1.12-.07-1.63.155-.49.44-1.085.772-1.781.311-.65.61-1.273.867-1.695.272-.444.573-.812.997-1.093.075-.05.152-.096.23-.14.441-.245.91-.35 1.44-.4.508-.047 1.127-.047 1.884-.047h.426c.91 0 1.665 0 2.262.076.626.079 1.193.252 1.653.684.466.44.66.99.747 1.6.081.571.081 1.288.081 2.138v.809c0 .82.001 1.43-.225 1.997-.226.564-.647 1.017-1.223 1.634l-2.83 3.042c-.05.054-.115.125-.182.18Z"/>
</svg>
