<svg xmlns="http://www.w3.org/2000/svg" width="25" height="24" fill="none" viewBox="0 0 25 24">
  <path fill="#161C24" d="M13.133 3.185a1.783 1.783 0 0 1 2.497.16c.113.142.374.488.51.734.63 1.04.822 2.28.533 3.457-.033.132-.074.265-.137.47l-.274.882a9.603 9.603 0 0 0-.217.76c-.026.092-.013.28.249.292.18.016.885.017 1.279.017 1.237 0 2.242 0 3.01.101.784.104 1.497.333 1.982.942.096.12.181.248.255.382.38.69.3 1.433.07 2.18-.221.728-.638 1.624-1.148 2.722-.473 1.018-.893 1.923-1.268 2.557-.39.656-.805 1.171-1.38 1.564-.673.46-1.57.7-2.338.773-.745.072-1.66.072-2.808.072-1.384 0-3.1 0-3.974-.114-.905-.118-1.667-.37-2.274-.958-.611-.592-.875-1.34-.998-2.227-.119-.852-.118-1.934-.118-3.27v-1.173c0-1.318-.001-2.18.309-2.979.309-.796.892-1.441 1.788-2.433l4.21-4.662c.08-.089.16-.179.242-.249Z" opacity=".4"/>
  <path fill="#161C24" fill-rule="evenodd" d="M1.583 12.625c0-1.588 1.248-2.875 2.786-2.875 2.052 0 3.715 1.716 3.715 3.833v3.834c0 2.117-1.663 3.833-3.715 3.833-1.538 0-2.785-1.287-2.785-2.875v-5.75Zm2.786-.958c-.513 0-.928.429-.928.958v5.75c0 .53.415.958.928.958 1.026 0 1.857-.858 1.857-1.916v-3.834c0-1.058-.831-1.916-1.857-1.916Z" clip-rule="evenodd"/>
</svg>
