<svg xmlns="http://www.w3.org/2000/svg" width="25" height="24" fill="none" viewBox="0 0 25 24">
  <path fill="#161C24" d="m8.845 12.584-1.316-1.49a3.248 3.248 0 0 0-5.149.359 3.29 3.29 0 0 0 .298 4.017l2.089 2.317c.75.832 1.347 1.494 1.874 1.945.538.46 1.075.764 1.71.77.642.005 1.2-.31 1.768-.786.56-.469 1.208-1.163 2.03-2.041l.024-.026c.264-.283.527-.557.79-.825 0 0-3.698-3.821-4.118-4.24Z" opacity=".4"/>
  <path fill="#161C24" d="M22.189 4.796c-1.075-1.442-3.134-1.745-4.537-.581-3.372 2.797-5.996 5.49-8.48 8.363l-4.384 4.384a1.245 1.245 0 0 0-.114.122.5.5 0 0 0-.015.574c.02.03.05.063.108.128.75.832 1.347 1.494 1.874 1.945.538.46 1.075.763 1.71.77.642.005 1.2-.31 1.767-.786.56-.469 1.21-1.163 2.03-2.041l.025-.026c2.28-2.44 4.491-4.273 7.047-6.39.791-.657 1.617-1.34 2.487-2.079 1.3-1.101 1.494-3.025.482-4.383Z"/>
</svg>
