<svg xmlns="http://www.w3.org/2000/svg" width="25" height="24" fill="none" viewBox="0 0 25 24">
  <path fill="#161C24" fill-rule="evenodd" d="M17.524 5.777a1 1 0 0 1 .033 1.413l-6.063 6.352a1 1 0 1 1-1.447-1.38L16.11 5.81a1 1 0 0 1 1.414-.033ZM2.143 13.11a1 1 0 0 1 1.414.033l2.809 2.943a1 1 0 0 1 1.203 1.568l-.512.537a1 1 0 0 1-1.447 0l-3.5-3.667a1 1 0 0 1 .033-1.414Z" clip-rule="evenodd" opacity=".4"/>
  <path fill="#161C24" fill-rule="evenodd" d="M22.524 5.777a1 1 0 0 1 .033 1.413l-10.5 11a1 1 0 0 1-1.447 0l-3.5-3.666a1 1 0 1 1 1.447-1.381l2.777 2.909L21.11 5.81a1 1 0 0 1 1.414-.033Z" clip-rule="evenodd"/>
</svg>
