<svg xmlns="http://www.w3.org/2000/svg" width="25" height="24" fill="none" viewBox="0 0 25 24">
  <path fill="#161C24" d="M6.612 6.512c.266-2.876 2.483-5.262 5.722-5.262 3.238 0 5.455 2.386 5.721 5.262a5.752 5.752 0 0 1-1.721 11.238h-8A5.75 5.75 0 0 1 6.612 6.512Z" opacity=".4"/>
  <path fill="#161C24" d="M12.334 8.25a.75.75 0 0 1 .75.75v4.19l1.22-1.22a.75.75 0 1 1 1.06 1.06l-2.28 2.28v5.94h1.25a.75.75 0 0 1 0 1.5h-4a.75.75 0 0 1 0-1.5h1.25v-7.94l-2.28-2.28a.75.75 0 1 1 1.06-1.06l1.22 1.22V9a.75.75 0 0 1 .75-.75Z"/>
</svg>
