<svg xmlns="http://www.w3.org/2000/svg" width="25" height="24" fill="none" viewBox="0 0 25 24">
  <path fill="#161C24" d="M10.514 3.251c.634 0 1.185 0 1.629.063 1.468.206 1.875 1.375 1.93 2.688h.748c.617 0 1.15 0 1.598.044.48.047.932.151 1.371.4.436.247.763.582 1.063.97.282.365.58.833.931 1.383.422.66.928 1.235 1.577 1.68.906.622 1.6 1.544 1.695 2.662l.027 1.217c0 .583 0 1.087-.049 1.493-.107.884-.598 1.479-1.356 1.74-.235.08-.353.12-.47.057-.115-.063-.154-.222-.231-.538a3.751 3.751 0 0 0-7.306.08c-.062.282-.093.423-.175.49-.082.065-.21.065-.465.065h-1.395c-.255 0-.383 0-.465-.066-.082-.066-.113-.207-.175-.488a3.751 3.751 0 0 0-7.343.089c-.04.208-.06.312-.133.358-.072.046-.16.024-.334-.019a1.943 1.943 0 0 1-.974-.544c-.367-.383-.507-.852-.57-1.337-.059-.457-.059-1.027-.058-1.693V6.952c0-.666 0-1.236.058-1.693.063-.485.203-.954.57-1.337.371-.388.832-.54 1.312-.608.555-.078 1.121-.063 1.68-.063h5.31Z" opacity=".4"/>
  <path fill="#161C24" fill-rule="evenodd" d="M14.671 8.09c.06-.088.194-.088.463-.09.363-.001.727.003 1.088.038.476.047.757.225 1.048.602.221.286.472.677.852 1.273a8.7 8.7 0 0 0 .425.613c.253.335.38.502.325.613-.055.11-.256.11-.657.11h-.173c-.672 0-1.116 0-1.457-.038-.483-.053-.755-.236-.984-.665-.161-.303-.327-.714-.577-1.338l-.262-.656c-.1-.25-.15-.374-.09-.462Z" clip-rule="evenodd"/>
  <path fill="#161C24" d="M17.334 20.5a2.5 2.5 0 1 0 0-5 2.5 2.5 0 0 0 0 5Zm-10.001 0a2.5 2.5 0 1 0 0-5 2.5 2.5 0 0 0 0 5Z"/>
</svg>
