<svg xmlns="http://www.w3.org/2000/svg" width="25" height="24" fill="none" viewBox="0 0 25 24">
  <path fill="#161C24" fill-rule="evenodd" d="M1.333 8a1 1 0 0 1 1-1h6a1 1 0 0 1 0 2h-6a1 1 0 0 1-1-1Zm0 3a1 1 0 0 1 1-1h4a1 1 0 1 1 0 2h-4a1 1 0 0 1-1-1Z" clip-rule="evenodd"/>
  <path fill="#161C24" d="M10.782 3.25c.983 0 1.655 0 2.222.184A3.754 3.754 0 0 1 15.02 5h1.448c.688 0 1.277 0 1.766.05.523.052 1.011.167 1.478.446.466.278.8.654 1.094 1.089.275.407.554.925.88 1.53l1.301 2.414c.08.147.118.305.12.462v2.068c0 1.133 0 2.06-.098 2.791-.103.764-.326 1.427-.855 1.956-.2.2-.42.356-.657.48-.093.047-.14.072-.185.073a.203.203 0 0 1-.188-.114c-.02-.041-.02-.106-.02-.237a3.753 3.753 0 0 0-3.754-3.752 3.753 3.753 0 0 0-3.745 4.009c.016.239.024.358-.036.422-.06.063-.17.063-.39.062l-1.672-.008c-.218 0-.327-.001-.386-.065-.06-.063-.052-.181-.036-.417a3.753 3.753 0 0 0-3.746-4.003 3.753 3.753 0 0 0-3.755 3.752c0 .13 0 .196-.019.236a.203.203 0 0 1-.188.115c-.045-.001-.092-.026-.185-.074a2.626 2.626 0 0 1-.657-.479c-.702-.701-.869-1.644-.924-2.762l-.001-.036-.003-1.069c0-.235 0-.353.063-.413.065-.06.199-.049.467-.028.064.005.13.008.196.008h4.005a2.502 2.502 0 0 0 2.503-2.502c0-.244 0-.366.027-.426a.22.22 0 0 1 .051-.076c.045-.049.158-.096.384-.19a2.502 2.502 0 0 0-.963-4.811H2.333c-.212 0-.318 0-.372-.04a.194.194 0 0 1-.074-.113c-.016-.065.018-.143.084-.298.133-.31.315-.593.568-.846.53-.53 1.193-.753 1.96-.856.733-.099 1.662-.099 2.798-.099h3.485Z" opacity=".4"/>
  <path fill="#161C24" fill-rule="evenodd" d="M19.895 10.252c.3 0 .449 0 .507-.097.059-.098-.012-.23-.154-.493l-.3-.557c-.355-.659-.588-1.087-.8-1.4-.199-.295-.335-.417-.461-.493-.127-.075-.299-.137-.653-.173C17.658 7.001 17.17 7 16.422 7h-.418c-.195 0-.292 0-.35.06-.06.059-.059.158-.056.356.003.2.002.398.002.597v.188c0 .803.009 1.027.061 1.187.124.38.422.68.803.803.16.052.384.061 1.188.061h2.243Z" clip-rule="evenodd"/>
  <path fill="#161C24" d="M17.334 20.5a2.5 2.5 0 1 0 0-5 2.5 2.5 0 0 0 0 5Zm-10.001 0a2.5 2.5 0 1 0 0-5 2.5 2.5 0 0 0 0 5Z"/>
</svg>
