<svg xmlns="http://www.w3.org/2000/svg" width="25" height="24" fill="none" viewBox="0 0 25 24">
  <path fill="#161C24" fill-rule="evenodd" d="M1.533 12c0-5.832 4.728-10.56 10.56-10.56 5.832 0 10.56 4.728 10.56 10.56 0 5.832-4.727 10.56-10.56 10.56-5.832 0-10.56-4.728-10.56-10.56ZM5.42 6.82a8.448 8.448 0 0 0 11.854 11.854L5.42 6.82Zm1.493-1.494L18.767 17.18A8.448 8.448 0 0 0 6.913 5.326Z" clip-rule="evenodd" opacity=".4"/>
  <path fill="#161C24" fill-rule="evenodd" d="M22.653 12c0-5.832-4.728-10.56-10.56-10.56-3.296 0-6.239 1.51-8.176 3.877l14.86 14.86A10.54 10.54 0 0 0 22.652 12Zm-3.887 5.18L6.912 5.326A8.448 8.448 0 0 1 18.766 17.18Z" clip-rule="evenodd"/>
</svg>
