<svg xmlns="http://www.w3.org/2000/svg" width="25" height="24" fill="none" viewBox="0 0 25 24">
  <path fill="#161C24" d="M5.422 10.411a1 1 0 0 0 .912.589h12a1 1 0 0 0 .749-1.662l-.002-.002a49.013 49.013 0 0 0-.733-.8 47.276 47.276 0 0 0-1.73-1.757c-.663-.638-1.4-1.297-2.087-1.803a7.41 7.41 0 0 0-1.037-.655c-.32-.16-.73-.321-1.16-.321-.431 0-.84.16-1.161.321a7.415 7.415 0 0 0-1.037.655c-.687.506-1.424 1.165-2.088 1.803a47.295 47.295 0 0 0-2.462 2.557l-.001.001c-.26.295-.325.715-.163 1.074Z" opacity=".4"/>
  <path fill="#161C24" d="M5.422 13.589A1 1 0 0 1 6.334 13h12a1 1 0 0 1 .749 1.662l-.002.002a50.037 50.037 0 0 1-.733.8 47.25 47.25 0 0 1-1.73 1.757c-.663.638-1.4 1.297-2.087 1.803a7.407 7.407 0 0 1-1.037.655c-.32.16-.73.321-1.16.321-.431 0-.84-.16-1.161-.321a7.413 7.413 0 0 1-1.037-.655c-.687-.506-1.424-1.165-2.088-1.803a47.348 47.348 0 0 1-2.262-2.335l-.2-.222-.001-.001a1 1 0 0 1-.163-1.074Z"/>
</svg>
