<svg xmlns="http://www.w3.org/2000/svg" width="25" height="24" fill="none" viewBox="0 0 25 24">
  <path fill="#161C24" d="M1.583 12c0-5.937 4.813-10.75 10.75-10.75 5.938 0 10.75 4.813 10.75 10.75s-4.812 10.75-10.75 10.75c-5.937 0-10.75-4.813-10.75-10.75Z" opacity=".4"/>
  <path fill="#161C24" d="M9.072 9.5a3.252 3.252 0 0 1 3.253-3.25A3.252 3.252 0 0 1 15.58 9.5a3.252 3.252 0 0 1-3.254 3.25A3.252 3.252 0 0 1 9.072 9.5Zm-1.775 6.976c2.611-2.727 7.41-2.876 10.077.004l.183.183a.75.75 0 0 1-.027 1.087 7.725 7.725 0 0 1-5.196 2 7.725 7.725 0 0 1-5.197-2 .75.75 0 0 1-.027-1.087l.187-.187Z"/>
</svg>
