<svg xmlns="http://www.w3.org/2000/svg" width="25" height="24" fill="none" viewBox="0 0 25 24">
  <path fill="#161C24" d="M18.14 14.837c.116.07.26.15.422.242.713.402 1.79 1.01 2.529 1.733.461.452.9 1.047.98 1.777.084.776-.254 1.504-.933 2.15-1.171 1.117-2.577 2.011-4.396 2.011H7.925c-1.818 0-3.224-.894-4.395-2.01-.68-.647-1.018-1.375-.933-2.151.08-.73.518-1.325.98-1.777.738-.723 1.816-1.33 2.529-1.733.162-.091.306-.173.422-.242a11.413 11.413 0 0 1 11.613 0Z"/>
  <path fill="#161C24" d="M7.083 6.5a5.25 5.25 0 1 1 10.5 0 5.25 5.25 0 0 1-10.5 0Z" opacity=".4"/>
</svg>
