<svg xmlns="http://www.w3.org/2000/svg" width="25" height="24" fill="none" viewBox="0 0 25 24">
  <path fill="#161C24" fill-rule="evenodd" d="M12.334 4.25a3.75 3.75 0 1 0 0 7.5 3.75 3.75 0 0 0 0-7.5Zm-1.715 9a5.036 5.036 0 0 0-5.035 5.036 2.464 2.464 0 0 0 2.464 2.464h8.571a2.464 2.464 0 0 0 2.465-2.464 5.036 5.036 0 0 0-5.036-5.036h-3.429Z" clip-rule="evenodd" opacity=".4"/>
  <path fill="#161C24" fill-rule="evenodd" d="M7.333 8a4.999 4.999 0 0 1 2.605-4.39 3.75 3.75 0 1 0-1.784 7.136A4.977 4.977 0 0 1 7.334 8Zm-3 10.286c0-2.86 1.91-5.275 4.525-6.036H6.62a5.036 5.036 0 0 0-5.035 5.036 2.464 2.464 0 0 0 2.464 2.464h.585c-.193-.45-.3-.944-.3-1.464ZM17.334 8a4.977 4.977 0 0 1-.82 2.746 3.75 3.75 0 1 0-1.785-7.136A4.999 4.999 0 0 1 17.334 8Zm3 10.286c0 .52-.106 1.015-.3 1.464h.586a2.464 2.464 0 0 0 2.465-2.464 5.036 5.036 0 0 0-5.036-5.036h-2.24a6.289 6.289 0 0 1 4.526 6.036Z" clip-rule="evenodd"/>
</svg>
