<svg xmlns="http://www.w3.org/2000/svg" width="25" height="24" fill="none" viewBox="0 0 25 24">
  <path fill="#161C24" d="M23.15 13.916a1 1 0 0 1-.608 1.277c-.534.189-1.15.596-1.803 1.168-.643.564-1.268 1.241-1.822 1.905a28.033 28.033 0 0 0-1.865 2.52 1 1 0 0 1-1.738-.088c-.44-.882-.836-1.233-1.035-1.366a.731.731 0 0 0-.164-.086 1 1 0 0 1 .093-1.996c.604 0 .906.235 1.18.418.274.183.562.436.85.782a29.23 29.23 0 0 1 1.144-1.465c.593-.712 1.291-1.472 2.038-2.127.737-.646 1.576-1.24 2.454-1.55a1 1 0 0 1 1.277.608Z"/>
  <path fill="#161C24" d="M12.208 1.25a5.25 5.25 0 1 0 0 10.5 5.25 5.25 0 0 0 0-10.5ZM9.603 13.363c1.064-.15 2.146-.15 3.21 0 1.228.173 2.556.617 3.722 1.214.299.153.448.23.476.374.027.143-.09.276-.322.543-.112.129-.225.26-.33.384-.158.184-.236.276-.334.298-.097.022-.223-.035-.475-.147a3.244 3.244 0 0 0-1.342-.279 2.5 2.5 0 0 0-.903 4.832c.113.044.17.066.202.09.032.024.069.07.142.163.19.242.47.534.759.816.497.483.745.725.669.912-.076.187-.416.187-1.094.187H6.799c-1.818 0-3.224-.894-4.395-2.01-.68-.647-1.018-1.375-.933-2.151.08-.73.518-1.325.98-1.777.738-.723 1.816-1.33 2.528-1.733.163-.091.307-.173.423-.242a11.291 11.291 0 0 1 4.201-1.474Z" opacity=".4"/>
</svg>
