<svg xmlns="http://www.w3.org/2000/svg" width="25" height="24" fill="none" viewBox="0 0 25 24">
  <path fill="#161C24" fill-rule="evenodd" d="M11.356 2.227c0-.54.438-.977.978-.977 5.938 0 10.75 4.814 10.75 10.75s-4.812 10.75-10.75 10.75a.977.977 0 1 1 0-1.954A8.795 8.795 0 0 0 21.129 12a8.795 8.795 0 0 0-8.795-8.795.977.977 0 0 1-.978-.978Zm-1.441.284a.977.977 0 0 1-.563 1.262c-.926.355-1.792.839-2.554 1.43A.977.977 0 1 1 5.6 3.656a12.001 12.001 0 0 1 3.051-1.709.977.977 0 0 1 1.263.563ZM4.344 6.226a.977.977 0 0 1 .314 1.346 8.428 8.428 0 0 0-1.136 2.893.977.977 0 1 1-1.922-.358A10.382 10.382 0 0 1 2.998 6.54a.977.977 0 0 1 1.346-.314Zm-1.962 6.527a.977.977 0 0 1 1.14.782 8.428 8.428 0 0 0 1.136 2.893.977.977 0 1 1-1.66 1.032A10.382 10.382 0 0 1 1.6 13.893a.977.977 0 0 1 .782-1.14Zm3.05 6.213a.977.977 0 0 1 1.371-.164 9.712 9.712 0 0 0 2.547 1.425.977.977 0 1 1-.696 1.826 11.661 11.661 0 0 1-3.059-1.715.977.977 0 0 1-.164-1.372Z" clip-rule="evenodd" opacity=".4"/>
  <path fill="#161C24" d="M9.35 9.75c0-1.65 1.325-3 2.976-3s2.976 1.35 2.976 3-1.325 3-2.976 3c-1.65 0-2.975-1.35-2.975-3Zm-1.546 6.218c2.353-2.474 6.664-2.61 9.068.01a.75.75 0 0 1-.054 1.067 6.727 6.727 0 0 1-4.484 1.705 6.728 6.728 0 0 1-4.485-1.705.75.75 0 0 1-.045-1.077Z"/>
</svg>
