<svg xmlns="http://www.w3.org/2000/svg" width="25" height="24" fill="none" viewBox="0 0 25 24">
  <path fill="#161C24" d="M19.064 12.553a2.148 2.148 0 0 1 2.144-.032c.28.155.527.408.808.696l.127.13c.282.287.529.539.68.822a2.231 2.231 0 0 1-.031 2.15c-.16.28-.413.523-.704.802l-4.39 4.229c-.582.561-1.023.986-1.586 1.206-.565.221-1.174.205-1.974.183l-.28-.007a3.028 3.028 0 0 1-.406-.03 1.025 1.025 0 0 1-.617-.328 1.037 1.037 0 0 1-.25-.643c-.007-.135.005-.29.015-.409l.023-.29c.054-.703.094-1.227.303-1.708.21-.482.565-.866 1.038-1.378l4.313-4.674c.273-.295.512-.556.787-.72Z"/>
  <path fill="#161C24" d="M12.334 1.25a5.25 5.25 0 1 0 0 10.5 5.25 5.25 0 0 0 0-10.5ZM11.09 21.853l-.002-.038.047-1c.047-.619.104-1.371.415-2.088.314-.72.826-1.274 1.245-1.726l2.135-2.314c.273-.295.409-.442.366-.602-.043-.16-.228-.217-.598-.33a11.502 11.502 0 0 0-4.969-.392 11.291 11.291 0 0 0-4.201 1.474c-.116.07-.26.15-.423.242-.713.402-1.79 1.01-2.528 1.733-.462.452-.9 1.047-.98 1.777-.085.776.253 1.504.932 2.15 1.172 1.117 2.577 2.011 4.396 2.011h3.458c.386 0 .579 0 .667-.095.09-.096.073-.331.04-.802Z" opacity=".4"/>
</svg>
