<svg xmlns="http://www.w3.org/2000/svg" width="25" height="24" fill="none" viewBox="0 0 25 24">
  <path fill="#161C24" fill-rule="evenodd" d="M14.334 18.5a1 1 0 0 1 1-1h7a1 1 0 1 1 0 2h-7a1 1 0 0 1-1-1Z" clip-rule="evenodd"/>
  <path fill="#161C24" d="M11.334 1.25a5.25 5.25 0 1 0 0 10.5 5.25 5.25 0 0 0 0-10.5ZM9.729 13.363c1.064-.15 2.146-.15 3.21 0a11.29 11.29 0 0 1 4.2 1.474c.117.07.26.15.424.242.53.3.796.45.789.632a.31.31 0 0 1-.033.126c-.084.163-.394.163-1.015.163h-1.97a2.5 2.5 0 0 0 0 5h2.945c.686 0 1.03 0 1.09.22.06.22-.218.387-.776.72-.829.492-1.766.81-2.85.81H6.925c-1.819 0-3.225-.894-4.396-2.01-.679-.647-1.017-1.375-.933-2.151.08-.73.519-1.325.98-1.777.739-.723 1.816-1.33 2.529-1.733a21 21 0 0 0 .423-.242 11.291 11.291 0 0 1 4.2-1.474Z" opacity=".4"/>
</svg>
