<svg xmlns="http://www.w3.org/2000/svg" width="25" height="24" fill="none" viewBox="0 0 25 24">
  <path fill="#161C24" d="M14.654 10.988c-.194.273-.291.41-.254.546.037.135.166.197.425.32a4.131 4.131 0 0 0 1.787.403c2.216 0 4.012-1.724 4.012-3.851s-1.796-3.851-4.012-3.851a4.2 4.2 0 0 0-.708.06c-.284.048-.427.072-.502.193-.075.12-.022.278.085.593a6.212 6.212 0 0 1-.832 5.586Zm4.83 9.486c1.446 0 2.571-.593 3.507-1.334.554-.439.917-1.004.83-1.67-.08-.6-.5-1.045-.864-1.34-.596-.485-1.466-.892-2.013-1.148a16.758 16.758 0 0 1-.31-.147 10.135 10.135 0 0 0-3.44-.98c-.774-.08-1.161-.12-1.25.102-.088.222.257.46.945.934.262.181.515.374.737.576.5.453 1.233 1.268 1.371 2.438a3.184 3.184 0 0 1-.177 1.494c-.198.538-.298.807-.212.934a.299.299 0 0 0 .015.02c.097.12.351.12.86.12Z" opacity=".4"/>
  <path fill="#161C24" d="M14.374 15.22c.59.307 1.517.791 2.152 1.366.394.357.803.857.878 1.492.08.687-.249 1.307-.841 1.83-.994.876-2.202 1.592-3.77 1.592H5.456c-1.567 0-2.776-.716-3.77-1.593-.592-.522-.921-1.142-.84-1.83.075-.634.483-1.134.878-1.491.634-.575 1.56-1.058 2.152-1.367.131-.068.246-.128.337-.179 3.008-1.658 6.815-1.658 9.823 0 .091.05.206.11.338.18ZM4.042 7.378c0-2.694 2.276-4.878 5.082-4.878s5.082 2.184 5.082 4.878c0 2.695-2.275 4.879-5.082 4.879-2.806 0-5.082-2.184-5.082-4.879Z"/>
</svg>
