<svg xmlns="http://www.w3.org/2000/svg" width="25" height="24" fill="none" viewBox="0 0 25 24">
  <path fill="#161C24" d="M12.39 1.75c2.191 0 3.912 0 5.255.18 1.377.186 2.47.573 3.328 1.43.858.86 1.245 1.951 1.43 3.328.18 1.343.18 3.064.18 5.255v.114c0 2.19 0 3.912-.18 5.255-.185 1.377-.572 2.469-1.43 3.327-.859.858-1.95 1.245-3.328 1.43-1.343.181-3.064.181-5.254.181h-.115c-2.19 0-3.911 0-5.254-.18-1.377-.186-2.47-.573-3.328-1.43-.858-.86-1.245-1.951-1.43-3.328-.18-1.343-.18-3.064-.18-5.255v-.114c0-2.19 0-3.912.18-5.255.185-1.377.572-2.469 1.43-3.327.859-.858 1.95-1.245 3.328-1.43 1.343-.181 3.064-.181 5.254-.181h.115Z" opacity=".4"/>
  <path fill="#161C24" d="M9.072 9.5a3.252 3.252 0 0 1 3.253-3.25A3.252 3.252 0 0 1 15.58 9.5a3.252 3.252 0 0 1-3.254 3.25A3.252 3.252 0 0 1 9.072 9.5Zm-1.756 8.043a.75.75 0 0 1-.025-1.06c2.613-2.738 7.427-2.886 10.094.009a.75.75 0 0 1-.552 1.258h-9a.748.748 0 0 1-.517-.207Z"/>
</svg>
