<svg xmlns="http://www.w3.org/2000/svg" width="25" height="24" fill="none" viewBox="0 0 25 24">
  <path fill="#161C24" d="M9.584 12a2.75 2.75 0 1 1 5.5 0 2.75 2.75 0 0 1-5.5 0Z" opacity=".4"/>
  <path fill="#161C24" d="M11.343 2.315c.226-.136.58-.315.99-.315.41 0 .765.18.991.315.254.153.506.353.741.56.473.419.974.957 1.419 1.47a35.82 35.82 0 0 1 1.652 2.058l.002.004A1 1 0 0 1 16.333 8h-8a1 1 0 0 1-.805-1.593l.003-.004c.088-.116.343-.453.49-.643.3-.384.713-.898 1.162-1.416.445-.512.946-1.05 1.419-1.468a5.25 5.25 0 0 1 .74-.56ZM7.44 16.549A1 1 0 0 1 8.334 16h8a1 1 0 0 1 .806 1.593l-.003.004c-.088.116-.343.453-.491.643-.3.384-.712.898-1.161 1.416-.445.512-.946 1.05-1.419 1.468a5.249 5.249 0 0 1-.74.56c-.227.137-.581.316-.992.316-.41 0-.764-.18-.99-.316a5.244 5.244 0 0 1-.742-.56c-.473-.418-.973-.956-1.418-1.468a35.827 35.827 0 0 1-1.161-1.416c-.149-.19-.403-.527-.491-.643l-.002-.004a1 1 0 0 1-.088-1.044Z"/>
</svg>
