<svg xmlns="http://www.w3.org/2000/svg" width="25" height="24" fill="none" viewBox="0 0 25 24">
  <path fill="#161C24" d="M12.334 4.25c-2.571 0-4.775 1.131-6.48 2.463-1.707 1.333-2.97 2.907-3.675 3.897l-.053.074c-.253.352-.542.754-.542 1.316s.289.964.542 1.316l.053.074c.706.99 1.968 2.564 3.675 3.897 1.705 1.332 3.909 2.463 6.48 2.463 2.57 0 4.774-1.131 6.48-2.463 1.706-1.333 2.968-2.907 3.674-3.896l.053-.075c.253-.352.543-.754.543-1.316s-.29-.964-.543-1.316l-.053-.074c-.706-.99-1.968-2.564-3.675-3.897-1.705-1.332-3.909-2.463-6.48-2.463Z" opacity=".4"/>
  <path fill="#161C24" fill-rule="evenodd" d="M12.334 15.5a3.5 3.5 0 1 1 0-7 3.5 3.5 0 0 1 0 7Z" clip-rule="evenodd"/>
</svg>
