<svg xmlns="http://www.w3.org/2000/svg" width="25" height="24" fill="none" viewBox="0 0 25 24">
  <path fill="#161C24" d="M7.611 6.218a.75.75 0 0 0-.95-.092C4.54 7.558 2.937 9.548 2.127 10.684c-.253.353-.542.754-.542 1.317 0 .562.342 1.038.595 1.39.706.99 1.968 2.564 3.675 3.897 1.705 1.331 3.909 2.463 6.48 2.463 2.182 0 4.101-.817 5.671-1.876a.75.75 0 0 0 .111-1.152l-2.767-2.768-.515.516a3.515 3.515 0 0 1-4.97-4.97l.514-.516-2.767-2.767Z"/>
  <path fill="#161C24" d="M9.52 4.705a9.073 9.073 0 0 1 2.813-.455c2.57 0 4.774 1.131 6.48 2.463 1.707 1.333 2.969 2.907 3.675 3.897.253.352.595.828.595 1.39 0 .562-.289.964-.542 1.316a21.25 21.25 0 0 1-2.24 2.655.75.75 0 0 1-1.06-.002L9.222 5.95a.75.75 0 0 1 .299-1.244Z" opacity=".4"/>
  <path fill="#161C24" fill-rule="evenodd" d="M2.626 2.293a1 1 0 0 1 1.415 0l18 18a1 1 0 0 1-1.415 1.414l-18-18a1 1 0 0 1 0-1.414Z" clip-rule="evenodd"/>
</svg>
