<svg xmlns="http://www.w3.org/2000/svg" width="25" height="24" fill="none" viewBox="0 0 25 24">
  <path fill="#161C24" fill-rule="evenodd" d="M1.626 1.293a1 1 0 0 1 1.415 0l20 20a1 1 0 0 1-1.415 1.414l-20-20a1 1 0 0 1 0-1.414Z" clip-rule="evenodd"/>
  <path fill="#161C24" d="M11.326 3.976c.687-.528 1.504-.956 2.375-.588.863.365 1.14 1.245 1.26 2.11.123.887.123 2.108.123 3.626v.643c0 .617 0 .925-.185 1.002-.185.076-.403-.142-.839-.577l-4.12-4.12c-.2-.2-.3-.3-.3-.425s.1-.224.3-.42c.52-.513.984-.943 1.386-1.251Z"/>
  <path fill="#161C24" d="M15.084 14.878c0 1.518 0 2.74-.123 3.626-.12.865-.397 1.745-1.26 2.11-.872.369-1.69-.06-2.376-.588-.702-.539-1.595-1.45-2.645-2.523-.54-.55-.897-.817-1.26-.966-.364-.151-.807-.215-1.58-.215-.669 0-1.267 0-1.72-.047-.475-.05-.916-.157-1.312-.427-.756-.516-1.045-1.271-1.155-1.965-.082-.518-.072-1.086-.065-1.543v-.678c-.007-.458-.017-1.026.065-1.544.11-.694.399-1.449 1.155-1.964.396-.271.837-.378 1.312-.428.453-.047 1.051-.047 1.72-.047.773 0 1.216-.064 1.58-.214.067-.028.101-.042.12-.047a.275.275 0 0 1 .259.051c.016.012.035.032.074.07l7.12 7.12.005.006a.3.3 0 0 1 .086.206v.007Z" opacity=".4"/>
  <path fill="#161C24" fill-rule="evenodd" d="M19.62 7.299a1 1 0 0 1 1.415-.012c1.411 1.387 2.299 3.2 2.299 5.213 0 1.393-.427 2.696-1.162 3.828a1 1 0 0 1-1.677-1.09c.543-.835.838-1.764.838-2.738 0-1.397-.61-2.715-1.7-3.787A1 1 0 0 1 19.62 7.3ZM16.7 9.227a1 1 0 0 1 1.407.138c.763.93 1.227 2.089 1.227 3.354v.079a1 1 0 1 1-2-.079c0-.762-.276-1.48-.772-2.084a1 1 0 0 1 .138-1.408Z" clip-rule="evenodd"/>
</svg>
