<svg xmlns="http://www.w3.org/2000/svg" width="25" height="24" fill="none" viewBox="0 0 25 24">
  <path fill="#161C24" d="M11.325 3.976c.687-.528 1.504-.956 2.376-.588.863.365 1.14 1.245 1.26 2.11.123.887.123 2.108.123 3.626v5.755c0 1.519 0 2.74-.123 3.626-.12.865-.397 1.745-1.26 2.11-.872.369-1.69-.06-2.376-.587-.702-.54-1.595-1.451-2.645-2.524-.54-.55-.897-.817-1.26-.967-.364-.15-.807-.214-1.58-.214-.669 0-1.267 0-1.72-.047-.475-.05-.916-.157-1.312-.428-.756-.515-1.045-1.27-1.155-1.964-.082-.518-.072-1.086-.065-1.543v-.678c-.007-.458-.017-1.026.065-1.544.11-.694.399-1.449 1.155-1.964.396-.271.837-.378 1.312-.428.453-.047 1.051-.047 1.72-.047.773 0 1.216-.064 1.58-.214.363-.15.72-.416 1.26-.967 1.05-1.072 1.943-1.984 2.645-2.523Z" opacity=".4"/>
  <path fill="#161C24" fill-rule="evenodd" d="M16.727 8.205a1 1 0 0 1 1.402.188A5.934 5.934 0 0 1 19.334 12a5.934 5.934 0 0 1-1.205 3.607 1 1 0 1 1-1.59-1.213A3.934 3.934 0 0 0 17.334 12c0-.915-.302-1.746-.796-2.393a1 1 0 0 1 .189-1.402Z" clip-rule="evenodd"/>
  <path fill="#161C24" fill-rule="evenodd" d="M19.658 6.262a1 1 0 0 1 1.413.063c1.403 1.532 2.262 3.507 2.262 5.675 0 2.168-.859 4.143-2.262 5.675a1 1 0 0 1-1.475-1.35c1.098-1.2 1.738-2.704 1.738-4.325s-.64-3.125-1.738-4.325a1 1 0 0 1 .062-1.413Z" clip-rule="evenodd"/>
</svg>
