<svg xmlns="http://www.w3.org/2000/svg" width="25" height="24" fill="none" viewBox="0 0 25 24">
  <path fill="#161C24" fill-rule="evenodd" d="M19.041 4.516c.067.246.1.512.117.811a.314.314 0 0 0 .276.295l.156.019c.907.121 1.707.387 2.349 1.026.64.64.907 1.439 1.028 2.344.117.861.117 1.95.117 3.27v2.088c0 1.32 0 2.409-.117 3.27-.121.905-.387 1.704-1.028 2.344-.642.64-1.442.905-2.35 1.026-.863.116-1.954.116-3.277.116h-3.22a.328.328 0 0 1-.313-.268 2.488 2.488 0 0 0-.678-1.25l-1.52-1.52a.3.3 0 0 1 0-.424l1.52-1.52a2.5 2.5 0 0 0-3.535-3.536l-1.52 1.52a.3.3 0 0 1-.425 0l-1.52-1.52a2.501 2.501 0 0 0-2.944-.439c-.234.125-.574-.027-.574-.293V4.55a2.928 2.928 0 0 1 2.932-2.925h9.908c.777 0 1.354 0 1.854.133a3.905 3.905 0 0 1 2.764 2.758Zm-3.27-.874c-.218-.059-.512-.067-1.483-.067H4.515a.976.976 0 1 0 0 1.95h12.382c.17 0 .312-.14.292-.31a1.355 1.355 0 0 0-.036-.195 1.952 1.952 0 0 0-1.382-1.378Z" clip-rule="evenodd" opacity=".4"/>
  <path fill="#161C24" d="M19.834 13.375a2 2 0 1 0-4 0 2 2 0 0 0 4 0Z"/>
  <path fill="#161C24" fill-rule="evenodd" d="M2.626 13.668a1 1 0 0 1 1.415 0l2.792 2.793 2.793-2.793a1 1 0 0 1 1.415 1.414l-2.793 2.793 2.793 2.793a1 1 0 0 1-1.415 1.414L6.834 19.29 4.04 22.082a1 1 0 0 1-1.415-1.414l2.793-2.793-2.793-2.793a1 1 0 0 1 0-1.414Z" clip-rule="evenodd"/>
</svg>
