<svg xmlns="http://www.w3.org/2000/svg" width="25" height="24" fill="none" viewBox="0 0 25 24">
  <path fill="#161C24" fill-rule="evenodd" d="M19.169 6.22c-.012-.412-.042-.761-.128-1.08a3.905 3.905 0 0 0-2.764-2.757c-.5-.134-1.077-.133-1.855-.133H4.515a2.928 2.928 0 0 0-2.931 2.925v7.871c0 1.778 0 3.211.151 4.338.158 1.17.495 2.156 1.28 2.938.784.783 1.772 1.12 2.944 1.277 1.13.151 2.566.151 4.348.151h6.004c1.324 0 2.415 0 3.279-.116.907-.121 1.707-.387 2.349-1.026.64-.64.907-1.439 1.028-2.343.117-.862.117-1.95.117-3.271v-2.088c0-1.32 0-2.409-.117-3.27-.121-.905-.387-1.704-1.028-2.344-.642-.64-1.442-.905-2.35-1.026a9.368 9.368 0 0 0-.42-.046ZM14.288 4.2c.971 0 1.265.008 1.483.067.674.18 1.201.705 1.382 1.378.031.116.048.254.057.507-.287-.002-.586-.002-.899-.002H4.515a.976.976 0 1 1 0-1.95h9.773Z" clip-rule="evenodd" opacity=".4"/>
  <path fill="#161C24" d="M19.834 14a2 2 0 1 0-4 0 2 2 0 0 0 4 0Z"/>
</svg>
