<svg xmlns="http://www.w3.org/2000/svg" width="25" height="24" fill="none" viewBox="0 0 25 24">
  <path fill="#161C24" fill-rule="evenodd" d="M1.626 1.293a1 1 0 0 1 1.415 0l20 20a1 1 0 0 1-1.415 1.414l-20-20a1 1 0 0 1 0-1.414Z" clip-rule="evenodd"/>
  <path fill="#161C24" d="M19.04 5.14c.055.204.087.42.106.656.013.156.02.234.047.288a.28.28 0 0 0 .115.12c.052.031.128.041.281.062.907.121 1.708.387 2.349 1.026.641.64.907 1.439 1.029 2.344.116.861.116 1.95.116 3.27v2.088c0 1.32 0 2.409-.116 3.27-.018.13-.026.194-.057.246a.314.314 0 0 1-.373.126c-.055-.023-.106-.074-.208-.175l-3.064-3.065a2 2 0 0 0-2.828-2.828l-5.394-5.394c-.436-.436-.654-.654-.578-.839.077-.185.385-.185 1.002-.185h5.232c.191 0 .287 0 .362-.049a.34.34 0 0 0 .12-.157c.028-.085.01-.156-.029-.299a1.952 1.952 0 0 0-1.382-1.378c-.217-.059-.511-.067-1.483-.067h-5.97c-.123 0-.184 0-.24-.023-.054-.023-.098-.066-.184-.153l-.75-.75c-.436-.436-.654-.654-.578-.839.077-.185.385-.185 1.002-.185h6.855c.777 0 1.354 0 1.854.133a3.904 3.904 0 0 1 2.764 2.758Z" opacity=".4"/>
  <path fill="#161C24" d="M1.583 13.047V5.175c0-.895.404-1.696 1.039-2.233.155-.131.233-.197.35-.192.116.005.198.087.362.251L4.52 4.187a.008.008 0 0 1-.005.013.976.976 0 1 0 0 1.95h1.72c.123 0 .184 0 .24.023.054.023.098.066.184.153l14.192 14.191c.25.25.375.376.34.537-.037.16-.186.215-.485.322-.35.126-.723.206-1.116.258-.864.116-1.955.116-3.279.116h-6.004c-1.782 0-3.218 0-4.348-.151-1.172-.157-2.16-.494-2.944-1.277-.785-.782-1.122-1.767-1.28-2.937-.152-1.128-.152-2.56-.152-4.338Z"/>
</svg>
