<svg xmlns="http://www.w3.org/2000/svg" width="25" height="24" fill="none" viewBox="0 0 25 24">
  <path fill="#161C24" fill-rule="evenodd" d="M19.166 5.016c.055.203.087.418.106.655.013.156.019.234.047.288a.28.28 0 0 0 .114.12c.052.031.129.041.282.062.907.121 1.707.387 2.349 1.026.64.64.907 1.439 1.028 2.344.117.861.117 1.95.117 3.27v2.088c0 1.32 0 2.409-.117 3.27-.121.905-.387 1.704-1.028 2.344-.642.64-1.442.905-2.35 1.026-.863.116-1.954.116-3.277.116h-6.005c-.84 0-1.604 0-2.294-.016-.478-.01-.716-.016-.797-.178-.08-.162.059-.357.338-.746.193-.27.407-.554.64-.833.525-.629 1.095-1.243 1.66-1.738.59-.518 1.04-.785 1.314-.882a2.5 2.5 0 1 0-1.67-4.713c-1.135.402-2.142 1.135-2.942 1.836-.825.723-1.578 1.547-2.201 2.294a.844.844 0 0 1-.108.118.282.282 0 0 1-.253.054.968.968 0 0 1-.16-.07 3.917 3.917 0 0 0-.612-.24 3.252 3.252 0 0 0-.889-.136c-.338 0-.507 0-.589-.064a.261.261 0 0 1-.043-.041c-.067-.08-.073-.215-.084-.487-.034-.833-.034-1.784-.034-2.862v-7.87A2.928 2.928 0 0 1 4.64 2.124h9.908c.777 0 1.354 0 1.854.133a3.905 3.905 0 0 1 2.764 2.758Zm-3.27-.874c-.218-.059-.512-.067-1.483-.067H4.64a.976.976 0 1 0 0 1.95h12.184c.192 0 .288 0 .363-.049a.34.34 0 0 0 .12-.157c.028-.085.01-.156-.03-.299a1.952 1.952 0 0 0-1.381-1.378Z" clip-rule="evenodd" opacity=".4"/>
  <path fill="#161C24" d="M19.959 13.875a2 2 0 1 0-4 0 2 2 0 0 0 4 0Zm-8.558.666a1 1 0 0 1-.609 1.277c-.533.189-1.15.596-1.803 1.168-.643.564-1.268 1.241-1.821 1.905a28.04 28.04 0 0 0-1.735 2.322l-.13.198a1 1 0 0 1-1.739-.088c-.44-.882-.836-1.233-1.035-1.366a.734.734 0 0 0-.164-.086 1 1 0 0 1 .093-1.996c.083.001.288.016.447.07.208.06.459.165.733.348.274.183.562.436.85.782a29.23 29.23 0 0 1 1.144-1.465c.593-.712 1.291-1.472 2.038-2.127.737-.646 1.577-1.24 2.455-1.55a1 1 0 0 1 1.276.608Z"/>
</svg>
