<svg xmlns="http://www.w3.org/2000/svg" width="25" height="24" fill="none" viewBox="0 0 25 24">
  <path fill="#161C24" fill-rule="evenodd" d="M19.166 5.016c.055.203.087.418.106.655.013.156.019.234.047.288a.28.28 0 0 0 .114.12c.052.031.129.041.282.062.907.121 1.707.387 2.349 1.026.64.64.907 1.439 1.028 2.344.117.861.117 1.95.117 3.27v2.088c0 1.32 0 2.409-.117 3.27-.121.905-.387 1.704-1.028 2.344-.642.64-1.442.905-2.35 1.026-.863.116-1.954.116-3.277.116H9.6c-.3-.001-.451-.002-.534-.07a.252.252 0 0 1-.042-.041c-.067-.083-.067-.269-.067-.639v-.9c0-.283 0-.424.087-.512.088-.088.23-.088.513-.088h.9a2.5 2.5 0 1 0 0-5h-.9c-.283 0-.425 0-.513-.088-.087-.088-.087-.23-.087-.512v-.9a2.5 2.5 0 0 0-5 0v.9c0 .283 0 .424-.088.512-.088.088-.23.088-.512.088h-.9c-.37 0-.554 0-.636-.067a.251.251 0 0 1-.043-.043c-.068-.083-.068-.233-.069-.532V5.05A2.928 2.928 0 0 1 4.64 2.124h9.908c.777 0 1.354 0 1.854.133a3.905 3.905 0 0 1 2.764 2.758Zm-3.27-.874c-.218-.059-.512-.067-1.483-.067H4.64a.976.976 0 1 0 0 1.95h12.184c.192 0 .288 0 .363-.049a.34.34 0 0 0 .12-.157c.028-.085.01-.156-.03-.299a1.952 1.952 0 0 0-1.381-1.378Z" clip-rule="evenodd" opacity=".4"/>
  <path fill="#161C24" d="M19.959 13.875a2 2 0 1 0-4 0 2 2 0 0 0 4 0Z"/>
  <path fill="#161C24" fill-rule="evenodd" d="M6.457 11.875a1 1 0 0 1 1 1v3h3a1 1 0 1 1 0 2h-3v3a1 1 0 1 1-2 0v-3h-3a1 1 0 1 1 0-2h3v-3a1 1 0 0 1 1-1Z" clip-rule="evenodd"/>
</svg>
