<svg xmlns="http://www.w3.org/2000/svg" width="25" height="24" fill="none" viewBox="0 0 25 24">
  <g opacity=".4">
    <path fill="#161C24" fill-rule="evenodd" d="M12.828 14.42a1 1 0 0 1-.888 1.101c-.845.09-1.69.476-2.4 1.186a1 1 0 0 1-1.414-1.414c1.023-1.023 2.287-1.62 3.6-1.76a1 1 0 0 1 1.102.887Zm-7.702-2.627c3.442-3.441 7.867-4.243 11.69-2.136a1 1 0 0 1-.965 1.751c-2.933-1.616-6.405-1.106-9.31 1.8a1 1 0 0 1-1.415-1.415Z" clip-rule="evenodd"/>
    <path fill="#161C24" fill-rule="evenodd" d="M12.334 3.5c3.694 0 7.337 1.443 10.645 4.236a1 1 0 0 1-1.29 1.528C18.678 6.724 15.48 5.5 12.333 5.5c-3.148 0-6.347 1.223-9.355 3.764a1 1 0 0 1-1.29-1.528C4.995 4.943 8.638 3.5 12.333 3.5Z" clip-rule="evenodd"/>
  </g>
  <path fill="#161C24" fill-rule="evenodd" d="M14.627 12.793a1 1 0 0 1 1.414 0l2.293 2.293 2.293-2.293a1 1 0 0 1 1.414 1.414L19.748 16.5l2.293 2.293a1 1 0 0 1-1.414 1.414l-2.293-2.293-2.293 2.293a1 1 0 0 1-1.414-1.414l2.292-2.293-2.292-2.293a1 1 0 0 1 0-1.414Z" clip-rule="evenodd"/>
</svg>
