<svg xmlns="http://www.w3.org/2000/svg" width="25" height="24" fill="none" viewBox="0 0 25 24">
  <path fill="#161C24" fill-rule="evenodd" d="M8.131 13.788c1.32-1.3 2.947-1.924 4.79-1.763a1 1 0 1 1-.175 1.992c-1.228-.107-2.287.284-3.21 1.195a1 1 0 0 1-1.405-1.424Z" clip-rule="evenodd"/>
  <path fill="#161C24" fill-rule="evenodd" d="M12.845 8.848a1 1 0 0 1 1.14-.836c2.014.31 3.908 1.32 5.511 2.739a1 1 0 1 1-1.325 1.498c-1.382-1.223-2.934-2.022-4.49-2.26a1 1 0 0 1-.836-1.14Z" clip-rule="evenodd" opacity=".4"/>
  <path fill="#161C24" fill-rule="evenodd" d="M10.28 9.18a1 1 0 0 1-.626 1.268c-1.095.37-2.173.98-3.18 1.82a1 1 0 1 1-1.28-1.536c1.178-.982 2.47-1.723 3.82-2.18a1 1 0 0 1 1.267.628Z" clip-rule="evenodd"/>
  <path fill="#161C24" fill-rule="evenodd" d="M9.646 3.756c4.58-.875 9.213.501 13.333 3.98a1 1 0 0 1-1.29 1.528C17.952 6.11 13.915 4.977 10.02 5.721a1 1 0 1 1-.375-1.965Z" clip-rule="evenodd" opacity=".4"/>
  <path fill="#161C24" fill-rule="evenodd" d="M6.728 5.553a1 1 0 0 1-.447 1.341c-.885.443-2.083 1.34-3.302 2.37a1 1 0 1 1-1.29-1.528c1.229-1.038 2.582-2.073 3.697-2.63a1 1 0 0 1 1.342.447Z" clip-rule="evenodd"/>
  <path fill="#161C24" d="M12.334 16a2 2 0 1 0 0 4 2 2 0 0 0 0-4Z"/>
  <path fill="#161C24" fill-rule="evenodd" d="M1.626 1.293a1 1 0 0 1 1.415 0l20 20a1 1 0 0 1-1.415 1.414l-20-20a1 1 0 0 1 0-1.414Z" clip-rule="evenodd"/>
</svg>
