<svg xmlns="http://www.w3.org/2000/svg" width="25" height="24" fill="none" viewBox="0 0 25 24">
  <path fill="#161C24" d="M21.347 13.511c-1.289 1.289-3.713 1.239-7.431 1.239a4.335 4.335 0 0 1-4.332-4.334c0-3.715-.05-6.141 1.238-7.43 1.289-1.288 1.858-1.236 7.566-1.236a.618.618 0 0 1 .44 1.055l-2.94 2.94a1.91 1.91 0 1 0 2.7 2.701l2.94-2.938a.618.618 0 0 1 1.055.439c0 5.707.052 6.276-1.236 7.564Z"/>
  <path fill="#161C24" d="M12.321 17.07c.364-.363.546-.545.509-.707-.037-.161-.303-.254-.834-.44a5.853 5.853 0 0 1-3.588-3.589c-.185-.53-.278-.796-.44-.833-.161-.037-.343.145-.706.508l-4.13 4.13a3.578 3.578 0 0 0 5.06 5.06l4.13-4.128Z" opacity=".4"/>
  <path fill="#161C24" fill-rule="evenodd" d="M4.583 18.5c0-.69.558-1.25 1.245-1.25h.011c.687 0 1.244.56 1.244 1.25s-.557 1.25-1.244 1.25h-.011c-.687 0-1.245-.56-1.245-1.25Z" clip-rule="evenodd"/>
</svg>
