<svg xmlns="http://www.w3.org/2000/svg" width="24" height="24" fill="none" viewBox="0 0 24 24">
  <path fill="#161C24" fill-rule="evenodd" d="M13.66 1.317c-1.093.323-1.88.974-2.23 1.846l-.067.163-.167.048a3.434 3.434 0 0 0-.726.343 2.777 2.777 0 0 0-1.179 1.838c-.04.226-.04.664 0 .89.066.38.222.777.426 1.085a2.777 2.777 0 0 0 1.838 1.179 2.99 2.99 0 0 0 1.236-.08c.196-.055.554-.223.733-.343a2.767 2.767 0 0 0 1.185-1.841c.018-.1.031-.292.031-.445 0-.442-.084-.812-.269-1.19a2.624 2.624 0 0 0-.659-.873 2.49 2.49 0 0 0-.606-.4l-.223-.113.111-.114a2.17 2.17 0 0 1 1.014-.562c.27-.07.446-.201.56-.417.058-.113.062-.134.062-.331 0-.191-.005-.22-.057-.323a.834.834 0 0 0-.35-.352c-.168-.082-.404-.085-.663-.008Zm-1.37 3.466c.33.069.677.346.827.66.1.21.128.334.128.557 0 .223-.029.347-.128.556a1.23 1.23 0 0 1-.56.56 1.108 1.108 0 0 1-.557.129c-.223 0-.347-.03-.556-.128a1.239 1.239 0 0 1-.56-.561 1.108 1.108 0 0 1-.13-.556c0-.224.03-.347.13-.558a.999.999 0 0 1 .232-.321c.321-.318.717-.432 1.173-.338ZM7.74 6.298a4.813 4.813 0 0 0-.32.167c-1.918 1.069-3.204 2.593-3.939 4.669l-.065.183-.103.024a3.258 3.258 0 0 0-.304.102 2.76 2.76 0 0 0-1.73 2.194c-.03.215-.013.76.031.963.212.96.892 1.695 1.846 1.992l.257.079c.012.003.35.985.748 2.183.778 2.335.826 2.459 1.061 2.772.415.55.988.919 1.66 1.067.161.036.368.037 5.118.037s4.957-.001 5.12-.037a2.806 2.806 0 0 0 1.658-1.067c.235-.313.283-.437 1.061-2.772.4-1.198.736-2.18.748-2.183.572-.162.956-.357 1.276-.646.582-.526.877-1.2.877-2.001 0-.41-.055-.702-.2-1.055-.326-.8-1.055-1.44-1.853-1.628l-.103-.024-.065-.184a8.833 8.833 0 0 0-1.245-2.363 9.088 9.088 0 0 0-1.235-1.304c-.53-.446-1.435-1.035-1.803-1.175-.128-.048-.404-.035-.542.026a.893.893 0 0 0-.366.358c-.053.106-.058.132-.057.325 0 .173.008.227.044.305.07.153.21.284.434.409.578.324.983.603 1.401.968 1.041.908 1.734 2.059 2.131 3.538.045.17.096.356.112.412l.028.102.395.01c.351.01.412.018.556.064.574.184.94.752.867 1.35-.037.317-.134.515-.35.72-.238.227-.505.333-.889.355a1.306 1.306 0 0 1-.675-.135 1.165 1.165 0 0 1-.557-.637l-.038-.121h-.735c-.675 0-.735.003-.735.034 0 .018-.036.108-.08.2-.206.425-.636.668-1.18.668-.544 0-.974-.243-1.179-.668a1.019 1.019 0 0 1-.08-.2c0-.031-.062-.034-.74-.034-.68 0-.74.003-.74.034 0 .018-.037.108-.082.2-.205.425-.635.668-1.179.668s-.974-.243-1.179-.668a1.019 1.019 0 0 1-.08-.2c0-.031-.062-.034-.74-.034-.68 0-.74.003-.74.034 0 .018-.037.108-.082.2-.205.425-.635.668-1.179.668s-.974-.243-1.179-.668a1.019 1.019 0 0 1-.08-.2c0-.031-.06-.034-.736-.034H5.27l-.036.115a1.179 1.179 0 0 1-.558.643 1.318 1.318 0 0 1-.676.136c-.402-.022-.663-.132-.91-.382-.249-.251-.332-.461-.333-.842a.994.994 0 0 1 .051-.382c.087-.271.284-.524.538-.69.225-.146.466-.196.948-.197l.284-.001.023-.085c.114-.434.215-.784.283-.985.461-1.363 1.225-2.44 2.336-3.293a8.498 8.498 0 0 1 1.031-.663c.225-.125.364-.256.434-.41.036-.077.044-.131.044-.304.001-.193-.004-.22-.057-.325a.893.893 0 0 0-.366-.358c-.139-.062-.44-.072-.566-.02Zm1.503 3.5a.772.772 0 0 0-.307.21 7.69 7.69 0 0 0-.36.669l-.306.606v.214c0 .192.005.224.055.325.07.14.206.277.352.35.103.053.131.058.323.057.19 0 .221-.006.324-.056.212-.105.281-.203.61-.863l.296-.594v-.213c0-.192-.006-.224-.056-.324a.852.852 0 0 0-.354-.352.84.84 0 0 0-.577-.028Zm5.007-.003c-.21.093-.339.209-.425.383-.05.1-.055.133-.055.325v.214l.304.606c.334.668.387.743.602.85.103.05.135.056.324.056.191 0 .22-.004.32-.055a.854.854 0 0 0 .354-.353c.05-.1.055-.132.056-.324v-.214l-.304-.606c-.334-.67-.39-.748-.604-.851-.147-.07-.445-.087-.572-.031ZM6.154 16.1c.36.289.728.47 1.172.575.208.049.257.053.674.053.417 0 .466-.004.674-.053a2.847 2.847 0 0 0 1.174-.577l.152-.122.152.122c.361.29.73.47 1.174.577.208.049.257.053.674.053.417 0 .466-.004.674-.053a2.847 2.847 0 0 0 1.174-.577l.152-.122.152.122c.361.29.73.47 1.174.577.208.049.257.053.674.053.417 0 .466-.004.674-.053a2.847 2.847 0 0 0 1.174-.577l.152-.122.105.094c.198.178.533.378.8.479.052.019.095.046.095.058 0 .049-1.278 3.853-1.329 3.954-.16.318-.447.549-.81.65-.125.036-.34.038-4.86.038-4.52 0-4.737-.002-4.86-.037a1.273 1.273 0 0 1-.812-.651C6.28 20.46 5 16.657 5 16.608c0-.012.043-.04.095-.058a2.832 2.832 0 0 0 .902-.57c.004 0 .075.054.157.12Z" clip-rule="evenodd"/>
</svg>
