<svg xmlns="http://www.w3.org/2000/svg" width="24" height="24" fill="none" viewBox="0 0 24 24">
  <path fill="#161C24" fill-rule="evenodd" d="M14.52 1.281c-1.196.159-2.16.919-2.71 2.135a6.197 6.197 0 0 0-.511 1.844 2.444 2.444 0 0 1-.03.196 1.597 1.597 0 0 1-.18-.107c-.618-.404-1.35-.752-1.93-.919-.472-.136-.651-.16-1.2-.159-.424.001-.522.007-.74.047-1.395.259-2.65 1.108-3.585 2.427A7.618 7.618 0 0 0 2.28 10.4c-.045.503-.02 1.877.05 2.77.194 2.458.809 4.417 2.046 6.515.45.762.734 1.146 1.193 1.607.615.618 1.229 1.012 1.95 1.248.44.145.803.2 1.309.2.934-.001 1.724-.261 2.786-.915.2-.124.374-.225.385-.225.01 0 .185.101.385.225 1.062.654 1.852.914 2.786.915.187 0 .416-.009.51-.021.814-.101 1.557-.424 2.267-.985.264-.209.713-.663.954-.964.342-.427.798-1.176 1.22-2 1.023-2.002 1.473-3.809 1.597-6.41.027-.554.027-1.664 0-1.96a7.574 7.574 0 0 0-.801-2.74c-.83-1.625-2.162-2.801-3.657-3.229-.453-.13-.674-.159-1.221-.16-.548-.001-.727.023-1.2.159-.563.162-1.28.499-1.867.878a3.703 3.703 0 0 1-.181.112c-.016 0 .058-.396.119-.633.277-1.087.813-1.764 1.56-1.968.08-.023.282-.053.448-.068.233-.022.324-.038.396-.073a.891.891 0 0 0 .357-.353c.053-.105.058-.133.058-.325 0-.182-.006-.223-.05-.31a.899.899 0 0 0-.355-.362c-.11-.055-.128-.058-.395-.061a3.711 3.711 0 0 0-.41.014Zm-6.1 4.511c.822.142 1.943.766 2.92 1.626.127.111.28.227.34.257.099.049.13.055.32.055s.22-.005.32-.056c.06-.031.214-.146.34-.257.952-.833 2.01-1.435 2.83-1.609 1.005-.215 2.157.2 3.059 1.102.632.632 1.09 1.388 1.39 2.29.275.822.337 1.355.3 2.577-.032 1.132-.091 1.82-.228 2.643-.29 1.739-.916 3.323-1.971 4.98-.333.522-.837 1.051-1.29 1.353-.916.611-1.94.653-3.008.121a16.276 16.276 0 0 1-.798-.462 10.47 10.47 0 0 0-.69-.396.838.838 0 0 0-.51 0c-.055.022-.366.2-.688.396-.322.196-.681.404-.798.462-1.473.733-2.844.374-3.99-1.044-.367-.455-1.002-1.557-1.36-2.36a12.171 12.171 0 0 1-.966-3.36c-.111-.773-.153-1.306-.183-2.332-.036-1.215.028-1.759.3-2.578.134-.399.269-.713.445-1.03.933-1.679 2.488-2.623 3.916-2.378Zm-.665 1.497c-.098.038-.326.185-.525.341-.862.672-1.564 1.852-1.837 3.09-.092.42-.12.664-.121 1.09-.002.386 0 .404.047.5a.899.899 0 0 0 .356.362c.105.053.133.058.325.058s.22-.005.325-.058a.893.893 0 0 0 .354-.359c.037-.077.05-.151.065-.36.045-.67.119-1.045.295-1.513.292-.772.742-1.386 1.29-1.759a1.01 1.01 0 0 0 .352-.371c.043-.087.049-.127.049-.31 0-.197-.004-.218-.063-.33a.854.854 0 0 0-.357-.35c-.124-.061-.433-.077-.555-.031Z" clip-rule="evenodd"/>
</svg>
