<svg xmlns="http://www.w3.org/2000/svg" width="24" height="24" fill="none" viewBox="0 0 24 24">
  <path fill="#161C24" fill-rule="evenodd" d="m8.97 3.272-.27.03A6.668 6.668 0 0 0 5.78 4.37a6.744 6.744 0 0 0-2.919 4.42c-.068.374-.09.619-.09 1.02l-.001.4.058.115c.07.137.223.288.362.356l.1.049h17.42l.1-.05a.899.899 0 0 0 .362-.355l.058-.115-.001-.41c-.003-1.208-.392-2.451-1.1-3.52a6.759 6.759 0 0 0-4.37-2.911c-.525-.1-.374-.096-3.659-.1-1.688-.002-3.097 0-3.13.003Zm6.19 1.515c.49.073.919.187 1.31.346a5.275 5.275 0 0 1 3.2 3.947c.015.082.02.157.012.165-.008.008-3.47.013-7.693.01L4.31 9.25l.006-.07c.023-.248.176-.805.317-1.15A5.265 5.265 0 0 1 9.17 4.76a175.04 175.04 0 0 1 3-.011c2.489.004 2.783.008 2.99.038Zm-5.402 1c-.157.06-.268.158-.809.7-.673.676-.679.685-.679 1.013 0 .182.006.223.049.31a.899.899 0 0 0 .356.362c.105.053.133.058.325.058.33 0 .335-.003 1.031-.7.696-.695.699-.7.699-1.03 0-.182-.006-.223-.049-.31a.899.899 0 0 0-.356-.362c-.1-.05-.14-.06-.305-.062a.843.843 0 0 0-.262.022Zm4.98.25c-.627.163-.932.916-.597 1.472a1.007 1.007 0 0 0 1.566.199A.92.92 0 0 0 16 7a.92.92 0 0 0-.293-.708 1.005 1.005 0 0 0-.969-.255Zm-11.6 6.243a2.602 2.602 0 0 0-.958.399 2.936 2.936 0 0 0-.484.48 2.71 2.71 0 0 0-.37.77c-.052.186-.056.228-.056.57 0 .344.004.386.056.57.067.245.236.596.37.77.118.156.332.368.484.482.269.202.75.383 1.091.412l.141.012.237.953c.13.523.266 1.043.302 1.154.176.544.524 1.025.989 1.367.25.183.636.366.94.446l.25.065h11.74l.173-.044a2.74 2.74 0 0 0 .587-.211 2.757 2.757 0 0 0 1.405-1.585c.032-.1.169-.622.304-1.162l.245-.982.143-.013c.339-.028.78-.193 1.072-.4a2.69 2.69 0 0 0 .543-.548c.137-.198.269-.484.333-.72.048-.178.053-.227.053-.565 0-.34-.005-.387-.054-.57a2.806 2.806 0 0 0-.353-.75 2.936 2.936 0 0 0-.481-.484 2.738 2.738 0 0 0-.77-.371l-.2-.055h-5.08l-.12.06c-.1.05-.25.189-.895.829l-.775.769-.775-.77c-.645-.64-.795-.778-.895-.828l-.12-.06-4.49-.003a372.01 372.01 0 0 0-4.582.013Zm9.471 2.396c1.099 1.092 1.048 1.054 1.391 1.054.343 0 .292.039 1.392-1.055l.941-.936 2.159.005 2.158.006.124.052a.734.734 0 0 1 .469.698.734.734 0 0 1-.469.698l-.124.052-1.43.01-1.43.01-.1.049a.899.899 0 0 0-.362.356c-.053.105-.058.133-.058.325s.005.22.058.325c.07.137.223.288.362.356.098.048.109.049.7.054.33.004.61.01.623.014.037.013-.372 1.617-.459 1.797a1.259 1.259 0 0 1-.816.668c-.122.034-.373.036-5.728.036-4.691 0-5.618-.004-5.71-.028a1.246 1.246 0 0 1-.926-.853 49.223 49.223 0 0 1-.414-1.618c0-.006 1.294-.013 2.875-.016l2.875-.005.115-.058a.899.899 0 0 0 .356-.362c.043-.087.049-.128.049-.31s-.006-.223-.049-.31a.899.899 0 0 0-.356-.362l-.115-.058-3.68-.01-3.68-.01-.117-.047a.757.757 0 0 1-.471-.812.755.755 0 0 1 .625-.631c.057-.008 1.943-.016 4.192-.018l4.089-.002.941.936Z" clip-rule="evenodd"/>
</svg>
