<svg xmlns="http://www.w3.org/2000/svg" width="24" height="24" fill="none" viewBox="0 0 24 24">
  <path fill="#161C24" fill-rule="evenodd" d="M9.005 2.421a1.78 1.78 0 0 0-1.115.595c-.237.286-.065-.247-2.93 9.061-1.507 4.902-2.646 8.635-2.653 8.7-.053.504.412.969.916.916.172-.018 17.243-5.276 17.423-5.366.194-.097.298-.171.435-.308.369-.369.56-.901.499-1.391-.041-.329-.292-1.262-.533-1.981-1.338-3.996-4.026-7.098-7.694-8.877a17.015 17.015 0 0 0-3.457-1.241c-.288-.072-.681-.139-.736-.126a10 10 0 0 1-.155.018Zm.478 1.548c2.25.543 4.28 1.53 5.897 2.868 2.278 1.887 3.796 4.36 4.603 7.502.116.451.12.471.09.534a.276.276 0 0 1-.082.098c-.047.031-4.39 1.378-4.401 1.365a6.769 6.769 0 0 1-.111-.226 3.287 3.287 0 0 0-2.297-1.793 4.442 4.442 0 0 0-1.068-.038 3.284 3.284 0 0 0-1.916.943 3.21 3.21 0 0 0-.91 1.815c-.04.253-.03.843.019 1.073a.447.447 0 0 1 .016.153 440.01 440.01 0 0 1-5.176 1.59c-.004-.004.346-1.154.777-2.557l.785-2.55.19-.025a3.246 3.246 0 0 0 2.743-2.407 3.743 3.743 0 0 0-.01-1.751 3.487 3.487 0 0 0-.943-1.631l-.147-.144.24-.779.299-.973.06-.194.104.037c.959.337 2.208.918 3.207 1.493 1.503.864 2.72 1.797 3.755 2.875.44.46.478.483.793.483.174 0 .226-.008.305-.044a.916.916 0 0 0 .367-.361c.053-.105.058-.133.058-.325 0-.296-.03-.349-.426-.772-1.275-1.361-3.017-2.624-5.074-3.679-.754-.387-1.835-.858-2.48-1.081l-.164-.057c-.014-.008.42-1.371.45-1.411.034-.045.113-.099.147-.1.007 0 .142.031.3.069Zm-2.388 6.716c.203.52.205 1.088.004 1.53-.141.311-.42.623-.711.793-.086.05-.158.088-.162.085-.01-.01.78-2.573.794-2.573.006 0 .04.074.075.165Zm5.643.352c-.627.163-.932.916-.597 1.472a1.007 1.007 0 0 0 1.566.199A.92.92 0 0 0 14 12a.92.92 0 0 0-.293-.708 1.005 1.005 0 0 0-.97-.255Zm.222 4.767c.33.079.622.254.883.532.117.123.297.39.297.437 0 .01-.745.245-1.655.525l-1.678.516c-.038.015-.052-.068-.051-.313 0-.348.084-.651.248-.905a1.795 1.795 0 0 1 1.956-.792Z" clip-rule="evenodd"/>
</svg>
