<svg xmlns="http://www.w3.org/2000/svg" width="24" height="24" fill="none" viewBox="0 0 24 24">
  <path fill="#161C24" fill-rule="evenodd" d="M14.266 1.289a.676.676 0 0 0-.31.208.607.607 0 0 0-.174.293c-.012.044-.067.579-.122 1.19-.055.611-.105 1.148-.11 1.195l-.012.085-4.374.005-4.374.005-.115.058a.899.899 0 0 0-.356.362.598.598 0 0 0-.055.26c-.005.117.234 2.202.894 7.81.496 4.208.911 7.704.923 7.77.15.8.721 1.551 1.47 1.925.2.1.402.173.637.231l.182.044h6.26l.182-.044c.84-.205 1.498-.724 1.873-1.476.097-.194.198-.488.234-.68.012-.066.427-3.562.923-7.77.687-5.836.9-7.688.893-7.81a.585.585 0 0 0-.065-.275.889.889 0 0 0-.364-.36l-.096-.045-1.58-.01-1.58-.01.005-.06a31.8 31.8 0 0 1 .142-1.435c.008-.008.914-.017 2.014-.02l2-.005.1-.049a.899.899 0 0 0 .361-.356c.053-.105.058-.133.058-.325s-.005-.22-.058-.325a.899.899 0 0 0-.362-.356l-.1-.049-2.43-.004c-1.96-.003-2.446.001-2.514.023ZM13.4 5.785c0 .076-.26 2.923-.27 2.95-.007.02-.719.025-3.469.025-1.904 0-3.462-.002-3.462-.005-.013-.044-.353-2.989-.346-3 .005-.008 1.705-.015 3.778-.015h3.77v.045Zm3.747-.03c.008.013-.309 2.775-.338 2.94l-.01.065h-2.165l.012-.105c.007-.058.067-.726.135-1.485.067-.759.126-1.391.13-1.405.006-.02.247-.025 1.117-.025.61 0 1.114.007 1.12.015Zm-4.16 4.5c.005.009-.157 1.833-.359 4.055-.26 2.853-.367 4.093-.362 4.22a.793.793 0 0 0 .048.271c.06.133.23.308.362.373.103.051.135.056.324.056.25 0 .341-.033.5-.181a.65.65 0 0 0 .21-.319c.02-.068.151-1.428.41-4.276.21-2.298.385-4.185.391-4.195.007-.011.44-.019 1.06-.019h1.05v.045c0 .089-1.16 9.906-1.183 10.005a1.584 1.584 0 0 1-.103.269.946.946 0 0 1-.233.32 1.199 1.199 0 0 1-.542.324l-.15.047H8.59l-.15-.047a1.199 1.199 0 0 1-.542-.324.946.946 0 0 1-.233-.32 1.584 1.584 0 0 1-.103-.269c-.022-.099-1.182-9.916-1.182-10.005v-.045h3.3c1.813 0 3.302.007 3.307.015Zm-3.249 4.782c-.627.163-.932.916-.597 1.472a1.007 1.007 0 0 0 1.566.199A.92.92 0 0 0 11 16a.92.92 0 0 0-.293-.708 1.005 1.005 0 0 0-.969-.255Z" clip-rule="evenodd"/>
</svg>
