<svg xmlns="http://www.w3.org/2000/svg" width="24" height="24" fill="none" viewBox="0 0 24 24">
  <path fill="#161C24" fill-rule="evenodd" d="M10.83 1.282c-2.252.125-4.234.575-5.6 1.269-1.142.58-1.798 1.293-1.949 2.119-.03.167-.03 14.493.001 14.662.056.311.202.64.407.917 1 1.351 3.721 2.285 7.201 2.471.464.025 1.756.025 2.22 0 1.832-.098 3.475-.402 4.767-.883 1.684-.627 2.657-1.485 2.841-2.505.031-.169.032-14.495.001-14.662-.165-.905-.96-1.697-2.299-2.286-1.394-.615-3.176-.986-5.3-1.104a38.859 38.859 0 0 0-2.29.002Zm2.26 1.5c2.634.131 4.987.812 5.872 1.7.372.373.372.663 0 1.036-.786.788-2.734 1.42-5.057 1.641-.677.064-1.133.084-1.905.084s-1.228-.02-1.905-.084c-2.323-.221-4.27-.853-5.057-1.641-.372-.373-.372-.668.001-1.038.701-.696 2.298-1.273 4.286-1.549a19.911 19.911 0 0 1 3.765-.149ZM4.855 7.246c.278.173.798.416 1.265.59 1.13.422 2.574.715 4.15.844 1.01.082 2.45.082 3.46 0 2.186-.178 4.105-.677 5.338-1.389.088-.05.167-.091.176-.091.01 0 .015 1.075.012 2.445l-.006 2.446-.067.136c-.126.256-.494.57-.958.818-1.194.637-2.988 1.05-5.115 1.176-.489.028-1.73.028-2.22 0-2.127-.126-3.92-.539-5.115-1.176-.464-.248-.832-.562-.958-.818l-.067-.136-.006-2.446C4.74 7.937 4.745 7.2 4.76 7.2c.011 0 .054.021.095.046Zm1.87 3.057a.884.884 0 0 0-.399.373c-.05.103-.056.134-.055.324 0 .173.008.227.044.306.06.131.23.304.353.362.231.108 1.382.42 1.932.522.503.094.72.052.941-.183.152-.16.187-.255.188-.507.001-.192-.004-.22-.056-.323a.811.811 0 0 0-.34-.345 2.182 2.182 0 0 0-.383-.1 17.153 17.153 0 0 1-1.4-.35c-.48-.139-.632-.154-.826-.079Zm-1.87 3.943c.278.173.798.416 1.265.59 1.13.422 2.574.715 4.15.844 1.01.082 2.45.082 3.46 0 2.186-.178 4.105-.677 5.338-1.389a1.34 1.34 0 0 1 .176-.09c.01 0 .014 1.1.011 2.444l-.005 2.446-.067.136c-.126.256-.494.57-.958.818-1.194.637-2.988 1.05-5.115 1.176-.489.028-1.73.028-2.22 0-2.127-.126-3.92-.539-5.115-1.176-.464-.248-.832-.562-.958-.818l-.067-.136-.005-2.446c-.004-1.68.001-2.445.015-2.445.011 0 .054.021.095.046Zm1.87 3.057a.884.884 0 0 0-.399.373c-.05.103-.056.134-.055.324 0 .173.008.227.044.306.06.131.23.304.353.362.231.108 1.382.42 1.932.522.503.094.72.052.941-.183.152-.16.187-.255.188-.507.001-.192-.004-.22-.056-.323a.811.811 0 0 0-.34-.345 2.182 2.182 0 0 0-.383-.1 17.153 17.153 0 0 1-1.4-.35c-.48-.139-.632-.154-.826-.079Z" clip-rule="evenodd"/>
</svg>
