<svg xmlns="http://www.w3.org/2000/svg" width="24" height="24" fill="none" viewBox="0 0 24 24">
  <path fill="#161C24" fill-rule="evenodd" d="M2.72 3.274c-.232.04-.52.156-.72.293a1.82 1.82 0 0 0-.685.967l-.045.156v4.62l.045.156a1.772 1.772 0 0 0 1.219 1.22l.156.044h18.62l.156-.045c.168-.049.39-.153.534-.252a1.82 1.82 0 0 0 .685-.967l.045-.156V4.69l-.045-.156a1.788 1.788 0 0 0-1.209-1.219l-.146-.045-9.28-.002c-5.104-.002-9.302.001-9.33.006Zm18.406 1.511a.4.4 0 0 1 .089.09c.033.05.035.18.035 2.125 0 1.946-.002 2.075-.035 2.126a.417.417 0 0 1-.089.09c-.052.032-.493.034-9.126.034s-9.074-.002-9.126-.035a.417.417 0 0 1-.089-.089c-.033-.05-.035-.183-.041-2.055-.003-1.1 0-2.039.006-2.086.015-.103.09-.198.177-.223.038-.01 3.655-.017 9.104-.015 8.601.003 9.043.005 9.095.038ZM5.738 6.037c-.337.088-.63.388-.707.724a.985.985 0 0 0 .294.97c.532.495 1.422.262 1.636-.428a1.175 1.175 0 0 0 0-.606c-.156-.503-.7-.797-1.223-.66Zm4 0c-.337.088-.63.388-.707.724a.985.985 0 0 0 .294.97 1.012 1.012 0 0 0 1.535-.204 1.05 1.05 0 0 0 0-1.054 1.026 1.026 0 0 0-1.122-.436ZM2.72 13.274c-.232.04-.52.156-.72.293a1.82 1.82 0 0 0-.685.967l-.045.156v4.62l.045.156a1.772 1.772 0 0 0 1.219 1.22l.156.044h18.62l.156-.045c.168-.049.39-.153.534-.252a1.82 1.82 0 0 0 .685-.967l.045-.156v-4.62l-.045-.156a1.788 1.788 0 0 0-1.209-1.219l-.146-.045-9.28-.002c-5.104-.002-9.302.001-9.33.006Zm18.406 1.511a.4.4 0 0 1 .089.09c.033.05.035.18.035 2.125 0 1.946-.002 2.075-.035 2.126a.417.417 0 0 1-.089.09c-.052.032-.493.034-9.126.034s-9.074-.002-9.126-.035a.417.417 0 0 1-.089-.089c-.033-.05-.035-.183-.041-2.055-.003-1.1 0-2.039.006-2.086.015-.103.09-.198.177-.223.038-.01 3.655-.017 9.104-.015 8.601.003 9.043.005 9.095.038ZM5.738 16.037c-.337.088-.63.388-.707.724a.985.985 0 0 0 .294.97c.532.495 1.422.262 1.636-.428a1.175 1.175 0 0 0 0-.606c-.156-.503-.7-.797-1.223-.66Zm4 0c-.337.088-.63.388-.707.724a.985.985 0 0 0 .294.97 1.012 1.012 0 0 0 1.535-.204 1.05 1.05 0 0 0 0-1.054 1.026 1.026 0 0 0-1.122-.436Z" clip-rule="evenodd"/>
</svg>
