<svg xmlns="http://www.w3.org/2000/svg" width="24" height="24" fill="none" viewBox="0 0 24 24">
  <path fill="#161C24" fill-rule="evenodd" d="M3.25 4.15c0-1.05.87-1.9 1.944-1.9h4.341c.65 0 1.258.317 1.618.846L12.52 5.1h5.313c1.611 0 2.917 1.276 2.917 2.85v2.85a.96.96 0 0 1-.972.95.961.961 0 0 1-.972-.95V7.95a.961.961 0 0 0-.973-.95H12a.978.978 0 0 1-.809-.423L9.535 4.15h-4.34v6.65c0 .525-.436.95-.973.95a.961.961 0 0 1-.972-.95V4.15Z" clip-rule="evenodd"/>
  <path fill="#161C24" d="M1.287 12.347c-.229-1.11.646-2.097 1.743-2.097h17.941c1.164 0 2.058 1.106 1.702 2.259l-2.47 8a1.776 1.776 0 0 1-1.701 1.241H4.676a1.772 1.772 0 0 1-1.743-1.403l-1.646-8Z"/>
</svg>
