<svg xmlns="http://www.w3.org/2000/svg" width="24" height="24" fill="none" viewBox="0 0 24 24">
  <path fill="#161C24" fill-rule="evenodd" d="M16.01 13.375v3a2 2 0 0 0 2 2h3v2h-3a4 4 0 0 1-4-4v-3h2Z" clip-rule="evenodd"/>
  <path fill="#161C24" fill-rule="evenodd" d="M1.419 1.913a.75.75 0 0 1 .59-.288h14.555c2.914 0 5.35 2.027 6.016 4.75h-4.57a1 1 0 1 0 0 2h4.73c-.252 3.212-2.915 5.75-6.176 5.75h-5.936a1.75 1.75 0 0 1-1.565-.967L6.999 9.03a.25.25 0 0 0-.122-.116L3.151 7.258a1.75 1.75 0 0 1-.987-1.174l-.882-3.527a.75.75 0 0 1 .137-.644ZM12.7 7.375a1 1 0 0 1 1-1h.01a1 1 0 1 1 0 2h-.01a1 1 0 0 1-1-1Zm8.31 9a1 1 0 0 1 1 1v4a1 1 0 1 1-2 0v-4a1 1 0 0 1 1-1Z" clip-rule="evenodd"/>
  <path fill="#161C24" fill-rule="evenodd" d="M5.677 7.62c-.351.313-.667 1.074-.667 1.754a2 2 0 0 0 3.333 1.491l1.334 1.49A4 4 0 0 1 3.01 9.374c0-1.097.457-2.46 1.333-3.245l1.334 1.49Z" clip-rule="evenodd"/>
</svg>
