<svg xmlns="http://www.w3.org/2000/svg" width="24" height="24" fill="none" viewBox="0 0 24 24">
  <path fill="#161C24" d="M4.36 4.677C6.246 3.375 8.947 2 12 2c3.052 0 5.754 1.375 7.64 2.677a20.487 20.487 0 0 1 2.253 1.808 17.009 17.009 0 0 1 .849.845l.003.003a1 1 0 0 1-1.49 1.335l-.007-.008-.031-.034a15.011 15.011 0 0 0-.682-.673 18.497 18.497 0 0 0-2.032-1.63C16.769 5.125 14.47 4 12 4 9.53 4 7.23 5.125 5.497 6.323a18.494 18.494 0 0 0-2.032 1.63 15.005 15.005 0 0 0-.682.673l-.032.034-.007.007a1 1 0 1 1-1.489-1.335l.002-.002.004-.004.013-.015a6.595 6.595 0 0 1 .213-.224 17 17 0 0 1 .619-.602A20.49 20.49 0 0 1 4.36 4.677Z"/>
  <path fill="#161C24" fill-rule="evenodd" d="M12 6.25c-2.707 0-5.017 1.316-6.796 2.85-1.782 1.538-3.099 3.354-3.834 4.493a.75.75 0 0 0 0 .814c.735 1.14 2.052 2.955 3.834 4.493 1.779 1.534 4.09 2.85 6.796 2.85 2.707 0 5.017-1.316 6.796-2.85 1.782-1.538 3.099-3.353 3.834-4.493a.75.75 0 0 0 0-.814c-.735-1.14-2.052-2.955-3.834-4.493-1.779-1.534-4.09-2.85-6.796-2.85ZM10 14a2 2 0 1 0 4 0 2 2 0 0 0-4 0Zm2 4a4 4 0 1 1 0-8 4 4 0 0 1 0 8Z" clip-rule="evenodd"/>
</svg>
