<svg xmlns="http://www.w3.org/2000/svg" width="24" height="24" fill="none" viewBox="0 0 24 24">
  <path fill="#161C24" fill-rule="evenodd" d="M12 3.249a3.5 3.5 0 0 0-3.5 3.5v1.502h7V6.749a3.5 3.5 0 0 0-3.5-3.5Zm-5.5 3.5v1.502H6a2.75 2.75 0 0 0-2.75 2.75v9A2.75 2.75 0 0 0 6 22.751h12a2.75 2.75 0 0 0 2.75-2.75v-9A2.75 2.75 0 0 0 18 8.251h-.5V6.749a5.5 5.5 0 1 0-11 0ZM17 15.491a1 1 0 1 0-2 0v.01a1 1 0 1 0 2 0v-.01Zm-5-1a1 1 0 0 1 1 1v.01a1 1 0 1 1-2 0v-.01a1 1 0 0 1 1-1Zm-3 1a1 1 0 1 0-2 0v.01a1 1 0 1 0 2 0v-.01Z" clip-rule="evenodd"/>
</svg>
