<svg xmlns="http://www.w3.org/2000/svg" width="24" height="24" fill="none" viewBox="0 0 24 24">
  <path fill="#161C24" fill-rule="evenodd" d="M6 8.25A2.75 2.75 0 0 0 3.25 11v9A2.75 2.75 0 0 0 6 22.75h12A2.75 2.75 0 0 0 20.75 20v-9A2.75 2.75 0 0 0 18 8.25H6Zm7 6.25a1 1 0 1 0-2 0v2a1 1 0 1 0 2 0v-2Z" clip-rule="evenodd"/>
  <path fill="#161C24" fill-rule="evenodd" d="M6.5 6.5A5.5 5.5 0 0 1 12 1c2.461 0 4.212 1.598 4.943 3.667a1 1 0 1 1-1.886.666C14.553 3.906 13.457 3 12 3a3.5 3.5 0 0 0-3.5 3.5V9a1 1 0 0 1-2 0V6.5Z" clip-rule="evenodd"/>
</svg>
