<svg xmlns="http://www.w3.org/2000/svg" width="24" height="24" fill="none" viewBox="0 0 24 24">
  <path fill="#161C24" fill-rule="evenodd" d="M14.728 1.818a.75.75 0 0 0-.91-.545c-1.476.369-2.193 1.27-2.451 2.05a2.751 2.751 0 1 0 1.618.109c.2-.261.558-.545 1.197-.704a.75.75 0 0 0 .546-.91Z" clip-rule="evenodd"/>
  <path fill="#161C24" fill-rule="evenodd" d="M8.299 6.79a1 1 0 0 1-.33 1.375c-1.558.957-2.539 2.332-3.002 4.09A1 1 0 0 1 4 13c-.545 0-1 .451-1 1.01 0 .556.37.904.909.969.545.066.99-.19 1.122-.71a1 1 0 0 1 1.938 0c.116.455.512.73 1.031.73.519 0 .915-.275 1.03-.73a1 1 0 0 1 1.94 0c.115.455.511.73 1.03.73.518 0 .915-.275 1.03-.73a1 1 0 0 1 1.94 0c.115.455.511.73 1.03.73.518 0 .915-.275 1.03-.73a1 1 0 0 1 1.94 0c.131.52.576.776 1.122.71.538-.065.908-.413.908-.969 0-.559-.455-1.01-1-1.01a1 1 0 0 1-.967-.745c-.463-1.758-1.444-3.133-3.003-4.09a1 1 0 1 1 1.047-1.705c1.82 1.119 3.044 2.705 3.697 4.641A3.016 3.016 0 0 1 23 14.011c0 1.776-1.347 2.793-2.667 2.953-.792.097-1.673-.104-2.342-.653A3.192 3.192 0 0 1 16 17a3.19 3.19 0 0 1-2-.697A3.19 3.19 0 0 1 12 17a3.19 3.19 0 0 1-2-.697A3.19 3.19 0 0 1 8 17c-.69 0-1.416-.224-1.991-.69-.67.55-1.55.75-2.342.654C2.347 16.804 1 15.787 1 14.01c0-1.384.94-2.565 2.226-2.909.653-1.936 1.876-3.522 3.697-4.64a1 1 0 0 1 1.376.328Z" clip-rule="evenodd"/>
  <path fill="#161C24" fill-rule="evenodd" d="M14.053 9.606a1 1 0 0 0-.447 1.341l.5 1a1 1 0 1 0 1.789-.894l-.5-1a1 1 0 0 0-1.342-.447Zm-4.106 0a1 1 0 0 1 .448 1.341l-.5 1a1 1 0 1 1-1.79-.894l.5-1a1 1 0 0 1 1.342-.447ZM3.371 15.55a.75.75 0 0 1 .61-.312H20a.75.75 0 0 1 .711.988l-1.544 4.644a2.75 2.75 0 0 1-2.61 1.881H7.443a2.75 2.75 0 0 1-2.609-1.88L3.27 16.228a.75.75 0 0 1 .101-.677Z" clip-rule="evenodd"/>
</svg>
