<svg xmlns="http://www.w3.org/2000/svg" width="24" height="24" fill="none" viewBox="0 0 24 24">
  <path fill="#161C24" d="M13.37 3.054c1.1.382 2.437 1.054 3.6 1.708a.75.75 0 1 1-.735 1.307c-1.2-.674-2.514-1.324-3.5-1.647-1.335-.437-1.798-.511-2.906-.69a65.6 65.6 0 0 1-.646-.105c-.47.217-.89.494-1.255.815a5.513 5.513 0 0 0-1.734 2.949c1.913.13 4.071.655 6.297 1.727a.75.75 0 0 1-.651 1.351C8.77 8.99 5.906 8.668 3.795 8.952c-1.139 1.146-1.598 2.807-1.466 4.408a7.884 7.884 0 0 1 1.928.066c1.014.163 2.105.565 2.854 1.396a.75.75 0 0 1-1.114 1.005c-.43-.478-1.14-.785-1.979-.92-.83-.135-1.682-.082-2.28.061a6.444 6.444 0 0 0-.393 1.5c-.158 1.09-.103 2.277.048 3.384.346 2.52 3.162 3.646 5.217 2.36 3.037-1.902 6.199-4.401 9.223-7.384 3.118-3.074 4.842-5.433 6.362-8.088.541-.947.699-2.072.419-3.06-.287-1.012-1.035-1.87-2.229-2.175-2.04-.52-4.652-.355-7.014 1.549Z"/>
</svg>
