<svg xmlns="http://www.w3.org/2000/svg" width="24" height="24" fill="none" viewBox="0 0 24 24">
  <path fill="#161C24" fill-rule="evenodd" d="M20.969 11.53c-.184-.027-.456-.03-.967-.03h-2v-2h2.061c.435 0 .872 0 1.233.058.428.068.884.235 1.24.664.336.404.438.848.434 1.28-.002.348-.076.743-.145 1.115l-.011.06c-.526 2.832-2.072 4.331-3.539 5.086a6.863 6.863 0 0 1-2.502.724 4.467 4.467 0 0 1-.24.013h-.029c-.001 0-.002 0-.002-1l-.001-1h-.005.018l.099-.007a4.866 4.866 0 0 0 1.747-.508c.964-.496 2.084-1.5 2.487-3.674.04-.217.072-.384.093-.529a2.41 2.41 0 0 0 .029-.251Z" clip-rule="evenodd"/>
  <path fill="#161C24" fill-rule="evenodd" d="M1.274 9.538A1.738 1.738 0 0 1 3.016 7.75h13.97c.973 0 1.773.799 1.742 1.788-.132 4.304-.75 8.598-3.6 11.857-.507.581-1.236.855-1.948.855H6.823c-.713 0-1.442-.274-1.95-.855-2.848-3.259-3.467-7.553-3.599-11.857Zm10.885-7.564a1 1 0 0 1-.324 1.376c-.061.038-.28.24-.49.66a3.372 3.372 0 0 0-.344 1.49 1 1 0 1 1-2 0c0-.918.233-1.735.554-2.38.308-.62.742-1.17 1.227-1.47a1 1 0 0 1 1.377.324Zm2.512 2.769a1 1 0 0 0-1.196-1.593 1.6 1.6 0 0 0-.545.606 3.2 3.2 0 0 0-.236.572c-.115.365-.194.8-.194 1.172a1 1 0 1 0 2 0 2.2 2.2 0 0 1 .171-.757Zm-6.43-.03a1 1 0 0 0-1.38-1.446h-.002l-.002.002-.003.003-.007.007-.016.016a1.737 1.737 0 0 0-.153.17 2.83 2.83 0 0 0-.288.435c-.203.376-.39.913-.39 1.6a1 1 0 0 0 2 0c0-.313.083-.526.15-.65a.834.834 0 0 1 .091-.137Z" clip-rule="evenodd"/>
</svg>
