<svg xmlns="http://www.w3.org/2000/svg" width="24" height="24" fill="none" viewBox="0 0 24 24">
  <path fill="#161C24" fill-rule="evenodd" d="M7.561 3.628c.258-.839 1.119-1.387 2.017-1.18 3.038.7 5.695 2.07 7.8 4.175 2.104 2.105 3.475 4.762 4.174 7.8.207.898-.34 1.758-1.18 2.016l-4.646 1.43v-.009c.04-.339.074-.687.01-1.011a3.248 3.248 0 0 0-1.286-1.98l.009-.011a3.242 3.242 0 0 0-2.03-.637 3.252 3.252 0 0 0-3.065 2.228 3.222 3.222 0 0 0 .013 2.06c.13.401.351.778.644 1.115l-6.619 2.037a.85.85 0 0 1-1.062-1.063l1.842-5.988a3.234 3.234 0 0 0 1.913.085A3.25 3.25 0 0 0 8.751 11.5c0-1.271-.629-2.527-1.915-3.17a2.714 2.714 0 0 0-.651-.227l.522-1.698 1.07.312c2.902.97 5.843 2.738 7.664 4.783a.75.75 0 0 0 1.12-.998c-2.037-2.287-5.229-4.182-8.323-5.213a.745.745 0 0 0-.027-.008l-1.063-.31.413-1.342ZM13.001 11a1 1 0 1 0 0 2h.009a1 1 0 1 0 0-2h-.009Z" clip-rule="evenodd"/>
  <path fill="#161C24" d="M11.764 19.088 14 18.4a1.779 1.779 0 0 0-.012-1.767 1.778 1.778 0 0 0-1.265-.873 1.763 1.763 0 0 0-1.972 1.74c0 .392.13.754.353 1.046l.013.018c.022.029.042.056.067.084.17.19.366.339.58.44Zm-6.902-5.896a1.778 1.778 0 0 1-.222-.069l1.09-3.547c.536.131.98.49 1.268.99.2.347.269.733.22 1.101a1.9 1.9 0 0 1-.802 1.255 1.804 1.804 0 0 1-.058.035l.002.003a2.245 2.245 0 0 1-.519.246 2.02 2.02 0 0 1-.274.042l-.067.001v.004a2.26 2.26 0 0 1-.639-.06Z"/>
</svg>
