<svg xmlns="http://www.w3.org/2000/svg" width="24" height="24" fill="none" viewBox="0 0 24 24">
  <path fill="#161C24" d="M21.5 19.45a.7.7 0 0 0-.7-.7H2.7a.7.7 0 0 0-.7.7v2.3c0 .414.336.75.75.75h18a.75.75 0 0 0 .75-.75v-2.3Zm-7.5-2.2h5.5v-6.005H14v6.005Zm-10 0h5.5v-6.005H4v6.005Z"/>
  <path fill="#161C24" fill-rule="evenodd" d="M11.386 1.094a.75.75 0 0 1 .728 0l9 5a.75.75 0 0 1 .386.656v2.295a.7.7 0 0 1-.7.7H2.7a.7.7 0 0 1-.7-.7V6.75a.75.75 0 0 1 .386-.656l9-5Zm.36 4.656a1 1 0 1 0 0 2h.01a1 1 0 1 0 0-2h-.01Z" clip-rule="evenodd"/>
</svg>
