<svg xmlns="http://www.w3.org/2000/svg" width="24" height="24" fill="none" viewBox="0 0 24 24">
  <path fill="#161C24" fill-rule="evenodd" d="M3.25 4A2.75 2.75 0 0 1 6 1.25h12A2.75 2.75 0 0 1 20.75 4v17.5a.75.75 0 0 1-1.085.67l-3.625-1.81-3.643 2.277a.75.75 0 0 1-.796 0L7.96 20.359 4.335 22.17a.75.75 0 0 1-1.085-.67V4Zm11.043 3.293a1 1 0 1 1 1.414 1.414l-6 6a1 1 0 0 1-1.414-1.414l6-6ZM9.009 7H9a1 1 0 0 0 0 2h.009a1 1 0 0 0 0-2ZM15 13h-.009a1 1 0 1 0 0 2H15a1 1 0 1 0 0-2Z" clip-rule="evenodd"/>
</svg>
