<svg xmlns="http://www.w3.org/2000/svg" width="24" height="24" fill="none" viewBox="0 0 24 24">
  <path fill="#161C24" fill-rule="evenodd" d="M1.293 1.293a1 1 0 0 1 1.414 0l20 20a1 1 0 0 1-1.414 1.414l-20-20a1 1 0 0 1 0-1.414Z" clip-rule="evenodd"/>
  <path fill="#161C24" d="M4.662 3.25H4A2.75 2.75 0 0 0 1.25 6v2.25h8.412l-5-5Zm6.5 6.5H1.25V18A2.75 2.75 0 0 0 4 20.75h16c.61 0 1.172-.198 1.628-.534L11.162 9.75Zm11.392 9.27-9.27-9.27h9.466V18c0 .36-.07.705-.196 1.02ZM11.783 8.25l-5-5H20A2.75 2.75 0 0 1 22.75 6v2.25H11.783Z"/>
</svg>
