<svg xmlns="http://www.w3.org/2000/svg" width="24" height="24" fill="none" viewBox="0 0 24 24">
  <path fill="#161C24" fill-rule="evenodd" d="M1.442 20.434A.75.75 0 0 1 1 19.75v-15a.75.75 0 0 1 1.057-.684 8.989 8.989 0 0 0 .782.286c.516.166 1.257.366 2.147.5 1.785.268 4.129.261 6.456-.786h.002l.005-.003c.05-.02.177-.074.253-.104.16-.062.389-.147.678-.24a15.251 15.251 0 0 1 2.384-.554c1.965-.295 4.621-.302 7.294.901a.75.75 0 0 1 .442.684v15a.75.75 0 0 1-1.058.684c-2.327-1.047-4.67-1.054-6.456-.786-.89.133-1.631.334-2.147.5a10.395 10.395 0 0 0-.781.286c-2.673 1.202-5.33 1.196-7.294.901a15.244 15.244 0 0 1-2.384-.555c-.29-.093-.519-.177-.678-.239-.076-.03-.202-.083-.252-.104l-.008-.003ZM8.75 12.25a3 3 0 1 1 6 0 3 3 0 0 1-6 0Zm-2.948.217a.75.75 0 0 1-.104 1.496c-.36-.025-.712-.063-1.055-.113a.75.75 0 0 1 .215-1.484c.306.044.622.078.944.1Zm13.056-1.818a.75.75 0 0 1-.215 1.484 12.81 12.81 0 0 0-.945-.1.75.75 0 0 1 .104-1.497c.36.025.712.063 1.056.113Z" clip-rule="evenodd"/>
</svg>
