<svg xmlns="http://www.w3.org/2000/svg" width="24" height="24" fill="none" viewBox="0 0 24 24">
  <path fill="#161C24" fill-rule="evenodd" d="M12.28 1.22a.75.75 0 0 0-1.06 0L9.947 2.492a1.25 1.25 0 0 1-1.089.349l-1.985-.33a.75.75 0 0 0-.767 1.123l1.45 2.434a.4.4 0 0 0 .344.195h7.7a.4.4 0 0 0 .344-.195l1.45-2.434a.75.75 0 0 0-.767-1.124l-1.985.331a1.25 1.25 0 0 1-1.09-.35L12.28 1.22ZM7.102 7.395a.396.396 0 0 1 .296-.132h8.704c.113 0 .22.048.296.132a27.89 27.89 0 0 1 2.873 3.808c.996 1.606 1.858 3.434 2.162 5.264.29 1.75-.381 3.284-1.536 4.357-1.144 1.06-2.764 1.68-4.455 1.68H8.059c-1.691 0-3.312-.62-4.455-1.68-1.155-1.073-1.827-2.608-1.536-4.357.304-1.83 1.165-3.658 2.161-5.264a27.887 27.887 0 0 1 2.873-3.808ZM12.5 10.75a.75.75 0 0 0-1.5 0v.334a2.95 2.95 0 0 0-1.114.505c-.504.378-.886.958-.886 1.661 0 .703.382 1.283.886 1.66.504.379 1.165.59 1.864.59.406 0 .744.124.964.29.22.164.286.335.286.46s-.066.296-.286.46c-.22.166-.558.29-.964.29-.668 0-1.09-.321-1.208-.57a.75.75 0 1 0-1.357.64c.33.7 1.026 1.165 1.815 1.346v.334a.75.75 0 0 0 1.5 0v-.334a2.95 2.95 0 0 0 1.114-.505c.504-.378.886-.958.886-1.661 0-.703-.382-1.283-.886-1.66-.504-.379-1.165-.59-1.864-.59-.406 0-.744-.124-.964-.29-.22-.164-.286-.335-.286-.46s.066-.296.286-.46c.22-.166.558-.29.964-.29.668 0 1.09.321 1.208.57a.75.75 0 1 0 1.357-.64c-.33-.7-1.026-1.165-1.815-1.345v-.335Z" clip-rule="evenodd"/>
</svg>
