<svg xmlns="http://www.w3.org/2000/svg" width="24" height="24" fill="none" viewBox="0 0 24 24">
  <path fill="#161C24" fill-rule="evenodd" d="M18.5 13a1 1 0 0 1 1 1v2.5H22a1 1 0 1 1 0 2h-2.5V21a1 1 0 1 1-2 0v-2.5H15a1 1 0 1 1 0-2h2.5V14a1 1 0 0 1 1-1Z" clip-rule="evenodd"/>
  <path fill="#161C24" fill-rule="evenodd" d="M1.25 19a.75.75 0 0 0 .442.684l.008.003c.05.021.176.075.252.104.16.062.389.146.678.24.578.185 1.399.407 2.384.554 1.964.295 4.621.301 7.294-.901a8.981 8.981 0 0 1 .991-.352A2.5 2.5 0 0 1 15 15h1v-1a2.5 2.5 0 0 1 5 0v1h1c.261 0 .513.04.75.114V4a.75.75 0 0 0-.442-.684c-2.673-1.203-5.33-1.196-7.294-.901a15.14 15.14 0 0 0-2.384.555 11.074 11.074 0 0 0-.931.343l-.005.002-.002.001c-2.327 1.047-4.67 1.054-6.456.786a13.752 13.752 0 0 1-2.147-.5 10.415 10.415 0 0 1-.782-.286A.75.75 0 0 0 1.25 4v15Zm4.25-7.5a1 1 0 0 1 1 1v.009a1 1 0 1 1-2 0V12.5a1 1 0 0 1 1-1Zm6.5-3a3 3 0 1 0 0 6 3 3 0 0 0 0-6Z" clip-rule="evenodd"/>
</svg>
