<svg xmlns="http://www.w3.org/2000/svg" width="24" height="24" fill="none" viewBox="0 0 24 24">
  <path fill="#161C24" fill-rule="evenodd" d="M14 18a1 1 0 0 1 1-1h7a1 1 0 1 1 0 2h-7a1 1 0 0 1-1-1Z" clip-rule="evenodd"/>
  <path fill="#161C24" fill-rule="evenodd" d="M1.692 20.184a.75.75 0 0 1-.442-.684v-15a.75.75 0 0 1 1.057-.684 8.989 8.989 0 0 0 .782.286c.516.166 1.257.366 2.147.5 1.785.268 4.129.261 6.456-.786h.002l.005-.003c.05-.02.177-.074.253-.104.16-.062.389-.147.678-.24a15.251 15.251 0 0 1 2.384-.554c1.965-.295 4.621-.302 7.294.901a.75.75 0 0 1 .442.684v11.114A2.498 2.498 0 0 0 22 15.5h-7a2.5 2.5 0 0 0-1.701 4.332 11.215 11.215 0 0 0-.991.352c-2.673 1.202-5.33 1.196-7.294.901a15.244 15.244 0 0 1-2.384-.555c-.29-.093-.519-.177-.678-.239-.076-.03-.202-.083-.252-.104l-.008-.003ZM6.5 13.5a1 1 0 1 0-2 0v.009a1 1 0 1 0 2 0V13.5ZM9 12a3 3 0 1 1 6 0 3 3 0 0 1-6 0Zm10.5-.508a1 1 0 1 0-2 0v.01a1 1 0 1 0 2 0v-.01Z" clip-rule="evenodd"/>
</svg>
