<svg xmlns="http://www.w3.org/2000/svg" width="24" height="24" fill="none" viewBox="0 0 24 24">
  <path fill="#161C24" fill-rule="evenodd" d="M2.293 14.293a1 1 0 0 1 1.414 0L6.5 17.086l2.793-2.793a1 1 0 0 1 1.414 1.414L7.914 18.5l2.793 2.793a1 1 0 0 1-1.414 1.414L6.5 19.914l-2.793 2.793a1 1 0 0 1-1.414-1.414L5.086 18.5l-2.793-2.793a1 1 0 0 1 0-1.414Z" clip-rule="evenodd"/>
  <path fill="#161C24" fill-rule="evenodd" d="M19 6V5a3 3 0 0 0-3-3H4a3 3 0 0 0-3 3v8.5a2.5 2.5 0 0 1 3.768-.267L6.5 14.964l1.732-1.733a2.5 2.5 0 0 1 3.536 3.536L10.036 18.5l1.732 1.732c.488.488.732 1.128.732 1.768H20a3 3 0 0 0 3-3V9a3 3 0 0 0-3-3h-1ZM4 4a1 1 0 0 0-1 1v1h14V5a1 1 0 0 0-1-1H4Zm13.5 8a2 2 0 1 1 0 4 2 2 0 0 1 0-4Z" clip-rule="evenodd"/>
</svg>
