<svg xmlns="http://www.w3.org/2000/svg" width="24" height="24" fill="none" viewBox="0 0 24 24">
  <path fill="#161C24" fill-rule="evenodd" d="M1.293 1.293a1 1 0 0 1 1.414 0l19.985 20a1 1 0 1 1-1.415 1.414l-19.984-20a1 1 0 0 1 0-1.414Z" clip-rule="evenodd"/>
  <path fill="#161C24" d="M3.458 2.049A3 3 0 0 0 1 5v14a3 3 0 0 0 3 3h16c.929 0 1.76-.422 2.31-1.085l-4.914-4.918a2 2 0 0 1-1.893-1.894L7.406 6H3V5a1 1 0 0 1 1-1h1.408l-1.95-1.951ZM9.527 6H17V5a1 1 0 0 0-1-1H7.528L5.53 2H16a3 3 0 0 1 3 3v1h1a3 3 0 0 1 3 3v10c0 .153-.011.303-.033.45l-4.043-4.046a2 2 0 0 0-2.827-2.83L9.527 6Z"/>
</svg>
