<svg xmlns="http://www.w3.org/2000/svg" width="24" height="24" fill="none" viewBox="0 0 24 24">
  <path fill="#161C24" fill-rule="evenodd" d="M10.14 14.232a1 1 0 0 1 .128 1.408l-5 6a1 1 0 0 1-1.475.067l-2.5-2.5a1 1 0 1 1 1.414-1.414l1.726 1.726 4.299-5.16a1 1 0 0 1 1.408-.127Z" clip-rule="evenodd"/>
  <path fill="#161C24" fill-rule="evenodd" d="M19 6V5a3 3 0 0 0-3-3H4a3 3 0 0 0-3 3v11.208a2.5 2.5 0 0 1 2.768.524l.564.565L7.579 13.4a2.5 2.5 0 0 1 3.842 3.2L6.92 22H20a3 3 0 0 0 3-3V9a3 3 0 0 0-3-3h-1ZM4 4a1 1 0 0 0-1 1v1h14V5a1 1 0 0 0-1-1H4Zm13.5 8a2 2 0 1 1 0 4 2 2 0 0 1 0-4Z" clip-rule="evenodd"/>
</svg>
