<svg xmlns="http://www.w3.org/2000/svg" width="24" height="24" fill="none" viewBox="0 0 24 24">
  <path fill="#161C24" fill-rule="evenodd" d="M1.758 2.289a.845.845 0 0 0-.439.401c-.043.087-.049.127-.049.31 0 .192.005.22.058.325.07.137.223.288.362.356l.1.049h17.42l.1-.049a.899.899 0 0 0 .362-.356c.053-.105.058-.133.058-.325s-.005-.22-.058-.325a.899.899 0 0 0-.362-.356l-.1-.049-8.69-.004c-7.192-.003-8.702.001-8.762.023ZM14.87 8.272c-1.5.153-2.759.739-3.792 1.767a5.714 5.714 0 0 0-1.092 1.451 6.088 6.088 0 0 0-.669 2.01c-.04.254-.045.365-.045.9s.005.646.045.9c.211 1.351.784 2.483 1.742 3.441a6.03 6.03 0 0 0 3.441 1.742c.252.039.369.045.89.046.533.001.635-.004.91-.046a6.264 6.264 0 0 0 2.795-1.167l.086-.064 1.184 1.18c1.372 1.366 1.286 1.298 1.635 1.298.192 0 .22-.005.325-.058a.899.899 0 0 0 .356-.362c.043-.087.049-.128.049-.31 0-.349.068-.263-1.298-1.635l-1.18-1.184.064-.086a6.264 6.264 0 0 0 1.167-2.795c.041-.273.047-.381.047-.9 0-.677-.033-.967-.171-1.51a5.985 5.985 0 0 0-1.618-2.831 6.028 6.028 0 0 0-3.431-1.74c-.223-.034-.389-.044-.82-.049a14.86 14.86 0 0 0-.62.002ZM1.758 9.289a.85.85 0 0 0-.439.401c-.043.087-.049.127-.049.31 0 .192.005.22.058.325.07.137.223.288.362.356l.1.049h5.42l.1-.049a.899.899 0 0 0 .362-.356c.053-.105.058-.133.058-.325s-.005-.22-.058-.325a.899.899 0 0 0-.362-.356l-.1-.049-2.69-.004c-2.202-.003-2.703.001-2.762.023Zm14.192.493c.847.102 1.66.44 2.338.973.211.165.663.629.823.845.281.378.501.781.658 1.205a4.723 4.723 0 0 1 0 3.19 4.493 4.493 0 0 1-1.089 1.685 4.493 4.493 0 0 1-1.685 1.089 4.71 4.71 0 0 1-3.19 0 4.493 4.493 0 0 1-1.685-1.089 4.198 4.198 0 0 1-.89-1.23 4.58 4.58 0 0 1-.47-2.328 4.498 4.498 0 0 1 .48-1.792 4.654 4.654 0 0 1 4.71-2.548ZM1.758 16.289a.85.85 0 0 0-.439.401c-.043.087-.049.127-.049.31 0 .192.005.22.058.325.07.137.223.288.362.356l.1.049h5.42l.1-.049a.899.899 0 0 0 .362-.356c.053-.105.058-.133.058-.325s-.005-.22-.058-.325a.899.899 0 0 0-.362-.356l-.1-.049-2.69-.004c-2.202-.003-2.703.001-2.762.023Z" clip-rule="evenodd"/>
</svg>
