<svg xmlns="http://www.w3.org/2000/svg" width="24" height="24" fill="none" viewBox="0 0 24 24">
  <path fill="#161C24" fill-rule="evenodd" d="M9.25 14a2.75 2.75 0 1 1 5.5 0 2.75 2.75 0 0 1-5.5 0Z" clip-rule="evenodd"/>
  <path fill="#161C24" fill-rule="evenodd" d="M12 5a9 9 0 0 0-9 9c0 2.028.67 3.896 1.8 5.4a1 1 0 0 1-1.6 1.202A10.956 10.956 0 0 1 1 14C1 7.925 5.925 3 12 3s11 4.925 11 11c0 2.476-.82 4.763-2.2 6.602a1 1 0 0 1-1.6-1.202A8.956 8.956 0 0 0 21 14a9 9 0 0 0-9-9Z" clip-rule="evenodd"/>
  <path fill="#161C24" fill-rule="evenodd" d="M12 9a5 5 0 0 0-3.727 8.333 1 1 0 1 1-1.49 1.334 7 7 0 1 1 10.435 0 1 1 0 1 1-1.49-1.334A5 5 0 0 0 12 9Z" clip-rule="evenodd"/>
</svg>
