<svg xmlns="http://www.w3.org/2000/svg" width="24" height="24" fill="none" viewBox="0 0 24 24">
  <path fill="#161C24" fill-rule="evenodd" d="M9.02 11h5.96c-.094-2.257-.499-4.246-1.08-5.7-.334-.835-.707-1.444-1.07-1.827C12.47 3.09 12.19 3 12 3c-.189 0-.47.091-.83.473-.363.383-.736.992-1.07 1.827-.581 1.454-.986 3.443-1.08 5.7Zm5.96 2c-.094 2.256-.499 4.246-1.08 5.7-.334.835-.707 1.443-1.07 1.827-.36.381-.641.473-.83.473-.189 0-.47-.092-.83-.473-.363-.384-.736-.992-1.07-1.827-.581-1.454-.986-3.444-1.08-5.7h5.96Zm2.001 0h5.723a10.754 10.754 0 0 1-9.417 9.674 3.84 3.84 0 0 0 .996-.773c.595-.628 1.084-1.484 1.474-2.459.69-1.724 1.13-3.975 1.224-6.442Zm5.723-2h-5.723c-.094-2.467-.534-4.718-1.224-6.443-.39-.974-.88-1.83-1.473-2.458a3.847 3.847 0 0 0-.997-.773A10.754 10.754 0 0 1 22.704 11ZM7.02 11H1.296a10.754 10.754 0 0 1 9.417-9.674 3.848 3.848 0 0 0-.997.773c-.594.628-1.083 1.484-1.473 2.458C7.553 6.282 7.113 8.533 7.02 11Zm0 2H1.296a10.754 10.754 0 0 0 9.417 9.674 3.85 3.85 0 0 1-.997-.773c-.594-.628-1.083-1.484-1.473-2.459-.69-1.724-1.13-3.975-1.224-6.442Z" clip-rule="evenodd"/>
</svg>
