<svg xmlns="http://www.w3.org/2000/svg" width="24" height="24" fill="none" viewBox="0 0 24 24">
  <path fill="#161C24" d="M20.234 6.733a1.44 1.44 0 0 1 2.516.957v8.62a1.44 1.44 0 0 1-2.516.957l-3.795-4.269a.75.75 0 0 1-.189-.498v-1a.75.75 0 0 1 .19-.498l3.794-4.269Z"/>
  <path fill="#161C24" fill-rule="evenodd" d="M4 3.75A2.75 2.75 0 0 0 1.25 6.5v11A2.75 2.75 0 0 0 4 20.25h11a2.75 2.75 0 0 0 2.75-2.75v-11A2.75 2.75 0 0 0 15 3.75H4ZM9.5 9.5a2.5 2.5 0 1 0 0 5 2.5 2.5 0 0 0 0-5Z" clip-rule="evenodd"/>
</svg>
