<svg xmlns="http://www.w3.org/2000/svg" width="24" height="24" fill="none" viewBox="0 0 24 24">
  <path fill="#161C24" fill-rule="evenodd" d="M7.758 1.79a.845.845 0 0 0-.439.4c-.043.087-.049.127-.049.31 0 .192.005.22.058.325.07.137.223.288.362.356l.1.05 5.21.01c4.825.01 5.218.013 5.32.044.44.136.759.455.895.895.032.102.035.603.045 7.32l.01 7.21.049.1a.899.899 0 0 0 .356.362c.105.053.133.058.325.058s.22-.005.325-.058a.899.899 0 0 0 .356-.362l.049-.1.006-7.23c.006-7.904.013-7.354-.107-7.773a3.394 3.394 0 0 0-.343-.73 2.767 2.767 0 0 0-1.841-1.186c-.154-.027-.791-.03-5.395-.03-4.289.002-5.233.007-5.292.028ZM4.72 4.773c-.232.04-.52.156-.72.293a1.82 1.82 0 0 0-.685.967l-.045.156v15.52l.058.115a.82.82 0 0 0 .349.348c.103.052.132.057.324.057.189 0 .221-.005.313-.053.056-.029 1.471-.896 3.144-1.925L10.5 18.38l3.042 1.872a427.836 427.836 0 0 0 3.144 1.925c.092.048.124.053.313.053.194 0 .221-.005.326-.058a.899.899 0 0 0 .356-.362l.049-.1V6.19l-.045-.156a1.788 1.788 0 0 0-1.209-1.219l-.146-.045-5.78-.002c-3.179-.002-5.802.001-5.83.006Zm11.406 1.511a.4.4 0 0 1 .089.09c.033.051.035.398.04 6.91.004 4.59-.001 6.855-.015 6.855-.011 0-1.213-.734-2.672-1.632a321.409 321.409 0 0 0-2.754-1.685c-.092-.048-.124-.053-.314-.053s-.222.005-.314.053c-.057.03-1.296.788-2.754 1.685A234.771 234.771 0 0 1 4.76 20.14c-.028 0-.027-13.602 0-13.7a.26.26 0 0 1 .172-.179c.032-.01 2.522-.016 5.599-.014 5.257.003 5.544.005 5.595.038Z" clip-rule="evenodd"/>
</svg>
