<svg xmlns="http://www.w3.org/2000/svg" width="24" height="24" fill="none" viewBox="0 0 24 24">
  <path fill="#161C24" fill-rule="evenodd" d="M11.45 1.233a11.06 11.06 0 0 0-.93.119c-2.401.441-4.463 1.965-5.53 4.088-.394.786-.606 1.496-.734 2.46-.04.297-.033 1.379.01 1.74.22 1.814.9 3.339 2.065 4.628.203.225.588.598.733.709.062.048.095.088.095.118 0 .025-.202 1.569-.451 3.43-.496 3.716-.484 3.594-.378 3.803a.905.905 0 0 0 .364.357c.079.036.132.044.306.044h.21l2.36-.949c1.546-.621 2.384-.949 2.43-.949.046 0 .884.328 2.43.949l2.36.949.21.001c.194 0 .219-.004.326-.06a.717.717 0 0 0 .409-.61c.007-.118-.088-.876-.443-3.535-.25-1.861-.452-3.4-.451-3.42 0-.019.04-.065.089-.102.148-.112.624-.579.839-.823 1.099-1.252 1.756-2.768 1.964-4.536.044-.367.05-1.45.01-1.744a7.898 7.898 0 0 0-.337-1.52c-.951-2.777-3.435-4.74-6.466-5.11a14.37 14.37 0 0 0-1.49-.037Zm1.32 1.597c1.833.218 3.492 1.219 4.48 2.7.509.764.814 1.593.933 2.54.032.255.032 1.03-.001 1.33-.252 2.343-1.54 4.249-3.511 5.201a5.963 5.963 0 0 1-1.941.571 6.77 6.77 0 0 1-1.75-.043 6.132 6.132 0 0 1-3.873-2.383 6.614 6.614 0 0 1-1.215-2.848 5.8 5.8 0 0 1-.1-1.188c0-.684.076-1.168.277-1.78.494-1.496 1.576-2.731 3.029-3.459a6.585 6.585 0 0 1 2.522-.678 9.95 9.95 0 0 1 1.15.037Zm.975 3.968a.696.696 0 0 0-.307.215A85.34 85.34 0 0 0 12.4 8.246l-.945 1.136-.503-.496c-.61-.603-.63-.616-.952-.616-.182 0-.223.006-.31.049a.899.899 0 0 0-.362.356c-.053.105-.058.133-.058.325 0 .341-.027.306.949 1.281.975.976.94.949 1.28.949.192 0 .22-.005.322-.056a.964.964 0 0 0 .178-.119c.079-.074 2.523-3.003 2.615-3.135a.67.67 0 0 0 .122-.466.659.659 0 0 0-.226-.492c-.153-.145-.258-.188-.48-.196a.657.657 0 0 0-.285.032ZM8.9 16.126c.804.359 1.6.559 2.53.636.349.029 1.124.013 1.48-.031a7.79 7.79 0 0 0 2.353-.667c.17-.079.174-.08.183-.037.023.096.639 4.775.63 4.783-.004.005-.876-.339-1.937-.765l-1.93-.774h-.42l-1.928.774c-1.061.426-1.933.77-1.938.765-.008-.008.609-4.689.63-4.786.007-.026.022-.042.034-.037l.313.139Z" clip-rule="evenodd"/>
</svg>
