<svg xmlns="http://www.w3.org/2000/svg" width="24" height="24" fill="none" viewBox="0 0 24 24">
  <path fill="#161C24" fill-rule="evenodd" d="M6.04 1.792a3.001 3.001 0 0 0-1.064.422A2.762 2.762 0 0 0 3.79 4.067c-.028.163-.03 1.139-.026 8.913l.006 8.73.05.1a.9.9 0 0 0 .352.36.821.821 0 0 0 .546.042c.055-.018 1.711-.892 3.681-1.942 1.97-1.051 3.59-1.91 3.601-1.91.011 0 1.63.858 3.595 1.907a368.486 368.486 0 0 0 3.67 1.942c.127.048.403.035.541-.026a.893.893 0 0 0 .366-.358l.058-.115.006-8.73c.006-9.548.014-8.852-.107-9.273a3.394 3.394 0 0 0-.343-.731 2.767 2.767 0 0 0-1.84-1.185c-.156-.027-.848-.031-5.966-.03-4.797.003-5.816.008-5.94.03Zm11.78 1.493c.44.136.758.454.895.895.032.103.035.63.04 8.085.003 4.386 0 7.975-.01 7.975-.008 0-1.45-.766-3.205-1.702-1.755-.937-3.237-1.72-3.295-1.74a.82.82 0 0 0-.49 0c-.058.02-1.54.803-3.295 1.74a500.519 500.519 0 0 1-3.205 1.702c-.009 0-.013-3.59-.01-7.975.005-7.454.008-7.982.04-8.085.07-.227.174-.402.333-.56a1.19 1.19 0 0 1 .722-.36c.072-.008 2.66-.014 5.75-.012 5.231.003 5.628.005 5.73.037Zm-3.062 4.503a1.22 1.22 0 0 0-.16.082c-.048.03-.878.843-1.843 1.807l-1.754 1.752-.776-.77c-.913-.908-.888-.89-1.225-.89-.182 0-.223.007-.31.05a.899.899 0 0 0-.362.356c-.053.105-.058.133-.058.325 0 .348-.057.276 1.2 1.53 1.254 1.257 1.182 1.2 1.53 1.2.36 0 .153.179 2.531-2.2 2.378-2.377 2.2-2.17 2.2-2.53 0-.182-.007-.223-.05-.31a.899.899 0 0 0-.356-.362c-.1-.05-.14-.06-.305-.062a.843.843 0 0 0-.262.022Z" clip-rule="evenodd"/>
</svg>
