<svg xmlns="http://www.w3.org/2000/svg" width="24" height="24" fill="none" viewBox="0 0 24 24">
  <path fill="#161C24" fill-rule="evenodd" d="M17.258 1.288a.856.856 0 0 0-.439.402l-.049.1-.01 1.48-.01 1.48-1.48.01-1.48.01-.1.049a.899.899 0 0 0-.362.356c-.053.105-.058.133-.058.325s.005.22.058.325c.07.137.223.288.362.356l.1.049 1.48.01 1.48.01.01 1.48.01 1.48.058.115c.07.137.223.288.362.356.087.043.128.049.31.049s.223-.006.31-.05a.899.899 0 0 0 .362-.355l.058-.115.01-1.48.01-1.48 1.48-.01 1.48-.01.115-.058a.899.899 0 0 0 .356-.362c.043-.087.05-.128.05-.31 0-.192-.006-.22-.059-.325a.899.899 0 0 0-.362-.356l-.1-.05-1.48-.01-1.48-.01-.01-1.48-.01-1.48-.049-.1a.894.894 0 0 0-.355-.36c-.099-.05-.14-.06-.305-.063a.785.785 0 0 0-.263.022ZM4.54 2.29a3.014 3.014 0 0 0-1.064.423A2.762 2.762 0 0 0 2.29 4.567c-.028.163-.03 1.139-.026 8.913l.006 8.73.05.1a.9.9 0 0 0 .352.36.821.821 0 0 0 .546.042c.055-.018 1.711-.892 3.681-1.942a418.92 418.92 0 0 1 3.601-1.91c.011 0 1.63.858 3.595 1.907a368.486 368.486 0 0 0 3.67 1.942c.127.048.403.035.541-.026a.893.893 0 0 0 .366-.358l.058-.115v-9.92l-.058-.115a.899.899 0 0 0-.362-.356c-.087-.043-.128-.05-.31-.05s-.223.007-.31.05a.899.899 0 0 0-.362.356l-.058.115-.005 4.225a308.591 308.591 0 0 1-.02 4.225c-.008 0-1.45-.766-3.205-1.702-1.755-.937-3.237-1.72-3.295-1.74a.82.82 0 0 0-.49 0c-.058.02-1.54.803-3.295 1.74a500.519 500.519 0 0 1-3.205 1.702c-.009 0-.013-3.59-.01-7.975.005-7.454.008-7.982.04-8.085.138-.444.454-.76.895-.895.1-.03.374-.034 3.07-.044l2.96-.011.1-.05a.899.899 0 0 0 .362-.355c.053-.105.058-.133.058-.325s-.005-.22-.058-.325a.899.899 0 0 0-.362-.356l-.1-.05-3.01-.002c-2.473-.002-3.037.002-3.16.024Z" clip-rule="evenodd"/>
</svg>
