<svg xmlns="http://www.w3.org/2000/svg" width="24" height="24" fill="none" viewBox="0 0 24 24">
  <path fill="#161C24" fill-rule="evenodd" d="M11.19 1.282a10.795 10.795 0 0 0-3.625.926 10.813 10.813 0 0 0-5.357 5.357A10.52 10.52 0 0 0 1.26 12c0 1.576.304 3.001.948 4.435a10.821 10.821 0 0 0 5.357 5.357c1.43.642 2.86.947 4.435.947 1.574 0 3.004-.305 4.435-.947a10.829 10.829 0 0 0 5.357-5.357c.642-1.43.947-2.86.947-4.435 0-1.574-.305-3.004-.947-4.435a10.821 10.821 0 0 0-5.357-5.357 10.47 10.47 0 0 0-4.475-.945c-.313.001-.66.01-.77.02Zm1.18 1.478a9.027 9.027 0 0 1 3.646.911 8.851 8.851 0 0 1 2.577 1.851 8.758 8.758 0 0 1 1.736 2.462 9.007 9.007 0 0 1 .909 3.613 9.22 9.22 0 0 1-1.424 5.353 9.513 9.513 0 0 1-2.474 2.604 9.437 9.437 0 0 1-3.277 1.465 9.508 9.508 0 0 1-4.126 0 9.322 9.322 0 0 1-3.627-1.727 10.03 10.03 0 0 1-1.602-1.602 9.322 9.322 0 0 1-1.727-3.627 9.509 9.509 0 0 1 0-4.126A9.327 9.327 0 0 1 4.708 6.31 10.03 10.03 0 0 1 6.31 4.708a9.297 9.297 0 0 1 3.67-1.736 9.051 9.051 0 0 1 1.589-.21c.188-.009.346-.017.35-.019.006 0 .209.006.45.017ZM9.42 6.773c-1.198.147-2.173.837-2.718 1.923a4.129 4.129 0 0 0-.442 1.924c0 .414.026.687.1 1.06.414 2.074 2.094 3.848 5.099 5.382l.329.168h.424l.329-.168c2.454-1.253 3.985-2.628 4.733-4.252.555-1.203.622-2.67.173-3.782-.48-1.19-1.393-1.97-2.59-2.212-.198-.04-.287-.046-.687-.046-.364.001-.497.008-.64.037a3.117 3.117 0 0 0-1.385.658L12 7.583l-.145-.118a3.103 3.103 0 0 0-1.34-.648c-.144-.03-.278-.042-.605-.047a7.972 7.972 0 0 0-.49.003Zm.682 1.498c.164.018.416.106.587.206.196.115.433.345.639.62.178.235.294.324.492.375a.729.729 0 0 0 .633-.128c.046-.034.148-.15.228-.258.467-.634.976-.882 1.683-.823.776.065 1.383.54 1.693 1.32.34.86.215 2.005-.324 2.946-.613 1.072-1.711 2.021-3.43 2.964l-.305.168-.308-.17c-1.593-.882-2.622-1.732-3.265-2.7-.917-1.38-.894-3.123.053-4.016.174-.164.283-.24.489-.336a1.92 1.92 0 0 1 .656-.177c.18-.016.26-.014.479.01Z" clip-rule="evenodd"/>
</svg>
