<svg xmlns="http://www.w3.org/2000/svg" width="24" height="24" fill="none" viewBox="0 0 24 24">
  <path fill="#161C24" fill-rule="evenodd" d="M11.75 1.295a.726.726 0 0 0-.294.2c-.094.102-.135.18-.998 1.94-.225.458-.286.566-.323.574-.025.005-.63.073-1.345.15-.715.078-1.354.15-1.419.163a.746.746 0 0 0-.545.414c-.051.103-.056.134-.055.324 0 .224.023.295.143.455.027.036.507.462 1.067.947.56.485 1.022.887 1.026.895.004.007-.114.576-.261 1.263-.243 1.135-.267 1.266-.262 1.42.005.14.016.19.064.284.073.145.21.282.349.35.14.069.392.087.539.039.053-.017.647-.32 1.321-.672A52.919 52.919 0 0 1 12 9.4c.011 0 .567.287 1.236.637.669.35 1.258.653 1.31.672a.578.578 0 0 0 .268.027.673.673 0 0 0 .495-.212.66.66 0 0 0 .205-.484c.007-.157-.013-.265-.26-1.42a43.946 43.946 0 0 1-.261-1.264c.004-.007.462-.406 1.017-.886a35.166 35.166 0 0 0 1.069-.945.644.644 0 0 0 .157-.417.704.704 0 0 0-.277-.637c-.167-.134-.189-.138-1.673-.301-.757-.083-1.396-.156-1.421-.161-.038-.008-.101-.122-.343-.615-.851-1.733-.896-1.82-.992-1.917-.145-.146-.281-.202-.51-.21-.149-.006-.207 0-.27.028Zm.615 3.135c.223.446.382.739.427.79a.84.84 0 0 0 .215.15c.142.069.15.07.916.154.426.047.77.092.764.1-.005.009-.245.219-.533.467-.288.248-.558.497-.599.554-.177.24-.176.367.012 1.25.08.377.139.685.131.685-.009 0-.32-.16-.692-.354a15.22 15.22 0 0 0-.776-.39A.854.854 0 0 0 12 7.8a.854.854 0 0 0-.23.035c-.055.019-.405.195-.778.39-.372.196-.683.353-.691.35a8.842 8.842 0 0 1 .132-.686c.188-.876.189-1.005.012-1.245-.041-.056-.318-.312-.615-.57-.392-.337-.529-.466-.5-.47l.78-.085c.732-.08.742-.081.883-.15a.84.84 0 0 0 .215-.15c.045-.051.204-.344.427-.79.195-.391.359-.71.365-.71.006 0 .17.319.365.71ZM9.72 12.274a1.76 1.76 0 0 0-1.287.96c-.119.238-.156.398-.168.73l-.01.295-2.292.006-2.293.006-.146.045a1.79 1.79 0 0 0-1.208 1.208l-.046.146-.01 2.79-.01 2.79-.23.01c-.203.009-.243.017-.345.068a.899.899 0 0 0-.356.362c-.043.087-.049.128-.049.31s.006.223.049.31a.899.899 0 0 0 .356.362l.115.058h20.42l.115-.058a.899.899 0 0 0 .356-.362c.043-.087.049-.128.049-.31 0-.192-.005-.22-.058-.325a.89.89 0 0 0-.362-.355c-.082-.04-.142-.051-.33-.06l-.23-.01-.01-1.79c-.011-1.785-.011-1.79-.056-1.936a2.238 2.238 0 0 0-.251-.524 1.842 1.842 0 0 0-.957-.684l-.146-.045-2.294-.006-2.294-.006-.007-1.294c-.006-1.275-.007-1.297-.051-1.441a2.238 2.238 0 0 0-.251-.524 1.842 1.842 0 0 0-.957-.684l-.146-.045-2.28-.003a150.42 150.42 0 0 0-2.33.006Zm4.406 1.51a.4.4 0 0 1 .089.09c.033.05.035.25.035 3.715v3.66h-4.5l-.006-3.59c-.003-1.974 0-3.627.006-3.674.015-.103.09-.198.177-.223.037-.011.899-.017 2.104-.015 1.913.003 2.044.005 2.095.038Zm-6 2a.4.4 0 0 1 .089.09c.033.05.035.207.035 2.715v2.66h-4.5l-.006-2.59c-.003-1.424 0-2.627.006-2.674.015-.103.09-.198.177-.223.037-.011.899-.017 2.104-.015 1.913.003 2.044.005 2.095.038Zm12 2a.4.4 0 0 1 .089.09c.033.05.035.162.035 1.715v1.66h-4.5l-.006-1.59c-.003-.874 0-1.627.006-1.674.015-.103.09-.198.177-.223.037-.011.899-.017 2.104-.015 1.913.003 2.044.005 2.095.038Z" clip-rule="evenodd"/>
</svg>
