<svg xmlns="http://www.w3.org/2000/svg" width="24" height="24" fill="none" viewBox="0 0 24 24">
  <path fill="#161C24" fill-rule="evenodd" d="M11.42 1.272a7.583 7.583 0 0 0-2.773.748 7.152 7.152 0 0 0-2.118 1.51 7.109 7.109 0 0 0-1.51 2.117c-.38.786-.586 1.487-.712 2.413-.053.39-.053 1.491 0 1.88.127.934.334 1.63.722 2.43.277.571.545.998.929 1.48.303.38.873.947 1.232 1.227l.06.047.01 3.543.01 3.543.058.115c.07.137.223.288.362.356.087.043.128.05.31.05.188 0 .22-.007.312-.054.056-.029.909-.657 1.895-1.397L12 19.935l1.829 1.372c2.04 1.53 1.91 1.446 2.219 1.428a.796.796 0 0 0 .258-.052.893.893 0 0 0 .366-.358l.058-.115.01-3.543.01-3.543.06-.047c.359-.28.929-.848 1.232-1.227.384-.482.652-.909.929-1.48.388-.8.595-1.496.722-2.43.053-.389.053-1.49 0-1.88-.127-.934-.334-1.63-.722-2.43a7.126 7.126 0 0 0-1.5-2.1 7.126 7.126 0 0 0-2.101-1.5 7.414 7.414 0 0 0-2.36-.713c-.217-.03-.417-.04-.89-.046-.335-.004-.65-.003-.7.001Zm.894 1.488A6.202 6.202 0 0 1 15.9 4.116c.244.194.79.74.984.984a6.23 6.23 0 0 1 1.354 4.235 6.196 6.196 0 0 1-1.354 3.565c-.194.244-.74.79-.984.984a6.23 6.23 0 0 1-4.235 1.354A6.195 6.195 0 0 1 8.1 13.884a9.142 9.142 0 0 1-.984-.984A6.201 6.201 0 0 1 5.76 9.328 6.229 6.229 0 0 1 7.117 5.1a8.1 8.1 0 0 1 .89-.907 6.245 6.245 0 0 1 3.633-1.432l.3-.018c.017 0 .185.006.374.017Zm-.6 1.53c-.23.063-.455.214-.592.395a33.248 33.248 0 0 0-.846 1.678c-.004.01-.382.081-.841.158-.46.076-.877.154-.93.171a1.127 1.127 0 0 0-.446.302 1.077 1.077 0 0 0-.3.767c0 .322.1.564.338.823.084.091.37.393.636.671.33.346.48.516.475.54-.004.02-.063.4-.13.845-.162 1.068-.161 1.187.015 1.523.14.266.446.497.74.558.16.033.47.015.6-.036.057-.022.427-.212.823-.422.395-.21.73-.383.744-.383.014 0 .349.172.744.383.396.21.766.4.823.422.13.051.439.07.599.036.295-.06.6-.292.74-.558.176-.334.177-.455.016-1.523a80.565 80.565 0 0 0-.13-.844c-.005-.024.178-.229.57-.64.32-.333.62-.66.669-.728.132-.182.192-.357.204-.595a1.042 1.042 0 0 0-.096-.549 1.147 1.147 0 0 0-.65-.594 17.237 17.237 0 0 0-.93-.173c-.456-.076-.832-.147-.835-.157a34.824 34.824 0 0 0-.846-1.675 1.135 1.135 0 0 0-.601-.396 1.501 1.501 0 0 0-.563.001Zm.568 2.526c.258.527.279.563.405.69.096.095.18.155.298.214.156.076.2.087.779.184l.614.103-.154.165-.46.488c-.525.557-.558.693-.405 1.675.044.29.08.542.08.563 0 .03-.095-.014-.504-.23-.278-.147-.55-.283-.605-.303a1.014 1.014 0 0 0-.33-.035c-.168 0-.257.01-.33.035-.055.02-.327.156-.605.303-.41.216-.505.26-.505.23 0-.02.037-.274.08-.563.115-.734.11-.907-.033-1.209-.056-.12-.122-.2-.392-.487-.18-.188-.385-.408-.46-.487l-.133-.145.614-.103c.579-.097.623-.108.778-.184a1.12 1.12 0 0 0 .297-.21c.125-.125.145-.159.405-.69.15-.308.279-.56.284-.56.005 0 .132.25.282.556Zm-3.408 9.276a7.96 7.96 0 0 0 1.716.527c.515.095.715.11 1.41.11s.895-.015 1.41-.11a7.96 7.96 0 0 0 1.716-.527c.063-.029.119-.052.125-.052.005 0 .009 1 .009 2.22 0 1.478-.007 2.22-.02 2.22-.011 0-.652-.474-1.423-1.052-.772-.579-1.45-1.076-1.505-1.104a.583.583 0 0 0-.265-.06c-.302-.016-.227-.063-1.832 1.14A68.086 68.086 0 0 1 8.76 20.48c-.013 0-.02-.756-.02-2.22 0-1.22.004-2.22.009-2.22.006 0 .062.023.125.052Z" clip-rule="evenodd"/>
</svg>
