<svg xmlns="http://www.w3.org/2000/svg" width="24" height="24" fill="none" viewBox="0 0 24 24">
  <path fill="#161C24" fill-rule="evenodd" d="M11.66 2.49c-.524.108-.934.415-1.205.903-.06.108-.575 1.115-1.145 2.237a109.592 109.592 0 0 1-1.083 2.103.275.275 0 0 1-.112.085c-.036.011-1.086.183-2.335.381-2.567.408-2.643.422-2.82.491a1.9 1.9 0 0 0-.754.564 2.2 2.2 0 0 0-.309.636 1.996 1.996 0 0 0 0 .86c.052.191.149.401.264.574.055.082.704.746 1.872 1.917l1.787 1.791v.096c0 .052-.168 1.154-.373 2.449-.354 2.231-.374 2.368-.375 2.643-.001.219.007.321.033.418.146.529.469.922.945 1.151.286.137.392.16.75.16.337.001.458-.021.689-.124.066-.03 1.097-.552 2.291-1.16 1.193-.607 2.193-1.105 2.22-1.105.027 0 .838.401 1.8.892 3.207 1.634 2.9 1.498 3.39 1.498.336-.001.474-.028.723-.141a1.723 1.723 0 0 0 1.021-1.675c-.006-.112-.178-1.263-.383-2.557a109.526 109.526 0 0 1-.371-2.449v-.096l1.787-1.791c1.115-1.117 1.817-1.836 1.867-1.911.167-.249.247-.447.298-.738a1.742 1.742 0 0 0-.034-.715 2.153 2.153 0 0 0-.301-.618c-.19-.242-.48-.46-.757-.569-.177-.069-.253-.083-2.82-.491a151.397 151.397 0 0 1-2.333-.38.272.272 0 0 1-.096-.057c-.018-.021-.535-1.022-1.148-2.225a133.78 133.78 0 0 0-1.186-2.297 1.775 1.775 0 0 0-.864-.681 1.935 1.935 0 0 0-.933-.069Zm-.4 9.195v6.545l-2.185 1.114c-1.202.612-2.208 1.115-2.235 1.118-.101.009-.139-.003-.209-.069-.06-.058-.071-.081-.071-.155 0-.049.168-1.145.373-2.438.365-2.294.374-2.357.375-2.66.001-.271-.005-.329-.046-.46a2.003 2.003 0 0 0-.242-.523c-.056-.084-.686-.729-1.85-1.897-.97-.973-1.779-1.792-1.797-1.819-.062-.094-.024-.263.074-.327.037-.024.746-.145 2.497-.424A128.42 128.42 0 0 0 8.5 9.268c.454-.131.83-.425 1.054-.828.034-.06.419-.812.856-1.67.928-1.821.829-1.63.841-1.63.005 0 .009 2.945.009 6.545Zm2.341-4.895c.454.891.864 1.681.912 1.756.216.336.561.593.958.712.076.023 1.24.218 2.585.432 1.752.279 2.46.4 2.497.424.098.064.136.233.074.327-.018.027-.822.841-1.787 1.809s-1.791 1.81-1.835 1.871a1.835 1.835 0 0 0-.256.519c-.052.158-.056.193-.056.49 0 .318.002.335.373 2.67.206 1.293.374 2.388.374 2.434 0 .07-.012.097-.071.155-.068.069-.106.082-.209.073-.027-.003-1.033-.506-2.235-1.119L12.74 18.23v-6.549c0-3.835.007-6.541.018-6.53.01.01.389.748.843 1.639Z" clip-rule="evenodd"/>
</svg>
