<svg xmlns="http://www.w3.org/2000/svg" width="24" height="24" fill="none" viewBox="0 0 24 24">
  <path fill="#161C24" fill-rule="evenodd" d="M2.258 1.288a.856.856 0 0 0-.439.402c-.043.087-.049.127-.049.31 0 .363-.265.067 2.898 3.235A268.993 268.993 0 0 1 7.43 8.02c-.038 0-3.638.577-3.739.599-.269.06-.536.201-.76.404-.189.17-.282.291-.392.511-.296.587-.25 1.23.128 1.796.05.075.756.798 1.867 1.911l1.787 1.791v.096c0 .052-.168 1.154-.373 2.449-.354 2.231-.374 2.368-.375 2.643 0 .219.007.321.033.418.146.529.47.922.945 1.151.286.137.392.16.75.16.337.001.458-.021.69-.124.065-.03 1.096-.552 2.29-1.16 1.193-.607 2.193-1.105 2.22-1.105.027 0 .838.401 1.8.892 3.214 1.637 2.9 1.498 3.4 1.497.243 0 .338-.008.44-.038a1.77 1.77 0 0 0 1.281-1.401c.012-.066.02-.208.016-.314l-.007-.195 1.31 1.305c1.512 1.507 1.41 1.424 1.76 1.424.182 0 .223-.006.31-.049a.899.899 0 0 0 .362-.356c.053-.105.058-.133.058-.325s-.005-.221-.059-.33c-.052-.107-1.115-1.176-10.14-10.201S2.937 1.381 2.831 1.329c-.105-.051-.147-.06-.31-.063a.843.843 0 0 0-.263.022Zm9.862 1.211c-.489.116-.868.39-1.118.81a76.06 76.06 0 0 0-1.249 2.46.89.89 0 0 0 .028.541.957.957 0 0 0 .37.37.866.866 0 0 0 .535.03.716.716 0 0 0 .356-.244c.04-.053.335-.613.657-1.246.376-.741.605-1.17.643-1.205.048-.045.077-.055.158-.055s.11.01.158.055c.038.036.444.813 1.163 2.225a119.303 119.303 0 0 0 1.192 2.306c.216.336.561.593.958.712.076.023 1.24.218 2.584.432 1.765.281 2.46.399 2.498.424.098.064.137.232.074.327-.018.027-.759.778-1.647 1.669-1.812 1.819-1.702 1.69-1.716 2.01a.68.68 0 0 0 .15.49.746.746 0 0 0 .981.171c.156-.103 3.331-3.288 3.44-3.451a1.74 1.74 0 0 0 .297-.738 1.742 1.742 0 0 0-.034-.715 2.15 2.15 0 0 0-.304-.623 1.9 1.9 0 0 0-.754-.564c-.177-.069-.253-.083-2.82-.491a151.397 151.397 0 0 1-2.333-.38.26.26 0 0 1-.096-.058c-.018-.02-.535-1.021-1.148-2.224a129.86 129.86 0 0 0-1.187-2.297 1.763 1.763 0 0 0-.86-.68 1.879 1.879 0 0 0-.976-.061Zm1.073 11.266 4.444 4.445.152.97c.083.533.151 1.009.151 1.058 0 .074-.01.097-.07.155-.07.066-.109.078-.21.069-.027-.003-1.035-.507-2.24-1.12a232.161 232.161 0 0 0-2.27-1.147 1.82 1.82 0 0 0-1.3 0c-.044.018-1.065.534-2.27 1.147s-2.213 1.117-2.24 1.12c-.1.009-.139-.003-.209-.069-.06-.058-.07-.081-.07-.155 0-.049.167-1.145.372-2.438.365-2.294.374-2.357.375-2.66.001-.271-.005-.329-.046-.46a2.003 2.003 0 0 0-.242-.523c-.057-.084-.693-.736-1.87-1.917-1.213-1.215-1.792-1.808-1.8-1.845a.265.265 0 0 1 .216-.326L6.43 9.69l2.3-.368c.011-.001 2.02 1.998 4.463 4.443Z" clip-rule="evenodd"/>
</svg>
