<svg xmlns="http://www.w3.org/2000/svg" width="24" height="24" fill="none" viewBox="0 0 24 24">
  <path fill="#161C24" fill-rule="evenodd" d="m4.8 2.76-2.13.011-.146.045A2.22 2.22 0 0 0 2 3.067a1.82 1.82 0 0 0-.685.967l-.045.156v8.62l.045.156c.049.168.153.39.252.534.209.307.569.565.957.684l.146.045 2.004.006 2.004.006 3.301 3.345a439.183 439.183 0 0 0 3.434 3.458c.183.159.303.202.537.192.25-.011.328-.053.59-.315a5.74 5.74 0 0 0 1.508-2.811c.099-.466.12-.667.121-1.2.002-.962-.135-1.56-.602-2.645-.009-.02.47-.025 2.357-.025 2.628 0 2.543.004 2.956-.133a2.705 2.705 0 0 0 1.55-1.33c.124-.239.208-.469.264-.722.028-.13.036-.25.035-.565 0-.351-.006-.423-.047-.59-.026-.104-.5-1.5-1.053-3.1-1.242-3.594-1.16-3.362-1.244-3.53-.371-.745-1.025-1.256-1.875-1.463-.128-.032-.372-.035-2.83-.041-6.196-.014-8.867-.015-10.88-.006ZM6.25 8.5v4.25H4.589c-1.553 0-1.664-.002-1.715-.035a.417.417 0 0 1-.089-.089c-.033-.051-.035-.272-.041-4.055-.003-2.201 0-4.039.006-4.086.015-.103.09-.198.177-.223.036-.011.749-.017 1.693-.015l1.63.003V8.5Zm11.99-4.215c.239.074.385.158.557.323.142.136.225.269.309.495.116.31 2.038 5.875 2.089 6.047.058.195.065.477.016.66a1.293 1.293 0 0 1-.723.845c-.226.096-.114.092-3.278.104l-3.001.011-.132.065a.698.698 0 0 0-.341.356.703.703 0 0 0-.058.449c.013.059.177.459.365.888.188.43.381.898.428 1.042.149.447.209.821.209 1.303 0 .848-.233 1.648-.684 2.351a.818.818 0 0 1-.115.156c-.009 0-1.041-1.037-2.293-2.305-1.252-1.268-2.63-2.661-3.062-3.096l-.786-.792v-4.46c0-2.453.006-4.466.014-4.474.007-.008 2.345-.011 5.195-.008 4.807.005 5.189.008 5.291.04Z" clip-rule="evenodd"/>
</svg>
