<svg xmlns="http://www.w3.org/2000/svg" width="24" height="24" fill="none" viewBox="0 0 24 24">
  <path fill="#161C24" fill-rule="evenodd" d="M5.758 1.288a.856.856 0 0 0-.44.402c-.046.096-.048.121-.058.58l-.01.48-.57.011c-.44.008-.606.019-.73.046a2.817 2.817 0 0 0-1.262.63 2.762 2.762 0 0 0-.897 1.618c-.027.155-.031 1.029-.031 7.695 0 8.212-.008 7.628.11 8.045.057.193.225.552.344.729a2.767 2.767 0 0 0 1.84 1.185c.156.027 1.054.031 7.936.031 8.448 0 7.89.007 8.3-.11a3.42 3.42 0 0 0 .74-.347 2.777 2.777 0 0 0 1.179-1.838c.027-.155.03-1.029.03-7.695 0-8.212.009-7.628-.11-8.045a3.402 3.402 0 0 0-.343-.729 2.786 2.786 0 0 0-1.736-1.169c-.124-.027-.29-.038-.73-.046l-.57-.011-.01-.48-.01-.48-.058-.115a.899.899 0 0 0-.362-.356c-.087-.043-.128-.049-.31-.049s-.223.006-.31.049a.899.899 0 0 0-.362.356l-.058.115-.01.48-.01.48H6.75l-.01-.48c-.01-.458-.012-.485-.06-.58a.894.894 0 0 0-.354-.361c-.1-.05-.14-.059-.305-.063a.785.785 0 0 0-.263.022ZM5.26 4.73c.01.458.012.485.059.58a.899.899 0 0 0 .356.362c.105.053.133.058.325.058.182 0 .223-.006.31-.049a.899.899 0 0 0 .362-.356l.058-.115.01-.48.01-.48h10.5l.01.48.01.48.058.115c.07.137.223.288.362.356.087.043.128.049.31.049s.223-.006.31-.049a.899.899 0 0 0 .362-.356l.058-.115.01-.48.01-.48.46.001c.52.001.595.013.846.132.234.111.45.327.56.561.044.091.092.216.107.276.04.164.04 14.896 0 15.06a1.3 1.3 0 0 1-.943.943c-.164.04-15.396.04-15.56 0a1.3 1.3 0 0 1-.943-.943c-.04-.164-.04-14.896 0-15.06.103-.419.426-.772.833-.91.152-.051.322-.065.75-.063l.39.003.01.48Zm.498 3.559a.845.845 0 0 0-.44.401c-.042.087-.048.127-.048.31 0 .192.005.22.058.325.07.137.223.288.362.356l.1.049h12.42l.1-.049a.899.899 0 0 0 .362-.356c.053-.105.058-.133.058-.325s-.005-.22-.058-.325a.899.899 0 0 0-.362-.356l-.1-.049-6.19-.004c-5.113-.003-6.203.001-6.262.023Zm3 4a.85.85 0 0 0-.44.401c-.042.087-.048.127-.048.31 0 .192.005.22.058.325a.89.89 0 0 0 .362.355c.082.04.142.051.33.059l.23.011.01 1.73.01 1.73.049.1a.899.899 0 0 0 .356.362c.105.053.133.058.325.058s.22-.005.325-.058a.899.899 0 0 0 .356-.362l.049-.1v-4.42l-.058-.115a.899.899 0 0 0-.362-.356c-.1-.049-.102-.049-.79-.053-.54-.003-.706.002-.762.023Zm4 0a.853.853 0 0 0-.44.401c-.042.087-.048.127-.048.31 0 .192.005.22.058.325.07.137.223.288.362.356.098.048.113.049.72.059.606.01.62.011.613.05-.003.022-.177.724-.386 1.56-.371 1.484-.38 1.524-.372 1.69a.577.577 0 0 0 .07.291.777.777 0 0 0 .343.342c.102.052.13.057.322.057.189 0 .22-.006.322-.055a.803.803 0 0 0 .343-.342c.029-.061.26-.953.565-2.168.498-1.995.515-2.071.506-2.22a.73.73 0 0 0-.414-.618l-.112-.057-1.19-.004c-.955-.003-1.204.002-1.262.023Z" clip-rule="evenodd"/>
</svg>
