<svg xmlns="http://www.w3.org/2000/svg" width="24" height="24" fill="none" viewBox="0 0 24 24">
  <path fill="#161C24" fill-rule="evenodd" d="M5.758 1.288a.856.856 0 0 0-.44.402c-.046.096-.048.121-.058.58l-.01.48-.57.011c-.44.008-.606.019-.73.046a2.817 2.817 0 0 0-1.262.63 2.762 2.762 0 0 0-.897 1.618c-.027.155-.031 1.029-.031 7.695 0 8.212-.008 7.628.11 8.045.057.193.225.552.344.729a2.767 2.767 0 0 0 1.84 1.185c.156.027 1.054.031 7.936.031 8.448 0 7.89.007 8.3-.11a3.42 3.42 0 0 0 .74-.347 2.777 2.777 0 0 0 1.179-1.838c.027-.155.03-1.029.03-7.695 0-8.212.009-7.628-.11-8.045a3.402 3.402 0 0 0-.343-.729 2.786 2.786 0 0 0-1.736-1.169c-.124-.027-.29-.038-.73-.046l-.57-.011-.01-.48-.01-.48-.058-.115a.899.899 0 0 0-.362-.356c-.087-.043-.128-.049-.31-.049s-.223.006-.31.049a.899.899 0 0 0-.362.356l-.058.115-.01.48-.01.48H6.75l-.01-.48c-.01-.458-.012-.485-.06-.58a.894.894 0 0 0-.354-.361c-.1-.05-.14-.059-.305-.063a.785.785 0 0 0-.263.022ZM5.26 4.73c.01.458.012.485.059.58a.899.899 0 0 0 .356.362c.105.053.133.058.325.058.182 0 .223-.006.31-.049a.899.899 0 0 0 .362-.356l.058-.115.01-.48.01-.48h10.5l.01.48.01.48.058.115c.07.137.223.288.362.356.087.043.128.049.31.049s.223-.006.31-.049a.899.899 0 0 0 .362-.356l.058-.115.01-.48.01-.48.46.001c.52.001.595.013.846.132.234.111.45.327.56.561.137.285.134.254.134 1.596v1.21H3.25V6.54c0-1.343-.003-1.311.134-1.598.136-.285.412-.526.726-.632.152-.051.322-.065.75-.063l.39.003.01.48Zm15.49 9.98c0 4.521-.005 5.479-.027 5.57a1.3 1.3 0 0 1-.943.943c-.164.04-15.396.04-15.56 0a1.317 1.317 0 0 1-.935-.903c-.032-.102-.035-.495-.04-5.57a820.74 820.74 0 0 1 .004-5.485c.008-.02 1.706-.024 8.755-.02l8.746.005v5.46Z" clip-rule="evenodd"/>
</svg>
