<svg xmlns="http://www.w3.org/2000/svg" width="24" height="24" fill="none" viewBox="0 0 24 24">
  <path fill="#161C24" fill-rule="evenodd" d="M16.793 16.793a1 1 0 0 1 1.414 0l4.5 4.5a1 1 0 0 1-1.414 1.414l-4.5-4.5a1 1 0 0 1 0-1.414Z" clip-rule="evenodd"/>
  <path fill="#161C24" fill-rule="evenodd" d="M1 11C1 5.477 5.477 1 11 1s10 4.477 10 10-4.477 10-10 10S1 16.523 1 11Zm10-8a8 8 0 1 0 0 16 8 8 0 0 0 0-16Z" clip-rule="evenodd"/>
  <path fill="#161C24" fill-rule="evenodd" d="M7.293 7.293a1 1 0 0 1 1.414 0L11 9.586l2.293-2.293a1 1 0 1 1 1.414 1.414L12.414 11l2.293 2.293a1 1 0 0 1-1.414 1.414L11 12.414l-2.293 2.293a1 1 0 0 1-1.414-1.414L9.586 11 7.293 8.707a1 1 0 0 1 0-1.414Z" clip-rule="evenodd"/>
</svg>
